<svg id="Calque_1" data-name="Calque 1" xmlns="http://www.w3.org/2000/svg" xmlns:xlink="http://www.w3.org/1999/xlink" viewBox="0 0 150.13114 379.84467"><defs><clipPath id="clip-path" transform="translate(0.06557 -0.07767)"><rect width="150" height="380" style="fill:none"/></clipPath><clipPath id="clip-path-2" transform="translate(0.06557 -0.07767)"><rect x="0.35545" y="0.49869" width="149.2891" height="379.00262" style="fill:none"/></clipPath><linearGradient id="Dégradé_sans_nom_2" x1="15.5032" y1="-0.06008" x2="16.50058" y2="-0.06008" gradientTransform="matrix(0, 757.36707, 757.36707, 0, 120.56557, -11782.58029)" gradientUnits="userSpaceOnUse"><stop offset="0" stop-color="#2d4b76"/><stop offset="0.00392" stop-color="#2d4b76"/><stop offset="0.0837" stop-color="#243c5f"/><stop offset="0.21602" stop-color="#192841"/><stop offset="0.35478" stop-color="#101829"/><stop offset="0.50101" stop-color="#090d17"/><stop offset="0.65954" stop-color="#05060d"/><stop offset="0.85286" stop-color="#04040a"/><stop offset="1" stop-color="#04040a"/></linearGradient><clipPath id="clip-path-4" transform="translate(0.06557 -0.07767)"><rect x="104" y="176" width="42" height="42" style="fill:none"/></clipPath><clipPath id="clip-path-8" transform="translate(0.06557 -0.07767)"><rect x="104.05512" y="227.34043" width="41.88977" height="45.3187" style="fill:none"/></clipPath><clipPath id="clip-path-10" transform="translate(0.06557 -0.07767)"><rect x="104.05512" y="117.34092" width="41.88977" height="45.3187" style="fill:none"/></clipPath><clipPath id="clip-path-12" transform="translate(0.06557 -0.07767)"><path d="M17.81626,369.51692l1.13966.62a.38593.38593,0,0,1,.14159.1184l-1.13967-.62A.386.386,0,0,0,17.81626,369.51692Z" style="fill:none"/></clipPath><clipPath id="clip-path-13" transform="translate(0.06557 -0.07767)"><path d="M18.684,370.61739l-1.13966-.62c.2649-.03723.41565-.119.44527-.24556l1.13965.62C19.09968,370.49842,18.94893,370.58016,18.684,370.61739Z" style="fill:none"/></clipPath><clipPath id="clip-path-14" transform="translate(0.06557 -0.07767)"><path d="M18.176,368.86062l1.13965.62a2.9036,2.9036,0,0,0-1.44961-.22776,22.00134,22.00134,0,0,0-2.40577.207,26.02614,26.02614,0,0,0-4.33946,1.009l-1.13966-.61995a26.02478,26.02478,0,0,1,4.33946-1.009,22.00361,22.00361,0,0,1,2.40577-.207A2.90368,2.90368,0,0,1,18.176,368.86062Z" style="fill:none"/></clipPath><clipPath id="clip-path-15" transform="translate(0.06557 -0.07767)"><path d="M9.40188,373.25157l-1.13966-.62a13.66513,13.66513,0,0,1,6.01244-2.57688,10.15963,10.15963,0,0,1,2.273-.06563,4.55923,4.55923,0,0,0,.99667.00834l1.13966.62a4.55975,4.55975,0,0,1-.99667-.00833,10.159,10.159,0,0,0-2.273.06562A13.66516,13.66516,0,0,0,9.40188,373.25157Z" style="fill:none"/></clipPath><clipPath id="clip-path-16" transform="translate(0.06557 -0.07767)"><path d="M8.06338,373.83729l-1.13967-.62a.5641.5641,0,0,0,.2092.0045,2.6436,2.6436,0,0,0,1.12931-.59023l1.13966.62a2.64361,2.64361,0,0,1-1.12931.59022A.56359.56359,0,0,1,8.06338,373.83729Z" style="fill:none"/></clipPath><clipPath id="clip-path-17" transform="translate(0.06557 -0.07767)"><path d="M7.98774,373.807,6.84807,373.187a.37422.37422,0,0,0,.07565.03028l1.13965.62A.37423.37423,0,0,1,7.98774,373.807Z" style="fill:none"/></clipPath><clipPath id="clip-path-18" transform="translate(0.06557 -0.07767)"><path d="M10.48714,371.02457l-1.13966-.62a9.422,9.422,0,0,1,.76125-4.55846l1.13966.62A9.422,9.422,0,0,0,10.48714,371.02457Z" style="fill:none"/></clipPath><clipPath id="clip-path-19" transform="translate(0.06557 -0.07767)"><path d="M7.63135,374.46345l-1.13967-.62a1.06188,1.06188,0,0,1-.48093-.61887l1.13967.62A1.06178,1.06178,0,0,0,7.63135,374.46345Z" style="fill:none"/></clipPath><clipPath id="clip-path-20" transform="translate(0.06557 -0.07767)"><path d="M9.71764,365.09285l1.13966.62c.55768.30336.46437.562.39109.75329l-1.13966-.62C10.182,365.65484,10.27532,365.39622,9.71764,365.09285Z" style="fill:none"/></clipPath><clipPath id="clip-path-21" transform="translate(0.06557 -0.07767)"><path d="M10.08294,364.44255l1.13966.62c-.07891-.04293-.1585-.0811-.23566-.11551l-1.13966-.62C9.92444,364.36145,10.004,364.39962,10.08294,364.44255Z" style="fill:none"/></clipPath><clipPath id="clip-path-22" transform="translate(0.06557 -0.07767)"><path d="M8.50255,365.91851l-1.13966-.62a2.26265,2.26265,0,0,1,1.5319-1.10911,1.77117,1.77117,0,0,1,.95249.13762l1.13966.62a1.77116,1.77116,0,0,0-.95249-.13762A2.26264,2.26264,0,0,0,8.50255,365.91851Z" style="fill:none"/></clipPath><clipPath id="clip-path-23" transform="translate(0.06557 -0.07767)"><path d="M7.15042,373.84459l-1.13967-.62c-.82818-2.51124-.37476-5.17672,1.35214-7.92608l1.13966.62C6.77566,368.66786,6.32224,371.33334,7.15042,373.84459Z" style="fill:none"/></clipPath><clipPath id="clip-path-24" transform="translate(0.06557 -0.07767)"><path d="M143.81623,369.51691l1.13965.62a.38579.38579,0,0,1,.1416.1184l-1.13966-.62A.386.386,0,0,0,143.81623,369.51691Z" style="fill:none"/></clipPath><clipPath id="clip-path-25" transform="translate(0.06557 -0.07767)"><path d="M144.684,370.61739l-1.13967-.62c.2649-.03723.41566-.119.44528-.24556l1.13966.62C145.09968,370.49842,144.94893,370.58016,144.684,370.61739Z" style="fill:none"/></clipPath><clipPath id="clip-path-26" transform="translate(0.06557 -0.07767)"><path d="M144.176,368.86061l1.13965.62a2.90353,2.90353,0,0,0-1.44959-.22776,22.00393,22.00393,0,0,0-2.40542.20694,25.89885,25.89885,0,0,0-4.33184,1.0079l-1.13967-.62a25.89873,25.89873,0,0,1,4.33185-1.0079,22.00145,22.00145,0,0,1,2.40542-.20694A2.90372,2.90372,0,0,1,144.176,368.86061Z" style="fill:none"/></clipPath><clipPath id="clip-path-27" transform="translate(0.06557 -0.07767)"><path d="M135.40184,373.25157l-1.13967-.62a13.66541,13.66541,0,0,1,6.01248-2.5769,10.16024,10.16024,0,0,1,2.273-.06562,4.56041,4.56041,0,0,0,.99666.00834l1.13967.62a4.55975,4.55975,0,0,1-.99667-.00833,10.159,10.159,0,0,0-2.273.06562A13.66529,13.66529,0,0,0,135.40184,373.25157Z" style="fill:none"/></clipPath><clipPath id="clip-path-28" transform="translate(0.06557 -0.07767)"><path d="M134.07137,373.83616l-1.13968-.62a.527.527,0,0,0,.20395.00524,2.64677,2.64677,0,0,0,1.12653-.58983l1.13967.62a2.64659,2.64659,0,0,1-1.12654.58983A.52643.52643,0,0,1,134.07137,373.83616Z" style="fill:none"/></clipPath><clipPath id="clip-path-29" transform="translate(0.06557 -0.07767)"><path d="M133.98621,373.804l-1.13968-.61995a.35833.35833,0,0,0,.08517.03215l1.13966.62A.35758.35758,0,0,1,133.98621,373.804Z" style="fill:none"/></clipPath><clipPath id="clip-path-30" transform="translate(0.06557 -0.07767)"><path d="M136.49511,371.02345l-1.13967-.62a9.42118,9.42118,0,0,1,.75324-4.55733l1.13967.62A9.4211,9.4211,0,0,0,136.49511,371.02345Z" style="fill:none"/></clipPath><clipPath id="clip-path-31" transform="translate(0.06557 -0.07767)"><path d="M133.63131,374.46346l-1.13966-.62a1.06168,1.06168,0,0,1-.48092-.61887l1.13966.62A1.06179,1.06179,0,0,0,133.63131,374.46346Z" style="fill:none"/></clipPath><clipPath id="clip-path-32" transform="translate(0.06557 -0.07767)"><path d="M135.71759,365.09286l1.13966.62c.55768.30336.46437.562.3911.75329l-1.13967-.62C136.182,365.65485,136.27527,365.39623,135.71759,365.09286Z" style="fill:none"/></clipPath><clipPath id="clip-path-33" transform="translate(0.06557 -0.07767)"><path d="M136.08289,364.44255l1.13967.62c-.07892-.04294-.1585-.08111-.23567-.11552l-1.13966-.62C135.92439,364.36146,136.004,364.39962,136.08289,364.44255Z" style="fill:none"/></clipPath><clipPath id="clip-path-34" transform="translate(0.06557 -0.07767)"><path d="M134.50251,365.91851l-1.13967-.62a2.26273,2.26273,0,0,1,1.53192-1.10912,1.77106,1.77106,0,0,1,.95247.13762l1.13966.62a1.77105,1.77105,0,0,0-.95247-.13762A2.26272,2.26272,0,0,0,134.50251,365.91851Z" style="fill:none"/></clipPath><clipPath id="clip-path-35" transform="translate(0.06557 -0.07767)"><path d="M133.15039,373.84459l-1.13966-.62c-.8282-2.51124-.37478-5.17672,1.35211-7.92607l1.13967.62C132.77561,368.66787,132.32219,371.33335,133.15039,373.84459Z" style="fill:none"/></clipPath></defs><title>BurstIntegrator</title><g id="Panel_14_HP" data-name="Panel 14 HP"><g style="clip-path:url(#clip-path)"><g style="clip-path:url(#clip-path-2)"><rect x="0.42102" y="0.42102" width="149.28909" height="379.00262" style="fill:url(#Dégradé_sans_nom_2)"/></g><g style="clip-path:url(#clip-path)"><rect x="0.42102" y="0.42102" width="149.2891" height="379.00262" style="fill:none;stroke:#000;stroke-miterlimit:10;stroke-width:0.8420419190424169px"/></g></g></g><path d="M11.90625,195.66309l1.95313.00488a.97413.97413,0,1,1-.00489,1.94824l-1.94336.00488a1.71234,1.71234,0,0,0-1.94433,1.94825,1.73007,1.73007,0,0,0,1.94922,1.95312h1.93847a.97414.97414,0,0,1,.00977,1.94824H11.916q-3.89942,0-3.90332-3.90625Q8.0127,195.65772,11.90625,195.66309Z" transform="translate(0.06557 -0.07767)" style="fill:#fff"/><path d="M16.77832,195.65332a.87948.87948,0,0,1,.98926.957l-.00977,4.90235h3.873a.8734.8734,0,0,1,.98437.98632.86376.86376,0,0,1-.96484.97168H16.77832a.8523.8523,0,0,1-.97461-.94726v-5.88379A.87974.87974,0,0,1,16.77832,195.65332Z" transform="translate(0.06557 -0.07767)" style="fill:#fff"/><path d="M27.48828,195.66309a3.97991,3.97991,0,0,1,1.917.50488,3.63981,3.63981,0,0,1,1.46192,1.44531,3.92166,3.92166,0,0,1,.01465,3.90625,3.618,3.618,0,0,1-1.44532,1.44531,3.9218,3.9218,0,0,1-3.88769,0,3.6179,3.6179,0,0,1-1.44531-1.44531,3.94394,3.94394,0,0,1,.00781-3.90625,3.59084,3.59084,0,0,1,1.4541-1.44531A3.98784,3.98784,0,0,1,27.48828,195.66309Zm-.95312,2.19433a1.80788,1.80788,0,0,0-.72852.72266,1.9992,1.9992,0,0,0-.26269.98437,1.975,1.975,0,0,0,.25781.97168,1.833,1.833,0,0,0,.72363.72266,1.95542,1.95542,0,0,0,1.94434,0,1.83309,1.83309,0,0,0,.72363-.72266,1.96788,1.96788,0,0,0-.00488-1.95605,1.803,1.803,0,0,0-.73145-.72266,1.96513,1.96513,0,0,0-1.92187,0Z" transform="translate(0.06557 -0.07767)" style="fill:#fff"/><path d="M36.26367,195.66309l1.95313.00488a.97413.97413,0,1,1-.00489,1.94824l-1.94336.00488a1.71234,1.71234,0,0,0-1.94433,1.94825,1.73007,1.73007,0,0,0,1.94922,1.95312h1.93847a.97414.97414,0,0,1,.00977,1.94824H36.27344q-3.89941,0-3.90332-3.90625Q32.37012,195.65772,36.26367,195.66309Z" transform="translate(0.06557 -0.07767)" style="fill:#fff"/><path d="M42.12109,196.63477l-.00488,5.85937a.87293.87293,0,0,1-.97949.97656.85849.85849,0,0,1-.96973-.97168v-5.85937a.97708.97708,0,1,1,1.9541-.00488Zm4.626-.74512a.94166.94166,0,0,1,.24121.74023,1.29814,1.29814,0,0,1-.5166.97168l-1.7832,1.958,1.78808,1.94336a1.24974,1.24974,0,0,1,.50684.99121.893.893,0,0,1-.24121.73926,1.01029,1.01029,0,0,1-.73828.2373.99848.99848,0,0,1-.75293-.25195q-.2505-.25635-1.20313-1.40625-.95214-1.1499-1.19824-1.44043a1.26093,1.26093,0,0,1-.26074-.80273,1.22924,1.22924,0,0,1,.25586-.78614q.25048-.31347,1.2207-1.4873.96827-1.17335,1.21484-1.41309a1.22957,1.22957,0,0,1,1.4668.00684Z" transform="translate(0.06557 -0.07767)" style="fill:#fff"/><path d="M15.32129,240.65332l4.93066.00977a.8341.8341,0,0,1,.916.94726.8898.8898,0,0,1-.98438,1.01074h-1.456l.00488,4.87793a.87391.87391,0,0,1-.97949.97168.84956.84956,0,0,1-.97461-.94726l.00488-4.90235H15.32129a.8646.8646,0,0,1-.97461-.98144A.87974.87974,0,0,1,15.32129,240.65332Z" transform="translate(0.06557 -0.07767)" style="fill:#fff"/><path d="M23.11719,240.66309h3.41992a2.51394,2.51394,0,0,1,2.42187,2.43164,3.61506,3.61506,0,0,1-.36718,1.70605,1.2387,1.2387,0,0,1-1.10938.7207l1.2041,1.22071a1.0242,1.0242,0,0,1,.28711.75683.86549.86549,0,0,1-.97461.97168,1.33507,1.33507,0,0,1-.97949-.47851l-1.94824-2.42188a1.53425,1.53425,0,0,1-.49707-1.00586.86569.86569,0,0,1,.98437-.98144l.69141-.00488q.77051.00878.75977-.47364,0-.48339-.76465-.4834H24.09668v4.873a.86227.86227,0,0,1-.97949.97656.85314.85314,0,0,1-.97461-.96679v-5.874A.86525.86525,0,0,1,23.11719,240.66309Z" transform="translate(0.06557 -0.07767)" style="fill:#fff"/><path d="M30.9082,240.66309a.87756.87756,0,0,1,.98926.96679V247.499a.97712.97712,0,1,1-1.9541.00489v-5.86914A.85583.85583,0,0,1,30.9082,240.66309Z" transform="translate(0.06557 -0.07767)" style="fill:#fff"/><path d="M36.74609,240.66309l1.958-.00489a.87.87,0,0,1,.96485.98633.842.842,0,0,1-.96.95215l-1.95312.00977a2.007,2.007,0,0,0-.96289.251,1.80788,1.80788,0,0,0-.72852.72266,1.9992,1.9992,0,0,0-.26269.98437,1.97516,1.97516,0,0,0,.25781.97168,1.83309,1.83309,0,0,0,.72363.72266,1.98267,1.98267,0,0,0,.97266.25879,2.417,2.417,0,0,0,1.02539-.24219,1.50056,1.50056,0,0,0,.75293-.749h-.81445a.86035.86035,0,0,1-.98828-.957.876.876,0,0,1,.97363-.99121l1.959.00976a.88619.88619,0,0,1,.98926.98633,3.96563,3.96563,0,0,1-.51367,1.94531,3.618,3.618,0,0,1-1.44531,1.44531,3.92181,3.92181,0,0,1-3.8877,0,3.618,3.618,0,0,1-1.44531-1.44531,3.944,3.944,0,0,1,.00781-3.90625,3.5909,3.5909,0,0,1,1.4541-1.44531A3.98784,3.98784,0,0,1,36.74609,240.66309Z" transform="translate(0.06557 -0.07767)" style="fill:#fff"/><path d="M15.79883,285.66309a.99768.99768,0,0,1,.72558.249q.23438.23877,2.208,2.207,1.94824-1.95409,2.19238-2.20508a.96814.96814,0,0,1,.72559-.251.86513.86513,0,0,1,.97461.97168l.00488,5.85937a.879.879,0,0,1-.98437.98633.88.88,0,0,1-.97949-.98633V289.042q-.97852,1.01074-1.22071,1.25684a1.162,1.162,0,0,1-1.4414-.00684q-.252-.25488-1.22559-1.23047v3.43262a.87063.87063,0,0,1-.97461.97656.85732.85732,0,0,1-.97461-.97656v-5.85937A.85773.85773,0,0,1,15.79883,285.66309Z" transform="translate(0.06557 -0.07767)" style="fill:#fff"/><path d="M27.49316,285.66309a3.97992,3.97992,0,0,1,1.917.50488,3.63978,3.63978,0,0,1,1.46191,1.44531,3.92166,3.92166,0,0,1,.01465,3.90625,3.618,3.618,0,0,1-1.44531,1.44531,3.92181,3.92181,0,0,1-3.8877,0,3.618,3.618,0,0,1-1.44531-1.44531,3.944,3.944,0,0,1,.00781-3.90625,3.5909,3.5909,0,0,1,1.4541-1.44531A3.98784,3.98784,0,0,1,27.49316,285.66309ZM26.54,287.85742a1.80788,1.80788,0,0,0-.72852.72266,1.9992,1.9992,0,0,0-.26269.98437,1.97516,1.97516,0,0,0,.25781.97168,1.83309,1.83309,0,0,0,.72363.72266,1.95542,1.95542,0,0,0,1.94434,0,1.833,1.833,0,0,0,.72363-.72266,1.96788,1.96788,0,0,0-.00488-1.95605,1.803,1.803,0,0,0-.73145-.72266,1.96513,1.96513,0,0,0-1.92187,0Z" transform="translate(0.06557 -0.07767)" style="fill:#fff"/><path d="M33.34961,285.66309h2.92383q3.90234.00439,3.90234,3.90625-.0044,3.89063-3.80078,3.90136H33.34961a.85769.85769,0,0,1-.97461-.97656v-5.85449A.86741.86741,0,0,1,33.34961,285.66309Zm.97949,1.958v3.89161h1.9541a1.94586,1.94586,0,0,0-.00488-3.89161Z" transform="translate(0.06557 -0.07767)" style="fill:#fff"/><path d="M19.7002,340.66309a3.97991,3.97991,0,0,1,1.917.50488,3.63978,3.63978,0,0,1,1.46191,1.44531,3.92166,3.92166,0,0,1,.01465,3.90625,3.618,3.618,0,0,1-1.44531,1.44531,3.92181,3.92181,0,0,1-3.8877,0,3.618,3.618,0,0,1-1.44531-1.44531,3.944,3.944,0,0,1,.00781-3.90625,3.5909,3.5909,0,0,1,1.4541-1.44531A3.98785,3.98785,0,0,1,19.7002,340.66309Zm-.95313,2.19433a1.80794,1.80794,0,0,0-.72852.72266,1.9992,1.9992,0,0,0-.26269.98437,1.97516,1.97516,0,0,0,.25781.97168,1.83309,1.83309,0,0,0,.72363.72266,1.95542,1.95542,0,0,0,1.94434,0,1.833,1.833,0,0,0,.72363-.72266,1.96782,1.96782,0,0,0-.00488-1.95605,1.803,1.803,0,0,0-.73144-.72266,1.96515,1.96515,0,0,0-1.92188,0Z" transform="translate(0.06557 -0.07767)" style="fill:#fff"/><path d="M25.57617,340.65332a.85246.85246,0,0,1,.97949.94238l-.00488,2.97364q.00879,1.95262,1.48145,1.96289,1.46045-.01466,1.45605-1.96778v-2.93457a.97712.97712,0,1,1,1.9541.00489v2.93457q-.00439,3.90087-3.41015,3.90136-3.42627.02344-3.43067-3.90136v-2.93946A.86983.86983,0,0,1,25.57617,340.65332Z" transform="translate(0.06557 -0.07767)" style="fill:#fff"/><path d="M33.35254,340.65332l4.93066.00977a.8341.8341,0,0,1,.916.94726.8898.8898,0,0,1-.98438,1.01074H36.75879l.00488,4.87793a.87391.87391,0,0,1-.97949.97168.84956.84956,0,0,1-.97461-.94726l.00488-4.90235H33.35254a.8646.8646,0,0,1-.97461-.98144A.87974.87974,0,0,1,33.35254,340.65332Z" transform="translate(0.06557 -0.07767)" style="fill:#fff"/><path d="M107.07031,216.52246a.70385.70385,0,0,1,.792.76563l-.00781,3.92187h3.09864a.69813.69813,0,0,1,.7871.78906.691.691,0,0,1-.77148.77735h-3.89844a.68195.68195,0,0,1-.77929-.75782v-4.707A.70384.70384,0,0,1,107.07031,216.52246Z" transform="translate(0.06557 -0.07767)" style="fill:#fff"/><path d="M113.30371,216.52246l3.94531.00781a.66653.66653,0,0,1,.73243.75782.71139.71139,0,0,1-.78711.80859h-3.10645V221.21h3.09863a.69814.69814,0,0,1,.78711.78906.691.691,0,0,1-.77148.77735h-3.89844a.682.682,0,0,1-.7793-.75782v-4.707A.70385.70385,0,0,1,113.30371,216.52246Zm1.1582,3.14844a.702.702,0,0,1,.77149-.793h1.56738a.78323.78323,0,1,1,.00391,1.56641H115.2373A.685.685,0,0,1,114.46191,219.6709Z" transform="translate(0.06557 -0.07767)" style="fill:#fff"/><path d="M119.6416,216.53809a.95316.95316,0,0,1,.67871.32031l2.335,2.98437v-2.62109a.61.61,0,0,1,.66211-.68359q.87744.01171.88477.69921l.00781,4.85938q-.00732.67091-.89258.67969a.8003.8003,0,0,1-.65039-.32032l-2.34668-2.97656v2.61719a.60481.60481,0,0,1-.67871.67969q-.88036.00293-.88476-.6875v-4.8711C118.75391,216.7666,119.0498,216.54,119.6416,216.53809Z" transform="translate(0.06557 -0.07767)" style="fill:#fff"/><path d="M128.1084,216.53027l1.56738-.0039a.69545.69545,0,0,1,.77149.78906.67351.67351,0,0,1-.76758.76172l-1.56348.00781a1.59179,1.59179,0,0,0-.76953.20117,1.4383,1.4383,0,0,0-.583.57813,1.59806,1.59806,0,0,0-.21.78711,1.57827,1.57827,0,0,0,.20606.77734,1.472,1.472,0,0,0,.5791.57813,1.58222,1.58222,0,0,0,.77734.207,1.9365,1.9365,0,0,0,.82129-.19336,1.1959,1.1959,0,0,0,.60156-.59961h-.65039a.68912.68912,0,0,1-.792-.76563.70166.70166,0,0,1,.78027-.793l1.56641.00782a.70928.70928,0,0,1,.792.78906,3.18361,3.18361,0,0,1-.41113,1.55664,2.908,2.908,0,0,1-1.15625,1.15625,3.14041,3.14041,0,0,1-3.11035,0,2.90174,2.90174,0,0,1-1.15625-1.15625,3.15514,3.15514,0,0,1,.00586-3.125,2.86625,2.86625,0,0,1,1.16406-1.15625A3.187,3.187,0,0,1,128.1084,216.53027Z" transform="translate(0.06557 -0.07767)" style="fill:#fff"/><path d="M132.794,216.52246l3.94531.00781a.66652.66652,0,0,1,.73242.75782.71139.71139,0,0,1-.78711.80859h-1.165l.00391,3.90234a.69932.69932,0,0,1-.78418.77735.67961.67961,0,0,1-.7793-.75782l.00391-3.92187H132.794a.69141.69141,0,0,1-.7793-.78516A.70384.70384,0,0,1,132.794,216.52246Z" transform="translate(0.06557 -0.07767)" style="fill:#fff"/><path d="M139.81445,217.30762l-.0039,4.6875a.69844.69844,0,0,1-.78418.78125.68621.68621,0,0,1-.77539-.77735v-4.6875a.78176.78176,0,1,1,1.56347-.0039Zm3.89356-.00391-.00391,4.69141a.77931.77931,0,0,1-1.55859.00781v-1.57422l-1.14649.00391a.7799.7799,0,1,1,0-1.5586l1.14649-.01172v-1.55859a.78129.78129,0,1,1,1.5625,0Z" transform="translate(0.06557 -0.07767)" style="fill:#fff"/><path d="M113.3125,161.53027h2.7373a2.01126,2.01126,0,0,1,1.93653,1.94532,2.89121,2.89121,0,0,1-.29395,1.36523.9895.9895,0,0,1-.88672.57617l.96289.97656a.81953.81953,0,0,1,.2295.60547.69212.69212,0,0,1-.7793.77735,1.06357,1.06357,0,0,1-.7832-.38282l-1.55957-1.9375a1.22865,1.22865,0,0,1-.39746-.80468.693.693,0,0,1,.78711-.78516l.55371-.00391q.61522.00807.60839-.3789,0-.38671-.6123-.38672h-1.71875v3.89844a.69.69,0,0,1-.78418.78125.6824.6824,0,0,1-.7793-.77344v-4.69922A.693.693,0,0,1,113.3125,161.53027Z" transform="translate(0.06557 -0.07767)" style="fill:#fff"/><path d="M119.55371,167.78027a.80334.80334,0,0,1-.38379-.09961.71986.71986,0,0,1-.29-.28711.79266.79266,0,0,1-.10547-.39453,18.93,18.93,0,0,1,1.166-2.55078q1.16455-2.34741,1.2666-2.5332a.71984.71984,0,0,1,.28809-.28906.79743.79743,0,0,1,.38965-.10352.78836.78836,0,0,1,.38867.10352.73858.73858,0,0,1,.28808.28906q.10254.18529,1.27442,2.5332a18.881,18.881,0,0,1,1.17187,2.55078.79256.79256,0,0,1-.10547.39453.71844.71844,0,0,1-.292.28711.80816.80816,0,0,1-.38281.09961Zm3.39942-1.57422-1.06836-2.19921-1.07129,2.19921Z" transform="translate(0.06557 -0.07767)" style="fill:#fff"/><path d="M126.56152,161.52246l3.94532.00781a.66673.66673,0,0,1,.73242.75782.71139.71139,0,0,1-.78711.80859h-1.165l.00391,3.90234a.69891.69891,0,0,1-.78418.77735.67941.67941,0,0,1-.7793-.75782l.00391-3.92187h-1.16993a.69141.69141,0,0,1-.77929-.78516A.704.704,0,0,1,126.56152,161.52246Z" transform="translate(0.06557 -0.07767)" style="fill:#fff"/><path d="M132.79492,161.52246l3.94531.00781a.66673.66673,0,0,1,.73243.75782.71139.71139,0,0,1-.78711.80859H133.5791V166.21h3.09863a.69833.69833,0,0,1,.78711.78906.69057.69057,0,0,1-.77148.77735h-3.89844a.68174.68174,0,0,1-.77929-.75782v-4.707A.704.704,0,0,1,132.79492,161.52246Zm1.15821,3.14844a.70219.70219,0,0,1,.77148-.793H136.292a.78323.78323,0,1,1,.00391,1.56641h-1.56738A.68461.68461,0,0,1,133.95313,164.6709Z" transform="translate(0.06557 -0.07767)" style="fill:#fff"/><path d="M22.8457,101.63965a.85255.85255,0,0,1-.94043.98144l-2.96679-.00488q-.98437.00952-.99414.49805.01464.46362.999.459h.96q2.937.00952,2.95215,2.47559,0,2.39721-2.94727,2.41211H16.97949a.9595.9595,0,1,1-.00976-1.91895l2.93847-.01465q.98292-.00512.9834-.50293,0-.498-.99316-.49316h-.96q-2.92969-.00513-2.92871-2.417-.019-2.44629,2.92871-2.45117h2.93261A.86982.86982,0,0,1,22.8457,101.63965Z" transform="translate(0.06557 -0.07767)" style="fill:#fff"/><path d="M24.77051,100.65332l4.93066.00977a.83431.83431,0,0,1,.916.94726.8898.8898,0,0,1-.98438,1.01074h-1.456l.00488,4.87793a.8735.8735,0,0,1-.97949.97168.84937.84937,0,0,1-.97461-.94726l.00488-4.90235H24.77051a.8646.8646,0,0,1-.97461-.98144A.87994.87994,0,0,1,24.77051,100.65332Z" transform="translate(0.06557 -0.07767)" style="fill:#fff"/><path d="M32.56152,100.65332l4.93067.00977a.8343.8343,0,0,1,.916.94726.88979.88979,0,0,1-.98437,1.01074H33.541v3.89161h3.873a.8736.8736,0,0,1,.98438.98632.86336.86336,0,0,1-.96485.97168H32.56152a.8521.8521,0,0,1-.97461-.94726v-5.88379A.87994.87994,0,0,1,32.56152,100.65332Zm1.44727,3.93555a.87783.87783,0,0,1,.96484-.99121h1.958a.979.979,0,1,1,.00488,1.958h-1.958A.85543.85543,0,0,1,34.00879,104.58887Z" transform="translate(0.06557 -0.07767)" style="fill:#fff"/><path d="M40.3584,100.66309h3.41992a2.35217,2.35217,0,0,1,1.68359.72265,2.2837,2.2837,0,0,1,.73829,1.709,2.33642,2.33642,0,0,1-.72852,1.72851,2.377,2.377,0,0,1-1.72656.71778l-.96.00976a.98394.98394,0,0,1,.01464-1.96777l.69141-.00488q.7705.00951.75977-.47364,0-.48339-.76465-.4834H41.33789v4.87305a.86208.86208,0,0,1-.97949.97656.85276.85276,0,0,1-.97461-.96679v-5.874A.86565.86565,0,0,1,40.3584,100.66309Z" transform="translate(0.06557 -0.07767)" style="fill:#fff"/><path d="M54.01563,101.63965a.85255.85255,0,0,1-.94043.98144l-2.9668-.00488q-.98437.00952-.99414.49805.01464.46362.999.459h.96q2.937.00952,2.95215,2.47559,0,2.39721-2.94726,2.41211H48.14941a.9595.9595,0,1,1-.00976-1.91895l2.93848-.01465q.98291-.00512.98339-.50293,0-.498-.99316-.49316h-.96q-2.9297-.00513-2.92871-2.417-.01905-2.44629,2.92871-2.45117H53.041A.86982.86982,0,0,1,54.01563,101.63965Z" transform="translate(0.06557 -0.07767)" style="fill:#fff"/><path d="M113.31348,110.6626l1.95312.00488a.97413.97413,0,1,1-.00488,1.94824l-1.94336.00489a1.71234,1.71234,0,0,0-1.94434,1.94824,1.72968,1.72968,0,0,0,1.94922,1.95312h1.93848a.97414.97414,0,0,1,.00976,1.94824h-1.94824q-3.89942,0-3.90332-3.90625Q109.41992,110.658,113.31348,110.6626Z" transform="translate(0.06557 -0.07767)" style="fill:#fff"/><path d="M124.03223,110.65283a.98823.98823,0,0,1,.47754.127.90034.90034,0,0,1,.36523.36132.98213.98213,0,0,1,.13184.48828,23.69393,23.69393,0,0,1-1.46387,3.19092q-1.46484,2.937-1.59375,3.16651a.92266.92266,0,0,1-.36035.35888.97891.97891,0,0,1-.48438.1294.98964.98964,0,0,1-.4873-.1294.90622.90622,0,0,1-.36133-.35888q-.126-.22926-1.583-3.16651a23.64771,23.64771,0,0,1-1.457-3.19092.98213.98213,0,0,1,.13184-.48828.90523.90523,0,0,1,.3623-.36132.96709.96709,0,0,1,.958,0,.91242.91242,0,0,1,.36523.36132q.13183.23438,2.07129,4.2334,1.95264-3.999,2.085-4.2334a.91382.91382,0,0,1,.36328-.36132A.9871.9871,0,0,1,124.03223,110.65283Z" transform="translate(0.06557 -0.07767)" style="fill:#fff"/><path d="M131.81445,110.6626a.878.878,0,0,1,.98926.96679v5.86915a.97712.97712,0,1,1-1.9541.00488v-5.86914A.856.856,0,0,1,131.81445,110.6626Z" transform="translate(0.06557 -0.07767)" style="fill:#fff"/><path d="M134.86523,110.67236a1.19685,1.19685,0,0,1,.84766.40039l2.918,3.73047v-3.27636a.76351.76351,0,0,1,.8291-.8545q1.0957.01466,1.10547.874l.00977,6.07422q-.00879.84008-1.11524.8496a1.00239,1.00239,0,0,1-.81445-.40039l-2.93262-3.7207v3.27149a.75588.75588,0,0,1-.84766.8496q-1.10155.00513-1.10644-.85937V111.522Q133.7544,110.67748,134.86523,110.67236Z" transform="translate(0.06557 -0.07767)" style="fill:#fff"/><path d="M76.77734,110.6626h3.41993a2.5149,2.5149,0,0,1,2.42187,2.43164,3.617,3.617,0,0,1-.36719,1.70654,1.23737,1.23737,0,0,1-1.10937.72022l1.2041,1.2207a1.025,1.025,0,0,1,.28711.75684.86509.86509,0,0,1-.97461.97167,1.33328,1.33328,0,0,1-.97949-.47851l-1.94824-2.42188a1.53319,1.53319,0,0,1-.49707-1.00586.86607.86607,0,0,1,.98437-.98144l.69141-.00488q.7705.00951.75976-.47364,0-.48339-.76465-.48339H77.75684v4.873a.86209.86209,0,0,1-.9795.97656.85276.85276,0,0,1-.97461-.96679v-5.874A.86566.86566,0,0,1,76.77734,110.6626Z" transform="translate(0.06557 -0.07767)" style="fill:#fff"/><path d="M90.43457,111.63916a.85256.85256,0,0,1-.94043.98145l-2.9668-.00489q-.98437.00952-.99414.49805.01466.46362.999.459h.96q2.937.00952,2.95215,2.47559,0,2.39721-2.94727,2.41211H84.56836a.9595.9595,0,1,1-.00977-1.91895l2.93848-.01464q.98291-.00513.9834-.50293,0-.49806-.99317-.49317h-.96q-2.92968-.00513-2.92871-2.417-.019-2.44629,2.92871-2.45117H89.46A.86982.86982,0,0,1,90.43457,111.63916Z" transform="translate(0.06557 -0.07767)" style="fill:#fff"/><path d="M92.35938,110.65283l4.93066.00977a.8343.8343,0,0,1,.916.94726.8898.8898,0,0,1-.98437,1.01075H95.76563l.00488,4.87793a.8735.8735,0,0,1-.97949.97167.84937.84937,0,0,1-.97461-.94726l.00488-4.90234H92.35938a.8646.8646,0,0,1-.97461-.98145A.87994.87994,0,0,1,92.35938,110.65283Z" transform="translate(0.06557 -0.07767)" style="fill:#fff"/><path d="M72.38477,55.6626a1.00186,1.00186,0,0,1,.72558.249q.23438.2395,2.208,2.207,1.94825-1.95336,2.19238-2.20459a.96637.96637,0,0,1,.72559-.25146.86534.86534,0,0,1,.97461.97168l.00488,5.85937a.98194.98194,0,1,1-1.96387,0V59.0415q-.97851,1.01075-1.2207,1.25733a1.16294,1.16294,0,0,1-1.44141-.00733q-.25194-.25414-1.22558-1.23046v3.43261a.87043.87043,0,0,1-.97461.97656.85713.85713,0,0,1-.97461-.97656V56.63428A.85792.85792,0,0,1,72.38477,55.6626Z" transform="translate(0.06557 -0.07767)" style="fill:#fff"/><path d="M81.17969,55.65283a.85267.85267,0,0,1,.97949.94238l-.00488,2.97364q.00879,1.95336,1.48144,1.96289,1.46046-.01465,1.45606-1.96778V56.62939a.97712.97712,0,1,1,1.9541.00489v2.93457q-.0044,3.90161-3.41016,3.90136-3.42627.02418-3.43066-3.90136V56.62939A.87.87,0,0,1,81.17969,55.65283Z" transform="translate(0.06557 -0.07767)" style="fill:#fff"/><path d="M88.95605,55.65283a.8799.8799,0,0,1,.98926.957l-.00976,4.90235h3.873a.87361.87361,0,0,1,.98438.98633.86335.86335,0,0,1-.96484.97167H88.95605a.85209.85209,0,0,1-.9746-.94726V56.63916A.87994.87994,0,0,1,88.95605,55.65283Z" transform="translate(0.06557 -0.07767)" style="fill:#fff"/><path d="M96.74707,55.65283l4.93066.00977a.8343.8343,0,0,1,.916.94726.8898.8898,0,0,1-.98437,1.01075h-1.45606l.00488,4.87793a.87349.87349,0,0,1-.97949.97167.84937.84937,0,0,1-.97461-.94726l.00488-4.90234H96.74707a.86461.86461,0,0,1-.97461-.98145A.88.88,0,0,1,96.74707,55.65283Z" transform="translate(0.06557 -0.07767)" style="fill:#fff"/><path d="M9.48682,150.66309h3.41992a2.5149,2.5149,0,0,1,2.42187,2.43164,3.61714,3.61714,0,0,1-.36718,1.70654,1.23737,1.23737,0,0,1-1.10938.72021l1.2041,1.22071a1.025,1.025,0,0,1,.28711.75683.86508.86508,0,0,1-.97461.97168,1.33329,1.33329,0,0,1-.97949-.47851l-1.94824-2.42188a1.53324,1.53324,0,0,1-.49707-1.00586.86607.86607,0,0,1,.98437-.98144l.69141-.00488q.77051.00951.75976-.47364,0-.48339-.76464-.4834H10.46631v4.873a.86208.86208,0,0,1-.97949.97656.85276.85276,0,0,1-.97461-.96679v-5.874A.86565.86565,0,0,1,9.48682,150.66309Z" transform="translate(0.06557 -0.07767)" style="fill:#fff"/><path d="M17.28271,150.65332l4.93067.00977a.8343.8343,0,0,1,.916.94726.88979.88979,0,0,1-.98437,1.01074H18.26221v3.89161h3.873a.8736.8736,0,0,1,.98438.98632.86336.86336,0,0,1-.96484.97168H17.28271a.85209.85209,0,0,1-.9746-.94726v-5.88379A.87994.87994,0,0,1,17.28271,150.65332ZM18.73,154.58887a.87783.87783,0,0,1,.96484-.99121h1.958a.979.979,0,1,1,.00488,1.958h-1.958A.85543.85543,0,0,1,18.73,154.58887Z" transform="translate(0.06557 -0.07767)" style="fill:#fff"/><path d="M30.93506,151.63965a.85255.85255,0,0,1-.94043.98144l-2.9668-.00488q-.98437.00952-.99414.49805.01465.46362.999.459h.96q2.937.00952,2.95214,2.47559,0,2.39721-2.94726,2.41211H25.06885a.9595.9595,0,1,1-.00977-1.91895l2.93848-.01465q.98291-.00512.9834-.50293,0-.498-.99317-.49316h-.96q-2.92968-.00513-2.92871-2.417-.019-2.44629,2.92871-2.45117h2.93262A.86982.86982,0,0,1,30.93506,151.63965Z" transform="translate(0.06557 -0.07767)" style="fill:#fff"/><path d="M32.86084,150.65332l4.93066.00977a.8343.8343,0,0,1,.916.94726.8898.8898,0,0,1-.98438,1.01074H33.84033v3.89161h3.873a.8736.8736,0,0,1,.98437.98632.86335.86335,0,0,1-.96484.97168H32.86084a.8521.8521,0,0,1-.97461-.94726v-5.88379A.87994.87994,0,0,1,32.86084,150.65332Zm1.44727,3.93555a.87782.87782,0,0,1,.96484-.99121h1.958a.979.979,0,1,1,.00488,1.958h-1.958A.85542.85542,0,0,1,34.30811,154.58887Z" transform="translate(0.06557 -0.07767)" style="fill:#fff"/><path d="M40.65186,150.65332l4.93066.00977a.83431.83431,0,0,1,.916.94726.8898.8898,0,0,1-.98438,1.01074h-1.456L44.063,157.499a.87351.87351,0,0,1-.97949.97168.84937.84937,0,0,1-.97461-.94726l.00488-4.90235H40.65186a.8646.8646,0,0,1-.97461-.98144A.87994.87994,0,0,1,40.65186,150.65332Z" transform="translate(0.06557 -0.07767)" style="fill:#fff"/><path d="M44.62793,1.39307h5.98779a4.08445,4.08445,0,0,1,2.99854,1.31836A4.196,4.196,0,0,1,54.89307,5.792a3.52858,3.52858,0,0,1-.88965,2.606,3.56743,3.56743,0,0,1,.894,2.6499,4.33423,4.33423,0,0,1-1.30029,3.06738,3.92494,3.92494,0,0,1-2.87842,1.33155H44.61084q-1.69409.01758-1.69385-1.75782V3.15088A1.54273,1.54273,0,0,1,44.62793,1.39307Zm1.71924,3.52441v7.00488h4.25146a.7665.7665,0,0,0,.86426-.87011q0-.8877-.84717-.8877l-.84668-.00879q-1.72777,0-1.71924-1.85449a1.47362,1.47362,0,0,1,1.71045-1.64356l.85547.00879q.85548,0,.83008-.96679.02564-.77344-.83008-.78223Z" transform="translate(0.06557 -0.07767)" style="fill:#fff"/><path d="M58.34912,1.37549a1.5139,1.5139,0,0,1,1.71924,1.69629l-.0083,5.35254q.01684,3.51563,2.60058,3.5332,2.56641-.02637,2.55762-3.542V3.1333a1.71674,1.71674,0,1,1,3.43115.00879V8.42432q-.00879,7.02246-5.98877,7.02246-6.01391.04393-6.02246-7.02246V3.1333A1.54759,1.54759,0,0,1,58.34912,1.37549Z" transform="translate(0.06557 -0.07767)" style="fill:#fff"/><path d="M72.01074,1.39307h6.00489a4.02639,4.02639,0,0,1,2.96875,1.33154A4.22759,4.22759,0,0,1,82.26758,5.77a6.64354,6.64354,0,0,1-.64649,3.07178,2.1675,2.1675,0,0,1-1.94629,1.29638l2.11329,2.19727a1.86837,1.86837,0,0,1,.50488,1.3623q-.02637,1.75782-1.71094,1.749a2.31418,2.31418,0,0,1-1.71973-.86133l-3.42187-4.35938a2.79073,2.79073,0,0,1-.87207-1.81054,1.53994,1.53994,0,0,1,1.72754-1.7666l1.21484-.00879q1.35206.01758,1.335-.85254,0-.87012-1.34375-.87012H73.72949V13.689a1.53216,1.53216,0,0,1-1.71875,1.75782,1.51616,1.51616,0,0,1-1.71094-1.74024V3.1333A1.53921,1.53921,0,0,1,72.01074,1.39307Z" transform="translate(0.06557 -0.07767)" style="fill:#fff"/><path d="M95.98828,3.15088q0,1.75781-1.65137,1.7666l-5.209-.00879q-1.72851.01758-1.74512.89649.0249.835,1.75293.82617h1.68555q5.15772.01758,5.18359,4.45605,0,4.31544-5.1748,4.3418h-5.1416a1.5136,1.5136,0,0,1-1.70215-1.72266q.00879-1.749,1.68555-1.73144l5.1582-.02637q1.72705-.00879,1.72754-.90527,0-.89649-1.74512-.8877H89.12793q-5.1416-.00879-5.1416-4.35058-.03369-4.40333,5.1416-4.41211h5.14941A1.54762,1.54762,0,0,1,95.98828,3.15088Z" transform="translate(0.06557 -0.07767)" style="fill:#fff"/><path d="M99.36719,1.37549l8.65722.01758q1.59961.02635,1.6084,1.70507a1.58338,1.58338,0,0,1-1.72851,1.81934h-2.55762l.00879,8.78027a1.55229,1.55229,0,0,1-1.71973,1.749,1.50969,1.50969,0,0,1-1.71094-1.70508l.00879-8.82422h-2.5664a1.53735,1.53735,0,0,1-1.71094-1.7666A1.56543,1.56543,0,0,1,99.36719,1.37549Z" transform="translate(0.06557 -0.07767)" style="fill:#fff"/><path d="M9.58008,22.99316a1.56042,1.56042,0,0,1,1.73681,1.74024V35.29785A1.57327,1.57327,0,0,1,9.59717,37.082a1.56042,1.56042,0,0,1-1.71094-1.77539V24.74219A1.52231,1.52231,0,0,1,9.58008,22.99316Z" transform="translate(0.06557 -0.07767)" style="fill:#fff"/><path d="M14.93555,23.01074a2.07707,2.07707,0,0,1,1.48828.72071l5.124,6.71484V24.54883q.03442-1.51171,1.45459-1.53809,1.9248.02637,1.9419,1.57324l.01709,10.9336q-.01758,1.51172-1.959,1.5293a1.74247,1.74247,0,0,1-1.42871-.72071l-5.1499-6.69726v5.88867a1.34337,1.34337,0,0,1-1.48828,1.5293q-1.9336.00877-1.9419-1.54688V24.54Q12.98486,23.01953,14.93555,23.01074Z" transform="translate(0.06557 -0.07767)" style="fill:#fff"/><path d="M28.3916,22.97559l8.65674.01757q1.59961.02637,1.6084,1.70508a1.58325,1.58325,0,0,1-1.728,1.81934H34.37109l.0083,8.78027a1.55173,1.55173,0,0,1-1.71923,1.749,1.50969,1.50969,0,0,1-1.71094-1.70508l.00879-8.82422H28.3916a1.53735,1.53735,0,0,1-1.71094-1.7666A1.565,1.565,0,0,1,28.3916,22.97559Z" transform="translate(0.06557 -0.07767)" style="fill:#fff"/><path d="M42.06982,22.97559l8.65674.01757q1.59961.02637,1.6084,1.70508a1.58325,1.58325,0,0,1-1.728,1.81934H43.78906v7.00488h6.80078a1.5534,1.5534,0,0,1,1.728,1.77539,1.53623,1.53623,0,0,1-1.69385,1.749h-8.5542a1.514,1.514,0,0,1-1.71093-1.70508V24.751A1.565,1.565,0,0,1,42.06982,22.97559Zm2.54053,7.084a1.56222,1.56222,0,0,1,1.69385-1.78418h3.439a1.57187,1.57187,0,0,1,1.73633,1.7666,1.55925,1.55925,0,0,1-1.728,1.75781h-3.439A1.52156,1.52156,0,0,1,44.61035,30.05957Z" transform="translate(0.06557 -0.07767)" style="fill:#fff"/><path d="M60.87256,22.99316l3.439-.00878q1.67652.00877,1.69385,1.77539Q65.98779,26.5,64.31982,26.47363l-3.43017.01758a3.44217,3.44217,0,0,0-1.68945.45264,3.19856,3.19856,0,0,0-1.27881,1.30078,3.6515,3.6515,0,0,0-.46192,1.771,3.61512,3.61512,0,0,0,.45313,1.749,3.254,3.254,0,0,0,1.27051,1.30078,3.39633,3.39633,0,0,0,1.70654.46582,4.15414,4.15414,0,0,0,1.80078-.43506,2.662,2.662,0,0,0,1.32178-1.34912H62.5835a1.52876,1.52876,0,0,1-1.73682-1.72266,1.55965,1.55965,0,0,1,1.71094-1.78418l3.439.01758A1.57653,1.57653,0,0,1,67.7334,30.0332a7.27866,7.27866,0,0,1-.90283,3.50244,6.44707,6.44707,0,0,1-2.53614,2.60157,6.74611,6.74611,0,0,1-6.82666,0,6.44393,6.44393,0,0,1-2.53613-2.60157,7.25181,7.25181,0,0,1,.0127-7.03125,6.37863,6.37863,0,0,1,2.55371-2.60156A6.866,6.866,0,0,1,60.87256,22.99316Z" transform="translate(0.06557 -0.07767)" style="fill:#fff"/><path d="M71.16406,22.99316H77.169a4.0264,4.0264,0,0,1,2.96875,1.33155,4.22759,4.22759,0,0,1,1.2832,3.04541,6.64349,6.64349,0,0,1-.64649,3.07177,2.16751,2.16751,0,0,1-1.94628,1.29639l2.11328,2.19727a1.86837,1.86837,0,0,1,.50488,1.3623q-.02637,1.75782-1.71094,1.749a2.31421,2.31421,0,0,1-1.71972-.86133l-3.42188-4.35938a2.79075,2.79075,0,0,1-.87207-1.81054A1.54,1.54,0,0,1,75.44922,28.249l1.21484-.00879q1.35206.01758,1.335-.85253,0-.87012-1.34375-.87012H72.88281v8.77148a1.53216,1.53216,0,0,1-1.71875,1.75782,1.51615,1.51615,0,0,1-1.71093-1.74024V24.7334A1.53921,1.53921,0,0,1,71.16406,22.99316Z" transform="translate(0.06557 -0.07767)" style="fill:#fff"/><path d="M84.85938,37.05566a1.72136,1.72136,0,0,1-.84278-.22412,1.5932,1.5932,0,0,1-.63769-.646,1.8291,1.8291,0,0,1-.23047-.8877,43.15131,43.15131,0,0,1,2.55761-5.73926q2.55762-5.28222,2.78028-5.6997a1.59779,1.59779,0,0,1,.63281-.65039,1.70869,1.70869,0,0,1,.85547-.23291,1.68934,1.68934,0,0,1,.85156.23291,1.63531,1.63531,0,0,1,.63281.65039q.2256.41748,2.79688,5.6997a42.98674,42.98674,0,0,1,2.57031,5.73926,1.81838,1.81838,0,0,1-.23047.8877,1.59038,1.59038,0,0,1-.6416.646,1.73107,1.73107,0,0,1-.83789.22412Zm7.459-3.542-2.34375-4.94824-2.35254,4.94824Z" transform="translate(0.06557 -0.07767)" style="fill:#fff"/><path d="M100.23926,22.97559l8.65722.01757q1.59962.02637,1.6084,1.70508a1.58338,1.58338,0,0,1-1.72851,1.81934h-2.55762l.00879,8.78027a1.55229,1.55229,0,0,1-1.71973,1.749,1.50968,1.50968,0,0,1-1.71093-1.70508l.00878-8.82422h-2.5664a1.53735,1.53735,0,0,1-1.71094-1.7666A1.56543,1.56543,0,0,1,100.23926,22.97559Z" transform="translate(0.06557 -0.07767)" style="fill:#fff"/><path d="M119.042,22.99316a6.85074,6.85074,0,0,1,3.36621.90967,6.46614,6.46614,0,0,1,2.56641,2.60156A7.21148,7.21148,0,0,1,125,33.53564a6.447,6.447,0,0,1-2.53613,2.60157,6.74521,6.74521,0,0,1-6.82617,0,6.44311,6.44311,0,0,1-2.53711-2.60157,7.25519,7.25519,0,0,1,.01269-7.03125,6.3817,6.3817,0,0,1,2.55371-2.60156A6.86644,6.86644,0,0,1,119.042,22.99316Zm-1.67285,3.95069a3.20358,3.20358,0,0,0-1.27832,1.30078,3.61412,3.61412,0,0,0-.00879,3.52,3.25725,3.25725,0,0,0,1.27051,1.30078,3.3589,3.3589,0,0,0,3.41309,0,3.25716,3.25716,0,0,0,1.2705-1.30078,3.61405,3.61405,0,0,0-.00879-3.52,3.19093,3.19093,0,0,0-1.2832-1.30078,3.37192,3.37192,0,0,0-3.375,0Z" transform="translate(0.06557 -0.07767)" style="fill:#fff"/><path d="M129.333,22.99316h6.00488a4.02638,4.02638,0,0,1,2.96875,1.33155,4.22755,4.22755,0,0,1,1.2832,3.04541,6.64362,6.64362,0,0,1-.64648,3.07177,2.16751,2.16751,0,0,1-1.94629,1.29639l2.11328,2.19727a1.86833,1.86833,0,0,1,.50488,1.3623q-.02636,1.75782-1.71093,1.749a2.31423,2.31423,0,0,1-1.71973-.86133l-3.42187-4.35938a2.79065,2.79065,0,0,1-.87207-1.81054,1.53994,1.53994,0,0,1,1.72753-1.76661l1.21485-.00879q1.35205.01758,1.335-.85253,0-.87012-1.34375-.87012h-3.77246v8.77148a1.53216,1.53216,0,0,1-1.71875,1.75782,1.51616,1.51616,0,0,1-1.71094-1.74024V24.7334A1.53921,1.53921,0,0,1,129.333,22.99316Z" transform="translate(0.06557 -0.07767)" style="fill:#fff"/><path d="M114.47266,271.53027a.80236.80236,0,0,1,.581.19922q.1875.19044,1.76563,1.76563,1.56006-1.563,1.75488-1.76367a.76965.76965,0,0,1,.58008-.20118.69245.69245,0,0,1,.78027.77735l.00391,4.6875a.78565.78565,0,1,1-1.57129,0V274.2334q-.78369.80859-.97656,1.00586a.93064.93064,0,0,1-1.15333-.00586q-.20067-.20361-.98046-.98438v2.7461a.69685.69685,0,0,1-.78028.78125.686.686,0,0,1-.77929-.78125v-4.6875A.68622.68622,0,0,1,114.47266,271.53027Z" transform="translate(0.06557 -0.07767)" style="fill:#fff"/><path d="M123.82813,271.53027a3.1816,3.1816,0,0,1,1.53417.4043,2.90429,2.90429,0,0,1,1.16993,1.15625,3.13606,3.13606,0,0,1,.01172,3.125,2.908,2.908,0,0,1-1.15625,1.15625,3.14043,3.14043,0,0,1-3.11036,0,2.9018,2.9018,0,0,1-1.15625-1.15625,3.1552,3.1552,0,0,1,.00586-3.125,2.86628,2.86628,0,0,1,1.16407-1.15625A3.187,3.187,0,0,1,123.82813,271.53027Zm-.76172,1.75586a1.43824,1.43824,0,0,0-.583.57813,1.59806,1.59806,0,0,0-.21.78711,1.57836,1.57836,0,0,0,.20605.77734,1.4721,1.4721,0,0,0,.5791.57813,1.56472,1.56472,0,0,0,1.55567,0,1.4784,1.4784,0,0,0,.5791-.57813,1.57836,1.57836,0,0,0,.20605-.77734,1.59806,1.59806,0,0,0-.21-.78711,1.437,1.437,0,0,0-.585-.57813,1.57054,1.57054,0,0,0-1.53808,0Z" transform="translate(0.06557 -0.07767)" style="fill:#fff"/><path d="M128.51367,271.53027h2.33887q3.123.00294,3.12305,3.125-.0044,3.1128-3.041,3.1211h-2.4209a.686.686,0,0,1-.77929-.78125v-4.6836A.69373.69373,0,0,1,128.51367,271.53027Zm.78418,1.56641V276.21h1.5625a1.55668,1.55668,0,0,0-.0039-3.11328Z" transform="translate(0.06557 -0.07767)" style="fill:#fff"/><path d="M135.53027,276.21777a.7761.7761,0,0,1,.38086.10157.73212.73212,0,0,1,.29.28711.77511.77511,0,0,1,.002.77734.72892.72892,0,0,1-.28614.28711.78913.78913,0,0,1-.38672.10156.80109.80109,0,0,1-.38769-.10156.71644.71644,0,0,1-.28613-.28711.79559.79559,0,0,1-.10157-.38477.78678.78678,0,0,1,.10352-.39257.71518.71518,0,0,1,.28808-.28711A.78419.78419,0,0,1,135.53027,276.21777Z" transform="translate(0.06557 -0.07767)" style="fill:#fff"/><g id="Illustration_28" data-name="Illustration 28"><g style="clip-path:url(#clip-path-4)"><g style="clip-path:url(#clip-path-4)"><path d="M111.31023,204.40512a2.02547,2.02547,0,1,1-2.0241-2.1,2.06319,2.06319,0,0,1,2.0241,2.1" transform="translate(0.06557 -0.07767)" style="fill:#fff"/><ellipse cx="109.3517" cy="204.32746" rx="2.0241" ry="2.1" style="fill:none;stroke:#000;stroke-miterlimit:10;stroke-width:0.25771236417875504px"/></g><path d="M107.75586,205.1416v-1.00879h.15332v.18946c.0752-.14161.14648-.21192.21484-.21192.08692,0,.14258.07031.167.21192h.00683c.06055-.14161.13281-.21192.21582-.21192a.13885.13885,0,0,1,.13086.06934.45415.45415,0,0,1,.041.22265v.73926h-.15332v-.73144a.35548.35548,0,0,0-.01172-.11231.04308.04308,0,0,0-.043-.0293c-.05566,0-.11621.07325-.17969.22168v.65137h-.15332v-.69824a.52353.52353,0,0,0-.01172-.13867.04561.04561,0,0,0-.0459-.03516c-.02539,0-.05468.02149-.08886.06445a.634.634,0,0,0-.08887.15821v.64941Z" transform="translate(0.06557 -0.07767)" style="fill:#fff"/><path d="M109.26953,205.1416v-.87207h-.34961v-.13672h.52442v1.00879Zm-.02148-1.23828v-.22949h.21875v.22949Z" transform="translate(0.06557 -0.07767)" style="fill:#fff"/><path d="M110.02051,205.1416v-1.00879h.1748v.18946a.36454.36454,0,0,1,.32715-.21192q.27393,0,.27442.34082v.69043h-.17481V204.501a.29906.29906,0,0,0-.03516-.167.13338.13338,0,0,0-.11718-.0498c-.08789,0-.17871.06543-.27442.19727v.66015Z" transform="translate(0.06557 -0.07767)" style="fill:#fff"/><g style="clip-path:url(#clip-path-4)"><path d="M107.90934,205.14186v-.64943a.615.615,0,0,1,.08906-.15855c.0339-.04252.06325-.06352.088-.06352a.04492.04492,0,0,1,.046.03465.53779.53779,0,0,1,.01163.13912v.69773h.15333v-.65153q.09639-.22208.17964-.22207a.0434.0434,0,0,1,.04352.02992.36788.36788,0,0,1,.01113.11235v.73133h.15332v-.73868a.46576.46576,0,0,0-.04048-.22365.14151.14151,0,0,0-.13156-.0693q-.12374,0-.21557.2121h-.00658q-.03718-.21183-.16749-.2121-.10171,0-.21405.2121v-.18952H107.756v1.00905Z" transform="translate(0.06557 -0.07767)" style="fill:none;stroke:#000;stroke-miterlimit:10;stroke-width:0.12885618208937752px"/><path d="M109.46648,203.67448h-.21861v.22943h.21861Zm-.02227,1.46738v-1.00905H108.92v.13755h.34966v.8715Z" transform="translate(0.06557 -0.07767)" style="fill:none;stroke:#000;stroke-miterlimit:10;stroke-width:0.12885618208937752px"/><path d="M110.19535,205.14186v-.65993q.14346-.19766.27427-.19792a.13282.13282,0,0,1,.1174.04987.30037.30037,0,0,1,.03542.16748v.6405h.17407v-.69038q0-.341-.27376-.34125a.36622.36622,0,0,0-.3274.2121v-.18952h-.17457v1.00905Z" transform="translate(0.06557 -0.07767)" style="fill:none;stroke:#000;stroke-miterlimit:10;stroke-width:0.12885618208937752px"/><path d="M142.68372,204.40512a2.02547,2.02547,0,1,1-2.02409-2.1,2.06318,2.06318,0,0,1,2.02409,2.1" transform="translate(0.06557 -0.07767)" style="fill:#fff"/><ellipse cx="140.7252" cy="204.32746" rx="2.0241" ry="2.1" style="fill:none;stroke:#000;stroke-miterlimit:10;stroke-width:0.25771236417875504px"/></g><path d="M139.12988,205.1416v-1.00879h.15332v.18946c.0752-.14161.14649-.21192.21485-.21192.08691,0,.14258.07031.167.21192h.00684c.06054-.14161.13281-.21192.21582-.21192a.13884.13884,0,0,1,.13085.06934.45415.45415,0,0,1,.041.22265v.73926h-.15332v-.73144a.35548.35548,0,0,0-.01172-.11231.04308.04308,0,0,0-.043-.0293c-.05566,0-.11621.07325-.17968.22168v.65137h-.15333v-.69824a.52411.52411,0,0,0-.01171-.13867.04563.04563,0,0,0-.0459-.03516c-.02539,0-.05469.02149-.08887.06445a.63427.63427,0,0,0-.08887.15821v.64941Z" transform="translate(0.06557 -0.07767)" style="fill:#fff"/><path d="M140.87988,205.01953a.47775.47775,0,0,1-.31543.13965.30638.30638,0,0,1-.21777-.0791.26148.26148,0,0,1-.08594-.19922.29771.29771,0,0,1,.13281-.25293.5854.5854,0,0,1,.35157-.0957h.10742v-.08692a.21049.21049,0,0,0-.04492-.15234.20568.20568,0,0,0-.14942-.04492.644.644,0,0,0-.31347.08886v-.15722a1.00018,1.00018,0,0,1,.34863-.06934.35363.35363,0,0,1,.25781.07617.36556.36556,0,0,1,.07617.2627v.42285a.27574.27574,0,0,0,.01856.124.07336.07336,0,0,0,.07031.03321.23733.23733,0,0,0,.05469-.00977l.01562.11035a.45834.45834,0,0,1-.13183.0293A.17375.17375,0,0,1,140.87988,205.01953Zm-.02734-.11816v-.25489h-.05176c-.23926,0-.35937.06739-.35937.20313a.15516.15516,0,0,0,.04687.11816.16515.16515,0,0,0,.12207.04493A.37919.37919,0,0,0,140.85254,204.90137Z" transform="translate(0.06557 -0.07767)" style="fill:#fff"/><path d="M141.31641,205.1416l.35839-.50976-.35644-.499h.21777l.2666.37305.24415-.37305h.17285l-.32715.49805.36426.51074h-.21778l-.27539-.38574-.27051.38574Z" transform="translate(0.06557 -0.07767)" style="fill:#fff"/><g style="clip-path:url(#clip-path-4)"><path d="M139.28309,205.14186v-.64943a.61472.61472,0,0,1,.08905-.15855c.03391-.04252.06326-.06352.08805-.06352a.04491.04491,0,0,1,.046.03465.53765.53765,0,0,1,.01164.13912v.69773h.15332v-.65153q.09641-.22208.17964-.22207a.0434.0434,0,0,1,.04352.02992.36788.36788,0,0,1,.01113.11235v.73133h.15333v-.73868a.46576.46576,0,0,0-.04048-.22365.14152.14152,0,0,0-.13157-.0693q-.12372,0-.21557.2121h-.00657q-.0372-.21183-.1675-.2121-.10172,0-.214.2121v-.18952h-.15333v1.00905Z" transform="translate(0.06557 -0.07767)" style="fill:none;stroke:#000;stroke-miterlimit:10;stroke-width:0.12885618208937752px"/><path d="M140.60988,205.01255a.16779.16779,0,0,1-.12246-.04462.15645.15645,0,0,1-.04554-.1176q0-.204.35877-.2037h.05212v.25462A.38351.38351,0,0,1,140.60988,205.01255Zm.44429.147a.45706.45706,0,0,0,.13257-.02992l-.01619-.10973a.25978.25978,0,0,1-.05465.00945.07384.07384,0,0,1-.07034-.03307.28348.28348,0,0,1-.01872-.1239v-.42315a.37117.37117,0,0,0-.07539-.263.359.359,0,0,0-.25858-.07612,1.00133,1.00133,0,0,0-.34866.06982v.1575a.64628.64628,0,0,1,.31374-.08925.20385.20385,0,0,1,.14928.04515.21135.21135,0,0,1,.04554.15278v.0861h-.10829a.5888.5888,0,0,0-.35067.09555.298.298,0,0,0-.13258.253.26155.26155,0,0,0,.085.2.309.309,0,0,0,.21759.07875.48019.48019,0,0,0,.31627-.13965A.17362.17362,0,0,0,141.05417,205.15955Z" transform="translate(0.06557 -0.07767)" style="fill:none;stroke:#000;stroke-miterlimit:10;stroke-width:0.12885618208937752px"/><polygon points="141.558 205.064 141.828 204.678 142.103 205.064 142.321 205.064 141.957 204.553 142.284 204.055 142.111 204.055 141.867 204.428 141.601 204.055 141.383 204.055 141.739 204.554 141.381 205.064 141.558 205.064" style="fill:none;stroke:#000;stroke-miterlimit:10;stroke-width:0.12885618208937752px"/></g></g></g><path d="M131.87793,51.34717a2.05066,2.05066,0,0,0,1.00684.28711c.78906,0,1.03418-.50391,1.02734-.88233-.00684-.6372-.58008-.91064-1.17383-.91064h-.34277v-.46192h.34277c.44727,0,1.0127-.23144,1.0127-.7705,0-.36426-.23047-.68653-.79688-.68653a1.66383,1.66383,0,0,0-.9082.30127l-.16113-.44824a2.15765,2.15765,0,0,1,1.18847-.3501c.89453,0,1.29981.53223,1.29981,1.08545a1.13,1.13,0,0,1-.83887,1.07178v.01367a1.18509,1.18509,0,0,1,1.01367,1.16992c0,.728-.5664,1.36573-1.65625,1.36573a2.30591,2.30591,0,0,1-1.18066-.30811Z" transform="translate(0.06557 -0.07767)" style="fill:#fff;stroke:#fff;stroke-miterlimit:10;stroke-width:0.25px"/><path d="M135.31445,52.05469v-.37842l.48243-.46924c1.16015-1.10644,1.68359-1.69482,1.6914-2.38086a.81165.81165,0,0,0-.90234-.88965,1.5437,1.5437,0,0,0-.96387.38526l-.19531-.43457a1.98988,1.98988,0,0,1,1.28515-.46192,1.27939,1.27939,0,0,1,1.39063,1.32373c0,.84034-.60742,1.51953-1.56543,2.44434l-.36328.33594v.01416h2.041v.51123Z" transform="translate(0.06557 -0.07767)" style="fill:#fff;stroke:#fff;stroke-miterlimit:10;stroke-width:0.25px"/><path d="M134.32324,67.93652a2.23565,2.23565,0,0,0-.46094.02784,1.84964,1.84964,0,0,0-1.58007,1.61816h.02148a1.384,1.384,0,0,1,2.4668.94531,1.52125,1.52125,0,0,1-1.50977,1.604c-.9707,0-1.60742-.75635-1.60742-1.93995a2.86605,2.86605,0,0,1,.76856-2.05224,2.4722,2.4722,0,0,1,1.4541-.67236,2.90409,2.90409,0,0,1,.44726-.03516Zm-.1748,2.62647a.924.924,0,0,0-.93653-1.04346,1.01288,1.01288,0,0,0-.88086.56006.5338.5338,0,0,0-.06933.273c.01367.74951.35644,1.30273.999,1.30273C133.792,71.65527,134.14844,71.21436,134.14844,70.563Z" transform="translate(0.06557 -0.07767)" style="fill:#fff;stroke:#fff;stroke-miterlimit:10;stroke-width:0.25px"/><path d="M137.21484,72.05469V70.81494h-2.11132v-.40625l2.02734-2.90625h.66406v2.8291h.63574v.4834h-.63574v1.23975Zm0-1.72315V68.812q0-.35742.02051-.71435h-.02051c-.14062.26611-.252.46191-.37793.67236l-1.11132,1.54785v.01367Z" transform="translate(0.06557 -0.07767)" style="fill:#fff;stroke:#fff;stroke-miterlimit:10;stroke-width:0.25px"/><path d="M133.63281,62.05469V60.81494h-2.11133v-.40625l2.02735-2.90625h.66308v2.8291h.63672v.4834h-.63672v1.23975Zm0-1.72315V58.812q0-.35742.02051-.71435h-.02051c-.14062.26611-.25195.46191-.37793.67236l-1.11133,1.54785v.01367Z" transform="translate(0.06557 -0.07767)" style="fill:#fff;stroke:#fff;stroke-miterlimit:10;stroke-width:0.25px"/><path d="M135.25879,60.89893a1.29989,1.29989,0,0,1,.90137-1.21875l-.00684-.021a1.12708,1.12708,0,0,1-.71973-1.02246,1.27284,1.27284,0,0,1,1.4043-1.21143,1.17423,1.17423,0,0,1,1.32129,1.12061,1.15733,1.15733,0,0,1-.748,1.06445v.021a1.26091,1.26091,0,0,1,.915,1.17676,1.39985,1.39985,0,0,1-1.54394,1.32373C135.832,62.13184,135.25879,61.56445,135.25879,60.89893Zm2.44531-.02784c0-.55322-.38379-.81933-.999-.99463a.98832.98832,0,0,0-.81738.93848.84039.84039,0,0,0,.9082.86865A.82212.82212,0,0,0,137.7041,60.87109Zm-1.69043-2.27636c0,.45556.3418.70068.86621.84033a.89529.89529,0,0,0,.69141-.82617.70653.70653,0,0,0-.76856-.74268A.723.723,0,0,0,136.01367,58.59473Z" transform="translate(0.06557 -0.07767)" style="fill:#fff;stroke:#fff;stroke-miterlimit:10;stroke-width:0.25px"/><g id="Illustration_29" data-name="Illustration 29"><g style="clip-path:url(#clip-path-8)"><polygon points="141.473 256.546 141.473 257.694 140.428 257.694 140.428 257.987 141.473 257.987 141.473 259.145 141.769 259.145 141.769 257.987 142.814 257.987 142.814 257.694 141.769 257.694 141.769 256.546 141.473 256.546" style="fill:none;stroke:#fff;stroke-width:0.3123675678152376px"/><rect x="107.93861" y="257.66461" width="1.14205" height="0.31794" style="fill:none;stroke:#fff;stroke-width:0.3123675678152376px"/><g style="clip-path:url(#clip-path-8)"><ellipse cx="108.50974" cy="257.71127" rx="2.20472" ry="2.83242" style="fill:none;stroke:#fff;stroke-miterlimit:10;stroke-width:0.3123675678152376px"/><ellipse cx="141.62123" cy="257.71127" rx="2.20472" ry="2.83242" style="fill:none;stroke:#fff;stroke-miterlimit:10;stroke-width:0.3123675678152376px"/><line x1="125.06563" y1="250.3353" x2="125.06563" y2="237.58941" style="fill:none;stroke:#fff;stroke-miterlimit:10;stroke-width:0.3123675678152376px"/></g></g></g><g id="Illustration_29-2" data-name="Illustration 29"><g style="clip-path:url(#clip-path-10)"><polygon points="141.473 146.547 141.473 147.694 140.428 147.694 140.428 147.988 141.473 147.988 141.473 149.145 141.769 149.145 141.769 147.988 142.814 147.988 142.814 147.694 141.769 147.694 141.769 146.547 141.473 146.547" style="fill:none;stroke:#fff;stroke-width:0.3123675678152376px"/><rect x="107.93861" y="147.66509" width="1.14205" height="0.31794" style="fill:none;stroke:#fff;stroke-width:0.3123675678152376px"/><g style="clip-path:url(#clip-path-10)"><ellipse cx="108.50974" cy="147.71176" rx="2.20472" ry="2.83242" style="fill:none;stroke:#fff;stroke-miterlimit:10;stroke-width:0.3123675678152376px"/><ellipse cx="141.62123" cy="147.71176" rx="2.20472" ry="2.83242" style="fill:none;stroke:#fff;stroke-miterlimit:10;stroke-width:0.3123675678152376px"/><line x1="125.06563" y1="140.33578" x2="125.06563" y2="127.5899" style="fill:none;stroke:#fff;stroke-miterlimit:10;stroke-width:0.3123675678152376px"/></g></g></g><g style="isolation:isolate"><polygon points="19.195 370.294 18.055 369.674 18.023 369.558 19.163 370.178 19.195 370.294" style="fill:gray"/><g style="isolation:isolate"><g style="clip-path:url(#clip-path-12)"><g style="isolation:isolate"><path d="M19.09751,370.25529l-1.13966-.62a.38611.38611,0,0,0-.14159-.11841l1.13966.62a.38593.38593,0,0,1,.14159.1184" transform="translate(0.06557 -0.07767)" style="fill:#858585"/></g></g></g><g style="isolation:isolate"><g style="clip-path:url(#clip-path-13)"><g style="isolation:isolate"><path d="M18.684,370.61739l-1.13966-.62a1.00628,1.00628,0,0,0,.28349-.07536l1.13966.62a1.0056,1.0056,0,0,1-.28349.07536" transform="translate(0.06557 -0.07767)" style="fill:#a8a8a8"/><path d="M18.96752,370.542l-1.13966-.62a.43738.43738,0,0,0,.06209-.03524l1.13966.62a.43586.43586,0,0,1-.06209.03524" transform="translate(0.06557 -0.07767)" style="fill:#a3a3a3"/><path d="M19.02961,370.50679l-1.13966-.62a.31723.31723,0,0,0,.03174-.0249l1.13966.62a.31435.31435,0,0,1-.03174.0249" transform="translate(0.06557 -0.07767)" style="fill:#9e9e9e"/><path d="M19.06135,370.48189l-1.13966-.62.02112-.02122,1.13966.62-.02112.02121" transform="translate(0.06557 -0.07767)" style="fill:#999"/><path d="M19.08247,370.46068l-1.13966-.62.01578-.02,1.13967.62-.01579.02" transform="translate(0.06557 -0.07767)" style="fill:#949494"/><path d="M19.09826,370.44071l-1.13967-.62.013-.021,1.13966.62-.01294.021" transform="translate(0.06557 -0.07767)" style="fill:#8f8f8f"/><path d="M19.1112,370.41973l-1.13966-.62.01139-.02538,1.13966.62-.01139.02539" transform="translate(0.06557 -0.07767)" style="fill:#8a8a8a"/><path d="M19.12259,370.39434l-1.13966-.62.00671-.02251,1.13966.62-.00671.02251" transform="translate(0.06557 -0.07767)" style="fill:#858585"/></g></g></g><g style="isolation:isolate"><g style="clip-path:url(#clip-path-14)"><g style="isolation:isolate"><path d="M11.12083,370.46878l-1.13966-.62a26.02573,26.02573,0,0,1,4.33946-1.009,22.00361,22.00361,0,0,1,2.40577-.207,3.85328,3.85328,0,0,1,1.08309.088l1.13966.62a3.85287,3.85287,0,0,0-1.08309-.088,22.00134,22.00134,0,0,0-2.40577.207,26.02614,26.02614,0,0,0-4.33946,1.009" transform="translate(0.06557 -0.07767)" style="fill:#a8a8a8"/><path d="M18.94915,369.34085l-1.13966-.62a1.6755,1.6755,0,0,1,.31919.11527l1.13967.62a1.67517,1.67517,0,0,0-.3192-.11527" transform="translate(0.06557 -0.07767)" style="fill:#a3a3a3"/><path d="M19.26835,369.45612l-1.13967-.62.04734.02447,1.13966.62-.04733-.02446" transform="translate(0.06557 -0.07767)" style="fill:#9e9e9e"/></g></g></g><g style="isolation:isolate"><g style="clip-path:url(#clip-path-15)"><g style="isolation:isolate"><path d="M9.40188,373.25157l-1.13966-.62q.12233-.08751.24471-.1722l1.13966.62q-.12239.08469-.24471.1722" transform="translate(0.06557 -0.07767)" style="fill:#9e9e9e"/><path d="M9.64659,373.07937l-1.13966-.62a16.26985,16.26985,0,0,1,2.3136-1.34553l1.13967.62a16.27043,16.27043,0,0,0-2.31361,1.34554" transform="translate(0.06557 -0.07767)" style="fill:#a3a3a3"/><path d="M11.9602,371.73383l-1.13967-.62a12.01429,12.01429,0,0,1,3.45413-1.05915,10.15963,10.15963,0,0,1,2.273-.06563,4.55923,4.55923,0,0,0,.99667.00834l1.13966.62a4.55975,4.55975,0,0,1-.99667-.00833,10.159,10.159,0,0,0-2.273.06562,12.01486,12.01486,0,0,0-3.45412,1.05915" transform="translate(0.06557 -0.07767)" style="fill:#a8a8a8"/></g></g></g><polygon points="10.6 371.321 9.46 370.701 9.413 370.327 10.553 370.947 10.6 371.321" style="fill:gray"/><g style="isolation:isolate"><g style="clip-path:url(#clip-path-16)"><g style="isolation:isolate"><path d="M8.06338,373.83729l-1.13966-.62a.56377.56377,0,0,0,.20919.00451,1.4373,1.4373,0,0,0,.406-.13258l1.13966.62a1.43665,1.43665,0,0,1-.406.13258.56359.56359,0,0,1-.20919-.0045" transform="translate(0.06557 -0.07767)" style="fill:#a8a8a8"/><path d="M8.67858,373.70921l-1.13966-.62a3.58274,3.58274,0,0,0,.5032-.29752l1.13966.62a3.581,3.581,0,0,1-.5032.29751" transform="translate(0.06557 -0.07767)" style="fill:#a3a3a3"/><path d="M9.18178,373.4117l-1.13966-.62q.10441-.07225.2201-.16013l1.13966.62q-.11577.08811-.2201.16013" transform="translate(0.06557 -0.07767)" style="fill:#9e9e9e"/></g></g></g><g style="isolation:isolate"><g style="clip-path:url(#clip-path-17)"><g style="isolation:isolate"><path d="M7.98774,373.807l-1.13966-.62.0118.00611,1.13966.62-.0118-.00611" transform="translate(0.06557 -0.07767)" style="fill:#9e9e9e"/><path d="M7.99954,373.8131l-1.13966-.62a.3891.3891,0,0,0,.06384.02418l1.13966.62a.38864.38864,0,0,1-.06384-.02419" transform="translate(0.06557 -0.07767)" style="fill:#a3a3a3"/></g></g></g><g style="isolation:isolate"><g style="clip-path:url(#clip-path-18)"><g style="isolation:isolate"><path d="M10.48714,371.02457l-1.13966-.62a9.16834,9.16834,0,0,1,.59694-4.13529l1.13966.62a9.16836,9.16836,0,0,0-.59694,4.13529" transform="translate(0.06557 -0.07767)" style="fill:#858585"/><path d="M11.08408,366.88928l-1.13966-.62q.07743-.2106.16431-.42317l1.13966.62q-.08686.21255-.16431.42316" transform="translate(0.06557 -0.07767)" style="fill:#8a8a8a"/></g></g></g><g style="isolation:isolate"><g style="clip-path:url(#clip-path-19)"><g style="isolation:isolate"><path d="M7.63135,374.46345l-1.13966-.62a1.06185,1.06185,0,0,1-.48094-.61887l1.13967.62a1.06178,1.06178,0,0,0,.48093.61886" transform="translate(0.06557 -0.07767)" style="fill:#858585"/></g></g></g><g style="isolation:isolate"><g style="clip-path:url(#clip-path-20)"><g style="isolation:isolate"><path d="M11.24839,366.46612l-1.13966-.62.01293-.03424,1.13966.62-.01293.03424" transform="translate(0.06557 -0.07767)" style="fill:#8a8a8a"/><path d="M11.26132,366.43188l-1.13966-.62c.069-.18746.12105-.43342-.404-.71906l1.13966.62c.52507.28563.473.53159.404.71906" transform="translate(0.06557 -0.07767)" style="fill:#858585"/></g></g></g><g style="isolation:isolate"><g style="clip-path:url(#clip-path-21)"><g style="isolation:isolate"><path d="M10.98694,364.947l-1.13966-.62c.04151.01851.08372.0381.12615.059l1.13967.62c-.04243-.02084-.08465-.04044-.12616-.059" transform="translate(0.06557 -0.07767)" style="fill:#a3a3a3"/><path d="M11.1131,365.006l-1.13967-.62c.03645.0179.07305.03671.10951.05655l1.13966.62c-.03646-.01983-.07306-.03865-.1095-.05655" transform="translate(0.06557 -0.07767)" style="fill:#9e9e9e"/></g></g></g><g style="isolation:isolate"><g style="clip-path:url(#clip-path-22)"><g style="isolation:isolate"><path d="M8.50255,365.91851l-1.13966-.62q.0343-.05268.0696-.103l1.13967.62q-.0353.05032-.06961.103" transform="translate(0.06557 -0.07767)" style="fill:#8f8f8f"/><path d="M8.57216,365.81551l-1.13967-.62a3.2112,3.2112,0,0,1,.22117-.28154l1.13966.62a3.21113,3.21113,0,0,0-.22116.28154" transform="translate(0.06557 -0.07767)" style="fill:#949494"/><path d="M8.79332,365.534l-1.13966-.62a2.72041,2.72041,0,0,1,.21875-.22153l1.13966.62a2.72041,2.72041,0,0,0-.21875.22153" transform="translate(0.06557 -0.07767)" style="fill:#999"/><path d="M9.01207,365.31244l-1.13966-.62a2.33424,2.33424,0,0,1,.23383-.18548l1.13967.62a2.33679,2.33679,0,0,0-.23384.18547" transform="translate(0.06557 -0.07767)" style="fill:#9e9e9e"/><path d="M9.24591,365.127l-1.13967-.62a2.01731,2.01731,0,0,1,.28687-.16608l1.13966.62a2.01674,2.01674,0,0,0-.28686.16609" transform="translate(0.06557 -0.07767)" style="fill:#a3a3a3"/><path d="M9.53277,364.96088l-1.13966-.62a1.74179,1.74179,0,0,1,.50168-.15149,1.70752,1.70752,0,0,1,.67075.04087l1.13967.62a1.70776,1.70776,0,0,0-.67076-.04088,1.74211,1.74211,0,0,0-.50168.15149" transform="translate(0.06557 -0.07767)" style="fill:#a8a8a8"/><path d="M10.70521,364.85027l-1.13967-.62a1.98077,1.98077,0,0,1,.28174.09675l1.13966.62a1.98059,1.98059,0,0,0-.28173-.09674" transform="translate(0.06557 -0.07767)" style="fill:#a3a3a3"/></g></g></g><path d="M19.643,369.76376a.83451.83451,0,0,1,.13482.69845,1.20579,1.20579,0,0,1-1.12561.88051,4.607,4.607,0,0,1-1.10232-.01418,9.60121,9.60121,0,0,0-2.12083.0643,12.99825,12.99825,0,0,0-5.70792,2.44485,3.34621,3.34621,0,0,1-1.45085.72252,1.12059,1.12059,0,0,1-.43242-.017.98.98,0,0,1-.68744-.6986c-.82818-2.51125-.37476-5.17673,1.35213-7.92608a2.26264,2.26264,0,0,1,1.5319-1.10912,1.77116,1.77116,0,0,1,.95249.13762c.56012.24976,1.248.69761.87771,1.72638a8.91212,8.91212,0,0,0-.74382,3.79539,26.02614,26.02614,0,0,1,4.33946-1.009,22.00134,22.00134,0,0,1,2.40577-.207C18.77908,369.21959,19.37939,369.38589,19.643,369.76376Zm-.959.85363c.2649-.03723.41565-.119.44527-.24556l-.03179-.11654c-.10384-.15828-.504-.30949-1.29685-.28449a22.3906,22.3906,0,0,0-2.298.20481,25.86383,25.86383,0,0,0-4.62355,1.10505l-.34458.11758-.04736-.37367a9.422,9.422,0,0,1,.76125-4.55845c.08048-.21011.18513-.50142-.575-.844a1.22075,1.22075,0,0,0-.64049-.09152,1.4384,1.4384,0,0,0-.99442.74481c-1.60642,2.55952-2.01926,4.93406-1.25475,7.24683.07964.23947.19964.29175.27968.31508a.56359.56359,0,0,0,.20919.0045,2.64361,2.64361,0,0,0,1.12931-.59022,13.66516,13.66516,0,0,1,6.01244-2.57689,10.159,10.159,0,0,1,2.273-.06562,4.55975,4.55975,0,0,0,.99667.00833" transform="translate(0.06557 -0.07767)" style="fill:#dfdfdf"/><g style="isolation:isolate"><g style="clip-path:url(#clip-path-23)"><g style="isolation:isolate"><path d="M7.15042,373.84459l-1.13967-.62a8.26008,8.26008,0,0,1,.17453-5.566l1.13966.62a8.26,8.26,0,0,0-.17452,5.566" transform="translate(0.06557 -0.07767)" style="fill:#858585"/><path d="M7.32494,368.27859l-1.13966-.62a11.88908,11.88908,0,0,1,.69377-1.53047l1.13967.62a11.88979,11.88979,0,0,0-.69378,1.53047" transform="translate(0.06557 -0.07767)" style="fill:#8a8a8a"/><path d="M8.01872,366.74812l-1.13967-.62q.22246-.41346.48384-.82962l1.13966.62q-.26136.41613-.48383.82961" transform="translate(0.06557 -0.07767)" style="fill:#8f8f8f"/></g></g></g></g><circle cx="12.06442" cy="369.9256" r="7.5" style="fill:none;stroke:#fff;stroke-miterlimit:10;stroke-width:0.75px"/><g style="isolation:isolate"><polygon points="145.195 370.294 144.055 369.674 144.023 369.558 145.163 370.178 145.195 370.294" style="fill:gray"/><g style="isolation:isolate"><g style="clip-path:url(#clip-path-24)"><g style="isolation:isolate"><path d="M145.09748,370.25529l-1.13966-.62a.386.386,0,0,0-.14159-.11842l1.13966.62a.386.386,0,0,1,.14159.11842" transform="translate(0.06557 -0.07767)" style="fill:#858585"/></g></g></g><g style="isolation:isolate"><g style="clip-path:url(#clip-path-25)"><g style="isolation:isolate"><path d="M144.684,370.61739l-1.13967-.62a1.00618,1.00618,0,0,0,.28349-.07536l1.13967.62a1.0056,1.0056,0,0,1-.28349.07536" transform="translate(0.06557 -0.07767)" style="fill:#a8a8a8"/><path d="M144.96752,370.542l-1.13967-.62a.437.437,0,0,0,.0621-.03525l1.13966.62a.43738.43738,0,0,1-.06209.03524" transform="translate(0.06557 -0.07767)" style="fill:#a3a3a3"/><path d="M145.02961,370.50679l-1.13966-.62a.31572.31572,0,0,0,.03174-.02489l1.13966.62a.31723.31723,0,0,1-.03174.0249" transform="translate(0.06557 -0.07767)" style="fill:#9e9e9e"/><path d="M145.06135,370.48189l-1.13966-.62.02111-.02122,1.13967.62-.02112.02121" transform="translate(0.06557 -0.07767)" style="fill:#999"/><path d="M145.08247,370.46068l-1.13967-.62.01579-.02,1.13966.62-.01578.02" transform="translate(0.06557 -0.07767)" style="fill:#949494"/><path d="M145.09825,370.4407l-1.13966-.62.01294-.021,1.13967.62-.01295.021" transform="translate(0.06557 -0.07767)" style="fill:#8f8f8f"/><path d="M145.1112,370.41972l-1.13967-.62.01139-.02539,1.13967.62-.01139.02538" transform="translate(0.06557 -0.07767)" style="fill:#8a8a8a"/><path d="M145.12259,370.39434l-1.13967-.62.00672-.0225,1.13966.62-.00671.02251" transform="translate(0.06557 -0.07767)" style="fill:#858585"/></g></g></g><g style="isolation:isolate"><g style="clip-path:url(#clip-path-26)"><g style="isolation:isolate"><path d="M137.1288,370.46766l-1.13967-.62a25.89873,25.89873,0,0,1,4.33185-1.0079,22.00145,22.00145,0,0,1,2.40542-.20694,3.85276,3.85276,0,0,1,1.08307.088l1.13967.62a3.85321,3.85321,0,0,0-1.08308-.088,22.00393,22.00393,0,0,0-2.40542.20694,25.89885,25.89885,0,0,0-4.33184,1.0079" transform="translate(0.06557 -0.07767)" style="fill:#a8a8a8"/><path d="M144.94914,369.34084l-1.13967-.62a1.6755,1.6755,0,0,1,.31919.11526l1.13966.62a1.67539,1.67539,0,0,0-.31918-.11527" transform="translate(0.06557 -0.07767)" style="fill:#a3a3a3"/><path d="M145.26832,369.45611l-1.13966-.62.04734.02447,1.13966.62-.04734-.02446" transform="translate(0.06557 -0.07767)" style="fill:#9e9e9e"/></g></g></g><g style="isolation:isolate"><g style="clip-path:url(#clip-path-27)"><g style="isolation:isolate"><path d="M135.40184,373.25157l-1.13967-.62q.1223-.08749.24465-.17216l1.13967.62q-.12235.08468-.24465.17216" transform="translate(0.06557 -0.07767)" style="fill:#9e9e9e"/><path d="M135.64649,373.07941l-1.13967-.62a16.27043,16.27043,0,0,1,2.31367-1.34557l1.13966.62a16.27074,16.27074,0,0,0-2.31366,1.34557" transform="translate(0.06557 -0.07767)" style="fill:#a3a3a3"/><path d="M137.96015,371.73384l-1.13966-.62a12.01453,12.01453,0,0,1,3.45416-1.05917,10.16024,10.16024,0,0,1,2.273-.06562,4.56041,4.56041,0,0,0,.99666.00834l1.13967.62a4.55975,4.55975,0,0,1-.99667-.00833,10.159,10.159,0,0,0-2.273.06562,12.01478,12.01478,0,0,0-3.45417,1.05916" transform="translate(0.06557 -0.07767)" style="fill:#a8a8a8"/></g></g></g><polygon points="136.6 371.321 135.46 370.701 135.421 370.326 136.561 370.946 136.6 371.321" style="fill:gray"/><g style="isolation:isolate"><g style="clip-path:url(#clip-path-28)"><g style="isolation:isolate"><path d="M134.07137,373.83616l-1.13967-.62a.52688.52688,0,0,0,.20394.00524,1.42679,1.42679,0,0,0,.4024-.13166l1.13966.62a1.42614,1.42614,0,0,1-.4024.13166.52643.52643,0,0,1-.20393-.00524" transform="translate(0.06557 -0.07767)" style="fill:#a8a8a8"/><path d="M134.6777,373.70974l-1.13966-.62a3.588,3.588,0,0,0,.50386-.29792l1.13966.62a3.58642,3.58642,0,0,1-.50386.29792" transform="translate(0.06557 -0.07767)" style="fill:#a3a3a3"/><path d="M135.18156,373.41182l-1.13966-.62q.10449-.07231.22027-.16025l1.13967.62q-.11587.08818-.22028.16025" transform="translate(0.06557 -0.07767)" style="fill:#9e9e9e"/></g></g></g><g style="isolation:isolate"><g style="clip-path:url(#clip-path-29)"><g style="isolation:isolate"><polyline points="134.052 373.726 132.912 373.106 132.923 373.112 134.063 373.732 134.052 373.726" style="fill:#9e9e9e"/><path d="M133.99748,373.80984l-1.13967-.62a.36447.36447,0,0,0,.07054.02547l1.13966.62a.36505.36505,0,0,1-.07053-.02547" transform="translate(0.06557 -0.07767)" style="fill:#a3a3a3"/><polyline points="134.134 373.758 132.994 373.138 132.997 373.139 134.137 373.758 134.134 373.758" style="fill:#a8a8a8"/></g></g></g><g style="isolation:isolate"><g style="clip-path:url(#clip-path-30)"><g style="isolation:isolate"><path d="M136.49511,371.02345l-1.13967-.62a9.16361,9.16361,0,0,1,.6042-4.17114l1.13966.62a9.16344,9.16344,0,0,0-.60419,4.17113" transform="translate(0.06557 -0.07767)" style="fill:#858585"/><path d="M137.0993,366.85232l-1.13966-.62q.07072-.19236.149-.38619l1.13967.62q-.07831.19382-.149.3862" transform="translate(0.06557 -0.07767)" style="fill:#8a8a8a"/></g></g></g><g style="isolation:isolate"><g style="clip-path:url(#clip-path-31)"><g style="isolation:isolate"><path d="M133.63131,374.46346l-1.13966-.62a1.06168,1.06168,0,0,1-.48092-.61887l1.13966.62a1.06179,1.06179,0,0,0,.48092.61887" transform="translate(0.06557 -0.07767)" style="fill:#858585"/></g></g></g><g style="isolation:isolate"><g style="clip-path:url(#clip-path-32)"><g style="isolation:isolate"><path d="M137.24835,366.46612l-1.13967-.62.01293-.03425,1.13966.62-.01292.03424" transform="translate(0.06557 -0.07767)" style="fill:#8a8a8a"/><path d="M137.26127,366.43188l-1.13966-.62c.069-.18746.121-.43342-.404-.71905l1.13966.62c.52508.28564.47306.5316.404.71906" transform="translate(0.06557 -0.07767)" style="fill:#858585"/></g></g></g><g style="isolation:isolate"><g style="clip-path:url(#clip-path-33)"><g style="isolation:isolate"><path d="M136.98689,364.947l-1.13966-.62c.04151.01851.08373.03811.12616.059l1.13966.62c-.04243-.02085-.08464-.04045-.12616-.059" transform="translate(0.06557 -0.07767)" style="fill:#a3a3a3"/><path d="M137.113,365.006l-1.13966-.62c.03644.0179.073.03672.1095.05655l1.13967.62c-.03646-.01984-.07307-.03865-.10951-.05655" transform="translate(0.06557 -0.07767)" style="fill:#9e9e9e"/></g></g></g><g style="isolation:isolate"><g style="clip-path:url(#clip-path-34)"><g style="isolation:isolate"><path d="M134.50251,365.91851l-1.13967-.62q.03429-.05265.06957-.10295l1.13966.62q-.03526.0503-.06956.10294" transform="translate(0.06557 -0.07767)" style="fill:#8f8f8f"/><path d="M134.57207,365.81557l-1.13966-.62a3.21335,3.21335,0,0,1,.22119-.28157l1.13966.62a3.21186,3.21186,0,0,0-.22119.28157" transform="translate(0.06557 -0.07767)" style="fill:#949494"/><path d="M134.79326,365.534l-1.13966-.62a2.72227,2.72227,0,0,1,.21876-.22154l1.13966.62a2.72066,2.72066,0,0,0-.21876.22154" transform="translate(0.06557 -0.07767)" style="fill:#999"/><path d="M135.012,365.31246l-1.13966-.62a2.33558,2.33558,0,0,1,.23385-.18548l1.13966.62a2.33684,2.33684,0,0,0-.23385.18549" transform="translate(0.06557 -0.07767)" style="fill:#9e9e9e"/><path d="M135.24587,365.127l-1.13966-.62a2.01684,2.01684,0,0,1,.28687-.16609l1.13966.62a2.01835,2.01835,0,0,0-.28687.16609" transform="translate(0.06557 -0.07767)" style="fill:#a3a3a3"/><path d="M135.53274,364.96088l-1.13966-.62a1.74179,1.74179,0,0,1,.50168-.15149,1.70742,1.70742,0,0,1,.67073.04087l1.13966.62a1.70778,1.70778,0,0,0-.67073-.04087,1.7422,1.7422,0,0,0-.50168.15149" transform="translate(0.06557 -0.07767)" style="fill:#a8a8a8"/><path d="M136.70515,364.85026l-1.13966-.62a1.97953,1.97953,0,0,1,.28174.09675l1.13966.62a1.9816,1.9816,0,0,0-.28174-.09675" transform="translate(0.06557 -0.07767)" style="fill:#a3a3a3"/></g></g></g><path d="M145.643,369.76376a.83444.83444,0,0,1,.13485.69845,1.20581,1.20581,0,0,1-1.12563.88051,4.60683,4.60683,0,0,1-1.1023-.01418,9.601,9.601,0,0,0-2.1207.06428,12.95145,12.95145,0,0,0-5.70009,2.44374,3.40117,3.40117,0,0,1-1.45886.72365,1.15038,1.15038,0,0,1-.43242-.017.97989.97989,0,0,1-.68742-.6986c-.8282-2.51124-.37478-5.17672,1.35212-7.92608a2.26272,2.26272,0,0,1,1.53191-1.10912,1.77105,1.77105,0,0,1,.95247.13762c.56012.24977,1.248.69762.87771,1.72639a8.775,8.775,0,0,0-.7358,3.79426,25.89885,25.89885,0,0,1,4.33184-1.0079,22.00393,22.00393,0,0,1,2.40542-.20694C144.77907,369.21959,145.37939,369.38588,145.643,369.76376Zm-.95893.85363c.2649-.03723.41565-.119.44527-.24556l-.03182-.11654c-.10381-.15828-.504-.30949-1.2968-.2845a22.39071,22.39071,0,0,0-2.29774.20477,25.7426,25.7426,0,0,0-4.6159,1.104l-.35259.1187-.03934-.37479a9.4211,9.4211,0,0,1,.75324-4.55733c.08047-.21011.18512-.50141-.575-.844a1.19771,1.19771,0,0,0-.64049-.09152,1.43843,1.43843,0,0,0-.99442.74481c-1.60642,2.55952-2.01925,4.93406-1.25473,7.23819.07962.24811.19965.30039.2877.32259a.52643.52643,0,0,0,.20393.00524,2.64659,2.64659,0,0,0,1.12654-.58983,13.66529,13.66529,0,0,1,6.01248-2.57689,10.159,10.159,0,0,1,2.273-.06562,4.55975,4.55975,0,0,0,.99667.00833" transform="translate(0.06557 -0.07767)" style="fill:#dfdfdf"/><g style="isolation:isolate"><g style="clip-path:url(#clip-path-35)"><g style="isolation:isolate"><path d="M133.15039,373.84459l-1.13966-.62a8.25992,8.25992,0,0,1,.17451-5.566l1.13966.62a8.25992,8.25992,0,0,0-.17451,5.566" transform="translate(0.06557 -0.07767)" style="fill:#858585"/><path d="M133.3249,368.27859l-1.13966-.62a11.88884,11.88884,0,0,1,.69377-1.53046l1.13966.62a11.889,11.889,0,0,0-.69377,1.53046" transform="translate(0.06557 -0.07767)" style="fill:#8a8a8a"/><path d="M134.01867,366.74813l-1.13966-.62q.22245-.41346.48383-.82961l1.13967.62q-.26138.41613-.48384.82962" transform="translate(0.06557 -0.07767)" style="fill:#8f8f8f"/></g></g></g></g><circle cx="138.06557" cy="369.9256" r="7.5" style="fill:none;stroke:#fff;stroke-miterlimit:10;stroke-width:0.75px"/><path d="M16.85791,86.07666h-.01367l-.79.42725-.11914-.46924.99219-.53223h.52441v4.55225h-.59375Z" transform="translate(0.06557 -0.07767)" style="fill:#fff;stroke:#fff;stroke-miterlimit:10;stroke-width:0.25px"/><path d="M55.46729,88.89893a1.29988,1.29988,0,0,1,.90136-1.21875l-.00683-.021a1.12708,1.12708,0,0,1-.71973-1.02246,1.27283,1.27283,0,0,1,1.4043-1.21143,1.17423,1.17423,0,0,1,1.32129,1.12061,1.15734,1.15734,0,0,1-.748,1.06445v.021a1.26091,1.26091,0,0,1,.915,1.17676,1.39986,1.39986,0,0,1-1.54395,1.32373C56.04053,90.13184,55.46729,89.56445,55.46729,88.89893Zm2.44531-.02784c0-.55322-.38379-.81933-.999-.99463a.98832.98832,0,0,0-.81738.93848.84041.84041,0,0,0,.9082.86865A.82265.82265,0,0,0,57.9126,88.87109Zm-1.69043-2.27636c0,.45556.34179.70068.86621.84033a.89625.89625,0,0,0,.69238-.82617.70734.70734,0,0,0-.76953-.74268A.723.723,0,0,0,56.22217,86.59473Z" transform="translate(0.06557 -0.07767)" style="fill:#fff;stroke:#fff;stroke-miterlimit:10;stroke-width:0.25px"/><path d="M29.42432,51.05469V49.81494H27.313v-.40625l2.02734-2.90625h.66309v2.8291h.63672v.4834h-.63672v1.23975Zm0-1.72315V47.812q0-.35742.0205-.71435h-.0205c-.14063.26611-.252.46191-.37793.67236l-1.11133,1.54785v.01367Z" transform="translate(0.06557 -0.07767)" style="fill:#fff;stroke:#fff;stroke-miterlimit:10;stroke-width:0.25px"/><rect x="102.2231" y="176.33206" width="45.68493" height="107.22108" rx="11.91199" style="fill:none;stroke:#fff;stroke-miterlimit:10;stroke-width:0.25px"/><rect x="102.06557" y="175.96233" width="46" height="107.96054" rx="11.91199" style="fill:none;stroke:#000;stroke-miterlimit:10;stroke-width:0.25px"/><rect x="102.2231" y="77.152" width="45.68493" height="94.44418" rx="11.91199" style="fill:none;stroke:#fff;stroke-miterlimit:10;stroke-width:0.25px"/><rect x="102.06557" y="76.82633" width="46" height="95.09552" rx="11.91199" style="fill:none;stroke:#000;stroke-miterlimit:10;stroke-width:0.25px"/></svg>