<svg id="Calque_1" data-name="Calque 1" xmlns="http://www.w3.org/2000/svg" xmlns:xlink="http://www.w3.org/1999/xlink" viewBox="0 0 150.13114 379.84467"><defs><clipPath id="clip-path" transform="translate(0.06557 -0.07767)"><rect width="150" height="380" style="fill:none"/></clipPath><clipPath id="clip-path-2" transform="translate(0.06557 -0.07767)"><rect x="0.35545" y="0.49869" width="149.2891" height="379.00262" style="fill:none"/></clipPath><linearGradient id="Dégradé_sans_nom_2" x1="-44.4968" y1="0.01915" x2="-43.49942" y2="0.01915" gradientTransform="matrix(0, 757.36707, 757.36707, 0, 60.56557, 33659.44363)" gradientUnits="userSpaceOnUse"><stop offset="0" stop-color="#2d4b76"/><stop offset="0.00392" stop-color="#2d4b76"/><stop offset="0.06808" stop-color="#253e65"/><stop offset="0.20312" stop-color="#182846"/><stop offset="0.34471" stop-color="#0d162e"/><stop offset="0.49387" stop-color="#060a1c"/><stop offset="0.65559" stop-color="#010212"/><stop offset="0.85286" stop-color="#00000f"/><stop offset="1" stop-color="#00000f"/></linearGradient><clipPath id="clip-path-4" transform="translate(0.06557 -0.07767)"><path d="M17.81894,11.51758l1.13966.62a.41188.41188,0,0,1,.14139.11517l-1.13967-.62A.41187.41187,0,0,0,17.81894,11.51758Z" style="fill:none"/></clipPath><clipPath id="clip-path-5" transform="translate(0.06557 -0.07767)"><path d="M18.68849,12.61333l-1.13966-.62c.25983-.03652.40982-.11815.44331-.24406l1.13966.62C19.09832,12.49518,18.94832,12.57681,18.68849,12.61333Z" style="fill:none"/></clipPath><clipPath id="clip-path-6" transform="translate(0.06557 -0.07767)"><path d="M17.68988,12.59785l-1.13966-.62a4.34374,4.34374,0,0,0,.99861.01548l1.13966.62A4.34259,4.34259,0,0,1,17.68988,12.59785Z" style="fill:none"/></clipPath><clipPath id="clip-path-7" transform="translate(0.06557 -0.07767)"><path d="M18.17688,10.85474l1.13966.62a2.8841,2.8841,0,0,0-1.44795-.23308,22.48308,22.48308,0,0,0-2.36957.20829A26.24489,26.24489,0,0,0,11.1233,12.4662l-1.13968-.62A26.24538,26.24538,0,0,1,14.35936,10.83a22.48575,22.48575,0,0,1,2.36956-.20828A2.88415,2.88415,0,0,1,18.17688,10.85474Z" style="fill:none"/></clipPath><clipPath id="clip-path-8" transform="translate(0.06557 -0.07767)"><path d="M9.40434,15.249l-1.13966-.62a13.7,13.7,0,0,1,6.02949-2.5826,10.22845,10.22845,0,0,1,2.25605-.06856l1.13966.62a10.22969,10.22969,0,0,0-2.256.06856A13.70027,13.70027,0,0,0,9.40434,15.249Z" style="fill:none"/></clipPath><clipPath id="clip-path-9" transform="translate(0.06557 -0.07767)"><path d="M8.06586,15.83473l-1.13966-.62a.55807.55807,0,0,0,.2077.00471,2.67481,2.67481,0,0,0,1.13078-.59043l1.13966.62a2.67456,2.67456,0,0,1-1.13078.59043A.55765.55765,0,0,1,8.06586,15.83473Z" style="fill:none"/></clipPath><clipPath id="clip-path-10" transform="translate(0.06557 -0.07767)"><path d="M7.99059,15.80457l-1.13968-.62a.37138.37138,0,0,0,.07529.03016l1.13965.62A.37178.37178,0,0,1,7.99059,15.80457Z" style="fill:none"/></clipPath><clipPath id="clip-path-11" transform="translate(0.06557 -0.07767)"><path d="M10.4896,13.022l-1.13966-.62a9.422,9.422,0,0,1,.76125-4.55845l1.13966.62A9.422,9.422,0,0,0,10.4896,13.022Z" style="fill:none"/></clipPath><clipPath id="clip-path-12" transform="translate(0.06557 -0.07767)"><path d="M7.6375,16.46491,6.49783,15.845a1.06937,1.06937,0,0,1-.48459-.6229l1.13966.62A1.06933,1.06933,0,0,0,7.6375,16.46491Z" style="fill:none"/></clipPath><clipPath id="clip-path-13" transform="translate(0.06557 -0.07767)"><path d="M9.72005,7.09025l1.13965.62c.55775.3034.46443.562.39115.75334l-1.13966-.62C10.18447,7.65228,10.27778,7.39365,9.72005,7.09025Z" style="fill:none"/></clipPath><clipPath id="clip-path-14" transform="translate(0.06557 -0.07767)"><path d="M7.1529,15.842l-1.13966-.62c-.82818-2.51127-.37479-5.17672,1.35211-7.92607a2.24773,2.24773,0,0,1,1.53-1.10885,1.77513,1.77513,0,0,1,.95438.13735l1.13966.62A1.77512,1.77512,0,0,0,10.035,6.8071,2.2478,2.2478,0,0,0,8.505,7.916C6.77812,10.66531,6.32472,13.33076,7.1529,15.842Z" style="fill:none"/></clipPath><clipPath id="clip-path-15" transform="translate(0.06557 -0.07767)"><path d="M10.07349,6.43518l1.13965.62c-.0752-.04093-.15073-.07753-.22374-.11071l-1.13966-.62C9.92275,6.35766,9.99827,6.39426,10.07349,6.43518Z" style="fill:none"/></clipPath><clipPath id="clip-path-16" transform="translate(0.06557 -0.07767)"><path d="M143.81943,11.51815l1.13965.62a.41183.41183,0,0,1,.1414.11517l-1.13967-.62A.412.412,0,0,0,143.81943,11.51815Z" style="fill:none"/></clipPath><clipPath id="clip-path-17" transform="translate(0.06557 -0.07767)"><path d="M144.695,12.61305l-1.13966-.62c.26-.03654.408-.11789.43731-.24321l1.13965.62C145.103,12.49516,144.955,12.57651,144.695,12.61305Z" style="fill:none"/></clipPath><clipPath id="clip-path-18" transform="translate(0.06557 -0.07767)"><path d="M143.6904,12.59841l-1.13967-.62a4.41627,4.41627,0,0,0,1.0046.01464l1.13966.62A4.41618,4.41618,0,0,1,143.6904,12.59841Z" style="fill:none"/></clipPath><clipPath id="clip-path-19" transform="translate(0.06557 -0.07767)"><path d="M144.18016,10.8544l1.13966.62a2.89988,2.89988,0,0,0-1.45074-.23218,22.48331,22.48331,0,0,0-2.36957.20829,26.24412,26.24412,0,0,0-4.37572,1.01627l-1.13967-.62a26.24527,26.24527,0,0,1,4.37573-1.01628,22.48575,22.48575,0,0,1,2.36956-.20828A2.90018,2.90018,0,0,1,144.18016,10.8544Z" style="fill:none"/></clipPath><clipPath id="clip-path-20" transform="translate(0.06557 -0.07767)"><path d="M135.40486,15.24957l-1.13967-.62a13.69987,13.69987,0,0,1,6.02947-2.58259,10.22923,10.22923,0,0,1,2.25607-.06857l1.13967.62a10.22991,10.22991,0,0,0-2.25608.06856A13.7,13.7,0,0,0,135.40486,15.24957Z" style="fill:none"/></clipPath><clipPath id="clip-path-21" transform="translate(0.06557 -0.07767)"><path d="M134.06636,15.83529l-1.13967-.62a.558.558,0,0,0,.20768.00471,2.67482,2.67482,0,0,0,1.13082-.59044l1.13967.62A2.67489,2.67489,0,0,1,134.274,15.84.55767.55767,0,0,1,134.06636,15.83529Z" style="fill:none"/></clipPath><clipPath id="clip-path-22" transform="translate(0.06557 -0.07767)"><path d="M133.9922,15.80562l-1.13967-.62a.366.366,0,0,0,.07416.02967l1.13966.62A.3674.3674,0,0,1,133.9922,15.80562Z" style="fill:none"/></clipPath><clipPath id="clip-path-23" transform="translate(0.06557 -0.07767)"><path d="M136.4901,13.02258l-1.13967-.62a9.422,9.422,0,0,1,.76125-4.55845l1.13967.62A9.42187,9.42187,0,0,0,136.4901,13.02258Z" style="fill:none"/></clipPath><clipPath id="clip-path-24" transform="translate(0.06557 -0.07767)"><path d="M133.638,16.46547l-1.13967-.62a1.06926,1.06926,0,0,1-.48457-.62288l1.13966.62A1.06924,1.06924,0,0,0,133.638,16.46547Z" style="fill:none"/></clipPath><clipPath id="clip-path-25" transform="translate(0.06557 -0.07767)"><path d="M135.72055,7.09081l1.13966.62c.55773.3034.46443.562.39114.75334l-1.13967-.62C136.185,7.65284,136.27828,7.39421,135.72055,7.09081Z" style="fill:none"/></clipPath><clipPath id="clip-path-26" transform="translate(0.06557 -0.07767)"><path d="M136.08558,6.44039l1.13966.62c-.07879-.04287-.15828-.081-.23535-.11535l-1.13966-.62C135.9273,6.35941,136.00679,6.39752,136.08558,6.44039Z" style="fill:none"/></clipPath><clipPath id="clip-path-27" transform="translate(0.06557 -0.07767)"><path d="M134.50551,7.91651l-1.13967-.62a2.26274,2.26274,0,0,1,1.5319-1.10912,1.77111,1.77111,0,0,1,.95249.13762l1.13966.62a1.771,1.771,0,0,0-.95249-.13761A2.26268,2.26268,0,0,0,134.50551,7.91651Z" style="fill:none"/></clipPath><clipPath id="clip-path-28" transform="translate(0.06557 -0.07767)"><path d="M133.15339,15.84259l-1.13966-.62c-.8282-2.51126-.37476-5.17672,1.35211-7.92607l1.13967.62C132.77863,10.66586,132.32519,13.33132,133.15339,15.84259Z" style="fill:none"/></clipPath><clipPath id="clip-path-29" transform="translate(0.06557 -0.07767)"><rect x="9.00006" y="218.99998" width="42" height="42" style="fill:none"/></clipPath><clipPath id="clip-path-33" transform="translate(0.06557 -0.07767)"><rect x="14.05518" y="287.34072" width="41.88977" height="45.3187" style="fill:none"/></clipPath></defs><title>ImpulseControl</title><g id="Panel_14_HP" data-name="Panel 14 HP"><g style="clip-path:url(#clip-path)"><g style="clip-path:url(#clip-path-2)"><rect x="0.42102" y="0.42102" width="149.28909" height="379.00262" style="fill:url(#Dégradé_sans_nom_2)"/></g><g style="clip-path:url(#clip-path)"><rect x="0.42102" y="0.42102" width="149.2891" height="379.00262" style="fill:none;stroke:#000;stroke-miterlimit:10;stroke-width:0.8420419190424181px"/></g></g></g><path d="M64.895,310.65332l4.93066.00977a.8341.8341,0,0,1,.916.94726.8898.8898,0,0,1-.98438,1.01074H68.30127l.00488,4.87793a.87391.87391,0,0,1-.97949.97168.84956.84956,0,0,1-.97461-.94726l.00488-4.90235H64.895a.8646.8646,0,0,1-.97461-.98144A.87974.87974,0,0,1,64.895,310.65332Z" transform="translate(0.06557 -0.07767)" style="fill:#fff"/><path d="M72.69092,310.66309h3.42041a2.514,2.514,0,0,1,2.42187,2.43164,3.61506,3.61506,0,0,1-.36718,1.706,1.2387,1.2387,0,0,1-1.10938.7207l1.2041,1.22071a1.0242,1.0242,0,0,1,.28711.75683.86549.86549,0,0,1-.97461.97168,1.33507,1.33507,0,0,1-.97949-.47851L74.645,315.57031a1.53425,1.53425,0,0,1-.49707-1.00586.86569.86569,0,0,1,.98437-.98144l.69141-.00488q.77124.00878.76025-.47364,0-.48339-.76513-.4834H73.67041v4.87305a.86227.86227,0,0,1-.97949.97656.85314.85314,0,0,1-.97461-.96679v-5.874A.86525.86525,0,0,1,72.69092,310.66309Z" transform="translate(0.06557 -0.07767)" style="fill:#fff"/><path d="M80.48242,310.66309a.87757.87757,0,0,1,.98926.96679V317.499a.97712.97712,0,1,1-1.9541.00489v-5.86914A.85583.85583,0,0,1,80.48242,310.66309Z" transform="translate(0.06557 -0.07767)" style="fill:#fff"/><path d="M86.32031,310.66309l1.958-.00489a.87.87,0,0,1,.96484.98633.842.842,0,0,1-.96.95215l-1.95312.00977a2.007,2.007,0,0,0-.96289.251,1.80788,1.80788,0,0,0-.72852.72266,1.9992,1.9992,0,0,0-.26269.98437,1.975,1.975,0,0,0,.25781.97168,1.833,1.833,0,0,0,.72363.72266,1.98267,1.98267,0,0,0,.97266.25879,2.417,2.417,0,0,0,1.02539-.24219,1.50056,1.50056,0,0,0,.75293-.749H87.294a.86036.86036,0,0,1-.98829-.957.876.876,0,0,1,.97364-.99121l1.959.00976a.88619.88619,0,0,1,.98926.98633,3.96563,3.96563,0,0,1-.51367,1.94531,3.618,3.618,0,0,1-1.44532,1.44531,3.9218,3.9218,0,0,1-3.88769,0,3.618,3.618,0,0,1-1.44531-1.44531,3.944,3.944,0,0,1,.00781-3.90625,3.5909,3.5909,0,0,1,1.4541-1.44531A3.98784,3.98784,0,0,1,86.32031,310.66309Z" transform="translate(0.06557 -0.07767)" style="fill:#fff"/><path d="M91.20215,317.48438a.8646.8646,0,0,1,.97461-.98145h.50195l-.00488-3.88672a.83894.83894,0,0,1-.95508-.97168.87709.87709,0,0,1,.96484-.97168h.9795a.84706.84706,0,0,1,.96484.95215l-.00488,4.87793h.49218a.88951.88951,0,0,1,.9834,1.01074.83451.83451,0,0,1-.916.94727l-3.00586.00976A.88014.88014,0,0,1,91.20215,317.48438Z" transform="translate(0.06557 -0.07767)" style="fill:#fff"/><path d="M60.51221,360.65332l4.93066.00977a.8341.8341,0,0,1,.916.94726.8898.8898,0,0,1-.98438,1.01074h-1.456l.00488,4.87793a.87392.87392,0,0,1-.97949.97168.84956.84956,0,0,1-.97461-.94726l.00488-4.90235H60.51221a.8646.8646,0,0,1-.97461-.98144A.87974.87974,0,0,1,60.51221,360.65332Z" transform="translate(0.06557 -0.07767)" style="fill:#fff"/><path d="M68.30811,360.66309H71.728a2.514,2.514,0,0,1,2.42187,2.43164,3.61494,3.61494,0,0,1-.36719,1.706,1.23867,1.23867,0,0,1-1.10937.7207l1.2041,1.22071a1.0242,1.0242,0,0,1,.28711.75683.86549.86549,0,0,1-.97461.97168,1.33505,1.33505,0,0,1-.97949-.47851l-1.94824-2.42188a1.53425,1.53425,0,0,1-.49707-1.00586.86569.86569,0,0,1,.98437-.98144l.69141-.00488q.7705.00878.75976-.47364,0-.48339-.76464-.4834H69.2876v4.87305a.86227.86227,0,0,1-.97949.97656.85314.85314,0,0,1-.97461-.96679v-5.874A.86525.86525,0,0,1,68.30811,360.66309Z" transform="translate(0.06557 -0.07767)" style="fill:#fff"/><path d="M76.09863,360.66309a.87756.87756,0,0,1,.98926.96679V367.499a.97688.97688,0,1,1-1.95361.00489v-5.86914A.85568.85568,0,0,1,76.09863,360.66309Z" transform="translate(0.06557 -0.07767)" style="fill:#fff"/><path d="M81.93652,360.66309l1.958-.00489a.87.87,0,0,1,.96485.98633.842.842,0,0,1-.96.95215l-1.95312.00977a2.007,2.007,0,0,0-.96289.251,1.80788,1.80788,0,0,0-.72852.72266,1.9992,1.9992,0,0,0-.26269.98437,1.97516,1.97516,0,0,0,.25781.97168,1.83309,1.83309,0,0,0,.72363.72266,1.98267,1.98267,0,0,0,.97266.25879,2.417,2.417,0,0,0,1.02539-.24219,1.50056,1.50056,0,0,0,.75293-.749h-.81445a.86034.86034,0,0,1-.98828-.957.876.876,0,0,1,.97363-.99121l1.959.00976a.88619.88619,0,0,1,.98926.98633,3.96563,3.96563,0,0,1-.51367,1.94531,3.618,3.618,0,0,1-1.44531,1.44531,3.92181,3.92181,0,0,1-3.8877,0,3.618,3.618,0,0,1-1.44531-1.44531,3.944,3.944,0,0,1,.00781-3.90625,3.5909,3.5909,0,0,1,1.4541-1.44531A3.98784,3.98784,0,0,1,81.93652,360.66309Z" transform="translate(0.06557 -0.07767)" style="fill:#fff"/><path d="M86.81836,367.48438a.8646.8646,0,0,1,.97461-.98145h.502L88.29,362.61621a.839.839,0,0,1-.95508-.97168.87709.87709,0,0,1,.96484-.97168h.9795a.84706.84706,0,0,1,.96484.95215l-.00488,4.87793h.49219a.88951.88951,0,0,1,.98339,1.01074.83451.83451,0,0,1-.916.94727l-3.00586.00976A.88014.88014,0,0,1,86.81836,367.48438Z" transform="translate(0.06557 -0.07767)" style="fill:#fff"/><path d="M93.65039,368.47559a1.002,1.002,0,0,1-.48047-.125.88908.88908,0,0,1-.3623-.3584.99319.99319,0,0,1-.13184-.49317,23.5518,23.5518,0,0,1,1.457-3.18847q1.45606-2.93554,1.583-3.167a.906.906,0,0,1,.36133-.36132.9943.9943,0,0,1,.4873-.12891.98352.98352,0,0,1,.48438.12891.92233.92233,0,0,1,.36035.36132q.12891.23292,1.59375,3.167a23.596,23.596,0,0,1,1.46387,3.18847.99319.99319,0,0,1-.13184.49317.88444.88444,0,0,1-.36523.3584,1.0023,1.0023,0,0,1-.47754.125Zm4.249-1.96778-1.335-2.749-1.34082,2.749Z" transform="translate(0.06557 -0.07767)" style="fill:#fff"/><path d="M104.54,360.65332l4.93066.00977a.8341.8341,0,0,1,.916.94726.8898.8898,0,0,1-.98438,1.01074h-1.456l.00488,4.87793a.87391.87391,0,0,1-.97949.97168.84956.84956,0,0,1-.97461-.94726l.00488-4.90235H104.54a.8646.8646,0,0,1-.97461-.98144A.87974.87974,0,0,1,104.54,360.65332Z" transform="translate(0.06557 -0.07767)" style="fill:#fff"/><path d="M112.33594,360.66309h3.41992a2.51394,2.51394,0,0,1,2.42187,2.43164,3.61506,3.61506,0,0,1-.36718,1.706,1.2387,1.2387,0,0,1-1.10938.7207l1.2041,1.22071a1.0242,1.0242,0,0,1,.28711.75683.86549.86549,0,0,1-.97461.97168,1.33507,1.33507,0,0,1-.97949-.47851L114.29,365.57031a1.53425,1.53425,0,0,1-.49707-1.00586.86569.86569,0,0,1,.98437-.98144l.69141-.00488q.77051.00878.75977-.47364,0-.48339-.76465-.4834h-2.14844v4.87305a.86227.86227,0,0,1-.97949.97656.85314.85314,0,0,1-.97461-.96679v-5.874A.86525.86525,0,0,1,112.33594,360.66309Z" transform="translate(0.06557 -0.07767)" style="fill:#fff"/><path d="M120.127,360.66309a.87756.87756,0,0,1,.98926.96679V367.499a.97712.97712,0,1,1-1.9541.00489v-5.86914A.85583.85583,0,0,1,120.127,360.66309Z" transform="translate(0.06557 -0.07767)" style="fill:#fff"/><path d="M125.96484,360.66309l1.958-.00489a.87.87,0,0,1,.96485.98633.842.842,0,0,1-.96.95215l-1.95312.00977a2.007,2.007,0,0,0-.96289.251,1.80788,1.80788,0,0,0-.72852.72266,1.9992,1.9992,0,0,0-.26269.98437,1.97516,1.97516,0,0,0,.25781.97168,1.83309,1.83309,0,0,0,.72363.72266,1.98267,1.98267,0,0,0,.97266.25879A2.417,2.417,0,0,0,127,366.27539a1.50056,1.50056,0,0,0,.75293-.749h-.81445a.86035.86035,0,0,1-.98828-.957.876.876,0,0,1,.97363-.99121l1.959.00976a.88619.88619,0,0,1,.98926.98633,3.96563,3.96563,0,0,1-.51367,1.94531,3.618,3.618,0,0,1-1.44531,1.44531,3.92181,3.92181,0,0,1-3.8877,0,3.618,3.618,0,0,1-1.44531-1.44531,3.944,3.944,0,0,1,.00781-3.90625,3.5909,3.5909,0,0,1,1.4541-1.44531A3.98784,3.98784,0,0,1,125.96484,360.66309Z" transform="translate(0.06557 -0.07767)" style="fill:#fff"/><path d="M137.67773,364.56934a.855.855,0,0,1-.9746.97168l-3.90235-.00489q.00879.98145,1.457.98633l2.4502-.00976a.87269.87269,0,0,1,.96972.98144.86229.86229,0,0,1-.9746.97656h-2.43067q-3.42187-.00585-3.42578-3.90625a.867.867,0,0,1,.97461-.97656l3.90234.00488q0-.977-1.4414-.97168h-2.45118a.89583.89583,0,0,1-.98437-.98632.87447.87447,0,0,1,.98437-.97168h2.43165Q137.67285,360.65723,137.67773,364.56934Z" transform="translate(0.06557 -0.07767)" style="fill:#fff"/><path d="M139.62207,368.47559a1.002,1.002,0,0,1-.48047-.125.889.889,0,0,1-.3623-.3584.99319.99319,0,0,1-.13184-.49317,23.5518,23.5518,0,0,1,1.457-3.18847q1.45606-2.93554,1.583-3.167a.906.906,0,0,1,.36133-.36132.9943.9943,0,0,1,.4873-.12891.98352.98352,0,0,1,.48438.12891.9224.9224,0,0,1,.36035.36132q.12891.23292,1.59375,3.167a23.596,23.596,0,0,1,1.46387,3.18847.99319.99319,0,0,1-.13184.49317.88444.88444,0,0,1-.36523.3584,1.0023,1.0023,0,0,1-.47754.125Zm4.249-1.96778-1.335-2.749-1.34082,2.749Z" transform="translate(0.06557 -0.07767)" style="fill:#fff"/><path d="M108.92383,310.65332l4.93066.00977a.8341.8341,0,0,1,.916.94726.8898.8898,0,0,1-.98438,1.01074h-1.45605l.00488,4.87793a.87391.87391,0,0,1-.97949.97168.84956.84956,0,0,1-.97461-.94726l.00488-4.90235h-1.46191a.8646.8646,0,0,1-.97461-.98144A.87974.87974,0,0,1,108.92383,310.65332Z" transform="translate(0.06557 -0.07767)" style="fill:#fff"/><path d="M116.71973,310.66309h3.41992a2.514,2.514,0,0,1,2.42187,2.43164,3.61506,3.61506,0,0,1-.36718,1.706,1.2387,1.2387,0,0,1-1.10938.7207l1.2041,1.22071a1.0242,1.0242,0,0,1,.28711.75683.86549.86549,0,0,1-.97461.97168,1.33507,1.33507,0,0,1-.97949-.47851l-1.94824-2.42188a1.53425,1.53425,0,0,1-.49707-1.00586.86569.86569,0,0,1,.98437-.98144l.69141-.00488q.7705.00878.75976-.47364,0-.48339-.76464-.4834h-2.14844v4.87305a.86227.86227,0,0,1-.97949.97656.85314.85314,0,0,1-.97461-.96679v-5.874A.86525.86525,0,0,1,116.71973,310.66309Z" transform="translate(0.06557 -0.07767)" style="fill:#fff"/><path d="M124.51074,310.66309a.87757.87757,0,0,1,.98926.96679V317.499a.97712.97712,0,1,1-1.9541.00489v-5.86914A.85583.85583,0,0,1,124.51074,310.66309Z" transform="translate(0.06557 -0.07767)" style="fill:#fff"/><path d="M130.34863,310.66309l1.958-.00489a.87.87,0,0,1,.96484.98633.842.842,0,0,1-.96.95215l-1.95312.00977a2.007,2.007,0,0,0-.96289.251,1.80788,1.80788,0,0,0-.72852.72266,1.9992,1.9992,0,0,0-.26269.98437,1.975,1.975,0,0,0,.25781.97168,1.833,1.833,0,0,0,.72363.72266,1.98267,1.98267,0,0,0,.97266.25879,2.417,2.417,0,0,0,1.02539-.24219,1.50056,1.50056,0,0,0,.75293-.749h-.81445a.86036.86036,0,0,1-.98829-.957.876.876,0,0,1,.97364-.99121l1.959.00976a.88619.88619,0,0,1,.98926.98633,3.96563,3.96563,0,0,1-.51367,1.94531,3.618,3.618,0,0,1-1.44531,1.44531,3.92181,3.92181,0,0,1-3.8877,0,3.618,3.618,0,0,1-1.44531-1.44531,3.944,3.944,0,0,1,.00781-3.90625,3.5909,3.5909,0,0,1,1.4541-1.44531A3.98784,3.98784,0,0,1,130.34863,310.66309Z" transform="translate(0.06557 -0.07767)" style="fill:#fff"/><path d="M142.06152,314.56934a.855.855,0,0,1-.97461.97168l-3.90234-.00489q.00879.98145,1.457.98633l2.4502-.00976a.87269.87269,0,0,1,.96972.98144.86229.86229,0,0,1-.97461.97656h-2.43066q-3.42187-.00585-3.42578-3.90625a.867.867,0,0,1,.97461-.97656l3.90234.00488q0-.977-1.4414-.97168h-2.45118a.89583.89583,0,0,1-.98437-.98632.87447.87447,0,0,1,.98437-.97168h2.43164Q142.05664,310.65723,142.06152,314.56934Z" transform="translate(0.06557 -0.07767)" style="fill:#fff"/><path d="M14.40527,75.6626l1.95411.00488a.97413.97413,0,1,1-.00489,1.94824l-1.94433.00489A1.95069,1.95069,0,0,0,14.415,81.522h1.93945a.97414.97414,0,0,1,.00977,1.94824H14.415q-3.89794,0-3.90283-3.90625Q10.51221,75.658,14.40527,75.6626Z" transform="translate(0.06557 -0.07767)" style="fill:#fff"/><path d="M19.27783,75.65283a.87911.87911,0,0,1,.98877.957l-.00976,4.90235h3.874a.8736.8736,0,0,1,.98437.98633.864.864,0,0,1-.96484.97167H19.27783a.8521.8521,0,0,1-.97461-.94726V76.63916A.88.88,0,0,1,19.27783,75.65283Z" transform="translate(0.06557 -0.07767)" style="fill:#fff"/><path d="M29.98779,75.6626a3.97955,3.97955,0,0,1,1.91748.50537,3.63679,3.63679,0,0,1,1.46192,1.44531,3.92,3.92,0,0,1,.01416,3.90625A3.62171,3.62171,0,0,1,31.937,82.96484a3.92688,3.92688,0,0,1-3.88867,0A3.62478,3.62478,0,0,1,26.604,81.51953a3.94235,3.94235,0,0,1,.00733-3.90625,3.585,3.585,0,0,1,1.4541-1.44531A3.98941,3.98941,0,0,1,29.98779,75.6626Zm-.95263,2.19482a1.8048,1.8048,0,0,0-.72852.72266,1.967,1.967,0,0,0-.00488,1.95556,1.833,1.833,0,0,0,.72363.72266,1.95542,1.95542,0,0,0,1.94434,0,1.833,1.833,0,0,0,.72363-.72266,1.96376,1.96376,0,0,0-.00488-1.95556,1.79588,1.79588,0,0,0-.731-.72266,1.96273,1.96273,0,0,0-1.92236,0Z" transform="translate(0.06557 -0.07767)" style="fill:#fff"/><path d="M38.76318,75.6626l1.95411.00488a.97413.97413,0,1,1-.00489,1.94824l-1.94433.00489A1.95069,1.95069,0,0,0,38.773,81.522H40.7124a.97414.97414,0,0,1,.00977,1.94824H38.773q-3.89794,0-3.90283-3.90625Q34.87012,75.658,38.76318,75.6626Z" transform="translate(0.06557 -0.07767)" style="fill:#fff"/><path d="M44.61963,76.63428l-.00488,5.85937a.872.872,0,0,1-.979.97656.8579.8579,0,0,1-.96972-.97167V76.63916a.97683.97683,0,1,1,1.95361-.00488Zm4.627-.74463a.94214.94214,0,0,1,.24072.73974,1.29828,1.29828,0,0,1-.51611.97168l-1.78369,1.958,1.78857,1.94336a1.25113,1.25113,0,0,1,.50635.99121.89705.89705,0,0,1-.24072.73975,1.0116,1.0116,0,0,1-.73828.23681.99425.99425,0,0,1-.75293-.25146q-.25122-.25635-1.20361-1.40625-.95289-1.1499-1.19874-1.44043a1.26346,1.26346,0,0,1-.26074-.80322,1.23972,1.23972,0,0,1,.25586-.78614q.25122-.31273,1.2207-1.48681.96974-1.17408,1.21583-1.41358a1.22861,1.22861,0,0,1,1.46679.00733Z" transform="translate(0.06557 -0.07767)" style="fill:#fff"/><g style="isolation:isolate"><polygon points="19.197 12.292 18.058 11.672 18.026 11.555 19.166 12.175 19.197 12.292" style="fill:gray"/><g style="isolation:isolate"><g style="clip-path:url(#clip-path-4)"><g style="isolation:isolate"><path d="M19.1,12.25273l-1.13966-.62a.412.412,0,0,0-.14139-.11519l1.13967.62a.41205.41205,0,0,1,.14138.11518" transform="translate(0.06557 -0.07767)" style="fill:#858585"/></g></g></g><g style="isolation:isolate"><g style="clip-path:url(#clip-path-5)"><g style="isolation:isolate"><path d="M18.68849,12.61333l-1.13966-.62a.98791.98791,0,0,0,.27892-.07448l1.13966.62a.98791.98791,0,0,1-.27892.07448" transform="translate(0.06557 -0.07767)" style="fill:#a8a8a8"/><path d="M18.96741,12.53885l-1.13966-.62a.44314.44314,0,0,0,.063-.03579l1.13967.62a.44189.44189,0,0,1-.063.03579" transform="translate(0.06557 -0.07767)" style="fill:#a3a3a3"/><path d="M19.03044,12.50306l-1.13967-.62a.32354.32354,0,0,0,.03246-.02547l1.13966.62a.32453.32453,0,0,1-.03245.02547" transform="translate(0.06557 -0.07767)" style="fill:#9e9e9e"/><path d="M19.06289,12.47759l-1.13966-.62.02181-.02192,1.13966.62-.02181.02192" transform="translate(0.06557 -0.07767)" style="fill:#999"/><path d="M19.0847,12.45567l-1.13966-.62.01626-.02059,1.13966.62-.01626.02058" transform="translate(0.06557 -0.07767)" style="fill:#949494"/><path d="M19.101,12.43509l-1.13966-.62.01343-.02178,1.13967.62-.01344.02178" transform="translate(0.06557 -0.07767)" style="fill:#8f8f8f"/><path d="M19.1144,12.41331l-1.13967-.62.01178-.02619,1.13966.62-.01177.02619" transform="translate(0.06557 -0.07767)" style="fill:#8a8a8a"/><path d="M19.12617,12.38712l-1.13966-.62.00563-.01784,1.13967.62-.00564.01785" transform="translate(0.06557 -0.07767)" style="fill:#858585"/></g></g></g><g style="isolation:isolate"><g style="clip-path:url(#clip-path-6)"><g style="isolation:isolate"><path d="M17.68988,12.59785l-1.13966-.62a4.34374,4.34374,0,0,0,.99861.01548l1.13966.62a4.34259,4.34259,0,0,1-.99861-.01548" transform="translate(0.06557 -0.07767)" style="fill:#a8a8a8"/></g></g></g><g style="isolation:isolate"><g style="clip-path:url(#clip-path-7)"><g style="isolation:isolate"><path d="M11.1233,12.4662l-1.13967-.62A26.245,26.245,0,0,1,14.35936,10.83a22.48575,22.48575,0,0,1,2.36956-.20828,3.79293,3.79293,0,0,1,1.07008.0888l1.13966.62a3.79322,3.79322,0,0,0-1.07007-.08881,22.48308,22.48308,0,0,0-2.36957.20829A26.24489,26.24489,0,0,0,11.1233,12.4662" transform="translate(0.06557 -0.07767)" style="fill:#a8a8a8"/><path d="M18.93866,11.33045l-1.13966-.62a1.72593,1.72593,0,0,1,.32879.11888l1.13966.62a1.72593,1.72593,0,0,0-.32879-.11888" transform="translate(0.06557 -0.07767)" style="fill:#a3a3a3"/><path d="M19.26745,11.44933l-1.13966-.62q.02512.01235.04909.02538l1.13966.62q-.024-.013-.04909-.02537" transform="translate(0.06557 -0.07767)" style="fill:#9e9e9e"/></g></g></g><g style="isolation:isolate"><g style="clip-path:url(#clip-path-8)"><g style="isolation:isolate"><path d="M9.40434,15.249l-1.13966-.62q.12231-.0875.24466-.17217l1.13966.62q-.12235.08466-.24466.17216" transform="translate(0.06557 -0.07767)" style="fill:#9e9e9e"/><path d="M9.649,15.07685l-1.13966-.62a16.29283,16.29283,0,0,1,2.31687-1.34735l1.13966.62A16.29243,16.29243,0,0,0,9.649,15.07685" transform="translate(0.06557 -0.07767)" style="fill:#a3a3a3"/><path d="M11.96587,13.7295l-1.13966-.62a12.0619,12.0619,0,0,1,3.468-1.06308,10.22845,10.22845,0,0,1,2.25605-.06856l1.13966.62a10.22969,10.22969,0,0,0-2.256.06856,12.06193,12.06193,0,0,0-3.468,1.06309" transform="translate(0.06557 -0.07767)" style="fill:#a8a8a8"/></g></g></g><polygon points="10.595 13.319 9.455 12.699 9.416 12.324 10.555 12.944 10.595 13.319" style="fill:gray"/><g style="isolation:isolate"><g style="clip-path:url(#clip-path-9)"><g style="isolation:isolate"><path d="M8.06586,15.83473l-1.13966-.62a.55781.55781,0,0,0,.2077.00472,1.42833,1.42833,0,0,0,.40336-.132l1.13966.62a1.428,1.428,0,0,1-.40336.132.55765.55765,0,0,1-.2077-.00471" transform="translate(0.06557 -0.07767)" style="fill:#a8a8a8"/><path d="M8.67692,15.70744l-1.13966-.62a3.68789,3.68789,0,0,0,.51734-.30626l1.13967.62a3.68636,3.68636,0,0,1-.51735.30626" transform="translate(0.06557 -0.07767)" style="fill:#a3a3a3"/><path d="M9.19427,15.40118l-1.13967-.62q.09984-.06909.21008-.15217l1.13966.62q-.11032.08329-.21007.15217" transform="translate(0.06557 -0.07767)" style="fill:#9e9e9e"/></g></g></g><g style="isolation:isolate"><g style="clip-path:url(#clip-path-10)"><g style="isolation:isolate"><path d="M7.99059,15.80457l-1.13966-.62.01184.00613,1.13967.62-.01185-.00613" transform="translate(0.06557 -0.07767)" style="fill:#9e9e9e"/><path d="M8.00244,15.8107l-1.13967-.62a.38562.38562,0,0,0,.06343.024l1.13966.62a.38645.38645,0,0,1-.06342-.024" transform="translate(0.06557 -0.07767)" style="fill:#a3a3a3"/></g></g></g><g style="isolation:isolate"><g style="clip-path:url(#clip-path-11)"><g style="isolation:isolate"><path d="M10.4896,13.022l-1.13966-.62a9.16836,9.16836,0,0,1,.59694-4.13529l1.13966.62A9.16834,9.16834,0,0,0,10.4896,13.022" transform="translate(0.06557 -0.07767)" style="fill:#858585"/><path d="M11.08654,8.88673l-1.13966-.62q.07743-.2106.16431-.42316l1.13966.62q-.08686.21257-.16431.42317" transform="translate(0.06557 -0.07767)" style="fill:#8a8a8a"/></g></g></g><g style="isolation:isolate"><g style="clip-path:url(#clip-path-12)"><g style="isolation:isolate"><path d="M7.6375,16.46491l-1.13967-.62a1.06931,1.06931,0,0,1-.48459-.62289l1.13966.62a1.06933,1.06933,0,0,0,.4846.62288" transform="translate(0.06557 -0.07767)" style="fill:#858585"/></g></g></g><g style="isolation:isolate"><g style="clip-path:url(#clip-path-13)"><g style="isolation:isolate"><path d="M11.25085,8.46356l-1.13966-.62.01293-.03425,1.13966.62-.01293.03424" transform="translate(0.06557 -0.07767)" style="fill:#8a8a8a"/><path d="M11.26378,8.42932l-1.13966-.62c.069-.18746.12105-.43344-.40407-.7191l1.13966.62c.52513.28566.47311.53163.40407.7191" transform="translate(0.06557 -0.07767)" style="fill:#858585"/></g></g></g><g style="isolation:isolate"><g style="clip-path:url(#clip-path-14)"><g style="isolation:isolate"><path d="M7.1529,15.842l-1.13966-.62a8.26007,8.26007,0,0,1,.17451-5.566l1.13967.62a8.26,8.26,0,0,0-.17452,5.566" transform="translate(0.06557 -0.07767)" style="fill:#858585"/><path d="M7.32742,10.276l-1.13967-.62a11.88959,11.88959,0,0,1,.69377-1.53046l1.13966.62A11.888,11.888,0,0,0,7.32742,10.276" transform="translate(0.06557 -0.07767)" style="fill:#8a8a8a"/><path d="M8.02118,8.74556l-1.13966-.62q.22245-.41345.48383-.8296.03795-.05895.07723-.11494l1.13966.62Q8.543,7.857,8.505,7.916q-.26136.41613-.48383.82961" transform="translate(0.06557 -0.07767)" style="fill:#8f8f8f"/><path d="M8.58224,7.801l-1.13966-.62a3.125,3.125,0,0,1,.2156-.27441l1.13966.62a3.12665,3.12665,0,0,0-.2156.27442" transform="translate(0.06557 -0.07767)" style="fill:#949494"/><path d="M8.79784,7.5266l-1.13966-.62a2.67465,2.67465,0,0,1,.21512-.21783l1.13966.62a2.6745,2.6745,0,0,0-.21512.21782" transform="translate(0.06557 -0.07767)" style="fill:#999"/><path d="M9.013,7.30878l-1.13966-.62A2.31507,2.31507,0,0,1,8.1051,6.505l1.13966.62a2.31633,2.31633,0,0,0-.2318.18383" transform="translate(0.06557 -0.07767)" style="fill:#9e9e9e"/><path d="M9.24476,7.125,8.1051,6.505a2.01275,2.01275,0,0,1,.2863-.16573l1.13967.62a2.01477,2.01477,0,0,0-.28631.16573" transform="translate(0.06557 -0.07767)" style="fill:#a3a3a3"/><path d="M9.53107,6.95922l-1.13967-.62a1.74954,1.74954,0,0,1,.504-.15212,1.71475,1.71475,0,0,1,.67342.04089l1.13966.62A1.71511,1.71511,0,0,0,10.035,6.8071a1.75,1.75,0,0,0-.50395.15212" transform="translate(0.06557 -0.07767)" style="fill:#a8a8a8"/><path d="M10.70844,6.848l-1.13966-.62a1.97494,1.97494,0,0,1,.281.09646l1.13966.62a1.97619,1.97619,0,0,0-.281-.09646" transform="translate(0.06557 -0.07767)" style="fill:#a3a3a3"/></g></g></g><g style="isolation:isolate"><g style="clip-path:url(#clip-path-15)"><g style="isolation:isolate"><path d="M10.9894,6.94445l-1.13966-.62c.03583.01628.07227.03339.109.05143l1.13966.62c-.03671-.018-.07315-.03514-.109-.05143" transform="translate(0.06557 -0.07767)" style="fill:#a3a3a3"/><path d="M11.09839,6.99588l-1.13966-.62c.03808.01871.07646.03843.11476.05926l1.13967.62c-.0383-.02084-.07668-.04055-.11477-.05927" transform="translate(0.06557 -0.07767)" style="fill:#9e9e9e"/></g></g></g><path d="M19.64549,11.75253a.86084.86084,0,0,1,.12681.70824,1.18724,1.18724,0,0,1-1.114.8753,4.86064,4.86064,0,0,1-1.10595-.01012,9.60279,9.60279,0,0,0-2.12086.06436,12.99827,12.99827,0,0,0-5.70794,2.44482,3.40439,3.40439,0,0,1-1.45085.72252,1.16331,1.16331,0,0,1-.44043-.01589A.99.99,0,0,1,7.1529,15.842C6.32472,13.33076,6.77812,10.66531,8.505,7.916a2.2478,2.2478,0,0,1,1.53-1.10885,1.77512,1.77512,0,0,1,.95438.13735c.55211.25087,1.248.69762.8697,1.72751a8.89131,8.89131,0,0,0-.7358,3.79424A26.24489,26.24489,0,0,1,15.499,11.44993a22.48308,22.48308,0,0,1,2.36957-.20829C18.7816,11.20841,19.37389,11.38445,19.64549,11.75253Zm-.957.8608c.25983-.03652.40983-.11815.44332-.24406L19.1,12.25273c-.1118-.15716-.512-.30837-1.29682-.2845a22.37715,22.37715,0,0,0-2.298.20484,25.86161,25.86161,0,0,0-4.62359,1.105l-.35259.1187L10.4896,13.022a9.422,9.422,0,0,1,.76125-4.55846c.08048-.21011.18513-.50141-.575-.844a1.22073,1.22073,0,0,0-.64049-.0915,1.46383,1.46383,0,0,0-1.00243.74594c-1.60642,2.55957-2.01125,4.93293-1.25474,7.23818.08764.247.20766.29927.2877.3226a.55765.55765,0,0,0,.2077.00471A2.67456,2.67456,0,0,0,9.40434,15.249a13.70027,13.70027,0,0,1,6.02949-2.5826,10.22969,10.22969,0,0,1,2.256-.06856,4.34259,4.34259,0,0,0,.99861.01548" transform="translate(0.06557 -0.07767)" style="fill:#dfdfdf"/></g><circle cx="12.06557" cy="11.92233" r="7.5" style="fill:none;stroke:#fff;stroke-miterlimit:10;stroke-width:0.75px"/><g style="isolation:isolate"><polygon points="145.198 12.292 144.058 11.672 144.026 11.556 145.166 12.176 145.198 12.292" style="fill:gray"/><g style="isolation:isolate"><g style="clip-path:url(#clip-path-16)"><g style="isolation:isolate"><path d="M145.10048,12.25329l-1.13966-.62a.4121.4121,0,0,0-.14139-.11518l1.13966.62a.412.412,0,0,1,.14139.11518" transform="translate(0.06557 -0.07767)" style="fill:#858585"/></g></g></g><g style="isolation:isolate"><g style="clip-path:url(#clip-path-17)"><g style="isolation:isolate"><path d="M144.695,12.61305l-1.13966-.62a.98.98,0,0,0,.27634-.07361l1.13967.62a.98088.98088,0,0,1-.27635.07361" transform="translate(0.06557 -0.07767)" style="fill:#a8a8a8"/><path d="M144.97134,12.53944l-1.13967-.62a.432.432,0,0,0,.06158-.03493l1.13966.62a.43242.43242,0,0,1-.06157.03494" transform="translate(0.06557 -0.07767)" style="fill:#a3a3a3"/><path d="M145.03291,12.5045l-1.13966-.62a.31511.31511,0,0,0,.03159-.02479l1.13966.62a.31249.31249,0,0,1-.03159.02478" transform="translate(0.06557 -0.07767)" style="fill:#9e9e9e"/><path d="M145.0645,12.47972l-1.13966-.62.021-.02109,1.13966.62-.021.0211" transform="translate(0.06557 -0.07767)" style="fill:#999"/><path d="M145.0855,12.45862l-1.13966-.62.01577-.02,1.13966.62-.01577.01994" transform="translate(0.06557 -0.07767)" style="fill:#949494"/><path d="M145.10127,12.43868l-1.13966-.62.01292-.02095,1.13966.62-.01292.02095" transform="translate(0.06557 -0.07767)" style="fill:#8f8f8f"/><path d="M145.11419,12.41773l-1.13966-.62.01139-.02539,1.13967.62-.0114.0254" transform="translate(0.06557 -0.07767)" style="fill:#8a8a8a"/><path d="M145.12559,12.39233l-1.13967-.62.00672-.0225,1.13966.62-.00671.0225" transform="translate(0.06557 -0.07767)" style="fill:#858585"/></g></g></g><g style="isolation:isolate"><g style="clip-path:url(#clip-path-18)"><g style="isolation:isolate"><path d="M143.6904,12.59841l-1.13967-.62a4.41627,4.41627,0,0,0,1.0046.01464l1.13966.62a4.41618,4.41618,0,0,1-1.00459-.01464" transform="translate(0.06557 -0.07767)" style="fill:#a8a8a8"/></g></g></g><g style="isolation:isolate"><g style="clip-path:url(#clip-path-19)"><g style="isolation:isolate"><path d="M137.12379,12.46676l-1.13967-.62a26.24527,26.24527,0,0,1,4.37573-1.01628,22.48575,22.48575,0,0,1,2.36956-.20828,3.8178,3.8178,0,0,1,1.07567.08913l1.13966.62a3.81772,3.81772,0,0,0-1.07566-.08914,22.48331,22.48331,0,0,0-2.36957.20829,26.24412,26.24412,0,0,0-4.37572,1.01627" transform="translate(0.06557 -0.07767)" style="fill:#a8a8a8"/><path d="M144.94474,11.33134l-1.13966-.62a1.71625,1.71625,0,0,1,.3267.118l1.13966.62a1.71557,1.71557,0,0,0-.3267-.118" transform="translate(0.06557 -0.07767)" style="fill:#a3a3a3"/><path d="M145.27144,11.44936l-1.13966-.62q.02477.01216.04838.025l1.13967.62q-.02363-.01286-.04839-.025" transform="translate(0.06557 -0.07767)" style="fill:#9e9e9e"/></g></g></g><g style="isolation:isolate"><g style="clip-path:url(#clip-path-20)"><g style="isolation:isolate"><path d="M135.40486,15.24957l-1.13967-.62q.12237-.08753.24477-.17224l1.13967.62q-.12242.08471-.24477.17224" transform="translate(0.06557 -0.07767)" style="fill:#9e9e9e"/><path d="M135.64963,15.07733l-1.13967-.62a16.29137,16.29137,0,0,1,2.31674-1.34727l1.13967.62a16.29186,16.29186,0,0,0-2.31674,1.34728" transform="translate(0.06557 -0.07767)" style="fill:#a3a3a3"/><path d="M137.96637,13.73005l-1.13967-.62a12.06181,12.06181,0,0,1,3.468-1.06308,10.22923,10.22923,0,0,1,2.25607-.06857l1.13967.62a10.22991,10.22991,0,0,0-2.25608.06856,12.06215,12.06215,0,0,0-3.468,1.06308" transform="translate(0.06557 -0.07767)" style="fill:#a8a8a8"/></g></g></g><polygon points="136.603 13.319 135.463 12.699 135.416 12.325 136.556 12.945 136.603 13.319" style="fill:gray"/><g style="isolation:isolate"><g style="clip-path:url(#clip-path-21)"><g style="isolation:isolate"><path d="M134.06636,15.83529l-1.13967-.62a.55773.55773,0,0,0,.20768.00472,1.42826,1.42826,0,0,0,.4034-.132l1.13966.62a1.42825,1.42825,0,0,1-.4034.132.55767.55767,0,0,1-.20767-.00472" transform="translate(0.06557 -0.07767)" style="fill:#a8a8a8"/><path d="M134.67743,15.708l-1.13966-.62a3.68765,3.68765,0,0,0,.5174-.30629l1.13966.62a3.68667,3.68667,0,0,1-.5174.30629" transform="translate(0.06557 -0.07767)" style="fill:#a3a3a3"/><path d="M135.19483,15.4017l-1.13966-.62q.09981-.06907.21-.15214l1.13967.62q-.11031.08326-.21.15213" transform="translate(0.06557 -0.07767)" style="fill:#9e9e9e"/></g></g></g><g style="isolation:isolate"><g style="clip-path:url(#clip-path-22)"><g style="isolation:isolate"><polyline points="134.058 15.728 132.918 15.108 132.93 15.114 134.069 15.734 134.058 15.728" style="fill:#9e9e9e"/><path d="M134.00378,15.8116l-1.13966-.62a.38058.38058,0,0,0,.06257.02368l1.13967.62a.38077.38077,0,0,1-.06258-.02369" transform="translate(0.06557 -0.07767)" style="fill:#a3a3a3"/></g></g></g><g style="isolation:isolate"><g style="clip-path:url(#clip-path-23)"><g style="isolation:isolate"><path d="M136.4901,13.02258l-1.13967-.62a9.16836,9.16836,0,0,1,.59694-4.13529l1.13966.62a9.16819,9.16819,0,0,0-.59693,4.13529" transform="translate(0.06557 -0.07767)" style="fill:#858585"/><path d="M137.087,8.88729l-1.13966-.62q.07744-.2106.16431-.42316l1.13967.62q-.08688.21256-.16432.42317" transform="translate(0.06557 -0.07767)" style="fill:#8a8a8a"/></g></g></g><g style="isolation:isolate"><g style="clip-path:url(#clip-path-24)"><g style="isolation:isolate"><path d="M133.638,16.46547l-1.13966-.62a1.06924,1.06924,0,0,1-.48458-.62288l1.13966.62a1.06924,1.06924,0,0,0,.48458.62288" transform="translate(0.06557 -0.07767)" style="fill:#858585"/></g></g></g><g style="isolation:isolate"><g style="clip-path:url(#clip-path-25)"><g style="isolation:isolate"><path d="M137.25135,8.46412l-1.13967-.62.013-.03433,1.13966.62-.01295.03432" transform="translate(0.06557 -0.07767)" style="fill:#8a8a8a"/><path d="M137.2643,8.4298l-1.13966-.62c.069-.18746.12095-.4334-.40409-.719l1.13966.62c.525.28562.47313.53156.40409.719" transform="translate(0.06557 -0.07767)" style="fill:#858585"/></g></g></g><g style="isolation:isolate"><g style="clip-path:url(#clip-path-26)"><g style="isolation:isolate"><path d="M136.98989,6.945l-1.13966-.62c.04149.0185.08369.03809.1261.05892l1.13966.62c-.04241-.02083-.0846-.04042-.1261-.05892" transform="translate(0.06557 -0.07767)" style="fill:#a3a3a3"/><path d="M137.116,7.00393l-1.13966-.62c.03636.01786.07288.03663.10925.05642l1.13966.62c-.03637-.01978-.07289-.03856-.10925-.05642" transform="translate(0.06557 -0.07767)" style="fill:#9e9e9e"/></g></g></g><g style="isolation:isolate"><g style="clip-path:url(#clip-path-27)"><g style="isolation:isolate"><path d="M134.50551,7.91651l-1.13967-.62q.03429-.05265.06957-.10295l1.13966.62q-.03527.0503-.06956.10294" transform="translate(0.06557 -0.07767)" style="fill:#8f8f8f"/><path d="M134.57507,7.81357l-1.13966-.62a3.21335,3.21335,0,0,1,.22119-.28157l1.13967.62a3.21,3.21,0,0,0-.2212.28157" transform="translate(0.06557 -0.07767)" style="fill:#949494"/><path d="M134.79627,7.532l-1.13967-.62a2.71913,2.71913,0,0,1,.21877-.22154l1.13966.62a2.72081,2.72081,0,0,0-.21876.22155" transform="translate(0.06557 -0.07767)" style="fill:#999"/><path d="M135.015,7.31045l-1.13966-.62a2.3356,2.3356,0,0,1,.23384-.18549l1.13967.62a2.33588,2.33588,0,0,0-.23385.18548" transform="translate(0.06557 -0.07767)" style="fill:#9e9e9e"/><path d="M135.24888,7.125l-1.13967-.62a2.01835,2.01835,0,0,1,.28687-.16609l1.13967.62a2.01628,2.01628,0,0,0-.28687.16609" transform="translate(0.06557 -0.07767)" style="fill:#a3a3a3"/><path d="M135.53575,6.95888l-1.13967-.62a1.74236,1.74236,0,0,1,.50166-.15148,1.70749,1.70749,0,0,1,.67075.04087l1.13966.62a1.70767,1.70767,0,0,0-.67075-.04086,1.74158,1.74158,0,0,0-.50165.15148" transform="translate(0.06557 -0.07767)" style="fill:#a8a8a8"/><path d="M136.70815,6.84826l-1.13966-.62a1.9791,1.9791,0,0,1,.28174.09675l1.13966.62a1.9816,1.9816,0,0,0-.28174-.09675" transform="translate(0.06557 -0.07767)" style="fill:#a3a3a3"/></g></g></g><path d="M145.646,11.75309a.832.832,0,0,1,.12682.70824,1.18727,1.18727,0,0,1-1.114.8753,4.86053,4.86053,0,0,1-1.10594-.01012,9.60332,9.60332,0,0,0-2.12086.06435,12.99822,12.99822,0,0,0-5.70794,2.44483,3.40455,3.40455,0,0,1-1.45087.72252,1.16331,1.16331,0,0,1-.44043-.01589.98991.98991,0,0,1-.67941-.69973c-.8282-2.51127-.37476-5.17673,1.35212-7.92608A2.26268,2.26268,0,0,1,136.0374,6.8074a1.771,1.771,0,0,1,.95249.13761c.56012.24974,1.248.69762.8697,1.72751a9.01092,9.01092,0,0,0-.7358,3.79424,26.24412,26.24412,0,0,1,4.37572-1.01627,22.48331,22.48331,0,0,1,2.36957-.20829C144.78209,11.209,145.38239,11.38388,145.646,11.75309Zm-.951.86c.26-.03654.408-.11789.43731-.24322l-.03182-.11654c-.11182-.15715-.512-.30837-1.29682-.2845a22.35508,22.35508,0,0,0-2.29623.20459,25.94,25.94,0,0,0-4.6254,1.10529l-.34458.11757-.04735-.37366a9.42187,9.42187,0,0,1,.76125-4.55846c.08049-.21011.18512-.50141-.575-.844a1.22073,1.22073,0,0,0-.64049-.0915,1.43843,1.43843,0,0,0-.99442.74481c-1.60642,2.55957-2.01925,4.93406-1.25473,7.23819.07962.24811.19965.30039.27969.32372a.55767.55767,0,0,0,.20767.00472,2.67489,2.67489,0,0,0,1.13083-.59044,13.7,13.7,0,0,1,6.02946-2.5826,10.22991,10.22991,0,0,1,2.25608-.06856,4.41618,4.41618,0,0,0,1.00459.01464" transform="translate(0.06557 -0.07767)" style="fill:#dfdfdf"/><g style="isolation:isolate"><g style="clip-path:url(#clip-path-28)"><g style="isolation:isolate"><path d="M133.15339,15.84259l-1.13966-.62a8.26,8.26,0,0,1,.17451-5.566l1.13967.62a8.25992,8.25992,0,0,0-.17452,5.566" transform="translate(0.06557 -0.07767)" style="fill:#858585"/><path d="M133.32791,10.27659l-1.13967-.62a11.89159,11.89159,0,0,1,.69379-1.5305l1.13966.62a11.89013,11.89013,0,0,0-.69378,1.5305" transform="translate(0.06557 -0.07767)" style="fill:#8a8a8a"/><path d="M134.02169,8.74609l-1.13966-.62q.22245-.41343.48381-.82957l1.13967.62q-.26136.41612-.48382.82958" transform="translate(0.06557 -0.07767)" style="fill:#8f8f8f"/></g></g></g></g><circle cx="138.06672" cy="11.92233" r="7.5" style="fill:none;stroke:#fff;stroke-miterlimit:10;stroke-width:0.75px"/><path d="M11.98682,135.6626h3.42041a2.51493,2.51493,0,0,1,2.42138,2.43164,3.617,3.617,0,0,1-.36767,1.70654,1.23547,1.23547,0,0,1-1.1084.72022l1.20361,1.2207a1.025,1.025,0,0,1,.28711.75684.86513.86513,0,0,1-.97412.97167,1.331,1.331,0,0,1-.97949-.47851l-1.94922-2.42188a1.53552,1.53552,0,0,1-.49707-1.00586.86607.86607,0,0,1,.98437-.98144l.6919-.00488q.76977.00951.76025-.47364,0-.48339-.76513-.48339H12.96582v4.873a.86173.86173,0,0,1-.979.97656.85257.85257,0,0,1-.97461-.96679v-5.874A.86566.86566,0,0,1,11.98682,135.6626Z" transform="translate(0.06557 -0.07767)" style="fill:#fff"/><path d="M19.78271,135.65283l4.93067.00977a.8343.8343,0,0,1,.916.94726.88966.88966,0,0,1-.98388,1.01075H20.76172v3.8916h3.874a.87361.87361,0,0,1,.98438.98633.864.864,0,0,1-.96485.97167H19.78271a.85209.85209,0,0,1-.9746-.94726v-5.88379A.87994.87994,0,0,1,19.78271,135.65283Zm1.44678,3.93555a.87825.87825,0,0,1,.96485-.99121h1.959a.979.979,0,1,1,.00488,1.958h-1.959A.85583.85583,0,0,1,21.22949,139.58838Z" transform="translate(0.06557 -0.07767)" style="fill:#fff"/><path d="M33.43555,136.63916a.85256.85256,0,0,1-.94043.98145l-2.96729-.00489q-.98437.00952-.99365.498.01465.46362.99853.459h.96q2.93847.00952,2.95263,2.47559,0,2.39721-2.94775,2.41211H27.56934a.9595.9595,0,1,1-.00977-1.91895l2.938-.01464q.98438-.00513.98437-.50293,0-.49806-.99414-.49317h-.96q-2.92823-.00513-2.92822-2.417-.01977-2.44629,2.92822-2.45117h2.9336A.86988.86988,0,0,1,33.43555,136.63916Z" transform="translate(0.06557 -0.07767)" style="fill:#fff"/><path d="M35.36035,135.65283l4.93067.00977a.8343.8343,0,0,1,.916.94726.88966.88966,0,0,1-.98389,1.01075H36.33936v3.8916h3.874a.8736.8736,0,0,1,.98437.98633.864.864,0,0,1-.96484.97167H35.36035a.8521.8521,0,0,1-.97461-.94726v-5.88379A.88.88,0,0,1,35.36035,135.65283Zm1.44678,3.93555a.87824.87824,0,0,1,.96484-.99121h1.959a.979.979,0,1,1,.00488,1.958h-1.959A.85583.85583,0,0,1,36.80713,139.58838Z" transform="translate(0.06557 -0.07767)" style="fill:#fff"/><path d="M43.15186,135.65283l4.93066.00977a.83431.83431,0,0,1,.916.94726.88966.88966,0,0,1-.98389,1.01075h-1.457l.00488,4.87793a.87289.87289,0,0,1-.97949.97167.84975.84975,0,0,1-.97461-.94726l.00488-4.90234H43.15186a.86441.86441,0,0,1-.97461-.98145A.87994.87994,0,0,1,43.15186,135.65283Z" transform="translate(0.06557 -0.07767)" style="fill:#fff"/><path d="M17.84521,206.63965q0,.97706-.94042.98144l-2.96729-.00488q-.98437.01026-.99365.49805.01464.46436.99853.459h.96q2.93848.01026,2.95264,2.47559,0,2.39794-2.94775,2.41211H11.979a.9595.9595,0,1,1-.00976-1.91895l2.938-.01465q.98438-.0044.98437-.50293,0-.498-.99414-.49316h-.96q-2.92822-.00439-2.92822-2.417-.01978-2.44629,2.92822-2.45117h2.93359A.86987.86987,0,0,1,17.84521,206.63965Z" transform="translate(0.06557 -0.07767)" style="fill:#fff"/><path d="M19.77,205.65332l4.93066.00977a.8341.8341,0,0,1,.916.94726.88965.88965,0,0,1-.98389,1.01074h-1.457l.00488,4.87793a.87288.87288,0,0,1-.97949.97168.84957.84957,0,0,1-.97461-.94726l.00489-4.90235H19.77a.86441.86441,0,0,1-.97461-.98144A.87974.87974,0,0,1,19.77,205.65332Z" transform="translate(0.06557 -0.07767)" style="fill:#fff"/><path d="M27.56152,205.65332l4.93067.00977a.8341.8341,0,0,1,.916.94726.88965.88965,0,0,1-.98388,1.01074H28.54053v3.89161h3.874a.87341.87341,0,0,1,.98438.98632.864.864,0,0,1-.96485.97168H27.56152a.8519.8519,0,0,1-.97461-.94726v-5.88379A.87974.87974,0,0,1,27.56152,205.65332Zm1.44678,3.93555a.878.878,0,0,1,.96484-.99121h1.959a.979.979,0,1,1,.00488,1.958H29.978A.85621.85621,0,0,1,29.0083,209.58887Z" transform="translate(0.06557 -0.07767)" style="fill:#fff"/><path d="M35.35742,205.66309h3.42041a2.355,2.355,0,0,1,1.6836.72265,2.28856,2.28856,0,0,1,.73779,1.709,2.33965,2.33965,0,0,1-.728,1.72851,2.37844,2.37844,0,0,1-1.72754.71778l-.96.00976a.98394.98394,0,0,1,.01465-1.96777l.69189-.00488q.76978.01024.76026-.47364,0-.48339-.76514-.4834H36.33643v4.873a.86155.86155,0,0,1-.979.97656.853.853,0,0,1-.97461-.96679v-5.874A.86606.86606,0,0,1,35.35742,205.66309Z" transform="translate(0.06557 -0.07767)" style="fill:#fff"/><path d="M49.01514,206.63965q0,.97706-.94043.98144l-2.96729-.00488q-.98437.01026-.99365.49805.01465.46436.99853.459h.96q2.93847.01026,2.95263,2.47559,0,2.39794-2.94775,2.41211H43.14893a.9595.9595,0,1,1-.00977-1.91895l2.938-.01465q.98438-.0044.98437-.50293,0-.498-.99414-.49316h-.96q-2.92822-.00439-2.92822-2.417-.01977-2.44629,2.92822-2.45117H48.041A.86988.86988,0,0,1,49.01514,206.63965Z" transform="translate(0.06557 -0.07767)" style="fill:#fff"/><path d="M14.561,127.48389a.86441.86441,0,0,1,.9746-.98145h.502l-.00489-3.88672a.83876.83876,0,0,1-.95507-.97168.87752.87752,0,0,1,.96484-.97168h.979a.84727.84727,0,0,1,.96485.95215l-.00488,4.87793h.49218a.8898.8898,0,0,1,.98438,1.01074.83432.83432,0,0,1-.916.94727l-3.00635.00976A.87972.87972,0,0,1,14.561,127.48389Z" transform="translate(0.06557 -0.07767)" style="fill:#fff"/><path d="M50.41992,124.56885a.8547.8547,0,0,1-.97412.97168l-3.90332-.00489q.01026.98145,1.457.98633l2.45117-.00976a.87256.87256,0,0,1,.96924.98144.86214.86214,0,0,1-.97412.97656H47.01416q-3.4204-.00438-3.42529-3.90625a.86742.86742,0,0,1,.97461-.97656l3.90283.00489q0-.97705-1.44238-.97168H44.57324a.8954.8954,0,0,1-.98437-.98633.87489.87489,0,0,1,.98437-.97168h2.43115Q50.41529,120.65821,50.41992,124.56885Z" transform="translate(0.06557 -0.07767)" style="fill:#fff"/><path d="M9.85791,194.07617H9.84424l-.79.42774-.11914-.46973.99219-.53223h.52441v4.55274H9.85791Z" transform="translate(0.06557 -0.07767)" style="fill:#fff;stroke:#fff;stroke-miterlimit:10;stroke-width:0.25px"/><path d="M48.46729,196.89844a1.29988,1.29988,0,0,1,.90136-1.21875l-.00683-.02051a1.12756,1.12756,0,0,1-.71973-1.02246,1.27289,1.27289,0,0,1,1.4043-1.21192,1.17456,1.17456,0,0,1,1.32129,1.1211,1.15826,1.15826,0,0,1-.748,1.06445v.02051a1.26182,1.26182,0,0,1,.915,1.17676,1.39992,1.39992,0,0,1-1.54395,1.32422C49.04053,198.13184,48.46729,197.56445,48.46729,196.89844Zm2.44531-.02735c0-.55371-.38379-.81933-.999-.99511a.9887.9887,0,0,0-.81738.93847.84052.84052,0,0,0,.9082.86914A.82292.82292,0,0,0,50.9126,196.87109Zm-1.69043-2.27636c0,.45507.34179.70019.86621.83984a.89625.89625,0,0,0,.69238-.82617.707.707,0,0,0-.76953-.74219A.72275.72275,0,0,0,49.22217,194.59473Z" transform="translate(0.06557 -0.07767)" style="fill:#fff;stroke:#fff;stroke-miterlimit:10;stroke-width:0.25px"/><path d="M22.42432,159.0542v-1.23975H20.313v-.40625l2.02734-2.90625h.66309v2.8291h.63672v.4834h-.63672v1.23975Zm0-1.72315v-1.51953q0-.35742.0205-.71435h-.0205c-.14063.26611-.252.46191-.37793.67236l-1.11133,1.54785v.01367Z" transform="translate(0.06557 -0.07767)" style="fill:#fff;stroke:#fff;stroke-miterlimit:10;stroke-width:0.25px"/><path d="M13.92334,260.66309h3.41992a2.35419,2.35419,0,0,1,1.6836.72265,2.28373,2.28373,0,0,1,.73828,1.709,2.33642,2.33642,0,0,1-.72852,1.72851,2.377,2.377,0,0,1-1.72656.71778l-.96.00976a.98394.98394,0,0,1,.01465-1.96777l.6914-.00488q.77051.00878.75977-.47364,0-.48339-.76465-.4834H14.90283v4.87305a.86227.86227,0,0,1-.97949.97656.85239.85239,0,0,1-.97461-.96679v-5.874A.86606.86606,0,0,1,13.92334,260.66309Z" transform="translate(0.06557 -0.07767)" style="fill:#fff"/><path d="M21.72412,260.66309H25.144a2.514,2.514,0,0,1,2.42188,2.43164,3.61221,3.61221,0,0,1-.36719,1.706,1.23529,1.23529,0,0,1-1.10937.7207l1.2041,1.22071a1.02423,1.02423,0,0,1,.28711.75683.86469.86469,0,0,1-.97461.97168,1.33507,1.33507,0,0,1-.9795-.47851l-1.94824-2.42188a1.53227,1.53227,0,0,1-.49707-1.00586.86608.86608,0,0,1,.98438-.98144l.6914-.00488q.77052.00878.75977-.47364,0-.48339-.76465-.4834H22.70361v4.87305a.86227.86227,0,0,1-.97949.97656.85239.85239,0,0,1-.97461-.96679v-5.874A.86606.86606,0,0,1,21.72412,260.66309Z" transform="translate(0.06557 -0.07767)" style="fill:#fff"/><path d="M32.439,260.66309a3.99089,3.99089,0,0,1,1.917.50488,3.646,3.646,0,0,1,1.46191,1.44531,3.92166,3.92166,0,0,1,.01465,3.90625,3.61185,3.61185,0,0,1-1.44531,1.44531,3.92181,3.92181,0,0,1-3.8877,0,3.61185,3.61185,0,0,1-1.44531-1.44531,3.944,3.944,0,0,1,.00781-3.90625,3.59692,3.59692,0,0,1,1.4541-1.44531A3.99879,3.99879,0,0,1,32.439,260.66309Zm-.95312,2.19433a1.80794,1.80794,0,0,0-.72852.72266,1.9992,1.9992,0,0,0-.26269.98437,1.97516,1.97516,0,0,0,.25781.97168,1.82689,1.82689,0,0,0,.72363.72266,1.95542,1.95542,0,0,0,1.94434,0,1.82676,1.82676,0,0,0,.72363-.72266,1.96782,1.96782,0,0,0-.00488-1.95605,1.803,1.803,0,0,0-.73145-.72266,1.96513,1.96513,0,0,0-1.92187,0Z" transform="translate(0.06557 -0.07767)" style="fill:#fff"/><path d="M38.29541,260.66309h3.41113a2.35337,2.35337,0,0,1,1.707.73242,2.3003,2.3003,0,0,1,.72852,1.71191,1.92568,1.92568,0,0,1-.50684,1.44727,1.94955,1.94955,0,0,1,.50977,1.47265,2.37455,2.37455,0,0,1-.74121,1.70313,2.25558,2.25558,0,0,1-1.63965.74023H38.28564a.85278.85278,0,0,1-.96484-.97656v-5.85449A.86781.86781,0,0,1,38.29541,260.66309Zm.97949,1.958v3.89161h2.42188a.48831.48831,0,0,0,.00976-.97657l-.48242-.00488q-.98437,0-.97949-1.03027,0-.92286.97461-.91309l.4873.00488q.48633,0,.47168-.53711.01465-.4292-.47168-.43457Z" transform="translate(0.06557 -0.07767)" style="fill:#fff"/><path d="M46.0874,266.52246a.97208.97208,0,0,1,.47461.12695.92236.92236,0,0,1,.36328.3584.97227.97227,0,0,1,.00293.97266.91639.91639,0,0,1-.3584.3584.979.979,0,0,1-.48242.127.99264.99264,0,0,1-.48535-.127.88328.88328,0,0,1-.35742-.3584.98838.98838,0,0,1,.002-.97266.90271.90271,0,0,1,.36035-.3584A.98273.98273,0,0,1,46.0874,266.52246Z" transform="translate(0.06557 -0.07767)" style="fill:#fff"/><path d="M16.8418,330.66309a.99768.99768,0,0,1,.72558.249q.23438.23877,2.208,2.207,1.94825-1.95409,2.19238-2.20508a.96814.96814,0,0,1,.72559-.251.86513.86513,0,0,1,.97461.97168l.00488,5.85937a.98194.98194,0,1,1-1.96387,0V334.042q-.97851,1.01074-1.2207,1.25684a1.162,1.162,0,0,1-1.4414-.00684q-.252-.25488-1.22559-1.23047v3.43262a.87063.87063,0,0,1-.97461.97656.85732.85732,0,0,1-.97461-.97656v-5.85937A.85773.85773,0,0,1,16.8418,330.66309Z" transform="translate(0.06557 -0.07767)" style="fill:#fff"/><path d="M28.53613,330.66309a3.97994,3.97994,0,0,1,1.917.50488,3.63978,3.63978,0,0,1,1.46191,1.44531,3.92166,3.92166,0,0,1,.01465,3.90625,3.618,3.618,0,0,1-1.44531,1.44531,3.92181,3.92181,0,0,1-3.8877,0,3.618,3.618,0,0,1-1.44531-1.44531,3.944,3.944,0,0,1,.00781-3.90625,3.5909,3.5909,0,0,1,1.4541-1.44531A3.98784,3.98784,0,0,1,28.53613,330.66309Zm-.95312,2.19433a1.80788,1.80788,0,0,0-.72852.72266,1.9992,1.9992,0,0,0-.26269.98437,1.975,1.975,0,0,0,.25781.97168,1.833,1.833,0,0,0,.72363.72266,1.95542,1.95542,0,0,0,1.94434,0,1.833,1.833,0,0,0,.72363-.72266,1.96788,1.96788,0,0,0-.00488-1.95605,1.803,1.803,0,0,0-.73145-.72266,1.96513,1.96513,0,0,0-1.92187,0Z" transform="translate(0.06557 -0.07767)" style="fill:#fff"/><path d="M34.39258,330.66309h2.92383q3.90234.00439,3.90234,3.90625-.0044,3.89063-3.80078,3.90136H34.39258a.85769.85769,0,0,1-.97461-.97656v-5.85449A.86741.86741,0,0,1,34.39258,330.66309Zm.97949,1.958v3.89161h1.9541a1.94586,1.94586,0,0,0-.00488-3.89161Z" transform="translate(0.06557 -0.07767)" style="fill:#fff"/><path d="M43.16309,336.52246a.97208.97208,0,0,1,.47461.12695.916.916,0,0,1,.36328.3584.97049.97049,0,0,1,.00293.97168.91264.91264,0,0,1-.3584.35938.98958.98958,0,0,1-.48242.127,1.00338,1.00338,0,0,1-.48536-.127.87987.87987,0,0,1-.35742-.35938.98267.98267,0,0,1-.127-.48047.99791.99791,0,0,1,.12891-.49121.89645.89645,0,0,1,.36035-.3584A.98267.98267,0,0,1,43.16309,336.52246Z" transform="translate(0.06557 -0.07767)" style="fill:#fff"/><g id="Illustration_28" data-name="Illustration 28"><g style="clip-path:url(#clip-path-29)"><g style="clip-path:url(#clip-path-29)"><path d="M16.31029,247.40511a2.02547,2.02547,0,1,1-2.0241-2.1,2.06319,2.06319,0,0,1,2.0241,2.1" transform="translate(0.06557 -0.07767)" style="fill:#fff"/><ellipse cx="14.35176" cy="247.32744" rx="2.0241" ry="2.1" style="fill:none;stroke:#000;stroke-miterlimit:10;stroke-width:0.25771236417875343px"/></g><path d="M12.75635,248.1416v-1.00879h.15332v.18946c.07471-.14161.146-.21192.21435-.21192.08643,0,.14258.07031.167.21192h.00634c.06153-.14161.1333-.21192.21631-.21192a.13885.13885,0,0,1,.13086.06934.45415.45415,0,0,1,.041.22265v.73926h-.15332v-.73144a.35548.35548,0,0,0-.01172-.11231.04288.04288,0,0,0-.04346-.0293c-.05517,0-.11523.07325-.17969.22168v.65137H13.144v-.69824a.55354.55354,0,0,0-.01123-.13867.04542.04542,0,0,0-.04638-.03516c-.02442,0-.0542.02149-.08789.06445a.60492.60492,0,0,0-.08887.15821v.64941Z" transform="translate(0.06557 -0.07767)" style="fill:#fff"/><path d="M14.26953,248.1416v-.87207h-.34961v-.13672h.52442v1.00879Zm-.022-1.23828v-.22949h.21875v.22949Z" transform="translate(0.06557 -0.07767)" style="fill:#fff"/><path d="M15.021,248.1416v-1.00879h.1748v.18946a.36469.36469,0,0,1,.32764-.21192q.27319,0,.27344.34082v.69043h-.17432V247.501a.29906.29906,0,0,0-.03516-.167.1334.1334,0,0,0-.11719-.0498c-.0874,0-.17919.06543-.27441.19727v.66015Z" transform="translate(0.06557 -0.07767)" style="fill:#fff"/><g style="clip-path:url(#clip-path-29)"><path d="M12.9094,248.14184v-.64943a.61519.61519,0,0,1,.08906-.15855c.03391-.04252.06325-.06352.08805-.06352a.04491.04491,0,0,1,.046.03465.53774.53774,0,0,1,.01164.13913v.69772h.15332v-.65152q.0964-.22207.17964-.22208a.0434.0434,0,0,1,.04352.02993.3678.3678,0,0,1,.01113.11234v.73133h.15333v-.73868a.46572.46572,0,0,0-.04049-.22364.14148.14148,0,0,0-.13156-.0693q-.12372,0-.21557.2121h-.00658q-.03719-.21184-.16749-.2121-.10172,0-.21405.2121v-.18953h-.15332v1.00905Z" transform="translate(0.06557 -0.07767)" style="fill:none;stroke:#000;stroke-miterlimit:10;stroke-width:0.12885618208937671px"/><path d="M14.46654,246.67446h-.2186v.22943h.2186Zm-.02227,1.46738v-1.00905H13.92v.13755h.34967v.8715Z" transform="translate(0.06557 -0.07767)" style="fill:none;stroke:#000;stroke-miterlimit:10;stroke-width:0.12885618208937671px"/><path d="M15.19542,248.14184v-.65993q.14346-.19765.27426-.19792a.13282.13282,0,0,1,.1174.04987.30028.30028,0,0,1,.03542.16748v.6405h.17407v-.69037q0-.341-.27376-.34125a.36619.36619,0,0,0-.32739.2121v-.18953h-.17458v1.00905Z" transform="translate(0.06557 -0.07767)" style="fill:none;stroke:#000;stroke-miterlimit:10;stroke-width:0.12885618208937671px"/><path d="M47.68378,247.40511a2.02547,2.02547,0,1,1-2.02409-2.1,2.06318,2.06318,0,0,1,2.02409,2.1" transform="translate(0.06557 -0.07767)" style="fill:#fff"/><ellipse cx="45.72526" cy="247.32744" rx="2.0241" ry="2.1" style="fill:none;stroke:#000;stroke-miterlimit:10;stroke-width:0.25771236417875343px"/></g><path d="M44.13037,248.1416v-1.00879h.15332v.18946c.07471-.14161.146-.21192.21436-.21192.08642,0,.14258.07031.167.21192h.00635c.06152-.14161.1333-.21192.21631-.21192a.13884.13884,0,0,1,.13085.06934.45415.45415,0,0,1,.041.22265v.73926h-.15332v-.73144a.35548.35548,0,0,0-.01172-.11231.04288.04288,0,0,0-.04346-.0293c-.05517,0-.11523.07325-.17968.22168v.65137h-.15332v-.69824a.554.554,0,0,0-.01123-.13867.04543.04543,0,0,0-.04639-.03516c-.02441,0-.0542.02149-.08789.06445a.60492.60492,0,0,0-.08887.15821v.64941Z" transform="translate(0.06557 -0.07767)" style="fill:#fff"/><path d="M45.88037,248.01953a.48.48,0,0,1-.31641.13965.30679.30679,0,0,1-.21728-.0791.25937.25937,0,0,1-.08545-.19922.29543.29543,0,0,1,.13281-.25293.58224.58224,0,0,1,.35059-.0957h.10791v-.08692a.21049.21049,0,0,0-.04492-.15234.20622.20622,0,0,0-.14991-.04492.64979.64979,0,0,0-.31347.08886v-.15722a1.00875,1.00875,0,0,1,.34863-.06934.3571.3571,0,0,1,.25879.07617.36793.36793,0,0,1,.07568.2627v.42285a.283.283,0,0,0,.01856.124.07206.07206,0,0,0,.06982.03321.23614.23614,0,0,0,.05518-.00977l.01562.11035a.45754.45754,0,0,1-.13232.0293A.1731.1731,0,0,1,45.88037,248.01953Zm-.02783-.11816v-.25489h-.05225c-.23877,0-.3584.06739-.3584.20313a.15629.15629,0,0,0,.0459.11816.16592.16592,0,0,0,.12207.04493A.3813.3813,0,0,0,45.85254,247.90137Z" transform="translate(0.06557 -0.07767)" style="fill:#fff"/><path d="M46.31641,248.1416l.35791-.50976-.35645-.499h.21826l.26612.37305.24365-.37305h.17285l-.32715.49805.36426.51074h-.21777l-.27539-.38574-.27.38574Z" transform="translate(0.06557 -0.07767)" style="fill:#fff"/><g style="clip-path:url(#clip-path-29)"><path d="M44.28315,248.14184v-.64943a.61519.61519,0,0,1,.08906-.15855c.0339-.04252.06325-.06352.088-.06352a.04491.04491,0,0,1,.046.03465.53774.53774,0,0,1,.01164.13913v.69772h.15333v-.65152q.09639-.22207.17963-.22208a.04339.04339,0,0,1,.04352.02993.36738.36738,0,0,1,.01114.11234v.73133h.15332v-.73868a.46574.46574,0,0,0-.04048-.22364.1415.1415,0,0,0-.13157-.0693q-.12372,0-.21556.2121h-.00658q-.0372-.21184-.1675-.2121-.1017,0-.214.2121v-.18953h-.15333v1.00905Z" transform="translate(0.06557 -0.07767)" style="fill:none;stroke:#000;stroke-miterlimit:10;stroke-width:0.12885618208937671px"/><path d="M45.60994,248.01253a.16779.16779,0,0,1-.12246-.04462.15645.15645,0,0,1-.04554-.1176q0-.204.35877-.2037h.05212v.25462A.38343.38343,0,0,1,45.60994,248.01253Zm.44429.147a.45711.45711,0,0,0,.13258-.02992l-.01619-.10973a.26.26,0,0,1-.05466.00945.07381.07381,0,0,1-.07033-.03307.28333.28333,0,0,1-.01872-.1239v-.42315a.37117.37117,0,0,0-.0754-.263.359.359,0,0,0-.25858-.07612,1.00127,1.00127,0,0,0-.34865.06982v.1575a.64622.64622,0,0,1,.31373-.08925.20385.20385,0,0,1,.14928.04515.21135.21135,0,0,1,.04554.15278v.0861h-.10829a.58882.58882,0,0,0-.35067.09555.298.298,0,0,0-.13258.25305.26155.26155,0,0,0,.085.2.309.309,0,0,0,.21759.07875.48017.48017,0,0,0,.31627-.13965A.17362.17362,0,0,0,46.05423,248.15953Z" transform="translate(0.06557 -0.07767)" style="fill:none;stroke:#000;stroke-miterlimit:10;stroke-width:0.12885618208937671px"/><polygon points="46.558 248.064 46.828 247.678 47.103 248.064 47.321 248.064 46.957 247.553 47.284 247.055 47.111 247.055 46.867 247.428 46.601 247.055 46.383 247.055 46.739 247.554 46.381 248.064 46.558 248.064" style="fill:none;stroke:#000;stroke-miterlimit:10;stroke-width:0.12885618208937671px"/></g></g></g><g id="Illustration_29" data-name="Illustration 29"><g style="clip-path:url(#clip-path-33)"><polygon points="51.474 316.546 51.474 317.694 50.428 317.694 50.428 317.987 51.474 317.987 51.474 319.145 51.77 319.145 51.77 317.987 52.815 317.987 52.815 317.694 51.77 317.694 51.77 316.546 51.474 316.546" style="fill:none;stroke:#fff;stroke-width:0.31236756781523195px"/><rect x="17.93867" y="317.66489" width="1.14205" height="0.31794" style="fill:none;stroke:#fff;stroke-width:0.31236756781523195px"/><g style="clip-path:url(#clip-path-33)"><ellipse cx="18.5098" cy="317.71156" rx="2.20472" ry="2.83242" style="fill:none;stroke:#fff;stroke-miterlimit:10;stroke-width:0.31236756781523195px"/><ellipse cx="51.6213" cy="317.71156" rx="2.20472" ry="2.83242" style="fill:none;stroke:#fff;stroke-miterlimit:10;stroke-width:0.31236756781523195px"/><line x1="35.06569" y1="310.33559" x2="35.06569" y2="297.5897" style="fill:none;stroke:#fff;stroke-miterlimit:10;stroke-width:0.31236756781523195px"/></g></g></g><path d="M30.65918,3.52783A1.229,1.229,0,0,1,32.044,4.88135v8.21679a1.36778,1.36778,0,1,1-2.73536.00684V4.88818A1.19854,1.19854,0,0,1,30.65918,3.52783Z" transform="translate(0.06557 -0.07767)" style="fill:#fff"/><path d="M34.74512,3.52783a1.40772,1.40772,0,0,1,1.0166.34863q.32813.33473,3.08984,3.08985,2.729-2.73414,3.07032-3.08643a1.35358,1.35358,0,0,1,1.0166-.35205,1.2118,1.2118,0,0,1,1.36425,1.36035l.00684,8.20313a1.37452,1.37452,0,1,1-2.749,0V8.2583q-1.37111,1.415-1.709,1.76025A1.63034,1.63034,0,0,1,37.832,10.0083q-.35156-.35523-1.71582-1.72266v4.80567A1.2179,1.2179,0,0,1,34.752,14.4585a1.2003,1.2003,0,0,1-1.36425-1.36719V4.88818A1.20142,1.20142,0,0,1,34.74512,3.52783Z" transform="translate(0.06557 -0.07767)" style="fill:#fff"/><path d="M47.03809,3.52783h4.78906a3.295,3.295,0,0,1,2.35644,1.01172A3.20318,3.20318,0,0,1,55.2168,6.93213a3.27507,3.27507,0,0,1-1.01953,2.41992,3.329,3.329,0,0,1-2.418,1.00488l-1.34375.01368a1.21069,1.21069,0,0,1-1.3584-1.38086,1.213,1.213,0,0,1,1.37793-1.374l.96875-.00683q1.07813.01391,1.06445-.66309,0-.67675-1.07129-.67676H48.40918v6.82227a1.207,1.207,0,0,1-1.37109,1.36719A1.194,1.194,0,0,1,45.67383,13.105V4.88135A1.212,1.212,0,0,1,47.03809,3.52783Z" transform="translate(0.06557 -0.07767)" style="fill:#fff"/><path d="M57.97949,3.51416a1.19274,1.19274,0,0,1,1.3711,1.31934l-.00684,4.16308q.01466,2.73414,2.07422,2.74805,2.04639-.02051,2.03906-2.75488V4.88135a1.36826,1.36826,0,1,1,2.73633.00683v4.1084Q66.186,14.45826,61.418,14.4585q-4.7959.03442-4.80274-5.46192V4.88135A1.21871,1.21871,0,0,1,57.97949,3.51416Z" transform="translate(0.06557 -0.07767)" style="fill:#fff"/><path d="M68.86719,3.51416A1.23145,1.23145,0,0,1,70.25195,4.854l-.01367,6.86329h5.42285a1.22267,1.22267,0,0,1,1.37793,1.38085,1.20865,1.20865,0,0,1-1.35058,1.36036H68.86719a1.19249,1.19249,0,0,1-1.36426-1.32618V4.895A1.23145,1.23145,0,0,1,68.86719,3.51416Z" transform="translate(0.06557 -0.07767)" style="fill:#fff"/><path d="M87.98145,4.895a1.19373,1.19373,0,0,1-1.31739,1.374l-4.15429-.00683q-1.377.01391-1.39161.69726.02052.64967,1.39844.64258h1.34473q4.11329.01392,4.13379,3.46582,0,3.35669-4.127,3.377H79.76758A1.19241,1.19241,0,0,1,78.41016,13.105a1.18576,1.18576,0,0,1,1.34375-1.34668l4.11425-.02051q1.377-.00659,1.37793-.7041,0-.69726-1.3916-.69043H82.50977q-4.09865-.00659-4.09961-3.38379-.02637-3.4248,4.09961-3.43164h4.10742A1.21851,1.21851,0,0,1,87.98145,4.895Z" transform="translate(0.06557 -0.07767)" style="fill:#fff"/><path d="M90.67578,3.51416l6.90332.01367A1.16757,1.16757,0,0,1,98.86133,4.854,1.2455,1.2455,0,0,1,97.4834,6.269H92.04688v5.44825h5.42285a1.22267,1.22267,0,0,1,1.37793,1.38085,1.20866,1.20866,0,0,1-1.35059,1.36036H90.67578a1.19249,1.19249,0,0,1-1.36426-1.32618V4.895A1.23145,1.23145,0,0,1,90.67578,3.51416Zm2.02539,5.50977a1.22994,1.22994,0,0,1,1.35156-1.3877h2.74219a1.23826,1.23826,0,0,1,1.38477,1.374,1.22809,1.22809,0,0,1-1.37793,1.36719H94.05957A1.19862,1.19862,0,0,1,92.70117,9.02393Z" transform="translate(0.06557 -0.07767)" style="fill:#fff"/><path d="M48.38184,20.32764l2.73535.00683A1.21561,1.21561,0,0,1,52.48145,21.688a1.21317,1.21317,0,0,1-1.3711,1.374l-2.72168.00684A2.39746,2.39746,0,0,0,45.667,25.79639a2.42144,2.42144,0,0,0,2.72852,2.73437h2.71484a1.216,1.216,0,0,1,1.36426,1.35352,1.20774,1.20774,0,0,1-1.35059,1.374H48.39551q-5.458,0-5.46387-5.46875Q42.93164,20.32055,48.38184,20.32764Z" transform="translate(0.06557 -0.07767)" style="fill:#fff"/><path d="M59.29,20.32764a5.571,5.571,0,0,1,2.68359.70752,5.09188,5.09188,0,0,1,2.04688,2.02343,5.48652,5.48652,0,0,1,.02051,5.46875,5.08177,5.08177,0,0,1-2.02247,2.02344,5.498,5.498,0,0,1-5.44433,0,5.08175,5.08175,0,0,1-2.02246-2.02344,5.51834,5.51834,0,0,1,.01074-5.46875,5.01813,5.01813,0,0,1,2.03613-2.02343A5.58343,5.58343,0,0,1,59.29,20.32764Zm-1.334,3.07275a2.51689,2.51689,0,0,0-1.01953,1.01172,2.74478,2.74478,0,0,0-.00683,2.73779,2.55527,2.55527,0,0,0,1.01269,1.01172,2.73682,2.73682,0,0,0,2.72168,0,2.55536,2.55536,0,0,0,1.0127-1.01172,2.74481,2.74481,0,0,0-.00684-2.73779,2.51211,2.51211,0,0,0-1.02246-1.01172,2.748,2.748,0,0,0-2.69141,0Z" transform="translate(0.06557 -0.07767)" style="fill:#fff"/><path d="M67.67285,20.34131a1.67364,1.67364,0,0,1,1.1875.56055l4.08594,5.22265V21.5376a1.06892,1.06892,0,0,1,1.16016-1.19629q1.53369.0205,1.54785,1.22363l.01367,8.50391q-.01318,1.17554-1.56152,1.18945a1.40122,1.40122,0,0,1-1.13965-.56055l-4.10645-5.209v4.58008a1.05784,1.05784,0,0,1-1.1875,1.18945q-1.541.0066-1.54785-1.20312V21.53076Q66.11768,20.34791,67.67285,20.34131Z" transform="translate(0.06557 -0.07767)" style="fill:#fff"/><path d="M78.40332,20.314l6.90332.01368a1.16866,1.16866,0,0,1,1.2832,1.32617,1.2459,1.2459,0,0,1-1.37793,1.415h-2.04l.00683,6.8291a1.22179,1.22179,0,0,1-1.37109,1.36035,1.18937,1.18937,0,0,1-1.36426-1.32617l.00684-6.86328H78.40332a1.21031,1.21031,0,0,1-1.36426-1.374A1.23229,1.23229,0,0,1,78.40332,20.314Z" transform="translate(0.06557 -0.07767)" style="fill:#fff"/><path d="M89.31836,20.32764h4.78906a3.52244,3.52244,0,0,1,3.38965,3.40429,5.06836,5.06836,0,0,1-.51465,2.38916,1.73167,1.73167,0,0,1-1.55176,1.0083l1.68457,1.709a1.43354,1.43354,0,0,1,.40235,1.05957,1.21154,1.21154,0,0,1-1.36426,1.36035,1.86264,1.86264,0,0,1-1.37109-.66992l-2.72852-3.39063a2.15359,2.15359,0,0,1-.69629-1.4082,1.213,1.213,0,0,1,1.37793-1.374l.96875-.00684q1.07813.01392,1.06445-.66308,0-.67677-1.07128-.67676H90.68945v6.82226a1.207,1.207,0,0,1-1.37109,1.36719,1.194,1.194,0,0,1-1.36426-1.35351V21.68115A1.212,1.212,0,0,1,89.31836,20.32764Z" transform="translate(0.06557 -0.07767)" style="fill:#fff"/><path d="M104.31934,20.32764a5.571,5.571,0,0,1,2.68359.70752,5.09191,5.09191,0,0,1,2.04687,2.02343,5.48645,5.48645,0,0,1,.02051,5.46875,5.08175,5.08175,0,0,1-2.02246,2.02344,5.498,5.498,0,0,1-5.44433,0,5.08177,5.08177,0,0,1-2.02247-2.02344,5.51837,5.51837,0,0,1,.01075-5.46875,5.01813,5.01813,0,0,1,2.03613-2.02343A5.5834,5.5834,0,0,1,104.31934,20.32764Zm-1.334,3.07275a2.51689,2.51689,0,0,0-1.01953,1.01172,2.74481,2.74481,0,0,0-.00684,2.73779,2.55536,2.55536,0,0,0,1.0127,1.01172,2.73682,2.73682,0,0,0,2.72168,0,2.55527,2.55527,0,0,0,1.01269-1.01172,2.74478,2.74478,0,0,0-.00683-2.73779,2.51211,2.51211,0,0,0-1.02246-1.01172,2.748,2.748,0,0,0-2.69141,0Z" transform="translate(0.06557 -0.07767)" style="fill:#fff"/><path d="M112.51855,20.314a1.23146,1.23146,0,0,1,1.38477,1.33985l-.01367,6.86328h5.42285a1.22267,1.22267,0,0,1,1.37793,1.38086,1.20946,1.20946,0,0,1-1.35059,1.36035h-6.82129a1.19248,1.19248,0,0,1-1.36425-1.32617V21.69482A1.23144,1.23144,0,0,1,112.51855,20.314Z" transform="translate(0.06557 -0.07767)" style="fill:#fff"/><rect x="-89.1358" y="185.98765" width="338.2716" height="42" rx="12" transform="translate(287.05322 126.90999) rotate(90)" style="fill:none;stroke:#000;stroke-miterlimit:10;stroke-width:0.25px"/><rect x="-88.45654" y="186.58765" width="336.91308" height="40.8" rx="12" transform="translate(287.05322 126.90999) rotate(90)" style="fill:none;stroke:#fff;stroke-miterlimit:10;stroke-width:0.25px"/><rect x="-44.1358" y="185.98765" width="338.2716" height="42" rx="12" transform="translate(332.05322 81.90999) rotate(90)" style="fill:none;stroke:#000;stroke-miterlimit:10;stroke-width:0.25px"/><rect x="-43.45654" y="186.58765" width="336.91308" height="40.8" rx="12" transform="translate(332.05322 81.90999) rotate(90)" style="fill:none;stroke:#fff;stroke-miterlimit:10;stroke-width:0.25px"/><rect x="3.63224" y="221.91619" width="52.86667" height="120.56005" rx="11.91199" style="fill:none;stroke:#fff;stroke-miterlimit:10;stroke-width:0.25px"/><rect x="3.41557" y="221.42209" width="53.3" height="121.54825" rx="11.91199" style="fill:none;stroke:#000;stroke-miterlimit:10;stroke-width:0.25px"/></svg>