<svg id="svg15246" xmlns="http://www.w3.org/2000/svg" width="24" height="21.08333" viewBox="0 0 24 21.08333">
  <title>Jack</title>
  <g id="layer1">
    <polygon points="18 0 24 10.542 18 21.083 6 21.083 0 10.542 6 0 18 0"/>
    <path id="path7261" d="M20.70867,9.29512A9.22491,9.22491,0,1,1,9.27731,3.03819,9.16623,9.16623,0,0,1,20.70867,9.29512" transform="translate(0.15739 -1.30095)" style="fill: #e6e6e6"/>
    <path id="path7265" d="M9.534,3.91944A8.25279,8.25279,0,1,1,14.15108,19.7658,8.25278,8.25278,0,1,1,9.534,3.91944" transform="translate(0.15739 -1.30095)" style="fill: #404040"/>
    <path id="path7265-2" data-name="path7265" d="M10.17531,6.0803a5.99867,5.99867,0,1,1-4.095,7.42955,6.00042,6.00042,0,0,1,4.095-7.42955" transform="translate(0.15739 -1.30095)"/>
  </g>
</svg>
