<svg id="Calque_1" data-name="Calque 1" xmlns="http://www.w3.org/2000/svg" xmlns:xlink="http://www.w3.org/1999/xlink" viewBox="0 0 38.9925 38.99701"><defs><clipPath id="clip-path" transform="translate(-0.00001 0.00003)"><path d="M19.494,37.998l.00036-1.48877a16.95368,16.95368,0,1,0-6.61294-1.33872,16.95367,16.95367,0,0,0,6.61294,1.33872L19.494,37.998a18.49972,18.49972,0,1,1,7.19839-1.45651A18.505,18.505,0,0,1,19.494,37.998Z" style="fill:none"/></clipPath><clipPath id="clip-path-2" transform="translate(-0.00001 0.00003)"><path d="M10.485,34.785l.725-1.25746a3.52964,3.52964,0,0,0,.55151.55215,3.43319,3.43319,0,0,0,.64538.40784,3.37658,3.37658,0,0,0,1.47619.3393L13.392,36.198a3.6719,3.6719,0,0,1-1.60538-.369,3.73349,3.73349,0,0,1-.70187-.44353A3.83838,3.83838,0,0,1,10.485,34.785Z" style="fill:none"/></clipPath><clipPath id="clip-path-3" transform="translate(-0.00001 0.00003)"><path d="M25.695,36.198l-.499-1.37117a3.41256,3.41256,0,0,0,.76564-.08664,3.37814,3.37814,0,0,0,1.36059-.6605,3.45833,3.45833,0,0,0,.54685-.55215l.733,1.25746a3.76087,3.76087,0,0,1-.59471.60047A3.68227,3.68227,0,0,1,25.695,36.198Z" style="fill:none"/></clipPath><clipPath id="clip-path-4" transform="translate(-0.00001 0.00003)"><path d="M36.207,25.191l-1.345-.48537a3.59787,3.59787,0,0,0,.41043-.63968,3.15774,3.15774,0,0,0,.24749-.67925,2.93855,2.93855,0,0,0-.01241-1.412l1.40149.2463a3.19551,3.19551,0,0,1,.01351,1.53562,3.43474,3.43474,0,0,1-.26916.7387A3.91237,3.91237,0,0,1,36.207,25.191Z" style="fill:none"/></clipPath><clipPath id="clip-path-5" transform="translate(-0.00001 0.00003)"><path d="M2.079,22.113l1.40149-.23765a3.0808,3.0808,0,0,0-.08987.73668,3.23683,3.23683,0,0,0,.0847.73745,3.38054,3.38054,0,0,0,.25074.708,3.47121,3.47121,0,0,0,.40822.64821L2.79,25.191a3.77544,3.77544,0,0,1-.444-.70494,3.67621,3.67621,0,0,1-.27268-.76992,3.51962,3.51962,0,0,1-.09211-.802A3.34962,3.34962,0,0,1,2.079,22.113Z" style="fill:none"/></clipPath><clipPath id="clip-path-6" transform="translate(-0.00001 0.00003)"><path d="M34.209,10.314l-1.18422.71189a3.46324,3.46324,0,0,0-.64344-1.31481,3.58809,3.58809,0,0,0-.518-.53211A3.82312,3.82312,0,0,0,31.229,8.75L32.256,7.839a4.15869,4.15869,0,0,1,.68989.46646,3.902,3.902,0,0,1,.56334.57867A3.7664,3.7664,0,0,1,34.209,10.314Z" style="fill:none"/></clipPath><clipPath id="clip-path-7" transform="translate(-0.00001 0.00003)"><path d="M6.912,7.749l1.01256.91831a3.85364,3.85364,0,0,0-.65883.4196,3.57011,3.57011,0,0,0-.54012.529,3.3824,3.3824,0,0,0-.67138,1.32723L4.878,10.224a3.67843,3.67843,0,0,1,.7301-1.44335,3.88227,3.88227,0,0,1,.58739-.5753A4.19109,4.19109,0,0,1,6.912,7.749Z" style="fill:none"/></clipPath><clipPath id="clip-path-8" transform="translate(-0.00001 0.00003)"><path d="M21.078,2.448,20.95054,3.7929a3.10347,3.10347,0,0,0-.33889-.12974,3.43455,3.43455,0,0,0-.358-.0928,3.6933,3.6933,0,0,0-.371-.05575c-.12512-.0124-.25135-.0186-.37766-.0186-.12764,0-.25537.00633-.38211.019a3.70441,3.70441,0,0,0-.37619.05714,3.454,3.454,0,0,0-.36391.09535,3.14211,3.14211,0,0,0-.34526.13366L17.91,2.457a3.41656,3.41656,0,0,1,.37547-.14536,3.7663,3.7663,0,0,1,.39576-.1037,4.02778,4.02778,0,0,1,.40912-.06213c.13783-.0138.27673-.02069.41555-.02069.13736,0,.27464.00675.41071.02023a4.01642,4.01642,0,0,1,.40345.06063,3.74,3.74,0,0,1,.38938.10092A3.379,3.379,0,0,1,21.078,2.448Z" style="fill:none"/></clipPath><clipPath id="clip-path-9" transform="translate(-0.00001 0.00003)"><path d="M19.494,30.897V29.98a10.94883,10.94883,0,0,0,4.18429-.82472,10.81684,10.81684,0,0,0,3.42007-2.24763,10.505,10.505,0,0,0,2.3075-3.33071,10.23741,10.23741,0,0,0,0-8.15275,10.50816,10.50816,0,0,0-2.3075-3.33317A10.81263,10.81263,0,0,0,23.6783,9.84251a11.02538,11.02538,0,0,0-8.36856,0A10.81263,10.81263,0,0,0,11.88967,12.091a10.50775,10.50775,0,0,0-2.30751,3.33317,10.23725,10.23725,0,0,0,0,8.15275,10.50453,10.50453,0,0,0,2.30751,3.33071,10.81667,10.81667,0,0,0,3.42007,2.24763A10.94873,10.94873,0,0,0,19.494,29.98v.917a11.90733,11.90733,0,0,1-4.55048-.8969,11.76337,11.76337,0,0,1-3.7194-2.44434,11.42414,11.42414,0,0,1-2.50946-3.62222,11.13337,11.13337,0,0,1,0-8.86627,11.42766,11.42766,0,0,1,2.50946-3.62489,11.75883,11.75883,0,0,1,3.7194-2.44533,11.99033,11.99033,0,0,1,9.101,0,11.75883,11.75883,0,0,1,3.7194,2.44533,11.42779,11.42779,0,0,1,2.50945,3.62489,11.13337,11.13337,0,0,1,0,8.86627,11.424,11.424,0,0,1-2.50945,3.62222,11.76337,11.76337,0,0,1-3.7194,2.44434A11.90733,11.90733,0,0,1,19.494,30.897Z" style="fill:none"/></clipPath></defs><title>LFMKnob</title><g style="opacity:0.7400000095367432"><g style="clip-path:url(#clip-path)"><path d="M19.494,37.998l.00036-1.48877q.2642,0,.52649-.008t.52255-.02392q.26025-.01589.51837-.03957t.514-.055l.18179,1.4777q-.27824.03407-.55894.05981t-.56375.043q-.283.01728-.56828.026T19.494,37.998" transform="translate(-0.00001 0.00003)" style="fill:#000400"/><path d="M21.75752,37.8604l-.18179-1.4777q.38876-.0476.772-.11258t.7605-.14683q.37723-.08184.74815-.18027t.735-.21289l.44573,1.42059q-.39592.12447-.79931.23152t-.81363.196q-.41023.089-.827.15968t-.8396.12243" transform="translate(-0.00001 0.00003)" style="fill:#000400"/><path d="M25.03711,37.15072l-.44573-1.42059a16.97209,16.97209,0,0,0,4.77353-2.38175A17.00187,17.00187,0,1,0,4.32539,11.81276l-1.32795-.67265A18.48912,18.48912,0,1,1,25.03711,37.15072" transform="translate(-0.00001 0.00003)" style="fill:#000400"/><path d="M2.99744,11.14011l1.32795.67265q-.17341.34105-.33181.69077t-.30119.7075q-.1428.3578-.26972.72337t-.23738.73839l-1.42773-.42235q.12012-.40542.25815-.803t.29333-.78668q.1553-.3891.32755-.76942t.36085-.75122" transform="translate(-0.00001 0.00003)" style="fill:#000400"/><path d="M1.75756,14.25044l1.42773.42235q-.09315.31434-.17441.63365t-.15028.6432q-.069.32389-.12564.65222t-.10049.66075L1.15853,17.067q.04771-.3615.10929-.71858t.13664-.70931q.07506-.35224.16343-.69949t.18967-.68911" transform="translate(-0.00001 0.00003)" style="fill:#000400"/><path d="M1.15853,17.067l1.47594.19568q-.03628.27492-.06374.55253t-.04589.55771q-.01844.28009-.02775.56259t-.00931.5672l.00023.09.00071.08987.00117.08976.00163.08965-1.48845.03181-.00178-.0975L1,19.69859l-.00076-.09774L.999,19.503q0-.30962.01013-.61683t.03018-.61184q.02-.30462.04991-.60652t.06931-.60088" transform="translate(-0.00001 0.00003)" style="fill:#000500"/><path d="M1.00307,19.8937l1.48845-.03181q.00733.35193.0289.7003t.057.69283q.03543.34445.08453.68479t.11151.6762l-1.46377.27285q-.06786-.36525-.12127-.73538t-.09193-.74473q-.03853-.37459-.062-.75347t-.03143-.76158" transform="translate(-0.00001 0.00003)" style="fill:#000500"/><path d="M1.30969,22.88886,2.77346,22.616q.0801.431.18174.85435t.22406.83808q.12242.41477.26519.82062t.30514.802l-1.37834.563q-.17656-.43083-.33185-.87218T1.751,24.7294q-.13312-.45108-.24366-.91142t-.19765-.92912" transform="translate(-0.00001 0.00003)" style="fill:#000500"/><path d="M2.37125,26.494l1.37834-.563a17.1137,17.1137,0,0,0,6.8197,8.04256L9.7878,35.24045A18.58419,18.58419,0,0,1,2.37125,26.494" transform="translate(-0.00001 0.00003)" style="fill:#000500"/><path d="M9.7878,35.24047l.78149-1.26686q.36576.22644.74356.43471t.76679.39753q.389.18927.78877.35913t.80952.31947l-.50941,1.39908q-.4456-.1627-.88037-.34743t-.85781-.39055q-.423-.20583-.8339-.43233t-.80864-.47275" transform="translate(-0.00001 0.00003)" style="fill:#000500"/><path d="M13.16852,36.88353l.50941-1.39908q.3196.1167.645.22086t.65631.19539q.33087.09123.667.16934t.67709.14268l-.27789,1.46283q-.37081-.07024-.73635-.15518t-.72537-.18415q-.35983-.09921-.71375-.21249t-.70149-.2402" transform="translate(-0.00001 0.00003)" style="fill:#000500"/><path d="M16.04548,37.67555l.27789-1.46283q.31332.05934.63058.10711t.63816.08365q.32091.03588.64527.05973t.65192.03537L18.836,37.98644q-.35621-.01252-.709-.03847t-.70174-.065q-.349-.039-.694-.091t-.68578-.11648" transform="translate(-0.00001 0.00003)" style="fill:#000500"/><path d="M18.836,37.98644l.05332-1.48785q.07531.00264.15079.00464t.1511.00332q.07564.00131.15143.002t.15173.00068L19.494,37.998q-.08259,0-.165-.00072t-.16467-.00217q-.08226-.00144-.16433-.00361t-.164-.005" transform="translate(-0.00001 0.00003)" style="fill:#000400"/></g><path d="M19.494,0a19.49422,19.49422,0,1,1-7.57942,1.53494A19.49851,19.49851,0,0,1,19.494,0Zm0,37.998A18.43741,18.43741,0,1,0,12.3023,36.5421,18.43741,18.43741,0,0,0,19.494,37.998" transform="translate(-0.00001 0.00003)" style="fill:#000700"/><path d="M19.494.999a18.43383,18.43383,0,1,1-7.1917,1.456A18.43383,18.43383,0,0,1,19.494.999Z" transform="translate(-0.00001 0.00003)" style="fill:#ddd7dd"/></g><polygon points="13.392 36.198 13.883 34.827 25.196 34.827 25.695 36.198 13.392 36.198" style="fill:#020000"/><g style="clip-path:url(#clip-path-2)"><path d="M10.485,34.785l.725-1.25746q.09552.11938.19952.22879t.2156.20843q.11158.099.23031.18744t.24366.16584l-.6472,1.32664q-.13587-.0842-.265-.18035t-.25047-.20385q-.12135-.10768-.23447-.22666t-.217-.24882" transform="translate(-0.00001 0.00003)" style="fill:#020000"/><path d="M11.45188,35.64469l.6472-1.32664q.07455.04619.15117.0884t.15515.08036q.07851.03816.15882.07219t.16222.06388l-.59229,1.35333q-.08909-.03246-.17642-.06948t-.17273-.0785q-.08538-.04149-.16872-.0874t-.1644-.09614" transform="translate(-0.00001 0.00003)" style="fill:#020000"/><path d="M12.13415,35.97621l.59229-1.35333q.06432.02346.12957.04426t.13134.039q.06609.01818.133.03366t.13445.02827l-.546,1.366q-.0735-.01388-.14623-.03073t-.1446-.03661q-.07188-.01976-.14284-.0424t-.1409-.04813" transform="translate(-0.00001 0.00003)" style="fill:#020000"/><path d="M12.70872,36.13409l.54605-1.366q.06258.01185.12572.02132t.12676.01658q.06361.00709.12769.0118t.12851.007l-.50153,1.371q-.07008-.00248-.13976-.00758t-.13887-.01284q-.0692-.00774-.13785-.018t-.13672-.02317" transform="translate(-0.00001 0.00003)" style="fill:#020000"/><path d="M13.26192,36.19572l.50153-1.371.02986.00092.02988.00065.02993.0004.02995.00013L13.392,36.198l-.03257-.00014-.03255-.00043-.0325-.00072-.03246-.001" transform="translate(-0.00001 0.00003)" style="fill:#020000"/></g><g style="clip-path:url(#clip-path-3)"><path d="M25.695,36.198l-.499-1.37117q.05239,0,.10454-.00158t.104-.00473q.05187-.00315.10346-.00786t.10285-.011l.53535,1.369q-.05576.00678-.11185.01191t-.11253.00854q-.05642.00342-.11313.00514T25.695,36.198" transform="translate(-0.00001 0.00003)" style="fill:#020000"/><path d="M26.14617,36.1707l-.53535-1.369q.07735-.00942.15391-.02232t.15217-.02923q.07562-.01632.15022-.036t.14809-.04276l.58824,1.35756q-.07991.02508-.161.04651t-.16337.03919q-.08224.01776-.16549.03179t-.16737.02428" transform="translate(-0.00001 0.00003)" style="fill:#020000"/><path d="M26.80345,36.02893l-.58824-1.35756a3.37635,3.37635,0,0,0,.90545-.44157,3.41433,3.41433,0,0,0,.39733-.32013,3.47487,3.47487,0,0,0,.351-.38212l.733,1.25746a3.78011,3.78011,0,0,1-.38175.41557,3.67946,3.67946,0,0,1-1.4168.82836" transform="translate(-0.00001 0.00003)" style="fill:#020000"/></g><polygon points="2.79 25.191 4.134 24.706 11.21 33.528 10.485 34.785 2.79 25.191" style="fill:#020000"/><polygon points="28.602 34.785 27.869 33.528 34.862 24.706 36.207 25.191 28.602 34.785" style="fill:#020000"/><g style="clip-path:url(#clip-path-4)"><path d="M36.207,25.191l-1.345-.48537a3.59787,3.59787,0,0,0,.41043-.63968,3.15774,3.15774,0,0,0,.24749-.67925,2.93855,2.93855,0,0,0-.01241-1.412l1.40149.2463a3.19551,3.19551,0,0,1,.01351,1.53562,3.43474,3.43474,0,0,1-.26916.7387,3.91237,3.91237,0,0,1-.44635.69568" transform="translate(-0.00001 0.00003)" style="fill:#020000"/></g><g style="clip-path:url(#clip-path-5)"><path d="M2.079,22.113l1.40149-.23765q-.01029.04152-.01938.08323t-.017.08359q-.00791.04188-.01463.0839t-.01229.08418l-1.407.267q.006-.04582.01335-.09154t.01592-.09125q.00859-.04554.01849-.0909t.021-.09056" transform="translate(-0.00001 0.00003)" style="fill:#020000"/><path d="M2.01015,22.47719l1.407-.267q-.00774.05874-.01321.11768t-.00869.118q-.00322.05906-.00422.11819t.00024.11826L1.982,22.99066q-.00132-.0643-.00025-.12861t.00458-.12854q.00351-.06423.00946-.12833t.01437-.128" transform="translate(-0.00001 0.00003)" style="fill:#020000"/><path d="M1.982,22.99066l1.40931-.30829q.00135.06531.00538.13056t.01073.13032q.00669.06509.016.12993t.02126.12937L2.04,23.55636q-.013-.07016-.02312-.14069t-.01742-.1413q-.00727-.07077-.01166-.14173t-.00586-.142" transform="translate(-0.00001 0.00003)" style="fill:#020000"/><path d="M2.04,23.55636l1.40463-.35381q.01557.08417.03553.16764t.04428.166q.0243.08256.05291.16407t.06145.16175l-1.38764.41153q-.03572-.08724-.06682-.1759t-.05755-.17843q-.02643-.08979-.04815-.18058T2.04,23.55636" transform="translate(-0.00001 0.00003)" style="fill:#020000"/><path d="M2.25121,24.27359l1.38764-.41153q.04587.112.0999.22128t.11606.215q.062.10578.13194.20776t.14753.1995L2.79,25.191q-.0844-.10606-.16045-.217T2.48608,24.748q-.06745-.115-.12622-.23384t-.10864-.24065" transform="translate(-0.00001 0.00003)" style="fill:#020000"/></g><g style="clip-path:url(#clip-path-6)"><path d="M34.209,10.314l-1.18422.71189a3.46324,3.46324,0,0,0-.64344-1.31481,3.58809,3.58809,0,0,0-.518-.53211A3.82312,3.82312,0,0,0,31.229,8.75L32.256,7.839a4.15869,4.15869,0,0,1,.68989.46646,3.902,3.902,0,0,1,.56334.57867A3.7664,3.7664,0,0,1,34.209,10.314" transform="translate(-0.00001 0.00003)" style="fill:#020000"/></g><g style="clip-path:url(#clip-path-7)"><path d="M6.912,7.749l1.01256.91831a3.89643,3.89643,0,0,0-.50449.30369,3.66223,3.66223,0,0,0-.43962.36722,3.492,3.492,0,0,0-.36923.42454,3.39366,3.39366,0,0,0-.29328.47567l-1.15316-.7808a3.68965,3.68965,0,0,1,.31894-.5173,3.79752,3.79752,0,0,1,.40155-.4617,3.98179,3.98179,0,0,1,.4781-.39936A4.2364,4.2364,0,0,1,6.912,7.749" transform="translate(-0.00001 0.00003)" style="fill:#020000"/><path d="M5.16479,9.45762l1.15316.7808q-.03467.06827-.06626.1382t-.06.14143q-.02846.07151-.05372.14454t-.04729.14751l-1.17306-.73077q.02394-.081.05142-.16042t.05843-.15719q.03095-.07776.06531-.15381t.07206-.15029" transform="translate(-0.00001 0.00003)" style="fill:#020000"/><path d="M4.91757,10.07933l1.17306.73077-.00959.033-.00926.0332-.00894.03332-.00862.03347L4.878,10.224l.00938-.03639.00972-.03625.01007-.03609.01043-.03595" transform="translate(-0.00001 0.00003)" style="fill:#020000"/></g><polygon points="17.91 2.457 18.037 3.801 7.925 8.667 6.912 7.749 17.91 2.457" style="fill:#020000"/><polygon points="32.256 7.839 31.229 8.75 20.951 3.793 21.078 2.448 32.256 7.839" style="fill:#020000"/><g style="clip-path:url(#clip-path-8)"><path d="M21.078,2.448,20.95054,3.7929a3.10347,3.10347,0,0,0-.33889-.12974,3.43455,3.43455,0,0,0-.358-.0928,3.6933,3.6933,0,0,0-.371-.05575c-.12512-.0124-.25135-.0186-.37766-.0186-.12764,0-.25537.00633-.38211.019a3.70441,3.70441,0,0,0-.37619.05714,3.454,3.454,0,0,0-.36391.09535,3.14211,3.14211,0,0,0-.34526.13366L17.91,2.457a3.41656,3.41656,0,0,1,.37547-.14536,3.7663,3.7663,0,0,1,.39576-.1037,4.02778,4.02778,0,0,1,.40912-.06213c.13783-.0138.27673-.02069.41555-.02069.13736,0,.27464.00675.41071.02023a4.01642,4.01642,0,0,1,.40345.06063,3.74,3.74,0,0,1,.38938.10092,3.379,3.379,0,0,1,.36856.1411" transform="translate(-0.00001 0.00003)" style="fill:#020000"/></g><path d="M19.50593,2.1251c.13736,0,.27465.00675.41071.02024a4.01623,4.01623,0,0,1,.40344.06063,3.73741,3.73741,0,0,1,.38938.10091,3.37962,3.37962,0,0,1,.36855.1411L32.256,7.839a4.15838,4.15838,0,0,1,.68991.46645,3.90148,3.90148,0,0,1,.56334.57867A3.76625,3.76625,0,0,1,34.209,10.314l2.7,11.907a3.19531,3.19531,0,0,1,.0135,1.53563,3.43368,3.43368,0,0,1-.26916.7387,3.9128,3.9128,0,0,1-.44634.69567l-7.605,9.594a3.76164,3.76164,0,0,1-.5947.60047,3.68229,3.68229,0,0,1-2.3123.81253H13.392a3.67176,3.67176,0,0,1-1.60538-.369,3.73258,3.73258,0,0,1-.70186-.44353A3.83845,3.83845,0,0,1,10.485,34.785L2.79,25.191a3.7759,3.7759,0,0,1-.444-.705,3.67731,3.67731,0,0,1-.27267-.76992,3.51962,3.51962,0,0,1-.09211-.802A3.35064,3.35064,0,0,1,2.079,22.113L4.878,10.224A3.67852,3.67852,0,0,1,5.60813,8.7806a3.8822,3.8822,0,0,1,.58739-.57529A4.19121,4.19121,0,0,1,6.912,7.749L17.91,2.457a3.41477,3.41477,0,0,1,.37548-.14537,3.76089,3.76089,0,0,1,.39577-.10369,4.03059,4.03059,0,0,1,.40912-.06213C19.22821,2.132,19.36711,2.1251,19.50593,2.1251Z" transform="translate(-0.00001 0.00003)" style="fill:#ddd"/><path d="M37.881,21.987a4.23849,4.23849,0,0,1,.1291.99633,4.18485,4.18485,0,0,1-.10885.98705,4.39831,4.39831,0,0,1-.34172.95161,4.86759,4.86759,0,0,1-.56952.89l-7.605,9.603a4.83681,4.83681,0,0,1-.75753.75684A4.687,4.687,0,0,1,25.695,37.197H13.392a4.70156,4.70156,0,0,1-2.9312-1.02514A4.81417,4.81417,0,0,1,9.702,35.415L2.007,25.812a4.64821,4.64821,0,0,1-.91237-1.88212,4.53442,4.53442,0,0,1-.114-1.02755A4.32672,4.32672,0,0,1,1.107,21.879L3.906,9.99a4.74314,4.74314,0,0,1,.36027-.97537A4.643,4.643,0,0,1,4.824,8.154a4.76839,4.76839,0,0,1,.74-.72563A5.11807,5.11807,0,0,1,6.471,6.858l11.016-5.31a4.51743,4.51743,0,0,1,.47848-.186,4.78541,4.78541,0,0,1,.49927-.1329,4.98522,4.98522,0,0,1,.513-.07974,5.08848,5.08848,0,0,1,1.03884,0,4.94953,4.94953,0,0,1,.51171.07974,4.72844,4.72844,0,0,1,.49715.1329,4.44871,4.44871,0,0,1,.47554.186l11.214,5.4a5.25949,5.25949,0,0,1,.86752.59316,5.04582,5.04582,0,0,1,.71311.73659,4.84257,4.84257,0,0,1,.53929.85471A4.67921,4.67921,0,0,1,35.181,10.08Zm-1.674,3.204a3.91285,3.91285,0,0,0,.44635-.69567,3.43474,3.43474,0,0,0,.26916-.7387A3.19555,3.19555,0,0,0,36.909,22.221l-2.7-11.907a3.76651,3.76651,0,0,0-.69977-1.42988,3.90148,3.90148,0,0,0-.56334-.57867A4.15863,4.15863,0,0,0,32.256,7.839L21.078,2.448a3.37877,3.37877,0,0,0-.36855-.14109,3.74,3.74,0,0,0-.38938-.10092,4.016,4.016,0,0,0-.40345-.06063c-.13607-.01348-.27335-.02023-.41071-.02023-.13882,0-.27772.00689-.41555.02069a4.02778,4.02778,0,0,0-.40912.06213,3.76694,3.76694,0,0,0-.39576.1037A3.41465,3.41465,0,0,0,17.91,2.457L6.912,7.749a4.19121,4.19121,0,0,0-.71649.45633,3.88227,3.88227,0,0,0-.58739.5753A3.67835,3.67835,0,0,0,4.878,10.224L2.079,22.113a3.34974,3.34974,0,0,0-.09774.80116,3.51962,3.51962,0,0,0,.09211.802,3.67621,3.67621,0,0,0,.27268.76992,3.77544,3.77544,0,0,0,.444.70494l7.695,9.594a3.83851,3.83851,0,0,0,.59977.60047,3.73349,3.73349,0,0,0,.70187.44353,3.6719,3.6719,0,0,0,1.60538.369H25.695a3.71122,3.71122,0,0,0,.83265-.09422,3.67413,3.67413,0,0,0,1.47966-.71831A3.76087,3.76087,0,0,0,28.602,34.785l7.605-9.594" transform="translate(-0.00001 0.00003)" style="fill:#030000"/><path d="M19.494,5.202A14.82109,14.82109,0,0,1,25.177,6.32529,14.63608,14.63608,0,0,1,29.817,9.38923a14.30456,14.30456,0,0,1,3.12806,4.54556,14.08056,14.08056,0,0,1,0,11.13258,14.31731,14.31731,0,0,1-3.12806,4.546,14.64393,14.64393,0,0,1-4.64006,3.066,14.92134,14.92134,0,0,1-11.36588,0,14.64393,14.64393,0,0,1-4.64006-3.066,14.31731,14.31731,0,0,1-3.12806-4.546,14.08056,14.08056,0,0,1,0-11.13258A14.30456,14.30456,0,0,1,9.171,9.38923a14.63608,14.63608,0,0,1,4.64006-3.06394A14.82087,14.82087,0,0,1,19.494,5.202Z" transform="translate(-0.00001 0.00003)" style="fill:#383838"/><path d="M19.494,6.201a13.55742,13.55742,0,0,1,9.54787,3.897,13.31327,13.31327,0,0,1,2.892,4.22831,13.16868,13.16868,0,0,1,0,10.35338,13.31327,13.31327,0,0,1-2.892,4.22831,13.61836,13.61836,0,0,1-19.09237,0,13.32134,13.32134,0,0,1-2.89406-4.22831,13.15414,13.15414,0,0,1,0-10.35338A13.32134,13.32134,0,0,1,9.94951,10.098,13.55934,13.55934,0,0,1,19.494,6.201Z" transform="translate(-0.00001 0.00003)" style="fill:#1c1c1c"/><path d="M19.494,11.097a9.83091,9.83091,0,0,1,3.66033.69975,9.46993,9.46993,0,0,1,2.98955,1.908,8.90953,8.90953,0,0,1,2.01586,2.82937,8.48482,8.48482,0,0,1,0,6.92776,8.90953,8.90953,0,0,1-2.01586,2.82937,9.46993,9.46993,0,0,1-2.98955,1.908,9.91962,9.91962,0,0,1-7.31925,0,9.4526,9.4526,0,0,1-2.98646-1.908,8.90469,8.90469,0,0,1-2.01276-2.82937,8.49954,8.49954,0,0,1,0-6.92776,8.90469,8.90469,0,0,1,2.01276-2.82937,9.4526,9.4526,0,0,1,2.98646-1.908A9.82018,9.82018,0,0,1,19.494,11.097Z" transform="translate(-0.00001 0.00003)"/><g style="clip-path:url(#clip-path-9)"><path d="M19.494,30.897V29.98q.17133,0,.34141-.0052t.33878-.01549q.16871-.01029.336-.02564t.33306-.03562l.11808.90978q-.18027.022-.3622.03874t-.36541.02788q-.18348.01119-.36843.01685T19.494,30.897" transform="translate(-0.00001 0.00003)" style="fill:#000400"/><path d="M20.96133,30.80787l-.1181-.90978q.25106-.03072.49846-.07261t.49079-.09463q.24339-.05273.48258-.1161t.4738-.137l.28837.873q-.25515.0801-.51527.149t-.52481.12626q-.26469.05734-.53375.10291t-.54209.079" transform="translate(-0.00001 0.00003)" style="fill:#000400"/><path d="M23.07724,30.35071l-.28838-.873a10.84414,10.84414,0,0,0,2.99132-1.47651A10.71666,10.71666,0,0,0,28.143,25.7278a10.36709,10.36709,0,0,0,1.55163-2.89214,10.24248,10.24248,0,0,0-.28877-7.41143,10.50816,10.50816,0,0,0-2.3075-3.33317A10.81263,10.81263,0,0,0,23.6783,9.84252,10.96229,10.96229,0,0,0,13.749,10.64a10.77034,10.77034,0,0,0-2.24285,1.84458,10.5138,10.5138,0,0,0-1.65573,2.37066l-.844-.40678A11.43449,11.43449,0,0,1,10.807,11.87025a11.76265,11.76265,0,0,1,5.38031-3.307,12.0086,12.0086,0,0,1,7.85715.43384,11.75883,11.75883,0,0,1,3.7194,2.44533,11.42747,11.42747,0,0,1,2.50945,3.62489,11.139,11.139,0,0,1,.31405,8.06008,11.274,11.274,0,0,1-1.68744,3.14525,11.65453,11.65453,0,0,1-2.5696,2.47239,11.79345,11.79345,0,0,1-3.25311,1.60573" transform="translate(-0.00001 0.00003)" style="fill:#000400"/><path d="M9.0064,14.44839l.844.40678q-.10577.2077-.2023.42052t-.18349.4304q-.087.21758-.16417.43975t-.14432.44862l-.90478-.25455q.073-.24625.157-.48788t.17854-.47824q.09456-.23663.19955-.46807t.22-.45733" transform="translate(-0.00001 0.00003)" style="fill:#000400"/><path d="M8.25135,16.33991l.90476.25455q-.05623.18972-.10528.38233t-.09067.3879q-.04164.1953-.07578.39318T8.8238,18.156L7.89,18.03814q.02875-.2178.06588-.433t.08241-.42759q.04528-.21239.09861-.42185t.11448-.41579" transform="translate(-0.00001 0.00003)" style="fill:#000400"/><path d="M7.89,18.03814l.93384.11789q-.02182.16539-.03835.33236t-.02761.3354q-.01108.16842-.01668.33826t-.00561.341l.00014.054.00043.054.0007.05392.001.05385-.94138.01889-.00107-.05856-.00076-.05864-.00046-.0587L7.794,19.503q0-.1861.00609-.37079t.01815-.36786q.01206-.18318.03-.36475T7.89,18.03812" transform="translate(-0.00001 0.00003)" style="fill:#000500"/><path d="M7.79642,19.73766l.94138-.01887q.00441.21122.01735.42036t.03423.416q.02127.20686.05077.41133t.067.40633l-.92656.16365q-.04077-.21954-.07285-.4419t-.05521-.44732q-.02313-.225-.03722-.45241t-.01887-.45715" transform="translate(-0.00001 0.00003)" style="fill:#000500"/><path d="M7.98057,21.53644l.92656-.16363q.04845.26091.11007.51726t.1359.50769q.07429.25134.161.49743t.18545.48649l-.87471.33947q-.10736-.26144-.20168-.52907t-.17513-.541q-.08079-.27333-.14779-.55212t-.1197-.56253" transform="translate(-0.00001 0.00003)" style="fill:#000500"/><path d="M8.62487,23.72113l.87471-.33945a10.33615,10.33615,0,0,0,.7506,1.4773,10.535,10.535,0,0,0,.97088,1.33509,10.75936,10.75936,0,0,0,2.50944,2.15266l-.50442.774A11.70068,11.70068,0,0,1,10.497,26.77967a11.45757,11.45757,0,0,1-1.05585-1.45193,11.24265,11.24265,0,0,1-.81629-1.60659" transform="translate(-0.00001 0.00003)" style="fill:#000500"/><path d="M13.22608,29.12072l.50442-.774q.2343.14532.47665.279t.49217.25535q.24982.12162.50687.23084t.52072.20551l-.32969.859q-.28677-.10471-.5663-.22349t-.55123-.251q-.27169-.13225-.53525-.2777t-.51836-.30348" transform="translate(-0.00001 0.00003)" style="fill:#000500"/><path d="M15.39722,30.17643l.32969-.859q.20616.07528.41624.1425t.42379.12613q.21372.05891.431.10937t.43772.09223l-.18015.90011q-.23978-.04541-.476-.10029t-.46867-.11894q-.23242-.06406-.46089-.13717t-.45266-.155" transform="translate(-0.00001 0.00003)" style="fill:#000500"/><path d="M17.25547,30.68781l.18015-.9001q.20316.03847.409.06945t.414.05426q.20824.02328.41883.03876t.42329.023l-.03442.91635q-.23133-.00813-.46034-.025t-.45548-.04215q-.22647-.02532-.45028-.059t-.44475-.07554" transform="translate(-0.00001 0.00003)" style="fill:#000500"/><path d="M19.06632,30.88947l.03442-.91633.098.003.09821.00215.09842.0013L19.494,29.98v.917l-.10726-.00047-.107-.00141-.1068-.00234-.10657-.00328" transform="translate(-0.00001 0.00003)" style="fill:#000400"/></g><path d="M19.494,7.101a12.81363,12.81363,0,0,1,8.97527,3.636,12.43426,12.43426,0,0,1,2.72419,3.94256,12.13774,12.13774,0,0,1,0,9.64688A12.43421,12.43421,0,0,1,28.46926,28.269a12.87279,12.87279,0,0,1-17.95051,0,12.43428,12.43428,0,0,1-2.72418-3.94257,12.13758,12.13758,0,0,1,0-9.64688A12.43419,12.43419,0,0,1,10.51875,10.737,12.81359,12.81359,0,0,1,19.494,7.101Zm0,23.796a11.90742,11.90742,0,0,0,4.55049-.8969,11.7636,11.7636,0,0,0,3.7194-2.44434,11.424,11.424,0,0,0,2.50945-3.62222,11.13337,11.13337,0,0,0,0-8.86627,11.42779,11.42779,0,0,0-2.50945-3.62489A11.75883,11.75883,0,0,0,24.0445,8.997a11.99033,11.99033,0,0,0-9.101,0,11.75883,11.75883,0,0,0-3.7194,2.44533,11.42782,11.42782,0,0,0-2.50946,3.62489,11.13337,11.13337,0,0,0,0,8.86627,11.42414,11.42414,0,0,0,2.50946,3.62222,11.76349,11.76349,0,0,0,3.7194,2.44434,11.90737,11.90737,0,0,0,4.55048.8969" transform="translate(-0.00001 0.00003)" style="fill:#000700"/><path d="M19.494,8.1a11.90432,11.90432,0,0,1,4.55048.89705,11.7588,11.7588,0,0,1,3.7194,2.44532,11.42783,11.42783,0,0,1,2.50945,3.6249,11.13335,11.13335,0,0,1,0,8.86626,11.42428,11.42428,0,0,1-2.50945,3.62222,11.76323,11.76323,0,0,1-3.7194,2.44435,11.9921,11.9921,0,0,1-9.101,0,11.7633,11.7633,0,0,1-3.71939-2.44435,11.42411,11.42411,0,0,1-2.50945-3.62222,11.13335,11.13335,0,0,1,0-8.86626,11.42767,11.42767,0,0,1,2.50945-3.6249A11.75876,11.75876,0,0,1,14.94349,8.997,11.90451,11.90451,0,0,1,19.494,8.1Z" transform="translate(-0.00001 0.00003)" style="fill:#ddd7dd"/><path d="M19.899,1.098c.1485,0,.28519.12544.40669.35733a3.96483,3.96483,0,0,1,.31556.996,12.83383,12.83383,0,0,1,.20419,1.52086c.04725.58177.07256,1.232.07256,1.93177V17.298a2.30664,2.30664,0,0,1-.10674.70271,1.86748,1.86748,0,0,1-.29489.57192,1.4055,1.4055,0,0,1-.44507.38461,1.17083,1.17083,0,0,1-1.11319,0,1.39224,1.39224,0,0,1-.442-.38461,1.86793,1.86793,0,0,1-.29179-.57192A2.333,2.333,0,0,1,18.099,17.298V5.904c0-.675.02475-1.31287.0713-1.89a13.25157,13.25157,0,0,1,.20207-1.5255,4.16954,4.16954,0,0,1,.31514-1.01925c.12193-.23963.25974-.37125.41049-.37125Z" transform="translate(-0.00001 0.00003)" style="fill:#010000"/></svg>