<svg id="svg10799" xmlns="http://www.w3.org/2000/svg" viewBox="0 0 16.75 27"><title>LFMSwitch_2</title><g id="layer1"><g id="g3201"><g id="g5918"><rect x="0.875" y="0.5" width="15" height="26" rx="7.49999" style="fill:#030000;stroke:#000;stroke-miterlimit:10"/><path id="path5916" d="M13.83462.70164A7.83768,7.83768,0,0,1,21.77692,8.5a7.75465,7.75465,0,0,1-7.80769,7.93278A7.755,7.755,0,0,1,6.02692,8.63442V8.5A7.80862,7.80862,0,0,1,13.83462.70164h0" transform="translate(-5.52692 1)" style="fill:#fff;stroke:#000;stroke-miterlimit:10"/><path id="path5916-2" d="M13.83462,2.44954A5.81373,5.81373,0,0,1,19.21923,8.5a5.81372,5.81372,0,0,1-5.38462,6.05042A5.81371,5.81371,0,0,1,8.45,8.5a5.901,5.901,0,0,1,5.38462-6.05042" transform="translate(-5.52692 1)" style="stroke:#000;stroke-miterlimit:10"/></g></g></g></svg>