<svg id="svg10799" xmlns="http://www.w3.org/2000/svg" viewBox="0 0 16.75 27"><title>LFMSwitch_1</title><g id="layer1"><g id="g3201"><g id="g5918"><rect x="0.875" y="0.5" width="15" height="26" rx="7.49999" style="fill:#030000;stroke:#000;stroke-miterlimit:10"/><path id="path5916" d="M13.83462,4.70168A7.83768,7.83768,0,0,1,21.77692,12.5a7.75464,7.75464,0,0,1-7.80769,7.93277,7.755,7.755,0,0,1-7.94231-7.79832V12.5a7.80862,7.80862,0,0,1,7.8077-7.79832h0" transform="translate(-5.52692 1)" style="fill:#fff;stroke:#000;stroke-miterlimit:10"/><path id="path5916-2" d="M13.83462,6.44958A5.81371,5.81371,0,0,1,19.21923,12.5a5.81372,5.81372,0,0,1-5.38462,6.05042A5.81371,5.81371,0,0,1,8.45,12.5a5.901,5.901,0,0,1,5.38462-6.05042" transform="translate(-5.52692 1)" style="stroke:#000;stroke-miterlimit:10"/></g></g></g></svg>