<svg id="svg164153" xmlns="http://www.w3.org/2000/svg" viewBox="0 0 22 8.8"><title>LFMSliderWhiteHandle</title><g id="layer1"><g id="path162648-2"><path d="M16.3.6c3.5,0,6.2,1.7,6.2,3.9s-2.7,3.9-6.2,3.9H7.7c-3.5,0-6.2-1.7-6.2-3.9S4.2.6,7.7.6Zm0,6.1c2.6,0,4.4-1.2,4.4-2.2s-1.8-2.2-4.4-2.2H7.7c-2.6,0-4.4,1.2-4.4,2.2S5.1,6.7,7.7,6.7h8.6" transform="translate(-1 -0.1)" style="stroke:#000;stroke-miterlimit:10"/><path d="M16.5,2.2c2.7,0,4.5,1.2,4.5,2.3s-1.9,2.3-4.5,2.3h-9C4.9,6.8,3,5.6,3,4.5S4.9,2.2,7.5,2.2Z" transform="translate(-1 -0.1)" style="fill:#ddd"/></g></g></svg>