<svg id="Calque_1" data-name="Calque 1" xmlns="http://www.w3.org/2000/svg" width="23.751" height="23.751" viewBox="0 0 23.751 23.751">
  <title>OrganismTinyKnob</title>
  <path d="M11.871,0A11.8755,11.8755,0,1,1,0,11.88,11.8755,11.8755,0,0,1,11.871,0Z" transform="translate(0 0)" style="fill: #383838"/>
  <ellipse cx="11.871" cy="11.88" rx="10.98" ry="11.043" style="fill: #1c1c1c"/>
  <g>
    <polygon points="7.344 21.383 16.288 21.383 16.288 21.383 7.344 21.383" style="fill: #000400"/>
    <polygon points="16.288 21.383 16.288 21.383 21.866 14.311 21.866 14.311 16.288 21.383" style="fill: #000400"/>
    <polygon points="1.766 14.311 1.766 14.311 7.344 21.383 7.344 21.383 1.766 14.311" style="fill: #000500"/>
    <polygon points="1.766 14.311 1.766 14.311 3.755 5.489 3.755 5.489 1.766 14.311" style="fill: #807c80"/>
    <polygon points="19.877 5.489 19.877 5.489 21.866 14.311 21.866 14.311 19.877 5.489" style="fill: #9a969a"/>
    <polygon points="1.208 14.43 1.208 14.43 3.309 5.141 3.309 5.141 1.208 14.43" style="fill: #000400"/>
    <polygon points="20.323 5.141 20.323 5.141 22.424 14.43 22.424 14.43 20.323 5.141" style="fill: #000500"/>
    <polygon points="11.816 1.568 11.816 1.568 19.877 5.489 19.877 5.489 11.816 1.568" style="fill: #9c989c"/>
    <polygon points="3.755 5.489 3.755 5.489 11.816 1.568 11.816 1.568 3.755 5.489" style="fill: #817e81"/>
    <path d="M20.32285,5.14072,22.424,14.42987,16.53893,21.896H7.09307L1.208,14.42987,3.30915,5.14072,11.816,1ZM16.28791,21.383l5.57826-7.07221L19.87659,5.48884,11.816,1.568,3.75541,5.48884,1.76583,14.31078,7.34409,21.383h8.94382" transform="translate(0 0)" style="fill: #000700"/>
    <polygon points="11.816 1.568 19.877 5.489 21.866 14.311 16.288 21.383 7.344 21.383 1.766 14.311 3.755 5.489 11.816 1.568" style="fill: #ddd7dd"/>
    <polygon points="11.816 1 11.816 1 20.323 5.141 20.323 5.141 11.816 1" style="fill: #000500"/>
    <polygon points="3.309 5.141 3.309 5.141 11.816 1 11.816 1 3.309 5.141" style="fill: #000400"/>
  </g>
  <path d="M12.195.252c.495,0,.819,1.107.819,2.655V9.225a1.14964,1.14964,0,0,1-2.277,0V2.907c0-1.494.324-2.655.81-2.655Z" transform="translate(0 0)" style="fill: #010000"/>
  <circle cx="12.00195" cy="11.96763" r="7.5" style="fill: none;stroke: #000800;stroke-miterlimit: 10"/>
</svg>
