<svg id="svg56722" xmlns="http://www.w3.org/2000/svg" viewBox="0 0 14.00007 20.64102"><title>MS_0</title><g id="layer1"><g id="g56714"><path id="path5785" d="M0,1.475A1.48059,1.48059,0,0,1,1.47518-.00006H12.525A1.48071,1.48071,0,0,1,14.00011,1.475V19.1669A1.47971,1.47971,0,0,1,12.525,20.641H1.47518A1.47975,1.47975,0,0,1,0,19.1669Z" transform="translate(-0.00004 0.00006)"/><g id="g5795"><g id="g5797"><path id="path5805" d="M2.19316,1.33279A.88609.88609,0,0,0,1.309,2.217h0V18.57426a.887.887,0,0,0,.88421.88522h9.61319a.88753.88753,0,0,0,.8832-.88522h0V2.217a.88658.88658,0,0,0-.8832-.88421H2.19316Z" transform="translate(-0.00004 0.00006)" style="fill:#282828"/></g></g><path id="path5815" d="M1.31,10.613H12.69056v8.84651H1.31Z" transform="translate(-0.00004 0.00006)" style="fill:#fff"/></g></g></svg>