<svg id="svg56722" xmlns="http://www.w3.org/2000/svg" viewBox="0 0 14 20.64111"><title>MS_1</title><g id="layer1"><g id="g56702"><g id="g5827"><path id="path5829" d="M0,1.47512A1.48066,1.48066,0,0,1,1.47514,0H12.52492A1.48066,1.48066,0,0,1,14,1.47512V19.16705a1.47977,1.47977,0,0,1-1.47511,1.47407H1.47514A1.47977,1.47977,0,0,1,0,19.16705Z" transform="translate(-0.00003 -0.00001)"/></g><g id="g5839"><g id="g5841"><path id="path5849" d="M2.19417,1.33289a.88789.88789,0,0,0-.8863.88421h0V18.57436a.88875.88875,0,0,0,.8863.88522h9.6111a.88774.88774,0,0,0,.88421-.88522h0V2.2171a.88679.88679,0,0,0-.88421-.88421H2.19417Z" transform="translate(-0.00003 -0.00001)" style="fill:#282828"/></g></g><path id="path5859" d="M1.31,1.33175h11.3806v8.84652H1.31Z" transform="translate(-0.00003 -0.00001)" style="fill:#fff"/></g></g></svg>