<svg id="svg15246" xmlns="http://www.w3.org/2000/svg" viewBox="0 0 26 26"><title>OutJack</title><circle cx="13" cy="13" r="12.5" style="stroke:#fff;stroke-miterlimit:10"/><g id="layer1"><path id="path7261" d="M21.36606,9.95251A9.22491,9.22491,0,1,1,9.91531,3.70125l.01939-.00568A9.16623,9.16623,0,0,1,21.33871,9.859l.02735.09349" transform="translate(0.5 0.5)" style="fill:#e6e6e6"/><path id="path7265" d="M10.19139,4.57682a8.25279,8.25279,0,0,1,4.71134,15.8189l-.09426.02747A8.25278,8.25278,0,0,1,10.10063,4.60327l.09076-.02645" transform="translate(0.5 0.5)" style="fill:#404040"/><path id="path7265-2" d="M10.8327,6.73768a5.99867,5.99867,0,1,1-4.095,7.42962l0-.00007a6.00043,6.00043,0,0,1,4.095-7.42955" transform="translate(0.5 0.5)"/></g></svg>