<svg id="Calque_1" data-name="Calque 1" xmlns="http://www.w3.org/2000/svg" xmlns:xlink="http://www.w3.org/1999/xlink" viewBox="0 0 121.11743 380.68409"><defs><clipPath id="clip-path" transform="translate(0.55871 0.34205)"><rect width="120" height="380" style="fill:none"/></clipPath><clipPath id="clip-path-2" transform="translate(0.55871 0.34205)"><rect x="0.28334" y="0.5" width="119.43333" height="379" style="fill:none"/></clipPath><linearGradient id="Dégradé_sans_nom" x1="-223.49586" y1="378.39334" x2="-222.49854" y2="378.39334" gradientTransform="translate(286643.23477 169227.90434) rotate(90) scale(757.36713)" gradientUnits="userSpaceOnUse"><stop offset="0" stop-color="#2d4b76"/><stop offset="0.00392" stop-color="#2d4b76"/><stop offset="0.0837" stop-color="#243c5f"/><stop offset="0.216" stop-color="#192841"/><stop offset="0.3548" stop-color="#101829"/><stop offset="0.501" stop-color="#090d17"/><stop offset="0.6595" stop-color="#05060d"/><stop offset="0.8529" stop-color="#04040a"/><stop offset="1" stop-color="#04040a"/></linearGradient><clipPath id="clip-path-4" transform="translate(0.55871 0.34205)"><path d="M17.82591,369.51854l1.13965.62a.42112.42112,0,0,1,.13694.10887l-1.13967-.62A.42139.42139,0,0,0,17.82591,369.51854Z" style="fill:none"/></clipPath><clipPath id="clip-path-5" transform="translate(0.55871 0.34205)"><path d="M18.689,370.61041l-1.13967-.62c.25954-.03648.408-.11573.43732-.23674l1.13965.62C19.09693,370.49469,18.94851,370.57394,18.689,370.61041Z" style="fill:none"/></clipPath><clipPath id="clip-path-6" transform="translate(0.55871 0.34205)"><path d="M18.18124,368.86008l1.13965.62a2.89725,2.89725,0,0,0-1.44979-.23513,22.62079,22.62079,0,0,0-2.37508.20906,26.12267,26.12267,0,0,0-4.37023,1.01551l-1.13968-.62a26.12137,26.12137,0,0,1,4.37025-1.01551,22.61542,22.61542,0,0,1,2.37508-.20906A2.89747,2.89747,0,0,1,18.18124,368.86008Z" style="fill:none"/></clipPath><clipPath id="clip-path-7" transform="translate(0.55871 0.34205)"><path d="M9.40685,373.24367l-1.13966-.62A13.66285,13.66285,0,0,1,14.28372,370.05a10.28691,10.28691,0,0,1,2.269-.06878,4.51681,4.51681,0,0,0,.9966.00926l1.13967.62a4.51732,4.51732,0,0,1-.9966-.00925,10.287,10.287,0,0,0-2.269.06877A13.66306,13.66306,0,0,0,9.40685,373.24367Z" style="fill:none"/></clipPath><clipPath id="clip-path-8" transform="translate(0.55871 0.34205)"><path d="M8.06837,373.82939l-1.13966-.62a.47233.47233,0,0,0,.20569.00877,2.71153,2.71153,0,0,0,1.13279-.5945l1.13966.62a2.71154,2.71154,0,0,1-1.13279.59451A.47226.47226,0,0,1,8.06837,373.82939Z" style="fill:none"/></clipPath><clipPath id="clip-path-9" transform="translate(0.55871 0.34205)"><path d="M7.98981,373.80142l-1.13968-.62a.26337.26337,0,0,0,.07858.028l1.13966.62A.26258.26258,0,0,1,7.98981,373.80142Z" style="fill:none"/></clipPath><clipPath id="clip-path-10" transform="translate(0.55871 0.34205)"><path d="M10.49212,371.01668l-1.13967-.62a9.31271,9.31271,0,0,1,.76124-4.54981l1.13966.62A9.31268,9.31268,0,0,0,10.49212,371.01668Z" style="fill:none"/></clipPath><clipPath id="clip-path-11" transform="translate(0.55871 0.34205)"><path d="M7.64267,374.4655l-1.13966-.62a1.07754,1.07754,0,0,1-.49529-.61906l1.13966.62A1.07746,1.07746,0,0,0,7.64267,374.4655Z" style="fill:none"/></clipPath><clipPath id="clip-path-12" transform="translate(0.55871 0.34205)"><path d="M9.71261,365.08929l1.13965.62c.56063.305.4674.5585.40109.75761l-1.13966-.62C10.18,365.64779,10.27322,365.39425,9.71261,365.08929Z" style="fill:none"/></clipPath><clipPath id="clip-path-13" transform="translate(0.55871 0.34205)"><path d="M10.07994,364.43579l1.13965.62c-.07891-.043-.15851-.08112-.23569-.11553l-1.13966-.62C9.92141,364.35469,10.001,364.39286,10.07994,364.43579Z" style="fill:none"/></clipPath><clipPath id="clip-path-14" transform="translate(0.55871 0.34205)"><path d="M7.14738,373.84646l-1.13966-.62c-.8282-2.51129-.36675-5.17785,1.36014-7.93584a2.24724,2.24724,0,0,1,1.52783-1.10857,1.75069,1.75069,0,0,1,.94855.1382l1.13966.62a1.75076,1.75076,0,0,0-.94855-.13819,2.24719,2.24719,0,0,0-1.52783,1.10856C6.78063,368.66861,6.31918,371.33517,7.14738,373.84646Z" style="fill:none"/></clipPath><clipPath id="clip-path-15" transform="translate(0.55871 0.34205)"><path d="M113.81988,369.51595l1.13966.62a.39473.39473,0,0,1,.13795.11261l-1.13967-.62A.39459.39459,0,0,0,113.81988,369.51595Z" style="fill:none"/></clipPath><clipPath id="clip-path-16" transform="translate(0.55871 0.34205)"><path d="M114.69084,370.61058l-1.13966-.62c.26067-.03664.40908-.11589.43845-.2369l1.13965.62C115.09993,370.4947,114.95151,370.574,114.69084,370.61058Z" style="fill:none"/></clipPath><clipPath id="clip-path-17" transform="translate(0.55871 0.34205)"><path d="M114.17714,368.85827l1.13966.62a2.90012,2.90012,0,0,0-1.45073-.23217,22.48289,22.48289,0,0,0-2.36956.20829,26.244,26.244,0,0,0-4.37573,1.01627l-1.13968-.62a26.24579,26.24579,0,0,1,4.37574-1.01627,22.48308,22.48308,0,0,1,2.36957-.20829A2.90011,2.90011,0,0,1,114.17714,368.85827Z" style="fill:none"/></clipPath><clipPath id="clip-path-18" transform="translate(0.55871 0.34205)"><path d="M105.40183,373.25345l-1.13967-.62a13.72927,13.72927,0,0,1,6.03081-2.58279,10.22188,10.22188,0,0,1,2.25473-.06837,4.59312,4.59312,0,0,0,1.00348.00829l1.13966.62a4.5924,4.5924,0,0,1-1.00347-.00829,10.222,10.222,0,0,0-2.25474.06838A13.72933,13.72933,0,0,0,105.40183,373.25345Z" style="fill:none"/></clipPath><clipPath id="clip-path-19" transform="translate(0.55871 0.34205)"><path d="M104.07137,373.8294l-1.13966-.62a.47671.47671,0,0,0,.20742.00879,2.69462,2.69462,0,0,0,1.123-.58473l1.13967.62a2.6946,2.6946,0,0,1-1.123.58473A.47664.47664,0,0,1,104.07137,373.8294Z" style="fill:none"/></clipPath><clipPath id="clip-path-20" transform="translate(0.55871 0.34205)"><path d="M103.98357,373.79986l-1.13968-.62a.268.268,0,0,0,.08782.02952l1.13966.62A.26733.26733,0,0,1,103.98357,373.79986Z" style="fill:none"/></clipPath><clipPath id="clip-path-21" transform="translate(0.55871 0.34205)"><path d="M106.49512,371.01669l-1.13967-.62a9.38792,9.38792,0,0,1,.75323-4.54868l1.13966.62A9.38794,9.38794,0,0,0,106.49512,371.01669Z" style="fill:none"/></clipPath><clipPath id="clip-path-22" transform="translate(0.55871 0.34205)"><path d="M103.64039,374.465l-1.13967-.62a1.07305,1.07305,0,0,1-.49-.61855l1.13966.62A1.07306,1.07306,0,0,0,103.64039,374.465Z" style="fill:none"/></clipPath><clipPath id="clip-path-23" transform="translate(0.55871 0.34205)"><path d="M105.72089,365.09632l1.13965.62c.554.30136.46094.55291.3878.7517l-1.13966-.62C106.18182,365.64925,106.2749,365.3977,105.72089,365.09632Z" style="fill:none"/></clipPath><clipPath id="clip-path-24" transform="translate(0.55871 0.34205)"><path d="M106.077,364.433l1.13965.62c-.077-.04188-.15451-.07915-.22975-.1127l-1.13966-.62C105.92248,364.35383,106,364.39111,106.077,364.433Z" style="fill:none"/></clipPath><clipPath id="clip-path-25" transform="translate(0.55871 0.34205)"><path d="M103.15038,373.84647l-1.13966-.62c-.8282-2.51129-.37478-5.17672,1.35212-7.92607a2.26021,2.26021,0,0,1,1.53387-1.1177,1.76741,1.76741,0,0,1,.95053.13755l1.13966.62a1.76741,1.76741,0,0,0-.95053-.13756,2.26024,2.26024,0,0,0-1.53387,1.1177C102.7756,368.66975,102.32218,371.33518,103.15038,373.84647Z" style="fill:none"/></clipPath></defs><title>PitchDiktat</title><g id="Panel_14_HP" data-name="Panel 14 HP"><g style="clip-path:url(#clip-path)"><g style="clip-path:url(#clip-path-2)"><rect x="0.84205" y="0.84205" width="119.43333" height="378.99999" style="fill:url(#Dégradé_sans_nom)"/></g><g style="clip-path:url(#clip-path)"><rect x="0.84205" y="0.84205" width="119.43333" height="378.99999" style="fill:none;stroke:#000;stroke-miterlimit:10;stroke-width:1.68410003185272px"/></g></g></g><path d="M23.28857,130.66257l1.958.00488a.97414.97414,0,1,1-.00488,1.94824l-1.94824.00488a1.95069,1.95069,0,1,0,.00488,3.90137H25.2417a.97414.97414,0,0,1,.00976,1.94824H23.29834q-3.906,0-3.91113-3.90625Q19.38721,130.65793,23.28857,130.66257Z" transform="translate(0.55871 0.34205)" style="fill:#fff"/><path d="M34.03076,130.6528a.99618.99618,0,0,1,.47852.12695.90881.90881,0,0,1,.36621.36133.98211.98211,0,0,1,.13183.48828A23.6391,23.6391,0,0,1,33.54,134.82028q-1.467,2.937-1.59668,3.16651a.92509.92509,0,0,1-.36133.35888.98152.98152,0,0,1-.48584.1294.99462.99462,0,0,1-.48828-.1294.90314.90314,0,0,1-.36133-.35888q-.12671-.22926-1.58691-3.16651a23.69849,23.69849,0,0,1-1.46-3.19092.98211.98211,0,0,1,.13183-.48828.912.912,0,0,1,.36377-.36133.96993.96993,0,0,1,.95948,0,.90881.90881,0,0,1,.36621.36133q.13183.23438,2.07519,4.2334,1.95777-3.999,2.08985-4.2334a.912.912,0,0,1,.36376-.36133A.99128.99128,0,0,1,34.03076,130.6528Z" transform="translate(0.55871 0.34205)" style="fill:#fff"/><path d="M41.82861,130.66257a.8788.8788,0,0,1,.99121.96679v5.86914a.97905.97905,0,1,1-1.958.00489v-5.86914A.85662.85662,0,0,1,41.82861,130.66257Z" transform="translate(0.55871 0.34205)" style="fill:#fff"/><path d="M44.88525,130.67233a1.19762,1.19762,0,0,1,.84961.40039l2.92481,3.73047v-3.27637a.76377.76377,0,0,1,.83008-.85449q1.09863.01466,1.10839.874l.00977,6.07421q-.00952.84009-1.11816.84961a1.00421,1.00421,0,0,1-.81543-.40039l-2.93946-3.7207v3.27148a.75648.75648,0,0,1-.84961.84961q-1.10376.00513-1.10839-.85937v-6.08887Q43.77173,130.67745,44.88525,130.67233Z" transform="translate(0.55871 0.34205)" style="fill:#fff"/><path d="M99.07324,35.32077H102.501a2.51835,2.51835,0,0,1,2.42675,2.43164,3.60488,3.60488,0,0,1-.36914,1.70654,1.23768,1.23768,0,0,1-1.11035.72022l1.20606,1.2207a1.02569,1.02569,0,0,1,.28808.75684.86647.86647,0,0,1-.97656.97168,1.33547,1.33547,0,0,1-.98144-.47852L101.03125,40.228a1.53055,1.53055,0,0,1-.49805-1.00586.86669.86669,0,0,1,.98633-.98145l.69336-.00488q.77051.00952.76172-.47363,0-.48341-.7666-.4834h-2.15332v4.873a.86308.86308,0,0,1-.98145.97657.85339.85339,0,0,1-.97656-.9668v-5.874A.86627.86627,0,0,1,99.07324,35.32077Z" transform="translate(0.55871 0.34205)" style="fill:#fff"/><path d="M91.26367,66.14206a.86521.86521,0,0,1,.97656-.98145h.50293l-.00488-3.88671a.83974.83974,0,0,1-.957-.97168.87787.87787,0,0,1,.9668-.97168h.98144a.84845.84845,0,0,1,.9668.95214l-.00488,4.87793h.49316a.89077.89077,0,0,1,.98633,1.01075.83569.83569,0,0,1-.918.94726l-3.0127.00977A.88052.88052,0,0,1,91.26367,66.14206Z" transform="translate(0.55871 0.34205)" style="fill:#fff"/><path d="M103.97852,60.29733a.85352.85352,0,0,1-.94239.98145l-2.97363-.00488q-.9873.00951-.99609.498.01464.46362,1.001.459h.96192q2.94433.00951,2.959,2.47558,0,2.39723-2.9541,2.41211H98.09961a.95951.95951,0,1,1-.00977-1.91894l2.94434-.01465q.98584-.00513.98633-.50293,0-.498-.9961-.49317h-.96191q-2.93555-.00512-2.93457-2.417-.0205-2.44629,2.93457-2.45117h2.93945A.87123.87123,0,0,1,103.97852,60.29733Z" transform="translate(0.55871 0.34205)" style="fill:#fff"/><path d="M105.90723,59.311l4.9414.00977a.83569.83569,0,0,1,.918.94727.89077.89077,0,0,1-.98633,1.01074h-1.46l.00489,4.87793a.87412.87412,0,0,1-.98145.97168.8504.8504,0,0,1-.97656-.94727l.00488-4.90234h-1.46484a.86521.86521,0,0,1-.97657-.98145A.88053.88053,0,0,1,105.90723,59.311Z" transform="translate(0.55871 0.34205)" style="fill:#fff"/><path d="M98.10938,87.227a.856.856,0,0,1-.97657.97168l-3.91113-.00488q.00879.98144,1.46.98633l2.45606-.00977a.87411.87411,0,0,1,.97168.98144.86349.86349,0,0,1-.97657.97657H94.69629q-3.42774-.00513-3.43262-3.90625a.868.868,0,0,1,.97656-.97657l3.91114.00489q0-.97632-1.44532-.97168H92.25a.89641.89641,0,0,1-.98633-.98633.8755.8755,0,0,1,.98633-.97168h2.43652Q98.104,83.31564,98.10938,87.227Z" transform="translate(0.55871 0.34205)" style="fill:#fff"/><path d="M105.92676,84.29733a.85351.85351,0,0,1-.94238.98145l-2.97364-.00488q-.9873.00951-.99609.498.01464.46362,1.001.459h.96191q2.94433.00951,2.959,2.47558,0,2.39723-2.9541,2.41211h-2.93457a.95951.95951,0,1,1-.00976-1.91894l2.94433-.01465q.98584-.00513.98633-.50293,0-.498-.99609-.49317h-.96192q-2.93555-.00512-2.93457-2.417-.0205-2.44629,2.93457-2.45117h2.93946A.87122.87122,0,0,1,105.92676,84.29733Z" transform="translate(0.55871 0.34205)" style="fill:#fff"/><path d="M107.85547,83.311l4.94141.00977a.83569.83569,0,0,1,.918.94727.89077.89077,0,0,1-.98632,1.01074h-1.46l.00489,4.87793a.87412.87412,0,0,1-.98145.97168.8504.8504,0,0,1-.97656-.94727l.00488-4.90234h-1.46484a.8652.8652,0,0,1-.97656-.98145A.88052.88052,0,0,1,107.85547,83.311Z" transform="translate(0.55871 0.34205)" style="fill:#fff"/><path d="M92.24023,107.32077h3.418a2.36035,2.36035,0,0,1,1.71094.73242,2.302,2.302,0,0,1,.73047,1.71143,1.93028,1.93028,0,0,1-.50781,1.44775,1.94983,1.94983,0,0,1,.50976,1.47217,2.37469,2.37469,0,0,1-.74218,1.7041,2.26491,2.26491,0,0,1-1.64258.73975H92.23047a.96926.96926,0,1,1,.00976-1.93848l3.40821-.01953a.4883.4883,0,1,0,.00976-.97656l-1.47949-.00489q-.9873,0-.98144-1.03027,0-.92284.97656-.91309l1.48437.00489q.4878,0,.47364-.53711.01464-.42993-.47364-.43457h-3.418a.979.979,0,0,1,0-1.958Z" transform="translate(0.55871 0.34205)" style="fill:#fff"/><path d="M105.92676,108.29733a.85351.85351,0,0,1-.94238.98145l-2.97364-.00488q-.9873.00951-.99609.498.01464.46362,1.001.459h.96191q2.94433.00951,2.959,2.47558,0,2.39723-2.9541,2.41211h-2.93457a.95951.95951,0,1,1-.00976-1.91894l2.94433-.01465q.98584-.00513.98633-.50293,0-.498-.99609-.49317h-.96192q-2.93555-.00512-2.93457-2.417-.0205-2.44629,2.93457-2.45117h2.93946A.87122.87122,0,0,1,105.92676,108.29733Z" transform="translate(0.55871 0.34205)" style="fill:#fff"/><path d="M107.85547,107.311l4.94141.00977a.83569.83569,0,0,1,.918.94727.89077.89077,0,0,1-.98632,1.01074h-1.46l.00489,4.87793a.87412.87412,0,0,1-.98145.97168.8504.8504,0,0,1-.97656-.94727l.00488-4.90234h-1.46484a.8652.8652,0,0,1-.97656-.98145A.88052.88052,0,0,1,107.85547,107.311Z" transform="translate(0.55871 0.34205)" style="fill:#fff"/><path d="M92.24512,139.13327a1.00784,1.00784,0,0,1-.48145-.12451.89858.89858,0,0,1-.36328-.35889.99183.99183,0,0,1-.13184-.49316,11.36058,11.36058,0,0,1,.94239-2.15332q.9419-1.89918,1.06933-2.13135a.894.894,0,0,1,.36133-.36133.99334.99334,0,0,1,.48828-.12939.97982.97982,0,0,1,.48535.12939.91211.91211,0,0,1,.36133.36133,1.14043,1.14043,0,0,1,.1416.52,14.557,14.557,0,0,1-1.29589,2.77344h2.31445l-.00488-4.90235a.86414.86414,0,0,1,.98144-.96191.87412.87412,0,0,1,.99121.96191l-.00976,7.83692a.97906.97906,0,1,1-1.958.00488v-.97168Z" transform="translate(0.55871 0.34205)" style="fill:#fff"/><path d="M105.92676,132.29733a.85351.85351,0,0,1-.94238.98145l-2.97364-.00488q-.9873.00951-.99609.498.01464.46362,1.001.459h.96191q2.94433.00951,2.959,2.47558,0,2.39723-2.9541,2.41211h-2.93457a.95951.95951,0,1,1-.00976-1.91894l2.94433-.01465q.98584-.00513.98633-.50293,0-.498-.99609-.49317h-.96192q-2.93555-.00512-2.93457-2.417-.0205-2.44629,2.93457-2.45117h2.93946A.87122.87122,0,0,1,105.92676,132.29733Z" transform="translate(0.55871 0.34205)" style="fill:#fff"/><path d="M107.85547,131.311l4.94141.00977a.83569.83569,0,0,1,.918.94727.89077.89077,0,0,1-.98632,1.01074h-1.46l.00489,4.87793a.87412.87412,0,0,1-.98145.97168.8504.8504,0,0,1-.97656-.94727l.00488-4.90234h-1.46484a.8652.8652,0,0,1-.97656-.98145A.88052.88052,0,0,1,107.85547,131.311Z" transform="translate(0.55871 0.34205)" style="fill:#fff"/><path d="M92.25488,155.32077h4.87305a.87631.87631,0,0,1,.98633.97168.89685.89685,0,0,1-.98633.98633H93.2168l-.01465.98633,3.93555-.01954a.86882.86882,0,0,1,.97656.97657q-.00587,3.9016-3.43262,3.90625H92.24512a.86271.86271,0,0,1-.97657-.97657.8737.8737,0,0,1,.97168-.98144l2.45606.00977q1.4502-.00513,1.46-.98633l-3.91113.00488a.85566.85566,0,0,1-.97657-.97168l-.00488-2.93457A.8699.8699,0,0,1,92.25488,155.32077Z" transform="translate(0.55871 0.34205)" style="fill:#fff"/><path d="M105.92676,156.29733a.85351.85351,0,0,1-.94238.98145l-2.97364-.00488q-.9873.00951-.99609.498.01464.46362,1.001.459h.96191q2.94433.00951,2.959,2.47558,0,2.39723-2.9541,2.41211h-2.93457a.95951.95951,0,1,1-.00976-1.91894l2.94433-.01465q.98584-.00513.98633-.50293,0-.498-.99609-.49317h-.96192q-2.93555-.00512-2.93457-2.417-.0205-2.44629,2.93457-2.45117h2.93946A.87122.87122,0,0,1,105.92676,156.29733Z" transform="translate(0.55871 0.34205)" style="fill:#fff"/><path d="M107.85547,155.311l4.94141.00977a.83569.83569,0,0,1,.918.94727.89077.89077,0,0,1-.98632,1.01074h-1.46l.00489,4.87793a.87412.87412,0,0,1-.98145.97168.8504.8504,0,0,1-.97656-.94727l.00488-4.90234h-1.46484a.8652.8652,0,0,1-.97656-.98145A.88052.88052,0,0,1,107.85547,155.311Z" transform="translate(0.55871 0.34205)" style="fill:#fff"/><path d="M94.19336,179.32077h2.45605a.86443.86443,0,0,1,.97168.97168.85453.85453,0,0,1-.96191.97656H94.19336a.441.441,0,0,0-.49316.49317l.00488.48828,2.4414-.00489a2.39126,2.39126,0,0,1,1.72071.74463,2.30521,2.30521,0,0,1,.72558,1.70411,2.39058,2.39058,0,0,1-.73047,1.70166,2.2786,2.2786,0,0,1-1.70605.72265l-1.96289.00488a2.50295,2.50295,0,0,1-2.44141-2.44628v-2.94434a2.50854,2.50854,0,0,1,2.44141-2.41211ZM93.71,184.1987v.4834q.0044.498.4834.49805H96.166a.44141.44141,0,0,0,.49316-.49317q.00439-.49291-.50293-.48828Z" transform="translate(0.55871 0.34205)" style="fill:#fff"/><path d="M106.41992,180.29733a.85351.85351,0,0,1-.94238.98145l-2.97363-.00488q-.98732.00951-.9961.498.01465.46362,1.001.459h.96191q2.94433.00951,2.959,2.47558,0,2.39723-2.9541,2.41211H100.541a.95951.95951,0,1,1-.00977-1.91894l2.94434-.01465q.98583-.00513.98632-.50293,0-.498-.99609-.49317h-.96191q-2.93555-.00512-2.93457-2.417-.02052-2.44629,2.93457-2.45117h2.93945A.87122.87122,0,0,1,106.41992,180.29733Z" transform="translate(0.55871 0.34205)" style="fill:#fff"/><path d="M108.34863,179.311l4.94141.00977a.83569.83569,0,0,1,.918.94727.89077.89077,0,0,1-.98633,1.01074h-1.46l.00488,4.87793a.8741.8741,0,0,1-.98144.97168.8504.8504,0,0,1-.97657-.94727l.00489-4.90234h-1.46485a.86521.86521,0,0,1-.97656-.98145A.88052.88052,0,0,1,108.34863,179.311Z" transform="translate(0.55871 0.34205)" style="fill:#fff"/><path d="M97.14258,203.33054a1.0043,1.0043,0,0,1,.46875.11718.8638.8638,0,0,1,.35644.35157.98078.98078,0,0,1,.13184.48828,23.65635,23.65635,0,0,1-1.46777,3.19043q-1.46631,2.937-1.59668,3.167a.91764.91764,0,0,1-.36133.3584.97532.97532,0,0,1-.48535.12988.98869.98869,0,0,1-.48828-.12988.899.899,0,0,1-.36133-.3584,1.00485,1.00485,0,0,1-.13184-.47363q0-.21974,2.34375-4.89258h-3.2959a.87351.87351,0,0,1-.98144-.97656.853.853,0,0,1,.97168-.97168Z" transform="translate(0.55871 0.34205)" style="fill:#fff"/><path d="M105.93164,204.29733a.8539.8539,0,0,1-.94238.98145l-2.97363-.00488q-.98731.00878-.9961.498.01466.4629,1.001.459h.96191q2.94434.00879,2.959,2.47558,0,2.39649-2.95411,2.41211h-2.93457a.95951.95951,0,1,1-.00976-1.91894l2.94433-.01465q.98584-.00587.98633-.50293,0-.498-.99609-.49317h-.96191q-2.93556-.00585-2.93458-2.417-.02051-2.44629,2.93458-2.45117h2.93945A.87082.87082,0,0,1,105.93164,204.29733Z" transform="translate(0.55871 0.34205)" style="fill:#fff"/><path d="M107.86035,203.311l4.94141.00977a.83549.83549,0,0,1,.918.94727.89077.89077,0,0,1-.98633,1.01074h-1.46l.00488,4.87793a.87452.87452,0,0,1-.98144.97168.8506.8506,0,0,1-.97657-.94727l.00489-4.90234h-1.46485a.8652.8652,0,0,1-.97656-.98145A.88031.88031,0,0,1,107.86035,203.311Z" transform="translate(0.55871 0.34205)" style="fill:#fff"/><path d="M93.69531,227.32077H95.6582a2.36035,2.36035,0,0,1,1.71094.73242,2.30175,2.30175,0,0,1,.73047,1.71094,1.93073,1.93073,0,0,1-.50781,1.44824,1.94865,1.94865,0,0,1,.50976,1.47168,2.37386,2.37386,0,0,1-.74218,1.7041,2.26549,2.26549,0,0,1-1.64258.74024H93.7002a2.2981,2.2981,0,0,1-1.70215-.73047,2.3586,2.3586,0,0,1-.73438-1.71094,1.96733,1.96733,0,0,1,.49317-1.46,2.0056,2.0056,0,0,1-.49317-1.47461,2.286,2.286,0,0,1,.73438-1.67969A2.46075,2.46075,0,0,1,93.69531,227.32077Zm1.95313,5.84961a.4883.4883,0,0,0,.00976-.97656H93.69531a.43336.43336,0,0,0-.49316.48828q.01464.50684.49316.49805Zm.00976-2.91992c.3252,0,.4834-.17969.47364-.53711q.01464-.43066-.47364-.43457H93.69531a.48585.48585,0,1,0,0,.97168Z" transform="translate(0.55871 0.34205)" style="fill:#fff"/><path d="M105.92676,228.29733a.85391.85391,0,0,1-.94238.98145l-2.97364-.00488q-.9873.00878-.99609.498.01464.4629,1.001.459h.96191q2.94433.00879,2.959,2.47558,0,2.39649-2.9541,2.41211h-2.93457a.95951.95951,0,1,1-.00976-1.91894l2.94433-.01465q.98584-.00587.98633-.50293,0-.498-.99609-.49317h-.96192q-2.93555-.00585-2.93457-2.417-.0205-2.44629,2.93457-2.45117h2.93946A.87082.87082,0,0,1,105.92676,228.29733Z" transform="translate(0.55871 0.34205)" style="fill:#fff"/><path d="M107.85547,227.311l4.94141.00977a.83549.83549,0,0,1,.918.94727.89077.89077,0,0,1-.98632,1.01074h-1.46l.00489,4.87793a.87453.87453,0,0,1-.98145.97168.8506.8506,0,0,1-.97656-.94727l.00488-4.90234h-1.46484a.8652.8652,0,0,1-.97656-.98145A.88031.88031,0,0,1,107.85547,227.311Z" transform="translate(0.55871 0.34205)" style="fill:#fff"/><path d="M94.93555,259.1235H92.47949a.97416.97416,0,0,1-.00976-1.94824h2.46582a.4416.4416,0,0,0,.49316-.49316l-.00488-.4834H92.98242a2.3841,2.3841,0,0,1-1.71875-.74512,2.31469,2.31469,0,0,1-.72558-1.7041,2.39309,2.39309,0,0,1,.72754-1.7041,2.26192,2.26192,0,0,1,1.707-.71973l1.96289-.00488a2.49936,2.49936,0,0,1,2.4414,2.44629v2.94922a2.507,2.507,0,0,1-2.4414,2.40722Zm.4834-4.87793v-.48339c0-.332-.16016-.49805-.47852-.49805H92.96289a.43566.43566,0,0,0-.48828.49316.43078.43078,0,0,0,.49805.48828Z" transform="translate(0.55871 0.34205)" style="fill:#fff"/><path d="M105.19922,252.29733a.8539.8539,0,0,1-.94238.98145l-2.97364-.00488q-.9873.00878-.99609.498.01466.4629,1.001.459H102.25q2.94433.00879,2.959,2.47558,0,2.39649-2.9541,2.41211H99.32031a.95951.95951,0,1,1-.00976-1.91894l2.94433-.01465q.98584-.00586.98633-.50293,0-.498-.99609-.49317h-.96192q-2.93554-.00585-2.93457-2.417-.0205-2.44629,2.93457-2.45117h2.93946A.87082.87082,0,0,1,105.19922,252.29733Z" transform="translate(0.55871 0.34205)" style="fill:#fff"/><path d="M107.12793,251.311l4.94141.00977a.83549.83549,0,0,1,.918.94727.89077.89077,0,0,1-.98632,1.01074h-1.46l.00488,4.87793a.87453.87453,0,0,1-.98145.97168.8506.8506,0,0,1-.97656-.94727l.00488-4.90234h-1.46484a.8652.8652,0,0,1-.97656-.98145A.88031.88031,0,0,1,107.12793,251.311Z" transform="translate(0.55871 0.34205)" style="fill:#fff"/><path d="M86.86621,282.14206a.86559.86559,0,0,1,.97656-.98145h.50293l-.00488-3.88671a.84028.84028,0,0,1-.957-.97168.87853.87853,0,0,1,.9668-.97168H89.332a.84729.84729,0,0,1,.9668.95214l-.00488,4.87793h.49316a.89037.89037,0,0,1,.98633,1.01075.83506.83506,0,0,1-.918.94726l-3.0127.00977A.88156.88156,0,0,1,86.86621,282.14206Z" transform="translate(0.55871 0.34205)" style="fill:#fff"/><path d="M96.63184,275.32077a3.9955,3.9955,0,0,1,1.92187.50488,3.647,3.647,0,0,1,1.46484,1.44532,3.91527,3.91527,0,0,1,.01465,3.90625,3.62528,3.62528,0,0,1-1.44824,1.44531,3.93845,3.93845,0,0,1-3.89648,0,3.62284,3.62284,0,0,1-1.44727-1.44531,3.93433,3.93433,0,0,1,.00684-3.90625,3.59443,3.59443,0,0,1,1.458-1.44532A4.00178,4.00178,0,0,1,96.63184,275.32077Zm-.95411,2.19434a1.80658,1.80658,0,0,0-.73046.72265,1.96147,1.96147,0,0,0-.00489,1.95606,1.838,1.838,0,0,0,.72559.72265,1.96275,1.96275,0,0,0,1.94824,0,1.83545,1.83545,0,0,0,.72461-.72265,1.96591,1.96591,0,0,0,.25879-.97168,1.99,1.99,0,0,0-.26367-.98438,1.80534,1.80534,0,0,0-.73242-.72265,1.97258,1.97258,0,0,0-1.92579,0Zm.95411.75a.97928.97928,0,0,1,.47656.127.91583.91583,0,0,1,.36328.3584.97043.97043,0,0,1,.00293.97168.90872.90872,0,0,1-.35938.35937.98757.98757,0,0,1-.48339.127,1.00328,1.00328,0,0,1-.48536-.127.88453.88453,0,0,1-.35937-.35937.98327.98327,0,0,1,.00293-.97168.89275.89275,0,0,1,.36133-.3584A.98267.98267,0,0,1,96.63184,278.26511Z" transform="translate(0.55871 0.34205)" style="fill:#fff"/><path d="M108.375,276.29733a.85351.85351,0,0,1-.94238.98145l-2.97364-.00488q-.98583.00877-.99609.498.01466.4629,1.001.459h.96191q2.94433.00879,2.959,2.47558,0,2.39649-2.95411,2.41211h-2.93457a.95951.95951,0,1,1-.00976-1.91894l2.94433-.01465q.98731-.00586.98633-.50293,0-.498-.99609-.49317H104.459q-2.93407-.00585-2.93457-2.417-.019-2.44629,2.93457-2.45117h2.93946A.87042.87042,0,0,1,108.375,276.29733Z" transform="translate(0.55871 0.34205)" style="fill:#fff"/><path d="M110.30371,275.311l4.94141.00977a.83467.83467,0,0,1,.918.94727.89036.89036,0,0,1-.98633,1.01074h-1.46l.00488,4.87793a.87371.87371,0,0,1-.98145.97168.851.851,0,0,1-.97656-.94727l.00488-4.90234h-1.46484a.86559.86559,0,0,1-.97656-.98145A.88115.88115,0,0,1,110.30371,275.311Z" transform="translate(0.55871 0.34205)" style="fill:#fff"/><path d="M88.33105,306.14206a.8656.8656,0,0,1,.97657-.98145h.50293l-.00489-3.88671a.84028.84028,0,0,1-.957-.97168.87853.87853,0,0,1,.9668-.97168h.98145a.84728.84728,0,0,1,.96679.95214l-.00488,4.87793h.49316a.89036.89036,0,0,1,.98633,1.01075.83506.83506,0,0,1-.918.94726l-3.01269.00977A.88157.88157,0,0,1,88.33105,306.14206Z" transform="translate(0.55871 0.34205)" style="fill:#fff"/><path d="M94.19531,306.14206a.86559.86559,0,0,1,.97657-.98145h.50292l-.00488-3.88671a.84028.84028,0,0,1-.957-.97168.87853.87853,0,0,1,.9668-.97168h.98144a.84729.84729,0,0,1,.9668.95214l-.00488,4.87793h.49316a.89037.89037,0,0,1,.98633,1.01075.83506.83506,0,0,1-.918.94726l-3.01269.00977A.88156.88156,0,0,1,94.19531,306.14206Z" transform="translate(0.55871 0.34205)" style="fill:#fff"/><path d="M106.91016,300.29733a.85351.85351,0,0,1-.94239.98145l-2.97363-.00488q-.98584.00877-.99609.498.01464.4629,1.001.459h.96192q2.94433.00879,2.959,2.47558,0,2.39649-2.9541,2.41211h-2.93457a.95951.95951,0,1,1-.00977-1.91894l2.94434-.01465q.9873-.00586.98633-.50293,0-.498-.9961-.49317h-.96191q-2.93408-.00585-2.93457-2.417-.019-2.44629,2.93457-2.45117h2.93945A.87042.87042,0,0,1,106.91016,300.29733Z" transform="translate(0.55871 0.34205)" style="fill:#fff"/><path d="M108.83887,299.311l4.9414.00977a.83466.83466,0,0,1,.918.94727.89036.89036,0,0,1-.98633,1.01074h-1.46l.00489,4.87793a.87371.87371,0,0,1-.98145.97168.851.851,0,0,1-.97656-.94727l.00488-4.90234h-1.46484a.8656.8656,0,0,1-.97657-.98145A.88116.88116,0,0,1,108.83887,299.311Z" transform="translate(0.55871 0.34205)" style="fill:#fff"/><path d="M14.99023,175.65329l4.94141.00977a.83527.83527,0,0,1,.918.94726.89056.89056,0,0,1-.98633,1.01074h-1.46l.00488,4.87793a.87369.87369,0,0,1-.98144.97168.85059.85059,0,0,1-.97656-.94726l.00488-4.90235H14.99023a.8654.8654,0,0,1-.97656-.98144A.88094.88094,0,0,1,14.99023,175.65329Z" transform="translate(0.55871 0.34205)" style="fill:#fff"/><path d="M22.80273,175.66306h3.42774a2.51835,2.51835,0,0,1,2.42676,2.43164,3.61088,3.61088,0,0,1-.36866,1.70654,1.23836,1.23836,0,0,1-1.11084.72021l1.20606,1.22071a1.02372,1.02372,0,0,1,.28809.75683.86629.86629,0,0,1-.97657.97168,1.33546,1.33546,0,0,1-.98144-.47851l-1.95313-2.42188a1.535,1.535,0,0,1-.498-1.00586.86687.86687,0,0,1,.98632-.98144l.69336-.00489q.77124.00952.76172-.47363,0-.48339-.7666-.4834H23.78418v4.87305a.86269.86269,0,0,1-.98145.97656.85358.85358,0,0,1-.97656-.96679v-5.874A.86667.86667,0,0,1,22.80273,175.66306Z" transform="translate(0.55871 0.34205)" style="fill:#fff"/><path d="M30.61035,175.66306a.8788.8788,0,0,1,.99121.96679V182.499a.97906.97906,0,1,1-1.958.00489v-5.86914A.85662.85662,0,0,1,30.61035,175.66306Z" transform="translate(0.55871 0.34205)" style="fill:#fff"/><path d="M36.46,175.66306l1.96289-.00489a.87114.87114,0,0,1,.9668.98633.84322.84322,0,0,1-.96192.95215l-1.958.00976a2.00912,2.00912,0,0,0-.96436.25147,1.80238,1.80238,0,0,0-.73.72266,1.96056,1.96056,0,0,0-.00488,1.95556,1.83042,1.83042,0,0,0,.7251.72266,1.98279,1.98279,0,0,0,.97412.25879,2.425,2.425,0,0,0,1.02783-.2417,1.49874,1.49874,0,0,0,.75439-.74951h-.81543a.86131.86131,0,0,1-.99121-.957.87774.87774,0,0,1,.97657-.99122l1.96289.00977a.8874.8874,0,0,1,.99121.98633,3.96256,3.96256,0,0,1-.51514,1.9458,3.627,3.627,0,0,1-1.44775,1.44531,3.94165,3.94165,0,0,1-3.89649,0A3.627,3.627,0,0,1,33.06885,181.52a3.93591,3.93591,0,0,1,.00732-3.90625,3.59024,3.59024,0,0,1,1.45752-1.44531A4.00412,4.00412,0,0,1,36.46,175.66306Z" transform="translate(0.55871 0.34205)" style="fill:#fff"/><path d="M47.20215,175.66306a.8788.8788,0,0,1,.99121.96679V182.499a.97906.97906,0,1,1-1.958.00489v-5.86914A.85662.85662,0,0,1,47.20215,175.66306Z" transform="translate(0.55871 0.34205)" style="fill:#fff"/><path d="M50.25879,175.67282a1.19764,1.19764,0,0,1,.84961.40039l2.9248,3.73047v-3.27637a.76377.76377,0,0,1,.83008-.85449q1.09863.01466,1.1084.874l.00977,6.07422q-.00953.84009-1.11817.84961a1.00428,1.00428,0,0,1-.81543-.40039l-2.93945-3.7207v3.27148a.75648.75648,0,0,1-.84961.84961q-1.10376.00513-1.1084-.85937v-6.08887Q49.14526,175.67795,50.25879,175.67282Z" transform="translate(0.55871 0.34205)" style="fill:#fff"/><path d="M24.77246,221.63913a.85271.85271,0,0,1-.94238.98144l-2.97363-.00488q-.98584.01026-.9961.49805.01466.46435,1.001.459h.96191q2.94434.01026,2.959,2.47559,0,2.39795-2.9541,2.41211H18.89355a.95952.95952,0,1,1-.00976-1.91895l2.94434-.01465q.9873-.00438.98632-.50292,0-.49806-.99609-.49317h-.96191q-2.93409-.00439-2.93457-2.417-.01905-2.44629,2.93457-2.45117H23.7959A.87122.87122,0,0,1,24.77246,221.63913Z" transform="translate(0.55871 0.34205)" style="fill:#fff"/><path d="M26.70117,220.6528q.98145.0249.99121.957l-.00976,4.90235h3.88183a.8744.8744,0,0,1,.98633.98632.864.864,0,0,1-.9668.97168H26.70117a.85332.85332,0,0,1-.97656-.94726v-5.88379A.88156.88156,0,0,1,26.70117,220.6528Z" transform="translate(0.55871 0.34205)" style="fill:#fff"/><path d="M34.50391,220.66257a.879.879,0,0,1,.99121.96679v5.86914a.97906.97906,0,1,1-1.958.00489v-5.86914A.85721.85721,0,0,1,34.50391,220.66257Z" transform="translate(0.55871 0.34205)" style="fill:#fff"/><path d="M37.42871,220.66257H40.3584q3.91113.00585,3.91113,3.90625-.0044,3.89208-3.80859,3.90136H37.42871a.85791.85791,0,0,1-.97656-.97656v-5.85449A.8688.8688,0,0,1,37.42871,220.66257Zm.98145,1.958v3.89161h1.958a1.94583,1.94583,0,0,0-.00488-3.89161Z" transform="translate(0.55871 0.34205)" style="fill:#fff"/><path d="M46.22266,220.6528l4.9414.00977a.83506.83506,0,0,1,.918.94726.89035.89035,0,0,1-.98633,1.01074H47.2041v3.89161h3.88184a.8744.8744,0,0,1,.98633.98632.864.864,0,0,1-.9668.97168H46.22266a.85333.85333,0,0,1-.97657-.94726v-5.88379A.88157.88157,0,0,1,46.22266,220.6528Zm1.45019,3.93555a.87943.87943,0,0,1,.9668-.99121h1.96289a.97906.97906,0,1,1,.00488,1.958H48.64453A.85643.85643,0,0,1,47.67285,224.58835Z" transform="translate(0.55871 0.34205)" style="fill:#fff"/><path d="M11.084,265.6528l4.94141.00977a.83547.83547,0,0,1,.918.94726.89056.89056,0,0,1-.98633,1.01074h-1.46l.00488,4.87793a.87328.87328,0,0,1-.98144.97168.85039.85039,0,0,1-.97656-.94726l.00488-4.90235H11.084a.86539.86539,0,0,1-.97656-.98144A.88114.88114,0,0,1,11.084,265.6528Z" transform="translate(0.55871 0.34205)" style="fill:#fff"/><path d="M18.89648,265.66257h3.42774a2.51929,2.51929,0,0,1,2.42676,2.43164,3.61292,3.61292,0,0,1-.36866,1.707,1.23707,1.23707,0,0,1-1.11084.71973l1.20606,1.2207a1.02449,1.02449,0,0,1,.28809.75683.86588.86588,0,0,1-.97657.97168,1.33369,1.33369,0,0,1-.98144-.47851l-1.95313-2.42188a1.534,1.534,0,0,1-.498-1.00586.86726.86726,0,0,1,.98632-.98144l.69336-.00488q.77124.01024.76172-.47364,0-.48339-.7666-.4834H19.87793v4.87305a.8625.8625,0,0,1-.98145.97656.8532.8532,0,0,1-.97656-.96679v-5.874A.86707.86707,0,0,1,18.89648,265.66257Z" transform="translate(0.55871 0.34205)" style="fill:#fff"/><path d="M26.71387,273.47507a1.004,1.004,0,0,1-.481-.124.89788.89788,0,0,1-.36377-.35937.99049.99049,0,0,1-.13184-.49317,23.73022,23.73022,0,0,1,1.46-3.18847q1.45971-2.93409,1.58691-3.166a.891.891,0,0,1,.36133-.36133.99007.99007,0,0,1,.48828-.12988.97711.97711,0,0,1,.48584.12988.9123.9123,0,0,1,.36133.36133q.12963.23145,1.59668,3.166a23.67142,23.67142,0,0,1,1.46728,3.18847.99048.99048,0,0,1-.13183.49317.89488.89488,0,0,1-.36621.35937,1.00887,1.00887,0,0,1-.47852.124Zm4.25781-1.96778-1.33789-2.749-1.34277,2.749Z" transform="translate(0.55871 0.34205)" style="fill:#fff"/><path d="M35.625,265.67233a1.20146,1.20146,0,0,1,.84961.40039l2.9248,3.73047v-3.27637a.764.764,0,0,1,.83008-.85449q1.09863.01466,1.1084.874l.00977,6.07421q-.00952.84083-1.11817.84961a1.00289,1.00289,0,0,1-.81543-.40039l-2.93945-3.7207v3.27148a.75608.75608,0,0,1-.84961.84961q-1.10376.00586-1.1084-.85937v-6.08887Q34.51147,265.67819,35.625,265.67233Z" transform="translate(0.55871 0.34205)" style="fill:#fff"/><path d="M49.17969,266.63913a.85291.85291,0,0,1-.94239.98144l-2.97363-.00488q-.98656.01026-.99609.49805.01464.46436,1.001.459h.96192q2.94434.01026,2.959,2.47559,0,2.39794-2.9541,2.41211H43.30078a.95952.95952,0,1,1-.00976-1.91895l2.94433-.01465q.98658-.00438.98633-.50292,0-.49806-.99609-.49317h-.96192q-2.93481-.00439-2.93457-2.417-.01977-2.44629,2.93457-2.45117h2.93946A.87142.87142,0,0,1,49.17969,266.63913Z" transform="translate(0.55871 0.34205)" style="fill:#fff"/><path d="M51.11328,265.66257H54.541a2.36174,2.36174,0,0,1,1.687.72265,2.28667,2.28667,0,0,1,.73974,1.709,2.33594,2.33594,0,0,1-.73,1.72851,2.38528,2.38528,0,0,1-1.73095.71778l-.96192.00976a.98392.98392,0,0,1,.01465-1.96777l.69336-.00488q.77124.01024.76172-.47364,0-.48339-.7666-.4834H52.09473v4.87305a.8625.8625,0,0,1-.98145.97656.85319.85319,0,0,1-.97656-.96679v-5.874A.86707.86707,0,0,1,51.11328,265.66257Z" transform="translate(0.55871 0.34205)" style="fill:#fff"/><path d="M58.9209,271.52194a.98813.98813,0,0,1,.47607.127.9164.9164,0,0,1,.36377.35937.96885.96885,0,0,1,.00244.97168.90507.90507,0,0,1-.35888.3584.98.98,0,0,1-.4834.127.99441.99441,0,0,1-.48584-.127.881.881,0,0,1-.35889-.3584.9849.9849,0,0,1,.00244-.97168.90128.90128,0,0,1,.36133-.35937A.99656.99656,0,0,1,58.9209,271.52194Z" transform="translate(0.55871 0.34205)" style="fill:#fff"/><path d="M15.47607,310.66257a3.99482,3.99482,0,0,1,1.92139.50586,3.63469,3.63469,0,0,1,1.46484,1.44531A3.91208,3.91208,0,0,1,18.877,316.52a3.6301,3.6301,0,0,1-1.44775,1.44531,3.94492,3.94492,0,0,1-3.89649,0A3.6301,3.6301,0,0,1,12.085,316.52a3.93588,3.93588,0,0,1,.00733-3.90625,3.58722,3.58722,0,0,1,1.45751-1.44531A4.00475,4.00475,0,0,1,15.47607,310.66257Zm-.95459,2.19531a1.79642,1.79642,0,0,0-.73.72266,1.95965,1.95965,0,0,0-.00488,1.95507,1.82418,1.82418,0,0,0,.7251.72266,1.96275,1.96275,0,0,0,1.94824,0,1.82418,1.82418,0,0,0,.7251-.72266,1.95965,1.95965,0,0,0-.00488-1.95507,1.79343,1.79343,0,0,0-.73243-.72266,1.96687,1.96687,0,0,0-1.92627,0Z" transform="translate(0.55871 0.34205)" style="fill:#fff"/><path d="M21.34521,310.6528l4.94141.00977a.83547.83547,0,0,1,.918.94726.89056.89056,0,0,1-.98633,1.01074h-3.8916v.9668h3.90625a.97658.97658,0,0,1,0,1.95313l-3.90625.00488v1.95312a.87085.87085,0,0,1-.98145.97168.85293.85293,0,0,1-.97656-.94726v-5.88379A.88114.88114,0,0,1,21.34521,310.6528Z" transform="translate(0.55871 0.34205)" style="fill:#fff"/><path d="M29.15283,310.6528l4.94141.00977a.83547.83547,0,0,1,.918.94726.89056.89056,0,0,1-.98633,1.01074h-3.8916v.9668h3.90625a.97658.97658,0,0,1,0,1.95313l-3.90625.00488v1.95312a.87085.87085,0,0,1-.98145.97168.85292.85292,0,0,1-.97656-.94726v-5.88379A.88114.88114,0,0,1,29.15283,310.6528Z" transform="translate(0.55871 0.34205)" style="fill:#fff"/><path d="M42.83447,311.63913a.85291.85291,0,0,1-.94238.98144l-2.97363-.00488q-.98658.01026-.9961.49805.01466.46436,1.001.459h.96191q2.94434.01026,2.959,2.47559,0,2.39794-2.9541,2.41211H36.95557a.95952.95952,0,1,1-.00977-1.91895l2.94434-.01465q.98656-.00438.98632-.50292,0-.49806-.99609-.49317h-.96191q-2.93482-.00439-2.93457-2.417-.01978-2.44629,2.93457-2.45117h2.93945A.87142.87142,0,0,1,42.83447,311.63913Z" transform="translate(0.55871 0.34205)" style="fill:#fff"/><path d="M44.76318,310.6528l4.94141.00977a.83547.83547,0,0,1,.918.94726.89056.89056,0,0,1-.98633,1.01074h-3.8916v3.89161h3.88183a.87459.87459,0,0,1,.98633.98632.86435.86435,0,0,1-.96679.97168H44.76318a.85292.85292,0,0,1-.97656-.94726v-5.88379A.88114.88114,0,0,1,44.76318,310.6528Zm1.4502,3.93555a.879.879,0,0,1,.9668-.99121h1.96289a.97906.97906,0,1,1,.00488,1.958H47.18506A.85624.85624,0,0,1,46.21338,314.58835Z" transform="translate(0.55871 0.34205)" style="fill:#fff"/><path d="M52.5708,310.6528l4.94141.00977a.83548.83548,0,0,1,.918.94726.89056.89056,0,0,1-.98633,1.01074h-1.46l.00488,4.87793a.87329.87329,0,0,1-.98145.97168.8504.8504,0,0,1-.97656-.94726l.00488-4.90235H52.5708a.86539.86539,0,0,1-.97656-.98144A.88114.88114,0,0,1,52.5708,310.6528Z" transform="translate(0.55871 0.34205)" style="fill:#fff"/><path d="M4.08984,6.27975H8.87891a3.29418,3.29418,0,0,1,2.35644,1.01172A3.20363,3.20363,0,0,1,12.269,9.684a3.27365,3.27365,0,0,1-1.02,2.41992,3.32817,3.32817,0,0,1-2.418,1.00489l-1.34375.01367a1.21055,1.21055,0,0,1-1.35791-1.38086,1.21279,1.21279,0,0,1,1.37793-1.374l.96875-.00684q1.07813.01392,1.06446-.66309,0-.67676-1.07129-.67675H5.46094v6.82226a1.20663,1.20663,0,0,1-1.3711,1.36719A1.19415,1.19415,0,0,1,2.72559,15.8569V7.63327A1.21235,1.21235,0,0,1,4.08984,6.27975Z" transform="translate(0.55871 0.34205)" style="fill:#fff"/><path d="M14.99756,6.27975a1.22916,1.22916,0,0,1,1.38476,1.35352v8.2168a1.23807,1.23807,0,0,1-1.37109,1.38769A1.22791,1.22791,0,0,1,13.647,15.8569V7.64011A1.19815,1.19815,0,0,1,14.99756,6.27975Z" transform="translate(0.55871 0.34205)" style="fill:#fff"/><path d="M19.0835,6.26608l6.90332.01367a1.16812,1.16812,0,0,1,1.28271,1.32618A1.2457,1.2457,0,0,1,25.8916,9.021H23.852l.00684,6.8291a1.2222,1.2222,0,0,1-1.3711,1.36035,1.18953,1.18953,0,0,1-1.36474-1.32617L21.12988,9.021H19.0835a1.21012,1.21012,0,0,1-1.36426-1.374A1.23187,1.23187,0,0,1,19.0835,6.26608Z" transform="translate(0.55871 0.34205)" style="fill:#fff"/><path d="M34.07764,6.27975l2.73535.00684a1.216,1.216,0,0,1,1.36426,1.35352,1.21337,1.21337,0,0,1-1.3711,1.374L34.08447,9.021A2.3976,2.3976,0,0,0,31.3623,11.7485a2.42179,2.42179,0,0,0,2.729,2.73438h2.71484a1.216,1.216,0,0,1,1.36426,1.35352,1.20774,1.20774,0,0,1-1.35059,1.374H34.09131q-5.458,0-5.46436-5.46875Q28.627,6.27267,34.07764,6.27975Z" transform="translate(0.55871 0.34205)" style="fill:#fff"/><path d="M42.27686,7.64011,42.27,15.84323a1.22119,1.22119,0,0,1-1.37109,1.36719,1.201,1.201,0,0,1-1.35743-1.36035V7.64694a1.36772,1.36772,0,1,1,2.73536-.00683Zm6.81494-.00684-.00684,8.21a1.203,1.203,0,0,1-1.37109,1.36719,1.19086,1.19086,0,0,1-1.35742-1.35352V13.102l-2.00586.00684a1.24012,1.24012,0,0,1-1.41895-1.36036,1.232,1.232,0,0,1,1.41895-1.36718l2.00586-.02051V7.63327a1.36774,1.36774,0,1,1,2.73535,0Z" transform="translate(0.55871 0.34205)" style="fill:#fff"/><path d="M58.63525,6.27975h4.09327q5.46385.0066,5.46386,5.46875-.00585,5.4485-5.32031,5.46192H58.63525A1.19991,1.19991,0,0,1,57.271,15.84323V7.64694A1.21447,1.21447,0,0,1,58.63525,6.27975ZM60.00635,9.021v5.44824h2.73584q2.71436.0205,2.70117-2.74121a2.39336,2.39336,0,0,0-2.708-2.707Z" transform="translate(0.55871 0.34205)" style="fill:#fff"/><path d="M70.91406,6.27975a1.229,1.229,0,0,1,1.38477,1.35352v8.2168a1.36778,1.36778,0,1,1-2.73535.00683V7.64011A1.19853,1.19853,0,0,1,70.91406,6.27975Z" transform="translate(0.55871 0.34205)" style="fill:#fff"/><path d="M76.37793,7.64011l-.00684,8.20312A1.22078,1.22078,0,0,1,75,17.21042a1.20141,1.20141,0,0,1-1.35742-1.36035V7.64694a1.36771,1.36771,0,1,1,2.73535-.00683Zm6.47754-1.04248a1.3193,1.3193,0,0,1,.33789,1.03564,1.81815,1.81815,0,0,1-.72363,1.36035l-2.4961,2.74121,2.50293,2.72071a1.75174,1.75174,0,0,1,.71,1.38769,1.25586,1.25586,0,0,1-.33789,1.03565,1.41582,1.41582,0,0,1-1.0332.33154,1.39511,1.39511,0,0,1-1.05469-.352q-.3501-.35889-1.68457-1.96875-1.333-1.60986-1.67773-2.0166a1.76355,1.76355,0,0,1-.36524-1.12452,1.73285,1.73285,0,0,1,.3584-1.10058q.3501-.43726,1.709-2.08154,1.35644-1.6443,1.70117-1.979a1.72031,1.72031,0,0,1,2.05371.01026Z" transform="translate(0.55871 0.34205)" style="fill:#fff"/><path d="M85.92188,6.26608l6.90332.01367a1.1684,1.1684,0,0,1,1.28222,1.32618,1.2455,1.2455,0,0,1-1.37793,1.415H90.69043l.00684,6.8291a1.22261,1.22261,0,0,1-1.3711,1.36035,1.18969,1.18969,0,0,1-1.36523-1.32617L87.96777,9.021H85.92188a1.20992,1.20992,0,0,1-1.36426-1.374A1.23145,1.23145,0,0,1,85.92188,6.26608Z" transform="translate(0.55871 0.34205)" style="fill:#fff"/><path d="M96.83691,17.21725a1.3983,1.3983,0,0,1-.67187-.17431,1.25363,1.25363,0,0,1-.50879-.50244,1.38635,1.38635,0,0,1-.18359-.69043,33.13616,33.13616,0,0,1,2.03906-4.46387q2.03905-4.10816,2.2168-4.43311a1.25871,1.25871,0,0,1,.50488-.50585,1.39553,1.39553,0,0,1,.68262-.18116,1.37294,1.37294,0,0,1,.67871.18116,1.2897,1.2897,0,0,1,.50488.50585q.18018.32447,2.23047,4.43311a33.09965,33.09965,0,0,1,2.0498,4.46387,1.38745,1.38745,0,0,1-.18457.69043,1.24657,1.24657,0,0,1-.51074.50244,1.40993,1.40993,0,0,1-.66894.17431Zm5.94825-2.75488L100.916,10.61374,99.04,14.46237Z" transform="translate(0.55871 0.34205)" style="fill:#fff"/><path d="M109.10156,6.26608l6.90332.01367a1.1684,1.1684,0,0,1,1.28223,1.32618,1.2455,1.2455,0,0,1-1.37793,1.415h-2.04l.00684,6.8291a1.22179,1.22179,0,0,1-1.3711,1.36035,1.18936,1.18936,0,0,1-1.36425-1.32617l.00683-6.86328h-2.0459a1.20993,1.20993,0,0,1-1.36426-1.374A1.23145,1.23145,0,0,1,109.10156,6.26608Z" transform="translate(0.55871 0.34205)" style="fill:#fff"/><path d="M81.65527,329.66257l1.958.00488a.97414.97414,0,1,1-.00488,1.94824l-1.94824.00488a1.95069,1.95069,0,1,0,.00488,3.90137H83.6084a.97414.97414,0,0,1,.00976,1.94824H81.665q-3.90673,0-3.91113-3.90625Q77.75391,329.65867,81.65527,329.66257Z" transform="translate(0.55871 0.34205)" style="fill:#fff"/><path d="M92.39746,329.6528a1.00315,1.00315,0,0,1,.47852.12695.91189.91189,0,0,1,.36621.36133.98347.98347,0,0,1,.13183.48828,23.56624,23.56624,0,0,1-1.46777,3.19141q-1.46631,2.937-1.59668,3.166a.9199.9199,0,0,1-.36133.35937.98433.98433,0,0,1-.48535.12891.99793.99793,0,0,1-.48828-.12891.90132.90132,0,0,1-.36133-.35937q-.12744-.22853-1.58691-3.166a23.57913,23.57913,0,0,1-1.46-3.19141.98347.98347,0,0,1,.13183-.48828.917.917,0,0,1,.36328-.36133.97084.97084,0,0,1,.96,0,.912.912,0,0,1,.36622.36133q.13183.23438,2.07519,4.2334,1.957-3.999,2.08984-4.2334a.91706.91706,0,0,1,.36329-.36133A.99988.99988,0,0,1,92.39746,329.6528Z" transform="translate(0.55871 0.34205)" style="fill:#fff"/><path d="M81.65527,341.66257a3.993,3.993,0,0,1,1.9209.50586,3.62874,3.62874,0,0,1,1.46485,1.44531,3.90894,3.90894,0,0,1,.01464,3.90625,3.62889,3.62889,0,0,1-1.44726,1.44531,3.94492,3.94492,0,0,1-3.89649,0A3.63131,3.63131,0,0,1,78.26367,347.52a3.93754,3.93754,0,0,1,.00781-3.90625,3.58609,3.58609,0,0,1,1.457-1.44531A4.00652,4.00652,0,0,1,81.65527,341.66257Zm-.95507,2.19531a1.79811,1.79811,0,0,0-.7295.72266,1.9837,1.9837,0,0,0-.26367.98339,1.96049,1.96049,0,0,0,.25879.97168,1.823,1.823,0,0,0,.72461.72266,1.96275,1.96275,0,0,0,1.94824,0,1.82539,1.82539,0,0,0,.72559-.72266,1.95965,1.95965,0,0,0-.00488-1.95507,1.79343,1.79343,0,0,0-.73243-.72266,1.96779,1.96779,0,0,0-1.92675,0Z" transform="translate(0.55871 0.34205)" style="fill:#fff"/><path d="M87.544,341.6528a.8539.8539,0,0,1,.98144.94238l-.00488,2.97364q.00879,1.95409,1.48437,1.96289,1.46485-.01466,1.46-1.96778v-2.93457a.97906.97906,0,1,1,1.958.00489v2.93457q-.00585,3.90234-3.418,3.90136-3.43359.02491-3.4375-3.90136v-2.93946A.87083.87083,0,0,1,87.544,341.6528Z" transform="translate(0.55871 0.34205)" style="fill:#fff"/><path d="M95.33691,341.6528l4.94141.00977a.83589.83589,0,0,1,.918.94726.89076.89076,0,0,1-.98633,1.01074H98.75l.00488,4.87793a.87369.87369,0,0,1-.98144.97168.8502.8502,0,0,1-.97656-.94726l.00488-4.90235H95.33691a.8652.8652,0,0,1-.97656-.98144A.88072.88072,0,0,1,95.33691,341.6528Z" transform="translate(0.55871 0.34205)" style="fill:#fff"/><path d="M47.8584,33.07663h-.01367l-.79.42725-.11914-.46924.99218-.53223h.52442v4.55225H47.8584Z" transform="translate(0.55871 0.34205)" style="fill:#fff;stroke:#fff;stroke-miterlimit:10;stroke-width:0.25px"/><path d="M49.23486,53.02048h-1.7334l-.1748,1.16943a2.472,2.472,0,0,1,.37012-.02783,1.91714,1.91714,0,0,1,.97851.24512,1.29817,1.29817,0,0,1,.65039,1.16943,1.57771,1.57771,0,0,1-1.6914,1.55518,2.21568,2.21568,0,0,1-1.13184-.28028l.15332-.46924a2.03168,2.03168,0,0,0,.97168.252,1.00289,1.00289,0,0,0,1.07617-.98731c-.00683-.58838-.39843-1.00879-1.30664-1.00879a4.70033,4.70033,0,0,0-.62988.04932l.29395-2.18506h2.17382Z" transform="translate(0.55871 0.34205)" style="fill:#fff;stroke:#fff;stroke-miterlimit:10;stroke-width:0.25px"/><path d="M46.523,47.05466v-.37842l.48242-.46924c1.16016-1.10644,1.68359-1.69482,1.69141-2.38086a.81166.81166,0,0,0-.90235-.88965,1.54367,1.54367,0,0,0-.96386.38526l-.19532-.43457a1.98991,1.98991,0,0,1,1.28516-.46192A1.27939,1.27939,0,0,1,49.311,43.749c0,.84033-.60743,1.51953-1.56543,2.44434l-.36329.33594v.01416h2.041v.51123Z" transform="translate(0.55871 0.34205)" style="fill:#fff;stroke:#fff;stroke-miterlimit:10;stroke-width:0.25px"/><path d="M46.85205,76.64548a2.20914,2.20914,0,0,1-2.1875,2.48633,2.1619,2.1619,0,0,1-2.11719-2.39551,2.24,2.24,0,0,1,2.1875-2.479A2.14755,2.14755,0,0,1,46.85205,76.64548Zm-3.65527.07715c0,1.0083.54492,1.91162,1.50293,1.91162.96386,0,1.50976-.88916,1.50976-1.96094,0-.93848-.48926-1.91895-1.50293-1.91895C43.69971,74.75436,43.19678,75.686,43.19678,76.72263Z" transform="translate(0.55871 0.34205)" style="fill:#fff;stroke:#fff;stroke-miterlimit:10;stroke-width:0.25px"/><path d="M47.63916,79.05466V74.334h.66406L49.812,76.72263a13.32522,13.32522,0,0,1,.8457,1.53369l.01465-.00733c-.05664-.62988-.07031-1.20459-.07031-1.93994V74.334h.57324v4.72071h-.61523l-1.49512-2.39551a14.79427,14.79427,0,0,1-.88086-1.57568l-.02051.00683c.03418.5957.04883,1.1626.04883,1.94727v2.01709Z" transform="translate(0.55871 0.34205)" style="fill:#fff;stroke:#fff;stroke-miterlimit:10;stroke-width:0.25px"/><g style="isolation:isolate"><polygon points="19.685 370.716 18.545 370.096 18.522 369.969 19.661 370.589 19.685 370.716" style="fill:gray"/><g style="isolation:isolate"><g style="clip-path:url(#clip-path-4)"><g style="isolation:isolate"><path d="M19.1025,370.24739l-1.13966-.62a.42167.42167,0,0,0-.13693-.10889l1.13966.62a.42131.42131,0,0,1,.13693.10888" transform="translate(0.55871 0.34205)" style="fill:#858585"/></g></g></g><g style="isolation:isolate"><g style="clip-path:url(#clip-path-5)"><g style="isolation:isolate"><path d="M18.689,370.61041l-1.13967-.62a.9975.9975,0,0,0,.28137-.07477l1.13966.62a.9972.9972,0,0,1-.28136.07476" transform="translate(0.55871 0.34205)" style="fill:#a8a8a8"/><path d="M18.97034,370.53565l-1.13966-.62a.42759.42759,0,0,0,.0606-.03443l1.13966.62a.42607.42607,0,0,1-.0606.03444" transform="translate(0.55871 0.34205)" style="fill:#a3a3a3"/><path d="M19.03094,370.50121l-1.13966-.62a.30766.30766,0,0,0,.03068-.02408l1.13966.62a.3062.3062,0,0,1-.03068.02408" transform="translate(0.55871 0.34205)" style="fill:#9e9e9e"/><path d="M19.06162,370.47713l-1.13966-.62.02047-.02057,1.13966.62-.02047.02056" transform="translate(0.55871 0.34205)" style="fill:#999"/><path d="M19.08209,370.45657l-1.13966-.62.01507-.01907,1.13966.62-.01507.01908" transform="translate(0.55871 0.34205)" style="fill:#949494"/><path d="M19.09716,370.43749l-1.13966-.62.01236-.02,1.13966.62-.01236.02" transform="translate(0.55871 0.34205)" style="fill:#8f8f8f"/><path d="M19.10952,370.41746l-1.13966-.62.01075-.02392,1.13966.62-.01075.02392" transform="translate(0.55871 0.34205)" style="fill:#8a8a8a"/><path d="M19.12027,370.39354l-1.13966-.62.006-.01986,1.13966.62-.006.01986" transform="translate(0.55871 0.34205)" style="fill:#858585"/></g></g></g><g style="isolation:isolate"><g style="clip-path:url(#clip-path-6)"><g style="isolation:isolate"><path d="M11.12579,370.46949l-1.13966-.62a26.12164,26.12164,0,0,1,4.37023-1.0155,22.61542,22.61542,0,0,1,2.37508-.20906,3.80207,3.80207,0,0,1,1.069.08982l1.13967.62a3.80251,3.80251,0,0,0-1.069-.08983,22.62079,22.62079,0,0,0-2.37508.20906,26.12267,26.12267,0,0,0-4.37023,1.01551" transform="translate(0.55871 0.34205)" style="fill:#a8a8a8"/><path d="M18.94014,369.33475l-1.13967-.62a1.74093,1.74093,0,0,1,.33141.11978l1.13966.62a1.74083,1.74083,0,0,0-.3314-.11978" transform="translate(0.55871 0.34205)" style="fill:#a3a3a3"/><path d="M19.27154,369.45453l-1.13966-.62q.02526.0124.04936.02552l1.13966.62q-.02411-.01311-.04936-.02551" transform="translate(0.55871 0.34205)" style="fill:#9e9e9e"/></g></g></g><g style="isolation:isolate"><g style="clip-path:url(#clip-path-7)"><g style="isolation:isolate"><path d="M9.40685,373.24367l-1.13966-.62q.12138-.08684.24282-.17087l1.13966.62q-.12144.084-.24282.17086" transform="translate(0.55871 0.34205)" style="fill:#9e9e9e"/><path d="M9.64967,373.07281l-1.13966-.62a16.20521,16.20521,0,0,1,2.30476-1.34011l1.13966.62a16.2049,16.2049,0,0,0-2.30476,1.34012" transform="translate(0.55871 0.34205)" style="fill:#a3a3a3"/><path d="M11.95443,371.73269l-1.13966-.62a12.06338,12.06338,0,0,1,3.469-1.06276,10.28691,10.28691,0,0,1,2.269-.06878,4.51681,4.51681,0,0,0,.9966.00926l1.13967.62a4.51732,4.51732,0,0,1-.9966-.00925,10.287,10.287,0,0,0-2.269.06877,12.06379,12.06379,0,0,0-3.46895,1.06276" transform="translate(0.55871 0.34205)" style="fill:#a8a8a8"/></g></g></g><polygon points="11.09 371.734 9.951 371.114 9.911 370.739 11.051 371.359 11.09 371.734" style="fill:gray"/><g style="isolation:isolate"><g style="clip-path:url(#clip-path-8)"><g style="isolation:isolate"><path d="M8.06837,373.82939l-1.13966-.62.01367.00391,1.13966.62-.01367-.00391" transform="translate(0.55871 0.34205)" style="fill:#a3a3a3"/><path d="M8.082,373.8333l-1.13966-.62a.49524.49524,0,0,0,.192.00487,1.41105,1.41105,0,0,0,.3966-.13039l1.13967.62a1.41142,1.41142,0,0,1-.39661.13039.495.495,0,0,1-.192-.00488" transform="translate(0.55871 0.34205)" style="fill:#a8a8a8"/><path d="M8.67067,373.70779l-1.13967-.62a3.73274,3.73274,0,0,0,.52315-.3098l1.13966.62a3.73271,3.73271,0,0,1-.52314.3098" transform="translate(0.55871 0.34205)" style="fill:#a3a3a3"/><path d="M9.19381,373.398l-1.13966-.62q.10125-.07007.213-.15431l1.13966.62q-.11186.08445-.213.15432" transform="translate(0.55871 0.34205)" style="fill:#9e9e9e"/></g></g></g><g style="isolation:isolate"><g style="clip-path:url(#clip-path-9)"><g style="isolation:isolate"><polyline points="8.549 374.143 7.409 373.524 7.419 373.529 8.559 374.149 8.549 374.143" style="fill:#9e9e9e"/><path d="M8,373.80667l-1.13967-.62a.26406.26406,0,0,0,.05036.01873l1.13966.62A.26263.26263,0,0,1,8,373.80667" transform="translate(0.55871 0.34205)" style="fill:#a3a3a3"/><path d="M8.0503,373.8254l-1.13966-.62.01807.004,1.13966.62-.01807-.004" transform="translate(0.55871 0.34205)" style="fill:#a8a8a8"/></g></g></g><g style="isolation:isolate"><g style="clip-path:url(#clip-path-10)"><g style="isolation:isolate"><path d="M10.49212,371.01668l-1.13967-.62a9.02871,9.02871,0,0,1,.594-4.11911l1.13966.62a9.02867,9.02867,0,0,0-.594,4.11911" transform="translate(0.55871 0.34205)" style="fill:#858585"/><path d="M11.0861,366.89757l-1.13966-.62q.07881-.21432.16725-.4307l1.13966.62q-.08842.21635-.16725.4307" transform="translate(0.55871 0.34205)" style="fill:#8a8a8a"/></g></g></g><g style="isolation:isolate"><g style="clip-path:url(#clip-path-11)"><g style="isolation:isolate"><path d="M7.64267,374.4655l-1.13966-.62a1.07748,1.07748,0,0,1-.49529-.61905l1.13966.62a1.07746,1.07746,0,0,0,.49529.619" transform="translate(0.55871 0.34205)" style="fill:#858585"/></g></g></g><g style="isolation:isolate"><g style="clip-path:url(#clip-path-12)"><g style="isolation:isolate"><path d="M11.25335,366.46687l-1.13966-.62c.06631-.19911.15953-.45265-.40108-.75761l1.13967.62c.56061.305.46738.55851.40107.75762" transform="translate(0.55871 0.34205)" style="fill:#858585"/></g></g></g><g style="isolation:isolate"><g style="clip-path:url(#clip-path-13)"><g style="isolation:isolate"><path d="M10.9839,364.94024l-1.13966-.62c.04153.01851.08377.03812.12623.059l1.13966.62c-.04246-.02085-.08469-.04046-.12623-.059" transform="translate(0.55871 0.34205)" style="fill:#a3a3a3"/><path d="M11.11013,364.99922l-1.13966-.62c.03643.01789.073.0367.10947.05653l1.13966.62c-.03644-.01983-.073-.03864-.10947-.05654" transform="translate(0.55871 0.34205)" style="fill:#9e9e9e"/></g></g></g><path d="M19.648,369.75584a.89227.89227,0,0,1,.12682.70824,1.19745,1.19745,0,0,1-1.11771.87148,4.69423,4.69423,0,0,1-1.1102-.01382,9.72333,9.72333,0,0,0-2.11513.06729,12.97824,12.97824,0,0,0-5.70566,2.44076,3.34,3.34,0,0,1-1.45087.73117,1.16288,1.16288,0,0,1-.44043-.01592,1.03147,1.03147,0,0,1-.68742-.69858c-.8282-2.51129-.36675-5.17785,1.36014-7.93585a2.24719,2.24719,0,0,1,1.52783-1.10856,1.75076,1.75076,0,0,1,.94855.13819c.56012.24974,1.248.69761.87771,1.72638a8.83453,8.83453,0,0,0-.73582,3.80287A26.12267,26.12267,0,0,1,15.496,369.454a22.62079,22.62079,0,0,1,2.37508-.20906C18.77608,369.21281,19.37638,369.38776,19.648,369.75584Zm-.959.85457c.25953-.03647.40795-.11572.43731-.23673l-.02379-.12629c-.11184-.14851-.512-.30839-1.30485-.27473a21.80714,21.80714,0,0,0-2.32314.20254,25.22458,25.22458,0,0,0-4.59048,1.10621l-.35257.11006-.03934-.37479a9.31268,9.31268,0,0,1,.76123-4.54981c.07248-.21763.17711-.50029-.575-.844a1.25139,1.25139,0,0,0-.64849-.099,1.46764,1.46764,0,0,0-.99444.75345c-1.60642,2.55955-2.01924,4.92542-1.25473,7.23819.08767.23834.20766.29927.28771.31395a.47226.47226,0,0,0,.20569.00879,2.71154,2.71154,0,0,0,1.13279-.59451,13.66306,13.66306,0,0,1,6.01653-2.57374,10.287,10.287,0,0,1,2.269-.06877,4.51732,4.51732,0,0,0,.9966.00925" transform="translate(0.55871 0.34205)" style="fill:#dfdfdf"/><g style="isolation:isolate"><g style="clip-path:url(#clip-path-14)"><g style="isolation:isolate"><path d="M7.14738,373.84646l-1.13966-.62a8.25818,8.25818,0,0,1,.17913-5.56516l1.13966.62a8.25827,8.25827,0,0,0-.17913,5.56517" transform="translate(0.55871 0.34205)" style="fill:#858585"/><path d="M7.32651,368.28129l-1.13966-.62a12.01908,12.01908,0,0,1,.70135-1.54686l1.13966.62a12.019,12.019,0,0,0-.70135,1.54685" transform="translate(0.55871 0.34205)" style="fill:#8a8a8a"/><path d="M8.02786,366.73444l-1.13966-.62q.22086-.41047.47966-.82382.038-.059.07728-.115l1.13966.62q-.03928.056-.07728.115-.25878.41332-.47966.82383" transform="translate(0.55871 0.34205)" style="fill:#8f8f8f"/><path d="M8.5848,365.79561l-1.13966-.62a3.12965,3.12965,0,0,1,.21574-.2746l1.13966.62a3.12817,3.12817,0,0,0-.21574.2746" transform="translate(0.55871 0.34205)" style="fill:#949494"/><path d="M8.80054,365.521l-1.13966-.62a2.67759,2.67759,0,0,1,.21531-.218l1.13966.62a2.676,2.676,0,0,0-.21531.218" transform="translate(0.55871 0.34205)" style="fill:#999"/><path d="M9.01585,365.303l-1.13966-.62a2.31555,2.31555,0,0,1,.23188-.18389l1.13966.62a2.31681,2.31681,0,0,0-.23188.1839" transform="translate(0.55871 0.34205)" style="fill:#9e9e9e"/><path d="M9.24773,365.1191l-1.13966-.62a2.01055,2.01055,0,0,1,.28607-.1656l1.13966.62a2.01158,2.01158,0,0,0-.28607.16559" transform="translate(0.55871 0.34205)" style="fill:#a3a3a3"/><path d="M9.5338,364.95351l-1.13966-.62a1.742,1.742,0,0,1,.50155-.15146,1.69332,1.69332,0,0,1,.66509.04018l1.13966.62a1.69349,1.69349,0,0,0-.66509-.04017,1.74142,1.74142,0,0,0-.50155.15146" transform="translate(0.55871 0.34205)" style="fill:#a8a8a8"/><path d="M10.70044,364.84222l-1.13966-.62a1.93813,1.93813,0,0,1,.28346.098l1.13966.62a1.93931,1.93931,0,0,0-.28346-.098" transform="translate(0.55871 0.34205)" style="fill:#a3a3a3"/></g></g></g></g><circle cx="12.55871" cy="370.34207" r="7.5" style="fill:none;stroke:#fff;stroke-miterlimit:10;stroke-width:0.75px"/><g style="isolation:isolate"><polygon points="115.688 370.716 114.548 370.096 114.517 369.971 115.656 370.591 115.688 370.716" style="fill:gray"/><g style="isolation:isolate"><g style="clip-path:url(#clip-path-15)"><g style="isolation:isolate"><path d="M115.09749,370.24853l-1.13966-.62a.39473.39473,0,0,0-.138-.11261l1.13966.62a.39485.39485,0,0,1,.13795.11262" transform="translate(0.55871 0.34205)" style="fill:#858585"/></g></g></g><g style="isolation:isolate"><g style="clip-path:url(#clip-path-16)"><g style="isolation:isolate"><path d="M114.69084,370.61058l-1.13966-.62a1.0019,1.0019,0,0,0,.28262-.075l1.13966.62a1.00146,1.00146,0,0,1-.28262.07505" transform="translate(0.55871 0.34205)" style="fill:#a8a8a8"/><path d="M114.97346,370.53553l-1.13966-.62a.427.427,0,0,0,.06057-.03442l1.13966.62a.42606.42606,0,0,1-.06057.03442" transform="translate(0.55871 0.34205)" style="fill:#a3a3a3"/><path d="M115.034,370.50111l-1.13966-.62a.30849.30849,0,0,0,.03065-.024l1.13966.62a.30557.30557,0,0,1-.03065.024" transform="translate(0.55871 0.34205)" style="fill:#9e9e9e"/><path d="M115.06468,370.47706l-1.13966-.62.02044-.02055,1.13967.62-.02045.02054" transform="translate(0.55871 0.34205)" style="fill:#999"/><path d="M115.08513,370.45652l-1.13967-.62.01506-.01906,1.13966.62-.015.01906" transform="translate(0.55871 0.34205)" style="fill:#949494"/><path d="M115.10018,370.43746l-1.13966-.62.01235-.02,1.13966.62-.01235.02" transform="translate(0.55871 0.34205)" style="fill:#8f8f8f"/><path d="M115.11253,370.41745l-1.13966-.62.01074-.02391,1.13966.62-.01074.02391" transform="translate(0.55871 0.34205)" style="fill:#8a8a8a"/><path d="M115.12327,370.39354l-1.13966-.62.006-.01985,1.13966.62-.006.01985" transform="translate(0.55871 0.34205)" style="fill:#858585"/></g></g></g><g style="isolation:isolate"><g style="clip-path:url(#clip-path-17)"><g style="isolation:isolate"><path d="M107.12078,370.47062l-1.13966-.62a26.24511,26.24511,0,0,1,4.37572-1.01627,22.48308,22.48308,0,0,1,2.36957-.20829,3.81783,3.81783,0,0,1,1.07562.08914l1.13967.62a3.81757,3.81757,0,0,0-1.07563-.08913,22.48289,22.48289,0,0,0-2.36956.20829,26.244,26.244,0,0,0-4.37573,1.01627" transform="translate(0.55871 0.34205)" style="fill:#a8a8a8"/><path d="M114.9417,369.33519l-1.13967-.62a1.71622,1.71622,0,0,1,.32672.118l1.13966.62a1.71567,1.71567,0,0,0-.32671-.118" transform="translate(0.55871 0.34205)" style="fill:#a3a3a3"/><path d="M115.26841,369.45322l-1.13966-.62q.02477.01216.04839.025l1.13966.62q-.02362-.01286-.04839-.025" transform="translate(0.55871 0.34205)" style="fill:#9e9e9e"/></g></g></g><g style="isolation:isolate"><g style="clip-path:url(#clip-path-18)"><g style="isolation:isolate"><path d="M105.40183,373.25345l-1.13967-.62q.11528-.08227.23056-.16205l1.13966.62q-.11529.07977-.23055.162" transform="translate(0.55871 0.34205)" style="fill:#9e9e9e"/><path d="M105.63238,373.09141l-1.13966-.62a16.41418,16.41418,0,0,1,2.33392-1.3577l1.13967.62a16.41427,16.41427,0,0,0-2.33393,1.3577" transform="translate(0.55871 0.34205)" style="fill:#a3a3a3"/><path d="M107.96631,371.73371l-1.13967-.62a12.05461,12.05461,0,0,1,3.46633-1.063,10.22188,10.22188,0,0,1,2.25473-.06837,4.59312,4.59312,0,0,0,1.00348.00829l1.13966.62a4.5924,4.5924,0,0,1-1.00347-.00829,10.222,10.222,0,0,0-2.25474.06838,12.05415,12.05415,0,0,0-3.46632,1.063" transform="translate(0.55871 0.34205)" style="fill:#a8a8a8"/></g></g></g><polygon points="107.093 371.734 105.954 371.114 105.914 370.739 107.054 371.359 107.093 371.734" style="fill:gray"/><g style="isolation:isolate"><g style="clip-path:url(#clip-path-19)"><g style="isolation:isolate"><path d="M104.07137,373.8294l-1.13966-.62.01367.00391,1.13967.62-.01368-.00391" transform="translate(0.55871 0.34205)" style="fill:#a3a3a3"/><path d="M104.08505,373.83331l-1.13967-.62a.5.5,0,0,0,.19375.00488,1.4272,1.4272,0,0,0,.401-.13179l1.13966.62a1.42684,1.42684,0,0,1-.40095.13178.49981.49981,0,0,1-.19375-.00487" transform="translate(0.55871 0.34205)" style="fill:#a8a8a8"/><path d="M104.67975,373.7064l-1.13966-.62a3.752,3.752,0,0,0,.5261-.31148l1.13966.62a3.75222,3.75222,0,0,1-.5261.31149" transform="translate(0.55871 0.34205)" style="fill:#a3a3a3"/><path d="M105.20585,373.39491l-1.13966-.62q.09355-.06474.196-.14146l1.13967.62q-.10248.07688-.196.14146" transform="translate(0.55871 0.34205)" style="fill:#9e9e9e"/></g></g></g><g style="isolation:isolate"><g style="clip-path:url(#clip-path-20)"><g style="isolation:isolate"><polyline points="104.542 374.142 103.403 373.522 103.413 373.527 104.552 374.147 104.542 374.142" style="fill:#9e9e9e"/><path d="M103.99358,373.805l-1.13966-.62a.26481.26481,0,0,0,.0505.01875l1.13966.62a.26567.26567,0,0,1-.0505-.01874" transform="translate(0.55871 0.34205)" style="fill:#a3a3a3"/><path d="M104.04408,373.82378l-1.13966-.62.02729.00561,1.13966.62-.02729-.00562" transform="translate(0.55871 0.34205)" style="fill:#a8a8a8"/></g></g></g><g style="isolation:isolate"><g style="clip-path:url(#clip-path-21)"><g style="isolation:isolate"><path d="M106.49512,371.01669l-1.13967-.62a9.1244,9.1244,0,0,1,.60307-4.15964l1.13967.62a9.12431,9.12431,0,0,0-.60307,4.15965" transform="translate(0.55871 0.34205)" style="fill:#858585"/><path d="M107.09819,366.857l-1.13967-.62q.07124-.19371.15016-.389l1.13966.62q-.07892.19533-.15015.389" transform="translate(0.55871 0.34205)" style="fill:#8a8a8a"/></g></g></g><g style="isolation:isolate"><g style="clip-path:url(#clip-path-22)"><g style="isolation:isolate"><path d="M103.64039,374.465l-1.13966-.62a1.073,1.073,0,0,1-.49-.61855l1.13966.62a1.07306,1.07306,0,0,0,.49.61855" transform="translate(0.55871 0.34205)" style="fill:#858585"/></g></g></g><g style="isolation:isolate"><g style="clip-path:url(#clip-path-23)"><g style="isolation:isolate"><polyline points="107.807 366.81 106.667 366.19 106.668 366.19 107.807 366.809 107.807 366.81" style="fill:#8a8a8a"/><path d="M107.24855,366.46744l-1.13967-.62c.07311-.1987.16549-.45006-.388-.75115l1.13966.62c.55349.30109.46111.55245.388.75115" transform="translate(0.55871 0.34205)" style="fill:#858585"/></g></g></g><g style="isolation:isolate"><g style="clip-path:url(#clip-path-24)"><g style="isolation:isolate"><path d="M106.9869,364.94025l-1.13966-.62c.04007.01787.08079.03679.12173.0569l1.13966.62c-.04094-.02011-.08166-.039-.12173-.0569" transform="translate(0.55871 0.34205)" style="fill:#a3a3a3"/><path d="M107.10863,364.99715l-1.13966-.62q.05391.02649.108.0558l1.13966.62c-.036-.01958-.07209-.03815-.108-.0558" transform="translate(0.55871 0.34205)" style="fill:#9e9e9e"/></g></g></g><path d="M115.643,369.757a.86042.86042,0,0,1,.13483.70712,1.19747,1.19747,0,0,1-1.11771.87148,4.69477,4.69477,0,0,1-1.1102-.01382,9.5906,9.5906,0,0,0-2.11828.06413,12.90332,12.90332,0,0,0-5.70253,2.45256,3.40443,3.40443,0,0,1-1.45083.72252,1.16277,1.16277,0,0,1-.44045-.01591,1.01466,1.01466,0,0,1-.68742-.69858c-.8282-2.51129-.37478-5.17672,1.35212-7.92608a2.26024,2.26024,0,0,1,1.53387-1.1177,1.76741,1.76741,0,0,1,.95053.13756,1.27456,1.27456,0,0,1,.87771,1.72638,8.97292,8.97292,0,0,0-.74383,3.804,26.244,26.244,0,0,1,4.37573-1.01627,22.48289,22.48289,0,0,1,2.36956-.20829C114.77908,369.21282,115.37938,369.38776,115.643,369.757Zm-.95213.85361c.26067-.03663.40909-.11588.43845-.23689l-.0318-.12516c-.10383-.14964-.50395-.30952-1.29681-.27586a21.82731,21.82731,0,0,0-2.32536.20284,25.26671,25.26671,0,0,0-4.5963,1.107l-.34456.10893-.03934-.37479a9.38794,9.38794,0,0,1,.75322-4.54869c.08049-.21876.18512-.50141-.575-.84405a1.19742,1.19742,0,0,0-.64048-.10015,1.45523,1.45523,0,0,0-.99444.75346c-1.60642,2.55955-2.01924,4.92541-1.25473,7.23819.07964.23947.19965.30039.28771.314a.47664.47664,0,0,0,.20743.00878,2.6946,2.6946,0,0,0,1.123-.58473,13.72933,13.72933,0,0,1,6.0308-2.58278,10.222,10.222,0,0,1,2.25474-.06838,4.5924,4.5924,0,0,0,1.00347.00829" transform="translate(0.55871 0.34205)" style="fill:#dfdfdf"/><g style="isolation:isolate"><g style="clip-path:url(#clip-path-25)"><g style="isolation:isolate"><path d="M103.15038,373.84647l-1.13966-.62a8.25994,8.25994,0,0,1,.1745-5.566l1.13966.62a8.26,8.26,0,0,0-.1745,5.566" transform="translate(0.55871 0.34205)" style="fill:#858585"/><path d="M103.32488,368.28048l-1.13966-.62a11.8902,11.8902,0,0,1,.69377-1.53046l1.13966.62a11.89033,11.89033,0,0,0-.69377,1.53046" transform="translate(0.55871 0.34205)" style="fill:#8a8a8a"/><path d="M104.01865,366.75l-1.13966-.62q.22246-.41346.48385-.82962.03807-.059.07737-.115l1.13966.62q-.03929.056-.07737.115-.26138.41613-.48385.82963" transform="translate(0.55871 0.34205)" style="fill:#8f8f8f"/><path d="M104.57987,365.80539l-1.13966-.62a3.20571,3.20571,0,0,1,.22088-.2812l1.13966.62a3.20611,3.20611,0,0,0-.22088.2812" transform="translate(0.55871 0.34205)" style="fill:#949494"/><path d="M104.80075,365.52419l-1.13966-.62a2.71207,2.71207,0,0,1,.218-.2208l1.13967.62a2.70893,2.70893,0,0,0-.218.2208" transform="translate(0.55871 0.34205)" style="fill:#999"/><path d="M105.01877,365.30339l-1.13967-.62a2.326,2.326,0,0,1,.23281-.18466l1.13966.62a2.32478,2.32478,0,0,0-.2328.18466" transform="translate(0.55871 0.34205)" style="fill:#9e9e9e"/><path d="M105.25157,365.11873l-1.13966-.62a2.00726,2.00726,0,0,1,.28562-.16535l1.13967.62a2.0064,2.0064,0,0,0-.28563.16535" transform="translate(0.55871 0.34205)" style="fill:#a3a3a3"/><path d="M105.5372,364.95338l-1.13967-.62a1.734,1.734,0,0,1,.49918-.15068,1.70277,1.70277,0,0,1,.66888.04082l1.13966.62a1.703,1.703,0,0,0-.66888-.04082,1.7336,1.7336,0,0,0-.49917.15069" transform="translate(0.55871 0.34205)" style="fill:#a8a8a8"/><path d="M106.70525,364.84351l-1.13966-.62a1.97958,1.97958,0,0,1,.28165.09673l1.13966.62a1.97922,1.97922,0,0,0-.28165-.09674" transform="translate(0.55871 0.34205)" style="fill:#a3a3a3"/></g></g></g></g><circle cx="108.55959" cy="370.34207" r="7.5" style="fill:none;stroke:#fff;stroke-miterlimit:10;stroke-width:0.75px"/><rect x="11.06892" y="28.36007" width="48.97959" height="113.96396" rx="12" style="fill:none;stroke:#fff;stroke-miterlimit:10;stroke-width:0.25px"/><rect x="10.55871" y="27.84205" width="50" height="115" rx="12" style="fill:none;stroke:#000;stroke-miterlimit:10;stroke-width:0.25px"/></svg>