<svg id="Calque_1" data-name="Calque 1" xmlns="http://www.w3.org/2000/svg" xmlns:xlink="http://www.w3.org/1999/xlink" viewBox="0 0 150.13114 379.84467"><defs><clipPath id="clip-path" transform="translate(0.06557 -0.07767)"><rect width="150" height="380" style="fill:none"/></clipPath><clipPath id="clip-path-2" transform="translate(0.06557 -0.07767)"><rect x="0.35545" y="0.49869" width="149.2891" height="379.00262" style="fill:none"/></clipPath><linearGradient id="Dégradé_sans_nom_2" x1="15.5032" y1="-0.06008" x2="16.50058" y2="-0.06008" gradientTransform="matrix(0, 757.36707, 757.36707, 0, 120.56557, -11782.58029)" gradientUnits="userSpaceOnUse"><stop offset="0" stop-color="#2d4b76"/><stop offset="0.00392" stop-color="#2d4b76"/><stop offset="0.0837" stop-color="#243c5f"/><stop offset="0.21602" stop-color="#192841"/><stop offset="0.35478" stop-color="#101829"/><stop offset="0.50101" stop-color="#090d17"/><stop offset="0.65954" stop-color="#05060d"/><stop offset="0.85286" stop-color="#04040a"/><stop offset="1" stop-color="#04040a"/></linearGradient><clipPath id="clip-path-4" transform="translate(0.06557 -0.07767)"><rect x="104" y="115.05724" width="42" height="39.88552" style="fill:none"/></clipPath><clipPath id="clip-path-8" transform="translate(0.06557 -0.07767)"><rect x="104" y="289.41321" width="42" height="41.17358" style="fill:none"/></clipPath><clipPath id="clip-path-12" transform="translate(0.06557 -0.07767)"><rect x="104.05512" y="167.34087" width="41.88977" height="45.3187" style="fill:none"/></clipPath><clipPath id="clip-path-14" transform="translate(0.06557 -0.07767)"><rect x="104.05512" y="227.34087" width="41.88977" height="45.3187" style="fill:none"/></clipPath><clipPath id="clip-path-16" transform="translate(0.06557 -0.07767)"><path d="M144.82393,369.51938l1.13965.62a.41034.41034,0,0,1,.14091.11483l-1.13967-.62A.41031.41031,0,0,0,144.82393,369.51938Z" style="fill:none"/></clipPath><clipPath id="clip-path-17" transform="translate(0.06557 -0.07767)"><path d="M145.683,370.61739l-1.13966-.62c.26492-.03723.41565-.119.4453-.24556l1.13965.62C146.09866,370.49842,145.94793,370.58016,145.683,370.61739Z" style="fill:none"/></clipPath><clipPath id="clip-path-18" transform="translate(0.06557 -0.07767)"><path d="M145.182,368.86236l1.13966.62a2.90044,2.90044,0,0,0-1.44854-.23064,22.13726,22.13726,0,0,0-2.41138.20778,25.90407,25.90407,0,0,0-4.33391,1.00819l-1.13968-.62a25.90429,25.90429,0,0,1,4.33393-1.00819,22.13476,22.13476,0,0,1,2.41138-.20778A2.90059,2.90059,0,0,1,145.182,368.86236Z" style="fill:none"/></clipPath><clipPath id="clip-path-19" transform="translate(0.06557 -0.07767)"><path d="M136.40885,373.25045l-1.13967-.62a13.64784,13.64784,0,0,1,6.00594-2.576,10.15171,10.15171,0,0,1,2.2716-.06542,4.56,4.56,0,0,0,.99662.00834l1.13966.62a4.55877,4.55877,0,0,1-.99662-.00834,10.15279,10.15279,0,0,0-2.27159.06542A13.64788,13.64788,0,0,0,136.40885,373.25045Z" style="fill:none"/></clipPath><clipPath id="clip-path-20" transform="translate(0.06557 -0.07767)"><path d="M135.07037,373.83616l-1.13967-.62a.52728.52728,0,0,0,.20414.00521,2.68547,2.68547,0,0,0,1.13434-.59093l1.13967.62a2.68567,2.68567,0,0,1-1.13435.59093A.52719.52719,0,0,1,135.07037,373.83616Z" style="fill:none"/></clipPath><clipPath id="clip-path-21" transform="translate(0.06557 -0.07767)"><path d="M134.99033,373.8058l-1.13968-.62a.3369.3369,0,0,0,.08.03036l1.13967.62A.33641.33641,0,0,1,134.99033,373.8058Z" style="fill:none"/></clipPath><clipPath id="clip-path-22" transform="translate(0.06557 -0.07767)"><path d="M137.49411,371.02345l-1.13967-.62a9.42118,9.42118,0,0,1,.75324-4.55733l1.13967.62A9.4211,9.4211,0,0,0,137.49411,371.02345Z" style="fill:none"/></clipPath><clipPath id="clip-path-23" transform="translate(0.06557 -0.07767)"><path d="M134.63031,374.46346l-1.13967-.62a1.06171,1.06171,0,0,1-.48091-.61887l1.13966.62A1.06179,1.06179,0,0,0,134.63031,374.46346Z" style="fill:none"/></clipPath><clipPath id="clip-path-24" transform="translate(0.06557 -0.07767)"><path d="M136.71659,365.09286l1.13965.62c.55769.30336.46438.562.39111.75329l-1.13967-.62C137.181,365.65485,137.27427,365.39623,136.71659,365.09286Z" style="fill:none"/></clipPath><clipPath id="clip-path-25" transform="translate(0.06557 -0.07767)"><path d="M137.08189,364.44255l1.13966.62c-.07891-.04294-.15849-.08111-.23566-.11552l-1.13966-.62C136.92339,364.36146,137.003,364.39962,137.08189,364.44255Z" style="fill:none"/></clipPath><clipPath id="clip-path-26" transform="translate(0.06557 -0.07767)"><path d="M135.50151,365.91851l-1.13967-.62a2.26273,2.26273,0,0,1,1.53192-1.10912,1.77106,1.77106,0,0,1,.95247.13762l1.13966.62a1.77105,1.77105,0,0,0-.95247-.13762A2.26272,2.26272,0,0,0,135.50151,365.91851Z" style="fill:none"/></clipPath><clipPath id="clip-path-27" transform="translate(0.06557 -0.07767)"><path d="M134.14939,373.84459l-1.13966-.62c-.8282-2.51124-.37478-5.17672,1.35211-7.92607l1.13967.62C133.77461,368.66787,133.32119,371.33335,134.14939,373.84459Z" style="fill:none"/></clipPath><clipPath id="clip-path-28" transform="translate(0.06557 -0.07767)"><path d="M17.81626,369.51692l1.13966.62a.38593.38593,0,0,1,.14159.1184l-1.13967-.62A.386.386,0,0,0,17.81626,369.51692Z" style="fill:none"/></clipPath><clipPath id="clip-path-29" transform="translate(0.06557 -0.07767)"><path d="M18.684,370.61739l-1.13966-.62c.2649-.03723.41565-.119.44527-.24556l1.13965.62C19.09968,370.49842,18.94893,370.58016,18.684,370.61739Z" style="fill:none"/></clipPath><clipPath id="clip-path-30" transform="translate(0.06557 -0.07767)"><path d="M18.176,368.86062l1.13965.62a2.9036,2.9036,0,0,0-1.44961-.22776,22.00134,22.00134,0,0,0-2.40577.207,26.02614,26.02614,0,0,0-4.33946,1.009l-1.13966-.61995a26.02478,26.02478,0,0,1,4.33946-1.009,22.00361,22.00361,0,0,1,2.40577-.207A2.90368,2.90368,0,0,1,18.176,368.86062Z" style="fill:none"/></clipPath><clipPath id="clip-path-31" transform="translate(0.06557 -0.07767)"><path d="M9.40188,373.25157l-1.13966-.62a13.66513,13.66513,0,0,1,6.01244-2.57688,10.15963,10.15963,0,0,1,2.273-.06563,4.55923,4.55923,0,0,0,.99667.00834l1.13966.62a4.55975,4.55975,0,0,1-.99667-.00833,10.159,10.159,0,0,0-2.273.06562A13.66516,13.66516,0,0,0,9.40188,373.25157Z" style="fill:none"/></clipPath><clipPath id="clip-path-32" transform="translate(0.06557 -0.07767)"><path d="M8.06338,373.83729l-1.13967-.62a.5641.5641,0,0,0,.2092.0045,2.6436,2.6436,0,0,0,1.12931-.59023l1.13966.62a2.64361,2.64361,0,0,1-1.12931.59022A.56359.56359,0,0,1,8.06338,373.83729Z" style="fill:none"/></clipPath><clipPath id="clip-path-33" transform="translate(0.06557 -0.07767)"><path d="M7.98774,373.807,6.84807,373.187a.37422.37422,0,0,0,.07565.03028l1.13965.62A.37423.37423,0,0,1,7.98774,373.807Z" style="fill:none"/></clipPath><clipPath id="clip-path-34" transform="translate(0.06557 -0.07767)"><path d="M10.48714,371.02457l-1.13966-.62a9.422,9.422,0,0,1,.76125-4.55846l1.13966.62A9.422,9.422,0,0,0,10.48714,371.02457Z" style="fill:none"/></clipPath><clipPath id="clip-path-35" transform="translate(0.06557 -0.07767)"><path d="M7.63135,374.46345l-1.13967-.62a1.06188,1.06188,0,0,1-.48093-.61887l1.13967.62A1.06178,1.06178,0,0,0,7.63135,374.46345Z" style="fill:none"/></clipPath><clipPath id="clip-path-36" transform="translate(0.06557 -0.07767)"><path d="M9.71764,365.09285l1.13966.62c.55768.30336.46437.562.39109.75329l-1.13966-.62C10.182,365.65484,10.27532,365.39622,9.71764,365.09285Z" style="fill:none"/></clipPath><clipPath id="clip-path-37" transform="translate(0.06557 -0.07767)"><path d="M10.08294,364.44255l1.13966.62c-.07891-.04293-.1585-.0811-.23566-.11551l-1.13966-.62C9.92444,364.36145,10.004,364.39962,10.08294,364.44255Z" style="fill:none"/></clipPath><clipPath id="clip-path-38" transform="translate(0.06557 -0.07767)"><path d="M8.50255,365.91851l-1.13966-.62a2.26265,2.26265,0,0,1,1.5319-1.10911,1.77117,1.77117,0,0,1,.95249.13762l1.13966.62a1.77116,1.77116,0,0,0-.95249-.13762A2.26264,2.26264,0,0,0,8.50255,365.91851Z" style="fill:none"/></clipPath><clipPath id="clip-path-39" transform="translate(0.06557 -0.07767)"><path d="M7.15042,373.84459l-1.13967-.62c-.82818-2.51124-.37476-5.17672,1.35214-7.92608l1.13966.62C6.77566,368.66786,6.32224,371.33334,7.15042,373.84459Z" style="fill:none"/></clipPath></defs><title>PitchIntegrator</title><g id="Panel_14_HP" data-name="Panel 14 HP"><g style="clip-path:url(#clip-path)"><g style="clip-path:url(#clip-path-2)"><rect x="0.42102" y="0.42102" width="149.28909" height="379.00262" style="fill:url(#Dégradé_sans_nom_2)"/></g><g style="clip-path:url(#clip-path)"><rect x="0.42102" y="0.42102" width="149.2891" height="379.00262" style="fill:none;stroke:#000;stroke-miterlimit:10;stroke-width:0.8420419190424169px"/></g></g></g><path d="M11.90625,195.66309l1.95313.00488a.97413.97413,0,1,1-.00489,1.94824l-1.94336.00488a1.71234,1.71234,0,0,0-1.94433,1.94825,1.73007,1.73007,0,0,0,1.94922,1.95312h1.93847a.97414.97414,0,0,1,.00977,1.94824H11.916q-3.89942,0-3.90332-3.90625Q8.0127,195.65772,11.90625,195.66309Z" transform="translate(0.06557 -0.07767)" style="fill:#fff"/><path d="M16.77832,195.65332a.87948.87948,0,0,1,.98926.957l-.00977,4.90235h3.873a.8734.8734,0,0,1,.98437.98632.86376.86376,0,0,1-.96484.97168H16.77832a.8523.8523,0,0,1-.97461-.94726v-5.88379A.87974.87974,0,0,1,16.77832,195.65332Z" transform="translate(0.06557 -0.07767)" style="fill:#fff"/><path d="M27.48828,195.66309a3.97991,3.97991,0,0,1,1.917.50488,3.63981,3.63981,0,0,1,1.46192,1.44531,3.92166,3.92166,0,0,1,.01465,3.90625,3.618,3.618,0,0,1-1.44532,1.44531,3.9218,3.9218,0,0,1-3.88769,0,3.6179,3.6179,0,0,1-1.44531-1.44531,3.94394,3.94394,0,0,1,.00781-3.90625,3.59084,3.59084,0,0,1,1.4541-1.44531A3.98784,3.98784,0,0,1,27.48828,195.66309Zm-.95312,2.19433a1.80788,1.80788,0,0,0-.72852.72266,1.9992,1.9992,0,0,0-.26269.98437,1.975,1.975,0,0,0,.25781.97168,1.833,1.833,0,0,0,.72363.72266,1.95542,1.95542,0,0,0,1.94434,0,1.83309,1.83309,0,0,0,.72363-.72266,1.96788,1.96788,0,0,0-.00488-1.95605,1.803,1.803,0,0,0-.73145-.72266,1.96513,1.96513,0,0,0-1.92187,0Z" transform="translate(0.06557 -0.07767)" style="fill:#fff"/><path d="M36.26367,195.66309l1.95313.00488a.97413.97413,0,1,1-.00489,1.94824l-1.94336.00488a1.71234,1.71234,0,0,0-1.94433,1.94825,1.73007,1.73007,0,0,0,1.94922,1.95312h1.93847a.97414.97414,0,0,1,.00977,1.94824H36.27344q-3.89941,0-3.90332-3.90625Q32.37012,195.65772,36.26367,195.66309Z" transform="translate(0.06557 -0.07767)" style="fill:#fff"/><path d="M42.12109,196.63477l-.00488,5.85937a.87293.87293,0,0,1-.97949.97656.85849.85849,0,0,1-.96973-.97168v-5.85937a.97708.97708,0,1,1,1.9541-.00488Zm4.626-.74512a.94166.94166,0,0,1,.24121.74023,1.29814,1.29814,0,0,1-.5166.97168l-1.7832,1.958,1.78808,1.94336a1.24974,1.24974,0,0,1,.50684.99121.893.893,0,0,1-.24121.73926,1.01029,1.01029,0,0,1-.73828.2373.99848.99848,0,0,1-.75293-.25195q-.2505-.25635-1.20313-1.40625-.95214-1.1499-1.19824-1.44043a1.26093,1.26093,0,0,1-.26074-.80273,1.22924,1.22924,0,0,1,.25586-.78614q.25048-.31347,1.2207-1.4873.96827-1.17335,1.21484-1.41309a1.22957,1.22957,0,0,1,1.4668.00684Z" transform="translate(0.06557 -0.07767)" style="fill:#fff"/><path d="M15.32129,240.65332l4.93066.00977a.8341.8341,0,0,1,.916.94726.8898.8898,0,0,1-.98438,1.01074h-1.456l.00488,4.87793a.87391.87391,0,0,1-.97949.97168.84956.84956,0,0,1-.97461-.94726l.00488-4.90235H15.32129a.8646.8646,0,0,1-.97461-.98144A.87974.87974,0,0,1,15.32129,240.65332Z" transform="translate(0.06557 -0.07767)" style="fill:#fff"/><path d="M23.11719,240.66309h3.41992a2.51394,2.51394,0,0,1,2.42187,2.43164,3.61506,3.61506,0,0,1-.36718,1.70605,1.2387,1.2387,0,0,1-1.10938.7207l1.2041,1.22071a1.0242,1.0242,0,0,1,.28711.75683.86549.86549,0,0,1-.97461.97168,1.33507,1.33507,0,0,1-.97949-.47851l-1.94824-2.42188a1.53425,1.53425,0,0,1-.49707-1.00586.86569.86569,0,0,1,.98437-.98144l.69141-.00488q.77051.00878.75977-.47364,0-.48339-.76465-.4834H24.09668v4.873a.86227.86227,0,0,1-.97949.97656.85314.85314,0,0,1-.97461-.96679v-5.874A.86525.86525,0,0,1,23.11719,240.66309Z" transform="translate(0.06557 -0.07767)" style="fill:#fff"/><path d="M30.9082,240.66309a.87756.87756,0,0,1,.98926.96679V247.499a.97712.97712,0,1,1-1.9541.00489v-5.86914A.85583.85583,0,0,1,30.9082,240.66309Z" transform="translate(0.06557 -0.07767)" style="fill:#fff"/><path d="M36.74609,240.66309l1.958-.00489a.87.87,0,0,1,.96485.98633.842.842,0,0,1-.96.95215l-1.95312.00977a2.007,2.007,0,0,0-.96289.251,1.80788,1.80788,0,0,0-.72852.72266,1.9992,1.9992,0,0,0-.26269.98437,1.97516,1.97516,0,0,0,.25781.97168,1.83309,1.83309,0,0,0,.72363.72266,1.98267,1.98267,0,0,0,.97266.25879,2.417,2.417,0,0,0,1.02539-.24219,1.50056,1.50056,0,0,0,.75293-.749h-.81445a.86035.86035,0,0,1-.98828-.957.876.876,0,0,1,.97363-.99121l1.959.00976a.88619.88619,0,0,1,.98926.98633,3.96563,3.96563,0,0,1-.51367,1.94531,3.618,3.618,0,0,1-1.44531,1.44531,3.92181,3.92181,0,0,1-3.8877,0,3.618,3.618,0,0,1-1.44531-1.44531,3.944,3.944,0,0,1,.00781-3.90625,3.5909,3.5909,0,0,1,1.4541-1.44531A3.98784,3.98784,0,0,1,36.74609,240.66309Z" transform="translate(0.06557 -0.07767)" style="fill:#fff"/><path d="M15.79883,285.66309a.99768.99768,0,0,1,.72558.249q.23438.23877,2.208,2.207,1.94824-1.95409,2.19238-2.20508a.96814.96814,0,0,1,.72559-.251.86513.86513,0,0,1,.97461.97168l.00488,5.85937a.879.879,0,0,1-.98437.98633.88.88,0,0,1-.97949-.98633V289.042q-.97852,1.01074-1.22071,1.25684a1.162,1.162,0,0,1-1.4414-.00684q-.252-.25488-1.22559-1.23047v3.43262a.87063.87063,0,0,1-.97461.97656.85732.85732,0,0,1-.97461-.97656v-5.85937A.85773.85773,0,0,1,15.79883,285.66309Z" transform="translate(0.06557 -0.07767)" style="fill:#fff"/><path d="M27.49316,285.66309a3.97992,3.97992,0,0,1,1.917.50488,3.63978,3.63978,0,0,1,1.46191,1.44531,3.92166,3.92166,0,0,1,.01465,3.90625,3.618,3.618,0,0,1-1.44531,1.44531,3.92181,3.92181,0,0,1-3.8877,0,3.618,3.618,0,0,1-1.44531-1.44531,3.944,3.944,0,0,1,.00781-3.90625,3.5909,3.5909,0,0,1,1.4541-1.44531A3.98784,3.98784,0,0,1,27.49316,285.66309ZM26.54,287.85742a1.80788,1.80788,0,0,0-.72852.72266,1.9992,1.9992,0,0,0-.26269.98437,1.97516,1.97516,0,0,0,.25781.97168,1.83309,1.83309,0,0,0,.72363.72266,1.95542,1.95542,0,0,0,1.94434,0,1.833,1.833,0,0,0,.72363-.72266,1.96788,1.96788,0,0,0-.00488-1.95605,1.803,1.803,0,0,0-.73145-.72266,1.96513,1.96513,0,0,0-1.92187,0Z" transform="translate(0.06557 -0.07767)" style="fill:#fff"/><path d="M33.34961,285.66309h2.92383q3.90234.00439,3.90234,3.90625-.0044,3.89063-3.80078,3.90136H33.34961a.85769.85769,0,0,1-.97461-.97656v-5.85449A.86741.86741,0,0,1,33.34961,285.66309Zm.97949,1.958v3.89161h1.9541a1.94586,1.94586,0,0,0-.00488-3.89161Z" transform="translate(0.06557 -0.07767)" style="fill:#fff"/><path d="M19.7002,340.66309a3.97991,3.97991,0,0,1,1.917.50488,3.63978,3.63978,0,0,1,1.46191,1.44531,3.92166,3.92166,0,0,1,.01465,3.90625,3.618,3.618,0,0,1-1.44531,1.44531,3.92181,3.92181,0,0,1-3.8877,0,3.618,3.618,0,0,1-1.44531-1.44531,3.944,3.944,0,0,1,.00781-3.90625,3.5909,3.5909,0,0,1,1.4541-1.44531A3.98785,3.98785,0,0,1,19.7002,340.66309Zm-.95313,2.19433a1.80794,1.80794,0,0,0-.72852.72266,1.9992,1.9992,0,0,0-.26269.98437,1.97516,1.97516,0,0,0,.25781.97168,1.83309,1.83309,0,0,0,.72363.72266,1.95542,1.95542,0,0,0,1.94434,0,1.833,1.833,0,0,0,.72363-.72266,1.96782,1.96782,0,0,0-.00488-1.95605,1.803,1.803,0,0,0-.73144-.72266,1.96515,1.96515,0,0,0-1.92188,0Z" transform="translate(0.06557 -0.07767)" style="fill:#fff"/><path d="M25.57617,340.65332a.85246.85246,0,0,1,.97949.94238l-.00488,2.97364q.00879,1.95262,1.48145,1.96289,1.46045-.01466,1.45605-1.96778v-2.93457a.97712.97712,0,1,1,1.9541.00489v2.93457q-.00439,3.90087-3.41015,3.90136-3.42627.02344-3.43067-3.90136v-2.93946A.86983.86983,0,0,1,25.57617,340.65332Z" transform="translate(0.06557 -0.07767)" style="fill:#fff"/><path d="M33.35254,340.65332l4.93066.00977a.8341.8341,0,0,1,.916.94726.8898.8898,0,0,1-.98438,1.01074H36.75879l.00488,4.87793a.87391.87391,0,0,1-.97949.97168.84956.84956,0,0,1-.97461-.94726l.00488-4.90235H33.35254a.8646.8646,0,0,1-.97461-.98144A.87974.87974,0,0,1,33.35254,340.65332Z" transform="translate(0.06557 -0.07767)" style="fill:#fff"/><path d="M109.3125,151.95752a.61572.61572,0,0,1,.69238.66992l-.00683,3.43164H112.709a.61158.61158,0,0,1,.68946.69043.60468.60468,0,0,1-.67578.68018H109.3125a.5969.5969,0,0,1-.68262-.66309V152.648A.61639.61639,0,0,1,109.3125,151.95752Z" transform="translate(0.06557 -0.07767)" style="fill:#fff"/><path d="M114.7666,151.95752l3.45117.00684a.584.584,0,0,1,.64161.66308.62289.62289,0,0,1-.68946.70752h-2.71777v2.72412h2.71094a.61158.61158,0,0,1,.68945.69043.60468.60468,0,0,1-.67578.68018H114.7666a.5969.5969,0,0,1-.68262-.66309V152.648A.61639.61639,0,0,1,114.7666,151.95752Zm1.0127,2.75488a.61487.61487,0,0,1,.67578-.69385h1.37109a.68533.68533,0,1,1,.00293,1.37061H116.458A.59877.59877,0,0,1,115.7793,154.7124Z" transform="translate(0.06557 -0.07767)" style="fill:#fff"/><path d="M120.3125,151.97119a.8378.8378,0,0,1,.59375.28027l2.043,2.61133v-2.29345a.53392.53392,0,0,1,.58008-.59815q.76758.01026.77343.61182l.00684,4.25195q-.00586.58813-.78027.59473a.70222.70222,0,0,1-.57032-.28028l-2.05273-2.60449v2.29a.52933.52933,0,0,1-.59375.59473q-.77051.00366-.77441-.60156v-4.26221Q119.53515,151.97486,120.3125,151.97119Z" transform="translate(0.06557 -0.07767)" style="fill:#fff"/><path d="M127.7207,151.96436l1.3711-.00342a.6088.6088,0,0,1,.6748.69043.58938.58938,0,0,1-.67187.6665l-1.36719.00684a1.39445,1.39445,0,0,0-.67383.17627,1.26124,1.26124,0,0,0-.50976.50586,1.37356,1.37356,0,0,0-.00391,1.36865,1.28826,1.28826,0,0,0,.50684.50586,1.38289,1.38289,0,0,0,.68066.18115,1.69706,1.69706,0,0,0,.71777-.16895,1.05208,1.05208,0,0,0,.52735-.5249h-.57032a.60263.60263,0,0,1-.69238-.66992.614.614,0,0,1,.68262-.69385l1.37109.00684a.62054.62054,0,0,1,.69238.69043,2.78546,2.78546,0,0,1-.35937,1.3623,2.54356,2.54356,0,0,1-1.01172,1.01172,2.74973,2.74973,0,0,1-2.72168,0,2.54362,2.54362,0,0,1-1.01172-1.01172,2.764,2.764,0,0,1,.00489-2.73437,2.5116,2.5116,0,0,1,1.01855-1.01172A2.78656,2.78656,0,0,1,127.7207,151.96436Z" transform="translate(0.06557 -0.07767)" style="fill:#fff"/><path d="M131.82031,151.95752l3.45117.00684a.584.584,0,0,1,.64161.66308.62289.62289,0,0,1-.68946.70752H134.2041l.00391,3.41455a.61131.61131,0,0,1-.68555.68018.59494.59494,0,0,1-.68262-.66309l.00391-3.43164h-1.02344a.6053.6053,0,0,1-.68261-.687A.61639.61639,0,0,1,131.82031,151.95752Z" transform="translate(0.06557 -0.07767)" style="fill:#fff"/><path d="M137.96289,152.64453l-.00293,4.10156a.6111.6111,0,0,1-.68555.6836.60022.60022,0,0,1-.67871-.68018V152.648a.68362.68362,0,1,1,1.36719-.00342Zm3.40723-.00342-.00293,4.105a.6015.6015,0,0,1-.68555.6836.59534.59534,0,0,1-.67871-.67676v-1.37744L139,155.37891a.6824.6824,0,1,1,0-1.36377l1.00293-.01026v-1.36377a.68363.68363,0,1,1,1.36719,0Z" transform="translate(0.06557 -0.07767)" style="fill:#fff"/><path d="M22.8457,101.63965a.85255.85255,0,0,1-.94043.98144l-2.96679-.00488q-.98437.00952-.99414.49805.01464.46362.999.459h.96q2.937.00952,2.95215,2.47559,0,2.39721-2.94727,2.41211H16.97949a.9595.9595,0,1,1-.00976-1.91895l2.93847-.01465q.98292-.00512.9834-.50293,0-.498-.99316-.49316h-.96q-2.92969-.00513-2.92871-2.417-.019-2.44629,2.92871-2.45117h2.93261A.86982.86982,0,0,1,22.8457,101.63965Z" transform="translate(0.06557 -0.07767)" style="fill:#fff"/><path d="M24.77051,100.65332l4.93066.00977a.83431.83431,0,0,1,.916.94726.8898.8898,0,0,1-.98438,1.01074h-1.456l.00488,4.87793a.8735.8735,0,0,1-.97949.97168.84937.84937,0,0,1-.97461-.94726l.00488-4.90235H24.77051a.8646.8646,0,0,1-.97461-.98144A.87994.87994,0,0,1,24.77051,100.65332Z" transform="translate(0.06557 -0.07767)" style="fill:#fff"/><path d="M32.56152,100.65332l4.93067.00977a.8343.8343,0,0,1,.916.94726.88979.88979,0,0,1-.98437,1.01074H33.541v3.89161h3.873a.8736.8736,0,0,1,.98438.98632.86336.86336,0,0,1-.96485.97168H32.56152a.8521.8521,0,0,1-.97461-.94726v-5.88379A.87994.87994,0,0,1,32.56152,100.65332Zm1.44727,3.93555a.87783.87783,0,0,1,.96484-.99121h1.958a.979.979,0,1,1,.00488,1.958h-1.958A.85543.85543,0,0,1,34.00879,104.58887Z" transform="translate(0.06557 -0.07767)" style="fill:#fff"/><path d="M40.3584,100.66309h3.41992a2.35217,2.35217,0,0,1,1.68359.72265,2.2837,2.2837,0,0,1,.73829,1.709,2.33642,2.33642,0,0,1-.72852,1.72851,2.377,2.377,0,0,1-1.72656.71778l-.96.00976a.98394.98394,0,0,1,.01464-1.96777l.69141-.00488q.7705.00951.75977-.47364,0-.48339-.76465-.4834H41.33789v4.87305a.86208.86208,0,0,1-.97949.97656.85276.85276,0,0,1-.97461-.96679v-5.874A.86565.86565,0,0,1,40.3584,100.66309Z" transform="translate(0.06557 -0.07767)" style="fill:#fff"/><path d="M54.01563,101.63965a.85255.85255,0,0,1-.94043.98144l-2.9668-.00488q-.98437.00952-.99414.49805.01464.46362.999.459h.96q2.937.00952,2.95215,2.47559,0,2.39721-2.94726,2.41211H48.14941a.9595.9595,0,1,1-.00976-1.91895l2.93848-.01465q.98291-.00512.98339-.50293,0-.498-.99316-.49316h-.96q-2.9297-.00513-2.92871-2.417-.01905-2.44629,2.92871-2.45117H53.041A.86982.86982,0,0,1,54.01563,101.63965Z" transform="translate(0.06557 -0.07767)" style="fill:#fff"/><path d="M94.46094,101.63965a.85255.85255,0,0,1-.94043.98144l-2.9668-.00488q-.98437.00952-.99414.49805.01466.46362.999.459h.96q2.937.00952,2.95215,2.47559,0,2.39721-2.94726,2.41211H88.59473A.9595.9595,0,1,1,88.585,106.542l2.93848-.01465q.98291-.00512.9834-.50293,0-.498-.99317-.49316h-.96q-2.92968-.00513-2.92871-2.417-.019-2.44629,2.92871-2.45117h2.93262A.86982.86982,0,0,1,94.46094,101.63965Z" transform="translate(0.06557 -0.07767)" style="fill:#fff"/><path d="M99.30469,100.66309l1.95312.00488a.97413.97413,0,1,1-.00488,1.94824l-1.94336.00488a1.71235,1.71235,0,0,0-1.94434,1.94825,1.72969,1.72969,0,0,0,1.94922,1.95312h1.93848a.97414.97414,0,0,1,.00977,1.94824H99.31445q-3.89942,0-3.90332-3.90625Q95.41113,100.65845,99.30469,100.66309Z" transform="translate(0.06557 -0.07767)" style="fill:#fff"/><path d="M104.18164,108.47559a1.00132,1.00132,0,0,1-.48047-.12452.89019.89019,0,0,1-.3623-.35888.99184.99184,0,0,1-.13184-.49317,23.61481,23.61481,0,0,1,1.457-3.18847q1.45606-2.93483,1.583-3.16651a.9.9,0,0,1,.36133-.36133.98973.98973,0,0,1,.4873-.12939.979.979,0,0,1,.48438.12939.91608.91608,0,0,1,.36035.36133q.12891.23218,1.59375,3.16651a23.65946,23.65946,0,0,1,1.46387,3.18847.99184.99184,0,0,1-.13184.49317.88552.88552,0,0,1-.36523.35888,1.00156,1.00156,0,0,1-.47754.12452Zm4.249-1.96778-1.335-2.749-1.34082,2.749Z" transform="translate(0.06557 -0.07767)" style="fill:#fff"/><path d="M112.94336,100.65332a.8799.8799,0,0,1,.98926.957l-.00977,4.90235h3.87305a.8736.8736,0,0,1,.98437.98632.86336.86336,0,0,1-.96484.97168h-4.87207a.8521.8521,0,0,1-.97461-.94726v-5.88379A.87994.87994,0,0,1,112.94336,100.65332Z" transform="translate(0.06557 -0.07767)" style="fill:#fff"/><path d="M120.73438,100.65332l4.93066.00977a.8343.8343,0,0,1,.916.94726.88979.88979,0,0,1-.98437,1.01074h-3.88281v3.89161h3.873a.8736.8736,0,0,1,.98438.98632.86336.86336,0,0,1-.96484.97168h-4.87207a.85209.85209,0,0,1-.97461-.94726v-5.88379A.87994.87994,0,0,1,120.73438,100.65332Zm1.44726,3.93555a.87783.87783,0,0,1,.96484-.99121h1.958a.979.979,0,1,1,.00489,1.958h-1.958A.85543.85543,0,0,1,122.18164,104.58887Z" transform="translate(0.06557 -0.07767)" style="fill:#fff"/><path d="M128.53027,100.66309h3.41993a2.5149,2.5149,0,0,1,2.42187,2.43164,3.617,3.617,0,0,1-.36719,1.70654,1.23735,1.23735,0,0,1-1.10937.72021l1.2041,1.22071a1.025,1.025,0,0,1,.28711.75683.86509.86509,0,0,1-.97461.97168,1.33326,1.33326,0,0,1-.97949-.47851l-1.94824-2.42188a1.53326,1.53326,0,0,1-.49708-1.00586.86608.86608,0,0,1,.98438-.98144l.69141-.00488q.7705.00951.75976-.47364,0-.48339-.76465-.4834h-2.14843v4.87305a.86209.86209,0,0,1-.9795.97656.85276.85276,0,0,1-.97461-.96679v-5.874A.86566.86566,0,0,1,128.53027,100.66309Z" transform="translate(0.06557 -0.07767)" style="fill:#fff"/><path d="M9.48682,150.66309h3.41992a2.5149,2.5149,0,0,1,2.42187,2.43164,3.61714,3.61714,0,0,1-.36718,1.70654,1.23737,1.23737,0,0,1-1.10938.72021l1.2041,1.22071a1.025,1.025,0,0,1,.28711.75683.86508.86508,0,0,1-.97461.97168,1.33329,1.33329,0,0,1-.97949-.47851l-1.94824-2.42188a1.53324,1.53324,0,0,1-.49707-1.00586.86607.86607,0,0,1,.98437-.98144l.69141-.00488q.77051.00951.75976-.47364,0-.48339-.76464-.4834H10.46631v4.873a.86208.86208,0,0,1-.97949.97656.85276.85276,0,0,1-.97461-.96679v-5.874A.86565.86565,0,0,1,9.48682,150.66309Z" transform="translate(0.06557 -0.07767)" style="fill:#fff"/><path d="M17.28271,150.65332l4.93067.00977a.8343.8343,0,0,1,.916.94726.88979.88979,0,0,1-.98437,1.01074H18.26221v3.89161h3.873a.8736.8736,0,0,1,.98438.98632.86336.86336,0,0,1-.96484.97168H17.28271a.85209.85209,0,0,1-.9746-.94726v-5.88379A.87994.87994,0,0,1,17.28271,150.65332ZM18.73,154.58887a.87783.87783,0,0,1,.96484-.99121h1.958a.979.979,0,1,1,.00488,1.958h-1.958A.85543.85543,0,0,1,18.73,154.58887Z" transform="translate(0.06557 -0.07767)" style="fill:#fff"/><path d="M30.93506,151.63965a.85255.85255,0,0,1-.94043.98144l-2.9668-.00488q-.98437.00952-.99414.49805.01465.46362.999.459h.96q2.937.00952,2.95214,2.47559,0,2.39721-2.94726,2.41211H25.06885a.9595.9595,0,1,1-.00977-1.91895l2.93848-.01465q.98291-.00512.9834-.50293,0-.498-.99317-.49316h-.96q-2.92968-.00513-2.92871-2.417-.019-2.44629,2.92871-2.45117h2.93262A.86982.86982,0,0,1,30.93506,151.63965Z" transform="translate(0.06557 -0.07767)" style="fill:#fff"/><path d="M32.86084,150.65332l4.93066.00977a.8343.8343,0,0,1,.916.94726.8898.8898,0,0,1-.98438,1.01074H33.84033v3.89161h3.873a.8736.8736,0,0,1,.98437.98632.86335.86335,0,0,1-.96484.97168H32.86084a.8521.8521,0,0,1-.97461-.94726v-5.88379A.87994.87994,0,0,1,32.86084,150.65332Zm1.44727,3.93555a.87782.87782,0,0,1,.96484-.99121h1.958a.979.979,0,1,1,.00488,1.958h-1.958A.85542.85542,0,0,1,34.30811,154.58887Z" transform="translate(0.06557 -0.07767)" style="fill:#fff"/><path d="M40.65186,150.65332l4.93066.00977a.83431.83431,0,0,1,.916.94726.8898.8898,0,0,1-.98438,1.01074h-1.456L44.063,157.499a.87351.87351,0,0,1-.97949.97168.84937.84937,0,0,1-.97461-.94726l.00488-4.90235H40.65186a.8646.8646,0,0,1-.97461-.98144A.87994.87994,0,0,1,40.65186,150.65332Z" transform="translate(0.06557 -0.07767)" style="fill:#fff"/><path d="M49.31494,1.39307h6.00537a4.08226,4.08226,0,0,1,2.95557,1.30078A4.169,4.169,0,0,1,59.57178,5.77,4.26311,4.26311,0,0,1,58.293,8.88135a4.124,4.124,0,0,1-3.03272,1.292l-1.685.01758q-1.6941.00879-1.70215-1.77539a1.53989,1.53989,0,0,1,1.728-1.7666l1.21436-.00879q1.35206.01758,1.33447-.85254,0-.87012-1.34277-.87012H51.03467V13.689a1.53284,1.53284,0,0,1-1.71973,1.75782A1.51654,1.51654,0,0,1,47.604,13.70654V3.1333A1.53961,1.53961,0,0,1,49.31494,1.39307Z" transform="translate(0.06557 -0.07767)" style="fill:#fff"/><path d="M62.99365,1.39307A1.55985,1.55985,0,0,1,64.73,3.1333V13.69775a1.71627,1.71627,0,1,1-3.43018.00879V3.14209A1.5223,1.5223,0,0,1,62.99365,1.39307Z" transform="translate(0.06557 -0.07767)" style="fill:#fff"/><path d="M68.11768,1.37549l8.65771.01758q1.59962.02635,1.60742,1.70507A1.58338,1.58338,0,0,1,76.6543,4.91748H74.09717l.00879,8.78027a1.55229,1.55229,0,0,1-1.71973,1.749,1.50969,1.50969,0,0,1-1.71094-1.70508l.00879-8.82422h-2.5664a1.53735,1.53735,0,0,1-1.71094-1.7666A1.56543,1.56543,0,0,1,68.11768,1.37549Z" transform="translate(0.06557 -0.07767)" style="fill:#fff"/><path d="M86.91992,1.39307l3.43164.00879A1.54447,1.54447,0,0,1,92.0625,3.14209q-.00879,1.77539-1.7207,1.7666l-3.41211.00879q-3.41308-.02637-3.41406,3.50684,0,3.498,3.42187,3.51562h3.4043a1.5444,1.5444,0,0,1,1.71093,1.74024,1.53461,1.53461,0,0,1-1.69335,1.7666H86.9375q-6.84375,0-6.85156-7.03125Q80.08594,1.38428,86.91992,1.39307Z" transform="translate(0.06557 -0.07767)" style="fill:#fff"/><path d="M97.20313,3.14209,97.19531,13.689a1.55205,1.55205,0,0,1-1.7207,1.75782,1.52484,1.52484,0,0,1-1.70117-1.749V3.15088a1.71574,1.71574,0,1,1,3.42969-.00879Zm8.54492-.00879L105.74023,13.689q0,1.7754-1.71875,1.75782a1.513,1.513,0,0,1-1.70312-1.74024v-3.542l-2.51563.00879a1.57392,1.57392,0,0,1-1.77929-1.749A1.5635,1.5635,0,0,1,99.80273,6.6665l2.51563-.02636V3.1333a1.54522,1.54522,0,0,1,1.71875-1.77539Q105.73927,1.35791,105.74805,3.1333Z" transform="translate(0.06557 -0.07767)" style="fill:#fff"/><path d="M15.11475,22.99316a1.56042,1.56042,0,0,1,1.73681,1.74024V35.29785A1.57327,1.57327,0,0,1,15.13184,37.082a1.56042,1.56042,0,0,1-1.71094-1.77539V24.74219A1.52231,1.52231,0,0,1,15.11475,22.99316Z" transform="translate(0.06557 -0.07767)" style="fill:#fff"/><path d="M20.46973,23.01074a2.07707,2.07707,0,0,1,1.48828.72071l5.124,6.71484V24.54883q.03443-1.51171,1.45459-1.53809,1.9248.02637,1.9419,1.57324l.01709,10.9336q-.01758,1.51172-1.959,1.5293a1.74247,1.74247,0,0,1-1.42871-.72071L21.958,29.62891v5.88867a1.34338,1.34338,0,0,1-1.48828,1.5293q-1.9336.00877-1.9419-1.54688V24.54Q18.519,23.01953,20.46973,23.01074Z" transform="translate(0.06557 -0.07767)" style="fill:#fff"/><path d="M33.92627,22.97559l8.65674.01757q1.5996.02637,1.6084,1.70508a1.58325,1.58325,0,0,1-1.728,1.81934H39.90576l.0083,8.78027a1.55173,1.55173,0,0,1-1.71924,1.749,1.50968,1.50968,0,0,1-1.71093-1.70508l.00879-8.82422H33.92627a1.53735,1.53735,0,0,1-1.71094-1.7666A1.565,1.565,0,0,1,33.92627,22.97559Z" transform="translate(0.06557 -0.07767)" style="fill:#fff"/><path d="M47.60449,22.97559l8.65674.01757q1.59962.02637,1.6084,1.70508a1.58325,1.58325,0,0,1-1.728,1.81934H49.32373v7.00488h6.80078a1.5534,1.5534,0,0,1,1.728,1.77539,1.53623,1.53623,0,0,1-1.69385,1.749h-8.5542a1.514,1.514,0,0,1-1.71094-1.70508V24.751A1.565,1.565,0,0,1,47.60449,22.97559Zm2.54053,7.084a1.56222,1.56222,0,0,1,1.69385-1.78418h3.439a1.57187,1.57187,0,0,1,1.73633,1.7666,1.55925,1.55925,0,0,1-1.728,1.75781h-3.439A1.52156,1.52156,0,0,1,50.145,30.05957Z" transform="translate(0.06557 -0.07767)" style="fill:#fff"/><path d="M66.40674,22.99316l3.43847-.00878q1.67726.00877,1.69434,1.77539Q71.522,26.5,69.854,26.47363l-3.43066.01758a3.44493,3.44493,0,0,0-1.68945.45264,3.19741,3.19741,0,0,0-1.27832,1.30078,3.6515,3.6515,0,0,0-.46192,1.771,3.61512,3.61512,0,0,0,.45313,1.749,3.254,3.254,0,0,0,1.27051,1.30078,3.39724,3.39724,0,0,0,1.706.46582,4.15252,4.15252,0,0,0,1.80078-.43506,2.66482,2.66482,0,0,0,1.32227-1.34912H68.11768a1.528,1.528,0,0,1-1.73633-1.72266,1.55965,1.55965,0,0,1,1.71094-1.78418l3.43847.01758a1.576,1.576,0,0,1,1.73633,1.77539,7.2836,7.2836,0,0,1-.90234,3.50244,6.44707,6.44707,0,0,1-2.53614,2.60157,6.74611,6.74611,0,0,1-6.82666,0,6.44393,6.44393,0,0,1-2.53613-2.60157,7.25181,7.25181,0,0,1,.0127-7.03125,6.37863,6.37863,0,0,1,2.55371-2.60156A6.866,6.866,0,0,1,66.40674,22.99316Z" transform="translate(0.06557 -0.07767)" style="fill:#fff"/><path d="M76.69727,22.99316h6.00586a4.0264,4.0264,0,0,1,2.96875,1.33155,4.23548,4.23548,0,0,1,1.2832,3.04541,6.65587,6.65587,0,0,1-.64649,3.07177,2.16992,2.16992,0,0,1-1.94726,1.29639l2.11328,2.19727a1.865,1.865,0,0,1,.50586,1.3623q-.02637,1.75782-1.71094,1.749a2.316,2.316,0,0,1-1.7207-.86133l-3.42188-4.35938a2.789,2.789,0,0,1-.87109-1.81054A1.53965,1.53965,0,0,1,80.98242,28.249l1.21485-.00879c.90234.01172,1.3457-.27246,1.33593-.85253,0-.58008-.44922-.87012-1.34375-.87012H78.416v8.77148a1.53178,1.53178,0,0,1-1.71875,1.75782,1.516,1.516,0,0,1-1.71045-1.74024V24.7334A1.53907,1.53907,0,0,1,76.69727,22.99316Z" transform="translate(0.06557 -0.07767)" style="fill:#fff"/><path d="M90.39453,37.05566a1.72774,1.72774,0,0,1-.84375-.22412,1.591,1.591,0,0,1-.63672-.646,1.81849,1.81849,0,0,1-.23047-.8877,43.0562,43.0562,0,0,1,2.55664-5.73926q2.55762-5.28222,2.78125-5.6997a1.59782,1.59782,0,0,1,.63282-.65039,1.70866,1.70866,0,0,1,.85547-.23291,1.68936,1.68936,0,0,1,.85156.23291,1.64829,1.64829,0,0,1,.63281.65039q.22559.41748,2.79688,5.6997a43.14317,43.14317,0,0,1,2.57031,5.73926,1.81838,1.81838,0,0,1-.23047.8877,1.59275,1.59275,0,0,1-.64258.646,1.72826,1.72826,0,0,1-.83789.22412Zm7.459-3.542-2.34375-4.94824-2.35352,4.94824Z" transform="translate(0.06557 -0.07767)" style="fill:#fff"/><path d="M105.77344,22.97559l8.6582.01757q1.59962.02637,1.60742,1.70508a1.58338,1.58338,0,0,1-1.72851,1.81934h-2.55664l.00781,8.78027a1.55159,1.55159,0,0,1-1.71875,1.749A1.50969,1.50969,0,0,1,108.332,35.3418l.00781-8.82422h-2.5664a1.53735,1.53735,0,0,1-1.71094-1.7666A1.56543,1.56543,0,0,1,105.77344,22.97559Z" transform="translate(0.06557 -0.07767)" style="fill:#fff"/><path d="M124.57617,22.99316a6.85435,6.85435,0,0,1,3.36719.90967,6.46614,6.46614,0,0,1,2.56641,2.60156,7.21148,7.21148,0,0,1,.02539,7.03125,6.44324,6.44324,0,0,1-2.53711,2.60157,6.74521,6.74521,0,0,1-6.82617,0,6.44311,6.44311,0,0,1-2.53711-2.60157,7.25179,7.25179,0,0,1,.01367-7.03125,6.37339,6.37339,0,0,1,2.55273-2.60156A6.86644,6.86644,0,0,1,124.57617,22.99316Zm-1.67187,3.95069a3.20581,3.20581,0,0,0-1.2793,1.30078,3.66663,3.66663,0,0,0-.46094,1.771,3.6097,3.6097,0,0,0,.45313,1.749,3.2548,3.2548,0,0,0,1.26953,1.30078,3.36068,3.36068,0,0,0,3.41406,0,3.2548,3.2548,0,0,0,1.26953-1.30078,3.6097,3.6097,0,0,0,.45313-1.749,3.66663,3.66663,0,0,0-.46094-1.771,3.20293,3.20293,0,0,0-1.2832-1.30078,3.37192,3.37192,0,0,0-3.375,0Z" transform="translate(0.06557 -0.07767)" style="fill:#fff"/><path d="M134.86719,22.99316h6.00586a4.0264,4.0264,0,0,1,2.96875,1.33155,4.23544,4.23544,0,0,1,1.2832,3.04541,6.656,6.656,0,0,1-.64648,3.07177,2.16994,2.16994,0,0,1-1.94727,1.29639l2.11328,2.19727a1.865,1.865,0,0,1,.50586,1.3623q-.02637,1.75782-1.71094,1.749a2.316,2.316,0,0,1-1.7207-.86133l-3.42187-4.35938a2.78894,2.78894,0,0,1-.8711-1.81054,1.53965,1.53965,0,0,1,1.72656-1.76661l1.21485-.00879c.90234.01172,1.3457-.27246,1.33594-.85253,0-.58008-.44922-.87012-1.34375-.87012h-3.77344v8.77148a1.53178,1.53178,0,0,1-1.71875,1.75782,1.51616,1.51616,0,0,1-1.71094-1.74024V24.7334A1.53962,1.53962,0,0,1,134.86719,22.99316Z" transform="translate(0.06557 -0.07767)" style="fill:#fff"/><path d="M115.79,211.96387a.70223.70223,0,0,1,.50781.1748q.16407.167,1.54492,1.54492,1.36524-1.36817,1.53516-1.543a.673.673,0,0,1,.50781-.17676.6063.6063,0,0,1,.68262.68066l.00293,4.10156a.687.687,0,1,1-1.374,0v-2.417q-.68556.70752-.8545.88086a.68147.68147,0,0,1-.50683.17188.674.674,0,0,1-.50293-.17774q-.17579-.17724-.85742-.86133v2.40332a.60961.60961,0,0,1-.68262.6836.59953.59953,0,0,1-.68164-.6836v-4.10156A.60037.60037,0,0,1,115.79,211.96387Z" transform="translate(0.06557 -0.07767)" style="fill:#fff"/><path d="M123.97559,211.96387a2.781,2.781,0,0,1,1.34179.35449,2.53831,2.53831,0,0,1,1.02344,1.01172,2.75544,2.75544,0,0,1,.37012,1.37207,2.78685,2.78685,0,0,1-.35938,1.3623,2.54665,2.54665,0,0,1-1.01172,1.01172,2.74973,2.74973,0,0,1-2.72168,0,2.54663,2.54663,0,0,1-1.01171-1.01172,2.764,2.764,0,0,1,.00488-2.73437,2.50872,2.50872,0,0,1,1.01855-1.01172A2.7872,2.7872,0,0,1,123.97559,211.96387Zm-.667,1.53711a1.25834,1.25834,0,0,0-.50976.50586,1.37264,1.37264,0,0,0-.00391,1.36816,1.282,1.282,0,0,0,.50684.50586,1.36616,1.36616,0,0,0,1.36133,0,1.27342,1.27342,0,0,0,.50586-.50586,1.37089,1.37089,0,0,0,.18066-.67969,1.38865,1.38865,0,0,0-.18359-.68847,1.25708,1.25708,0,0,0-.51172-.50586,1.369,1.369,0,0,0-1.34571,0Z" transform="translate(0.06557 -0.07767)" style="fill:#fff"/><path d="M128.07617,211.96387h2.0459a2.41834,2.41834,0,0,1,2.73242,2.73437q-.00293,2.72461-2.66015,2.73145h-2.11817a.60059.60059,0,0,1-.68262-.6836v-4.09863A.60758.60758,0,0,1,128.07617,211.96387Zm.68555,1.37109v2.72363h1.36719a1.36185,1.36185,0,0,0-.00293-2.72363Z" transform="translate(0.06557 -0.07767)" style="fill:#fff"/><path d="M134.21484,216.06543a.69182.69182,0,0,1,.333.08887.64926.64926,0,0,1,.25391.25195.681.681,0,0,1,.09179.34277.69133.69133,0,0,1-.08984.33692.63315.63315,0,0,1-.251.251.68862.68862,0,0,1-.67675,0,.61513.61513,0,0,1-.251-.251.68768.68768,0,0,1,.00195-.67969.63181.63181,0,0,1,.252-.25195A.69992.69992,0,0,1,134.21484,216.06543Z" transform="translate(0.06557 -0.07767)" style="fill:#fff"/><path d="M110.67773,271.96387a2.781,2.781,0,0,1,1.3418.35449,2.53831,2.53831,0,0,1,1.02344,1.01172,2.75544,2.75544,0,0,1,.37012,1.37207,2.78685,2.78685,0,0,1-.35938,1.3623,2.54665,2.54665,0,0,1-1.01172,1.01172,2.74973,2.74973,0,0,1-2.72168,0,2.54671,2.54671,0,0,1-1.01172-1.01172,2.764,2.764,0,0,1,.00489-2.73437,2.50866,2.50866,0,0,1,1.01855-1.01172A2.78719,2.78719,0,0,1,110.67773,271.96387Zm-.667,1.53711a1.25828,1.25828,0,0,0-.50976.50586,1.37264,1.37264,0,0,0-.00391,1.36816,1.282,1.282,0,0,0,.50684.50586,1.36614,1.36614,0,0,0,1.36132,0,1.27329,1.27329,0,0,0,.50586-.50586,1.3708,1.3708,0,0,0,.18067-.67969,1.38855,1.38855,0,0,0-.1836-.68847,1.257,1.257,0,0,0-.51171-.50586,1.369,1.369,0,0,0-1.34571,0Z" transform="translate(0.06557 -0.07767)" style="fill:#fff"/><path d="M116.82031,271.96387l1.36719.0039a.68165.68165,0,1,1-.00293,1.36328l-1.36133.00391a1.198,1.198,0,0,0-1.36035,1.36328,1.21013,1.21013,0,0,0,1.36426,1.36719h1.35742a.68215.68215,0,0,1,.00684,1.36426h-1.36426a2.73291,2.73291,0,0,1-.00684-5.46582Z" transform="translate(0.06557 -0.07767)" style="fill:#fff"/><path d="M120.23145,271.957l3.45117.00684a.58422.58422,0,0,1,.6416.66308.62324.62324,0,0,1-.68945.708h-1.01954l.00391,3.41406a.61166.61166,0,0,1-.68555.68067.59513.59513,0,0,1-.68261-.66309l.0039-3.43164h-1.02343a.60565.60565,0,0,1-.68262-.6875A.6166.6166,0,0,1,120.23145,271.957Z" transform="translate(0.06557 -0.07767)" style="fill:#fff"/><path d="M125.68848,277.43262a.6975.6975,0,0,1-.33594-.08692.628.628,0,0,1-.25391-.251.69436.69436,0,0,1-.09179-.34571,16.58087,16.58087,0,0,1,1.01953-2.23144q1.01952-2.05518,1.1084-2.2168a.63054.63054,0,0,1,.25293-.25293.69085.69085,0,0,1,.34082-.09082.681.681,0,0,1,.33886.09082.64287.64287,0,0,1,.25293.25293q.09082.1626,1.11524,2.2168a16.5343,16.5343,0,0,1,1.02539,2.23144.69536.69536,0,0,1-.09278.34571.62083.62083,0,0,1-.25586.251.69852.69852,0,0,1-.334.08692Zm2.97461-1.377-.93457-1.9248-.93848,1.9248Z" transform="translate(0.06557 -0.07767)" style="fill:#fff"/><path d="M135.91406,271.957a.70126.70126,0,0,1,.334.08887.63774.63774,0,0,1,.25586.25293.6893.6893,0,0,1,.09277.3418,16.52341,16.52341,0,0,1-1.02539,2.23437q-1.02538,2.05518-1.11524,2.21582a.64679.64679,0,0,1-.25292.25195.69031.69031,0,0,1-.33887.08985.70028.70028,0,0,1-.34082-.08985.63423.63423,0,0,1-.25293-.25195q-.0879-.15966-1.1084-2.21582a16.57006,16.57006,0,0,1-1.01953-2.23437.688.688,0,0,1,.0918-.3418.64523.64523,0,0,1,.2539-.25293.67753.67753,0,0,1,.6709,0,.64378.64378,0,0,1,.25586.25293q.09083.16406,1.44922,2.96387,1.36816-2.79933,1.46-2.96387a.639.639,0,0,1,.25391-.25293A.69707.69707,0,0,1,135.91406,271.957Z" transform="translate(0.06557 -0.07767)" style="fill:#fff"/><path d="M137.957,271.957l3.45117.00684a.58422.58422,0,0,1,.6416.66308.62324.62324,0,0,1-.68945.708h-2.71777v2.72363h2.71094a.61178.61178,0,0,1,.68945.69043.605.605,0,0,1-.67578.68067H137.957a.5971.5971,0,0,1-.68262-.66309v-4.11914A.6166.6166,0,0,1,137.957,271.957Zm1.0127,2.75488a.61471.61471,0,0,1,.67578-.69336h1.37109a.68509.68509,0,1,1,.00293,1.37012h-1.37109A.59838.59838,0,0,1,138.96973,274.71191Z" transform="translate(0.06557 -0.07767)" style="fill:#fff"/><path d="M109.3291,332.64746a.59688.59688,0,0,1-.6582.6875l-2.07715-.00391c-.459.00489-.69141.1211-.69531.34864.00683.21679.23926.32422.69922.32129h.67187q2.05665.00732,2.06641,1.7334,0,1.67724-2.06348,1.68847h-2.0498a.67189.67189,0,1,1-.00684-1.34375l2.05664-.00976q.68994-.00439.68945-.35254,0-.34863-.69628-.34473h-.67188q-2.04931-.00439-2.0498-1.69238-.01318-1.7124,2.0498-1.71582h2.05371A.6089.6089,0,0,1,109.3291,332.64746Z" transform="translate(0.06557 -0.07767)" style="fill:#fff"/><path d="M110.67676,331.957l3.45117.00684a.58422.58422,0,0,1,.6416.66308.62324.62324,0,0,1-.68945.708H111.3623v2.72363h2.71094a.61179.61179,0,0,1,.68946.69043.605.605,0,0,1-.67579.68067h-3.41015a.59709.59709,0,0,1-.68262-.66309v-4.11914A.6166.6166,0,0,1,110.67676,331.957Zm1.01269,2.75488a.61472.61472,0,0,1,.67578-.69336h1.3711a.68509.68509,0,1,1,.00293,1.37012h-1.3711A.59839.59839,0,0,1,111.68945,334.71191Z" transform="translate(0.06557 -0.07767)" style="fill:#fff"/><path d="M116.13086,331.96387a.70223.70223,0,0,1,.50781.1748q.16407.167,1.54492,1.54492,1.36524-1.36816,1.53516-1.543a.673.673,0,0,1,.50781-.17676.6063.6063,0,0,1,.68262.68066l.00293,4.10156a.687.687,0,1,1-1.374,0v-2.417q-.68556.70752-.8545.88086a.68147.68147,0,0,1-.50683.17188.674.674,0,0,1-.50293-.17774q-.17578-.17724-.85742-.86133v2.40332a.60961.60961,0,0,1-.68262.6836.59953.59953,0,0,1-.68164-.6836v-4.10156A.60037.60037,0,0,1,116.13086,331.96387Z" transform="translate(0.06557 -0.07767)" style="fill:#fff"/><path d="M122.26953,331.96387a.61468.61468,0,0,1,.69238.67676V336.749a.68365.68365,0,1,1-1.36718.00391v-4.1084A.59916.59916,0,0,1,122.26953,331.96387Z" transform="translate(0.06557 -0.07767)" style="fill:#fff"/><path d="M124.31348,331.957l3.45117.00684a.58422.58422,0,0,1,.6416.66308.62324.62324,0,0,1-.68945.708h-1.01953l.0039,3.41406a.61166.61166,0,0,1-.68554.68067.59514.59514,0,0,1-.68262-.66309l.0039-3.43164h-1.02343a.60565.60565,0,0,1-.68262-.6875A.6166.6166,0,0,1,124.31348,331.957Z" transform="translate(0.06557 -0.07767)" style="fill:#fff"/><path d="M131.81055,331.96387a2.781,2.781,0,0,1,1.34179.35449,2.53831,2.53831,0,0,1,1.02344,1.01172,2.75544,2.75544,0,0,1,.37012,1.37207,2.78685,2.78685,0,0,1-.35938,1.3623,2.54659,2.54659,0,0,1-1.01172,1.01172,2.74971,2.74971,0,0,1-2.72167,0,2.54659,2.54659,0,0,1-1.01172-1.01172,2.764,2.764,0,0,1,.00488-2.73437,2.50872,2.50872,0,0,1,1.01855-1.01172A2.7872,2.7872,0,0,1,131.81055,331.96387Zm-.667,1.53711a1.25834,1.25834,0,0,0-.50976.50586,1.37264,1.37264,0,0,0-.00391,1.36816,1.282,1.282,0,0,0,.50684.50586,1.36616,1.36616,0,0,0,1.36133,0,1.27342,1.27342,0,0,0,.50586-.50586,1.37089,1.37089,0,0,0,.18066-.67969,1.38865,1.38865,0,0,0-.18359-.68847,1.25708,1.25708,0,0,0-.51172-.50586,1.369,1.369,0,0,0-1.34571,0Z" transform="translate(0.06557 -0.07767)" style="fill:#fff"/><path d="M136.002,331.9707a.84157.84157,0,0,1,.59375.28028l2.043,2.61132v-2.293a.53408.53408,0,0,1,.58008-.59864q.76758.01026.77344.61231l.00683,4.252q-.00585.5874-.78027.59473a.70357.70357,0,0,1-.57031-.28028l-2.05274-2.60449v2.29a.52972.52972,0,0,1-.59375.59473q-.7705.00293-.77441-.60156v-4.2627Q135.22462,331.97511,136.002,331.9707Z" transform="translate(0.06557 -0.07767)" style="fill:#fff"/><path d="M141.36719,331.957l3.45117.00684a.58422.58422,0,0,1,.6416.66308.62324.62324,0,0,1-.68945.708h-2.71778v2.72363h2.71094a.61179.61179,0,0,1,.68946.69043.605.605,0,0,1-.67579.68067h-3.41015a.59709.59709,0,0,1-.68262-.66309v-4.11914A.6166.6166,0,0,1,141.36719,331.957Zm1.01269,2.75488a.61472.61472,0,0,1,.67578-.69336h1.3711a.68509.68509,0,1,1,.00293,1.37012h-1.3711A.59839.59839,0,0,1,142.37988,334.71191Z" transform="translate(0.06557 -0.07767)" style="fill:#fff"/><g id="Illustration_28" data-name="Illustration 28"><g style="clip-path:url(#clip-path-4)"><g style="clip-path:url(#clip-path-4)"><path d="M111.31023,142.03232a2.02432,2.02432,0,1,1-2.0241-1.99428,2.00944,2.00944,0,0,1,2.0241,1.99428" transform="translate(0.06557 -0.07767)" style="fill:#fff"/><ellipse cx="109.3517" cy="141.95465" rx="2.0241" ry="1.99428" style="fill:none;stroke:#000;stroke-miterlimit:10;stroke-width:0.2511413497722664px"/></g><path d="M107.75586,142.73145v-.9585h.15332v.18018c.0752-.13428.14648-.20118.21484-.20118q.13038,0,.167.20118h.00683c.06055-.13428.13281-.20118.21582-.20118a.14259.14259,0,0,1,.13086.06543.41708.41708,0,0,1,.041.21241v.70166h-.15332v-.69434a.32025.32025,0,0,0-.01172-.10693.04285.04285,0,0,0-.043-.02832c-.05566,0-.11621.07031-.17969.21093v.61866h-.15332v-.6626a.47928.47928,0,0,0-.01172-.13233.04506.04506,0,0,0-.0459-.03271c-.02539,0-.05468.02-.08886.06006a.615.615,0,0,0-.08887.15088v.6167Z" transform="translate(0.06557 -0.07767)" style="fill:#fff"/><path d="M109.26953,142.73145v-.82764h-.34961V141.773h.52442v.9585Zm-.02148-1.1753v-.21826h.21875v.21826Z" transform="translate(0.06557 -0.07767)" style="fill:#fff"/><path d="M110.02051,142.73145v-.9585h.1748v.18018a.36672.36672,0,0,1,.32715-.20118q.27393,0,.27442.32373v.65577h-.17481v-.60791a.27572.27572,0,0,0-.03516-.15967.13708.13708,0,0,0-.11718-.04688c-.08789,0-.17871.0625-.27442.188v.62647Z" transform="translate(0.06557 -0.07767)" style="fill:#fff"/><g style="clip-path:url(#clip-path-4)"><path d="M107.90934,142.732v-.61673a.57673.57673,0,0,1,.08906-.15057c.0339-.04038.06325-.06033.088-.06033a.04466.04466,0,0,1,.046.03291.486.486,0,0,1,.01163.13212v.6626h.15333v-.61873q.09639-.21088.17964-.21089a.04338.04338,0,0,1,.04352.02842.33257.33257,0,0,1,.01113.10669v.69451h.15332v-.70149a.42321.42321,0,0,0-.04048-.21239.14353.14353,0,0,0-.13156-.06581q-.12374,0-.21557.20142h-.00658q-.03718-.20117-.16749-.20142-.10171,0-.21405.20142v-.18H107.756v.95825Z" transform="translate(0.06557 -0.07767)" style="fill:none;stroke:#000;stroke-miterlimit:10;stroke-width:0.1255706748861332px"/><path d="M109.46648,141.33846h-.21861v.21787h.21861Zm-.02227,1.3935v-.95825H108.92v.13062h.34966v.82763Z" transform="translate(0.06557 -0.07767)" style="fill:none;stroke:#000;stroke-miterlimit:10;stroke-width:0.1255706748861332px"/><path d="M110.19535,142.732v-.6267q.14346-.18771.27427-.188a.1359.1359,0,0,1,.1174.04736.27361.27361,0,0,1,.03542.159v.60826h.17407v-.65562q0-.32382-.27376-.32407a.36812.36812,0,0,0-.3274.20142v-.18h-.17457v.95825Z" transform="translate(0.06557 -0.07767)" style="fill:none;stroke:#000;stroke-miterlimit:10;stroke-width:0.1255706748861332px"/><path d="M142.68372,142.03232a2.02432,2.02432,0,1,1-2.02409-1.99428,2.00944,2.00944,0,0,1,2.02409,1.99428" transform="translate(0.06557 -0.07767)" style="fill:#fff"/><ellipse cx="140.7252" cy="141.95465" rx="2.0241" ry="1.99428" style="fill:none;stroke:#000;stroke-miterlimit:10;stroke-width:0.2511413497722664px"/></g><path d="M139.12988,142.73145v-.9585h.15332v.18018c.0752-.13428.14649-.20118.21485-.20118q.13036,0,.167.20118h.00684c.06054-.13428.13281-.20118.21582-.20118a.14258.14258,0,0,1,.13085.06543.41708.41708,0,0,1,.041.21241v.70166h-.15332v-.69434a.32025.32025,0,0,0-.01172-.10693.04285.04285,0,0,0-.043-.02832c-.05566,0-.11621.07031-.17968.21093v.61866h-.15333v-.6626a.47981.47981,0,0,0-.01171-.13233.04507.04507,0,0,0-.0459-.03271c-.02539,0-.05469.02-.08887.06006a.61528.61528,0,0,0-.08887.15088v.6167Z" transform="translate(0.06557 -0.07767)" style="fill:#fff"/><path d="M140.87988,142.61572a.49332.49332,0,0,1-.31543.13233.31712.31712,0,0,1-.21777-.07471.24361.24361,0,0,1-.08594-.18994.27978.27978,0,0,1,.13281-.23975.60987.60987,0,0,1,.35157-.09131h.10742v-.082a.19346.19346,0,0,0-.04492-.14453.21256.21256,0,0,0-.14942-.04346.67015.67015,0,0,0-.31347.085v-.14942a1.03812,1.03812,0,0,1,.34863-.06592.3657.3657,0,0,1,.25781.07227.3357.3357,0,0,1,.07617.25v.40137a.25092.25092,0,0,0,.01856.11767.0752.0752,0,0,0,.07031.03125.28338.28338,0,0,0,.05469-.00879l.01562.10449a.479.479,0,0,1-.13183.02784A.17264.17264,0,0,1,140.87988,142.61572Zm-.02734-.11279v-.2417h-.05176c-.23926,0-.35937.06445-.35937.19287a.14381.14381,0,0,0,.04687.11231.172.172,0,0,0,.12207.04248A.39017.39017,0,0,0,140.85254,142.50293Z" transform="translate(0.06557 -0.07767)" style="fill:#fff"/><path d="M141.31641,142.73145l.35839-.48438-.35644-.47412h.21777l.2666.35449.24415-.35449h.17285l-.32715.47363.36426.48487h-.21778l-.27539-.36622-.27051.36622Z" transform="translate(0.06557 -0.07767)" style="fill:#fff"/><g style="clip-path:url(#clip-path-4)"><path d="M139.28309,142.732v-.61673a.57644.57644,0,0,1,.08905-.15057c.03391-.04038.06326-.06033.08805-.06033a.04465.04465,0,0,1,.046.03291.48585.48585,0,0,1,.01164.13212v.6626h.15332v-.61873q.09641-.21088.17964-.21089a.04338.04338,0,0,1,.04352.02842.33257.33257,0,0,1,.01113.10669v.69451h.15333v-.70149a.42321.42321,0,0,0-.04048-.21239.14355.14355,0,0,0-.13157-.06581q-.12372,0-.21557.20142h-.00657q-.0372-.20117-.1675-.20142-.10172,0-.214.20142v-.18h-.15333v.95825Z" transform="translate(0.06557 -0.07767)" style="fill:none;stroke:#000;stroke-miterlimit:10;stroke-width:0.1255706748861332px"/><path d="M140.60988,142.60916a.173.173,0,0,1-.12246-.04238.14465.14465,0,0,1-.04554-.11168q0-.19369.35877-.19344h.05212v.2418A.39323.39323,0,0,1,140.60988,142.60916Zm.44429.1396a.47779.47779,0,0,0,.13257-.02842l-.01619-.1042a.27252.27252,0,0,1-.05465.009.07518.07518,0,0,1-.07034-.03141.25709.25709,0,0,1-.01872-.11766v-.40184a.34049.34049,0,0,0-.07539-.24979.37188.37188,0,0,0-.25858-.07229,1.048,1.048,0,0,0-.34866.06631v.14957a.67232.67232,0,0,1,.31374-.08476.211.211,0,0,1,.14928.04288.19407.19407,0,0,1,.04554.14508v.08177h-.10829a.61207.61207,0,0,0-.35067.09074.27918.27918,0,0,0-.13258.24031.24261.24261,0,0,0,.085.19.31878.31878,0,0,0,.21759.07479.49287.49287,0,0,0,.31627-.13262A.17205.17205,0,0,0,141.05417,142.74876Z" transform="translate(0.06557 -0.07767)" style="fill:none;stroke:#000;stroke-miterlimit:10;stroke-width:0.1255706748861332px"/><polygon points="141.558 142.654 141.828 142.288 142.103 142.654 142.321 142.654 141.957 142.169 142.284 141.696 142.111 141.696 141.867 142.051 141.601 141.696 141.383 141.696 141.739 142.17 141.381 142.654 141.558 142.654" style="fill:none;stroke:#000;stroke-miterlimit:10;stroke-width:0.1255706748861332px"/></g></g></g><g id="Illustration_28-2" data-name="Illustration 28"><g style="clip-path:url(#clip-path-8)"><g style="clip-path:url(#clip-path-8)"><path d="M111.31023,317.25942a2.02439,2.02439,0,1,1-2.0241-2.05868,2.0417,2.0417,0,0,1,2.0241,2.05868" transform="translate(0.06557 -0.07767)" style="fill:#fff"/><ellipse cx="109.3517" cy="317.18175" rx="2.0241" ry="2.05868" style="fill:none;stroke:#000;stroke-miterlimit:10;stroke-width:0.2551643159961916px"/></g><path d="M107.75586,317.98145v-.98926h.15332v.18554c.0752-.13867.14648-.207.21484-.207.08692,0,.14258.06836.167.207h.00683c.06055-.13867.13281-.207.21582-.207a.14106.14106,0,0,1,.13086.06739.43945.43945,0,0,1,.041.21875v.72461h-.15332v-.7168a.34093.34093,0,0,0-.01172-.11035.04308.04308,0,0,0-.043-.0293c-.05566,0-.11621.07227-.17969.21777v.63868h-.15332v-.68457a.50213.50213,0,0,0-.01172-.13575.04579.04579,0,0,0-.0459-.03418c-.02539,0-.05468.02051-.08886.0625a.61218.61218,0,0,0-.08887.15528v.63672Z" transform="translate(0.06557 -0.07767)" style="fill:#fff"/><path d="M109.26953,317.98145v-.8545h-.34961v-.13476h.52442v.98926Zm-.02148-1.21387V316.543h.21875v.22461Z" transform="translate(0.06557 -0.07767)" style="fill:#fff"/><path d="M110.02051,317.98145v-.98926h.1748v.18554a.36467.36467,0,0,1,.32715-.207q.27393,0,.27442.334v.67676h-.17481v-.62793a.28788.28788,0,0,0-.03516-.16407.13538.13538,0,0,0-.11718-.04882c-.08789,0-.17871.06445-.27442.19433v.64649Z" transform="translate(0.06557 -0.07767)" style="fill:#fff"/><g style="clip-path:url(#clip-path-8)"><path d="M107.90934,317.98165V317.345a.5998.5998,0,0,1,.08906-.15543c.0339-.04169.06325-.06228.088-.06228a.04481.04481,0,0,1,.046.034.51727.51727,0,0,1,.01163.13639v.684h.15333v-.6387q.09639-.21771.17964-.21771a.04338.04338,0,0,1,.04352.02934.35388.35388,0,0,1,.01113.11014v.71693h.15332v-.72414a.4489.4489,0,0,0-.04048-.21925.14224.14224,0,0,0-.13156-.06793q-.12374,0-.21557.20792h-.00658q-.03718-.20766-.16749-.20792-.10171,0-.21405.20792v-.18579H107.756v.98919Z" transform="translate(0.06557 -0.07767)" style="fill:none;stroke:#000;stroke-miterlimit:10;stroke-width:0.1275821579980958px"/><path d="M109.46648,316.54315h-.21861v.22491h.21861Zm-.02227,1.4385v-.98919H108.92v.13484h.34966v.85435Z" transform="translate(0.06557 -0.07767)" style="fill:none;stroke:#000;stroke-miterlimit:10;stroke-width:0.1275821579980958px"/><path d="M110.19535,317.98165v-.64694q.14346-.19377.27427-.194a.13394.13394,0,0,1,.1174.0489.28972.28972,0,0,1,.03542.16418v.62789h.17407v-.67679q0-.33427-.27376-.33453a.36682.36682,0,0,0-.3274.20792v-.18579h-.17457v.98919Z" transform="translate(0.06557 -0.07767)" style="fill:none;stroke:#000;stroke-miterlimit:10;stroke-width:0.1275821579980958px"/><path d="M142.68372,317.25942a2.02439,2.02439,0,1,1-2.02409-2.05868,2.0417,2.0417,0,0,1,2.02409,2.05868" transform="translate(0.06557 -0.07767)" style="fill:#fff"/><ellipse cx="140.7252" cy="317.18175" rx="2.0241" ry="2.05868" style="fill:none;stroke:#000;stroke-miterlimit:10;stroke-width:0.2551643159961916px"/></g><path d="M139.12988,317.98145v-.98926h.15332v.18554c.0752-.13867.14649-.207.21485-.207.08691,0,.14258.06836.167.207h.00684c.06054-.13867.13281-.207.21582-.207a.14105.14105,0,0,1,.13085.06739.43945.43945,0,0,1,.041.21875v.72461h-.15332v-.7168a.34093.34093,0,0,0-.01172-.11035.04308.04308,0,0,0-.043-.0293c-.05566,0-.11621.07227-.17968.21777v.63868h-.15333v-.68457a.50268.50268,0,0,0-.01171-.13575.0458.0458,0,0,0-.0459-.03418c-.02539,0-.05469.02051-.08887.0625a.61248.61248,0,0,0-.08887.15528v.63672Z" transform="translate(0.06557 -0.07767)" style="fill:#fff"/><path d="M140.87988,317.8623a.48758.48758,0,0,1-.31543.13672.31006.31006,0,0,1-.21777-.07812.25179.25179,0,0,1-.08594-.19531.2918.2918,0,0,1,.13281-.24805.599.599,0,0,1,.35157-.09375h.10742v-.085a.20568.20568,0,0,0-.04492-.14942.21022.21022,0,0,0-.14942-.04394.65134.65134,0,0,0-.31347.08691v-.15429a1.01786,1.01786,0,0,1,.34863-.06739.35836.35836,0,0,1,.25781.07422.35364.35364,0,0,1,.07617.25781v.41407a.26867.26867,0,0,0,.01856.12207.07472.07472,0,0,0,.07031.03222.28338.28338,0,0,0,.05469-.00879l.01562.10743a.45824.45824,0,0,1-.13183.02929A.174.174,0,0,1,140.87988,317.8623Zm-.02734-.11718v-.249h-.05176c-.23926,0-.35937.06641-.35937.19922a.15228.15228,0,0,0,.04687.11621.1723.1723,0,0,0,.12207.043A.38064.38064,0,0,0,140.85254,317.74512Z" transform="translate(0.06557 -0.07767)" style="fill:#fff"/><path d="M141.31641,317.98145l.35839-.5-.35644-.48926h.21777l.2666.36523.24415-.36523h.17285l-.32715.48828.36426.501h-.21778l-.27539-.37793-.27051.37793Z" transform="translate(0.06557 -0.07767)" style="fill:#fff"/><g style="clip-path:url(#clip-path-8)"><path d="M139.28309,317.98165V317.345a.5995.5995,0,0,1,.08905-.15543c.03391-.04169.06326-.06228.08805-.06228a.0448.0448,0,0,1,.046.034.51713.51713,0,0,1,.01164.13639v.684h.15332v-.6387q.09641-.21771.17964-.21771a.04338.04338,0,0,1,.04352.02934.35388.35388,0,0,1,.01113.11014v.71693h.15333v-.72414a.4489.4489,0,0,0-.04048-.21925.14225.14225,0,0,0-.13157-.06793q-.12372,0-.21557.20792h-.00657q-.0372-.20766-.1675-.20792-.10172,0-.214.20792v-.18579h-.15333v.98919Z" transform="translate(0.06557 -0.07767)" style="fill:none;stroke:#000;stroke-miterlimit:10;stroke-width:0.1275821579980958px"/><path d="M140.60988,317.85489a.16971.16971,0,0,1-.12246-.04375.15175.15175,0,0,1-.04554-.11528q0-.19995.35877-.19969h.05212v.24961A.3871.3871,0,0,1,140.60988,317.85489Zm.44429.14411a.46492.46492,0,0,0,.13257-.02934l-.01619-.10756a.26489.26489,0,0,1-.05465.00926.07435.07435,0,0,1-.07034-.03242.273.273,0,0,1-.01872-.12147v-.41482a.359.359,0,0,0-.07539-.25785.36381.36381,0,0,0-.25858-.07463,1.01893,1.01893,0,0,0-.34866.06845v.1544a.65612.65612,0,0,1,.31374-.08749.20656.20656,0,0,1,.14928.04426.20449.20449,0,0,1,.04554.14977v.08441h-.10829a.59756.59756,0,0,0-.35067.09367.29055.29055,0,0,0-.13258.24807.254.254,0,0,0,.085.19609.31269.31269,0,0,0,.21759.0772.48492.48492,0,0,0,.31627-.1369A.173.173,0,0,0,141.05417,317.999Z" transform="translate(0.06557 -0.07767)" style="fill:none;stroke:#000;stroke-miterlimit:10;stroke-width:0.1275821579980958px"/><polygon points="141.558 317.904 141.828 317.526 142.103 317.904 142.321 317.904 141.957 317.403 142.284 316.915 142.111 316.915 141.867 317.281 141.601 316.915 141.383 316.915 141.739 317.404 141.381 317.904 141.558 317.904" style="fill:none;stroke:#000;stroke-miterlimit:10;stroke-width:0.1275821579980958px"/></g></g></g><path d="M99.8584,48.07666h-.01367l-.79.42725-.11914-.46924.99218-.53223h.52442v4.55225H99.8584Z" transform="translate(0.06557 -0.07767)" style="fill:#fff;stroke:#fff;stroke-miterlimit:10;stroke-width:0.25px"/><path d="M131.04688,47.334v4.72071h-.60743V47.334Z" transform="translate(0.06557 -0.07767)" style="fill:#fff;stroke:#fff;stroke-miterlimit:10;stroke-width:0.25px"/><path d="M132.10938,52.05469V47.334h.66406l1.50879,2.38868a13.32522,13.32522,0,0,1,.8457,1.53369l.01465-.00733c-.05664-.62988-.07031-1.20459-.07031-1.93994V47.334h.57324v4.72071h-.61524l-1.49511-2.39551a14.79076,14.79076,0,0,1-.88086-1.57568l-.02051.00683c.03418.59571.04883,1.1626.04883,1.94727v2.01709Z" transform="translate(0.06557 -0.07767)" style="fill:#fff;stroke:#fff;stroke-miterlimit:10;stroke-width:0.25px"/><path d="M137.73926,52.05469,136.20215,47.334h.65625l.73437,2.3252c.20215.6377.377,1.21191.50293,1.76514h.01368c.13281-.54639.3291-1.14161.53808-1.75782l.79688-2.33252h.65039l-1.68457,4.72071Z" transform="translate(0.06557 -0.07767)" style="fill:#fff;stroke:#fff;stroke-miterlimit:10;stroke-width:0.25px"/><path d="M101.23438,68.02051H99.501l-.17481,1.16943a2.472,2.472,0,0,1,.37012-.02783,1.91714,1.91714,0,0,1,.97851.24512,1.29818,1.29818,0,0,1,.6504,1.16943,1.57772,1.57772,0,0,1-1.69141,1.55518,2.21571,2.21571,0,0,1-1.13184-.28028l.15332-.46924a2.03168,2.03168,0,0,0,.97168.252,1.0029,1.0029,0,0,0,1.07618-.98731c-.00684-.58838-.39844-1.00879-1.30665-1.00879a4.70047,4.70047,0,0,0-.62988.04932l.294-2.18506h2.17383Z" transform="translate(0.06557 -0.07767)" style="fill:#fff;stroke:#fff;stroke-miterlimit:10;stroke-width:0.25px"/><path d="M98.52246,62.05469v-.37842l.48242-.46924c1.16016-1.10644,1.6836-1.69482,1.69141-2.38086a.81165.81165,0,0,0-.90234-.88965,1.5437,1.5437,0,0,0-.96387.38526l-.19531-.43457a1.98986,1.98986,0,0,1,1.28515-.46192,1.27939,1.27939,0,0,1,1.39063,1.32373c0,.84034-.60742,1.51953-1.56543,2.44434l-.36328.33594v.01416h2.041v.51123Z" transform="translate(0.06557 -0.07767)" style="fill:#fff;stroke:#fff;stroke-miterlimit:10;stroke-width:0.25px"/><path d="M134.85156,79.64551a2.20914,2.20914,0,0,1-2.1875,2.48633,2.16189,2.16189,0,0,1-2.11718-2.39551,2.24,2.24,0,0,1,2.1875-2.479A2.14755,2.14755,0,0,1,134.85156,79.64551Zm-3.65527.07715c0,1.0083.54492,1.91162,1.50293,1.91162.96387,0,1.50976-.88916,1.50976-1.96094,0-.93848-.48925-1.91895-1.50293-1.91895C131.69922,77.75439,131.19629,78.686,131.19629,79.72266Z" transform="translate(0.06557 -0.07767)" style="fill:#fff;stroke:#fff;stroke-miterlimit:10;stroke-width:0.25px"/><path d="M135.63867,82.05469V77.334h.66406l1.50879,2.38868a13.32692,13.32692,0,0,1,.84571,1.53369l.01465-.00733c-.05665-.62988-.07032-1.20459-.07032-1.93994V77.334h.57324v4.72071h-.61523l-1.49512-2.39551a14.79427,14.79427,0,0,1-.88086-1.57568l-.0205.00683c.03418.59571.04882,1.1626.04882,1.94727v2.01709Z" transform="translate(0.06557 -0.07767)" style="fill:#fff;stroke:#fff;stroke-miterlimit:10;stroke-width:0.25px"/><g id="Illustration_29" data-name="Illustration 29"><g style="clip-path:url(#clip-path-12)"><polygon points="141.473 196.547 141.473 197.694 140.428 197.694 140.428 197.988 141.473 197.988 141.473 199.145 141.769 199.145 141.769 197.988 142.814 197.988 142.814 197.694 141.769 197.694 141.769 196.547 141.473 196.547" style="fill:none;stroke:#fff;stroke-width:0.3123675678152376px"/><rect x="107.93861" y="197.66504" width="1.14205" height="0.31794" style="fill:none;stroke:#fff;stroke-width:0.3123675678152376px"/><g style="clip-path:url(#clip-path-12)"><ellipse cx="108.50974" cy="197.7117" rx="2.20472" ry="2.83242" style="fill:none;stroke:#fff;stroke-miterlimit:10;stroke-width:0.3123675678152376px"/><ellipse cx="141.62123" cy="197.7117" rx="2.20472" ry="2.83242" style="fill:none;stroke:#fff;stroke-miterlimit:10;stroke-width:0.3123675678152376px"/><line x1="125.06563" y1="190.33573" x2="125.06563" y2="177.58985" style="fill:none;stroke:#fff;stroke-miterlimit:10;stroke-width:0.3123675678152376px"/></g></g></g><g id="Illustration_29-2" data-name="Illustration 29"><g style="clip-path:url(#clip-path-14)"><polygon points="141.473 256.547 141.473 257.694 140.428 257.694 140.428 257.988 141.473 257.988 141.473 259.145 141.769 259.145 141.769 257.988 142.814 257.988 142.814 257.694 141.769 257.694 141.769 256.547 141.473 256.547" style="fill:none;stroke:#fff;stroke-width:0.3123675678152376px"/><rect x="107.93861" y="257.66504" width="1.14205" height="0.31794" style="fill:none;stroke:#fff;stroke-width:0.3123675678152376px"/><g style="clip-path:url(#clip-path-14)"><ellipse cx="108.50974" cy="257.7117" rx="2.20472" ry="2.83242" style="fill:none;stroke:#fff;stroke-miterlimit:10;stroke-width:0.3123675678152376px"/><ellipse cx="141.62123" cy="257.7117" rx="2.20472" ry="2.83242" style="fill:none;stroke:#fff;stroke-miterlimit:10;stroke-width:0.3123675678152376px"/><line x1="125.06563" y1="250.33573" x2="125.06563" y2="237.58985" style="fill:none;stroke:#fff;stroke-miterlimit:10;stroke-width:0.3123675678152376px"/></g></g></g><path d="M16.85791,86.07666h-.01367l-.79.42725-.11914-.46924.99219-.53223h.52441v4.55225h-.59375Z" transform="translate(0.06557 -0.07767)" style="fill:#fff;stroke:#fff;stroke-miterlimit:10;stroke-width:0.25px"/><path d="M55.46729,88.89893a1.29988,1.29988,0,0,1,.90136-1.21875l-.00683-.021a1.12708,1.12708,0,0,1-.71973-1.02246,1.27283,1.27283,0,0,1,1.4043-1.21143,1.17423,1.17423,0,0,1,1.32129,1.12061,1.15734,1.15734,0,0,1-.748,1.06445v.021a1.26091,1.26091,0,0,1,.915,1.17676,1.39986,1.39986,0,0,1-1.54395,1.32373C56.04053,90.13184,55.46729,89.56445,55.46729,88.89893Zm2.44531-.02784c0-.55322-.38379-.81933-.999-.99463a.98832.98832,0,0,0-.81738.93848.84041.84041,0,0,0,.9082.86865A.82265.82265,0,0,0,57.9126,88.87109Zm-1.69043-2.27636c0,.45556.34179.70068.86621.84033a.89625.89625,0,0,0,.69238-.82617.70734.70734,0,0,0-.76953-.74268A.723.723,0,0,0,56.22217,86.59473Z" transform="translate(0.06557 -0.07767)" style="fill:#fff;stroke:#fff;stroke-miterlimit:10;stroke-width:0.25px"/><path d="M29.42432,51.05469V49.81494H27.313v-.40625l2.02734-2.90625h.66309v2.8291h.63672v.4834h-.63672v1.23975Zm0-1.72315V47.812q0-.35742.0205-.71435h-.0205c-.14063.26611-.252.46191-.37793.67236l-1.11133,1.54785v.01367Z" transform="translate(0.06557 -0.07767)" style="fill:#fff;stroke:#fff;stroke-miterlimit:10;stroke-width:0.25px"/><g style="isolation:isolate"><polygon points="146.194 370.294 145.054 369.674 145.03 369.557 146.17 370.176 146.194 370.294" style="fill:gray"/><g style="isolation:isolate"><g style="clip-path:url(#clip-path-16)"><g style="isolation:isolate"><path d="M146.10449,370.25417l-1.13966-.62a.41046.41046,0,0,0-.1409-.11482l1.13967.62a.41044.41044,0,0,1,.14089.11483" transform="translate(0.06557 -0.07767)" style="fill:#858585"/></g></g></g><g style="isolation:isolate"><g style="clip-path:url(#clip-path-17)"><g style="isolation:isolate"><path d="M145.683,370.61739l-1.13966-.62a1.00626,1.00626,0,0,0,.2835-.07536l1.13967.62a1.00557,1.00557,0,0,1-.28351.07536" transform="translate(0.06557 -0.07767)" style="fill:#a8a8a8"/><path d="M145.96651,370.542l-1.13967-.62a.436.436,0,0,0,.0621-.03525l1.13966.62a.43738.43738,0,0,1-.06209.03524" transform="translate(0.06557 -0.07767)" style="fill:#a3a3a3"/><path d="M146.0286,370.50679l-1.13966-.62a.31572.31572,0,0,0,.03174-.02489l1.13966.62a.31578.31578,0,0,1-.03174.0249" transform="translate(0.06557 -0.07767)" style="fill:#9e9e9e"/><path d="M146.06034,370.48189l-1.13966-.62.02112-.02122,1.13966.62-.02112.02122" transform="translate(0.06557 -0.07767)" style="fill:#999"/><path d="M146.08146,370.46067l-1.13966-.62.01579-.02,1.13966.62-.01579.02" transform="translate(0.06557 -0.07767)" style="fill:#949494"/><path d="M146.09725,370.4407l-1.13966-.62.01294-.021,1.13967.62-.01295.021" transform="translate(0.06557 -0.07767)" style="fill:#8f8f8f"/><path d="M146.1102,370.41971l-1.13967-.62.0114-.02539,1.13966.62-.01139.02539" transform="translate(0.06557 -0.07767)" style="fill:#8a8a8a"/><path d="M146.12159,370.39432l-1.13966-.62.00671-.02249,1.13966.62-.00671.02249" transform="translate(0.06557 -0.07767)" style="fill:#858585"/></g></g></g><g style="isolation:isolate"><g style="clip-path:url(#clip-path-18)"><g style="isolation:isolate"><path d="M138.1278,370.46766l-1.13967-.62a25.904,25.904,0,0,1,4.33392-1.00819,22.13476,22.13476,0,0,1,2.41138-.20778,3.83742,3.83742,0,0,1,1.07657.08873l1.13966.62a3.83775,3.83775,0,0,0-1.07657-.08874,22.13726,22.13726,0,0,0-2.41138.20778,25.90407,25.90407,0,0,0-4.33391,1.00819" transform="translate(0.06557 -0.07767)" style="fill:#a8a8a8"/><path d="M145.94966,369.34043l-1.13966-.62a1.69951,1.69951,0,0,1,.3237.11695l1.13966.62a1.69833,1.69833,0,0,0-.3237-.11695" transform="translate(0.06557 -0.07767)" style="fill:#a3a3a3"/><path d="M146.27336,369.45738l-1.13966-.62q.02469.01212.04827.025l1.13966.62q-.02358-.01283-.04827-.02494" transform="translate(0.06557 -0.07767)" style="fill:#9e9e9e"/></g></g></g><g style="isolation:isolate"><g style="clip-path:url(#clip-path-19)"><g style="isolation:isolate"><path d="M136.40885,373.25045l-1.13967-.62q.12277-.08782.24558-.17281l1.13966.62q-.1228.085-.24557.17281" transform="translate(0.06557 -0.07767)" style="fill:#9e9e9e"/><path d="M136.65442,373.07764l-1.13966-.62A16.28215,16.28215,0,0,1,137.83,371.111l1.13966.62a16.28215,16.28215,0,0,0-2.31521,1.34669" transform="translate(0.06557 -0.07767)" style="fill:#a3a3a3"/><path d="M138.96963,371.731l-1.13966-.62a11.98161,11.98161,0,0,1,3.44515-1.05647,10.15171,10.15171,0,0,1,2.2716-.06542,4.56,4.56,0,0,0,.99662.00834l1.13966.62a4.55877,4.55877,0,0,1-.99662-.00834,10.15279,10.15279,0,0,0-2.27159.06542,11.98161,11.98161,0,0,0-3.44516,1.05648" transform="translate(0.06557 -0.07767)" style="fill:#a8a8a8"/></g></g></g><polygon points="137.599 371.321 136.459 370.701 136.42 370.326 137.56 370.946 137.599 371.321" style="fill:gray"/><g style="isolation:isolate"><g style="clip-path:url(#clip-path-20)"><g style="isolation:isolate"><path d="M135.07037,373.83616l-1.13967-.62a.52728.52728,0,0,0,.20414.00521,1.44669,1.44669,0,0,0,.4078-.13361l1.13967.62a1.44706,1.44706,0,0,1-.40781.13361.52719.52719,0,0,1-.20413-.00522" transform="translate(0.06557 -0.07767)" style="fill:#a8a8a8"/><path d="M135.68231,373.70777l-1.13967-.62a3.69815,3.69815,0,0,0,.51927-.3072l1.13967.62a3.70027,3.70027,0,0,1-.51927.3072" transform="translate(0.06557 -0.07767)" style="fill:#a3a3a3"/><path d="M136.20158,373.40057l-1.13967-.62q.09867-.06828.20727-.15012l1.13967.62q-.10869.082-.20727.15012" transform="translate(0.06557 -0.07767)" style="fill:#9e9e9e"/></g></g></g><g style="isolation:isolate"><g style="clip-path:url(#clip-path-21)"><g style="isolation:isolate"><polyline points="135.056 373.728 133.916 373.108 133.927 373.114 135.067 373.734 135.056 373.728" style="fill:#9e9e9e"/><path d="M135.00107,373.81136l-1.13966-.62a.34525.34525,0,0,0,.06822.02453l1.13966.62a.3442.3442,0,0,1-.06822-.02453" transform="translate(0.06557 -0.07767)" style="fill:#a3a3a3"/><polyline points="135.135 373.758 133.995 373.138 133.996 373.139 135.136 373.758 135.135 373.758" style="fill:#a8a8a8"/></g></g></g><g style="isolation:isolate"><g style="clip-path:url(#clip-path-22)"><g style="isolation:isolate"><path d="M137.49411,371.02345l-1.13967-.62a9.16361,9.16361,0,0,1,.6042-4.17114l1.13966.62a9.16344,9.16344,0,0,0-.60419,4.17113" transform="translate(0.06557 -0.07767)" style="fill:#858585"/><path d="M138.0983,366.85232l-1.13966-.62q.07072-.19236.149-.38619l1.13967.62q-.07832.19382-.14905.3862" transform="translate(0.06557 -0.07767)" style="fill:#8a8a8a"/></g></g></g><g style="isolation:isolate"><g style="clip-path:url(#clip-path-23)"><g style="isolation:isolate"><path d="M134.63031,374.46346l-1.13966-.62a1.06168,1.06168,0,0,1-.48092-.61887l1.13966.62a1.06179,1.06179,0,0,0,.48092.61887" transform="translate(0.06557 -0.07767)" style="fill:#858585"/></g></g></g><g style="isolation:isolate"><g style="clip-path:url(#clip-path-24)"><g style="isolation:isolate"><path d="M138.24735,366.46612l-1.13967-.62.01293-.03425,1.13966.62-.01292.03424" transform="translate(0.06557 -0.07767)" style="fill:#8a8a8a"/><path d="M138.26027,366.43188l-1.13966-.62c.069-.18746.121-.43342-.404-.71905l1.13966.62c.52508.28564.47306.5316.404.71906" transform="translate(0.06557 -0.07767)" style="fill:#858585"/></g></g></g><g style="isolation:isolate"><g style="clip-path:url(#clip-path-25)"><g style="isolation:isolate"><path d="M137.98589,364.947l-1.13966-.62c.04151.01851.08373.03811.12616.059l1.13966.62c-.04243-.02085-.08464-.04045-.12616-.059" transform="translate(0.06557 -0.07767)" style="fill:#a3a3a3"/><path d="M138.11205,365.006l-1.13966-.62c.03644.0179.073.03672.1095.05655l1.13967.62c-.03646-.01984-.07307-.03865-.10951-.05655" transform="translate(0.06557 -0.07767)" style="fill:#9e9e9e"/></g></g></g><g style="isolation:isolate"><g style="clip-path:url(#clip-path-26)"><g style="isolation:isolate"><path d="M135.50151,365.91851l-1.13967-.62q.03429-.05265.06957-.10295l1.13966.62q-.03526.0503-.06956.10294" transform="translate(0.06557 -0.07767)" style="fill:#8f8f8f"/><path d="M135.57107,365.81557l-1.13966-.62a3.21335,3.21335,0,0,1,.22119-.28157l1.13966.62a3.21186,3.21186,0,0,0-.22119.28157" transform="translate(0.06557 -0.07767)" style="fill:#949494"/><path d="M135.79226,365.534l-1.13966-.62a2.72227,2.72227,0,0,1,.21876-.22154l1.13966.62a2.72066,2.72066,0,0,0-.21876.22154" transform="translate(0.06557 -0.07767)" style="fill:#999"/><path d="M136.011,365.31246l-1.13966-.62a2.33558,2.33558,0,0,1,.23385-.18548l1.13966.62a2.33684,2.33684,0,0,0-.23385.18549" transform="translate(0.06557 -0.07767)" style="fill:#9e9e9e"/><path d="M136.24487,365.127l-1.13966-.62a2.01684,2.01684,0,0,1,.28687-.16609l1.13966.62a2.01835,2.01835,0,0,0-.28687.16609" transform="translate(0.06557 -0.07767)" style="fill:#a3a3a3"/><path d="M136.53174,364.96088l-1.13966-.62a1.74179,1.74179,0,0,1,.50168-.15149,1.70742,1.70742,0,0,1,.67073.04087l1.13966.62a1.70778,1.70778,0,0,0-.67073-.04087,1.7422,1.7422,0,0,0-.50168.15149" transform="translate(0.06557 -0.07767)" style="fill:#a8a8a8"/><path d="M137.70415,364.85026l-1.13966-.62a1.97953,1.97953,0,0,1,.28174.09675l1.13966.62a1.9816,1.9816,0,0,0-.28174-.09675" transform="translate(0.06557 -0.07767)" style="fill:#a3a3a3"/></g></g></g><path d="M146.65,369.76263a.8653.8653,0,0,1,.12686.69957,1.19431,1.19431,0,0,1-1.11969.87968,4.68825,4.68825,0,0,1-1.10824-.01335,9.60173,9.60173,0,0,0-2.12072.06429,12.95145,12.95145,0,0,0-5.70009,2.44374,3.40454,3.40454,0,0,1-1.45085.72253,1.16331,1.16331,0,0,1-.44043-.0159.97989.97989,0,0,1-.68742-.6986c-.8282-2.51124-.37478-5.17672,1.35212-7.92608a2.26272,2.26272,0,0,1,1.53191-1.10912,1.77105,1.77105,0,0,1,.95247.13762c.56012.24977,1.248.69762.87771,1.72639a8.775,8.775,0,0,0-.7358,3.79426,25.90407,25.90407,0,0,1,4.33391-1.00819,22.13726,22.13726,0,0,1,2.41138-.20778C145.7781,369.21958,146.37839,369.38588,146.65,369.76263Zm-.967.85476c.26493-.03723.41566-.119.4453-.24556l-.02381-.11766c-.11182-.15716-.51193-.30838-1.30483-.28338a22.36689,22.36689,0,0,0-2.29592.20452,25.82062,25.82062,0,0,0-4.6177,1.10423l-.35259.1187-.03934-.37479a9.4211,9.4211,0,0,1,.75324-4.55733c.08047-.21011.18512-.50141-.575-.844a1.19771,1.19771,0,0,0-.64049-.09152,1.43843,1.43843,0,0,0-.99442.74481c-1.60642,2.55952-2.01925,4.93406-1.25473,7.23819.08763.247.19965.30039.2877.32259a.52719.52719,0,0,0,.20413.00522,2.68567,2.68567,0,0,0,1.13435-.59093,13.64788,13.64788,0,0,1,6.00594-2.576,10.15279,10.15279,0,0,1,2.27159-.06542,4.55877,4.55877,0,0,0,.99662.00834" transform="translate(0.06557 -0.07767)" style="fill:#dfdfdf"/><g style="isolation:isolate"><g style="clip-path:url(#clip-path-27)"><g style="isolation:isolate"><path d="M134.14939,373.84459l-1.13966-.62a8.25992,8.25992,0,0,1,.17451-5.566l1.13966.62a8.25992,8.25992,0,0,0-.17451,5.566" transform="translate(0.06557 -0.07767)" style="fill:#858585"/><path d="M134.3239,368.27859l-1.13966-.62a11.88884,11.88884,0,0,1,.69377-1.53046l1.13966.62a11.889,11.889,0,0,0-.69377,1.53046" transform="translate(0.06557 -0.07767)" style="fill:#8a8a8a"/><path d="M135.01767,366.74813l-1.13966-.62q.22245-.41346.48383-.82961l1.13967.62q-.26137.41613-.48384.82962" transform="translate(0.06557 -0.07767)" style="fill:#8f8f8f"/></g></g></g></g><circle cx="139.06558" cy="369.9256" r="7.5" style="fill:none;stroke:#fff;stroke-miterlimit:10;stroke-width:0.75px"/><g style="isolation:isolate"><polygon points="19.195 370.294 18.055 369.674 18.023 369.558 19.163 370.178 19.195 370.294" style="fill:gray"/><g style="isolation:isolate"><g style="clip-path:url(#clip-path-28)"><g style="isolation:isolate"><path d="M19.09751,370.25529l-1.13966-.62a.38611.38611,0,0,0-.14159-.11841l1.13966.62a.38593.38593,0,0,1,.14159.1184" transform="translate(0.06557 -0.07767)" style="fill:#858585"/></g></g></g><g style="isolation:isolate"><g style="clip-path:url(#clip-path-29)"><g style="isolation:isolate"><path d="M18.684,370.61739l-1.13966-.62a1.00628,1.00628,0,0,0,.28349-.07536l1.13966.62a1.0056,1.0056,0,0,1-.28349.07536" transform="translate(0.06557 -0.07767)" style="fill:#a8a8a8"/><path d="M18.96752,370.542l-1.13966-.62a.43738.43738,0,0,0,.06209-.03524l1.13966.62a.43586.43586,0,0,1-.06209.03524" transform="translate(0.06557 -0.07767)" style="fill:#a3a3a3"/><path d="M19.02961,370.50679l-1.13966-.62a.31723.31723,0,0,0,.03174-.0249l1.13966.62a.31435.31435,0,0,1-.03174.0249" transform="translate(0.06557 -0.07767)" style="fill:#9e9e9e"/><path d="M19.06135,370.48189l-1.13966-.62.02112-.02122,1.13966.62-.02112.02121" transform="translate(0.06557 -0.07767)" style="fill:#999"/><path d="M19.08247,370.46068l-1.13966-.62.01578-.02,1.13967.62-.01579.02" transform="translate(0.06557 -0.07767)" style="fill:#949494"/><path d="M19.09826,370.44071l-1.13967-.62.013-.021,1.13966.62-.01294.021" transform="translate(0.06557 -0.07767)" style="fill:#8f8f8f"/><path d="M19.1112,370.41973l-1.13966-.62.01139-.02538,1.13966.62-.01139.02539" transform="translate(0.06557 -0.07767)" style="fill:#8a8a8a"/><path d="M19.12259,370.39434l-1.13966-.62.00671-.02251,1.13966.62-.00671.02251" transform="translate(0.06557 -0.07767)" style="fill:#858585"/></g></g></g><g style="isolation:isolate"><g style="clip-path:url(#clip-path-30)"><g style="isolation:isolate"><path d="M11.12083,370.46878l-1.13966-.62a26.02573,26.02573,0,0,1,4.33946-1.009,22.00361,22.00361,0,0,1,2.40577-.207,3.85328,3.85328,0,0,1,1.08309.088l1.13966.62a3.85287,3.85287,0,0,0-1.08309-.088,22.00134,22.00134,0,0,0-2.40577.207,26.02614,26.02614,0,0,0-4.33946,1.009" transform="translate(0.06557 -0.07767)" style="fill:#a8a8a8"/><path d="M18.94915,369.34085l-1.13966-.62a1.6755,1.6755,0,0,1,.31919.11527l1.13967.62a1.67517,1.67517,0,0,0-.3192-.11527" transform="translate(0.06557 -0.07767)" style="fill:#a3a3a3"/><path d="M19.26835,369.45612l-1.13967-.62.04734.02447,1.13966.62-.04733-.02446" transform="translate(0.06557 -0.07767)" style="fill:#9e9e9e"/></g></g></g><g style="isolation:isolate"><g style="clip-path:url(#clip-path-31)"><g style="isolation:isolate"><path d="M9.40188,373.25157l-1.13966-.62q.12233-.08751.24471-.1722l1.13966.62q-.12239.08469-.24471.1722" transform="translate(0.06557 -0.07767)" style="fill:#9e9e9e"/><path d="M9.64659,373.07937l-1.13966-.62a16.26985,16.26985,0,0,1,2.3136-1.34553l1.13967.62a16.27043,16.27043,0,0,0-2.31361,1.34554" transform="translate(0.06557 -0.07767)" style="fill:#a3a3a3"/><path d="M11.9602,371.73383l-1.13967-.62a12.01429,12.01429,0,0,1,3.45413-1.05915,10.15963,10.15963,0,0,1,2.273-.06563,4.55923,4.55923,0,0,0,.99667.00834l1.13966.62a4.55975,4.55975,0,0,1-.99667-.00833,10.159,10.159,0,0,0-2.273.06562,12.01486,12.01486,0,0,0-3.45412,1.05915" transform="translate(0.06557 -0.07767)" style="fill:#a8a8a8"/></g></g></g><polygon points="10.6 371.321 9.46 370.701 9.413 370.327 10.553 370.947 10.6 371.321" style="fill:gray"/><g style="isolation:isolate"><g style="clip-path:url(#clip-path-32)"><g style="isolation:isolate"><path d="M8.06338,373.83729l-1.13966-.62a.56377.56377,0,0,0,.20919.00451,1.4373,1.4373,0,0,0,.406-.13258l1.13966.62a1.43665,1.43665,0,0,1-.406.13258.56359.56359,0,0,1-.20919-.0045" transform="translate(0.06557 -0.07767)" style="fill:#a8a8a8"/><path d="M8.67858,373.70921l-1.13966-.62a3.58274,3.58274,0,0,0,.5032-.29752l1.13966.62a3.581,3.581,0,0,1-.5032.29751" transform="translate(0.06557 -0.07767)" style="fill:#a3a3a3"/><path d="M9.18178,373.4117l-1.13966-.62q.10441-.07225.2201-.16013l1.13966.62q-.11577.08811-.2201.16013" transform="translate(0.06557 -0.07767)" style="fill:#9e9e9e"/></g></g></g><g style="isolation:isolate"><g style="clip-path:url(#clip-path-33)"><g style="isolation:isolate"><path d="M7.98774,373.807l-1.13966-.62.0118.00611,1.13966.62-.0118-.00611" transform="translate(0.06557 -0.07767)" style="fill:#9e9e9e"/><path d="M7.99954,373.8131l-1.13966-.62a.3891.3891,0,0,0,.06384.02418l1.13966.62a.38864.38864,0,0,1-.06384-.02419" transform="translate(0.06557 -0.07767)" style="fill:#a3a3a3"/></g></g></g><g style="isolation:isolate"><g style="clip-path:url(#clip-path-34)"><g style="isolation:isolate"><path d="M10.48714,371.02457l-1.13966-.62a9.16834,9.16834,0,0,1,.59694-4.13529l1.13966.62a9.16836,9.16836,0,0,0-.59694,4.13529" transform="translate(0.06557 -0.07767)" style="fill:#858585"/><path d="M11.08408,366.88928l-1.13966-.62q.07743-.2106.16431-.42317l1.13966.62q-.08686.21255-.16431.42316" transform="translate(0.06557 -0.07767)" style="fill:#8a8a8a"/></g></g></g><g style="isolation:isolate"><g style="clip-path:url(#clip-path-35)"><g style="isolation:isolate"><path d="M7.63135,374.46345l-1.13966-.62a1.06185,1.06185,0,0,1-.48094-.61887l1.13967.62a1.06178,1.06178,0,0,0,.48093.61886" transform="translate(0.06557 -0.07767)" style="fill:#858585"/></g></g></g><g style="isolation:isolate"><g style="clip-path:url(#clip-path-36)"><g style="isolation:isolate"><path d="M11.24839,366.46612l-1.13966-.62.01293-.03424,1.13966.62-.01293.03424" transform="translate(0.06557 -0.07767)" style="fill:#8a8a8a"/><path d="M11.26132,366.43188l-1.13966-.62c.069-.18746.12105-.43342-.404-.71906l1.13966.62c.52507.28563.473.53159.404.71906" transform="translate(0.06557 -0.07767)" style="fill:#858585"/></g></g></g><g style="isolation:isolate"><g style="clip-path:url(#clip-path-37)"><g style="isolation:isolate"><path d="M10.98694,364.947l-1.13966-.62c.04151.01851.08372.0381.12615.059l1.13967.62c-.04243-.02084-.08465-.04044-.12616-.059" transform="translate(0.06557 -0.07767)" style="fill:#a3a3a3"/><path d="M11.1131,365.006l-1.13967-.62c.03645.0179.07305.03671.10951.05655l1.13966.62c-.03646-.01983-.07306-.03865-.1095-.05655" transform="translate(0.06557 -0.07767)" style="fill:#9e9e9e"/></g></g></g><g style="isolation:isolate"><g style="clip-path:url(#clip-path-38)"><g style="isolation:isolate"><path d="M8.50255,365.91851l-1.13966-.62q.0343-.05268.0696-.103l1.13967.62q-.0353.05032-.06961.103" transform="translate(0.06557 -0.07767)" style="fill:#8f8f8f"/><path d="M8.57216,365.81551l-1.13967-.62a3.2112,3.2112,0,0,1,.22117-.28154l1.13966.62a3.21113,3.21113,0,0,0-.22116.28154" transform="translate(0.06557 -0.07767)" style="fill:#949494"/><path d="M8.79332,365.534l-1.13966-.62a2.72041,2.72041,0,0,1,.21875-.22153l1.13966.62a2.72041,2.72041,0,0,0-.21875.22153" transform="translate(0.06557 -0.07767)" style="fill:#999"/><path d="M9.01207,365.31244l-1.13966-.62a2.33424,2.33424,0,0,1,.23383-.18548l1.13967.62a2.33679,2.33679,0,0,0-.23384.18547" transform="translate(0.06557 -0.07767)" style="fill:#9e9e9e"/><path d="M9.24591,365.127l-1.13967-.62a2.01731,2.01731,0,0,1,.28687-.16608l1.13966.62a2.01674,2.01674,0,0,0-.28686.16609" transform="translate(0.06557 -0.07767)" style="fill:#a3a3a3"/><path d="M9.53277,364.96088l-1.13966-.62a1.74179,1.74179,0,0,1,.50168-.15149,1.70752,1.70752,0,0,1,.67075.04087l1.13967.62a1.70776,1.70776,0,0,0-.67076-.04088,1.74211,1.74211,0,0,0-.50168.15149" transform="translate(0.06557 -0.07767)" style="fill:#a8a8a8"/><path d="M10.70521,364.85027l-1.13967-.62a1.98077,1.98077,0,0,1,.28174.09675l1.13966.62a1.98059,1.98059,0,0,0-.28173-.09674" transform="translate(0.06557 -0.07767)" style="fill:#a3a3a3"/></g></g></g><path d="M19.643,369.76376a.83451.83451,0,0,1,.13482.69845,1.20579,1.20579,0,0,1-1.12561.88051,4.607,4.607,0,0,1-1.10232-.01418,9.60121,9.60121,0,0,0-2.12083.0643,12.99825,12.99825,0,0,0-5.70792,2.44485,3.34621,3.34621,0,0,1-1.45085.72252,1.12059,1.12059,0,0,1-.43242-.017.98.98,0,0,1-.68744-.6986c-.82818-2.51125-.37476-5.17673,1.35213-7.92608a2.26264,2.26264,0,0,1,1.5319-1.10912,1.77116,1.77116,0,0,1,.95249.13762c.56012.24976,1.248.69761.87771,1.72638a8.91212,8.91212,0,0,0-.74382,3.79539,26.02614,26.02614,0,0,1,4.33946-1.009,22.00134,22.00134,0,0,1,2.40577-.207C18.77908,369.21959,19.37939,369.38589,19.643,369.76376Zm-.959.85363c.2649-.03723.41565-.119.44527-.24556l-.03179-.11654c-.10384-.15828-.504-.30949-1.29685-.28449a22.3906,22.3906,0,0,0-2.298.20481,25.86383,25.86383,0,0,0-4.62355,1.10505l-.34458.11758-.04736-.37367a9.422,9.422,0,0,1,.76125-4.55845c.08048-.21011.18513-.50142-.575-.844a1.22075,1.22075,0,0,0-.64049-.09152,1.4384,1.4384,0,0,0-.99442.74481c-1.60642,2.55952-2.01926,4.93406-1.25475,7.24683.07964.23947.19964.29175.27968.31508a.56359.56359,0,0,0,.20919.0045,2.64361,2.64361,0,0,0,1.12931-.59022,13.66516,13.66516,0,0,1,6.01244-2.57689,10.159,10.159,0,0,1,2.273-.06562,4.55975,4.55975,0,0,0,.99667.00833" transform="translate(0.06557 -0.07767)" style="fill:#dfdfdf"/><g style="isolation:isolate"><g style="clip-path:url(#clip-path-39)"><g style="isolation:isolate"><path d="M7.15042,373.84459l-1.13967-.62a8.26008,8.26008,0,0,1,.17453-5.566l1.13966.62a8.26,8.26,0,0,0-.17452,5.566" transform="translate(0.06557 -0.07767)" style="fill:#858585"/><path d="M7.32494,368.27859l-1.13966-.62a11.88908,11.88908,0,0,1,.69377-1.53047l1.13967.62a11.88979,11.88979,0,0,0-.69378,1.53047" transform="translate(0.06557 -0.07767)" style="fill:#8a8a8a"/><path d="M8.01872,366.74812l-1.13967-.62q.22246-.41346.48384-.82962l1.13966.62q-.26136.41613-.48383.82961" transform="translate(0.06557 -0.07767)" style="fill:#8f8f8f"/></g></g></g></g><circle cx="12.06442" cy="369.9256" r="7.5" style="fill:none;stroke:#fff;stroke-miterlimit:10;stroke-width:0.75px"/><rect x="102.2231" y="115.13959" width="45.68493" height="109.40548" rx="11.91199" style="fill:none;stroke:#fff;stroke-miterlimit:10;stroke-width:0.25px"/><rect x="102.06557" y="114.76233" width="46" height="110.16" rx="11.91199" style="fill:none;stroke:#000;stroke-miterlimit:10;stroke-width:0.25px"/><rect x="102.2231" y="229.97335" width="45.68493" height="114.55402" rx="11.91199" style="fill:none;stroke:#fff;stroke-miterlimit:10;stroke-width:0.25px"/><rect x="102.06557" y="229.57833" width="46" height="115.34405" rx="11.91199" style="fill:none;stroke:#000;stroke-miterlimit:10;stroke-width:0.25px"/><path d="M133.63227,104.048a11.88,11.88,0,0,0,11.84017-11.85015V53.89815A11.88,11.88,0,0,0,133.63227,42.048H87.31262A11.88,11.88,0,0,0,75.47244,53.89815v38.2997A11.88,11.88,0,0,0,87.31262,104.048" transform="translate(0.06557 -0.07767)" style="fill:none;stroke:#010101;stroke-miterlimit:10;stroke-width:0.25px"/><path d="M133.30141,103.548a11.69932,11.69932,0,0,0,11.671-11.659V54.207a11.69932,11.69932,0,0,0-11.671-11.659H87.64347a11.69933,11.69933,0,0,0-11.671,11.659V91.889a11.69933,11.69933,0,0,0,11.671,11.659" transform="translate(0.06557 -0.07767)" style="fill:none;stroke:#fff;stroke-miterlimit:10;stroke-width:0.25px"/><path d="M87.59473,77.49512l-.66309.87549v.01416l1.05469-.14014v.47607l-1.05469-.126v.01416l.6709.84033-.44043.252-.41992-.98047h-.01367l-.45411.9878-.39843-.25245.66406-.854v-.01416l-1.03418.13281v-.47607l1.02734.1333v-.01416l-.65722-.85449.42578-.24512.43359.97363H86.749l.42676-.98047Z" transform="translate(0.06557 -0.07767)" style="fill:#fff;stroke:#fff;stroke-miterlimit:10;stroke-width:0.25px"/><path d="M93.00977,79.72949c0,1.54785-.57325,2.40235-1.58008,2.40235-.8877,0-1.48828-.8335-1.502-2.33936,0-1.52685.65625-2.36719,1.57911-2.36719C92.46387,77.42529,93.00977,78.27979,93.00977,79.72949Zm-2.46778.06983c0,1.18359.36328,1.856.92285,1.856.62891,0,.92969-.73535.92969-1.89795,0-1.1206-.28711-1.856-.92285-1.856C90.93359,77.90137,90.542,78.55957,90.542,79.79932Z" transform="translate(0.06557 -0.07767)" style="fill:#fff;stroke:#fff;stroke-miterlimit:10;stroke-width:0.25px"/><path d="M93.62207,81.69043A.41393.41393,0,0,1,94.042,81.249a.4422.4422,0,1,1-.41992.44141Z" transform="translate(0.06557 -0.07767)" style="fill:#fff;stroke:#fff;stroke-miterlimit:10;stroke-width:0.25px"/></svg>