<svg id="Calque_1" data-name="Calque 1" xmlns="http://www.w3.org/2000/svg" xmlns:xlink="http://www.w3.org/1999/xlink" width="150.13114" height="379.84467" viewBox="0 0 150.13114 379.84467">
  <defs>
    <clipPath id="clip-path" transform="translate(0.06557 -0.07767)">
      <rect width="150" height="380" style="fill: none"/>
    </clipPath>
    <clipPath id="clip-path-2" transform="translate(0.06557 -0.07767)">
      <rect x="0.35545" y="0.49869" width="149.2891" height="379.00262" style="fill: none"/>
    </clipPath>
    <linearGradient id="Dégradé_sans_nom_14" data-name="Dégradé sans nom 14" x1="15.5032" y1="-0.06008" x2="16.50058" y2="-0.06008" gradientTransform="matrix(0, 757.36707, 757.36707, 0, 120.56557, -11782.58029)" gradientUnits="userSpaceOnUse">
      <stop offset="0" stop-color="#2d4b76"/>
      <stop offset="0.00392" stop-color="#2d4b76"/>
      <stop offset="0.0837" stop-color="#243c5f"/>
      <stop offset="0.21602" stop-color="#192841"/>
      <stop offset="0.35478" stop-color="#101829"/>
      <stop offset="0.50101" stop-color="#090d17"/>
      <stop offset="0.65954" stop-color="#05060d"/>
      <stop offset="0.85286" stop-color="#04040a"/>
      <stop offset="1" stop-color="#04040a"/>
    </linearGradient>
    <clipPath id="clip-path-4" transform="translate(0.06557 -0.07767)">
      <path d="M17.81626,369.51692l1.13966.62a.38593.38593,0,0,1,.14159.1184l-1.13967-.62A.386.386,0,0,0,17.81626,369.51692Z" style="fill: none"/>
    </clipPath>
    <clipPath id="clip-path-5" transform="translate(0.06557 -0.07767)">
      <path d="M18.684,370.61739l-1.13966-.62c.2649-.03723.41565-.119.44527-.24556l1.13965.62C19.09968,370.49842,18.94893,370.58016,18.684,370.61739Z" style="fill: none"/>
    </clipPath>
    <clipPath id="clip-path-6" transform="translate(0.06557 -0.07767)">
      <path d="M18.176,368.86062l1.13965.62a2.9036,2.9036,0,0,0-1.44961-.22776,22.00134,22.00134,0,0,0-2.40577.207,26.02614,26.02614,0,0,0-4.33946,1.009l-1.13966-.61995a26.02478,26.02478,0,0,1,4.33946-1.009,22.00361,22.00361,0,0,1,2.40577-.207A2.90368,2.90368,0,0,1,18.176,368.86062Z" style="fill: none"/>
    </clipPath>
    <clipPath id="clip-path-7" transform="translate(0.06557 -0.07767)">
      <path d="M9.40188,373.25157l-1.13966-.62a13.66513,13.66513,0,0,1,6.01244-2.57688,10.15963,10.15963,0,0,1,2.273-.06563,4.55923,4.55923,0,0,0,.99667.00834l1.13966.62a4.55975,4.55975,0,0,1-.99667-.00833,10.159,10.159,0,0,0-2.273.06562A13.66516,13.66516,0,0,0,9.40188,373.25157Z" style="fill: none"/>
    </clipPath>
    <clipPath id="clip-path-8" transform="translate(0.06557 -0.07767)">
      <path d="M8.06338,373.83729l-1.13967-.62a.5641.5641,0,0,0,.2092.0045,2.6436,2.6436,0,0,0,1.12931-.59023l1.13966.62a2.64361,2.64361,0,0,1-1.12931.59022A.56359.56359,0,0,1,8.06338,373.83729Z" style="fill: none"/>
    </clipPath>
    <clipPath id="clip-path-9" transform="translate(0.06557 -0.07767)">
      <path d="M7.98774,373.807,6.84807,373.187a.37422.37422,0,0,0,.07565.03028l1.13965.62A.37423.37423,0,0,1,7.98774,373.807Z" style="fill: none"/>
    </clipPath>
    <clipPath id="clip-path-10" transform="translate(0.06557 -0.07767)">
      <path d="M10.48714,371.02457l-1.13966-.62a9.422,9.422,0,0,1,.76125-4.55846l1.13966.62A9.422,9.422,0,0,0,10.48714,371.02457Z" style="fill: none"/>
    </clipPath>
    <clipPath id="clip-path-11" transform="translate(0.06557 -0.07767)">
      <path d="M7.63135,374.46345l-1.13967-.62a1.06188,1.06188,0,0,1-.48093-.61887l1.13967.62A1.06178,1.06178,0,0,0,7.63135,374.46345Z" style="fill: none"/>
    </clipPath>
    <clipPath id="clip-path-12" transform="translate(0.06557 -0.07767)">
      <path d="M9.71764,365.09285l1.13966.62c.55768.30336.46437.562.39109.75329l-1.13966-.62C10.182,365.65484,10.27532,365.39622,9.71764,365.09285Z" style="fill: none"/>
    </clipPath>
    <clipPath id="clip-path-13" transform="translate(0.06557 -0.07767)">
      <path d="M10.08294,364.44255l1.13966.62c-.07891-.04293-.1585-.0811-.23566-.11551l-1.13966-.62C9.92444,364.36145,10.004,364.39962,10.08294,364.44255Z" style="fill: none"/>
    </clipPath>
    <clipPath id="clip-path-14" transform="translate(0.06557 -0.07767)">
      <path d="M8.50255,365.91851l-1.13966-.62a2.26265,2.26265,0,0,1,1.5319-1.10911,1.77117,1.77117,0,0,1,.95249.13762l1.13966.62a1.77116,1.77116,0,0,0-.95249-.13762A2.26264,2.26264,0,0,0,8.50255,365.91851Z" style="fill: none"/>
    </clipPath>
    <clipPath id="clip-path-15" transform="translate(0.06557 -0.07767)">
      <path d="M7.15042,373.84459l-1.13967-.62c-.82818-2.51124-.37476-5.17672,1.35214-7.92608l1.13966.62C6.77566,368.66786,6.32224,371.33334,7.15042,373.84459Z" style="fill: none"/>
    </clipPath>
    <clipPath id="clip-path-16" transform="translate(0.06557 -0.07767)">
      <path d="M143.81623,369.51691l1.13965.62a.38579.38579,0,0,1,.1416.1184l-1.13966-.62A.386.386,0,0,0,143.81623,369.51691Z" style="fill: none"/>
    </clipPath>
    <clipPath id="clip-path-17" transform="translate(0.06557 -0.07767)">
      <path d="M144.684,370.61739l-1.13967-.62c.2649-.03723.41566-.119.44528-.24556l1.13966.62C145.09968,370.49842,144.94893,370.58016,144.684,370.61739Z" style="fill: none"/>
    </clipPath>
    <clipPath id="clip-path-18" transform="translate(0.06557 -0.07767)">
      <path d="M144.176,368.86061l1.13965.62a2.90353,2.90353,0,0,0-1.44959-.22776,22.00393,22.00393,0,0,0-2.40542.20694,25.89885,25.89885,0,0,0-4.33184,1.0079l-1.13967-.62a25.89873,25.89873,0,0,1,4.33185-1.0079,22.00145,22.00145,0,0,1,2.40542-.20694A2.90372,2.90372,0,0,1,144.176,368.86061Z" style="fill: none"/>
    </clipPath>
    <clipPath id="clip-path-19" transform="translate(0.06557 -0.07767)">
      <path d="M135.40184,373.25157l-1.13967-.62a13.66541,13.66541,0,0,1,6.01248-2.5769,10.16024,10.16024,0,0,1,2.273-.06562,4.56041,4.56041,0,0,0,.99666.00834l1.13967.62a4.55975,4.55975,0,0,1-.99667-.00833,10.159,10.159,0,0,0-2.273.06562A13.66529,13.66529,0,0,0,135.40184,373.25157Z" style="fill: none"/>
    </clipPath>
    <clipPath id="clip-path-20" transform="translate(0.06557 -0.07767)">
      <path d="M134.07137,373.83616l-1.13968-.62a.527.527,0,0,0,.20395.00524,2.64677,2.64677,0,0,0,1.12653-.58983l1.13967.62a2.64659,2.64659,0,0,1-1.12654.58983A.52643.52643,0,0,1,134.07137,373.83616Z" style="fill: none"/>
    </clipPath>
    <clipPath id="clip-path-21" transform="translate(0.06557 -0.07767)">
      <path d="M133.98621,373.804l-1.13968-.61995a.35833.35833,0,0,0,.08517.03215l1.13966.62A.35758.35758,0,0,1,133.98621,373.804Z" style="fill: none"/>
    </clipPath>
    <clipPath id="clip-path-22" transform="translate(0.06557 -0.07767)">
      <path d="M136.49511,371.02345l-1.13967-.62a9.42118,9.42118,0,0,1,.75324-4.55733l1.13967.62A9.4211,9.4211,0,0,0,136.49511,371.02345Z" style="fill: none"/>
    </clipPath>
    <clipPath id="clip-path-23" transform="translate(0.06557 -0.07767)">
      <path d="M133.63131,374.46346l-1.13966-.62a1.06168,1.06168,0,0,1-.48092-.61887l1.13966.62A1.06179,1.06179,0,0,0,133.63131,374.46346Z" style="fill: none"/>
    </clipPath>
    <clipPath id="clip-path-24" transform="translate(0.06557 -0.07767)">
      <path d="M135.71759,365.09286l1.13966.62c.55768.30336.46437.562.3911.75329l-1.13967-.62C136.182,365.65485,136.27527,365.39623,135.71759,365.09286Z" style="fill: none"/>
    </clipPath>
    <clipPath id="clip-path-25" transform="translate(0.06557 -0.07767)">
      <path d="M136.08289,364.44255l1.13967.62c-.07892-.04294-.1585-.08111-.23567-.11552l-1.13966-.62C135.92439,364.36146,136.004,364.39962,136.08289,364.44255Z" style="fill: none"/>
    </clipPath>
    <clipPath id="clip-path-26" transform="translate(0.06557 -0.07767)">
      <path d="M134.50251,365.91851l-1.13967-.62a2.26273,2.26273,0,0,1,1.53192-1.10912,1.77106,1.77106,0,0,1,.95247.13762l1.13966.62a1.77105,1.77105,0,0,0-.95247-.13762A2.26272,2.26272,0,0,0,134.50251,365.91851Z" style="fill: none"/>
    </clipPath>
    <clipPath id="clip-path-27" transform="translate(0.06557 -0.07767)">
      <path d="M133.15039,373.84459l-1.13966-.62c-.8282-2.51124-.37478-5.17672,1.35211-7.92607l1.13967.62C132.77561,368.66787,132.32219,371.33335,133.15039,373.84459Z" style="fill: none"/>
    </clipPath>
    <clipPath id="clip-path-28" transform="translate(0.06557 -0.07767)">
      <rect x="11" y="113.0002" width="58" height="58" style="fill: none"/>
    </clipPath>
    <clipPath id="clip-path-32" transform="translate(0.06557 -0.07767)">
      <rect x="11" y="183.0002" width="58" height="58" style="fill: none"/>
    </clipPath>
    <clipPath id="clip-path-36" transform="translate(0.06557 -0.07767)">
      <rect x="76" y="113.0002" width="58" height="58" style="fill: none"/>
    </clipPath>
    <clipPath id="clip-path-40" transform="translate(0.06557 -0.07767)">
      <rect x="76" y="183.0002" width="58" height="58" style="fill: none"/>
    </clipPath>
  </defs>
  <title>QuadModEX</title>
  <g id="Panel_14_HP" data-name="Panel 14 HP">
    <g style="clip-path: url(#clip-path)">
      <g style="clip-path: url(#clip-path-2)">
        <rect x="0.42102" y="0.42102" width="149.28909" height="379.00262" style="fill: url(#Dégradé_sans_nom_14)"/>
      </g>
      <g style="clip-path: url(#clip-path)">
        <rect x="0.42102" y="0.42102" width="149.2891" height="379.00262" style="fill: none;stroke: #000;stroke-miterlimit: 10;stroke-width: 0.8420419190424169px"/>
      </g>
    </g>
  </g>
  <g style="isolation: isolate">
    <polygon points="19.195 370.294 18.055 369.674 18.023 369.558 19.163 370.178 19.195 370.294" style="fill: gray"/>
    <g style="isolation: isolate">
      <g style="clip-path: url(#clip-path-4)">
        <g style="isolation: isolate">
          <path d="M19.09751,370.25529l-1.13966-.62a.38611.38611,0,0,0-.14159-.11841l1.13966.62a.38593.38593,0,0,1,.14159.1184" transform="translate(0.06557 -0.07767)" style="fill: #858585"/>
        </g>
      </g>
    </g>
    <g style="isolation: isolate">
      <g style="clip-path: url(#clip-path-5)">
        <g style="isolation: isolate">
          <path d="M18.684,370.61739l-1.13966-.62a1.00628,1.00628,0,0,0,.28349-.07536l1.13966.62a1.0056,1.0056,0,0,1-.28349.07536" transform="translate(0.06557 -0.07767)" style="fill: #a8a8a8"/>
          <path d="M18.96752,370.542l-1.13966-.62a.43738.43738,0,0,0,.06209-.03524l1.13966.62a.43586.43586,0,0,1-.06209.03524" transform="translate(0.06557 -0.07767)" style="fill: #a3a3a3"/>
          <path d="M19.02961,370.50679l-1.13966-.62a.31723.31723,0,0,0,.03174-.0249l1.13966.62a.31435.31435,0,0,1-.03174.0249" transform="translate(0.06557 -0.07767)" style="fill: #9e9e9e"/>
          <path d="M19.06135,370.48189l-1.13966-.62.02112-.02122,1.13966.62-.02112.02121" transform="translate(0.06557 -0.07767)" style="fill: #999"/>
          <path d="M19.08247,370.46068l-1.13966-.62.01578-.02,1.13967.62-.01579.02" transform="translate(0.06557 -0.07767)" style="fill: #949494"/>
          <path d="M19.09826,370.44071l-1.13967-.62.013-.021,1.13966.62-.01294.021" transform="translate(0.06557 -0.07767)" style="fill: #8f8f8f"/>
          <path d="M19.1112,370.41973l-1.13966-.62.01139-.02538,1.13966.62-.01139.02539" transform="translate(0.06557 -0.07767)" style="fill: #8a8a8a"/>
          <path d="M19.12259,370.39434l-1.13966-.62.00671-.02251,1.13966.62-.00671.02251" transform="translate(0.06557 -0.07767)" style="fill: #858585"/>
        </g>
      </g>
    </g>
    <g style="isolation: isolate">
      <g style="clip-path: url(#clip-path-6)">
        <g style="isolation: isolate">
          <path d="M11.12083,370.46878l-1.13966-.62a26.02573,26.02573,0,0,1,4.33946-1.009,22.00361,22.00361,0,0,1,2.40577-.207,3.85328,3.85328,0,0,1,1.08309.088l1.13966.62a3.85287,3.85287,0,0,0-1.08309-.088,22.00134,22.00134,0,0,0-2.40577.207,26.02614,26.02614,0,0,0-4.33946,1.009" transform="translate(0.06557 -0.07767)" style="fill: #a8a8a8"/>
          <path d="M18.94915,369.34085l-1.13966-.62a1.6755,1.6755,0,0,1,.31919.11527l1.13967.62a1.67517,1.67517,0,0,0-.3192-.11527" transform="translate(0.06557 -0.07767)" style="fill: #a3a3a3"/>
          <path d="M19.26835,369.45612l-1.13967-.62.04734.02447,1.13966.62-.04733-.02446" transform="translate(0.06557 -0.07767)" style="fill: #9e9e9e"/>
        </g>
      </g>
    </g>
    <g style="isolation: isolate">
      <g style="clip-path: url(#clip-path-7)">
        <g style="isolation: isolate">
          <path d="M9.40188,373.25157l-1.13966-.62q.12233-.08751.24471-.1722l1.13966.62q-.12239.08469-.24471.1722" transform="translate(0.06557 -0.07767)" style="fill: #9e9e9e"/>
          <path d="M9.64659,373.07937l-1.13966-.62a16.26985,16.26985,0,0,1,2.3136-1.34553l1.13967.62a16.27043,16.27043,0,0,0-2.31361,1.34554" transform="translate(0.06557 -0.07767)" style="fill: #a3a3a3"/>
          <path d="M11.9602,371.73383l-1.13967-.62a12.01429,12.01429,0,0,1,3.45413-1.05915,10.15963,10.15963,0,0,1,2.273-.06563,4.55923,4.55923,0,0,0,.99667.00834l1.13966.62a4.55975,4.55975,0,0,1-.99667-.00833,10.159,10.159,0,0,0-2.273.06562,12.01486,12.01486,0,0,0-3.45412,1.05915" transform="translate(0.06557 -0.07767)" style="fill: #a8a8a8"/>
        </g>
      </g>
    </g>
    <polygon points="10.6 371.321 9.46 370.701 9.413 370.327 10.553 370.947 10.6 371.321" style="fill: gray"/>
    <g style="isolation: isolate">
      <g style="clip-path: url(#clip-path-8)">
        <g style="isolation: isolate">
          <path d="M8.06338,373.83729l-1.13966-.62a.56377.56377,0,0,0,.20919.00451,1.4373,1.4373,0,0,0,.406-.13258l1.13966.62a1.43665,1.43665,0,0,1-.406.13258.56359.56359,0,0,1-.20919-.0045" transform="translate(0.06557 -0.07767)" style="fill: #a8a8a8"/>
          <path d="M8.67858,373.70921l-1.13966-.62a3.58274,3.58274,0,0,0,.5032-.29752l1.13966.62a3.581,3.581,0,0,1-.5032.29751" transform="translate(0.06557 -0.07767)" style="fill: #a3a3a3"/>
          <path d="M9.18178,373.4117l-1.13966-.62q.10441-.07225.2201-.16013l1.13966.62q-.11577.08811-.2201.16013" transform="translate(0.06557 -0.07767)" style="fill: #9e9e9e"/>
        </g>
      </g>
    </g>
    <g style="isolation: isolate">
      <g style="clip-path: url(#clip-path-9)">
        <g style="isolation: isolate">
          <path d="M7.98774,373.807l-1.13966-.62.0118.00611,1.13966.62-.0118-.00611" transform="translate(0.06557 -0.07767)" style="fill: #9e9e9e"/>
          <path d="M7.99954,373.8131l-1.13966-.62a.3891.3891,0,0,0,.06384.02418l1.13966.62a.38864.38864,0,0,1-.06384-.02419" transform="translate(0.06557 -0.07767)" style="fill: #a3a3a3"/>
        </g>
      </g>
    </g>
    <g style="isolation: isolate">
      <g style="clip-path: url(#clip-path-10)">
        <g style="isolation: isolate">
          <path d="M10.48714,371.02457l-1.13966-.62a9.16834,9.16834,0,0,1,.59694-4.13529l1.13966.62a9.16836,9.16836,0,0,0-.59694,4.13529" transform="translate(0.06557 -0.07767)" style="fill: #858585"/>
          <path d="M11.08408,366.88928l-1.13966-.62q.07743-.2106.16431-.42317l1.13966.62q-.08686.21255-.16431.42316" transform="translate(0.06557 -0.07767)" style="fill: #8a8a8a"/>
        </g>
      </g>
    </g>
    <g style="isolation: isolate">
      <g style="clip-path: url(#clip-path-11)">
        <g style="isolation: isolate">
          <path d="M7.63135,374.46345l-1.13966-.62a1.06185,1.06185,0,0,1-.48094-.61887l1.13967.62a1.06178,1.06178,0,0,0,.48093.61886" transform="translate(0.06557 -0.07767)" style="fill: #858585"/>
        </g>
      </g>
    </g>
    <g style="isolation: isolate">
      <g style="clip-path: url(#clip-path-12)">
        <g style="isolation: isolate">
          <path d="M11.24839,366.46612l-1.13966-.62.01293-.03424,1.13966.62-.01293.03424" transform="translate(0.06557 -0.07767)" style="fill: #8a8a8a"/>
          <path d="M11.26132,366.43188l-1.13966-.62c.069-.18746.12105-.43342-.404-.71906l1.13966.62c.52507.28563.473.53159.404.71906" transform="translate(0.06557 -0.07767)" style="fill: #858585"/>
        </g>
      </g>
    </g>
    <g style="isolation: isolate">
      <g style="clip-path: url(#clip-path-13)">
        <g style="isolation: isolate">
          <path d="M10.98694,364.947l-1.13966-.62c.04151.01851.08372.0381.12615.059l1.13967.62c-.04243-.02084-.08465-.04044-.12616-.059" transform="translate(0.06557 -0.07767)" style="fill: #a3a3a3"/>
          <path d="M11.1131,365.006l-1.13967-.62c.03645.0179.07305.03671.10951.05655l1.13966.62c-.03646-.01983-.07306-.03865-.1095-.05655" transform="translate(0.06557 -0.07767)" style="fill: #9e9e9e"/>
        </g>
      </g>
    </g>
    <g style="isolation: isolate">
      <g style="clip-path: url(#clip-path-14)">
        <g style="isolation: isolate">
          <path d="M8.50255,365.91851l-1.13966-.62q.0343-.05268.0696-.103l1.13967.62q-.0353.05032-.06961.103" transform="translate(0.06557 -0.07767)" style="fill: #8f8f8f"/>
          <path d="M8.57216,365.81551l-1.13967-.62a3.2112,3.2112,0,0,1,.22117-.28154l1.13966.62a3.21113,3.21113,0,0,0-.22116.28154" transform="translate(0.06557 -0.07767)" style="fill: #949494"/>
          <path d="M8.79332,365.534l-1.13966-.62a2.72041,2.72041,0,0,1,.21875-.22153l1.13966.62a2.72041,2.72041,0,0,0-.21875.22153" transform="translate(0.06557 -0.07767)" style="fill: #999"/>
          <path d="M9.01207,365.31244l-1.13966-.62a2.33424,2.33424,0,0,1,.23383-.18548l1.13967.62a2.33679,2.33679,0,0,0-.23384.18547" transform="translate(0.06557 -0.07767)" style="fill: #9e9e9e"/>
          <path d="M9.24591,365.127l-1.13967-.62a2.01731,2.01731,0,0,1,.28687-.16608l1.13966.62a2.01674,2.01674,0,0,0-.28686.16609" transform="translate(0.06557 -0.07767)" style="fill: #a3a3a3"/>
          <path d="M9.53277,364.96088l-1.13966-.62a1.74179,1.74179,0,0,1,.50168-.15149,1.70752,1.70752,0,0,1,.67075.04087l1.13967.62a1.70776,1.70776,0,0,0-.67076-.04088,1.74211,1.74211,0,0,0-.50168.15149" transform="translate(0.06557 -0.07767)" style="fill: #a8a8a8"/>
          <path d="M10.70521,364.85027l-1.13967-.62a1.98077,1.98077,0,0,1,.28174.09675l1.13966.62a1.98059,1.98059,0,0,0-.28173-.09674" transform="translate(0.06557 -0.07767)" style="fill: #a3a3a3"/>
        </g>
      </g>
    </g>
    <path d="M19.643,369.76376a.83451.83451,0,0,1,.13482.69845,1.20579,1.20579,0,0,1-1.12561.88051,4.607,4.607,0,0,1-1.10232-.01418,9.60121,9.60121,0,0,0-2.12083.0643,12.99825,12.99825,0,0,0-5.70792,2.44485,3.34621,3.34621,0,0,1-1.45085.72252,1.12059,1.12059,0,0,1-.43242-.017.98.98,0,0,1-.68744-.6986c-.82818-2.51125-.37476-5.17673,1.35213-7.92608a2.26264,2.26264,0,0,1,1.5319-1.10912,1.77116,1.77116,0,0,1,.95249.13762c.56012.24976,1.248.69761.87771,1.72638a8.91212,8.91212,0,0,0-.74382,3.79539,26.02614,26.02614,0,0,1,4.33946-1.009,22.00134,22.00134,0,0,1,2.40577-.207C18.77908,369.21959,19.37939,369.38589,19.643,369.76376Zm-.959.85363c.2649-.03723.41565-.119.44527-.24556l-.03179-.11654c-.10384-.15828-.504-.30949-1.29685-.28449a22.3906,22.3906,0,0,0-2.298.20481,25.86383,25.86383,0,0,0-4.62355,1.10505l-.34458.11758-.04736-.37367a9.422,9.422,0,0,1,.76125-4.55845c.08048-.21011.18513-.50142-.575-.844a1.22075,1.22075,0,0,0-.64049-.09152,1.4384,1.4384,0,0,0-.99442.74481c-1.60642,2.55952-2.01926,4.93406-1.25475,7.24683.07964.23947.19964.29175.27968.31508a.56359.56359,0,0,0,.20919.0045,2.64361,2.64361,0,0,0,1.12931-.59022,13.66516,13.66516,0,0,1,6.01244-2.57689,10.159,10.159,0,0,1,2.273-.06562,4.55975,4.55975,0,0,0,.99667.00833" transform="translate(0.06557 -0.07767)" style="fill: #dfdfdf"/>
    <g style="isolation: isolate">
      <g style="clip-path: url(#clip-path-15)">
        <g style="isolation: isolate">
          <path d="M7.15042,373.84459l-1.13967-.62a8.26008,8.26008,0,0,1,.17453-5.566l1.13966.62a8.26,8.26,0,0,0-.17452,5.566" transform="translate(0.06557 -0.07767)" style="fill: #858585"/>
          <path d="M7.32494,368.27859l-1.13966-.62a11.88908,11.88908,0,0,1,.69377-1.53047l1.13967.62a11.88979,11.88979,0,0,0-.69378,1.53047" transform="translate(0.06557 -0.07767)" style="fill: #8a8a8a"/>
          <path d="M8.01872,366.74812l-1.13967-.62q.22246-.41346.48384-.82962l1.13966.62q-.26136.41613-.48383.82961" transform="translate(0.06557 -0.07767)" style="fill: #8f8f8f"/>
        </g>
      </g>
    </g>
  </g>
  <circle cx="12.06442" cy="369.9256" r="7.5" style="fill: none;stroke: #fff;stroke-miterlimit: 10;stroke-width: 0.75px"/>
  <g style="isolation: isolate">
    <polygon points="145.195 370.294 144.055 369.674 144.023 369.558 145.163 370.178 145.195 370.294" style="fill: gray"/>
    <g style="isolation: isolate">
      <g style="clip-path: url(#clip-path-16)">
        <g style="isolation: isolate">
          <path d="M145.09748,370.25529l-1.13966-.62a.386.386,0,0,0-.14159-.11842l1.13966.62a.386.386,0,0,1,.14159.11842" transform="translate(0.06557 -0.07767)" style="fill: #858585"/>
        </g>
      </g>
    </g>
    <g style="isolation: isolate">
      <g style="clip-path: url(#clip-path-17)">
        <g style="isolation: isolate">
          <path d="M144.684,370.61739l-1.13967-.62a1.00618,1.00618,0,0,0,.28349-.07536l1.13967.62a1.0056,1.0056,0,0,1-.28349.07536" transform="translate(0.06557 -0.07767)" style="fill: #a8a8a8"/>
          <path d="M144.96752,370.542l-1.13967-.62a.437.437,0,0,0,.0621-.03525l1.13966.62a.43738.43738,0,0,1-.06209.03524" transform="translate(0.06557 -0.07767)" style="fill: #a3a3a3"/>
          <path d="M145.02961,370.50679l-1.13966-.62a.31572.31572,0,0,0,.03174-.02489l1.13966.62a.31723.31723,0,0,1-.03174.0249" transform="translate(0.06557 -0.07767)" style="fill: #9e9e9e"/>
          <path d="M145.06135,370.48189l-1.13966-.62.02111-.02122,1.13967.62-.02112.02121" transform="translate(0.06557 -0.07767)" style="fill: #999"/>
          <path d="M145.08247,370.46068l-1.13967-.62.01579-.02,1.13966.62-.01578.02" transform="translate(0.06557 -0.07767)" style="fill: #949494"/>
          <path d="M145.09825,370.4407l-1.13966-.62.01294-.021,1.13967.62-.01295.021" transform="translate(0.06557 -0.07767)" style="fill: #8f8f8f"/>
          <path d="M145.1112,370.41972l-1.13967-.62.01139-.02539,1.13967.62-.01139.02538" transform="translate(0.06557 -0.07767)" style="fill: #8a8a8a"/>
          <path d="M145.12259,370.39434l-1.13967-.62.00672-.0225,1.13966.62-.00671.02251" transform="translate(0.06557 -0.07767)" style="fill: #858585"/>
        </g>
      </g>
    </g>
    <g style="isolation: isolate">
      <g style="clip-path: url(#clip-path-18)">
        <g style="isolation: isolate">
          <path d="M137.1288,370.46766l-1.13967-.62a25.89873,25.89873,0,0,1,4.33185-1.0079,22.00145,22.00145,0,0,1,2.40542-.20694,3.85276,3.85276,0,0,1,1.08307.088l1.13967.62a3.85321,3.85321,0,0,0-1.08308-.088,22.00393,22.00393,0,0,0-2.40542.20694,25.89885,25.89885,0,0,0-4.33184,1.0079" transform="translate(0.06557 -0.07767)" style="fill: #a8a8a8"/>
          <path d="M144.94914,369.34084l-1.13967-.62a1.6755,1.6755,0,0,1,.31919.11526l1.13966.62a1.67539,1.67539,0,0,0-.31918-.11527" transform="translate(0.06557 -0.07767)" style="fill: #a3a3a3"/>
          <path d="M145.26832,369.45611l-1.13966-.62.04734.02447,1.13966.62-.04734-.02446" transform="translate(0.06557 -0.07767)" style="fill: #9e9e9e"/>
        </g>
      </g>
    </g>
    <g style="isolation: isolate">
      <g style="clip-path: url(#clip-path-19)">
        <g style="isolation: isolate">
          <path d="M135.40184,373.25157l-1.13967-.62q.1223-.08749.24465-.17216l1.13967.62q-.12235.08468-.24465.17216" transform="translate(0.06557 -0.07767)" style="fill: #9e9e9e"/>
          <path d="M135.64649,373.07941l-1.13967-.62a16.27043,16.27043,0,0,1,2.31367-1.34557l1.13966.62a16.27074,16.27074,0,0,0-2.31366,1.34557" transform="translate(0.06557 -0.07767)" style="fill: #a3a3a3"/>
          <path d="M137.96015,371.73384l-1.13966-.62a12.01453,12.01453,0,0,1,3.45416-1.05917,10.16024,10.16024,0,0,1,2.273-.06562,4.56041,4.56041,0,0,0,.99666.00834l1.13967.62a4.55975,4.55975,0,0,1-.99667-.00833,10.159,10.159,0,0,0-2.273.06562,12.01478,12.01478,0,0,0-3.45417,1.05916" transform="translate(0.06557 -0.07767)" style="fill: #a8a8a8"/>
        </g>
      </g>
    </g>
    <polygon points="136.6 371.321 135.46 370.701 135.421 370.326 136.561 370.946 136.6 371.321" style="fill: gray"/>
    <g style="isolation: isolate">
      <g style="clip-path: url(#clip-path-20)">
        <g style="isolation: isolate">
          <path d="M134.07137,373.83616l-1.13967-.62a.52688.52688,0,0,0,.20394.00524,1.42679,1.42679,0,0,0,.4024-.13166l1.13966.62a1.42614,1.42614,0,0,1-.4024.13166.52643.52643,0,0,1-.20393-.00524" transform="translate(0.06557 -0.07767)" style="fill: #a8a8a8"/>
          <path d="M134.6777,373.70974l-1.13966-.62a3.588,3.588,0,0,0,.50386-.29792l1.13966.62a3.58642,3.58642,0,0,1-.50386.29792" transform="translate(0.06557 -0.07767)" style="fill: #a3a3a3"/>
          <path d="M135.18156,373.41182l-1.13966-.62q.10449-.07231.22027-.16025l1.13967.62q-.11587.08818-.22028.16025" transform="translate(0.06557 -0.07767)" style="fill: #9e9e9e"/>
        </g>
      </g>
    </g>
    <g style="isolation: isolate">
      <g style="clip-path: url(#clip-path-21)">
        <g style="isolation: isolate">
          <polyline points="134.052 373.726 132.912 373.106 132.923 373.112 134.063 373.732 134.052 373.726" style="fill: #9e9e9e"/>
          <path d="M133.99748,373.80984l-1.13967-.62a.36447.36447,0,0,0,.07054.02547l1.13966.62a.36505.36505,0,0,1-.07053-.02547" transform="translate(0.06557 -0.07767)" style="fill: #a3a3a3"/>
          <polyline points="134.134 373.758 132.994 373.138 132.997 373.139 134.137 373.758 134.134 373.758" style="fill: #a8a8a8"/>
        </g>
      </g>
    </g>
    <g style="isolation: isolate">
      <g style="clip-path: url(#clip-path-22)">
        <g style="isolation: isolate">
          <path d="M136.49511,371.02345l-1.13967-.62a9.16361,9.16361,0,0,1,.6042-4.17114l1.13966.62a9.16344,9.16344,0,0,0-.60419,4.17113" transform="translate(0.06557 -0.07767)" style="fill: #858585"/>
          <path d="M137.0993,366.85232l-1.13966-.62q.07072-.19236.149-.38619l1.13967.62q-.07831.19382-.149.3862" transform="translate(0.06557 -0.07767)" style="fill: #8a8a8a"/>
        </g>
      </g>
    </g>
    <g style="isolation: isolate">
      <g style="clip-path: url(#clip-path-23)">
        <g style="isolation: isolate">
          <path d="M133.63131,374.46346l-1.13966-.62a1.06168,1.06168,0,0,1-.48092-.61887l1.13966.62a1.06179,1.06179,0,0,0,.48092.61887" transform="translate(0.06557 -0.07767)" style="fill: #858585"/>
        </g>
      </g>
    </g>
    <g style="isolation: isolate">
      <g style="clip-path: url(#clip-path-24)">
        <g style="isolation: isolate">
          <path d="M137.24835,366.46612l-1.13967-.62.01293-.03425,1.13966.62-.01292.03424" transform="translate(0.06557 -0.07767)" style="fill: #8a8a8a"/>
          <path d="M137.26127,366.43188l-1.13966-.62c.069-.18746.121-.43342-.404-.71905l1.13966.62c.52508.28564.47306.5316.404.71906" transform="translate(0.06557 -0.07767)" style="fill: #858585"/>
        </g>
      </g>
    </g>
    <g style="isolation: isolate">
      <g style="clip-path: url(#clip-path-25)">
        <g style="isolation: isolate">
          <path d="M136.98689,364.947l-1.13966-.62c.04151.01851.08373.03811.12616.059l1.13966.62c-.04243-.02085-.08464-.04045-.12616-.059" transform="translate(0.06557 -0.07767)" style="fill: #a3a3a3"/>
          <path d="M137.113,365.006l-1.13966-.62c.03644.0179.073.03672.1095.05655l1.13967.62c-.03646-.01984-.07307-.03865-.10951-.05655" transform="translate(0.06557 -0.07767)" style="fill: #9e9e9e"/>
        </g>
      </g>
    </g>
    <g style="isolation: isolate">
      <g style="clip-path: url(#clip-path-26)">
        <g style="isolation: isolate">
          <path d="M134.50251,365.91851l-1.13967-.62q.03429-.05265.06957-.10295l1.13966.62q-.03526.0503-.06956.10294" transform="translate(0.06557 -0.07767)" style="fill: #8f8f8f"/>
          <path d="M134.57207,365.81557l-1.13966-.62a3.21335,3.21335,0,0,1,.22119-.28157l1.13966.62a3.21186,3.21186,0,0,0-.22119.28157" transform="translate(0.06557 -0.07767)" style="fill: #949494"/>
          <path d="M134.79326,365.534l-1.13966-.62a2.72227,2.72227,0,0,1,.21876-.22154l1.13966.62a2.72066,2.72066,0,0,0-.21876.22154" transform="translate(0.06557 -0.07767)" style="fill: #999"/>
          <path d="M135.012,365.31246l-1.13966-.62a2.33558,2.33558,0,0,1,.23385-.18548l1.13966.62a2.33684,2.33684,0,0,0-.23385.18549" transform="translate(0.06557 -0.07767)" style="fill: #9e9e9e"/>
          <path d="M135.24587,365.127l-1.13966-.62a2.01684,2.01684,0,0,1,.28687-.16609l1.13966.62a2.01835,2.01835,0,0,0-.28687.16609" transform="translate(0.06557 -0.07767)" style="fill: #a3a3a3"/>
          <path d="M135.53274,364.96088l-1.13966-.62a1.74179,1.74179,0,0,1,.50168-.15149,1.70742,1.70742,0,0,1,.67073.04087l1.13966.62a1.70778,1.70778,0,0,0-.67073-.04087,1.7422,1.7422,0,0,0-.50168.15149" transform="translate(0.06557 -0.07767)" style="fill: #a8a8a8"/>
          <path d="M136.70515,364.85026l-1.13966-.62a1.97953,1.97953,0,0,1,.28174.09675l1.13966.62a1.9816,1.9816,0,0,0-.28174-.09675" transform="translate(0.06557 -0.07767)" style="fill: #a3a3a3"/>
        </g>
      </g>
    </g>
    <path d="M145.643,369.76376a.83444.83444,0,0,1,.13485.69845,1.20581,1.20581,0,0,1-1.12563.88051,4.60683,4.60683,0,0,1-1.1023-.01418,9.601,9.601,0,0,0-2.1207.06428,12.95145,12.95145,0,0,0-5.70009,2.44374,3.40117,3.40117,0,0,1-1.45886.72365,1.15038,1.15038,0,0,1-.43242-.017.97989.97989,0,0,1-.68742-.6986c-.8282-2.51124-.37478-5.17672,1.35212-7.92608a2.26272,2.26272,0,0,1,1.53191-1.10912,1.77105,1.77105,0,0,1,.95247.13762c.56012.24977,1.248.69762.87771,1.72639a8.775,8.775,0,0,0-.7358,3.79426,25.89885,25.89885,0,0,1,4.33184-1.0079,22.00393,22.00393,0,0,1,2.40542-.20694C144.77907,369.21959,145.37939,369.38588,145.643,369.76376Zm-.95893.85363c.2649-.03723.41565-.119.44527-.24556l-.03182-.11654c-.10381-.15828-.504-.30949-1.2968-.2845a22.39071,22.39071,0,0,0-2.29774.20477,25.7426,25.7426,0,0,0-4.6159,1.104l-.35259.1187-.03934-.37479a9.4211,9.4211,0,0,1,.75324-4.55733c.08047-.21011.18512-.50141-.575-.844a1.19771,1.19771,0,0,0-.64049-.09152,1.43843,1.43843,0,0,0-.99442.74481c-1.60642,2.55952-2.01925,4.93406-1.25473,7.23819.07962.24811.19965.30039.2877.32259a.52643.52643,0,0,0,.20393.00524,2.64659,2.64659,0,0,0,1.12654-.58983,13.66529,13.66529,0,0,1,6.01248-2.57689,10.159,10.159,0,0,1,2.273-.06562,4.55975,4.55975,0,0,0,.99667.00833" transform="translate(0.06557 -0.07767)" style="fill: #dfdfdf"/>
    <g style="isolation: isolate">
      <g style="clip-path: url(#clip-path-27)">
        <g style="isolation: isolate">
          <path d="M133.15039,373.84459l-1.13966-.62a8.25992,8.25992,0,0,1,.17451-5.566l1.13966.62a8.25992,8.25992,0,0,0-.17451,5.566" transform="translate(0.06557 -0.07767)" style="fill: #858585"/>
          <path d="M133.3249,368.27859l-1.13966-.62a11.88884,11.88884,0,0,1,.69377-1.53046l1.13966.62a11.889,11.889,0,0,0-.69377,1.53046" transform="translate(0.06557 -0.07767)" style="fill: #8a8a8a"/>
          <path d="M134.01867,366.74813l-1.13966-.62q.22245-.41346.48383-.82961l1.13967.62q-.26138.41613-.48384.82962" transform="translate(0.06557 -0.07767)" style="fill: #8f8f8f"/>
        </g>
      </g>
    </g>
  </g>
  <circle cx="138.06557" cy="369.9256" r="7.5" style="fill: none;stroke: #fff;stroke-miterlimit: 10;stroke-width: 0.75px"/>
  <g>
    <path d="M31.251,166.63965a.85255.85255,0,0,1-.94043.98144l-2.9668-.00488q-.98437.00952-.99414.49805.01466.46362.999.459h.96q2.937.00952,2.95215,2.47559,0,2.39721-2.94726,2.41211H25.38477A.9595.9595,0,1,1,25.375,171.542l2.93848-.01465q.98291-.00512.9834-.50293,0-.498-.99317-.49316h-.96q-2.92968-.00513-2.92871-2.417-.01905-2.44629,2.92871-2.45117h2.93262A.86982.86982,0,0,1,31.251,166.63965Z" transform="translate(0.06557 -0.07767)" style="fill: #fff"/>
    <path d="M33.17578,165.65332a.8799.8799,0,0,1,.98926.957l-.00977,4.90235h3.873a.8736.8736,0,0,1,.98438.98632.86336.86336,0,0,1-.96485.97168H33.17578a.8521.8521,0,0,1-.97461-.94726v-5.88379A.87994.87994,0,0,1,33.17578,165.65332Z" transform="translate(0.06557 -0.07767)" style="fill: #fff"/>
    <path d="M40.9668,165.65332l4.93066.00977a.83431.83431,0,0,1,.916.94726.8898.8898,0,0,1-.98438,1.01074H41.94629v3.89161h3.873a.8736.8736,0,0,1,.98437.98632.86336.86336,0,0,1-.96484.97168H40.9668a.85209.85209,0,0,1-.97461-.94726v-5.88379A.87994.87994,0,0,1,40.9668,165.65332Zm1.44726,3.93555a.87783.87783,0,0,1,.96485-.99121h1.958a.979.979,0,1,1,.00489,1.958h-1.958A.85543.85543,0,0,1,42.41406,169.58887Z" transform="translate(0.06557 -0.07767)" style="fill: #fff"/>
    <path d="M47.78906,172.50879v-5.85938a.85469.85469,0,0,1,.97461-.97656.87043.87043,0,0,1,.97461.97656V170.082q.97413-.97632,1.22559-1.23047a1.16294,1.16294,0,0,1,1.4414-.00732q.24171.24683,1.22071,1.25732v-3.45215a.98194.98194,0,1,1,1.96386,0l-.00488,5.85938a.86533.86533,0,0,1-.97461.97168.96635.96635,0,0,1-.72558-.25147q-.24464-.25122-2.19239-2.20459-1.9746,1.968-2.208,2.207a1.00195,1.00195,0,0,1-.72559.249A.85792.85792,0,0,1,47.78906,172.50879Z" transform="translate(0.06557 -0.07767)" style="fill: #fff"/>
  </g>
  <g>
    <path d="M36.10205,95.6626a.878.878,0,0,1,.98926.96679v5.86915a.97712.97712,0,1,1-1.9541.00488V96.63428A.856.856,0,0,1,36.10205,95.6626Z" transform="translate(0.06557 -0.07767)" style="fill: #fff"/>
    <path d="M39.15283,95.67236a1.19687,1.19687,0,0,1,.84766.40039l2.918,3.73047V96.52686a.76351.76351,0,0,1,.8291-.8545q1.0957.01466,1.10547.874l.00976,6.07422q-.00879.84008-1.11523.8496a1.00237,1.00237,0,0,1-.81445-.40039l-2.93262-3.7207v3.27149a.75588.75588,0,0,1-.84766.8496q-1.10155.00513-1.10644-.85937V96.522Q38.042,95.67748,39.15283,95.67236Z" transform="translate(0.06557 -0.07767)" style="fill: #fff"/>
  </g>
  <g>
    <path d="M21.002,235.66309h3.41993a2.51584,2.51584,0,0,1,2.42187,2.43164,3.61909,3.61909,0,0,1-.36719,1.707,1.236,1.236,0,0,1-1.10937.71972l1.2041,1.22071a1.02574,1.02574,0,0,1,.28711.75683.86469.86469,0,0,1-.97461.97168,1.33149,1.33149,0,0,1-.97949-.47851l-1.94825-2.42188a1.53227,1.53227,0,0,1-.49707-1.00586.86646.86646,0,0,1,.98438-.98144l.69141-.00488q.77051.01024.75976-.47364,0-.48339-.76465-.4834H21.98145v4.873a.86189.86189,0,0,1-.9795.97656.85239.85239,0,0,1-.97461-.96679v-5.874A.86606.86606,0,0,1,21.002,235.66309Z" transform="translate(0.06557 -0.07767)" style="fill: #fff"/>
    <path d="M28.80273,243.47559a1.00067,1.00067,0,0,1-.48046-.124.89148.89148,0,0,1-.36231-.35937.99048.99048,0,0,1-.13183-.49317,23.67819,23.67819,0,0,1,1.457-3.18847q1.456-2.93409,1.583-3.166a.89406.89406,0,0,1,.36133-.36133.98516.98516,0,0,1,.48731-.12988.97439.97439,0,0,1,.48437.12988.90976.90976,0,0,1,.36035.36133q.12891.23145,1.59375,3.166a23.72326,23.72326,0,0,1,1.46387,3.18847.99039.99039,0,0,1-.13184.49317.88676.88676,0,0,1-.36523.35937,1.00086,1.00086,0,0,1-.47754.124Zm4.249-1.96778-1.335-2.749-1.34082,2.749Z" transform="translate(0.06557 -0.07767)" style="fill: #fff"/>
    <path d="M37.69531,235.67285a1.20069,1.20069,0,0,1,.84766.40039l2.918,3.73047v-3.27637a.76372.76372,0,0,1,.8291-.85449q1.09571.01465,1.10547.874l.00976,6.07421q-.00879.84082-1.11523.84961a1.00107,1.00107,0,0,1-.81445-.40039l-2.93262-3.7207v3.27148a.75549.75549,0,0,1-.84766.84961q-1.10155.00587-1.10644-.85937v-6.08887Q36.58447,235.67871,37.69531,235.67285Z" transform="translate(0.06557 -0.07767)" style="fill: #fff"/>
    <path d="M48.2793,235.66309l1.958-.00489a.87037.87037,0,0,1,.96485.98633.842.842,0,0,1-.96.95215l-1.95313.00977a1.99727,1.99727,0,0,0-.96289.25195,1.79585,1.79585,0,0,0-.72851.72265,1.99283,1.99283,0,0,0-.2627.9834,1.9697,1.9697,0,0,0,.25781.97168,1.82069,1.82069,0,0,0,.72364.72266,1.97216,1.97216,0,0,0,.97265.25879,2.41534,2.41534,0,0,0,1.02539-.24121,1.49871,1.49871,0,0,0,.75293-.75h-.81445a.85957.85957,0,0,1-.98828-.957.87645.87645,0,0,1,.97363-.99121l1.959.00976a.88659.88659,0,0,1,.98925.98633,3.96644,3.96644,0,0,1-.51367,1.94629,3.62409,3.62409,0,0,1-1.44531,1.44531,3.9283,3.9283,0,0,1-3.8877,0,3.62409,3.62409,0,0,1-1.44531-1.44531,3.944,3.944,0,0,1,.00781-3.90625,3.58492,3.58492,0,0,1,1.45411-1.44531A3.98905,3.98905,0,0,1,48.2793,235.66309Z" transform="translate(0.06557 -0.07767)" style="fill: #fff"/>
    <path d="M54.13574,235.65332l4.93067.00977a.8345.8345,0,0,1,.916.94726.88979.88979,0,0,1-.98437,1.01074H55.11523v3.89161h3.87305a.8738.8738,0,0,1,.98438.98632.863.863,0,0,1-.96485.97168H54.13574a.8519.8519,0,0,1-.97461-.94726v-5.88379A.88015.88015,0,0,1,54.13574,235.65332Zm1.44727,3.93555a.878.878,0,0,1,.96484-.99121h1.958a.979.979,0,1,1,.00488,1.958h-1.958A.855.855,0,0,1,55.583,239.58887Z" transform="translate(0.06557 -0.07767)" style="fill: #fff"/>
  </g>
  <g>
    <path d="M32.19971,290.66309a3.97991,3.97991,0,0,1,1.917.50488,3.63978,3.63978,0,0,1,1.46191,1.44531,3.92166,3.92166,0,0,1,.01465,3.90625,3.618,3.618,0,0,1-1.44531,1.44531,3.92181,3.92181,0,0,1-3.8877,0,3.618,3.618,0,0,1-1.44531-1.44531,3.944,3.944,0,0,1,.00781-3.90625,3.59092,3.59092,0,0,1,1.45411-1.44531A3.98781,3.98781,0,0,1,32.19971,290.66309Zm-.95313,2.19433a1.80791,1.80791,0,0,0-.72851.72266,1.99911,1.99911,0,0,0-.2627.98437,1.97516,1.97516,0,0,0,.25781.97168,1.833,1.833,0,0,0,.72364.72266,1.9554,1.9554,0,0,0,1.94433,0,1.833,1.833,0,0,0,.72364-.72266,1.96785,1.96785,0,0,0-.00489-1.95605,1.803,1.803,0,0,0-.73144-.72266,1.96515,1.96515,0,0,0-1.92188,0Z" transform="translate(0.06557 -0.07767)" style="fill: #fff"/>
    <path d="M38.07568,290.65332a.85247.85247,0,0,1,.9795.94238l-.00489,2.97364q.00879,1.95262,1.48145,1.96289,1.46045-.01466,1.456-1.96778v-2.93457a.97712.97712,0,1,1,1.9541.00489v2.93457q-.0044,3.90087-3.41015,3.90136-3.42627.02344-3.43067-3.90136v-2.93946A.86983.86983,0,0,1,38.07568,290.65332Z" transform="translate(0.06557 -0.07767)" style="fill: #fff"/>
    <path d="M45.85205,290.65332l4.93066.00977a.8341.8341,0,0,1,.916.94726.88979.88979,0,0,1-.98437,1.01074H49.2583l.00488,4.87793a.87391.87391,0,0,1-.97949.97168.84956.84956,0,0,1-.97461-.94726l.00488-4.90235H45.85205a.8646.8646,0,0,1-.97461-.98144A.87974.87974,0,0,1,45.85205,290.65332Z" transform="translate(0.06557 -0.07767)" style="fill: #fff"/>
  </g>
  <g id="Illustration_28" data-name="Illustration 28">
    <g style="clip-path: url(#clip-path-28)">
      <g style="clip-path: url(#clip-path-28)">
        <path d="M21.09507,152.22633a2.79707,2.79707,0,1,1-2.79518-2.9,2.84917,2.84917,0,0,1,2.79518,2.9" transform="translate(0.06557 -0.07767)" style="fill: #fff"/>
        <ellipse cx="18.36546" cy="152.14866" rx="2.79518" ry="2.9" style="fill: none;stroke: #000;stroke-miterlimit: 10;stroke-width: 0.3558885029135203px"/>
      </g>
      <g>
        <path d="M16.187,153.24316v-1.39355h.21143v.26172q.15526-.293.29638-.29248c.11963,0,.19678.09717.231.29248h.00879q.12671-.293.29834-.29248a.19428.19428,0,0,1,.18115.0957.63982.63982,0,0,1,.05615.30859v1.02H17.2583V152.2334a.4973.4973,0,0,0-.01562-.15527.06.06,0,0,0-.06006-.04151q-.115,0-.248.30713v.89941h-.21191v-.96386a.75917.75917,0,0,0-.01563-.1919.06272.06272,0,0,0-.064-.04785q-.05127,0-.12159.08789a.86457.86457,0,0,0-.123.21875v.897Z" transform="translate(0.06557 -0.07767)" style="fill: #fff"/>
        <path d="M18.27734,153.24316v-1.20361H17.794v-.18994h.72412v1.39355Zm-.03076-1.70947v-.31689h.30225v.31689Z" transform="translate(0.06557 -0.07767)" style="fill: #fff"/>
        <path d="M19.31494,153.24316v-1.39355h.24072v.26172a.50535.50535,0,0,1,.45264-.29248q.37793,0,.37793.4707v.95361h-.24072v-.88427a.4167.4167,0,0,0-.04834-.23145.18432.18432,0,0,0-.16211-.06885q-.18091,0-.3794.27344v.91113Z" transform="translate(0.06557 -0.07767)" style="fill: #fff"/>
      </g>
      <g style="clip-path: url(#clip-path-28)">
        <path d="M16.39861,153.24372v-.89682a.84913.84913,0,0,1,.123-.219c.04682-.05873.08735-.08773.12159-.08773a.062.062,0,0,1,.06359.04785.7427.7427,0,0,1,.01607.19213v.96352h.21174V152.344q.13311-.30667.24807-.30668a.05993.05993,0,0,1,.0601.04133.508.508,0,0,1,.01537.15515v1.00992h.21173v-1.02007a.64316.64316,0,0,0-.0559-.30885.19542.19542,0,0,0-.18169-.0957q-.17085,0-.29768.2929H16.9255q-.05136-.29254-.2313-.2929-.14046,0-.29559.2929v-.26173h-.21173v1.39345Z" transform="translate(0.06557 -0.07767)" style="fill: none;stroke: #000;stroke-miterlimit: 10;stroke-width: 0.17794425145676016px"/>
        <path d="M18.54894,151.21735h-.30188v.31682h.30188Zm-.03074,2.02637v-1.39345h-.72395v.19h.48286v1.2035Z" transform="translate(0.06557 -0.07767)" style="fill: none;stroke: #000;stroke-miterlimit: 10;stroke-width: 0.17794425145676016px"/>
        <path d="M19.55549,153.24372v-.91132q.19811-.273.37875-.27333a.1834.1834,0,0,1,.16212.06888.41468.41468,0,0,1,.04891.23127v.8845h.24039v-.95337q0-.47089-.37805-.47125a.50571.50571,0,0,0-.45212.2929v-.26173H19.3144v1.39345Z" transform="translate(0.06557 -0.07767)" style="fill: none;stroke: #000;stroke-miterlimit: 10;stroke-width: 0.17794425145676016px"/>
        <path d="M64.42038,152.22633a2.79707,2.79707,0,1,1-2.79518-2.9,2.84917,2.84917,0,0,1,2.79518,2.9" transform="translate(0.06557 -0.07767)" style="fill: #fff"/>
        <ellipse cx="61.69077" cy="152.14866" rx="2.79518" ry="2.9" style="fill: none;stroke: #000;stroke-miterlimit: 10;stroke-width: 0.3558885029135203px"/>
      </g>
      <g>
        <path d="M59.51318,153.24316v-1.39355h.21143v.26172q.15528-.293.29639-.29248c.11963,0,.19677.09717.231.29248h.00879q.12671-.293.29834-.29248a.19427.19427,0,0,1,.18115.0957.6398.6398,0,0,1,.05616.30859v1.02h-.21192V152.2334a.4973.4973,0,0,0-.01562-.15527.06.06,0,0,0-.06006-.04151q-.115,0-.248.30713v.89941h-.21191v-.96386a.75917.75917,0,0,0-.01563-.1919.06272.06272,0,0,0-.064-.04785q-.05127,0-.12158.08789a.86458.86458,0,0,0-.123.21875v.897Z" transform="translate(0.06557 -0.07767)" style="fill: #fff"/>
        <path d="M61.93018,153.0752a.66568.66568,0,0,1-.437.19238.42843.42843,0,0,1-.30029-.10889.36031.36031,0,0,1-.11767-.27637.40972.40972,0,0,1,.1831-.34863.81033.81033,0,0,1,.48438-.13232h.14941v-.11963a.29077.29077,0,0,0-.0625-.21045.28469.28469,0,0,0-.20654-.0625.89816.89816,0,0,0-.43311.12305v-.2168a1.36744,1.36744,0,0,1,.48145-.09619.49544.49544,0,0,1,.35742.105.50936.50936,0,0,1,.10449.36328v.584a.38955.38955,0,0,0,.02539.17139.10116.10116,0,0,0,.09668.04541.37548.37548,0,0,0,.07568-.01269l.02247.15136a.63028.63028,0,0,1-.18311.041A.24012.24012,0,0,1,61.93018,153.0752Zm-.03809-.16456v-.35156h-.07227q-.49511,0-.49511.28125a.21739.21739,0,0,0,.06347.16309.23272.23272,0,0,0,.169.06152A.52526.52526,0,0,0,61.89209,152.91064Z" transform="translate(0.06557 -0.07767)" style="fill: #fff"/>
        <path d="M62.53223,153.24316l.49414-.70459-.4917-.689h.30078l.36768.51514.33691-.51514h.23877l-.45215.68848.50342.70507h-.30127l-.37988-.53271-.37354.53271Z" transform="translate(0.06557 -0.07767)" style="fill: #fff"/>
      </g>
      <g style="clip-path: url(#clip-path-28)">
        <path d="M59.72426,153.24372v-.89682a.84942.84942,0,0,1,.123-.219c.04683-.05873.08735-.08773.1216-.08773a.062.062,0,0,1,.06359.04785.7427.7427,0,0,1,.01607.19213v.96352h.21174V152.344q.13311-.30667.24806-.30668a.05993.05993,0,0,1,.0601.04133.5076.5076,0,0,1,.01538.15515v1.00992h.21173v-1.02007a.64328.64328,0,0,0-.0559-.30885.19543.19543,0,0,0-.18169-.0957q-.17085,0-.29768.2929h-.00909q-.05136-.29254-.2313-.2929-.14046,0-.29559.2929v-.26173h-.21174v1.39345Z" transform="translate(0.06557 -0.07767)" style="fill: none;stroke: #000;stroke-miterlimit: 10;stroke-width: 0.17794425145676016px"/>
        <path d="M61.5565,153.06515a.23169.23169,0,0,1-.16911-.06162.21607.21607,0,0,1-.06289-.1624q0-.28167.49544-.2813h.072v.35162A.52951.52951,0,0,1,61.5565,153.06515Zm.61354.203a.63119.63119,0,0,0,.18308-.04132l-.02236-.15153a.35881.35881,0,0,1-.07547.013.102.102,0,0,1-.09713-.04567.39139.39139,0,0,1-.02585-.1711v-.58435a.51252.51252,0,0,0-.10412-.36323.49571.49571,0,0,0-.35709-.10512,1.38275,1.38275,0,0,0-.48147.09642v.2175a.89241.89241,0,0,1,.43325-.12325.28151.28151,0,0,1,.20615.06235.29183.29183,0,0,1,.06289.211v.1189h-.14954a.81313.81313,0,0,0-.48426.13195.41156.41156,0,0,0-.18309.34945.36115.36115,0,0,0,.1174.27622.42669.42669,0,0,0,.30048.10875.6631.6631,0,0,0,.43675-.19285A.23976.23976,0,0,0,62.17,153.26815Z" transform="translate(0.06557 -0.07767)" style="fill: none;stroke: #000;stroke-miterlimit: 10;stroke-width: 0.17794425145676016px"/>
        <polygon points="62.84 153.166 63.213 152.633 63.594 153.166 63.895 153.166 63.392 152.461 63.843 151.773 63.605 151.773 63.268 152.288 62.9 151.773 62.599 151.773 63.091 152.461 62.596 153.166 62.84 153.166" style="fill: none;stroke: #000;stroke-miterlimit: 10;stroke-width: 0.17794425145676016px"/>
      </g>
    </g>
  </g>
  <g id="Illustration_28-2" data-name="Illustration 28">
    <g style="clip-path: url(#clip-path-32)">
      <g style="clip-path: url(#clip-path-32)">
        <path d="M21.09507,222.22633a2.79707,2.79707,0,1,1-2.79518-2.9,2.84917,2.84917,0,0,1,2.79518,2.9" transform="translate(0.06557 -0.07767)" style="fill: #fff"/>
        <ellipse cx="18.36546" cy="222.14866" rx="2.79518" ry="2.9" style="fill: none;stroke: #000;stroke-miterlimit: 10;stroke-width: 0.3558885029135203px"/>
      </g>
      <g>
        <path d="M16.187,223.24316v-1.39355h.21143v.26172q.15526-.293.29638-.293.17945,0,.231.293h.00879q.12671-.293.29834-.293a.1952.1952,0,0,1,.18115.0957.64381.64381,0,0,1,.05615.3086v1.0205H17.2583V222.2334a.4973.4973,0,0,0-.01562-.15527.05956.05956,0,0,0-.06006-.041c-.07666,0-.15918.10156-.248.30664v.89941h-.21191v-.96386a.75448.75448,0,0,0-.01563-.19141.06307.06307,0,0,0-.064-.04883q-.05127,0-.12159.08789a.87322.87322,0,0,0-.123.21875v.89746Z" transform="translate(0.06557 -0.07767)" style="fill: #fff"/>
        <path d="M18.27734,223.24316v-1.2041H17.794v-.18945h.72412v1.39355Zm-.03076-1.709v-.31738h.30225v.31738Z" transform="translate(0.06557 -0.07767)" style="fill: #fff"/>
        <path d="M19.31494,223.24316v-1.39355h.24072v.26172a.50586.50586,0,0,1,.45264-.293q.37793,0,.37793.47168v.95312h-.24072v-.88378a.41828.41828,0,0,0-.04834-.23243.18653.18653,0,0,0-.16211-.06836q-.18091,0-.3794.27344v.91113Z" transform="translate(0.06557 -0.07767)" style="fill: #fff"/>
      </g>
      <g style="clip-path: url(#clip-path-32)">
        <path d="M16.39861,223.24372v-.89682a.84913.84913,0,0,1,.123-.219c.04682-.05873.08735-.08773.12159-.08773a.062.062,0,0,1,.06359.04785.7427.7427,0,0,1,.01607.19213v.96352h.21174V222.344q.13311-.30667.24807-.30668a.05993.05993,0,0,1,.0601.04133.508.508,0,0,1,.01537.15515v1.00992h.21173v-1.02007a.64316.64316,0,0,0-.0559-.30885.19542.19542,0,0,0-.18169-.0957q-.17085,0-.29768.2929H16.9255q-.05136-.29254-.2313-.2929-.14046,0-.29559.2929v-.26173h-.21173v1.39345Z" transform="translate(0.06557 -0.07767)" style="fill: none;stroke: #000;stroke-miterlimit: 10;stroke-width: 0.17794425145676016px"/>
        <path d="M18.54894,221.21735h-.30188v.31682h.30188Zm-.03074,2.02637v-1.39345h-.72395v.19h.48286v1.2035Z" transform="translate(0.06557 -0.07767)" style="fill: none;stroke: #000;stroke-miterlimit: 10;stroke-width: 0.17794425145676016px"/>
        <path d="M19.55549,223.24372v-.91132q.19811-.273.37875-.27333a.1834.1834,0,0,1,.16212.06888.41468.41468,0,0,1,.04891.23127v.8845h.24039v-.95337q0-.47089-.37805-.47125a.50571.50571,0,0,0-.45212.2929v-.26173H19.3144v1.39345Z" transform="translate(0.06557 -0.07767)" style="fill: none;stroke: #000;stroke-miterlimit: 10;stroke-width: 0.17794425145676016px"/>
        <path d="M64.42038,222.22633a2.79707,2.79707,0,1,1-2.79518-2.9,2.84917,2.84917,0,0,1,2.79518,2.9" transform="translate(0.06557 -0.07767)" style="fill: #fff"/>
        <ellipse cx="61.69077" cy="222.14866" rx="2.79518" ry="2.9" style="fill: none;stroke: #000;stroke-miterlimit: 10;stroke-width: 0.3558885029135203px"/>
      </g>
      <g>
        <path d="M59.51318,223.24316v-1.39355h.21143v.26172q.15528-.293.29639-.293.17945,0,.231.293h.00879q.12671-.293.29834-.293a.19519.19519,0,0,1,.18115.0957.64379.64379,0,0,1,.05616.3086v1.0205h-.21192V222.2334a.4973.4973,0,0,0-.01562-.15527.05954.05954,0,0,0-.06006-.041c-.07666,0-.15918.10156-.248.30664v.89941h-.21191v-.96386a.75448.75448,0,0,0-.01563-.19141.06307.06307,0,0,0-.064-.04883q-.05127,0-.12158.08789a.87323.87323,0,0,0-.123.21875v.89746Z" transform="translate(0.06557 -0.07767)" style="fill: #fff"/>
        <path d="M61.93018,223.0752a.668.668,0,0,1-.437.19238.42439.42439,0,0,1-.30029-.10938.3575.3575,0,0,1-.11767-.27539.41261.41261,0,0,1,.1831-.34961.8137.8137,0,0,1,.48438-.13183h.14941v-.11914a.29132.29132,0,0,0-.0625-.21094.28253.28253,0,0,0-.20654-.0625.89816.89816,0,0,0-.43311.12305v-.2168a1.3687,1.3687,0,0,1,.48145-.09668.4932.4932,0,0,1,.35742.10547.50936.50936,0,0,1,.10449.36328v.584a.387.387,0,0,0,.02539.1709.1014.1014,0,0,0,.09668.0459.34331.34331,0,0,0,.07568-.01269l.02247.15136a.63028.63028,0,0,1-.18311.041A.2406.2406,0,0,1,61.93018,223.0752Zm-.03809-.16407v-.35156h-.07227q-.49511,0-.49511.28027a.21516.21516,0,0,0,.06347.16309.23268.23268,0,0,0,.169.06152A.526.526,0,0,0,61.89209,222.91113Z" transform="translate(0.06557 -0.07767)" style="fill: #fff"/>
        <path d="M62.53223,223.24316l.49414-.7041-.4917-.68945h.30078l.36768.51562.33691-.51562h.23877l-.45215.68848.50342.70507h-.30127l-.37988-.5332-.37354.5332Z" transform="translate(0.06557 -0.07767)" style="fill: #fff"/>
      </g>
      <g style="clip-path: url(#clip-path-32)">
        <path d="M59.72426,223.24372v-.89682a.84942.84942,0,0,1,.123-.219c.04683-.05873.08735-.08773.1216-.08773a.062.062,0,0,1,.06359.04785.7427.7427,0,0,1,.01607.19213v.96352h.21174V222.344q.13311-.30667.24806-.30668a.05993.05993,0,0,1,.0601.04133.5076.5076,0,0,1,.01538.15515v1.00992h.21173v-1.02007a.64328.64328,0,0,0-.0559-.30885.19543.19543,0,0,0-.18169-.0957q-.17085,0-.29768.2929h-.00909q-.05136-.29254-.2313-.2929-.14046,0-.29559.2929v-.26173h-.21174v1.39345Z" transform="translate(0.06557 -0.07767)" style="fill: none;stroke: #000;stroke-miterlimit: 10;stroke-width: 0.17794425145676016px"/>
        <path d="M61.5565,223.06515a.23169.23169,0,0,1-.16911-.06162.21607.21607,0,0,1-.06289-.1624q0-.28167.49544-.2813h.072v.35162A.52951.52951,0,0,1,61.5565,223.06515Zm.61354.203a.63119.63119,0,0,0,.18308-.04132l-.02236-.15153a.35881.35881,0,0,1-.07547.013.102.102,0,0,1-.09713-.04567.39139.39139,0,0,1-.02585-.1711v-.58435a.51252.51252,0,0,0-.10412-.36323.49571.49571,0,0,0-.35709-.10512,1.38275,1.38275,0,0,0-.48147.09642v.2175a.89241.89241,0,0,1,.43325-.12325.28151.28151,0,0,1,.20615.06235.29183.29183,0,0,1,.06289.211v.1189h-.14954a.81313.81313,0,0,0-.48426.13195.41156.41156,0,0,0-.18309.34945.36115.36115,0,0,0,.1174.27622.42669.42669,0,0,0,.30048.10875.6631.6631,0,0,0,.43675-.19285A.23976.23976,0,0,0,62.17,223.26815Z" transform="translate(0.06557 -0.07767)" style="fill: none;stroke: #000;stroke-miterlimit: 10;stroke-width: 0.17794425145676016px"/>
        <polygon points="62.84 223.166 63.213 222.633 63.594 223.166 63.895 223.166 63.392 222.461 63.843 221.773 63.605 221.773 63.268 222.288 62.9 221.773 62.599 221.773 63.091 222.461 62.596 223.166 62.84 223.166" style="fill: none;stroke: #000;stroke-miterlimit: 10;stroke-width: 0.17794425145676016px"/>
      </g>
    </g>
  </g>
  <g>
    <path d="M96.251,166.63965a.85255.85255,0,0,1-.94043.98144l-2.9668-.00488q-.98437.00952-.99414.49805.01466.46362.999.459h.96q2.937.00952,2.95215,2.47559,0,2.39721-2.94726,2.41211H90.38477A.9595.9595,0,1,1,90.375,171.542l2.93848-.01465q.98291-.00512.9834-.50293,0-.498-.99317-.49316h-.96q-2.92968-.00513-2.92871-2.417-.01905-2.44629,2.92871-2.45117h2.93262A.86982.86982,0,0,1,96.251,166.63965Z" transform="translate(0.06557 -0.07767)" style="fill: #fff"/>
    <path d="M98.17578,165.65332a.8799.8799,0,0,1,.98926.957l-.00977,4.90235h3.873a.8736.8736,0,0,1,.98438.98632.86336.86336,0,0,1-.96485.97168H98.17578a.8521.8521,0,0,1-.97461-.94726v-5.88379A.87994.87994,0,0,1,98.17578,165.65332Z" transform="translate(0.06557 -0.07767)" style="fill: #fff"/>
    <path d="M105.9668,165.65332l4.93066.00977a.83431.83431,0,0,1,.916.94726.8898.8898,0,0,1-.98438,1.01074h-3.88281v3.89161h3.873a.8736.8736,0,0,1,.98437.98632.86336.86336,0,0,1-.96484.97168H105.9668a.85209.85209,0,0,1-.97461-.94726v-5.88379A.87994.87994,0,0,1,105.9668,165.65332Zm1.44726,3.93555a.87783.87783,0,0,1,.96485-.99121h1.958a.979.979,0,1,1,.00489,1.958h-1.958A.85543.85543,0,0,1,107.41406,169.58887Z" transform="translate(0.06557 -0.07767)" style="fill: #fff"/>
    <path d="M112.78906,172.50879v-5.85938a.85469.85469,0,0,1,.97461-.97656.87043.87043,0,0,1,.97461.97656V170.082q.97413-.97632,1.22559-1.23047a1.16294,1.16294,0,0,1,1.4414-.00732q.24171.24683,1.22071,1.25732v-3.45215a.98194.98194,0,1,1,1.96386,0l-.00488,5.85938a.86533.86533,0,0,1-.97461.97168.96635.96635,0,0,1-.72558-.25147q-.24463-.25122-2.19239-2.20459-1.9746,1.968-2.208,2.207a1.00195,1.00195,0,0,1-.72559.249A.85792.85792,0,0,1,112.78906,172.50879Z" transform="translate(0.06557 -0.07767)" style="fill: #fff"/>
  </g>
  <g>
    <path d="M101.10156,95.6626a.878.878,0,0,1,.98926.96679v5.86915a.97712.97712,0,1,1-1.9541.00488V96.63428A.856.856,0,0,1,101.10156,95.6626Z" transform="translate(0.06557 -0.07767)" style="fill: #fff"/>
    <path d="M104.15234,95.67236A1.19685,1.19685,0,0,1,105,96.07275l2.918,3.73047V96.52686a.76351.76351,0,0,1,.8291-.8545q1.09571.01466,1.10547.874l.00976,6.07422q-.00878.84008-1.11523.8496a1.00239,1.00239,0,0,1-.81445-.40039L105,99.34912v3.27149a.75588.75588,0,0,1-.84766.8496q-1.10156.00513-1.10644-.85937V96.522Q103.04151,95.67748,104.15234,95.67236Z" transform="translate(0.06557 -0.07767)" style="fill: #fff"/>
  </g>
  <g>
    <path d="M86.00195,235.66309h3.41993a2.51584,2.51584,0,0,1,2.42187,2.43164,3.61909,3.61909,0,0,1-.36719,1.707,1.236,1.236,0,0,1-1.10937.71972l1.2041,1.22071a1.02574,1.02574,0,0,1,.28711.75683.86469.86469,0,0,1-.97461.97168,1.33149,1.33149,0,0,1-.97949-.47851l-1.94825-2.42188a1.53227,1.53227,0,0,1-.49707-1.00586.86646.86646,0,0,1,.98438-.98144l.69141-.00488q.7705.01024.75976-.47364,0-.48339-.76465-.4834H86.98145v4.873a.86189.86189,0,0,1-.9795.97656.85239.85239,0,0,1-.97461-.96679v-5.874A.86606.86606,0,0,1,86.00195,235.66309Z" transform="translate(0.06557 -0.07767)" style="fill: #fff"/>
    <path d="M93.80273,243.47559a1.00067,1.00067,0,0,1-.48046-.124.89148.89148,0,0,1-.36231-.35937.99048.99048,0,0,1-.13183-.49317,23.67819,23.67819,0,0,1,1.457-3.18847q1.456-2.93409,1.583-3.166a.89406.89406,0,0,1,.36133-.36133.98516.98516,0,0,1,.48731-.12988.97439.97439,0,0,1,.48437.12988.90976.90976,0,0,1,.36035.36133q.12891.23145,1.59375,3.166a23.72326,23.72326,0,0,1,1.46387,3.18847.99039.99039,0,0,1-.13184.49317.88676.88676,0,0,1-.36523.35937,1.00086,1.00086,0,0,1-.47754.124Zm4.249-1.96778-1.335-2.749-1.34082,2.749Z" transform="translate(0.06557 -0.07767)" style="fill: #fff"/>
    <path d="M102.69531,235.67285a1.20069,1.20069,0,0,1,.84766.40039l2.918,3.73047v-3.27637a.76372.76372,0,0,1,.8291-.85449q1.0957.01465,1.10547.874l.00976,6.07421q-.00879.84082-1.11523.84961a1.00107,1.00107,0,0,1-.81445-.40039l-2.93262-3.7207v3.27148a.75549.75549,0,0,1-.84766.84961q-1.10156.00587-1.10644-.85937v-6.08887Q101.58448,235.67871,102.69531,235.67285Z" transform="translate(0.06557 -0.07767)" style="fill: #fff"/>
    <path d="M113.2793,235.66309l1.958-.00489a.87037.87037,0,0,1,.96485.98633.842.842,0,0,1-.96.95215l-1.95313.00977a1.99727,1.99727,0,0,0-.96289.25195,1.79585,1.79585,0,0,0-.72851.72265,1.99283,1.99283,0,0,0-.2627.9834,1.9697,1.9697,0,0,0,.25781.97168,1.82069,1.82069,0,0,0,.72364.72266,1.97216,1.97216,0,0,0,.97265.25879,2.41534,2.41534,0,0,0,1.02539-.24121,1.49871,1.49871,0,0,0,.75293-.75h-.81445a.85957.85957,0,0,1-.98828-.957.87645.87645,0,0,1,.97363-.99121l1.959.00976a.88659.88659,0,0,1,.98925.98633,3.96644,3.96644,0,0,1-.51367,1.94629,3.62409,3.62409,0,0,1-1.44531,1.44531,3.9283,3.9283,0,0,1-3.8877,0,3.62409,3.62409,0,0,1-1.44531-1.44531,3.944,3.944,0,0,1,.00781-3.90625,3.58492,3.58492,0,0,1,1.45411-1.44531A3.98905,3.98905,0,0,1,113.2793,235.66309Z" transform="translate(0.06557 -0.07767)" style="fill: #fff"/>
    <path d="M119.13574,235.65332l4.93067.00977a.8345.8345,0,0,1,.916.94726.88979.88979,0,0,1-.98437,1.01074h-3.88282v3.89161h3.87305a.8738.8738,0,0,1,.98438.98632.863.863,0,0,1-.96485.97168h-4.87207a.8519.8519,0,0,1-.97461-.94726v-5.88379A.88015.88015,0,0,1,119.13574,235.65332Zm1.44727,3.93555a.878.878,0,0,1,.96484-.99121h1.958a.979.979,0,1,1,.00488,1.958h-1.958A.855.855,0,0,1,120.583,239.58887Z" transform="translate(0.06557 -0.07767)" style="fill: #fff"/>
  </g>
  <g>
    <path d="M97.19922,290.66309a3.97991,3.97991,0,0,1,1.917.50488,3.63981,3.63981,0,0,1,1.46192,1.44531,3.92162,3.92162,0,0,1,.01464,3.90625,3.618,3.618,0,0,1-1.44531,1.44531,3.9218,3.9218,0,0,1-3.88769,0,3.618,3.618,0,0,1-1.44532-1.44531,3.944,3.944,0,0,1,.00782-3.90625,3.59084,3.59084,0,0,1,1.4541-1.44531A3.98781,3.98781,0,0,1,97.19922,290.66309Zm-.95313,2.19433a1.80791,1.80791,0,0,0-.72851.72266,1.99911,1.99911,0,0,0-.2627.98437,1.97506,1.97506,0,0,0,.25782.97168,1.833,1.833,0,0,0,.72363.72266,1.9554,1.9554,0,0,0,1.94433,0,1.833,1.833,0,0,0,.72364-.72266,1.96785,1.96785,0,0,0-.00489-1.95605,1.803,1.803,0,0,0-.73144-.72266,1.96515,1.96515,0,0,0-1.92188,0Z" transform="translate(0.06557 -0.07767)" style="fill: #fff"/>
    <path d="M103.0752,290.65332a.85247.85247,0,0,1,.97949.94238l-.00489,2.97364q.00879,1.95262,1.48145,1.96289,1.46044-.01466,1.45605-1.96778v-2.93457a.97713.97713,0,1,1,1.95411.00489v2.93457q-.0044,3.90087-3.41016,3.90136-3.42627.02344-3.43066-3.90136v-2.93946A.86982.86982,0,0,1,103.0752,290.65332Z" transform="translate(0.06557 -0.07767)" style="fill: #fff"/>
    <path d="M110.85156,290.65332l4.93067.00977a.8341.8341,0,0,1,.916.94726.88979.88979,0,0,1-.98437,1.01074h-1.45606l.00489,4.87793a.87392.87392,0,0,1-.9795.97168.84956.84956,0,0,1-.97461-.94726l.00489-4.90235h-1.46192a.8646.8646,0,0,1-.97461-.98144A.87974.87974,0,0,1,110.85156,290.65332Z" transform="translate(0.06557 -0.07767)" style="fill: #fff"/>
  </g>
  <g id="Illustration_28-3" data-name="Illustration 28">
    <g style="clip-path: url(#clip-path-36)">
      <g style="clip-path: url(#clip-path-36)">
        <path d="M86.09507,152.22633a2.79707,2.79707,0,1,1-2.79518-2.9,2.84917,2.84917,0,0,1,2.79518,2.9" transform="translate(0.06557 -0.07767)" style="fill: #fff"/>
        <ellipse cx="83.36546" cy="152.14866" rx="2.79518" ry="2.9" style="fill: none;stroke: #000;stroke-miterlimit: 10;stroke-width: 0.3558885029135203px"/>
      </g>
      <g>
        <path d="M81.18652,153.24316v-1.39355h.21192v.26172q.15526-.293.2959-.29248c.12011,0,.19726.09717.23144.29248h.00879q.12744-.293.29785-.29248a.19455.19455,0,0,1,.18164.0957.64073.64073,0,0,1,.05567.30859v1.02h-.21094V152.2334a.48891.48891,0,0,0-.0166-.15527.0586.0586,0,0,0-.05957-.04151c-.07617,0-.15918.10254-.24805.30713v.89941h-.21191v-.96386a.73652.73652,0,0,0-.01563-.1919.06292.06292,0,0,0-.06348-.04785c-.03417,0-.07519.0293-.12207.08789a.86457.86457,0,0,0-.123.21875v.897Z" transform="translate(0.06557 -0.07767)" style="fill: #fff"/>
        <path d="M83.27734,153.24316v-1.20361h-.48242v-.18994h.72363v1.39355Zm-.03027-1.70947v-.31689h.30273v.31689Z" transform="translate(0.06557 -0.07767)" style="fill: #fff"/>
        <path d="M84.31445,153.24316v-1.39355h.24121v.26172a.50363.50363,0,0,1,.45215-.29248q.37794,0,.37793.4707v.95361h-.24121v-.88427a.41722.41722,0,0,0-.04785-.23145.18374.18374,0,0,0-.16211-.06885q-.18163,0-.37891.27344v.91113Z" transform="translate(0.06557 -0.07767)" style="fill: #fff"/>
      </g>
      <g style="clip-path: url(#clip-path-36)">
        <path d="M81.39861,153.24372v-.89682a.84913.84913,0,0,1,.123-.219c.04682-.05873.08735-.08773.12159-.08773a.062.062,0,0,1,.06359.04785.7427.7427,0,0,1,.01607.19213v.96352h.21174V152.344q.13311-.30667.24807-.30668a.05993.05993,0,0,1,.0601.04133.508.508,0,0,1,.01537.15515v1.00992h.21173v-1.02007a.64316.64316,0,0,0-.0559-.30885.19542.19542,0,0,0-.18169-.0957q-.17085,0-.29768.2929H81.9255q-.05136-.29254-.2313-.2929-.14046,0-.29559.2929v-.26173h-.21173v1.39345Z" transform="translate(0.06557 -0.07767)" style="fill: none;stroke: #000;stroke-miterlimit: 10;stroke-width: 0.17794425145676016px"/>
        <path d="M83.54894,151.21735h-.30188v.31682h.30188Zm-.03074,2.02637v-1.39345h-.72395v.19h.48286v1.2035Z" transform="translate(0.06557 -0.07767)" style="fill: none;stroke: #000;stroke-miterlimit: 10;stroke-width: 0.17794425145676016px"/>
        <path d="M84.55549,153.24372v-.91132q.1981-.273.37875-.27333a.1834.1834,0,0,1,.16212.06888.41468.41468,0,0,1,.04891.23127v.8845h.24039v-.95337q0-.47089-.37805-.47125a.50571.50571,0,0,0-.45212.2929v-.26173H84.3144v1.39345Z" transform="translate(0.06557 -0.07767)" style="fill: none;stroke: #000;stroke-miterlimit: 10;stroke-width: 0.17794425145676016px"/>
        <path d="M129.42038,152.22633a2.79707,2.79707,0,1,1-2.79518-2.9,2.84917,2.84917,0,0,1,2.79518,2.9" transform="translate(0.06557 -0.07767)" style="fill: #fff"/>
        <ellipse cx="126.69077" cy="152.14866" rx="2.79518" ry="2.9" style="fill: none;stroke: #000;stroke-miterlimit: 10;stroke-width: 0.3558885029135203px"/>
      </g>
      <g>
        <path d="M124.5127,153.24316v-1.39355h.21191v.26172q.15528-.293.2959-.29248c.12012,0,.19726.09717.23144.29248h.00879q.12744-.293.29785-.29248a.19455.19455,0,0,1,.18164.0957.64073.64073,0,0,1,.05567.30859v1.02H125.585V152.2334a.48891.48891,0,0,0-.0166-.15527.05859.05859,0,0,0-.05957-.04151c-.07617,0-.15918.10254-.24805.30713v.89941h-.21191v-.96386a.73606.73606,0,0,0-.01563-.1919.06291.06291,0,0,0-.06347-.04785c-.03418,0-.0752.0293-.12207.08789a.86458.86458,0,0,0-.12305.21875v.897Z" transform="translate(0.06557 -0.07767)" style="fill: #fff"/>
        <path d="M126.93066,153.0752a.66746.66746,0,0,1-.43652.19238.428.428,0,0,1-.30078-.10889.36238.36238,0,0,1-.11816-.27637.41018.41018,0,0,1,.18359-.34863.8093.8093,0,0,1,.48437-.13232h.14942v-.11963a.29077.29077,0,0,0-.0625-.21045.28446.28446,0,0,0-.207-.0625.89929.89929,0,0,0-.43262.12305v-.2168a1.36953,1.36953,0,0,1,.48145-.09619.49385.49385,0,0,1,.35742.105.50936.50936,0,0,1,.10449.36328v.584a.39707.39707,0,0,0,.02539.17139.10215.10215,0,0,0,.09668.04541.38429.38429,0,0,0,.07617-.01269l.02149.15136a.62785.62785,0,0,1-.18262.041A.23941.23941,0,0,1,126.93066,153.0752Zm-.03808-.16456v-.35156h-.07227q-.49512,0-.49511.28125a.21925.21925,0,0,0,.06347.16309.23192.23192,0,0,0,.16895.06152A.52424.52424,0,0,0,126.89258,152.91064Z" transform="translate(0.06557 -0.07767)" style="fill: #fff"/>
        <path d="M127.53125,153.24316l.49512-.70459-.49219-.689h.30078l.36817.51514.33691-.51514h.23828l-.45215.68848.50293.70507h-.30078l-.37988-.53271-.373.53271Z" transform="translate(0.06557 -0.07767)" style="fill: #fff"/>
      </g>
      <g style="clip-path: url(#clip-path-36)">
        <path d="M124.72426,153.24372v-.89682a.84942.84942,0,0,1,.123-.219c.04683-.05873.08735-.08773.1216-.08773a.062.062,0,0,1,.06359.04785.7427.7427,0,0,1,.01607.19213v.96352h.21174V152.344q.13311-.30667.24806-.30668a.05993.05993,0,0,1,.0601.04133.5076.5076,0,0,1,.01538.15515v1.00992h.21173v-1.02007a.64328.64328,0,0,0-.0559-.30885.19543.19543,0,0,0-.18169-.0957q-.17085,0-.29768.2929h-.00909q-.05136-.29254-.2313-.2929-.14046,0-.29559.2929v-.26173h-.21174v1.39345Z" transform="translate(0.06557 -0.07767)" style="fill: none;stroke: #000;stroke-miterlimit: 10;stroke-width: 0.17794425145676016px"/>
        <path d="M126.5565,153.06515a.23169.23169,0,0,1-.16911-.06162.21607.21607,0,0,1-.06289-.1624q0-.28167.49544-.2813h.072v.35162A.52951.52951,0,0,1,126.5565,153.06515Zm.61354.203a.63119.63119,0,0,0,.18308-.04132l-.02236-.15153a.35881.35881,0,0,1-.07547.013.102.102,0,0,1-.09713-.04567.39139.39139,0,0,1-.02585-.1711v-.58435a.51252.51252,0,0,0-.10412-.36323.49571.49571,0,0,0-.35709-.10512,1.38275,1.38275,0,0,0-.48147.09642v.2175a.89241.89241,0,0,1,.43325-.12325.28151.28151,0,0,1,.20615.06235.29183.29183,0,0,1,.06289.211v.1189h-.14954a.81313.81313,0,0,0-.48426.13195.41156.41156,0,0,0-.18309.34945.36115.36115,0,0,0,.1174.27622.42669.42669,0,0,0,.30048.10875.6631.6631,0,0,0,.43675-.19285A.23976.23976,0,0,0,127.17,153.26815Z" transform="translate(0.06557 -0.07767)" style="fill: none;stroke: #000;stroke-miterlimit: 10;stroke-width: 0.17794425145676016px"/>
        <polygon points="127.84 153.166 128.213 152.633 128.594 153.166 128.895 153.166 128.392 152.461 128.843 151.773 128.605 151.773 128.268 152.288 127.9 151.773 127.599 151.773 128.091 152.461 127.596 153.166 127.84 153.166" style="fill: none;stroke: #000;stroke-miterlimit: 10;stroke-width: 0.17794425145676016px"/>
      </g>
    </g>
  </g>
  <g id="Illustration_28-4" data-name="Illustration 28">
    <g style="clip-path: url(#clip-path-40)">
      <g style="clip-path: url(#clip-path-40)">
        <path d="M86.09507,222.22633a2.79707,2.79707,0,1,1-2.79518-2.9,2.84917,2.84917,0,0,1,2.79518,2.9" transform="translate(0.06557 -0.07767)" style="fill: #fff"/>
        <ellipse cx="83.36546" cy="222.14866" rx="2.79518" ry="2.9" style="fill: none;stroke: #000;stroke-miterlimit: 10;stroke-width: 0.3558885029135203px"/>
      </g>
      <g>
        <path d="M81.18652,223.24316v-1.39355h.21192v.26172q.15526-.293.2959-.293.18017,0,.23144.293h.00879q.12744-.293.29785-.293a.19546.19546,0,0,1,.18164.0957.64471.64471,0,0,1,.05567.3086v1.0205h-.21094V222.2334a.48891.48891,0,0,0-.0166-.15527.0582.0582,0,0,0-.05957-.041c-.07617,0-.15918.10156-.24805.30664v.89941h-.21191v-.96386a.732.732,0,0,0-.01563-.19141.06328.06328,0,0,0-.06348-.04883c-.03417,0-.07519.0293-.12207.08789a.87322.87322,0,0,0-.123.21875v.89746Z" transform="translate(0.06557 -0.07767)" style="fill: #fff"/>
        <path d="M83.27734,223.24316v-1.2041h-.48242v-.18945h.72363v1.39355Zm-.03027-1.709v-.31738h.30273v.31738Z" transform="translate(0.06557 -0.07767)" style="fill: #fff"/>
        <path d="M84.31445,223.24316v-1.39355h.24121v.26172a.50414.50414,0,0,1,.45215-.293q.37794,0,.37793.47168v.95312h-.24121v-.88378a.41882.41882,0,0,0-.04785-.23243.18594.18594,0,0,0-.16211-.06836q-.18163,0-.37891.27344v.91113Z" transform="translate(0.06557 -0.07767)" style="fill: #fff"/>
      </g>
      <g style="clip-path: url(#clip-path-40)">
        <path d="M81.39861,223.24372v-.89682a.84913.84913,0,0,1,.123-.219c.04682-.05873.08735-.08773.12159-.08773a.062.062,0,0,1,.06359.04785.7427.7427,0,0,1,.01607.19213v.96352h.21174V222.344q.13311-.30667.24807-.30668a.05993.05993,0,0,1,.0601.04133.508.508,0,0,1,.01537.15515v1.00992h.21173v-1.02007a.64316.64316,0,0,0-.0559-.30885.19542.19542,0,0,0-.18169-.0957q-.17085,0-.29768.2929H81.9255q-.05136-.29254-.2313-.2929-.14046,0-.29559.2929v-.26173h-.21173v1.39345Z" transform="translate(0.06557 -0.07767)" style="fill: none;stroke: #000;stroke-miterlimit: 10;stroke-width: 0.17794425145676016px"/>
        <path d="M83.54894,221.21735h-.30188v.31682h.30188Zm-.03074,2.02637v-1.39345h-.72395v.19h.48286v1.2035Z" transform="translate(0.06557 -0.07767)" style="fill: none;stroke: #000;stroke-miterlimit: 10;stroke-width: 0.17794425145676016px"/>
        <path d="M84.55549,223.24372v-.91132q.1981-.273.37875-.27333a.1834.1834,0,0,1,.16212.06888.41468.41468,0,0,1,.04891.23127v.8845h.24039v-.95337q0-.47089-.37805-.47125a.50571.50571,0,0,0-.45212.2929v-.26173H84.3144v1.39345Z" transform="translate(0.06557 -0.07767)" style="fill: none;stroke: #000;stroke-miterlimit: 10;stroke-width: 0.17794425145676016px"/>
        <path d="M129.42038,222.22633a2.79707,2.79707,0,1,1-2.79518-2.9,2.84917,2.84917,0,0,1,2.79518,2.9" transform="translate(0.06557 -0.07767)" style="fill: #fff"/>
        <ellipse cx="126.69077" cy="222.14866" rx="2.79518" ry="2.9" style="fill: none;stroke: #000;stroke-miterlimit: 10;stroke-width: 0.3558885029135203px"/>
      </g>
      <g>
        <path d="M124.5127,223.24316v-1.39355h.21191v.26172q.15528-.293.2959-.293.18018,0,.23144.293h.00879q.12744-.293.29785-.293a.19546.19546,0,0,1,.18164.0957.64471.64471,0,0,1,.05567.3086v1.0205H125.585V222.2334a.48891.48891,0,0,0-.0166-.15527.05819.05819,0,0,0-.05957-.041c-.07617,0-.15918.10156-.24805.30664v.89941h-.21191v-.96386a.73153.73153,0,0,0-.01563-.19141.06327.06327,0,0,0-.06347-.04883c-.03418,0-.0752.0293-.12207.08789a.87323.87323,0,0,0-.12305.21875v.89746Z" transform="translate(0.06557 -0.07767)" style="fill: #fff"/>
        <path d="M126.93066,223.0752a.66985.66985,0,0,1-.43652.19238.424.424,0,0,1-.30078-.10938.35956.35956,0,0,1-.11816-.27539.41308.41308,0,0,1,.18359-.34961.81266.81266,0,0,1,.48437-.13183h.14942v-.11914a.29132.29132,0,0,0-.0625-.21094.28231.28231,0,0,0-.207-.0625.89929.89929,0,0,0-.43262.12305v-.2168a1.3708,1.3708,0,0,1,.48145-.09668.49163.49163,0,0,1,.35742.10547.50936.50936,0,0,1,.10449.36328v.584a.39444.39444,0,0,0,.02539.1709.1024.1024,0,0,0,.09668.0459.351.351,0,0,0,.07617-.01269l.02149.15136a.62785.62785,0,0,1-.18262.041A.23989.23989,0,0,1,126.93066,223.0752Zm-.03808-.16407v-.35156h-.07227q-.49512,0-.49511.28027a.217.217,0,0,0,.06347.16309.23188.23188,0,0,0,.16895.06152A.52494.52494,0,0,0,126.89258,222.91113Z" transform="translate(0.06557 -0.07767)" style="fill: #fff"/>
        <path d="M127.53125,223.24316l.49512-.7041-.49219-.68945h.30078l.36817.51562.33691-.51562h.23828l-.45215.68848.50293.70507h-.30078l-.37988-.5332-.373.5332Z" transform="translate(0.06557 -0.07767)" style="fill: #fff"/>
      </g>
      <g style="clip-path: url(#clip-path-40)">
        <path d="M124.72426,223.24372v-.89682a.84942.84942,0,0,1,.123-.219c.04683-.05873.08735-.08773.1216-.08773a.062.062,0,0,1,.06359.04785.7427.7427,0,0,1,.01607.19213v.96352h.21174V222.344q.13311-.30667.24806-.30668a.05993.05993,0,0,1,.0601.04133.5076.5076,0,0,1,.01538.15515v1.00992h.21173v-1.02007a.64328.64328,0,0,0-.0559-.30885.19543.19543,0,0,0-.18169-.0957q-.17085,0-.29768.2929h-.00909q-.05136-.29254-.2313-.2929-.14046,0-.29559.2929v-.26173h-.21174v1.39345Z" transform="translate(0.06557 -0.07767)" style="fill: none;stroke: #000;stroke-miterlimit: 10;stroke-width: 0.17794425145676016px"/>
        <path d="M126.5565,223.06515a.23169.23169,0,0,1-.16911-.06162.21607.21607,0,0,1-.06289-.1624q0-.28167.49544-.2813h.072v.35162A.52951.52951,0,0,1,126.5565,223.06515Zm.61354.203a.63119.63119,0,0,0,.18308-.04132l-.02236-.15153a.35881.35881,0,0,1-.07547.013.102.102,0,0,1-.09713-.04567.39139.39139,0,0,1-.02585-.1711v-.58435a.51252.51252,0,0,0-.10412-.36323.49571.49571,0,0,0-.35709-.10512,1.38275,1.38275,0,0,0-.48147.09642v.2175a.89241.89241,0,0,1,.43325-.12325.28151.28151,0,0,1,.20615.06235.29183.29183,0,0,1,.06289.211v.1189h-.14954a.81313.81313,0,0,0-.48426.13195.41156.41156,0,0,0-.18309.34945.36115.36115,0,0,0,.1174.27622.42669.42669,0,0,0,.30048.10875.6631.6631,0,0,0,.43675-.19285A.23976.23976,0,0,0,127.17,223.26815Z" transform="translate(0.06557 -0.07767)" style="fill: none;stroke: #000;stroke-miterlimit: 10;stroke-width: 0.17794425145676016px"/>
        <polygon points="127.84 223.166 128.213 222.633 128.594 223.166 128.895 223.166 128.392 222.461 128.843 221.773 128.605 221.773 128.268 222.288 127.9 221.773 127.599 221.773 128.091 222.461 127.596 223.166 127.84 223.166" style="fill: none;stroke: #000;stroke-miterlimit: 10;stroke-width: 0.17794425145676016px"/>
      </g>
    </g>
  </g>
</svg>
