<svg id="Calque_1" data-name="Calque 1" xmlns="http://www.w3.org/2000/svg" xmlns:xlink="http://www.w3.org/1999/xlink" viewBox="0 0 179.79917 379.65486"><defs><clipPath id="clip-path" transform="translate(-0.21327 -0.34512)"><rect x="0.11285" y="0.17255" width="180" height="380" style="fill:none"/></clipPath><clipPath id="clip-path-2" transform="translate(-0.21327 -0.34512)"><rect x="0.53939" y="0.67124" width="179.14693" height="379.00262" style="fill:none"/></clipPath><linearGradient id="Dégradé_sans_nom" x1="31.5032" y1="380.40652" x2="32.50058" y2="380.40652" gradientTransform="translate(288197.26946 -23900.54825) rotate(90) scale(757.36707)" gradientUnits="userSpaceOnUse"><stop offset="0" stop-color="#2d4b76"/><stop offset="0.00392" stop-color="#2d4b76"/><stop offset="0.0837" stop-color="#243c5f"/><stop offset="0.21602" stop-color="#192841"/><stop offset="0.35478" stop-color="#101829"/><stop offset="0.50101" stop-color="#090d17"/><stop offset="0.65954" stop-color="#05060d"/><stop offset="0.85286" stop-color="#04040a"/><stop offset="1" stop-color="#04040a"/></linearGradient><clipPath id="clip-path-4" transform="translate(-0.21327 -0.34512)"><path d="M17.819,11.51958l1.13965.62a.41183.41183,0,0,1,.1414.11517l-1.13966-.62A.4118.4118,0,0,0,17.819,11.51958Z" style="fill:none"/></clipPath><clipPath id="clip-path-5" transform="translate(-0.21327 -0.34512)"><path d="M18.68742,12.609l-1.13967-.62c.26052-.03661.41089-.11616.44444-.23774l1.13965.62C19.0983,12.49284,18.94793,12.57239,18.68742,12.609Z" style="fill:none"/></clipPath><clipPath id="clip-path-6" transform="translate(-0.21327 -0.34512)"><path d="M18.17693,10.85674l1.13965.62a2.88392,2.88392,0,0,0-1.44795-.2331,22.48868,22.48868,0,0,0-2.36958.20831,26.245,26.245,0,0,0-4.37573,1.01627l-1.13967-.61995A26.24329,26.24329,0,0,1,14.35938,10.832a22.48915,22.48915,0,0,1,2.36959-.20832A2.88411,2.88411,0,0,1,18.17693,10.85674Z" style="fill:none"/></clipPath><clipPath id="clip-path-7" transform="translate(-0.21327 -0.34512)"><path d="M9.40439,15.251l-1.13966-.62a13.70006,13.70006,0,0,1,6.02946-2.58257,10.2293,10.2293,0,0,1,2.25608-.06857,4.51655,4.51655,0,0,0,.99748.00916l1.13967.62a4.51591,4.51591,0,0,1-.99749-.00915,10.2293,10.2293,0,0,0-2.25608.06857A13.70016,13.70016,0,0,0,9.40439,15.251Z" style="fill:none"/></clipPath><clipPath id="clip-path-8" transform="translate(-0.21327 -0.34512)"><path d="M8.06591,15.8367l-1.13968-.62a.55749.55749,0,0,0,.20769.00473A2.6751,2.6751,0,0,0,8.26473,14.631l1.13966.62a2.67491,2.67491,0,0,1-1.13081.59045A.55668.55668,0,0,1,8.06591,15.8367Z" style="fill:none"/></clipPath><clipPath id="clip-path-9" transform="translate(-0.21327 -0.34512)"><path d="M7.99691,15.80859l-1.13968-.62a.3446.3446,0,0,0,.069.02811l1.13965.62A.34434.34434,0,0,1,7.99691,15.80859Z" style="fill:none"/></clipPath><clipPath id="clip-path-10" transform="translate(-0.21327 -0.34512)"><path d="M10.48965,13.024l-1.13966-.62a9.42156,9.42156,0,0,1,.76125-4.55845l1.13966.62A9.42172,9.42172,0,0,0,10.48965,13.024Z" style="fill:none"/></clipPath><clipPath id="clip-path-11" transform="translate(-0.21327 -0.34512)"><path d="M7.63754,16.46692l-1.13967-.62a1.06921,1.06921,0,0,1-.48459-.62289l1.13967.62A1.06924,1.06924,0,0,0,7.63754,16.46692Z" style="fill:none"/></clipPath><clipPath id="clip-path-12" transform="translate(-0.21327 -0.34512)"><path d="M9.72345,7.09388l1.13966.62c.554.30137.46093.55292.38779.75171l-1.13966-.62C10.18438,7.64681,10.27746,7.39526,9.72345,7.09388Z" style="fill:none"/></clipPath><clipPath id="clip-path-13" transform="translate(-0.21327 -0.34512)"><path d="M7.153,15.844l-1.13967-.62c-.8282-2.51129-.37478-5.17672,1.35209-7.92609A2.25554,2.25554,0,0,1,8.9021,6.18579a1.78832,1.78832,0,0,1,.9477.13205l1.13966.62a1.78818,1.78818,0,0,0-.94769-.132A2.2555,2.2555,0,0,0,8.505,7.91793C6.77816,10.6673,6.32474,13.33273,7.153,15.844Z" style="fill:none"/></clipPath><clipPath id="clip-path-14" transform="translate(-0.21327 -0.34512)"><path d="M10.051,6.41913l1.13967.62c-.06775-.03687-.13551-.07041-.20124-.1013l-1.13966-.62C9.91553,6.34873,9.98329,6.38228,10.051,6.41913Z" style="fill:none"/></clipPath><clipPath id="clip-path-15" transform="translate(-0.21327 -0.34512)"><path d="M173.82494,11.51938l1.13965.62a.41014.41014,0,0,1,.1409.11481l-1.13966-.62A.41053.41053,0,0,0,173.82494,11.51938Z" style="fill:none"/></clipPath><clipPath id="clip-path-16" transform="translate(-0.21327 -0.34512)"><path d="M174.68408,12.613l-1.13967-.62c.26486-.03722.41561-.11918.44522-.2412l1.13967.62C175.09968,12.49386,174.94893,12.57582,174.68408,12.613Z" style="fill:none"/></clipPath><clipPath id="clip-path-17" transform="translate(-0.21327 -0.34512)"><path d="M173.68737,12.60041l-1.13966-.62a4.35826,4.35826,0,0,0,.9967.01262l1.13967.62A4.35788,4.35788,0,0,1,173.68737,12.60041Z" style="fill:none"/></clipPath><clipPath id="clip-path-18" transform="translate(-0.21327 -0.34512)"><path d="M174.17717,10.8564l1.13966.62a2.9,2.9,0,0,0-1.45075-.2322,22.48638,22.48638,0,0,0-2.36919.20826,26.11617,26.11617,0,0,0-4.36809,1.0152l-1.13967-.61995a26.11561,26.11561,0,0,1,4.3681-1.01522,22.48863,22.48863,0,0,1,2.36918-.20826A2.90029,2.90029,0,0,1,174.17717,10.8564Z" style="fill:none"/></clipPath><clipPath id="clip-path-19" transform="translate(-0.21327 -0.34512)"><path d="M165.40183,15.25155l-1.13966-.62a13.70031,13.70031,0,0,1,6.02949-2.58257,10.22845,10.22845,0,0,1,2.256-.06856l1.13966.62a10.22909,10.22909,0,0,0-2.256.06857A13.70031,13.70031,0,0,0,165.40183,15.25155Z" style="fill:none"/></clipPath><clipPath id="clip-path-20" transform="translate(-0.21327 -0.34512)"><path d="M164.07136,15.83614l-1.13967-.62a.50942.50942,0,0,0,.1965.00471,2.70856,2.70856,0,0,0,1.134-.58932l1.13966.62a2.70856,2.70856,0,0,1-1.134.58932A.50907.50907,0,0,1,164.07136,15.83614Z" style="fill:none"/></clipPath><clipPath id="clip-path-21" transform="translate(-0.21327 -0.34512)"><path d="M163.99206,15.80565l-1.13967-.61995a.33624.33624,0,0,0,.07931.03048l1.13966.62A.33614.33614,0,0,1,163.99206,15.80565Z" style="fill:none"/></clipPath><clipPath id="clip-path-22" transform="translate(-0.21327 -0.34512)"><path d="M166.49511,13.02345l-1.13967-.62a9.40581,9.40581,0,0,1,.75324-4.55733l1.13966.62A9.40568,9.40568,0,0,0,166.49511,13.02345Z" style="fill:none"/></clipPath><clipPath id="clip-path-23" transform="translate(-0.21327 -0.34512)"><path d="M163.63132,16.46347l-1.13966-.62a1.06168,1.06168,0,0,1-.48093-.61889l1.13966.62A1.06173,1.06173,0,0,0,163.63132,16.46347Z" style="fill:none"/></clipPath><clipPath id="clip-path-24" transform="translate(-0.21327 -0.34512)"><path d="M165.72089,7.09444l1.13965.62c.554.30136.461.55292.3878.7517l-1.13966-.62C166.18182,7.64737,166.2749,7.39582,165.72089,7.09444Z" style="fill:none"/></clipPath><clipPath id="clip-path-25" transform="translate(-0.21327 -0.34512)"><path d="M164.5025,7.91849l-1.13966-.62A2.27691,2.27691,0,0,1,164.905,6.18559a1.76419,1.76419,0,0,1,.94222.13281l1.13967.62a1.76424,1.76424,0,0,0-.94223-.13282A2.27692,2.27692,0,0,0,164.5025,7.91849Z" style="fill:none"/></clipPath><clipPath id="clip-path-26" transform="translate(-0.21327 -0.34512)"><path d="M166.06187,6.42542l1.13966.62c-.072-.03917-.14431-.07459-.21462-.107l-1.13967-.62C165.91756,6.35084,165.98988,6.38626,166.06187,6.42542Z" style="fill:none"/></clipPath><clipPath id="clip-path-27" transform="translate(-0.21327 -0.34512)"><path d="M163.15039,15.84459l-1.13966-.62c-.8282-2.51129-.37479-5.17672,1.35211-7.9261l1.13966.62C162.77561,10.66787,162.32219,13.3333,163.15039,15.84459Z" style="fill:none"/></clipPath></defs><title>QuadUtility</title><g id="Panel_14_HP" data-name="Panel 14 HP"><g style="clip-path:url(#clip-path)"><g style="clip-path:url(#clip-path-2)"><rect x="0.32612" y="0.32612" width="179.14692" height="379.00262" style="fill:url(#Dégradé_sans_nom)"/></g><g style="clip-path:url(#clip-path)"><rect x="0.32612" y="0.32612" width="179.14692" height="379.00262" style="fill:none;stroke:#000;stroke-miterlimit:10;stroke-width:0.652242839336395px"/></g></g></g><path d="M35.12354,5.6669a5.70587,5.70587,0,0,1,2.80517.7583,5.38128,5.38128,0,0,1,2.13867,2.168,6.03176,6.03176,0,0,1,.77344,2.94043,4.555,4.555,0,0,1-1.148,2.92236q1.11914-.00732,1.16943,1.46485A1.2875,1.2875,0,0,1,39.42188,17.393H35.12354a5.67048,5.67048,0,0,1-2.83741-.77246,5.37105,5.37105,0,0,1-2.11328-2.168,6.04374,6.04374,0,0,1,.01026-5.85938A5.31663,5.31663,0,0,1,32.311,6.4252,5.71887,5.71887,0,0,1,35.12354,5.6669ZM33.73,8.95938a2.66915,2.66915,0,0,0-1.06592,1.084A3.04629,3.04629,0,0,0,32.2793,11.519a3.012,3.012,0,0,0,.37793,1.45752,2.70863,2.70863,0,0,0,1.05859,1.084,2.7991,2.7991,0,0,0,2.84424,0,2.715,2.715,0,0,0,1.05859-1.084,3.009,3.009,0,0,0-.00732-2.9331,2.65911,2.65911,0,0,0-1.06934-1.084,2.80748,2.80748,0,0,0-2.812,0Z" transform="translate(-0.21327 -0.34512)" style="fill:#fff"/><path d="M43.7207,5.65225a1.262,1.262,0,0,1,1.43311,1.41358l-.00733,4.46045q.01466,2.92968,2.167,2.94433,2.13867-.022,2.13183-2.95166V7.1171a1.43019,1.43019,0,1,1,2.8584.00732v4.40186q-.00732,5.852-4.99023,5.852-5.01123.03662-5.01856-5.852V7.1171A1.28959,1.28959,0,0,1,43.7207,5.65225Z" transform="translate(-0.21327 -0.34512)" style="fill:#fff"/><path d="M55.105,17.38565a1.43172,1.43172,0,0,1-.70215-.187,1.32562,1.32562,0,0,1-.53076-.53809,1.5174,1.5174,0,0,1-.19238-.73974A35.87984,35.87984,0,0,1,55.811,11.13809q2.13134-4.40186,2.31689-4.75a1.33546,1.33546,0,0,1,.52734-.542,1.43,1.43,0,0,1,.71289-.19385,1.41235,1.41235,0,0,1,.70948.19385,1.367,1.367,0,0,1,.52734.542q.189.34863,2.33106,4.75a35.83863,35.83863,0,0,1,2.14209,4.78272,1.51741,1.51741,0,0,1-.19239.73974,1.31983,1.31983,0,0,1-.53467.53809,1.437,1.437,0,0,1-.69873.187ZM61.32129,14.434l-1.95313-4.12353L57.40771,14.434Z" transform="translate(-0.21327 -0.34512)" style="fill:#fff"/><path d="M67.92236,5.6669h4.27735q5.71.00732,5.71,5.85938-.00732,5.8374-5.56055,5.852H67.92236q-1.426.01464-1.42578-1.46485V7.13174A1.28555,1.28555,0,0,1,67.92236,5.6669Zm1.43262,2.937v5.8374h2.85889q2.83666.022,2.82275-2.937.01466-2.88574-2.83008-2.90039Z" transform="translate(-0.21327 -0.34512)" style="fill:#fff"/><path d="M87.91113,5.65225a1.26182,1.26182,0,0,1,1.43262,1.41358l-.00684,4.46045q.01466,2.92968,2.167,2.94433,2.13867-.022,2.13183-2.95166V7.1171a1.43019,1.43019,0,1,1,2.8584.00732v4.40186q-.00732,5.852-4.99023,5.852-5.01123.03662-5.01856-5.852V7.1171A1.28959,1.28959,0,0,1,87.91113,5.65225Z" transform="translate(-0.21327 -0.34512)" style="fill:#fff"/><path d="M99.28906,5.65225l7.21387.01465q1.333.022,1.34082,1.4209a1.31962,1.31962,0,0,1-1.44043,1.51611h-2.13184l.00782,7.3169a1.29365,1.29365,0,0,1-1.4336,1.45752,1.25751,1.25751,0,0,1-1.4248-1.4209l.00683-7.35352H99.28906a1.28126,1.28126,0,0,1-1.42578-1.47217A1.30425,1.30425,0,0,1,99.28906,5.65225Z" transform="translate(-0.21327 -0.34512)" style="fill:#fff"/><path d="M110.68066,5.6669A1.29948,1.29948,0,0,1,112.127,7.1171v8.80371a1.43019,1.43019,0,1,1-2.8584.00732V7.12442A1.26856,1.26856,0,0,1,110.68066,5.6669Z" transform="translate(-0.21327 -0.34512)" style="fill:#fff"/><path d="M114.9502,5.65225a1.30256,1.30256,0,0,1,1.44726,1.43555l-.01465,7.35351h5.667a1.29475,1.29475,0,0,1,1.44043,1.4795,1.28021,1.28021,0,0,1-1.41113,1.45752h-7.1289a1.26173,1.26173,0,0,1-1.42579-1.4209V7.13174A1.30426,1.30426,0,0,1,114.9502,5.65225Z" transform="translate(-0.21327 -0.34512)" style="fill:#fff"/><path d="M126.3418,5.6669a1.29949,1.29949,0,0,1,1.44629,1.4502v8.80371a1.43019,1.43019,0,1,1-2.8584.00732V7.12442A1.26855,1.26855,0,0,1,126.3418,5.6669Z" transform="translate(-0.21327 -0.34512)" style="fill:#fff"/><path d="M130.6123,5.65225l7.21387.01465q1.333.022,1.34082,1.4209a1.31962,1.31962,0,0,1-1.44043,1.51611h-2.13183l.00781,7.3169a1.29365,1.29365,0,0,1-1.43359,1.45752,1.25751,1.25751,0,0,1-1.42481-1.4209l.00684-7.35352H130.6123a1.28126,1.28126,0,0,1-1.42578-1.47217A1.30425,1.30425,0,0,1,130.6123,5.65225Z" transform="translate(-0.21327 -0.34512)" style="fill:#fff"/><path d="M142.03223,5.6376a1.45724,1.45724,0,0,1,1.07226.35889q.36036.35889,2.53418,3.06152,2.21045-2.74657,2.57031-3.10156a1.76751,1.76751,0,0,1,2.14551.01465,1.43432,1.43432,0,0,1,.35352,1.10937,1.94242,1.94242,0,0,1-.75586,1.4502l-2.916,3.501-.00683,3.88916a1.30593,1.30593,0,0,1-1.43262,1.45752q-1.41211.03662-1.41211-1.50147L144.1709,12.017l-2.8086-3.44238a1.9639,1.9639,0,0,1-.75585-1.45752,1.43593,1.43593,0,0,1,.35253-1.10987A1.46573,1.46573,0,0,1,142.03223,5.6376Z" transform="translate(-0.21327 -0.34512)" style="fill:#fff"/><path d="M98.17578,60.663a.878.878,0,0,1,.98926.9668v5.86914a.97712.97712,0,1,1-1.9541.00488V61.63467A.856.856,0,0,1,98.17578,60.663Z" transform="translate(-0.21327 -0.34512)" style="fill:#fff"/><path d="M101.22656,60.67276a1.19687,1.19687,0,0,1,.84766.40039l2.918,3.73047V61.52725a.7635.7635,0,0,1,.8291-.85449q1.0957.01466,1.10547.874l.00976,6.07422q-.00879.84009-1.11523.84961a1.00243,1.00243,0,0,1-.81445-.40039l-2.93262-3.7207V67.621a.75589.75589,0,0,1-.84766.84961q-1.10156.00513-1.10644-.85937V61.52237Q100.11573,60.67789,101.22656,60.67276Z" transform="translate(-0.21327 -0.34512)" style="fill:#fff"/><path d="M107.916,67.48428a.8646.8646,0,0,1,.97461-.98144h.50195l-.00488-3.88672a.83876.83876,0,0,1-.95508-.97168.8773.8773,0,0,1,.96484-.97168h.97949a.84745.84745,0,0,1,.96485.95215l-.00489,4.87793h.49219a.88951.88951,0,0,1,.9834,1.01074.83431.83431,0,0,1-.916.94727l-3.00585.00976A.87994.87994,0,0,1,107.916,67.48428Z" transform="translate(-0.21327 -0.34512)" style="fill:#fff"/><path d="M11.10205,60.663a.878.878,0,0,1,.98926.9668v5.86914a.88456.88456,0,0,1-.97949.99121.87744.87744,0,0,1-.97461-.98633V61.63467A.856.856,0,0,1,11.10205,60.663Z" transform="translate(-0.21327 -0.34512)" style="fill:#fff"/><path d="M14.15283,60.67276a1.19687,1.19687,0,0,1,.84766.40039l2.918,3.73047V61.52725a.7635.7635,0,0,1,.8291-.85449q1.09571.01466,1.10547.874l.00976,6.07422q-.00879.84009-1.11523.84961a1.00243,1.00243,0,0,1-.81445-.40039l-2.93262-3.7207V67.621a.75589.75589,0,0,1-.84766.84961q-1.10155.00513-1.10644-.85937V61.52237Q13.042,60.67789,14.15283,60.67276Z" transform="translate(-0.21327 -0.34512)" style="fill:#fff"/><path d="M67.19971,60.663a3.98056,3.98056,0,0,1,1.917.50538,3.6367,3.6367,0,0,1,1.46191,1.44531,3.92165,3.92165,0,0,1,.01465,3.90625A3.621,3.621,0,0,1,69.148,67.96524a3.92505,3.92505,0,0,1-3.8877,0,3.621,3.621,0,0,1-1.44531-1.44531,3.944,3.944,0,0,1,.00781-3.90625,3.58792,3.58792,0,0,1,1.45411-1.44531A3.98844,3.98844,0,0,1,67.19971,60.663Zm-.95313,2.19483a1.80188,1.80188,0,0,0-.72851.72265,1.996,1.996,0,0,0-.2627.98389,1.97242,1.97242,0,0,0,.25781.97168,1.82691,1.82691,0,0,0,.72364.72266,1.9554,1.9554,0,0,0,1.94433,0,1.82691,1.82691,0,0,0,.72364-.72266,1.967,1.967,0,0,0-.00489-1.95557,1.797,1.797,0,0,0-.73144-.72265,1.96174,1.96174,0,0,0-1.92188,0Z" transform="translate(-0.21327 -0.34512)" style="fill:#fff"/><path d="M73.07568,60.65323a.85267.85267,0,0,1,.9795.94238l-.00489,2.97363q.00879,1.95338,1.48145,1.9629,1.46045-.01466,1.45605-1.96778V61.62979a.97712.97712,0,1,1,1.9541.00488v2.93457q-.0044,3.90162-3.41015,3.90137-3.42627.02417-3.43067-3.90137V61.62979A.87.87,0,0,1,73.07568,60.65323Z" transform="translate(-0.21327 -0.34512)" style="fill:#fff"/><path d="M80.85205,60.65323l4.93066.00976a.83431.83431,0,0,1,.916.94727.88979.88979,0,0,1-.98437,1.01074H84.2583l.00488,4.87793a.8735.8735,0,0,1-.97949.97168.84937.84937,0,0,1-.97461-.94726L82.314,62.621H80.85205a.86461.86461,0,0,1-.97461-.98144A.87994.87994,0,0,1,80.85205,60.65323Z" transform="translate(-0.21327 -0.34512)" style="fill:#fff"/><path d="M157.19922,60.663a3.98056,3.98056,0,0,1,1.917.50538,3.63673,3.63673,0,0,1,1.46192,1.44531,3.92162,3.92162,0,0,1,.01464,3.90625,3.621,3.621,0,0,1-1.44531,1.44531,3.925,3.925,0,0,1-3.88769,0,3.621,3.621,0,0,1-1.44532-1.44531,3.944,3.944,0,0,1,.00782-3.90625,3.58783,3.58783,0,0,1,1.4541-1.44531A3.98844,3.98844,0,0,1,157.19922,60.663Zm-.95313,2.19483a1.80188,1.80188,0,0,0-.72851.72265,1.996,1.996,0,0,0-.2627.98389,1.97233,1.97233,0,0,0,.25782.97168,1.82682,1.82682,0,0,0,.72363.72266,1.9554,1.9554,0,0,0,1.94433,0,1.82691,1.82691,0,0,0,.72364-.72266,1.967,1.967,0,0,0-.00489-1.95557,1.797,1.797,0,0,0-.73144-.72265,1.96174,1.96174,0,0,0-1.92188,0Z" transform="translate(-0.21327 -0.34512)" style="fill:#fff"/><path d="M163.0752,60.65323a.85267.85267,0,0,1,.97949.94238l-.00489,2.97363q.00879,1.95338,1.48145,1.9629,1.46045-.01466,1.45605-1.96778V61.62979a.97713.97713,0,1,1,1.95411.00488v2.93457q-.00439,3.90162-3.41016,3.90137-3.42627.02417-3.43066-3.90137V61.62979A.87.87,0,0,1,163.0752,60.65323Z" transform="translate(-0.21327 -0.34512)" style="fill:#fff"/><path d="M170.85156,60.65323l4.93067.00976a.83431.83431,0,0,1,.916.94727.88979.88979,0,0,1-.98437,1.01074h-1.45606l.00489,4.87793a.87351.87351,0,0,1-.9795.97168.84937.84937,0,0,1-.97461-.94726l.00489-4.90235h-1.46192a.86461.86461,0,0,1-.97461-.98144A.87994.87994,0,0,1,170.85156,60.65323Z" transform="translate(-0.21327 -0.34512)" style="fill:#fff"/><path d="M127.2041,60.66251a.878.878,0,0,1,.98926.96679v5.86914a.97712.97712,0,1,1-1.9541.00489V61.63419A.856.856,0,0,1,127.2041,60.66251Z" transform="translate(-0.21327 -0.34512)" style="fill:#fff"/><path d="M130.25488,60.67227a1.19685,1.19685,0,0,1,.84766.40039l2.918,3.73047V61.52676a.7635.7635,0,0,1,.8291-.85449q1.0957.01466,1.10547.874l.00976,6.07421q-.00879.84009-1.11523.84961a1.0024,1.0024,0,0,1-.81445-.40039l-2.93262-3.7207v3.27148a.75589.75589,0,0,1-.84766.84961q-1.10156.00513-1.10644-.85937V61.52188Q129.144,60.67739,130.25488,60.67227Z" transform="translate(-0.21327 -0.34512)" style="fill:#fff"/><path d="M143.77539,64.56876a.85466.85466,0,0,1-.97461.97168l-3.90234-.00489q.00879.98145,1.457.98633l2.45019-.00976a.87311.87311,0,0,1,.96973.98144.8621.8621,0,0,1-.97461.97656h-2.43066q-3.42187-.00511-3.42578-3.90625a.86742.86742,0,0,1,.97461-.97656l3.90234.00488q0-.97632-1.44141-.97168h-2.45117a.89539.89539,0,0,1-.98437-.98632.87489.87489,0,0,1,.98437-.97168h2.43164Q143.77051,60.65738,143.77539,64.56876Z" transform="translate(-0.21327 -0.34512)" style="fill:#fff"/><path d="M98.17578,120.663a.878.878,0,0,1,.98926.9668v5.86914a.97712.97712,0,1,1-1.9541.00488v-5.86914A.856.856,0,0,1,98.17578,120.663Z" transform="translate(-0.21327 -0.34512)" style="fill:#fff"/><path d="M101.22656,120.67276a1.19687,1.19687,0,0,1,.84766.40039l2.918,3.73047v-3.27637a.7635.7635,0,0,1,.8291-.85449q1.0957.01466,1.10547.874l.00976,6.07422q-.00879.84009-1.11523.84961a1.00243,1.00243,0,0,1-.81445-.40039l-2.93262-3.7207V127.621a.75589.75589,0,0,1-.84766.84961q-1.10156.00513-1.10644-.85937v-6.08887Q100.11573,120.67789,101.22656,120.67276Z" transform="translate(-0.21327 -0.34512)" style="fill:#fff"/><path d="M107.916,127.48428a.8646.8646,0,0,1,.97461-.98144h.50195l-.00488-3.88672a.83876.83876,0,0,1-.95508-.97168.8773.8773,0,0,1,.96484-.97168h.97949a.84745.84745,0,0,1,.96485.95215l-.00489,4.87793h.49219a.88951.88951,0,0,1,.9834,1.01074.83431.83431,0,0,1-.916.94727l-3.00585.00976A.87994.87994,0,0,1,107.916,127.48428Z" transform="translate(-0.21327 -0.34512)" style="fill:#fff"/><path d="M157.19922,120.663a3.98056,3.98056,0,0,1,1.917.50538,3.63673,3.63673,0,0,1,1.46192,1.44531,3.92162,3.92162,0,0,1,.01464,3.90625,3.621,3.621,0,0,1-1.44531,1.44531,3.925,3.925,0,0,1-3.88769,0,3.621,3.621,0,0,1-1.44532-1.44531,3.944,3.944,0,0,1,.00782-3.90625,3.58783,3.58783,0,0,1,1.4541-1.44531A3.98844,3.98844,0,0,1,157.19922,120.663Zm-.95313,2.19483a1.80188,1.80188,0,0,0-.72851.72265,1.996,1.996,0,0,0-.2627.98389,1.97233,1.97233,0,0,0,.25782.97168,1.82682,1.82682,0,0,0,.72363.72266,1.9554,1.9554,0,0,0,1.94433,0,1.82691,1.82691,0,0,0,.72364-.72266,1.967,1.967,0,0,0-.00489-1.95557,1.797,1.797,0,0,0-.73144-.72265,1.96174,1.96174,0,0,0-1.92188,0Z" transform="translate(-0.21327 -0.34512)" style="fill:#fff"/><path d="M163.0752,120.65323a.85267.85267,0,0,1,.97949.94238l-.00489,2.97363q.00879,1.95338,1.48145,1.9629,1.46045-.01466,1.45605-1.96778v-2.93457a.97713.97713,0,1,1,1.95411.00488v2.93457q-.00439,3.90162-3.41016,3.90137-3.42627.02417-3.43066-3.90137v-2.93945A.87.87,0,0,1,163.0752,120.65323Z" transform="translate(-0.21327 -0.34512)" style="fill:#fff"/><path d="M170.85156,120.65323l4.93067.00976a.83431.83431,0,0,1,.916.94727.88979.88979,0,0,1-.98437,1.01074h-1.45606l.00489,4.87793a.87351.87351,0,0,1-.9795.97168.84937.84937,0,0,1-.97461-.94726l.00489-4.90235h-1.46192a.86461.86461,0,0,1-.97461-.98144A.87994.87994,0,0,1,170.85156,120.65323Z" transform="translate(-0.21327 -0.34512)" style="fill:#fff"/><path d="M127.2041,120.663a.878.878,0,0,1,.98926.9668v5.86914a.97712.97712,0,1,1-1.9541.00488v-5.86914A.856.856,0,0,1,127.2041,120.663Z" transform="translate(-0.21327 -0.34512)" style="fill:#fff"/><path d="M130.25488,120.67276a1.19685,1.19685,0,0,1,.84766.40039l2.918,3.73047v-3.27637a.7635.7635,0,0,1,.8291-.85449q1.0957.01466,1.10547.874l.00976,6.07422q-.00879.84009-1.11523.84961a1.00243,1.00243,0,0,1-.81445-.40039l-2.93262-3.7207V127.621a.75589.75589,0,0,1-.84766.84961q-1.10156.00513-1.10644-.85937v-6.08887Q129.144,120.67789,130.25488,120.67276Z" transform="translate(-0.21327 -0.34512)" style="fill:#fff"/><path d="M143.77539,124.56924a.85466.85466,0,0,1-.97461.97168l-3.90234-.00488q.00879.98145,1.457.98633l2.45019-.00977a.87312.87312,0,0,1,.96973.98145.8621.8621,0,0,1-.97461.97656h-2.43066q-3.42187-.00513-3.42578-3.90625a.86742.86742,0,0,1,.97461-.97656l3.90234.00488q0-.97632-1.44141-.97168h-2.45117a.89539.89539,0,0,1-.98437-.98633.8749.8749,0,0,1,.98437-.97168h2.43164Q143.77051,120.65788,143.77539,124.56924Z" transform="translate(-0.21327 -0.34512)" style="fill:#fff"/><path d="M98.17578,180.663a.878.878,0,0,1,.98926.9668v5.86914a.97712.97712,0,1,1-1.9541.00488v-5.86914A.856.856,0,0,1,98.17578,180.663Z" transform="translate(-0.21327 -0.34512)" style="fill:#fff"/><path d="M101.22656,180.67276a1.19687,1.19687,0,0,1,.84766.40039l2.918,3.73047v-3.27637a.7635.7635,0,0,1,.8291-.85449q1.0957.01466,1.10547.874l.00976,6.07422q-.00879.84009-1.11523.84961a1.00243,1.00243,0,0,1-.81445-.40039l-2.93262-3.7207V187.621a.75589.75589,0,0,1-.84766.84961q-1.10156.00513-1.10644-.85937v-6.08887Q100.11573,180.67789,101.22656,180.67276Z" transform="translate(-0.21327 -0.34512)" style="fill:#fff"/><path d="M107.916,187.48428a.8646.8646,0,0,1,.97461-.98144h.50195l-.00488-3.88672a.83876.83876,0,0,1-.95508-.97168.8773.8773,0,0,1,.96484-.97168h.97949a.84745.84745,0,0,1,.96485.95215l-.00489,4.87793h.49219a.88951.88951,0,0,1,.9834,1.01074.83431.83431,0,0,1-.916.94727l-3.00585.00976A.87994.87994,0,0,1,107.916,187.48428Z" transform="translate(-0.21327 -0.34512)" style="fill:#fff"/><path d="M157.19922,180.663a3.98056,3.98056,0,0,1,1.917.50538,3.63673,3.63673,0,0,1,1.46192,1.44531,3.92162,3.92162,0,0,1,.01464,3.90625,3.621,3.621,0,0,1-1.44531,1.44531,3.925,3.925,0,0,1-3.88769,0,3.621,3.621,0,0,1-1.44532-1.44531,3.944,3.944,0,0,1,.00782-3.90625,3.58783,3.58783,0,0,1,1.4541-1.44531A3.98844,3.98844,0,0,1,157.19922,180.663Zm-.95313,2.19483a1.80188,1.80188,0,0,0-.72851.72265,1.996,1.996,0,0,0-.2627.98389,1.97233,1.97233,0,0,0,.25782.97168,1.82682,1.82682,0,0,0,.72363.72266,1.9554,1.9554,0,0,0,1.94433,0,1.82691,1.82691,0,0,0,.72364-.72266,1.967,1.967,0,0,0-.00489-1.95557,1.797,1.797,0,0,0-.73144-.72265,1.96174,1.96174,0,0,0-1.92188,0Z" transform="translate(-0.21327 -0.34512)" style="fill:#fff"/><path d="M163.0752,180.65323a.85267.85267,0,0,1,.97949.94238l-.00489,2.97363q.00879,1.95337,1.48145,1.9629,1.46045-.01466,1.45605-1.96778v-2.93457a.97713.97713,0,1,1,1.95411.00488v2.93457q-.00439,3.90162-3.41016,3.90137-3.42627.02417-3.43066-3.90137v-2.93945A.87.87,0,0,1,163.0752,180.65323Z" transform="translate(-0.21327 -0.34512)" style="fill:#fff"/><path d="M170.85156,180.65323l4.93067.00976a.83431.83431,0,0,1,.916.94727.88979.88979,0,0,1-.98437,1.01074h-1.45606l.00489,4.87793a.87351.87351,0,0,1-.9795.97168.84937.84937,0,0,1-.97461-.94726l.00489-4.90235h-1.46192a.86461.86461,0,0,1-.97461-.98144A.87994.87994,0,0,1,170.85156,180.65323Z" transform="translate(-0.21327 -0.34512)" style="fill:#fff"/><path d="M127.2041,180.663a.878.878,0,0,1,.98926.9668v5.86914a.97712.97712,0,1,1-1.9541.00488v-5.86914A.856.856,0,0,1,127.2041,180.663Z" transform="translate(-0.21327 -0.34512)" style="fill:#fff"/><path d="M130.25488,180.67276a1.19685,1.19685,0,0,1,.84766.40039l2.918,3.73047v-3.27637a.7635.7635,0,0,1,.8291-.85449q1.0957.01466,1.10547.874l.00976,6.07422q-.00879.84009-1.11523.84961a1.00243,1.00243,0,0,1-.81445-.40039l-2.93262-3.7207V187.621a.75589.75589,0,0,1-.84766.84961q-1.10156.00513-1.10644-.85937v-6.08887Q129.144,180.67789,130.25488,180.67276Z" transform="translate(-0.21327 -0.34512)" style="fill:#fff"/><path d="M143.77539,184.56924a.85466.85466,0,0,1-.97461.97168l-3.90234-.00488q.00879.98145,1.457.98633l2.45019-.00977a.87312.87312,0,0,1,.96973.98145.8621.8621,0,0,1-.97461.97656h-2.43066q-3.42187-.00513-3.42578-3.90625a.86742.86742,0,0,1,.97461-.97656l3.90234.00488q0-.97632-1.44141-.97168h-2.45117a.89539.89539,0,0,1-.98437-.98633.8749.8749,0,0,1,.98437-.97168h2.43164Q143.77051,180.65788,143.77539,184.56924Z" transform="translate(-0.21327 -0.34512)" style="fill:#fff"/><path d="M54.8584,31.07608h-.01367l-.79.42725-.11914-.46924.99218-.53223h.52442v4.55225H54.8584Z" transform="translate(-0.21327 -0.34512)" style="fill:#fff;stroke:#fff;stroke-miterlimit:10;stroke-width:0.25px"/><path d="M56.23486,51.01993h-1.7334l-.1748,1.16943a2.472,2.472,0,0,1,.37012-.02783,1.91714,1.91714,0,0,1,.97851.24512,1.29817,1.29817,0,0,1,.65039,1.16943,1.57771,1.57771,0,0,1-1.6914,1.55518,2.21568,2.21568,0,0,1-1.13184-.28028l.15332-.46924a2.03168,2.03168,0,0,0,.97168.252,1.00289,1.00289,0,0,0,1.07617-.98731c-.00683-.58838-.39843-1.00879-1.30664-1.00879a4.70033,4.70033,0,0,0-.62988.04932l.29395-2.18506h2.17382Z" transform="translate(-0.21327 -0.34512)" style="fill:#fff;stroke:#fff;stroke-miterlimit:10;stroke-width:0.25px"/><path d="M42.59424,62.49454l-.66309.87549v.01416l1.05469-.14014v.47607l-1.05469-.126v.01416l.6709.84033-.44043.252-.41992-.98047H41.728l-.4541.9878-.39844-.25245.66406-.854v-.01416l-1.03418.13281v-.47607l1.02734.1333v-.01416l-.65722-.85449.42578-.24512.43359.97363h.01368l.42675-.98047Z" transform="translate(-0.21327 -0.34512)" style="fill:#fff;stroke:#fff;stroke-miterlimit:10;stroke-width:0.25px"/><path d="M48.00928,64.72891c0,1.54785-.57324,2.40235-1.58008,2.40235-.8877,0-1.48828-.8335-1.502-2.33936,0-1.52685.65625-2.36719,1.5791-2.36719C47.46338,62.42471,48.00928,63.27921,48.00928,64.72891Zm-2.46778.06983c0,1.18359.36329,1.856.92286,1.856.6289,0,.92968-.73535.92968-1.898,0-1.1206-.28711-1.85595-.92285-1.85595C45.93311,62.90079,45.5415,63.559,45.5415,64.79874Z" transform="translate(-0.21327 -0.34512)" style="fill:#fff;stroke:#fff;stroke-miterlimit:10;stroke-width:0.25px"/><path d="M48.62158,66.68985a.41393.41393,0,0,1,.41992-.44141.4422.4422,0,1,1-.41992.44141Z" transform="translate(-0.21327 -0.34512)" style="fill:#fff;stroke:#fff;stroke-miterlimit:10;stroke-width:0.25px"/><path d="M120.22461,63.328v1.646h1.5791v.42041h-1.5791v1.65967h-.44727V65.39444h-1.58007V64.974h1.58007V63.328Z" transform="translate(-0.21327 -0.34512)" style="fill:#fff;stroke:#fff;stroke-miterlimit:10;stroke-width:0.25px"/><path d="M120.22461,123.32852v1.646h1.5791v.42041h-1.5791v1.65967h-.44727v-1.65967h-1.58007v-.42041h1.58007v-1.646Z" transform="translate(-0.21327 -0.34512)" style="fill:#fff;stroke:#fff;stroke-miterlimit:10;stroke-width:0.25px"/><path d="M120.22461,183.32852v1.646h1.5791v.42041h-1.5791v1.65967h-.44727v-1.65967h-1.58007v-.42041h1.58007v-1.646Z" transform="translate(-0.21327 -0.34512)" style="fill:#fff;stroke:#fff;stroke-miterlimit:10;stroke-width:0.25px"/><path d="M120.22461,243.32852V244.974h1.5791v.4209h-1.5791v1.65918h-.44727v-1.65918h-1.58007v-.4209h1.58007v-1.64551Z" transform="translate(-0.21327 -0.34512)" style="fill:#fff;stroke:#fff;stroke-miterlimit:10;stroke-width:0.25px"/><path d="M42.59424,122.49454l-.66309.87549v.01416l1.05469-.14014v.47607l-1.05469-.126v.01416l.6709.84033-.44043.252-.41992-.98047H41.728l-.4541.9878-.39844-.25245.66406-.854v-.01416l-1.03418.13281v-.47607l1.02734.1333v-.01416l-.65722-.85449.42578-.24512.43359.97363h.01368l.42675-.98047Z" transform="translate(-0.21327 -0.34512)" style="fill:#fff;stroke:#fff;stroke-miterlimit:10;stroke-width:0.25px"/><path d="M48.00928,124.72891c0,1.54785-.57324,2.40235-1.58008,2.40235-.8877,0-1.48828-.8335-1.502-2.33936,0-1.52685.65625-2.36719,1.5791-2.36719C47.46338,122.42471,48.00928,123.27921,48.00928,124.72891Zm-2.46778.06983c0,1.18359.36329,1.856.92286,1.856.6289,0,.92968-.73535.92968-1.898,0-1.1206-.28711-1.85595-.92285-1.85595C45.93311,122.90079,45.5415,123.559,45.5415,124.79874Z" transform="translate(-0.21327 -0.34512)" style="fill:#fff;stroke:#fff;stroke-miterlimit:10;stroke-width:0.25px"/><path d="M48.62158,126.68985a.41393.41393,0,0,1,.41992-.44141.4422.4422,0,1,1-.41992.44141Z" transform="translate(-0.21327 -0.34512)" style="fill:#fff;stroke:#fff;stroke-miterlimit:10;stroke-width:0.25px"/><path d="M42.59424,182.495l-.66309.87548v.01416l1.05469-.14013v.47607l-1.05469-.126v.01416l.6709.84033-.44043.25195-.41992-.98047H41.728l-.4541.98779-.39844-.25244.66406-.854v-.01416l-1.03418.13281v-.47607l1.02734.1333v-.01416l-.65722-.85449.42578-.24512.43359.97363h.01368l.42675-.98047Z" transform="translate(-0.21327 -0.34512)" style="fill:#fff;stroke:#fff;stroke-miterlimit:10;stroke-width:0.25px"/><path d="M48.00928,184.7294c0,1.54785-.57324,2.40234-1.58008,2.40234-.8877,0-1.48828-.83349-1.502-2.33935,0-1.52686.65625-2.36719,1.5791-2.36719C47.46338,182.4252,48.00928,183.27969,48.00928,184.7294Zm-2.46778.06982c0,1.1836.36329,1.856.92286,1.856.6289,0,.92968-.73535.92968-1.898,0-1.1206-.28711-1.85595-.92285-1.85595C45.93311,182.90128,45.5415,183.55948,45.5415,184.79922Z" transform="translate(-0.21327 -0.34512)" style="fill:#fff;stroke:#fff;stroke-miterlimit:10;stroke-width:0.25px"/><path d="M48.62158,186.69034a.41393.41393,0,0,1,.41992-.44141.4422.4422,0,1,1-.41992.44141Z" transform="translate(-0.21327 -0.34512)" style="fill:#fff;stroke:#fff;stroke-miterlimit:10;stroke-width:0.25px"/><path d="M42.59424,242.49551l-.66309.875v.01465l1.05469-.14062v.47656l-1.05469-.126v.01368l.6709.84082-.44043.25195-.41992-.98047H41.728l-.4541.9873-.39844-.252.66406-.85449v-.01367l-1.03418.13281v-.47656l1.02734.13379v-.01465l-.65722-.85449.42578-.24512.43359.97363h.01368l.42675-.98047Z" transform="translate(-0.21327 -0.34512)" style="fill:#fff;stroke:#fff;stroke-miterlimit:10;stroke-width:0.25px"/><path d="M48.00928,244.72989c0,1.54785-.57324,2.40234-1.58008,2.40234-.8877,0-1.48828-.834-1.502-2.33984,0-1.52637.65625-2.36719,1.5791-2.36719C47.46338,242.4252,48.00928,243.27969,48.00928,244.72989Zm-2.46778.06933c0,1.1836.36329,1.85645.92286,1.85645.6289,0,.92968-.73535.92968-1.89844,0-1.12011-.28711-1.85547-.92285-1.85547C45.93311,242.90176,45.5415,243.56,45.5415,244.79922Z" transform="translate(-0.21327 -0.34512)" style="fill:#fff;stroke:#fff;stroke-miterlimit:10;stroke-width:0.25px"/><path d="M48.62158,246.69083a.41366.41366,0,0,1,.41992-.44141.4422.4422,0,0,1-.00781.88281A.4125.4125,0,0,1,48.62158,246.69083Z" transform="translate(-0.21327 -0.34512)" style="fill:#fff;stroke:#fff;stroke-miterlimit:10;stroke-width:0.25px"/><path d="M53.523,45.05411v-.37842l.48242-.46924C55.16553,43.1,55.689,42.51163,55.69678,41.82559a.81166.81166,0,0,0-.90235-.88965,1.54367,1.54367,0,0,0-.96386.38526l-.19532-.43457a1.98991,1.98991,0,0,1,1.28516-.46192A1.27939,1.27939,0,0,1,56.311,41.74844c0,.84034-.60743,1.51953-1.56543,2.44434l-.36329.33594v.01416h2.041v.51123Z" transform="translate(-0.21327 -0.34512)" style="fill:#fff;stroke:#fff;stroke-miterlimit:10;stroke-width:0.25px"/><path d="M11.10205,120.663a.878.878,0,0,1,.98926.9668v5.86914a.88456.88456,0,0,1-.97949.99121.87744.87744,0,0,1-.97461-.98633v-5.86914A.856.856,0,0,1,11.10205,120.663Z" transform="translate(-0.21327 -0.34512)" style="fill:#fff"/><path d="M14.15283,120.67276a1.19687,1.19687,0,0,1,.84766.40039l2.918,3.73047v-3.27637a.7635.7635,0,0,1,.8291-.85449q1.09571.01466,1.10547.874l.00976,6.07422q-.00879.84009-1.11523.84961a1.00243,1.00243,0,0,1-.81445-.40039l-2.93262-3.7207V127.621a.75589.75589,0,0,1-.84766.84961q-1.10155.00513-1.10644-.85937v-6.08887Q13.042,120.67789,14.15283,120.67276Z" transform="translate(-0.21327 -0.34512)" style="fill:#fff"/><path d="M67.19971,120.663a3.98056,3.98056,0,0,1,1.917.50538,3.6367,3.6367,0,0,1,1.46191,1.44531,3.92165,3.92165,0,0,1,.01465,3.90625,3.621,3.621,0,0,1-1.44531,1.44531,3.92505,3.92505,0,0,1-3.8877,0,3.621,3.621,0,0,1-1.44531-1.44531,3.944,3.944,0,0,1,.00781-3.90625,3.58792,3.58792,0,0,1,1.45411-1.44531A3.98844,3.98844,0,0,1,67.19971,120.663Zm-.95313,2.19483a1.80188,1.80188,0,0,0-.72851.72265,1.996,1.996,0,0,0-.2627.98389,1.97242,1.97242,0,0,0,.25781.97168,1.82691,1.82691,0,0,0,.72364.72266,1.9554,1.9554,0,0,0,1.94433,0,1.82691,1.82691,0,0,0,.72364-.72266,1.967,1.967,0,0,0-.00489-1.95557,1.797,1.797,0,0,0-.73144-.72265,1.96174,1.96174,0,0,0-1.92188,0Z" transform="translate(-0.21327 -0.34512)" style="fill:#fff"/><path d="M73.07568,120.65323a.85267.85267,0,0,1,.9795.94238l-.00489,2.97363q.00879,1.95338,1.48145,1.9629,1.46045-.01466,1.45605-1.96778v-2.93457a.97712.97712,0,1,1,1.9541.00488v2.93457q-.0044,3.90162-3.41015,3.90137-3.42627.02417-3.43067-3.90137v-2.93945A.87.87,0,0,1,73.07568,120.65323Z" transform="translate(-0.21327 -0.34512)" style="fill:#fff"/><path d="M80.85205,120.65323l4.93066.00976a.83431.83431,0,0,1,.916.94727.88979.88979,0,0,1-.98437,1.01074H84.2583l.00488,4.87793a.8735.8735,0,0,1-.97949.97168.84937.84937,0,0,1-.97461-.94726L82.314,122.621H80.85205a.86461.86461,0,0,1-.97461-.98144A.87994.87994,0,0,1,80.85205,120.65323Z" transform="translate(-0.21327 -0.34512)" style="fill:#fff"/><path d="M54.8584,91.07657h-.01367l-.79.42724-.11914-.46923.99218-.53223h.52442V95.0546H54.8584Z" transform="translate(-0.21327 -0.34512)" style="fill:#fff;stroke:#fff;stroke-miterlimit:10;stroke-width:0.25px"/><path d="M56.23486,111.02042h-1.7334l-.1748,1.16943a2.472,2.472,0,0,1,.37012-.02783,1.91714,1.91714,0,0,1,.97851.24512,1.29817,1.29817,0,0,1,.65039,1.16943,1.57771,1.57771,0,0,1-1.6914,1.55517,2.2157,2.2157,0,0,1-1.13184-.28027l.15332-.46924a2.03168,2.03168,0,0,0,.97168.252,1.00289,1.00289,0,0,0,1.07617-.98731c-.00683-.58838-.39843-1.00879-1.30664-1.00879a4.70033,4.70033,0,0,0-.62988.04932l.29395-2.18506h2.17382Z" transform="translate(-0.21327 -0.34512)" style="fill:#fff;stroke:#fff;stroke-miterlimit:10;stroke-width:0.25px"/><path d="M53.523,105.0546v-.37842l.48242-.46924c1.16016-1.10645,1.68359-1.69482,1.69141-2.38086a.81166.81166,0,0,0-.90235-.88965,1.54367,1.54367,0,0,0-.96386.38526l-.19532-.43457a1.98991,1.98991,0,0,1,1.28516-.46192,1.27939,1.27939,0,0,1,1.39063,1.32373c0,.84033-.60743,1.51953-1.56543,2.44434l-.36329.33594v.01416h2.041v.51123Z" transform="translate(-0.21327 -0.34512)" style="fill:#fff;stroke:#fff;stroke-miterlimit:10;stroke-width:0.25px"/><path d="M11.10205,180.663a.878.878,0,0,1,.98926.9668v5.86914a.88456.88456,0,0,1-.97949.99121.87744.87744,0,0,1-.97461-.98633v-5.86914A.856.856,0,0,1,11.10205,180.663Z" transform="translate(-0.21327 -0.34512)" style="fill:#fff"/><path d="M14.15283,180.67276a1.19687,1.19687,0,0,1,.84766.40039l2.918,3.73047v-3.27637a.7635.7635,0,0,1,.8291-.85449q1.09571.01466,1.10547.874l.00976,6.07422q-.00879.84009-1.11523.84961a1.00243,1.00243,0,0,1-.81445-.40039l-2.93262-3.7207V187.621a.75589.75589,0,0,1-.84766.84961q-1.10155.00513-1.10644-.85937v-6.08887Q13.042,180.67789,14.15283,180.67276Z" transform="translate(-0.21327 -0.34512)" style="fill:#fff"/><path d="M67.19971,180.663a3.98056,3.98056,0,0,1,1.917.50538,3.6367,3.6367,0,0,1,1.46191,1.44531,3.92165,3.92165,0,0,1,.01465,3.90625,3.621,3.621,0,0,1-1.44531,1.44531,3.92505,3.92505,0,0,1-3.8877,0,3.621,3.621,0,0,1-1.44531-1.44531,3.944,3.944,0,0,1,.00781-3.90625,3.58792,3.58792,0,0,1,1.45411-1.44531A3.98844,3.98844,0,0,1,67.19971,180.663Zm-.95313,2.19483a1.80188,1.80188,0,0,0-.72851.72265,1.996,1.996,0,0,0-.2627.98389,1.97242,1.97242,0,0,0,.25781.97168,1.82691,1.82691,0,0,0,.72364.72266,1.9554,1.9554,0,0,0,1.94433,0,1.82691,1.82691,0,0,0,.72364-.72266,1.967,1.967,0,0,0-.00489-1.95557,1.797,1.797,0,0,0-.73144-.72265,1.96174,1.96174,0,0,0-1.92188,0Z" transform="translate(-0.21327 -0.34512)" style="fill:#fff"/><path d="M73.07568,180.65323a.85267.85267,0,0,1,.9795.94238l-.00489,2.97363q.00879,1.95337,1.48145,1.9629,1.46045-.01466,1.45605-1.96778v-2.93457a.97712.97712,0,1,1,1.9541.00488v2.93457q-.0044,3.90162-3.41015,3.90137-3.42627.02417-3.43067-3.90137v-2.93945A.87.87,0,0,1,73.07568,180.65323Z" transform="translate(-0.21327 -0.34512)" style="fill:#fff"/><path d="M80.85205,180.65323l4.93066.00976a.83431.83431,0,0,1,.916.94727.88979.88979,0,0,1-.98437,1.01074H84.2583l.00488,4.87793a.8735.8735,0,0,1-.97949.97168.84937.84937,0,0,1-.97461-.94726L82.314,182.621H80.85205a.86461.86461,0,0,1-.97461-.98144A.87994.87994,0,0,1,80.85205,180.65323Z" transform="translate(-0.21327 -0.34512)" style="fill:#fff"/><path d="M54.8584,151.07657h-.01367l-.79.42724-.11914-.46923.99218-.53223h.52442v4.55225H54.8584Z" transform="translate(-0.21327 -0.34512)" style="fill:#fff;stroke:#fff;stroke-miterlimit:10;stroke-width:0.25px"/><path d="M56.23486,171.02042h-1.7334l-.1748,1.16943a2.472,2.472,0,0,1,.37012-.02783,1.91714,1.91714,0,0,1,.97851.24512,1.29817,1.29817,0,0,1,.65039,1.16943,1.57771,1.57771,0,0,1-1.6914,1.55517,2.2157,2.2157,0,0,1-1.13184-.28027l.15332-.46924a2.03168,2.03168,0,0,0,.97168.252,1.00289,1.00289,0,0,0,1.07617-.98731c-.00683-.58838-.39843-1.00879-1.30664-1.00879a4.70033,4.70033,0,0,0-.62988.04932l.29395-2.18506h2.17382Z" transform="translate(-0.21327 -0.34512)" style="fill:#fff;stroke:#fff;stroke-miterlimit:10;stroke-width:0.25px"/><path d="M53.523,165.0546v-.37842l.48242-.46924c1.16016-1.10645,1.68359-1.69482,1.69141-2.38086a.81166.81166,0,0,0-.90235-.88965,1.54367,1.54367,0,0,0-.96386.38526l-.19532-.43457a1.98991,1.98991,0,0,1,1.28516-.46192,1.27939,1.27939,0,0,1,1.39063,1.32373c0,.84033-.60743,1.51953-1.56543,2.44434l-.36329.33594v.01416h2.041v.51123Z" transform="translate(-0.21327 -0.34512)" style="fill:#fff;stroke:#fff;stroke-miterlimit:10;stroke-width:0.25px"/><path d="M11.10205,240.66348a.87758.87758,0,0,1,.98926.9668v5.86914a.88477.88477,0,0,1-.97949.99121.87765.87765,0,0,1-.97461-.98633v-5.86914A.85583.85583,0,0,1,11.10205,240.66348Z" transform="translate(-0.21327 -0.34512)" style="fill:#fff"/><path d="M14.15283,240.67325a1.19307,1.19307,0,0,1,.84766.40039l2.918,3.73047v-3.27637a.76328.76328,0,0,1,.8291-.85449q1.09571.01464,1.10547.874l.00976,6.07422q-.00879.83936-1.11523.84961a1.00379,1.00379,0,0,1-.81445-.40039L15.00049,244.35v3.27148a.75629.75629,0,0,1-.84766.84961q-1.10155.00439-1.10644-.85938v-6.08886Q13.042,240.67764,14.15283,240.67325Z" transform="translate(-0.21327 -0.34512)" style="fill:#fff"/><path d="M67.19971,240.66348a3.97992,3.97992,0,0,1,1.917.50489,3.63978,3.63978,0,0,1,1.46191,1.44531,3.92166,3.92166,0,0,1,.01465,3.90625,3.618,3.618,0,0,1-1.44531,1.44531,3.92181,3.92181,0,0,1-3.8877,0,3.618,3.618,0,0,1-1.44531-1.44531,3.944,3.944,0,0,1,.00781-3.90625,3.59092,3.59092,0,0,1,1.45411-1.44531A3.98782,3.98782,0,0,1,67.19971,240.66348Zm-.95313,2.19434a1.808,1.808,0,0,0-.72851.72265,1.99914,1.99914,0,0,0-.2627.98438,1.97516,1.97516,0,0,0,.25781.97168,1.83318,1.83318,0,0,0,.72364.72266,1.95547,1.95547,0,0,0,1.94433,0,1.83318,1.83318,0,0,0,.72364-.72266,1.96787,1.96787,0,0,0-.00489-1.95606,1.803,1.803,0,0,0-.73144-.72265,1.96508,1.96508,0,0,0-1.92188,0Z" transform="translate(-0.21327 -0.34512)" style="fill:#fff"/><path d="M73.07568,240.65372a.85247.85247,0,0,1,.9795.94238l-.00489,2.97363q.00879,1.95264,1.48145,1.96289,1.46045-.01464,1.45605-1.96777v-2.93457a.97712.97712,0,1,1,1.9541.00488v2.93457q-.0044,3.90089-3.41015,3.90137-3.42627.02343-3.43067-3.90137v-2.93945A.86983.86983,0,0,1,73.07568,240.65372Z" transform="translate(-0.21327 -0.34512)" style="fill:#fff"/><path d="M80.85205,240.65372l4.93066.00976a.83411.83411,0,0,1,.916.94727.88979.88979,0,0,1-.98437,1.01074H84.2583l.00488,4.87793a.87392.87392,0,0,1-.97949.97168.84957.84957,0,0,1-.97461-.94727l.00488-4.90234H80.85205a.86461.86461,0,0,1-.97461-.98144A.87973.87973,0,0,1,80.85205,240.65372Z" transform="translate(-0.21327 -0.34512)" style="fill:#fff"/><path d="M54.8584,211.07657h-.01367l-.79.42676-.11914-.46875.99218-.53223h.52442v4.55176H54.8584Z" transform="translate(-0.21327 -0.34512)" style="fill:#fff;stroke:#fff;stroke-miterlimit:10;stroke-width:0.25px"/><path d="M56.23486,231.01993h-1.7334l-.1748,1.16992a2.46171,2.46171,0,0,1,.37012-.02832,1.91714,1.91714,0,0,1,.97851.24512,1.299,1.299,0,0,1,.65039,1.16992,1.57734,1.57734,0,0,1-1.6914,1.55469,2.21075,2.21075,0,0,1-1.13184-.28028l.15332-.46875a2.03731,2.03731,0,0,0,.97168.252,1.00289,1.00289,0,0,0,1.07617-.98731c-.00683-.58887-.39843-1.00879-1.30664-1.00879a4.79482,4.79482,0,0,0-.62988.04883l.29395-2.18457h2.17382Z" transform="translate(-0.21327 -0.34512)" style="fill:#fff;stroke:#fff;stroke-miterlimit:10;stroke-width:0.25px"/><path d="M53.523,225.05411v-.37793l.48242-.46973c1.16016-1.10644,1.68359-1.69433,1.69141-2.38086a.81186.81186,0,0,0-.90235-.88965,1.54115,1.54115,0,0,0-.96386.38575l-.19532-.43457a1.98725,1.98725,0,0,1,1.28516-.46192,1.279,1.279,0,0,1,1.39063,1.32324c0,.84082-.60743,1.51953-1.56543,2.44434l-.36329.33594v.01465h2.041v.51074Z" transform="translate(-0.21327 -0.34512)" style="fill:#fff;stroke:#fff;stroke-miterlimit:10;stroke-width:0.25px"/><rect x="22.28673" y="78.15527" width="45" height="3" rx="1.5" style="fill:#fff;stroke:#010000;stroke-miterlimit:10;stroke-width:2px"/><rect x="112.28673" y="78.15527" width="45" height="3" rx="1.5" style="fill:#fff;stroke:#010000;stroke-miterlimit:10;stroke-width:2px"/><g style="isolation:isolate"><polygon points="18.919 12.026 17.779 11.406 17.747 11.29 18.887 11.91 18.919 12.026" style="fill:gray"/><g style="isolation:isolate"><g style="clip-path:url(#clip-path-4)"><g style="isolation:isolate"><path d="M19.1,12.25473l-1.13966-.62a.4119.4119,0,0,0-.14139-.11519l1.13966.62a.41213.41213,0,0,1,.14139.11519" transform="translate(-0.21327 -0.34512)" style="fill:#858585"/></g></g></g><g style="isolation:isolate"><g style="clip-path:url(#clip-path-5)"><g style="isolation:isolate"><path d="M18.68742,12.609l-1.13967-.62a1.00984,1.00984,0,0,0,.28509-.07586l1.13966.62a1.00988,1.00988,0,0,1-.28508.07585" transform="translate(-0.21327 -0.34512)" style="fill:#a8a8a8"/><path d="M18.9725,12.53315l-1.13966-.62a.43725.43725,0,0,0,.06231-.03543l1.13966.62a.43767.43767,0,0,1-.06231.03543" transform="translate(-0.21327 -0.34512)" style="fill:#a3a3a3"/><path d="M19.03481,12.49772l-1.13966-.62a.316.316,0,0,0,.03148-.02474l1.13966.62a.31489.31489,0,0,1-.03148.02474" transform="translate(-0.21327 -0.34512)" style="fill:#9e9e9e"/><path d="M19.06629,12.473l-1.13966-.62.021-.0211,1.13966.62-.021.02111" transform="translate(-0.21327 -0.34512)" style="fill:#999"/><path d="M19.0873,12.45187l-1.13966-.62.01568-.01985,1.13966.62-.01568.01984" transform="translate(-0.21327 -0.34512)" style="fill:#949494"/><path d="M19.103,12.432l-1.13966-.62.01283-.02078,1.13966.62L19.103,12.432" transform="translate(-0.21327 -0.34512)" style="fill:#8f8f8f"/><path d="M19.11581,12.41125l-1.13966-.62.01129-.02515,1.13967.62-.0113.02516" transform="translate(-0.21327 -0.34512)" style="fill:#8a8a8a"/><path d="M19.12711,12.38609l-1.13967-.62.00475-.01483,1.13966.62-.00474.01482" transform="translate(-0.21327 -0.34512)" style="fill:#858585"/></g></g></g><g style="isolation:isolate"><g style="clip-path:url(#clip-path-6)"><g style="isolation:isolate"><path d="M11.12332,12.4682l-1.13966-.62A26.24389,26.24389,0,0,1,14.35938,10.832a22.48915,22.48915,0,0,1,2.36959-.20832,3.793,3.793,0,0,1,1.07.08881l1.13967.62a3.7927,3.7927,0,0,0-1.07-.08881,22.48868,22.48868,0,0,0-2.36958.20831,26.245,26.245,0,0,0-4.37573,1.01627" transform="translate(-0.21327 -0.34512)" style="fill:#a8a8a8"/><path d="M18.93867,11.33243l-1.13967-.62a1.72645,1.72645,0,0,1,.32884.1189l1.13966.62a1.7266,1.7266,0,0,0-.32883-.11889" transform="translate(-0.21327 -0.34512)" style="fill:#a3a3a3"/><path d="M19.2675,11.45132l-1.13966-.62q.02511.01233.04909.02538l1.13967.62q-.024-.013-.0491-.02538" transform="translate(-0.21327 -0.34512)" style="fill:#9e9e9e"/></g></g></g><g style="isolation:isolate"><g style="clip-path:url(#clip-path-7)"><g style="isolation:isolate"><path d="M9.40439,15.251l-1.13966-.62q.12226-.08748.2446-.17212l1.13966.62q-.12233.08466-.2446.17213" transform="translate(-0.21327 -0.34512)" style="fill:#9e9e9e"/><path d="M9.649,15.07886l-1.13966-.62a16.29246,16.29246,0,0,1,2.31688-1.34736l1.13966.62A16.29292,16.29292,0,0,0,9.649,15.07886" transform="translate(-0.21327 -0.34512)" style="fill:#a3a3a3"/><path d="M11.96587,13.73151l-1.13966-.62a12.062,12.062,0,0,1,3.468-1.06309,10.2293,10.2293,0,0,1,2.25608-.06857,4.51655,4.51655,0,0,0,.99748.00916l1.13967.62a4.51591,4.51591,0,0,1-.99749-.00915,10.2293,10.2293,0,0,0-2.25608.06857,12.06165,12.06165,0,0,0-3.468,1.06309" transform="translate(-0.21327 -0.34512)" style="fill:#a8a8a8"/></g></g></g><polygon points="10.316 13.054 9.176 12.434 9.137 12.059 10.276 12.679 10.316 13.054" style="fill:gray"/><g style="isolation:isolate"><g style="clip-path:url(#clip-path-8)"><g style="isolation:isolate"><path d="M8.06591,15.8367l-1.13966-.62a.5571.5571,0,0,0,.20767.00474,1.42815,1.42815,0,0,0,.40331-.132l1.13967.62a1.42778,1.42778,0,0,1-.40332.132.55668.55668,0,0,1-.20767-.00474" transform="translate(-0.21327 -0.34512)" style="fill:#a8a8a8"/><path d="M8.6769,15.70946l-1.13967-.62a3.68674,3.68674,0,0,0,.51743-.30631l1.13967.62a3.68849,3.68849,0,0,1-.51743.30632" transform="translate(-0.21327 -0.34512)" style="fill:#a3a3a3"/><path d="M9.19433,15.40314l-1.13967-.62q.09982-.06909.21007-.15216l1.13966.62q-.11032.08328-.21006.15215" transform="translate(-0.21327 -0.34512)" style="fill:#9e9e9e"/></g></g></g><g style="isolation:isolate"><g style="clip-path:url(#clip-path-9)"><g style="isolation:isolate"><path d="M7.99691,15.80859l-1.13967-.62.012.00621,1.13967.62-.012-.00622" transform="translate(-0.21327 -0.34512)" style="fill:#9e9e9e"/><path d="M8.00893,15.81481l-1.13967-.62a.35023.35023,0,0,0,.057.0219l1.13966.62a.34877.34877,0,0,1-.057-.02189" transform="translate(-0.21327 -0.34512)" style="fill:#a3a3a3"/></g></g></g><g style="isolation:isolate"><g style="clip-path:url(#clip-path-10)"><g style="isolation:isolate"><path d="M10.48965,13.024l-1.13966-.62A9.1678,9.1678,0,0,1,9.9469,8.26881l1.13967.62a9.16793,9.16793,0,0,0-.59692,4.13524" transform="translate(-0.21327 -0.34512)" style="fill:#858585"/><path d="M11.08657,8.88878l-1.13967-.62q.07745-.21062.16434-.42321l1.13966.62q-.08689.21258-.16433.42322" transform="translate(-0.21327 -0.34512)" style="fill:#8a8a8a"/></g></g></g><g style="isolation:isolate"><g style="clip-path:url(#clip-path-11)"><g style="isolation:isolate"><path d="M7.63754,16.46692l-1.13966-.62a1.06918,1.06918,0,0,1-.4846-.62289l1.13967.62a1.06924,1.06924,0,0,0,.48459.62289" transform="translate(-0.21327 -0.34512)" style="fill:#858585"/></g></g></g><g style="isolation:isolate"><g style="clip-path:url(#clip-path-12)"><g style="isolation:isolate"><polyline points="11.038 8.12 9.898 7.5 9.898 7.5 11.038 8.12 11.038 8.12" style="fill:#8a8a8a"/><path d="M11.25111,8.465l-1.13967-.62c.07311-.1987.16549-.45006-.388-.75115l1.13966.62c.55349.30109.46111.55245.388.75115" transform="translate(-0.21327 -0.34512)" style="fill:#858585"/></g></g></g><g style="isolation:isolate"><g style="clip-path:url(#clip-path-13)"><g style="isolation:isolate"><path d="M7.153,15.844l-1.13967-.62a8.26,8.26,0,0,1,.17451-5.566l1.13967.62A8.26,8.26,0,0,0,7.153,15.844" transform="translate(-0.21327 -0.34512)" style="fill:#858585"/><path d="M7.32746,10.278l-1.13967-.62a11.89109,11.89109,0,0,1,.69379-1.53051l1.13967.62A11.889,11.889,0,0,0,7.32746,10.278" transform="translate(-0.21327 -0.34512)" style="fill:#8a8a8a"/><path d="M8.02125,8.74747l-1.13967-.62q.22245-.41343.48379-.82954.038-.059.07726-.115l1.13966.62q-.03927.056-.07725.115-.26135.41609-.48379.82954" transform="translate(-0.21327 -0.34512)" style="fill:#8f8f8f"/><path d="M8.58229,7.803l-1.13966-.62a3.12964,3.12964,0,0,1,.21581-.27468l1.13966.62a3.13261,3.13261,0,0,0-.21581.27468" transform="translate(-0.21327 -0.34512)" style="fill:#949494"/><path d="M8.7981,7.52827l-1.13966-.62A2.67936,2.67936,0,0,1,7.874,6.69l1.13966.62a2.68085,2.68085,0,0,0-.21558.21827" transform="translate(-0.21327 -0.34512)" style="fill:#999"/><path d="M9.01368,7.31,7.874,6.69a2.3243,2.3243,0,0,1,.23259-.18445l1.13967.62a2.3204,2.3204,0,0,0-.2326.18445" transform="translate(-0.21327 -0.34512)" style="fill:#9e9e9e"/><path d="M9.24628,7.12555l-1.13967-.62a2.02484,2.02484,0,0,1,.28769-.16653l1.13966.62a2.02227,2.02227,0,0,0-.28768.16653" transform="translate(-0.21327 -0.34512)" style="fill:#a3a3a3"/><path d="M9.534,6.959l-1.13966-.62a1.7629,1.7629,0,0,1,.5078-.15326,1.73114,1.73114,0,0,1,.67965.0413l1.13966.62a1.73128,1.73128,0,0,0-.67964-.04129A1.76265,1.76265,0,0,0,9.534,6.959" transform="translate(-0.21327 -0.34512)" style="fill:#a8a8a8"/><path d="M10.72141,6.84705l-1.13966-.62a1.98652,1.98652,0,0,1,.26805.09075l1.13966.62a1.988,1.988,0,0,0-.268-.09076" transform="translate(-0.21327 -0.34512)" style="fill:#a3a3a3"/></g></g></g><g style="isolation:isolate"><g style="clip-path:url(#clip-path-14)"><g style="isolation:isolate"><path d="M10.98946,6.93781l-1.13966-.62q.036.01694.07274.03495l1.13967.62q-.03669-.018-.07275-.03494" transform="translate(-0.21327 -0.34512)" style="fill:#a3a3a3"/><path d="M11.06221,6.97275l-1.13967-.62c.04249.02089.0855.043.12849.06634l1.13967.62c-.043-.02339-.086-.04545-.12849-.06635" transform="translate(-0.21327 -0.34512)" style="fill:#9e9e9e"/></g></g></g><path d="M19.64553,11.7545a.861.861,0,0,1,.12682.70827,1.1873,1.1873,0,0,1-1.114.8753,4.86169,4.86169,0,0,1-1.10594-.01012,9.602,9.602,0,0,0-2.12085.06435,12.998,12.998,0,0,0-5.70795,2.44483,3.4048,3.4048,0,0,1-1.45087.72252,1.16386,1.16386,0,0,1-.44041-.01587A.99.99,0,0,1,7.153,15.844c-.82821-2.5113-.37479-5.17673,1.35209-7.9261a2.2555,2.2555,0,0,1,1.53673-1.11217,1.78818,1.78818,0,0,1,.94769.132c.5521.25948,1.248.70626.86968,1.72751a8.95219,8.95219,0,0,0-.73582,3.80288,26.245,26.245,0,0,1,4.37573-1.01627,22.48868,22.48868,0,0,1,2.36958-.20831C18.78164,11.21038,19.37393,11.38647,19.64553,11.7545Zm-.95811.8545c.26051-.03661.41088-.11616.44443-.23773L19.1,12.25473c-.1118-.15716-.51193-.30837-1.2968-.2845a21.8236,21.8236,0,0,0-2.32532.20286,25.2693,25.2693,0,0,0-4.59631,1.107l-.35258.11873-.03935-.37479a9.42172,9.42172,0,0,1,.76125-4.55846c.08049-.21876.18512-.50142-.575-.84405a1.22142,1.22142,0,0,0-.64048-.10015,1.48094,1.48094,0,0,0-1.00245.75458c-1.60642,2.55955-2.01124,4.93294-1.25473,7.23819.08763.23837.20766.29927.2877.32257a.55668.55668,0,0,0,.20767.00474A2.67491,2.67491,0,0,0,9.40439,15.251a13.70016,13.70016,0,0,1,6.02946-2.58257,10.2293,10.2293,0,0,1,2.25608-.06857,4.51591,4.51591,0,0,0,.99749.00915" transform="translate(-0.21327 -0.34512)" style="fill:#dfdfdf"/></g><circle cx="11.78673" cy="11.65488" r="7.5" style="fill:none;stroke:#fff;stroke-miterlimit:10;stroke-width:0.75px"/><g style="isolation:isolate"><polygon points="174.916 12.027 173.776 11.407 173.753 11.289 174.892 11.909 174.916 12.027" style="fill:gray"/><g style="isolation:isolate"><g style="clip-path:url(#clip-path-15)"><g style="isolation:isolate"><path d="M175.10549,12.25417l-1.13966-.62a.41073.41073,0,0,0-.14089-.11482l1.13966.62a.41031.41031,0,0,1,.14089.11482" transform="translate(-0.21327 -0.34512)" style="fill:#858585"/></g></g></g><g style="isolation:isolate"><g style="clip-path:url(#clip-path-16)"><g style="isolation:isolate"><path d="M174.68408,12.613l-1.13967-.62a1.012,1.012,0,0,0,.28559-.076l1.13967.62a1.01276,1.01276,0,0,1-.28559.07605" transform="translate(-0.21327 -0.34512)" style="fill:#a8a8a8"/><path d="M174.96967,12.537l-1.13967-.62a.43884.43884,0,0,0,.06232-.03539l1.13966.62a.43817.43817,0,0,1-.06231.0354" transform="translate(-0.21327 -0.34512)" style="fill:#a3a3a3"/><path d="M175.032,12.50159l-1.13966-.62a.316.316,0,0,0,.0315-.02472l1.13966.62a.3145.3145,0,0,1-.0315.02471" transform="translate(-0.21327 -0.34512)" style="fill:#9e9e9e"/><path d="M175.06348,12.47688l-1.13966-.62.02094-.021,1.13966.62-.02094.021" transform="translate(-0.21327 -0.34512)" style="fill:#999"/><path d="M175.08442,12.45584l-1.13966-.62.01537-.01946,1.13967.62-.01538.01946" transform="translate(-0.21327 -0.34512)" style="fill:#949494"/><path d="M175.0998,12.43638l-1.13967-.62.01256-.02035,1.13967.62-.01256.02036" transform="translate(-0.21327 -0.34512)" style="fill:#8f8f8f"/><path d="M175.11236,12.416l-1.13967-.62.01088-.0242,1.13966.62-.01087.0242" transform="translate(-0.21327 -0.34512)" style="fill:#8a8a8a"/><path d="M175.12323,12.39182l-1.13966-.62.00606-.02,1.13967.62-.00607.02" transform="translate(-0.21327 -0.34512)" style="fill:#858585"/></g></g></g><g style="isolation:isolate"><g style="clip-path:url(#clip-path-17)"><g style="isolation:isolate"><path d="M173.68737,12.60041l-1.13966-.62a4.35826,4.35826,0,0,0,.9967.01262l1.13967.62a4.35788,4.35788,0,0,1-.99671-.01263" transform="translate(-0.21327 -0.34512)" style="fill:#a8a8a8"/></g></g></g><g style="isolation:isolate"><g style="clip-path:url(#clip-path-18)"><g style="isolation:isolate"><path d="M167.1288,12.46764l-1.13967-.62a26.11749,26.11749,0,0,1,4.3681-1.0152,22.48863,22.48863,0,0,1,2.36918-.20826,3.81779,3.81779,0,0,1,1.07562.08914l1.13967.62a3.81746,3.81746,0,0,0-1.07562-.08914,22.48638,22.48638,0,0,0-2.36919.20826,26.11617,26.11617,0,0,0-4.36809,1.0152" transform="translate(-0.21327 -0.34512)" style="fill:#a8a8a8"/><path d="M174.9417,11.33332l-1.13967-.62a1.71617,1.71617,0,0,1,.32674.118l1.13967.62a1.71574,1.71574,0,0,0-.32674-.118" transform="translate(-0.21327 -0.34512)" style="fill:#a3a3a3"/><path d="M175.26844,11.45135l-1.13967-.62q.02478.01216.0484.025l1.13966.62q-.02363-.01285-.04839-.025" transform="translate(-0.21327 -0.34512)" style="fill:#9e9e9e"/></g></g></g><g style="isolation:isolate"><g style="clip-path:url(#clip-path-19)"><g style="isolation:isolate"><path d="M165.40183,15.25155l-1.13966-.62q.12225-.08745.24455-.17208l1.13966.62q-.12229.08463-.24455.17208" transform="translate(-0.21327 -0.34512)" style="fill:#9e9e9e"/><path d="M165.64638,15.07947l-1.13966-.62a16.29285,16.29285,0,0,1,2.31694-1.34739l1.13966.62a16.2939,16.2939,0,0,0-2.31694,1.3474" transform="translate(-0.21327 -0.34512)" style="fill:#a3a3a3"/><path d="M167.96332,13.73207l-1.13966-.62a12.06211,12.06211,0,0,1,3.468-1.0631,10.22845,10.22845,0,0,1,2.256-.06856l1.13966.62a10.22909,10.22909,0,0,0-2.256.06857,12.06186,12.06186,0,0,0-3.468,1.06309" transform="translate(-0.21327 -0.34512)" style="fill:#a8a8a8"/></g></g></g><polygon points="166.321 13.053 165.182 12.433 165.142 12.058 166.282 12.678 166.321 13.053" style="fill:gray"/><g style="isolation:isolate"><g style="clip-path:url(#clip-path-20)"><g style="isolation:isolate"><path d="M164.07136,15.83614l-1.13966-.62a.50911.50911,0,0,0,.19649.00472,1.44885,1.44885,0,0,0,.40766-.13388l1.13967.62a1.44888,1.44888,0,0,1-.40767.13389.50907.50907,0,0,1-.19649-.00473" transform="translate(-0.21327 -0.34512)" style="fill:#a8a8a8"/><path d="M164.67552,15.707l-1.13967-.62a3.77652,3.77652,0,0,0,.52981-.31358l1.13966.62a3.77551,3.77551,0,0,1-.5298.31358" transform="translate(-0.21327 -0.34512)" style="fill:#a3a3a3"/><path d="M165.20532,15.3934l-1.13966-.62q.09379-.06491.19651-.14186l1.13966.62q-.10277.0771-.19651.14185" transform="translate(-0.21327 -0.34512)" style="fill:#9e9e9e"/></g></g></g><g style="isolation:isolate"><g style="clip-path:url(#clip-path-21)"><g style="isolation:isolate"><polyline points="163.779 15.461 162.639 14.841 162.651 14.847 163.79 15.466 163.779 15.461" style="fill:#9e9e9e"/><path d="M164.00354,15.8116l-1.13966-.62a.33986.33986,0,0,0,.06517.02387l1.13966.62a.33911.33911,0,0,1-.06517-.02386" transform="translate(-0.21327 -0.34512)" style="fill:#a3a3a3"/><polyline points="163.855 15.49 162.716 14.87 162.718 14.871 163.858 15.491 163.855 15.49" style="fill:#a8a8a8"/></g></g></g><g style="isolation:isolate"><g style="clip-path:url(#clip-path-22)"><g style="isolation:isolate"><path d="M166.49511,13.02345l-1.13967-.62a9.14622,9.14622,0,0,1,.60313-4.16839l1.13966.62a9.14611,9.14611,0,0,0-.60312,4.16839" transform="translate(-0.21327 -0.34512)" style="fill:#858585"/><path d="M167.09823,8.85506l-1.13966-.62q.07121-.19366.15011-.38894l1.13966.62q-.07889.19527-.15011.38894" transform="translate(-0.21327 -0.34512)" style="fill:#8a8a8a"/></g></g></g><g style="isolation:isolate"><g style="clip-path:url(#clip-path-23)"><g style="isolation:isolate"><path d="M163.63132,16.46347l-1.13966-.62a1.06162,1.06162,0,0,1-.48093-.61888l1.13966.62a1.06173,1.06173,0,0,0,.48093.61888" transform="translate(-0.21327 -0.34512)" style="fill:#858585"/></g></g></g><g style="isolation:isolate"><g style="clip-path:url(#clip-path-24)"><g style="isolation:isolate"><polyline points="167.035 8.121 165.895 7.501 165.896 7.5 167.035 8.12 167.035 8.121" style="fill:#8a8a8a"/><path d="M167.24855,8.46556l-1.13966-.62c.07311-.1987.16549-.45006-.388-.75115l1.13967.62c.55348.30109.4611.55245.388.75115" transform="translate(-0.21327 -0.34512)" style="fill:#858585"/></g></g></g><g style="isolation:isolate"><g style="clip-path:url(#clip-path-25)"><g style="isolation:isolate"><path d="M164.5025,7.91849l-1.13966-.62q.034-.05217.069-.102l1.13967.62q-.035.04986-.069.102" transform="translate(-0.21327 -0.34512)" style="fill:#8f8f8f"/><path d="M164.57147,7.81645l-1.13967-.62a3.20107,3.20107,0,0,1,.22038-.28049l1.13966.62a3.19911,3.19911,0,0,0-.22037.28049" transform="translate(-0.21327 -0.34512)" style="fill:#949494"/><path d="M164.79184,7.536l-1.13966-.62a2.72956,2.72956,0,0,1,.2194-.22216l1.13966.62a2.728,2.728,0,0,0-.2194.22216" transform="translate(-0.21327 -0.34512)" style="fill:#999"/><path d="M165.01124,7.3138l-1.13966-.62a2.35473,2.35473,0,0,1,.23572-.187l1.13966.62a2.35443,2.35443,0,0,0-.23572.18695" transform="translate(-0.21327 -0.34512)" style="fill:#9e9e9e"/><path d="M165.247,7.12685l-1.13966-.62a2.04022,2.04022,0,0,1,.29006-.16793l1.13966.62a2.04045,2.04045,0,0,0-.29006.16794" transform="translate(-0.21327 -0.34512)" style="fill:#a3a3a3"/><path d="M165.537,6.95891l-1.13966-.62a1.76249,1.76249,0,0,1,.50766-.15336,1.71039,1.71039,0,0,1,.67155.04052l1.13967.62a1.71026,1.71026,0,0,0-.67156-.04053,1.76267,1.76267,0,0,0-.50766.15336" transform="translate(-0.21327 -0.34512)" style="fill:#a8a8a8"/><path d="M166.71624,6.84608l-1.13967-.62a1.95078,1.95078,0,0,1,.27067.09229l1.13967.62a1.95036,1.95036,0,0,0-.27067-.09229" transform="translate(-0.21327 -0.34512)" style="fill:#a3a3a3"/></g></g></g><g style="isolation:isolate"><g style="clip-path:url(#clip-path-26)"><g style="isolation:isolate"><path d="M166.98691,6.93837l-1.13967-.62q.04676.02157.09449.045l1.13967.62q-.04764-.02343-.09449-.045" transform="translate(-0.21327 -0.34512)" style="fill:#a3a3a3"/><path d="M167.0814,6.98333l-1.13967-.62c.03988.01961.08006.04026.12014.06206l1.13966.62c-.04007-.0218-.08025-.04244-.12013-.06205" transform="translate(-0.21327 -0.34512)" style="fill:#9e9e9e"/></g></g></g><path d="M175.643,11.75507a.8605.8605,0,0,1,.13482.70714,1.19583,1.19583,0,0,1-1.118.87586,4.93389,4.93389,0,0,1-1.11-.00956,9.60159,9.60159,0,0,0-2.1207.06433,12.95129,12.95129,0,0,0-5.70009,2.44372,3.40141,3.40141,0,0,1-1.45886.72365,1.1212,1.1212,0,0,1-.43242-.017.98.98,0,0,1-.68742-.69863c-.8282-2.51129-.37478-5.17672,1.35211-7.9261a2.27692,2.27692,0,0,1,1.54218-1.11294,1.76424,1.76424,0,0,1,.94223.13282c.5601.25836,1.248.70626.87771,1.72638a8.83427,8.83427,0,0,0-.73582,3.80289,26.11617,26.11617,0,0,1,4.36809-1.0152,22.48638,22.48638,0,0,1,2.36919-.20826C174.77909,11.21094,175.37939,11.38591,175.643,11.75507Zm-.9589.858c.26485-.03722.4156-.11918.44522-.24121l-.02381-.11766c-.11182-.15716-.512-.30837-1.30481-.28338a22.64,22.64,0,0,0-2.32458.2066,25.19893,25.19893,0,0,0-4.58906,1.10213l-.35259.11872-.03934-.37479a9.40568,9.40568,0,0,1,.75323-4.55733c.08049-.21876.18513-.50141-.575-.84405a1.2215,1.2215,0,0,0-.64048-.10015,1.45523,1.45523,0,0,0-.99443.75346c-1.60642,2.55955-2.01926,4.93406-1.25474,7.23819.07964.23949.19965.3004.2877.32257a.50907.50907,0,0,0,.19649.00473,2.70856,2.70856,0,0,0,1.134-.58932,13.70031,13.70031,0,0,1,6.02949-2.58257,10.22909,10.22909,0,0,1,2.256-.06857,4.35788,4.35788,0,0,0,.99671.01263" transform="translate(-0.21327 -0.34512)" style="fill:#dfdfdf"/><g style="isolation:isolate"><g style="clip-path:url(#clip-path-27)"><g style="isolation:isolate"><path d="M163.15039,15.84459l-1.13966-.62a8.25994,8.25994,0,0,1,.1745-5.566l1.13967.62a8.25994,8.25994,0,0,0-.17451,5.566" transform="translate(-0.21327 -0.34512)" style="fill:#858585"/><path d="M163.3249,10.27858l-1.13967-.62a11.89063,11.89063,0,0,1,.69378-1.53049l1.13967.62a11.888,11.888,0,0,0-.69378,1.53049" transform="translate(-0.21327 -0.34512)" style="fill:#8a8a8a"/><path d="M164.01868,8.74809l-1.13967-.62q.22246-.41344.48383-.8296l1.13966.62q-.26136.41611-.48382.8296" transform="translate(-0.21327 -0.34512)" style="fill:#8f8f8f"/></g></g></g></g><circle cx="167.78673" cy="11.65488" r="7.5" style="fill:none;stroke:#fff;stroke-miterlimit:10;stroke-width:0.75px"/><rect x="22.28673" y="138.15527" width="45" height="3" rx="1.5" style="fill:#fff;stroke:#010000;stroke-miterlimit:10;stroke-width:2px"/><rect x="112.28673" y="138.15527" width="45" height="3" rx="1.5" style="fill:#fff;stroke:#010000;stroke-miterlimit:10;stroke-width:2px"/><rect x="22.28673" y="198.15502" width="45" height="3" rx="1.5" style="fill:#fff;stroke:#010000;stroke-miterlimit:10;stroke-width:2px"/><rect x="112.28673" y="198.15502" width="45" height="3" rx="1.5" style="fill:#fff;stroke:#010000;stroke-miterlimit:10;stroke-width:2px"/><rect x="22.28673" y="258.15502" width="45" height="3" rx="1.5" style="fill:#fff;stroke:#010000;stroke-miterlimit:10;stroke-width:2px"/><rect x="112.28673" y="258.15502" width="45" height="3" rx="1.5" style="fill:#fff;stroke:#010000;stroke-miterlimit:10;stroke-width:2px"/><rect x="112.28673" y="258.15502" width="45" height="3" rx="1.5" style="fill:#fff;stroke:#010000;stroke-miterlimit:10;stroke-width:2px"/><path d="M98.17578,240.66251a.8784.8784,0,0,1,.98926.96679v5.86914a.97712.97712,0,1,1-1.9541.00489v-5.86914A.85621.85621,0,0,1,98.17578,240.66251Z" transform="translate(-0.21327 -0.34512)" style="fill:#fff"/><path d="M101.22656,240.67227a1.20069,1.20069,0,0,1,.84766.40039l2.918,3.73047v-3.27637a.76372.76372,0,0,1,.8291-.85449q1.0957.01466,1.10547.874l.00976,6.07421q-.00879.84083-1.11523.84961a1.00107,1.00107,0,0,1-.81445-.40039l-2.93262-3.7207v3.27148a.75549.75549,0,0,1-.84766.84961q-1.10156.00586-1.10644-.85937v-6.08887Q100.11573,240.67813,101.22656,240.67227Z" transform="translate(-0.21327 -0.34512)" style="fill:#fff"/><path d="M107.916,247.4838a.8646.8646,0,0,1,.97461-.98145h.50195l-.00488-3.88672a.83858.83858,0,0,1-.95508-.97168.87752.87752,0,0,1,.96484-.97168h.97949a.84785.84785,0,0,1,.96485.95215l-.00489,4.87793h.49219a.88951.88951,0,0,1,.9834,1.01074.83411.83411,0,0,1-.916.94727l-3.00585.00976A.87973.87973,0,0,1,107.916,247.4838Z" transform="translate(-0.21327 -0.34512)" style="fill:#fff"/><path d="M157.19922,240.66251a3.98118,3.98118,0,0,1,1.917.50586,3.63365,3.63365,0,0,1,1.46192,1.44531,3.92162,3.92162,0,0,1,.01464,3.90625,3.62409,3.62409,0,0,1-1.44531,1.44531,3.92828,3.92828,0,0,1-3.88769,0,3.62411,3.62411,0,0,1-1.44532-1.44531,3.944,3.944,0,0,1,.00782-3.90625,3.58484,3.58484,0,0,1,1.4541-1.44531A3.98905,3.98905,0,0,1,157.19922,240.66251Zm-.95313,2.19531a1.79585,1.79585,0,0,0-.72851.72265,1.99283,1.99283,0,0,0-.2627.9834,1.9696,1.9696,0,0,0,.25782.97168,1.8206,1.8206,0,0,0,.72363.72266,1.9554,1.9554,0,0,0,1.94433,0,1.82069,1.82069,0,0,0,.72364-.72266,1.966,1.966,0,0,0-.00489-1.95508,1.791,1.791,0,0,0-.73144-.72265,1.95849,1.95849,0,0,0-1.92188,0Z" transform="translate(-0.21327 -0.34512)" style="fill:#fff"/><path d="M163.0752,240.65274a.85287.85287,0,0,1,.97949.94238l-.00489,2.97364q.00879,1.95409,1.48145,1.96289,1.46045-.01466,1.45605-1.96778V241.6293a.97713.97713,0,1,1,1.95411.00489v2.93457q-.00439,3.90234-3.41016,3.90136-3.42627.0249-3.43066-3.90136V241.6293A.87023.87023,0,0,1,163.0752,240.65274Z" transform="translate(-0.21327 -0.34512)" style="fill:#fff"/><path d="M170.85156,240.65274l4.93067.00977a.8345.8345,0,0,1,.916.94726.88979.88979,0,0,1-.98437,1.01074h-1.45606l.00489,4.87793a.8731.8731,0,0,1-.9795.97168.84918.84918,0,0,1-.97461-.94726l.00489-4.90235h-1.46192a.8646.8646,0,0,1-.97461-.98144A.88015.88015,0,0,1,170.85156,240.65274Z" transform="translate(-0.21327 -0.34512)" style="fill:#fff"/><path d="M127.2041,240.66251a.8784.8784,0,0,1,.98926.96679v5.86914a.97712.97712,0,1,1-1.9541.00489v-5.86914A.85621.85621,0,0,1,127.2041,240.66251Z" transform="translate(-0.21327 -0.34512)" style="fill:#fff"/><path d="M130.25488,240.67227a1.20067,1.20067,0,0,1,.84766.40039l2.918,3.73047v-3.27637a.76372.76372,0,0,1,.8291-.85449q1.0957.01466,1.10547.874l.00976,6.07421q-.00879.84083-1.11523.84961a1.00107,1.00107,0,0,1-.81445-.40039l-2.93262-3.7207v3.27148a.75549.75549,0,0,1-.84766.84961q-1.10156.00586-1.10644-.85937v-6.08887Q129.144,240.67813,130.25488,240.67227Z" transform="translate(-0.21327 -0.34512)" style="fill:#fff"/><path d="M143.77539,244.56876a.85429.85429,0,0,1-.97461.97168l-3.90234-.00489q.00879.98145,1.457.98633l2.45019-.00976a.87352.87352,0,0,1,.96973.98144.8619.8619,0,0,1-.97461.97656h-2.43066q-3.42187-.0044-3.42578-3.90625a.86782.86782,0,0,1,.97461-.97656l3.90234.00488q0-.97558-1.44141-.97168h-2.45117a.895.895,0,0,1-.98437-.98632.87531.87531,0,0,1,.98437-.97168h2.43164Q143.77051,240.65812,143.77539,244.56876Z" transform="translate(-0.21327 -0.34512)" style="fill:#fff"/><path d="M54.8584,211.07657h-.01367l-.79.42676-.11914-.46875.99218-.53223h.52442v4.55176H54.8584Z" transform="translate(-0.21327 -0.34512)" style="fill:#fff;stroke:#fff;stroke-miterlimit:10;stroke-width:0.25px"/><path d="M56.23486,231.01993h-1.7334l-.1748,1.16992a2.46171,2.46171,0,0,1,.37012-.02832,1.91714,1.91714,0,0,1,.97851.24512,1.299,1.299,0,0,1,.65039,1.16992,1.57734,1.57734,0,0,1-1.6914,1.55469,2.21075,2.21075,0,0,1-1.13184-.28028l.15332-.46875a2.03731,2.03731,0,0,0,.97168.252,1.00289,1.00289,0,0,0,1.07617-.98731c-.00683-.58887-.39843-1.00879-1.30664-1.00879a4.79482,4.79482,0,0,0-.62988.04883l.29395-2.18457h2.17382Z" transform="translate(-0.21327 -0.34512)" style="fill:#fff;stroke:#fff;stroke-miterlimit:10;stroke-width:0.25px"/><path d="M53.523,225.05411v-.37793l.48242-.46973c1.16016-1.10644,1.68359-1.69433,1.69141-2.38086a.81186.81186,0,0,0-.90235-.88965,1.54115,1.54115,0,0,0-.96386.38575l-.19532-.43457a1.98725,1.98725,0,0,1,1.28516-.46192,1.279,1.279,0,0,1,1.39063,1.32324c0,.84082-.60743,1.51953-1.56543,2.44434l-.36329.33594v.01465h2.041v.51074Z" transform="translate(-0.21327 -0.34512)" style="fill:#fff;stroke:#fff;stroke-miterlimit:10;stroke-width:0.25px"/><rect x="112.28673" y="258.15502" width="45" height="3" rx="1.5" style="fill:#fff;stroke:#010000;stroke-miterlimit:10;stroke-width:2px"/><path d="M102.585,301.63907q0,.97706-.94043.98144l-2.9668-.00488q-.98437.01026-.99414.498.01466.46436.999.459h.96q2.937.01026,2.95215,2.47559,0,2.39794-2.94727,2.41211H96.71875a.9595.9595,0,1,1-.00977-1.91895l2.93848-.01465q.98291-.0044.9834-.50293,0-.498-.99316-.49316h-.96q-2.92968-.00439-2.92871-2.417-.019-2.44629,2.92871-2.45117h2.93262A.87023.87023,0,0,1,102.585,301.63907Z" transform="translate(-0.21327 -0.34512)" style="fill:#fff"/><path d="M104.50488,300.66251a.8784.8784,0,0,1,.98926.96679v5.86914a.97712.97712,0,1,1-1.9541.00489v-5.86914A.85621.85621,0,0,1,104.50488,300.66251Z" transform="translate(-0.21327 -0.34512)" style="fill:#fff"/><path d="M110.34277,300.66251l1.958-.00489a.87037.87037,0,0,1,.96485.98633.842.842,0,0,1-.96.95215l-1.95312.00977a1.99727,1.99727,0,0,0-.96289.252,1.79581,1.79581,0,0,0-.72852.72265,1.99293,1.99293,0,0,0-.26269.9834,1.9697,1.9697,0,0,0,.25781.97168,1.82073,1.82073,0,0,0,.72363.72266,1.97223,1.97223,0,0,0,.97266.25879,2.41537,2.41537,0,0,0,1.02539-.24121,1.49874,1.49874,0,0,0,.75293-.75h-.81445a.85956.85956,0,0,1-.98828-.957.87644.87644,0,0,1,.97363-.99121l1.959.00976a.8866.8866,0,0,1,.98926.98633,3.96655,3.96655,0,0,1-.51367,1.94629,3.62415,3.62415,0,0,1-1.44531,1.44531,3.9283,3.9283,0,0,1-3.8877,0,3.62409,3.62409,0,0,1-1.44531-1.44531,3.944,3.944,0,0,1,.00781-3.90625,3.5849,3.5849,0,0,1,1.4541-1.44531A3.98908,3.98908,0,0,1,110.34277,300.66251Z" transform="translate(-0.21327 -0.34512)" style="fill:#fff"/><path d="M131.10254,300.66251l1.95312.00488a.97413.97413,0,1,1-.00488,1.94824l-1.94336.00488a1.95069,1.95069,0,0,0,.00488,3.90137h1.93848a.97414.97414,0,0,1,.00977,1.94824H131.1123q-3.8994,0-3.90332-3.90625Q127.209,300.6586,131.10254,300.66251Z" transform="translate(-0.21327 -0.34512)" style="fill:#fff"/><path d="M141.82129,300.65274a.99375.99375,0,0,1,.47754.127.90338.90338,0,0,1,.36523.36133.98348.98348,0,0,1,.13184.48828,23.64892,23.64892,0,0,1-1.46387,3.19141q-1.46484,2.937-1.59375,3.166a.92378.92378,0,0,1-.36035.35938.98352.98352,0,0,1-.48438.12891.9943.9943,0,0,1-.4873-.12891.90736.90736,0,0,1-.36133-.35938q-.126-.22851-1.583-3.166a23.60457,23.60457,0,0,1-1.457-3.19141.98348.98348,0,0,1,.13184-.48828.90839.90839,0,0,1,.3623-.36133.96715.96715,0,0,1,.958,0,.91558.91558,0,0,1,.36524.36133q.13183.23438,2.07128,4.2334,1.95264-3.999,2.085-4.2334a.91691.91691,0,0,1,.36328-.36133A.99253.99253,0,0,1,141.82129,300.65274Z" transform="translate(-0.21327 -0.34512)" style="fill:#fff"/><path d="M67.19971,300.66348a3.97992,3.97992,0,0,1,1.917.50489,3.63978,3.63978,0,0,1,1.46191,1.44531,3.92166,3.92166,0,0,1,.01465,3.90625,3.618,3.618,0,0,1-1.44531,1.44531,3.92181,3.92181,0,0,1-3.8877,0,3.618,3.618,0,0,1-1.44531-1.44531,3.944,3.944,0,0,1,.00781-3.90625,3.59092,3.59092,0,0,1,1.45411-1.44531A3.98782,3.98782,0,0,1,67.19971,300.66348Zm-.95313,2.19434a1.808,1.808,0,0,0-.72851.72265,1.99914,1.99914,0,0,0-.2627.98438,1.97516,1.97516,0,0,0,.25781.97168,1.83318,1.83318,0,0,0,.72364.72266,1.95547,1.95547,0,0,0,1.94433,0,1.83318,1.83318,0,0,0,.72364-.72266,1.96787,1.96787,0,0,0-.00489-1.95606,1.803,1.803,0,0,0-.73144-.72265,1.96508,1.96508,0,0,0-1.92188,0Z" transform="translate(-0.21327 -0.34512)" style="fill:#fff"/><path d="M73.07568,300.65372a.85247.85247,0,0,1,.9795.94238l-.00489,2.97363q.00879,1.95264,1.48145,1.96289,1.46045-.01464,1.45605-1.96777v-2.93457a.97712.97712,0,1,1,1.9541.00488v2.93457q-.0044,3.90089-3.41015,3.90137-3.42627.02343-3.43067-3.90137v-2.93945A.86983.86983,0,0,1,73.07568,300.65372Z" transform="translate(-0.21327 -0.34512)" style="fill:#fff"/><path d="M80.85205,300.65372l4.93066.00976a.83411.83411,0,0,1,.916.94727.88979.88979,0,0,1-.98437,1.01074H84.2583l.00488,4.87793a.87392.87392,0,0,1-.97949.97168.84957.84957,0,0,1-.97461-.94727l.00488-4.90234H80.85205a.86461.86461,0,0,1-.97461-.98144A.87973.87973,0,0,1,80.85205,300.65372Z" transform="translate(-0.21327 -0.34512)" style="fill:#fff"/><rect x="22.28673" y="318.1551" width="45" height="3" rx="1.5" style="fill:#fff;stroke:#010000;stroke-miterlimit:10;stroke-width:2px"/><rect x="112.28673" y="318.1551" width="45" height="3" rx="1.5" style="fill:#fff;stroke:#010000;stroke-miterlimit:10;stroke-width:2px"/><rect x="112.28673" y="318.1551" width="45" height="3" rx="1.5" style="fill:#fff;stroke:#010000;stroke-miterlimit:10;stroke-width:2px"/><path d="M157.19922,300.66251a3.98118,3.98118,0,0,1,1.917.50586,3.63365,3.63365,0,0,1,1.46192,1.44531,3.92162,3.92162,0,0,1,.01464,3.90625,3.62409,3.62409,0,0,1-1.44531,1.44531,3.92828,3.92828,0,0,1-3.88769,0,3.62411,3.62411,0,0,1-1.44532-1.44531,3.944,3.944,0,0,1,.00782-3.90625,3.58484,3.58484,0,0,1,1.4541-1.44531A3.98905,3.98905,0,0,1,157.19922,300.66251Zm-.95313,2.19531a1.79585,1.79585,0,0,0-.72851.72265,1.99283,1.99283,0,0,0-.2627.9834,1.9696,1.9696,0,0,0,.25782.97168,1.8206,1.8206,0,0,0,.72363.72266,1.9554,1.9554,0,0,0,1.94433,0,1.82069,1.82069,0,0,0,.72364-.72266,1.966,1.966,0,0,0-.00489-1.95508,1.791,1.791,0,0,0-.73144-.72265,1.95849,1.95849,0,0,0-1.92188,0Z" transform="translate(-0.21327 -0.34512)" style="fill:#fff"/><path d="M163.0752,300.65274a.85287.85287,0,0,1,.97949.94238l-.00489,2.97364q.00879,1.95409,1.48145,1.96289,1.46045-.01466,1.45605-1.96778V301.6293a.97713.97713,0,1,1,1.95411.00489v2.93457q-.00439,3.90234-3.41016,3.90136-3.42627.0249-3.43066-3.90136V301.6293A.87023.87023,0,0,1,163.0752,300.65274Z" transform="translate(-0.21327 -0.34512)" style="fill:#fff"/><path d="M170.85156,300.65274l4.93067.00977a.8345.8345,0,0,1,.916.94726.88979.88979,0,0,1-.98437,1.01074h-1.45606l.00489,4.87793a.8731.8731,0,0,1-.9795.97168.84918.84918,0,0,1-.97461-.94726l.00489-4.90235h-1.46192a.8646.8646,0,0,1-.97461-.98144A.88015.88015,0,0,1,170.85156,300.65274Z" transform="translate(-0.21327 -0.34512)" style="fill:#fff"/><rect x="112.28673" y="318.1551" width="45" height="3" rx="1.5" style="fill:#fff;stroke:#010000;stroke-miterlimit:10;stroke-width:2px"/><path d="M102.58594,361.63907q0,.97706-.94043.98144l-2.9668-.00488q-.98437.01026-.99414.498.01466.46436.999.459h.96q2.937.01026,2.95215,2.47559,0,2.39794-2.94726,2.41211H96.71973a.9595.9595,0,1,1-.00977-1.91895l2.93848-.01465q.98291-.0044.9834-.50293,0-.498-.99317-.49316h-.96q-2.92968-.00439-2.92871-2.417-.019-2.44629,2.92871-2.45117h2.93262A.87023.87023,0,0,1,102.58594,361.63907Z" transform="translate(-0.21327 -0.34512)" style="fill:#fff"/><path d="M104.50586,360.66251a.8784.8784,0,0,1,.98926.96679v5.86914a.97712.97712,0,1,1-1.9541.00489v-5.86914A.85621.85621,0,0,1,104.50586,360.66251Z" transform="translate(-0.21327 -0.34512)" style="fill:#fff"/><path d="M110.34375,360.66251l1.958-.00489a.87036.87036,0,0,1,.96484.98633.842.842,0,0,1-.96.95215l-1.95312.00977a1.99721,1.99721,0,0,0-.96289.252,1.79581,1.79581,0,0,0-.72852.72265,1.99283,1.99283,0,0,0-.2627.9834,1.9696,1.9696,0,0,0,.25782.97168,1.8206,1.8206,0,0,0,.72363.72266,1.97223,1.97223,0,0,0,.97266.25879,2.4154,2.4154,0,0,0,1.02539-.24121,1.49874,1.49874,0,0,0,.75293-.75h-.81446a.85957.85957,0,0,1-.98828-.957.87645.87645,0,0,1,.97363-.99121l1.959.00976a.8866.8866,0,0,1,.98926.98633,3.96645,3.96645,0,0,1-.51368,1.94629,3.624,3.624,0,0,1-1.44531,1.44531,3.92828,3.92828,0,0,1-3.88769,0,3.62411,3.62411,0,0,1-1.44532-1.44531,3.944,3.944,0,0,1,.00782-3.90625,3.58484,3.58484,0,0,1,1.4541-1.44531A3.98905,3.98905,0,0,1,110.34375,360.66251Z" transform="translate(-0.21327 -0.34512)" style="fill:#fff"/><path d="M157.19922,360.66251a3.98118,3.98118,0,0,1,1.917.50586,3.63365,3.63365,0,0,1,1.46192,1.44531,3.92162,3.92162,0,0,1,.01464,3.90625,3.62409,3.62409,0,0,1-1.44531,1.44531,3.92828,3.92828,0,0,1-3.88769,0,3.62411,3.62411,0,0,1-1.44532-1.44531,3.944,3.944,0,0,1,.00782-3.90625,3.58484,3.58484,0,0,1,1.4541-1.44531A3.98905,3.98905,0,0,1,157.19922,360.66251Zm-.95313,2.19531a1.79585,1.79585,0,0,0-.72851.72265,1.99283,1.99283,0,0,0-.2627.9834,1.9696,1.9696,0,0,0,.25782.97168,1.8206,1.8206,0,0,0,.72363.72266,1.9554,1.9554,0,0,0,1.94433,0,1.82069,1.82069,0,0,0,.72364-.72266,1.966,1.966,0,0,0-.00489-1.95508,1.791,1.791,0,0,0-.73144-.72265,1.95849,1.95849,0,0,0-1.92188,0Z" transform="translate(-0.21327 -0.34512)" style="fill:#fff"/><path d="M163.0752,360.65274a.85287.85287,0,0,1,.97949.94238l-.00489,2.97364q.00879,1.95409,1.48145,1.96289,1.46045-.01466,1.45605-1.96778V361.6293a.97713.97713,0,1,1,1.95411.00489v2.93457q-.00439,3.90234-3.41016,3.90136-3.42627.0249-3.43066-3.90136V361.6293A.87023.87023,0,0,1,163.0752,360.65274Z" transform="translate(-0.21327 -0.34512)" style="fill:#fff"/><path d="M170.85156,360.65274l4.93067.00977a.8345.8345,0,0,1,.916.94726.88979.88979,0,0,1-.98437,1.01074h-1.45606l.00489,4.87793a.8731.8731,0,0,1-.9795.97168.84918.84918,0,0,1-.97461-.94726l.00489-4.90235h-1.46192a.8646.8646,0,0,1-.97461-.98144A.88015.88015,0,0,1,170.85156,360.65274Z" transform="translate(-0.21327 -0.34512)" style="fill:#fff"/><path d="M131.10254,360.66251l1.95312.00488a.97413.97413,0,1,1-.00488,1.94824l-1.94336.00488a1.95069,1.95069,0,0,0,.00488,3.90137h1.93848a.97414.97414,0,0,1,.00977,1.94824H131.1123q-3.8994,0-3.90332-3.90625Q127.209,360.65861,131.10254,360.66251Z" transform="translate(-0.21327 -0.34512)" style="fill:#fff"/><path d="M141.82129,360.65274a.99375.99375,0,0,1,.47754.127.90338.90338,0,0,1,.36523.36133.98348.98348,0,0,1,.13184.48828,23.64892,23.64892,0,0,1-1.46387,3.19141q-1.46484,2.937-1.59375,3.166a.92378.92378,0,0,1-.36035.35938.98352.98352,0,0,1-.48438.12891.9943.9943,0,0,1-.4873-.12891.90736.90736,0,0,1-.36133-.35938q-.126-.22851-1.583-3.166a23.60457,23.60457,0,0,1-1.457-3.19141.98348.98348,0,0,1,.13184-.48828.90839.90839,0,0,1,.3623-.36133.96715.96715,0,0,1,.958,0,.91558.91558,0,0,1,.36524.36133q.13183.23438,2.07128,4.2334,1.95264-3.999,2.085-4.2334a.91691.91691,0,0,1,.36328-.36133A.99253.99253,0,0,1,141.82129,360.65274Z" transform="translate(-0.21327 -0.34512)" style="fill:#fff"/><path d="M12.58545,301.63907q0,.97706-.94043.98144l-2.9668-.00488q-.98437.01026-.99414.498.01466.46436.999.459h.96q2.937.01026,2.95214,2.47559,0,2.39794-2.94726,2.41211H6.71924a.9595.9595,0,1,1-.00977-1.91895l2.93848-.01465q.98291-.0044.9834-.50293,0-.498-.99317-.49316h-.96q-2.92968-.00439-2.92871-2.417-.019-2.44629,2.92871-2.45117h2.93262A.87023.87023,0,0,1,12.58545,301.63907Z" transform="translate(-0.21327 -0.34512)" style="fill:#fff"/><path d="M14.50537,300.66251a.8784.8784,0,0,1,.98926.96679v5.86914a.88435.88435,0,0,1-.97949.99121.87723.87723,0,0,1-.97461-.98632v-5.86914A.85621.85621,0,0,1,14.50537,300.66251Z" transform="translate(-0.21327 -0.34512)" style="fill:#fff"/><path d="M20.34326,300.66251l1.958-.00489a.87036.87036,0,0,1,.96484.98633.842.842,0,0,1-.96.95215l-1.95312.00977a1.99724,1.99724,0,0,0-.96289.252,1.79581,1.79581,0,0,0-.72852.72265,1.99293,1.99293,0,0,0-.26269.9834,1.96959,1.96959,0,0,0,.25781.97168,1.8206,1.8206,0,0,0,.72363.72266,1.97223,1.97223,0,0,0,.97266.25879,2.4154,2.4154,0,0,0,1.02539-.24121,1.49874,1.49874,0,0,0,.75293-.75h-.81446a.85957.85957,0,0,1-.98828-.957.87645.87645,0,0,1,.97364-.99121l1.959.00976a.8866.8866,0,0,1,.98926.98633,3.96655,3.96655,0,0,1-.51367,1.94629,3.62411,3.62411,0,0,1-1.44532,1.44531,3.92828,3.92828,0,0,1-3.88769,0,3.624,3.624,0,0,1-1.44531-1.44531,3.94395,3.94395,0,0,1,.00781-3.90625,3.58484,3.58484,0,0,1,1.4541-1.44531A3.98908,3.98908,0,0,1,20.34326,300.66251Z" transform="translate(-0.21327 -0.34512)" style="fill:#fff"/><path d="M41.10254,300.66251l1.95312.00488a.97413.97413,0,1,1-.00488,1.94824l-1.94336.00488a1.95069,1.95069,0,0,0,.00488,3.90137h1.93848a.97414.97414,0,0,1,.00977,1.94824H41.1123q-3.8994,0-3.90332-3.90625Q37.209,300.6586,41.10254,300.66251Z" transform="translate(-0.21327 -0.34512)" style="fill:#fff"/><path d="M51.82129,300.65274a.99375.99375,0,0,1,.47754.127.90338.90338,0,0,1,.36523.36133.98348.98348,0,0,1,.13184.48828,23.64892,23.64892,0,0,1-1.46387,3.19141q-1.46484,2.937-1.59375,3.166a.92378.92378,0,0,1-.36035.35938.98352.98352,0,0,1-.48438.12891.9943.9943,0,0,1-.4873-.12891.90736.90736,0,0,1-.36133-.35938q-.126-.22851-1.583-3.166a23.60457,23.60457,0,0,1-1.457-3.19141.98348.98348,0,0,1,.13184-.48828.90839.90839,0,0,1,.3623-.36133.96715.96715,0,0,1,.958,0,.91558.91558,0,0,1,.36524.36133q.13183.23438,2.07128,4.2334,1.95264-3.999,2.085-4.2334a.91691.91691,0,0,1,.36328-.36133A.99253.99253,0,0,1,51.82129,300.65274Z" transform="translate(-0.21327 -0.34512)" style="fill:#fff"/><path d="M12.58594,361.63907q0,.97706-.94043.98144l-2.9668-.00488q-.98437.01026-.99414.498.01466.46436.999.459h.96q2.937.01026,2.95215,2.47559,0,2.39794-2.94726,2.41211H6.71973A.9595.9595,0,1,1,6.71,366.54141l2.93848-.01465q.9829-.0044.9834-.50293,0-.498-.99317-.49316h-.96q-2.92968-.00439-2.92871-2.417-.01905-2.44629,2.92871-2.45117h2.93262A.87023.87023,0,0,1,12.58594,361.63907Z" transform="translate(-0.21327 -0.34512)" style="fill:#fff"/><path d="M14.50586,360.66251a.8784.8784,0,0,1,.98926.96679v5.86914a.88435.88435,0,0,1-.97949.99121.87723.87723,0,0,1-.97461-.98632v-5.86914A.85621.85621,0,0,1,14.50586,360.66251Z" transform="translate(-0.21327 -0.34512)" style="fill:#fff"/><path d="M20.34375,360.66251l1.958-.00489a.87036.87036,0,0,1,.96484.98633.842.842,0,0,1-.96.95215l-1.95312.00977a1.99721,1.99721,0,0,0-.96289.252,1.79581,1.79581,0,0,0-.72852.72265,1.99283,1.99283,0,0,0-.2627.9834,1.9696,1.9696,0,0,0,.25782.97168,1.8206,1.8206,0,0,0,.72363.72266,1.97223,1.97223,0,0,0,.97266.25879,2.4154,2.4154,0,0,0,1.02539-.24121,1.49874,1.49874,0,0,0,.75293-.75h-.81446a.85957.85957,0,0,1-.98828-.957.87645.87645,0,0,1,.97363-.99121l1.959.00976a.8866.8866,0,0,1,.98926.98633,3.96645,3.96645,0,0,1-.51368,1.94629,3.624,3.624,0,0,1-1.44531,1.44531,3.92828,3.92828,0,0,1-3.88769,0,3.62411,3.62411,0,0,1-1.44532-1.44531,3.944,3.944,0,0,1,.00782-3.90625,3.58484,3.58484,0,0,1,1.4541-1.44531A3.98905,3.98905,0,0,1,20.34375,360.66251Z" transform="translate(-0.21327 -0.34512)" style="fill:#fff"/><path d="M41.10254,360.66251l1.95312.00488a.97413.97413,0,1,1-.00488,1.94824l-1.94336.00488a1.95069,1.95069,0,0,0,.00488,3.90137h1.93848a.97414.97414,0,0,1,.00977,1.94824H41.1123q-3.8994,0-3.90332-3.90625Q37.209,360.65861,41.10254,360.66251Z" transform="translate(-0.21327 -0.34512)" style="fill:#fff"/><path d="M51.82129,360.65274a.99375.99375,0,0,1,.47754.127.90338.90338,0,0,1,.36523.36133.98348.98348,0,0,1,.13184.48828,23.64892,23.64892,0,0,1-1.46387,3.19141q-1.46484,2.937-1.59375,3.166a.92378.92378,0,0,1-.36035.35938.98352.98352,0,0,1-.48438.12891.9943.9943,0,0,1-.4873-.12891.90736.90736,0,0,1-.36133-.35938q-.126-.22851-1.583-3.166a23.60457,23.60457,0,0,1-1.457-3.19141.98348.98348,0,0,1,.13184-.48828.90839.90839,0,0,1,.3623-.36133.96715.96715,0,0,1,.958,0,.91558.91558,0,0,1,.36524.36133q.13183.23438,2.07128,4.2334,1.95264-3.999,2.085-4.2334a.91691.91691,0,0,1,.36328-.36133A.99253.99253,0,0,1,51.82129,360.65274Z" transform="translate(-0.21327 -0.34512)" style="fill:#fff"/><path d="M67.19971,360.66348a3.97992,3.97992,0,0,1,1.917.50489,3.63978,3.63978,0,0,1,1.46191,1.44531,3.92166,3.92166,0,0,1,.01465,3.90625,3.618,3.618,0,0,1-1.44531,1.44531,3.92181,3.92181,0,0,1-3.8877,0,3.618,3.618,0,0,1-1.44531-1.44531,3.944,3.944,0,0,1,.00781-3.90625,3.59092,3.59092,0,0,1,1.45411-1.44531A3.98782,3.98782,0,0,1,67.19971,360.66348Zm-.95313,2.19434a1.808,1.808,0,0,0-.72851.72265,1.99914,1.99914,0,0,0-.2627.98438,1.97516,1.97516,0,0,0,.25781.97168,1.83318,1.83318,0,0,0,.72364.72266,1.95547,1.95547,0,0,0,1.94433,0,1.83318,1.83318,0,0,0,.72364-.72266,1.96787,1.96787,0,0,0-.00489-1.95606,1.803,1.803,0,0,0-.73144-.72265,1.96508,1.96508,0,0,0-1.92188,0Z" transform="translate(-0.21327 -0.34512)" style="fill:#fff"/><path d="M73.07568,360.65372a.85247.85247,0,0,1,.9795.94238l-.00489,2.97363q.00879,1.95264,1.48145,1.96289,1.46045-.01464,1.45605-1.96777v-2.93457a.97712.97712,0,1,1,1.9541.00488v2.93457q-.0044,3.90089-3.41015,3.90137-3.42627.02343-3.43067-3.90137v-2.93945A.86983.86983,0,0,1,73.07568,360.65372Z" transform="translate(-0.21327 -0.34512)" style="fill:#fff"/><path d="M80.85205,360.65372l4.93066.00976a.83411.83411,0,0,1,.916.94727.88979.88979,0,0,1-.98437,1.01074H84.2583l.00488,4.87793a.87392.87392,0,0,1-.97949.97168.84957.84957,0,0,1-.97461-.94727l.00488-4.90234H80.85205a.86461.86461,0,0,1-.97461-.98144A.87973.87973,0,0,1,80.85205,360.65372Z" transform="translate(-0.21327 -0.34512)" style="fill:#fff"/></svg>