<svg id="Layer_1" data-name="Layer 1" xmlns="http://www.w3.org/2000/svg" xmlns:xlink="http://www.w3.org/1999/xlink" width="280.86" height="380.68" viewBox="0 0 280.86 380.68">
  <defs>
    <clipPath id="clip-path" transform="translate(0.43 0.34)">
      <rect x="-0.25" width="280.5" height="380" style="fill: none"/>
    </clipPath>
    <clipPath id="clip-path-2" transform="translate(0.43 0.34)">
      <rect x="0.41" y="0.5" width="279.18" height="379" style="fill: none"/>
    </clipPath>
    <linearGradient id="Dégradé_sans_nom" data-name="Dégradé sans nom" x1="-133.5" y1="380.09" x2="-132.5" y2="380.09" gradientTransform="translate(288008.6 101066.55) rotate(90) scale(757.37)" gradientUnits="userSpaceOnUse">
      <stop offset="0" stop-color="#2f4c77"/>
      <stop offset="0" stop-color="#2f4c77"/>
      <stop offset="0.08" stop-color="#243d5f"/>
      <stop offset="0.22" stop-color="#192941"/>
      <stop offset="0.35" stop-color="#11192a"/>
      <stop offset="0.5" stop-color="#0f121a"/>
      <stop offset="0.66" stop-color="#0b0c10"/>
      <stop offset="0.85" stop-color="#090a0d"/>
      <stop offset="1" stop-color="#090a0d"/>
    </linearGradient>
    <clipPath id="clip-path-4" transform="translate(0.43 0.34)">
      <path d="M15.83,9.52l1.14.62a.36.36,0,0,1,.13.11L16,9.63A.36.36,0,0,0,15.83,9.52Z" style="fill: none"/>
    </clipPath>
    <clipPath id="clip-path-5" transform="translate(0.43 0.34)">
      <path d="M16.69,10.61,15.55,10c.26,0,.41-.12.44-.24l1.14.62C17.1,10.49,17,10.57,16.69,10.61Z" style="fill: none"/>
    </clipPath>
    <clipPath id="clip-path-6" transform="translate(0.43 0.34)">
      <path d="M16.18,8.86l1.14.62a2.9,2.9,0,0,0-1.45-.24q-1.17,0-2.37.21a25.4,25.4,0,0,0-4.38,1L8,9.85a25.08,25.08,0,0,1,4.37-1q1.2-.16,2.37-.21A2.9,2.9,0,0,1,16.18,8.86Z" style="fill: none"/>
    </clipPath>
    <clipPath id="clip-path-7" transform="translate(0.43 0.34)">
      <path d="M7.41,13.25l-1.14-.62a13.56,13.56,0,0,1,6-2.58A10,10,0,0,1,14.55,10a4.81,4.81,0,0,0,1,0l1.14.62a4.81,4.81,0,0,1-1,0,10,10,0,0,0-2.25.07A13.56,13.56,0,0,0,7.41,13.25Z" style="fill: none"/>
    </clipPath>
    <clipPath id="clip-path-8" transform="translate(0.43 0.34)">
      <path d="M6.07,13.84l-1.14-.62h.2a2.82,2.82,0,0,0,1.14-.59l1.14.62a2.82,2.82,0,0,1-1.14.59Z" style="fill: none"/>
    </clipPath>
    <clipPath id="clip-path-9" transform="translate(0.43 0.34)">
      <path d="M6,13.81l-1.14-.62.07,0,1.14.62Z" style="fill: none"/>
    </clipPath>
    <clipPath id="clip-path-10" transform="translate(0.43 0.34)">
      <path d="M8.49,11,7.35,10.4a9.32,9.32,0,0,1,.76-4.56l1.14.62A9.32,9.32,0,0,0,8.49,11Z" style="fill: none"/>
    </clipPath>
    <clipPath id="clip-path-11" transform="translate(0.43 0.34)">
      <path d="M5.65,14.47l-1.14-.62a1.12,1.12,0,0,1-.5-.63l1.14.62A1.12,1.12,0,0,0,5.65,14.47Z" style="fill: none"/>
    </clipPath>
    <clipPath id="clip-path-12" transform="translate(0.43 0.34)">
      <path d="M7.71,5.09l1.14.62c.56.3.47.56.4.75L8.11,5.84C8.18,5.65,8.27,5.39,7.71,5.09Z" style="fill: none"/>
    </clipPath>
    <clipPath id="clip-path-13" transform="translate(0.43 0.34)">
      <path d="M5.15,13.84,4,13.22c-.83-2.51-.37-5.17,1.36-7.92A2.26,2.26,0,0,1,6.9,4.19a1.67,1.67,0,0,1,.95.13L9,4.94a1.67,1.67,0,0,0-1-.13A2.26,2.26,0,0,0,6.51,5.92C4.78,8.67,4.32,11.33,5.15,13.84Z" style="fill: none"/>
    </clipPath>
    <clipPath id="clip-path-14" transform="translate(0.43 0.34)">
      <path d="M8.07,4.43,9.21,5,9,4.94,7.85,4.32Z" style="fill: none"/>
    </clipPath>
    <clipPath id="clip-path-15" transform="translate(0.43 0.34)">
      <path d="M275.83,9.52l1.14.62a.29.29,0,0,1,.13.11L276,9.63A.29.29,0,0,0,275.83,9.52Z" style="fill: none"/>
    </clipPath>
    <clipPath id="clip-path-16" transform="translate(0.43 0.34)">
      <path d="M276.69,10.61,275.55,10c.26,0,.41-.12.44-.24l1.14.62C277.1,10.49,277,10.57,276.69,10.61Z" style="fill: none"/>
    </clipPath>
    <clipPath id="clip-path-17" transform="translate(0.43 0.34)">
      <path d="M276.18,8.86l1.14.62a2.9,2.9,0,0,0-1.45-.24q-1.17,0-2.37.21a25.08,25.08,0,0,0-4.37,1L268,9.85a25.08,25.08,0,0,1,4.37-1q1.2-.16,2.37-.21A2.9,2.9,0,0,1,276.18,8.86Z" style="fill: none"/>
    </clipPath>
    <clipPath id="clip-path-18" transform="translate(0.43 0.34)">
      <path d="M267.41,13.25l-1.14-.62a13.62,13.62,0,0,1,6-2.58,10.08,10.08,0,0,1,2.26-.07,4.81,4.81,0,0,0,1,0l1.14.62a4.81,4.81,0,0,1-1,0,10.08,10.08,0,0,0-2.26.07A13.62,13.62,0,0,0,267.41,13.25Z" style="fill: none"/>
    </clipPath>
    <clipPath id="clip-path-19" transform="translate(0.43 0.34)">
      <path d="M266.07,13.84l-1.14-.62h.2a2.7,2.7,0,0,0,1.14-.59l1.14.62a2.7,2.7,0,0,1-1.14.59Z" style="fill: none"/>
    </clipPath>
    <clipPath id="clip-path-20" transform="translate(0.43 0.34)">
      <path d="M266,13.81l-1.14-.62.07,0,1.14.62Z" style="fill: none"/>
    </clipPath>
    <clipPath id="clip-path-21" transform="translate(0.43 0.34)">
      <path d="M268.49,11l-1.14-.62a9.32,9.32,0,0,1,.76-4.56l1.14.62A9.32,9.32,0,0,0,268.49,11Z" style="fill: none"/>
    </clipPath>
    <clipPath id="clip-path-22" transform="translate(0.43 0.34)">
      <path d="M265.63,14.47l-1.13-.62a1.11,1.11,0,0,1-.49-.63l1.14.62A1.14,1.14,0,0,0,265.63,14.47Z" style="fill: none"/>
    </clipPath>
    <clipPath id="clip-path-23" transform="translate(0.43 0.34)">
      <path d="M267.71,5.09l1.14.62c.56.3.47.56.4.75l-1.14-.62C268.18,5.65,268.27,5.39,267.71,5.09Z" style="fill: none"/>
    </clipPath>
    <clipPath id="clip-path-24" transform="translate(0.43 0.34)">
      <path d="M268.08,4.43l1.14.62L269,4.94l-1.14-.62Z" style="fill: none"/>
    </clipPath>
    <clipPath id="clip-path-25" transform="translate(0.43 0.34)">
      <path d="M266.5,5.92l-1.14-.62a2.27,2.27,0,0,1,1.54-1.11,1.63,1.63,0,0,1,.94.13l1.14.62a1.63,1.63,0,0,0-.94-.13A2.27,2.27,0,0,0,266.5,5.92Z" style="fill: none"/>
    </clipPath>
    <clipPath id="clip-path-26" transform="translate(0.43 0.34)">
      <path d="M265.15,13.84,264,13.22c-.83-2.51-.37-5.17,1.35-7.92l1.14.62C264.78,8.67,264.32,11.33,265.15,13.84Z" style="fill: none"/>
    </clipPath>
    <clipPath id="clip-path-27" transform="translate(0.43 0.34)">
      <path d="M15.83,369.52l1.14.62a.36.36,0,0,1,.13.11L16,369.63A.36.36,0,0,0,15.83,369.52Z" style="fill: none"/>
    </clipPath>
    <clipPath id="clip-path-28" transform="translate(0.43 0.34)">
      <path d="M16.69,370.61,15.55,370c.26,0,.41-.12.44-.24l1.14.62C17.1,370.49,17,370.57,16.69,370.61Z" style="fill: none"/>
    </clipPath>
    <clipPath id="clip-path-29" transform="translate(0.43 0.34)">
      <path d="M16.18,368.86l1.14.62a2.9,2.9,0,0,0-1.45-.24c-.78,0-1.58.1-2.37.21a25.4,25.4,0,0,0-4.38,1L8,369.85a25.08,25.08,0,0,1,4.37-1c.79-.11,1.59-.18,2.37-.21A2.9,2.9,0,0,1,16.18,368.86Z" style="fill: none"/>
    </clipPath>
    <clipPath id="clip-path-30" transform="translate(0.43 0.34)">
      <path d="M7.41,373.25l-1.14-.62a13.58,13.58,0,0,1,6-2.58,10.08,10.08,0,0,1,2.26-.07,4.81,4.81,0,0,0,1,0l1.14.62a4.81,4.81,0,0,1-1,0,10.08,10.08,0,0,0-2.26.07A13.58,13.58,0,0,0,7.41,373.25Z" style="fill: none"/>
    </clipPath>
    <clipPath id="clip-path-31" transform="translate(0.43 0.34)">
      <path d="M6.07,373.84l-1.14-.62h.2a2.82,2.82,0,0,0,1.14-.59l1.14.62a2.82,2.82,0,0,1-1.14.59A.65.65,0,0,1,6.07,373.84Z" style="fill: none"/>
    </clipPath>
    <clipPath id="clip-path-32" transform="translate(0.43 0.34)">
      <path d="M6,373.81l-1.14-.62.07,0,1.14.62Z" style="fill: none"/>
    </clipPath>
    <clipPath id="clip-path-33" transform="translate(0.43 0.34)">
      <path d="M8.49,371l-1.14-.62a9.32,9.32,0,0,1,.76-4.56l1.14.62A9.32,9.32,0,0,0,8.49,371Z" style="fill: none"/>
    </clipPath>
    <clipPath id="clip-path-34" transform="translate(0.43 0.34)">
      <path d="M7.71,365.09l1.14.62c.56.3.47.56.4.75l-1.14-.62C8.18,365.65,8.27,365.39,7.71,365.09Z" style="fill: none"/>
    </clipPath>
    <clipPath id="clip-path-35" transform="translate(0.43 0.34)">
      <path d="M5.64,374.47l-1.14-.62a1.11,1.11,0,0,1-.49-.63c-.83-2.51-.37-5.17,1.36-7.92a2.26,2.26,0,0,1,1.53-1.11,1.67,1.67,0,0,1,.95.13l1.14.62a1.67,1.67,0,0,0-1-.13,2.26,2.26,0,0,0-1.53,1.11c-1.73,2.75-2.19,5.41-1.36,7.92A1.11,1.11,0,0,0,5.64,374.47Z" style="fill: none"/>
    </clipPath>
    <clipPath id="clip-path-36" transform="translate(0.43 0.34)">
      <path d="M8.07,364.43l1.14.61-.22-.1-1.14-.62Z" style="fill: none"/>
    </clipPath>
    <clipPath id="clip-path-47" transform="translate(0.43 0.34)">
      <path d="M275.83,369.52l1.14.62a.29.29,0,0,1,.13.11l-1.14-.62A.29.29,0,0,0,275.83,369.52Z" style="fill: none"/>
    </clipPath>
    <clipPath id="clip-path-48" transform="translate(0.43 0.34)">
      <path d="M276.68,370.61l-1.14-.62c.27,0,.42-.12.45-.24l1.14.62C277.1,370.49,277,370.58,276.68,370.61Z" style="fill: none"/>
    </clipPath>
    <clipPath id="clip-path-49" transform="translate(0.43 0.34)">
      <path d="M275.69,370.6l-1.14-.62a4.12,4.12,0,0,0,1,0l1.14.62A4.12,4.12,0,0,1,275.69,370.6Z" style="fill: none"/>
    </clipPath>
    <clipPath id="clip-path-50" transform="translate(0.43 0.34)">
      <path d="M276.18,368.86l1.14.62a2.9,2.9,0,0,0-1.45-.24q-1.17,0-2.37.21a25.08,25.08,0,0,0-4.37,1l-1.14-.62a25.08,25.08,0,0,1,4.37-1q1.2-.16,2.37-.21A2.9,2.9,0,0,1,276.18,368.86Z" style="fill: none"/>
    </clipPath>
    <clipPath id="clip-path-51" transform="translate(0.43 0.34)">
      <path d="M267.41,373.25l-1.14-.62a13.54,13.54,0,0,1,6-2.58,10.17,10.17,0,0,1,2.27-.07l1.14.62a10.17,10.17,0,0,0-2.27.07A13.54,13.54,0,0,0,267.41,373.25Z" style="fill: none"/>
    </clipPath>
    <clipPath id="clip-path-52" transform="translate(0.43 0.34)">
      <path d="M266.07,373.84l-1.14-.62h.2a2.82,2.82,0,0,0,1.14-.59l1.14.62a2.82,2.82,0,0,1-1.14.59A.65.65,0,0,1,266.07,373.84Z" style="fill: none"/>
    </clipPath>
    <clipPath id="clip-path-53" transform="translate(0.43 0.34)">
      <path d="M266,373.81l-1.14-.62.07,0,1.14.62Z" style="fill: none"/>
    </clipPath>
    <clipPath id="clip-path-54" transform="translate(0.43 0.34)">
      <path d="M268.49,371l-1.14-.62a9.32,9.32,0,0,1,.76-4.56l1.14.62A9.32,9.32,0,0,0,268.49,371Z" style="fill: none"/>
    </clipPath>
    <clipPath id="clip-path-55" transform="translate(0.43 0.34)">
      <path d="M265.63,374.46l-1.14-.62a1,1,0,0,1-.48-.62l1.14.62A1,1,0,0,0,265.63,374.46Z" style="fill: none"/>
    </clipPath>
    <clipPath id="clip-path-56" transform="translate(0.43 0.34)">
      <path d="M267.72,365.09l1.14.62c.55.31.46.56.39.75l-1.14-.62C268.18,365.65,268.27,365.4,267.72,365.09Z" style="fill: none"/>
    </clipPath>
    <clipPath id="clip-path-57" transform="translate(0.43 0.34)">
      <path d="M268.07,364.43l1.14.62-.23-.11-1.14-.62Z" style="fill: none"/>
    </clipPath>
    <clipPath id="clip-path-58" transform="translate(0.43 0.34)">
      <path d="M266.5,365.92l-1.14-.62a2.27,2.27,0,0,1,1.54-1.11,1.63,1.63,0,0,1,.94.13l1.14.62a1.63,1.63,0,0,0-.94-.13A2.27,2.27,0,0,0,266.5,365.92Z" style="fill: none"/>
    </clipPath>
    <clipPath id="clip-path-59" transform="translate(0.43 0.34)">
      <path d="M265.15,373.84l-1.14-.62c-.83-2.51-.37-5.17,1.35-7.92l1.14.62C264.78,368.67,264.32,371.33,265.15,373.84Z" style="fill: none"/>
    </clipPath>
  </defs>
  <g id="Panel_8_HP" data-name="Panel 8 HP">
    <g style="clip-path: url(#clip-path)">
      <g>
        <g style="clip-path: url(#clip-path-2)">
          <rect x="0.84" y="0.84" width="279.18" height="379" style="fill: url(#Dégradé_sans_nom)"/>
        </g>
        <g style="clip-path: url(#clip-path)">
          <rect x="0.84" y="0.84" width="279.18" height="379" style="fill: none;stroke: #010101;stroke-miterlimit: 10;stroke-width: 1.68410003185272px"/>
        </g>
      </g>
    </g>
  </g>
  <rect x="13.58" y="28.39" width="58.98" height="323.9" rx="12" style="fill: none;stroke: #fff;stroke-miterlimit: 10;stroke-width: 0.25px"/>
  <rect x="13.08" y="27.84" width="60" height="325" rx="12" style="fill: none;stroke: #000;stroke-miterlimit: 10;stroke-width: 0.25px"/>
  <rect x="78.58" y="26.85" width="58.98" height="151.98" rx="12" style="fill: none;stroke: #fff;stroke-miterlimit: 10;stroke-width: 0.25px"/>
  <rect x="78.08" y="26.59" width="60" height="152.5" rx="12" style="fill: none;stroke: #000;stroke-miterlimit: 10;stroke-width: 0.25px"/>
  <g>
    <path d="M27.7,66h1.71a2,2,0,0,1,1.5.67,2.21,2.21,0,0,1,.64,1.58,1.81,1.81,0,0,1-.45,1.33,1.82,1.82,0,0,1,.45,1.35,2.2,2.2,0,0,1-.65,1.57,1.92,1.92,0,0,1-1.43.68H27.7a1.9,1.9,0,0,1-1.48-.67A2.22,2.22,0,0,1,25.57,71,1.92,1.92,0,0,1,26,69.6a2,2,0,0,1-.43-1.35,2.16,2.16,0,0,1,.65-1.55A2.1,2.1,0,0,1,27.7,66Zm1.71,5.38a.39.39,0,0,0,.43-.44c0-.31-.14-.46-.43-.46H27.7c-.29,0-.43.15-.43.45s.15.47.43.46Zm0-2.68c.29,0,.43-.17.42-.5s-.13-.4-.42-.4H27.7c-.29,0-.43.15-.43.45s.14.45.43.45Z" transform="translate(0.43 0.34)" style="fill: #fff"/>
    <path d="M33.37,66a1,1,0,0,1,.74.37l2.56,3.43v-3c0-.51.25-.77.73-.78.64,0,1,.27,1,.8v5.59c0,.52-.33.78-1,.78a.87.87,0,0,1-.72-.36L34.11,69.4v3c0,.52-.25.78-.74.78s-1-.26-1-.79V66.8C32.4,66.28,32.72,66,33.37,66Z" transform="translate(0.43 0.34)" style="fill: #fff"/>
    <path d="M42.64,66a3.32,3.32,0,0,1,1.68.46A3.28,3.28,0,0,1,45.6,67.8a3.78,3.78,0,0,1,.46,1.81,3.69,3.69,0,0,1-.45,1.79,3.3,3.3,0,0,1-1.26,1.33,3.33,3.33,0,0,1-3.41,0,3.3,3.3,0,0,1-1.26-1.33,3.8,3.8,0,0,1-.45-1.79,3.88,3.88,0,0,1,.45-1.81A3.28,3.28,0,0,1,41,66.47,3.32,3.32,0,0,1,42.64,66Zm-.83,2a1.57,1.57,0,0,0-.64.66,2,2,0,0,0-.23.91,1.76,1.76,0,0,0,.23.89,1.65,1.65,0,0,0,2.33.67,1.72,1.72,0,0,0,.64-.67,1.86,1.86,0,0,0,.22-.89,1.84,1.84,0,0,0-.23-.91,1.57,1.57,0,0,0-.64-.66,1.65,1.65,0,0,0-1.68,0Z" transform="translate(0.43 0.34)" style="fill: #fff"/>
    <path d="M47.77,66h4.32c.53,0,.8.3.8.87s-.28.92-.86.93H50.76V72.3c0,.59-.29.89-.86.89a.76.76,0,0,1-.85-.87V67.81H47.77c-.57,0-.85-.3-.85-.9S47.21,66,47.77,66Z" transform="translate(0.43 0.34)" style="fill: #fff"/>
    <path d="M54.6,73.2a.84.84,0,0,1-.42-.12.79.79,0,0,1-.32-.33,1,1,0,0,1-.11-.45,10.31,10.31,0,0,1,.82-2c.55-1.17.86-1.82.94-2a.79.79,0,0,1,.31-.34.84.84,0,0,1,.43-.11.78.78,0,0,1,.42.11.81.81,0,0,1,.32.34,1.06,1.06,0,0,1,.12.48A14,14,0,0,1,56,71.39h2V66.88a.86.86,0,1,1,1.72,0v7.21a.86.86,0,1,1-1.71,0V73.2Z" transform="translate(0.43 0.34)" style="fill: #fff"/>
  </g>
  <g>
    <path d="M93.56,66h3a2,2,0,0,1,1.47.66,2.27,2.27,0,0,1,0,3.17,2,2,0,0,1-1.51.66h-.84c-.57,0-.85-.3-.85-.91s.29-.91.86-.9h.61c.45,0,.67-.14.66-.43s-.22-.45-.67-.45H94.42V72.3c0,.59-.28.89-.86.89s-.85-.29-.85-.89V66.9A.78.78,0,0,1,93.56,66Z" transform="translate(0.43 0.34)" style="fill: #fff"/>
    <path d="M100.4,66h3a2,2,0,0,1,1.48.68,2.15,2.15,0,0,1,.64,1.56,3.41,3.41,0,0,1-.32,1.57,1.09,1.09,0,0,1-1,.66l1,1.12a1,1,0,0,1,.26.7c0,.6-.3.9-.86.89a1.13,1.13,0,0,1-.86-.44l-1.7-2.23a1.45,1.45,0,0,1-.44-.92c0-.61.29-.91.86-.9h.61c.45,0,.67-.14.67-.43s-.23-.45-.67-.45h-1.89V72.3a.77.77,0,0,1-.85.89c-.58,0-.86-.29-.86-.89V66.9A.78.78,0,0,1,100.4,66Z" transform="translate(0.43 0.34)" style="fill: #fff"/>
    <path d="M109.78,66a3.32,3.32,0,0,1,1.68.46,3.28,3.28,0,0,1,1.28,1.33,3.79,3.79,0,0,1,.47,1.81,3.7,3.7,0,0,1-.46,1.79,3.3,3.3,0,0,1-1.26,1.33,3.33,3.33,0,0,1-3.41,0,3.3,3.3,0,0,1-1.26-1.33,3.8,3.8,0,0,1-.45-1.79,3.88,3.88,0,0,1,.45-1.81,3.28,3.28,0,0,1,1.28-1.33A3.32,3.32,0,0,1,109.78,66ZM109,68a1.57,1.57,0,0,0-.64.66,2,2,0,0,0-.23.91,1.76,1.76,0,0,0,.23.89,1.65,1.65,0,0,0,2.33.67,1.72,1.72,0,0,0,.64-.67,1.86,1.86,0,0,0,.22-.89,1.84,1.84,0,0,0-.23-.91,1.57,1.57,0,0,0-.64-.66A1.65,1.65,0,0,0,109,68Z" transform="translate(0.43 0.34)" style="fill: #fff"/>
    <path d="M114.91,66h3a2,2,0,0,1,1.5.67,2.16,2.16,0,0,1,.63,1.58,1.81,1.81,0,0,1-.44,1.33,1.87,1.87,0,0,1,.45,1.35,2.24,2.24,0,0,1-.65,1.57,1.92,1.92,0,0,1-1.44.68h-3c-.56,0-.84-.29-.84-.89V66.91C114.06,66.31,114.34,66,114.91,66Zm.86,1.8v3.58h2.12a.38.38,0,0,0,.43-.44c0-.31-.14-.46-.42-.46h-.42c-.58,0-.86-.32-.86-.95a.74.74,0,0,1,.85-.84h.43c.29,0,.42-.17.41-.5s-.12-.4-.41-.4Z" transform="translate(0.43 0.34)" style="fill: #fff"/>
    <path d="M121.74,71.4a.87.87,0,0,1,.73.45.89.89,0,0,1,.12.45.88.88,0,0,1-.12.44.82.82,0,0,1-.31.33.79.79,0,0,1-.42.12.85.85,0,0,1-.43-.12.82.82,0,0,1-.31-.33,1,1,0,0,1,0-.89.85.85,0,0,1,.32-.33A.79.79,0,0,1,121.74,71.4Z" transform="translate(0.43 0.34)" style="fill: #fff"/>
  </g>
  <g>
    <path d="M23.07,122.29c0-.61.28-.91.84-.91h.43v-3.57c-.56,0-.83-.29-.83-.9a.79.79,0,0,1,.84-.89h.84q.82,0,.84.87v4.49h.43c.56,0,.85.32.85.93s-.27.87-.79.88h-2.6Q23.07,123.18,23.07,122.29Z" transform="translate(0.43 0.34)" style="fill: #fff"/>
    <path d="M30.65,116h2.12c.55,0,.83.3.83.89s-.27.9-.83.9H30.65a.4.4,0,0,0-.43.46v.45h2.1a2,2,0,0,1,1.49.69,2.17,2.17,0,0,1,.62,1.56,2.22,2.22,0,0,1-.63,1.57,1.92,1.92,0,0,1-1.47.67H30.65a2,2,0,0,1-1.47-.67,2.28,2.28,0,0,1-.64-1.58v-2.71a2.2,2.2,0,0,1,.64-1.55A2,2,0,0,1,30.65,116Zm-.42,4.49v.44c0,.31.14.46.42.46h1.7c.28,0,.42-.16.42-.45a.38.38,0,0,0-.43-.45Z" transform="translate(0.43 0.34)" style="fill: #fff"/>
    <path d="M36.24,116a1,1,0,0,1,.73.37l2.52,3.43v-3q0-.76.72-.78c.63,0,.95.27.95.8v5.59q0,.78-1,.78a.85.85,0,0,1-.71-.36L37,119.4v3c0,.52-.25.78-.73.78-.64,0-1-.26-1-.79v-5.6Q35.28,116,36.24,116Z" transform="translate(0.43 0.34)" style="fill: #fff"/>
    <path d="M45.38,116a3.28,3.28,0,0,1,1.66.46,3.24,3.24,0,0,1,1.26,1.33,3.79,3.79,0,0,1,0,3.6,3.25,3.25,0,0,1-1.24,1.33,3.34,3.34,0,0,1-1.69.47,3.27,3.27,0,0,1-1.67-.47,3.21,3.21,0,0,1-1.25-1.33,3.8,3.8,0,0,1-.45-1.79,3.88,3.88,0,0,1,.45-1.81A3.32,3.32,0,0,1,45.38,116Zm-.82,2a1.55,1.55,0,0,0-.63.66,2,2,0,0,0-.23.91,1.87,1.87,0,0,0,.23.89,1.55,1.55,0,0,0,.62.67,1.65,1.65,0,0,0,2.31-.67,2,2,0,0,0,.22-.89,2,2,0,0,0-.23-.91,1.55,1.55,0,0,0-.63-.66,1.6,1.6,0,0,0-.83-.23A1.58,1.58,0,0,0,44.56,118Z" transform="translate(0.43 0.34)" style="fill: #fff"/>
    <path d="M50.44,116H54.7c.53,0,.79.3.79.87s-.28.92-.85.93H53.38v4.49c0,.59-.29.89-.85.89a.76.76,0,0,1-.84-.87v-4.51H50.44q-.84,0-.84-.9C49.6,116.31,49.88,116,50.44,116Z" transform="translate(0.43 0.34)" style="fill: #fff"/>
    <path d="M57.18,123.2a.81.81,0,0,1-.42-.12.77.77,0,0,1-.31-.33.88.88,0,0,1-.11-.45,10.65,10.65,0,0,1,.81-2c.54-1.17.85-1.82.92-2a.79.79,0,0,1,.31-.34.83.83,0,0,1,.42-.11.78.78,0,0,1,.42.11.79.79,0,0,1,.31.34,1.07,1.07,0,0,1,.13.48,15.33,15.33,0,0,1-1.12,2.55h2v-4.51a.77.77,0,0,1,.85-.89c.56,0,.84.3.85.89v7.21a.85.85,0,1,1-1.69,0v-.89Z" transform="translate(0.43 0.34)" style="fill: #fff"/>
  </g>
  <g>
    <path d="M96.28,116a.82.82,0,0,1,.62.23l1.91,2,1.9-2a.81.81,0,0,1,.62-.23c.56,0,.84.3.85.89v5.4a.78.78,0,0,1-.85.9c-.56,0-.84-.3-.85-.9v-3.18l-1,1.16a.82.82,0,0,1-.63.22.83.83,0,0,1-.62-.23c-.14-.16-.49-.53-1.06-1.13v3.16c0,.59-.28.89-.84.89s-.84-.29-.84-.89v-5.4C95.44,116.31,95.72,116,96.28,116Z" transform="translate(0.43 0.34)" style="fill: #fff"/>
    <path d="M106.38,116a3.32,3.32,0,0,1,2.92,1.79,3.89,3.89,0,0,1,.46,1.81,3.8,3.8,0,0,1-.45,1.79,3.21,3.21,0,0,1-1.25,1.33,3.22,3.22,0,0,1-3.35,0,3.21,3.21,0,0,1-1.25-1.33,3.8,3.8,0,0,1-.45-1.79,3.88,3.88,0,0,1,.45-1.81,3.24,3.24,0,0,1,1.26-1.33A3.28,3.28,0,0,1,106.38,116Zm-.82,2a1.55,1.55,0,0,0-.63.66,2,2,0,0,0-.23.91,2,2,0,0,0,.22.89,1.63,1.63,0,0,0,2.31.67,1.55,1.55,0,0,0,.62-.67,1.87,1.87,0,0,0,.23-.89,2,2,0,0,0-.23-.91,1.55,1.55,0,0,0-.63-.66,1.6,1.6,0,0,0-.83-.23A1.58,1.58,0,0,0,105.56,118Z" transform="translate(0.43 0.34)" style="fill: #fff"/>
    <path d="M111.44,116H114c2.24,0,3.37,1.2,3.37,3.59s-1.1,3.59-3.28,3.59h-2.62c-.56,0-.84-.29-.84-.89v-5.39C110.6,116.31,110.88,116,111.44,116Zm.85,1.8v3.58H114c1.11,0,1.67-.59,1.66-1.8s-.55-1.77-1.67-1.78Z" transform="translate(0.43 0.34)" style="fill: #fff"/>
    <path d="M119,121.4a.78.78,0,0,1,.41.12.82.82,0,0,1,.31.33.89.89,0,0,1,.12.45.88.88,0,0,1-.12.44.8.8,0,0,1-.3.33.84.84,0,0,1-.42.12.79.79,0,0,1-.42-.12.82.82,0,0,1-.31-.33,1,1,0,0,1,0-.89.9.9,0,0,1,.31-.33A.84.84,0,0,1,119,121.4Z" transform="translate(0.43 0.34)" style="fill: #fff"/>
  </g>
  <g>
    <path d="M23.07,172.29c0-.61.28-.91.84-.91h.43v-3.57c-.56,0-.83-.29-.83-.9a.79.79,0,0,1,.84-.89h.84q.82,0,.84.87v4.49h.43c.56,0,.85.32.85.93s-.27.87-.79.88h-2.6Q23.07,173.18,23.07,172.29Z" transform="translate(0.43 0.34)" style="fill: #fff"/>
    <path d="M30.65,166h2.12c.55,0,.83.3.83.89s-.27.9-.83.9H30.65a.4.4,0,0,0-.43.46v.45h2.1a2,2,0,0,1,1.49.69,2.17,2.17,0,0,1,.62,1.56,2.22,2.22,0,0,1-.63,1.57,1.92,1.92,0,0,1-1.47.67H30.65a2,2,0,0,1-1.47-.67,2.28,2.28,0,0,1-.64-1.58v-2.71a2.2,2.2,0,0,1,.64-1.55A2,2,0,0,1,30.65,166Zm-.42,4.49v.44c0,.31.14.46.42.46h1.7c.28,0,.42-.16.42-.45a.38.38,0,0,0-.43-.45Z" transform="translate(0.43 0.34)" style="fill: #fff"/>
    <path d="M36.24,166a1,1,0,0,1,.73.37l2.52,3.43v-3q0-.77.72-.78c.63,0,.95.27.95.8v5.59q0,.78-1,.78a.85.85,0,0,1-.71-.36L37,169.4v3c0,.52-.25.78-.73.78-.64,0-1-.26-1-.79v-5.6Q35.28,166,36.24,166Z" transform="translate(0.43 0.34)" style="fill: #fff"/>
    <path d="M45.38,166a3.28,3.28,0,0,1,1.66.46,3.24,3.24,0,0,1,1.26,1.33,3.79,3.79,0,0,1,0,3.6,3.25,3.25,0,0,1-1.24,1.33,3.34,3.34,0,0,1-1.69.47,3.27,3.27,0,0,1-1.67-.47,3.21,3.21,0,0,1-1.25-1.33,3.8,3.8,0,0,1-.45-1.79,3.88,3.88,0,0,1,.45-1.81A3.32,3.32,0,0,1,45.38,166Zm-.82,2a1.55,1.55,0,0,0-.63.66,2,2,0,0,0-.23.91,1.87,1.87,0,0,0,.23.89,1.55,1.55,0,0,0,.62.67,1.65,1.65,0,0,0,2.31-.67,2,2,0,0,0,.22-.89,2,2,0,0,0-.23-.91,1.55,1.55,0,0,0-.63-.66,1.6,1.6,0,0,0-.83-.23A1.58,1.58,0,0,0,44.56,168Z" transform="translate(0.43 0.34)" style="fill: #fff"/>
    <path d="M50.44,166H54.7c.53,0,.79.3.79.87s-.28.92-.85.93H53.38v4.49c0,.59-.29.89-.85.89a.76.76,0,0,1-.84-.87v-4.51H50.44q-.84,0-.84-.9C49.6,166.31,49.88,166,50.44,166Z" transform="translate(0.43 0.34)" style="fill: #fff"/>
    <path d="M62.23,169.6q0,.9-.84.9H58c0,.61.42.91,1.26.91H61.4c.55,0,.83.31.83.91s-.28.9-.84.89h-2.1q-3,0-3-3.59c0-.6.29-.9.84-.9h3.38c0-.6-.42-.9-1.25-.9H57.18c-.55,0-.84-.32-.85-.91s.3-.89.85-.89h2.1C61.25,166,62.23,167.2,62.23,169.6Z" transform="translate(0.43 0.34)" style="fill: #fff"/>
  </g>
  <g>
    <path d="M102,172.29c0-.61.28-.91.84-.91h.43v-3.57c-.56,0-.83-.29-.83-.9a.79.79,0,0,1,.84-.89h.84q.83,0,.84.87v4.49h.43c.57,0,.85.32.85.93s-.27.87-.79.88h-2.6Q102,173.18,102,172.29Z" transform="translate(0.43 0.34)" style="fill: #fff"/>
    <path d="M109.54,166h2.12c.55,0,.83.3.84.89s-.28.9-.83.9h-2.13a.4.4,0,0,0-.43.46v.45h2.1a2,2,0,0,1,1.49.69,2.17,2.17,0,0,1,.62,1.56,2.22,2.22,0,0,1-.63,1.57,1.92,1.92,0,0,1-1.47.67h-1.69a2,2,0,0,1-1.47-.67,2.23,2.23,0,0,1-.63-1.58v-2.71a2.23,2.23,0,0,1,.63-1.55A2,2,0,0,1,109.54,166Zm-.42,4.49v.44c0,.31.15.46.42.46h1.7a.4.4,0,0,0,.43-.45.39.39,0,0,0-.44-.45Z" transform="translate(0.43 0.34)" style="fill: #fff"/>
  </g>
  <rect x="78.58" y="186.85" width="58.98" height="151.98" rx="12" style="fill: none;stroke: #fff;stroke-miterlimit: 10;stroke-width: 0.25px"/>
  <rect x="78.08" y="186.59" width="60" height="152.5" rx="12" style="fill: none;stroke: #000;stroke-miterlimit: 10;stroke-width: 0.25px"/>
  <g>
    <path d="M93.56,226h3a2,2,0,0,1,1.47.66,2.27,2.27,0,0,1,0,3.17,2,2,0,0,1-1.51.66h-.84c-.57,0-.85-.3-.85-.91s.29-.91.86-.9h.61c.45,0,.67-.14.66-.43s-.22-.45-.67-.45H94.42v4.48c0,.6-.28.9-.86.9s-.85-.29-.85-.89v-5.4A.78.78,0,0,1,93.56,226Z" transform="translate(0.43 0.34)" style="fill: #fff"/>
    <path d="M100.4,226h3a2,2,0,0,1,1.48.68,2.15,2.15,0,0,1,.64,1.56,3.41,3.41,0,0,1-.32,1.57,1.09,1.09,0,0,1-1,.66l1,1.12a1,1,0,0,1,.26.7c0,.6-.3.9-.86.89a1.13,1.13,0,0,1-.86-.44l-1.7-2.22a1.5,1.5,0,0,1-.44-.93c0-.61.29-.91.86-.9h.61c.45,0,.67-.14.67-.43s-.23-.45-.67-.45h-1.89v4.48c0,.6-.28.9-.85.9s-.86-.29-.86-.89v-5.4A.78.78,0,0,1,100.4,226Z" transform="translate(0.43 0.34)" style="fill: #fff"/>
    <path d="M109.78,226a3.32,3.32,0,0,1,1.68.46,3.28,3.28,0,0,1,1.28,1.33,3.79,3.79,0,0,1,.47,1.81,3.7,3.7,0,0,1-.46,1.79,3.3,3.3,0,0,1-1.26,1.33,3.33,3.33,0,0,1-3.41,0,3.3,3.3,0,0,1-1.26-1.33,3.8,3.8,0,0,1-.45-1.79,3.88,3.88,0,0,1,.45-1.81,3.28,3.28,0,0,1,1.28-1.33A3.32,3.32,0,0,1,109.78,226Zm-.83,2a1.57,1.57,0,0,0-.64.66,2,2,0,0,0-.23.91,1.76,1.76,0,0,0,.23.89,1.65,1.65,0,0,0,2.33.67,1.72,1.72,0,0,0,.64-.67,1.91,1.91,0,0,0,0-1.8,1.57,1.57,0,0,0-.64-.66,1.65,1.65,0,0,0-1.68,0Z" transform="translate(0.43 0.34)" style="fill: #fff"/>
    <path d="M114.91,226h3a2,2,0,0,1,1.5.67,2.16,2.16,0,0,1,.63,1.58,1.81,1.81,0,0,1-.44,1.33A1.88,1.88,0,0,1,120,231a2.24,2.24,0,0,1-.65,1.56,1.92,1.92,0,0,1-1.44.68h-3q-.84,0-.84-.9v-5.38C114.06,226.31,114.34,226,114.91,226Zm.86,1.8v3.58h2.12a.38.38,0,0,0,.43-.44c0-.31-.14-.46-.42-.46h-.42c-.58,0-.86-.32-.86-1a.74.74,0,0,1,.85-.84h.43c.29,0,.42-.17.41-.5s-.12-.4-.41-.4Z" transform="translate(0.43 0.34)" style="fill: #fff"/>
    <path d="M121.74,231.4a.87.87,0,0,1,.73.45.89.89,0,0,1,.12.45.88.88,0,0,1-.12.44.82.82,0,0,1-.31.33.79.79,0,0,1-.42.12.85.85,0,0,1-.43-.12.82.82,0,0,1-.31-.33,1,1,0,0,1,0-.89.85.85,0,0,1,.32-.33A.79.79,0,0,1,121.74,231.4Z" transform="translate(0.43 0.34)" style="fill: #fff"/>
  </g>
  <g>
    <path d="M96.28,276a.82.82,0,0,1,.62.23l1.91,2,1.9-2a.81.81,0,0,1,.62-.23c.56,0,.84.3.85.89v5.39c0,.6-.28.9-.85.91s-.84-.3-.85-.91v-3.17l-1,1.16a.82.82,0,0,1-.63.22.83.83,0,0,1-.62-.23c-.14-.16-.49-.53-1.06-1.13v3.15q0,.9-.84.9t-.84-.9V276.9C95.44,276.31,95.72,276,96.28,276Z" transform="translate(0.43 0.34)" style="fill: #fff"/>
    <path d="M106.38,276a3.32,3.32,0,0,1,2.92,1.79,3.89,3.89,0,0,1,.46,1.81,3.8,3.8,0,0,1-.45,1.79,3.21,3.21,0,0,1-1.25,1.33,3.22,3.22,0,0,1-3.35,0,3.21,3.21,0,0,1-1.25-1.33,3.8,3.8,0,0,1-.45-1.79,3.88,3.88,0,0,1,.45-1.81,3.24,3.24,0,0,1,1.26-1.33A3.28,3.28,0,0,1,106.38,276Zm-.82,2a1.55,1.55,0,0,0-.63.66,1.91,1.91,0,0,0,0,1.8,1.63,1.63,0,0,0,2.31.67,1.55,1.55,0,0,0,.62-.67,1.87,1.87,0,0,0,.23-.89,2,2,0,0,0-.23-.91,1.55,1.55,0,0,0-.63-.66,1.71,1.71,0,0,0-.83-.23A1.68,1.68,0,0,0,105.56,278Z" transform="translate(0.43 0.34)" style="fill: #fff"/>
    <path d="M111.44,276H114c2.24,0,3.37,1.2,3.37,3.59s-1.1,3.59-3.28,3.59h-2.62q-.84,0-.84-.9v-5.38C110.6,276.31,110.88,276,111.44,276Zm.85,1.8v3.58H114c1.11,0,1.67-.59,1.66-1.8s-.55-1.77-1.67-1.78Z" transform="translate(0.43 0.34)" style="fill: #fff"/>
    <path d="M119,281.4a.78.78,0,0,1,.41.12.82.82,0,0,1,.31.33.89.89,0,0,1,.12.45.88.88,0,0,1-.12.44.8.8,0,0,1-.3.33.84.84,0,0,1-.42.12.79.79,0,0,1-.42-.12.82.82,0,0,1-.31-.33,1,1,0,0,1,0-.89.9.9,0,0,1,.31-.33A.84.84,0,0,1,119,281.4Z" transform="translate(0.43 0.34)" style="fill: #fff"/>
  </g>
  <path d="M106.8,326h1.69a2,2,0,0,1,1.47.67,2.16,2.16,0,0,1,.63,1.58,1.85,1.85,0,0,1-.43,1.33,1.92,1.92,0,0,1,.44,1.36,2.27,2.27,0,0,1-.64,1.56,1.9,1.9,0,0,1-1.42.68H106.8a1.89,1.89,0,0,1-1.47-.67,2.24,2.24,0,0,1-.63-1.57,1.92,1.92,0,0,1,.42-1.35,1.88,1.88,0,0,1-.42-1.35,2.18,2.18,0,0,1,.63-1.55A2.1,2.1,0,0,1,106.8,326Zm1.68,5.38c.28,0,.42-.15.42-.44s-.13-.46-.41-.46H106.8c-.29,0-.43.15-.43.45s.15.47.43.46Zm0-2.68c.28,0,.41-.17.41-.5a.36.36,0,0,0-.41-.4H106.8a.39.39,0,0,0-.43.45.4.4,0,0,0,.43.45Z" transform="translate(0.43 0.34)" style="fill: #fff"/>
  <rect x="143.58" y="26.85" width="58.98" height="151.98" rx="12" style="fill: none;stroke: #fff;stroke-miterlimit: 10;stroke-width: 0.25px"/>
  <rect x="143.08" y="26.59" width="60" height="152.5" rx="12" style="fill: none;stroke: #000;stroke-miterlimit: 10;stroke-width: 0.25px"/>
  <g>
    <path d="M158.56,66h3a2,2,0,0,1,1.47.66,2.27,2.27,0,0,1,0,3.17,2,2,0,0,1-1.51.66h-.84c-.57,0-.85-.3-.85-.91s.29-.91.86-.9h.61c.45,0,.67-.14.66-.43s-.22-.45-.67-.45h-1.88V72.3c0,.59-.28.89-.86.89s-.85-.29-.85-.89V66.9A.78.78,0,0,1,158.56,66Z" transform="translate(0.43 0.34)" style="fill: #fff"/>
    <path d="M165.4,66h3a2,2,0,0,1,1.48.68,2.15,2.15,0,0,1,.64,1.56,3.41,3.41,0,0,1-.32,1.57,1.09,1.09,0,0,1-1,.66l1.06,1.12a1,1,0,0,1,.25.7c0,.6-.3.9-.86.89a1.1,1.1,0,0,1-.85-.44l-1.71-2.23a1.45,1.45,0,0,1-.44-.92q0-.91.87-.9h.6c.45,0,.67-.14.67-.43s-.23-.45-.67-.45h-1.89V72.3a.77.77,0,0,1-.85.89c-.58,0-.86-.29-.86-.89V66.9A.78.78,0,0,1,165.4,66Z" transform="translate(0.43 0.34)" style="fill: #fff"/>
    <path d="M174.78,66a3.32,3.32,0,0,1,1.68.46,3.28,3.28,0,0,1,1.28,1.33,3.79,3.79,0,0,1,.47,1.81,3.7,3.7,0,0,1-.46,1.79,3.23,3.23,0,0,1-1.26,1.33,3.33,3.33,0,0,1-3.41,0,3.3,3.3,0,0,1-1.26-1.33,3.8,3.8,0,0,1-.45-1.79,3.88,3.88,0,0,1,.45-1.81,3.28,3.28,0,0,1,1.28-1.33A3.32,3.32,0,0,1,174.78,66ZM174,68a1.57,1.57,0,0,0-.64.66,2,2,0,0,0-.23.91,1.76,1.76,0,0,0,.23.89,1.63,1.63,0,0,0,.63.67,1.66,1.66,0,0,0,.85.24,1.63,1.63,0,0,0,.85-.24,1.72,1.72,0,0,0,.64-.67,1.86,1.86,0,0,0,.22-.89,1.84,1.84,0,0,0-.23-.91,1.51,1.51,0,0,0-.64-.66A1.65,1.65,0,0,0,174,68Z" transform="translate(0.43 0.34)" style="fill: #fff"/>
    <path d="M179.91,66h3a2,2,0,0,1,1.5.67,2.21,2.21,0,0,1,.64,1.58,1.85,1.85,0,0,1-.45,1.33,1.87,1.87,0,0,1,.45,1.35,2.24,2.24,0,0,1-.65,1.57,1.92,1.92,0,0,1-1.44.68h-3c-.56,0-.84-.29-.84-.89V66.91C179.06,66.31,179.34,66,179.91,66Zm.86,1.8v3.58h2.12a.38.38,0,0,0,.43-.44c0-.31-.14-.46-.42-.46h-.42c-.58,0-.86-.32-.86-.95a.74.74,0,0,1,.85-.84h.43c.29,0,.42-.17.41-.5s-.12-.4-.41-.4Z" transform="translate(0.43 0.34)" style="fill: #fff"/>
    <path d="M186.74,71.4a.87.87,0,0,1,.73.45.89.89,0,0,1,.12.45.88.88,0,0,1-.12.44.82.82,0,0,1-.31.33.79.79,0,0,1-.42.12.85.85,0,0,1-.43-.12.82.82,0,0,1-.31-.33,1,1,0,0,1,0-.89.85.85,0,0,1,.32-.33A.79.79,0,0,1,186.74,71.4Z" transform="translate(0.43 0.34)" style="fill: #fff"/>
  </g>
  <g>
    <path d="M161.28,116a.86.86,0,0,1,.63.23l1.9,2,1.9-2a.81.81,0,0,1,.62-.23c.56,0,.84.3.85.89v5.4a.78.78,0,0,1-.85.9c-.56,0-.84-.3-.85-.9v-3.18l-1,1.16a.82.82,0,0,1-.63.22.83.83,0,0,1-.62-.23c-.14-.16-.49-.53-1.06-1.13v3.16c0,.59-.28.89-.84.89s-.84-.29-.84-.89v-5.4C160.44,116.31,160.72,116,161.28,116Z" transform="translate(0.43 0.34)" style="fill: #fff"/>
    <path d="M171.38,116a3.28,3.28,0,0,1,1.66.46,3.24,3.24,0,0,1,1.26,1.33,3.89,3.89,0,0,1,.46,1.81,3.8,3.8,0,0,1-.45,1.79,3.21,3.21,0,0,1-1.25,1.33,3.22,3.22,0,0,1-3.35,0,3.21,3.21,0,0,1-1.25-1.33,3.8,3.8,0,0,1-.45-1.79,3.88,3.88,0,0,1,.45-1.81,3.24,3.24,0,0,1,1.26-1.33A3.28,3.28,0,0,1,171.38,116Zm-.82,2a1.55,1.55,0,0,0-.63.66,2,2,0,0,0-.23.91,2,2,0,0,0,.22.89,1.63,1.63,0,0,0,2.31.67,1.55,1.55,0,0,0,.62-.67,1.87,1.87,0,0,0,.23-.89,2,2,0,0,0-.23-.91,1.55,1.55,0,0,0-.63-.66,1.6,1.6,0,0,0-.83-.23A1.58,1.58,0,0,0,170.56,118Z" transform="translate(0.43 0.34)" style="fill: #fff"/>
    <path d="M176.44,116H179c2.24,0,3.37,1.2,3.37,3.59s-1.1,3.59-3.28,3.59h-2.62c-.56,0-.84-.29-.84-.89v-5.39C175.6,116.31,175.88,116,176.44,116Zm.85,1.8v3.58H179c1.11,0,1.67-.59,1.66-1.8s-.55-1.77-1.67-1.78Z" transform="translate(0.43 0.34)" style="fill: #fff"/>
    <path d="M184,121.4a.78.78,0,0,1,.41.12.82.82,0,0,1,.31.33.89.89,0,0,1,.12.45,1,1,0,0,1-.11.44.9.9,0,0,1-.31.33.81.81,0,0,1-.42.12.79.79,0,0,1-.42-.12.82.82,0,0,1-.31-.33,1,1,0,0,1,0-.89.9.9,0,0,1,.31-.33A.84.84,0,0,1,184,121.4Z" transform="translate(0.43 0.34)" style="fill: #fff"/>
  </g>
  <path d="M170.55,173.2a.79.79,0,0,1-.42-.12.71.71,0,0,1-.31-.33.89.89,0,0,1-.12-.45,10.31,10.31,0,0,1,.82-2c.54-1.17.85-1.82.92-2a.79.79,0,0,1,.31-.34.86.86,0,0,1,.84,0,.79.79,0,0,1,.31.34,1,1,0,0,1,.12.48,13.85,13.85,0,0,1-1.11,2.55h2v-4.51c0-.59.28-.88.84-.89a.78.78,0,0,1,.86.89v7.21a.85.85,0,1,1-1.69,0v-.89Z" transform="translate(0.43 0.34)" style="fill: #fff"/>
  <rect x="143.58" y="186.85" width="58.98" height="151.98" rx="12" style="fill: none;stroke: #fff;stroke-miterlimit: 10;stroke-width: 0.25px"/>
  <rect x="143.08" y="186.59" width="60" height="152.5" rx="12" style="fill: none;stroke: #000;stroke-miterlimit: 10;stroke-width: 0.25px"/>
  <g>
    <path d="M158.56,226h3a2,2,0,0,1,1.47.66,2.27,2.27,0,0,1,0,3.17,2,2,0,0,1-1.51.66h-.84c-.57,0-.85-.3-.85-.91s.29-.91.86-.9h.61c.45,0,.67-.14.66-.43s-.22-.45-.67-.45h-1.88v4.48c0,.6-.28.9-.86.9s-.85-.29-.85-.89v-5.4A.78.78,0,0,1,158.56,226Z" transform="translate(0.43 0.34)" style="fill: #fff"/>
    <path d="M165.4,226h3a2,2,0,0,1,1.48.68,2.15,2.15,0,0,1,.64,1.56,3.41,3.41,0,0,1-.32,1.57,1.09,1.09,0,0,1-1,.66l1.06,1.12a1,1,0,0,1,.25.7c0,.6-.3.9-.86.89a1.1,1.1,0,0,1-.85-.44l-1.71-2.22a1.5,1.5,0,0,1-.44-.93q0-.91.87-.9h.6c.45,0,.67-.14.67-.43s-.23-.45-.67-.45h-1.89v4.48c0,.6-.28.9-.85.9s-.86-.29-.86-.89v-5.4A.78.78,0,0,1,165.4,226Z" transform="translate(0.43 0.34)" style="fill: #fff"/>
    <path d="M174.78,226a3.32,3.32,0,0,1,1.68.46,3.28,3.28,0,0,1,1.28,1.33,3.79,3.79,0,0,1,.47,1.81,3.7,3.7,0,0,1-.46,1.79,3.23,3.23,0,0,1-1.26,1.33,3.33,3.33,0,0,1-3.41,0,3.3,3.3,0,0,1-1.26-1.33,3.8,3.8,0,0,1-.45-1.79,3.88,3.88,0,0,1,.45-1.81,3.28,3.28,0,0,1,1.28-1.33A3.32,3.32,0,0,1,174.78,226Zm-.83,2a1.57,1.57,0,0,0-.64.66,2,2,0,0,0-.23.91,1.76,1.76,0,0,0,.23.89,1.63,1.63,0,0,0,.63.67,1.66,1.66,0,0,0,.85.24,1.63,1.63,0,0,0,.85-.24,1.72,1.72,0,0,0,.64-.67,1.91,1.91,0,0,0,0-1.8,1.51,1.51,0,0,0-.64-.66,1.65,1.65,0,0,0-1.68,0Z" transform="translate(0.43 0.34)" style="fill: #fff"/>
    <path d="M179.91,226h3a2,2,0,0,1,1.5.67,2.21,2.21,0,0,1,.64,1.58,1.85,1.85,0,0,1-.45,1.33A1.88,1.88,0,0,1,185,231a2.24,2.24,0,0,1-.65,1.56,1.92,1.92,0,0,1-1.44.68h-3q-.84,0-.84-.9v-5.38C179.06,226.31,179.34,226,179.91,226Zm.86,1.8v3.58h2.12a.38.38,0,0,0,.43-.44c0-.31-.14-.46-.42-.46h-.42c-.58,0-.86-.32-.86-1a.74.74,0,0,1,.85-.84h.43c.29,0,.42-.17.41-.5s-.12-.4-.41-.4Z" transform="translate(0.43 0.34)" style="fill: #fff"/>
    <path d="M186.74,231.4a.87.87,0,0,1,.73.45.89.89,0,0,1,.12.45.88.88,0,0,1-.12.44.82.82,0,0,1-.31.33.79.79,0,0,1-.42.12.85.85,0,0,1-.43-.12.82.82,0,0,1-.31-.33,1,1,0,0,1,0-.89.85.85,0,0,1,.32-.33A.79.79,0,0,1,186.74,231.4Z" transform="translate(0.43 0.34)" style="fill: #fff"/>
  </g>
  <g>
    <path d="M161.28,276a.86.86,0,0,1,.63.23l1.9,2,1.9-2a.81.81,0,0,1,.62-.23c.56,0,.84.3.85.89v5.39c0,.6-.28.9-.85.91s-.84-.3-.85-.91v-3.17l-1,1.16a.82.82,0,0,1-.63.22.83.83,0,0,1-.62-.23c-.14-.16-.49-.53-1.06-1.13v3.15q0,.9-.84.9t-.84-.9V276.9C160.44,276.31,160.72,276,161.28,276Z" transform="translate(0.43 0.34)" style="fill: #fff"/>
    <path d="M171.38,276a3.28,3.28,0,0,1,1.66.46,3.24,3.24,0,0,1,1.26,1.33,3.89,3.89,0,0,1,.46,1.81,3.8,3.8,0,0,1-.45,1.79,3.21,3.21,0,0,1-1.25,1.33,3.22,3.22,0,0,1-3.35,0,3.21,3.21,0,0,1-1.25-1.33,3.8,3.8,0,0,1-.45-1.79,3.88,3.88,0,0,1,.45-1.81,3.24,3.24,0,0,1,1.26-1.33A3.28,3.28,0,0,1,171.38,276Zm-.82,2a1.55,1.55,0,0,0-.63.66,1.91,1.91,0,0,0,0,1.8,1.63,1.63,0,0,0,2.31.67,1.55,1.55,0,0,0,.62-.67,1.87,1.87,0,0,0,.23-.89,2,2,0,0,0-.23-.91,1.55,1.55,0,0,0-.63-.66,1.71,1.71,0,0,0-.83-.23A1.68,1.68,0,0,0,170.56,278Z" transform="translate(0.43 0.34)" style="fill: #fff"/>
    <path d="M176.44,276H179c2.24,0,3.37,1.2,3.37,3.59s-1.1,3.59-3.28,3.59h-2.62q-.84,0-.84-.9v-5.38C175.6,276.31,175.88,276,176.44,276Zm.85,1.8v3.58H179c1.11,0,1.67-.59,1.66-1.8s-.55-1.77-1.67-1.78Z" transform="translate(0.43 0.34)" style="fill: #fff"/>
    <path d="M184,281.4a.78.78,0,0,1,.41.12.82.82,0,0,1,.31.33.89.89,0,0,1,.12.45,1,1,0,0,1-.11.44.9.9,0,0,1-.31.33.81.81,0,0,1-.42.12.79.79,0,0,1-.42-.12.82.82,0,0,1-.31-.33,1,1,0,0,1,0-.89.9.9,0,0,1,.31-.33A.84.84,0,0,1,184,281.4Z" transform="translate(0.43 0.34)" style="fill: #fff"/>
  </g>
  <path d="M175.6,329.6q0,.9-.84.9h-3.37c0,.61.42.91,1.26.91h2.11c.55,0,.83.31.84.9s-.28.91-.84.9h-2.1q-3,0-3-3.59,0-.9.84-.9h3.37c0-.6-.41-.9-1.24-.9h-2.12c-.56,0-.84-.32-.85-.91s.3-.89.85-.89h2.1C174.62,326,175.6,327.2,175.6,329.6Z" transform="translate(0.43 0.34)" style="fill: #fff"/>
  <rect x="208.58" y="26.85" width="58.98" height="151.98" rx="12" style="fill: none;stroke: #fff;stroke-miterlimit: 10;stroke-width: 0.25px"/>
  <rect x="208.08" y="26.59" width="60" height="152.5" rx="12" style="fill: none;stroke: #000;stroke-miterlimit: 10;stroke-width: 0.25px"/>
  <g>
    <path d="M223.56,66h3a2,2,0,0,1,1.47.66,2.27,2.27,0,0,1,0,3.17,2,2,0,0,1-1.51.66h-.84c-.57,0-.85-.3-.85-.91s.29-.91.86-.9h.61c.45,0,.67-.14.66-.43s-.22-.45-.67-.45h-1.88V72.3c0,.59-.28.89-.86.89s-.85-.29-.85-.89V66.9A.78.78,0,0,1,223.56,66Z" transform="translate(0.43 0.34)" style="fill: #fff"/>
    <path d="M230.4,66h3a2,2,0,0,1,1.48.68,2.15,2.15,0,0,1,.64,1.56,3.41,3.41,0,0,1-.32,1.57,1.09,1.09,0,0,1-1,.66l1.06,1.12a1,1,0,0,1,.25.7c0,.6-.3.9-.86.89a1.1,1.1,0,0,1-.85-.44l-1.71-2.23a1.45,1.45,0,0,1-.44-.92q0-.91.87-.9h.6c.45,0,.67-.14.67-.43s-.23-.45-.67-.45h-1.89V72.3a.77.77,0,0,1-.85.89c-.58,0-.86-.29-.86-.89V66.9A.78.78,0,0,1,230.4,66Z" transform="translate(0.43 0.34)" style="fill: #fff"/>
    <path d="M239.78,66a3.32,3.32,0,0,1,1.68.46,3.28,3.28,0,0,1,1.28,1.33,3.79,3.79,0,0,1,.47,1.81,3.7,3.7,0,0,1-.46,1.79,3.23,3.23,0,0,1-1.26,1.33,3.33,3.33,0,0,1-3.41,0,3.3,3.3,0,0,1-1.26-1.33,3.8,3.8,0,0,1-.45-1.79,3.88,3.88,0,0,1,.45-1.81,3.28,3.28,0,0,1,1.28-1.33A3.32,3.32,0,0,1,239.78,66ZM239,68a1.57,1.57,0,0,0-.64.66,2,2,0,0,0-.23.91,1.76,1.76,0,0,0,.23.89,1.63,1.63,0,0,0,.63.67,1.66,1.66,0,0,0,.85.24,1.63,1.63,0,0,0,.85-.24,1.72,1.72,0,0,0,.64-.67,1.86,1.86,0,0,0,.22-.89,1.84,1.84,0,0,0-.23-.91,1.51,1.51,0,0,0-.64-.66A1.65,1.65,0,0,0,239,68Z" transform="translate(0.43 0.34)" style="fill: #fff"/>
    <path d="M244.91,66h3a2,2,0,0,1,1.5.67,2.21,2.21,0,0,1,.64,1.58,1.85,1.85,0,0,1-.45,1.33,1.87,1.87,0,0,1,.45,1.35,2.24,2.24,0,0,1-.65,1.57,1.92,1.92,0,0,1-1.44.68h-3c-.56,0-.84-.29-.84-.89V66.91C244.06,66.31,244.34,66,244.91,66Zm.86,1.8v3.58h2.12a.38.38,0,0,0,.43-.44c0-.31-.14-.46-.42-.46h-.42c-.58,0-.86-.32-.86-.95a.74.74,0,0,1,.85-.84h.43c.29,0,.42-.17.41-.5s-.12-.4-.41-.4Z" transform="translate(0.43 0.34)" style="fill: #fff"/>
    <path d="M251.74,71.4a.87.87,0,0,1,.73.45.89.89,0,0,1,.12.45.88.88,0,0,1-.12.44.82.82,0,0,1-.31.33.79.79,0,0,1-.42.12.85.85,0,0,1-.43-.12.82.82,0,0,1-.31-.33,1,1,0,0,1,0-.89.85.85,0,0,1,.32-.33A.79.79,0,0,1,251.74,71.4Z" transform="translate(0.43 0.34)" style="fill: #fff"/>
  </g>
  <g>
    <path d="M226.28,116a.86.86,0,0,1,.63.23l1.9,2,1.9-2a.81.81,0,0,1,.62-.23c.56,0,.84.3.85.89v5.4a.78.78,0,0,1-.85.9c-.56,0-.84-.3-.85-.9v-3.18l-1,1.16a.82.82,0,0,1-.63.22.83.83,0,0,1-.62-.23c-.14-.16-.49-.53-1.06-1.13v3.16c0,.59-.28.89-.84.89s-.84-.29-.84-.89v-5.4C225.44,116.31,225.72,116,226.28,116Z" transform="translate(0.43 0.34)" style="fill: #fff"/>
    <path d="M236.38,116a3.28,3.28,0,0,1,1.66.46,3.24,3.24,0,0,1,1.26,1.33,3.89,3.89,0,0,1,.46,1.81,3.8,3.8,0,0,1-.45,1.79,3.21,3.21,0,0,1-1.25,1.33,3.22,3.22,0,0,1-3.35,0,3.21,3.21,0,0,1-1.25-1.33,3.8,3.8,0,0,1-.45-1.79,3.88,3.88,0,0,1,.45-1.81,3.24,3.24,0,0,1,1.26-1.33A3.28,3.28,0,0,1,236.38,116Zm-.82,2a1.55,1.55,0,0,0-.63.66,2,2,0,0,0-.23.91,2,2,0,0,0,.22.89,1.63,1.63,0,0,0,2.31.67,1.55,1.55,0,0,0,.62-.67,1.87,1.87,0,0,0,.23-.89,2,2,0,0,0-.23-.91,1.55,1.55,0,0,0-.63-.66,1.6,1.6,0,0,0-.83-.23A1.58,1.58,0,0,0,235.56,118Z" transform="translate(0.43 0.34)" style="fill: #fff"/>
    <path d="M241.44,116H244c2.24,0,3.37,1.2,3.37,3.59s-1.1,3.59-3.28,3.59h-2.62c-.56,0-.84-.29-.84-.89v-5.39C240.6,116.31,240.88,116,241.44,116Zm.85,1.8v3.58H244c1.11,0,1.67-.59,1.66-1.8s-.55-1.77-1.67-1.78Z" transform="translate(0.43 0.34)" style="fill: #fff"/>
    <path d="M249,121.4a.78.78,0,0,1,.41.12.82.82,0,0,1,.31.33.89.89,0,0,1,.12.45,1,1,0,0,1-.11.44.9.9,0,0,1-.31.33.81.81,0,0,1-.42.12.79.79,0,0,1-.42-.12.82.82,0,0,1-.31-.33,1,1,0,0,1,0-.89.9.9,0,0,1,.31-.33A.84.84,0,0,1,249,121.4Z" transform="translate(0.43 0.34)" style="fill: #fff"/>
  </g>
  <path d="M235.89,172.29c0-.61.28-.91.85-.91h.43v-3.57c-.56,0-.84-.29-.83-.9a.78.78,0,0,1,.83-.89H238c.55,0,.83.28.83.87v4.49h.42c.57,0,.85.32.85.93s-.26.87-.79.88h-2.59C236.18,173.18,235.9,172.88,235.89,172.29Z" transform="translate(0.43 0.34)" style="fill: #fff"/>
  <rect x="208.58" y="186.85" width="58.98" height="151.98" rx="12" style="fill: none;stroke: #fff;stroke-miterlimit: 10;stroke-width: 0.25px"/>
  <rect x="208.08" y="186.59" width="60" height="152.5" rx="12" style="fill: none;stroke: #000;stroke-miterlimit: 10;stroke-width: 0.25px"/>
  <g>
    <path d="M223.56,226h3a2,2,0,0,1,1.47.66,2.27,2.27,0,0,1,0,3.17,2,2,0,0,1-1.51.66h-.84c-.57,0-.85-.3-.85-.91s.29-.91.86-.9h.61c.45,0,.67-.14.66-.43s-.22-.45-.67-.45h-1.88v4.48c0,.6-.28.9-.86.9s-.85-.29-.85-.89v-5.4A.78.78,0,0,1,223.56,226Z" transform="translate(0.43 0.34)" style="fill: #fff"/>
    <path d="M230.4,226h3a2,2,0,0,1,1.48.68,2.15,2.15,0,0,1,.64,1.56,3.41,3.41,0,0,1-.32,1.57,1.09,1.09,0,0,1-1,.66l1.06,1.12a1,1,0,0,1,.25.7c0,.6-.3.9-.86.89a1.1,1.1,0,0,1-.85-.44l-1.71-2.22a1.5,1.5,0,0,1-.44-.93q0-.91.87-.9h.6c.45,0,.67-.14.67-.43s-.23-.45-.67-.45h-1.89v4.48c0,.6-.28.9-.85.9s-.86-.29-.86-.89v-5.4A.78.78,0,0,1,230.4,226Z" transform="translate(0.43 0.34)" style="fill: #fff"/>
    <path d="M239.78,226a3.32,3.32,0,0,1,1.68.46,3.28,3.28,0,0,1,1.28,1.33,3.79,3.79,0,0,1,.47,1.81,3.7,3.7,0,0,1-.46,1.79,3.23,3.23,0,0,1-1.26,1.33,3.33,3.33,0,0,1-3.41,0,3.3,3.3,0,0,1-1.26-1.33,3.8,3.8,0,0,1-.45-1.79,3.88,3.88,0,0,1,.45-1.81,3.28,3.28,0,0,1,1.28-1.33A3.32,3.32,0,0,1,239.78,226Zm-.83,2a1.57,1.57,0,0,0-.64.66,2,2,0,0,0-.23.91,1.76,1.76,0,0,0,.23.89,1.63,1.63,0,0,0,.63.67,1.66,1.66,0,0,0,.85.24,1.63,1.63,0,0,0,.85-.24,1.72,1.72,0,0,0,.64-.67,1.91,1.91,0,0,0,0-1.8,1.51,1.51,0,0,0-.64-.66,1.65,1.65,0,0,0-1.68,0Z" transform="translate(0.43 0.34)" style="fill: #fff"/>
    <path d="M244.91,226h3a2,2,0,0,1,1.5.67,2.21,2.21,0,0,1,.64,1.58,1.85,1.85,0,0,1-.45,1.33A1.88,1.88,0,0,1,250,231a2.24,2.24,0,0,1-.65,1.56,1.92,1.92,0,0,1-1.44.68h-3q-.84,0-.84-.9v-5.38C244.06,226.31,244.34,226,244.91,226Zm.86,1.8v3.58h2.12a.38.38,0,0,0,.43-.44c0-.31-.14-.46-.42-.46h-.42c-.58,0-.86-.32-.86-1a.74.74,0,0,1,.85-.84h.43c.29,0,.42-.17.41-.5s-.12-.4-.41-.4Z" transform="translate(0.43 0.34)" style="fill: #fff"/>
    <path d="M251.74,231.4a.87.87,0,0,1,.73.45.89.89,0,0,1,.12.45.88.88,0,0,1-.12.44.82.82,0,0,1-.31.33.79.79,0,0,1-.42.12.85.85,0,0,1-.43-.12.82.82,0,0,1-.31-.33,1,1,0,0,1,0-.89.85.85,0,0,1,.32-.33A.79.79,0,0,1,251.74,231.4Z" transform="translate(0.43 0.34)" style="fill: #fff"/>
  </g>
  <g>
    <path d="M226.28,276a.86.86,0,0,1,.63.23l1.9,2,1.9-2a.81.81,0,0,1,.62-.23c.56,0,.84.3.85.89v5.39c0,.6-.28.9-.85.91s-.84-.3-.85-.91v-3.17l-1,1.16a.82.82,0,0,1-.63.22.83.83,0,0,1-.62-.23c-.14-.16-.49-.53-1.06-1.13v3.15q0,.9-.84.9t-.84-.9V276.9C225.44,276.31,225.72,276,226.28,276Z" transform="translate(0.43 0.34)" style="fill: #fff"/>
    <path d="M236.38,276a3.28,3.28,0,0,1,1.66.46,3.24,3.24,0,0,1,1.26,1.33,3.89,3.89,0,0,1,.46,1.81,3.8,3.8,0,0,1-.45,1.79,3.21,3.21,0,0,1-1.25,1.33,3.22,3.22,0,0,1-3.35,0,3.21,3.21,0,0,1-1.25-1.33,3.8,3.8,0,0,1-.45-1.79,3.88,3.88,0,0,1,.45-1.81,3.24,3.24,0,0,1,1.26-1.33A3.28,3.28,0,0,1,236.38,276Zm-.82,2a1.55,1.55,0,0,0-.63.66,1.91,1.91,0,0,0,0,1.8,1.63,1.63,0,0,0,2.31.67,1.55,1.55,0,0,0,.62-.67,1.87,1.87,0,0,0,.23-.89,2,2,0,0,0-.23-.91,1.55,1.55,0,0,0-.63-.66,1.71,1.71,0,0,0-.83-.23A1.68,1.68,0,0,0,235.56,278Z" transform="translate(0.43 0.34)" style="fill: #fff"/>
    <path d="M241.44,276H244c2.24,0,3.37,1.2,3.37,3.59s-1.1,3.59-3.28,3.59h-2.62q-.84,0-.84-.9v-5.38C240.6,276.31,240.88,276,241.44,276Zm.85,1.8v3.58H244c1.11,0,1.67-.59,1.66-1.8s-.55-1.77-1.67-1.78Z" transform="translate(0.43 0.34)" style="fill: #fff"/>
    <path d="M249,281.4a.78.78,0,0,1,.41.12.82.82,0,0,1,.31.33.89.89,0,0,1,.12.45,1,1,0,0,1-.11.44.9.9,0,0,1-.31.33.81.81,0,0,1-.42.12.79.79,0,0,1-.42-.12.82.82,0,0,1-.31-.33,1,1,0,0,1,0-.89.9.9,0,0,1,.31-.33A.84.84,0,0,1,249,281.4Z" transform="translate(0.43 0.34)" style="fill: #fff"/>
  </g>
  <g>
    <path d="M237.59,329.6c0,.6-.28.9-.85.9h-3.37c0,.61.43.91,1.26.91h2.12c.55,0,.83.31.84.9s-.29.91-.85.9h-2.1c-2,0-2.95-1.2-3-3.59,0-.6.29-.9.85-.9h3.37c0-.6-.42-.9-1.25-.9h-2.12c-.55,0-.83-.32-.85-.91s.3-.89.85-.89h2.1C236.6,326,237.58,327.2,237.59,329.6Z" transform="translate(0.43 0.34)" style="fill: #fff"/>
    <path d="M239.29,326a.83.83,0,0,1,.64.22c.14.15.64.77,1.49,1.88.87-1.12,1.38-1.76,1.52-1.9a.83.83,0,0,1,.64-.22.82.82,0,0,1,.63.23.87.87,0,0,1,.21.68,1.22,1.22,0,0,1-.45.89l-1.43,1.8,1.44,1.79a1.17,1.17,0,0,1,.43.91.83.83,0,0,1-.2.68.81.81,0,0,1-.64.22.82.82,0,0,1-.65-.23q-.22-.24-1.47-1.86c-.85,1.1-1.35,1.72-1.5,1.88a.79.79,0,0,1-.65.23.81.81,0,0,1-.63-.21.84.84,0,0,1-.21-.69,1.18,1.18,0,0,1,.43-.91l1.5-1.79-1.49-1.8a1.21,1.21,0,0,1-.45-.89.89.89,0,0,1,.21-.68A.85.85,0,0,1,239.29,326Z" transform="translate(0.43 0.34)" style="fill: #fff"/>
  </g>
  <g>
    <path d="M27.9,216h1.7a2,2,0,0,1,1.47.67,2.16,2.16,0,0,1,.63,1.58,1.81,1.81,0,0,1-.44,1.33A1.83,1.83,0,0,1,31.7,221a2.19,2.19,0,0,1-.64,1.56,1.87,1.87,0,0,1-1.41.68H27.91a1.88,1.88,0,0,1-1.47-.67,2.24,2.24,0,0,1-.63-1.57,1.92,1.92,0,0,1,.42-1.35,1.88,1.88,0,0,1-.42-1.35,2.18,2.18,0,0,1,.63-1.55A2.08,2.08,0,0,1,27.9,216Zm1.69,5.38c.28,0,.42-.15.42-.44s-.14-.46-.41-.46H27.9q-.42,0-.42.45c0,.31.15.47.42.46Zm0-2.68c.28,0,.41-.17.4-.5s-.12-.4-.4-.4H27.9q-.42,0-.42.45c0,.29.14.45.42.45Z" transform="translate(0.43 0.34)" style="fill: #fff"/>
    <path d="M33.5,216a1,1,0,0,1,.73.37l2.52,3.43v-3q0-.77.72-.78c.63,0,1,.27,1,.8v5.59c0,.52-.33.78-1,.78a.85.85,0,0,1-.71-.36l-2.53-3.43v3c0,.52-.25.78-.73.78-.64,0-1-.26-1-.79v-5.6Q32.54,216,33.5,216Z" transform="translate(0.43 0.34)" style="fill: #fff"/>
    <path d="M42.64,216a3.28,3.28,0,0,1,1.66.46,3.24,3.24,0,0,1,1.26,1.33,3.79,3.79,0,0,1,0,3.6,3.25,3.25,0,0,1-1.24,1.33,3.34,3.34,0,0,1-1.69.47,3.27,3.27,0,0,1-1.67-.47,3.21,3.21,0,0,1-1.25-1.33,3.8,3.8,0,0,1-.45-1.79,3.88,3.88,0,0,1,.45-1.81A3.24,3.24,0,0,1,41,216.47,3.28,3.28,0,0,1,42.64,216Zm-.82,2a1.55,1.55,0,0,0-.63.66,2,2,0,0,0-.23.91,1.87,1.87,0,0,0,.23.89,1.55,1.55,0,0,0,.62.67,1.65,1.65,0,0,0,2.31-.67,1.91,1.91,0,0,0,0-1.8,1.55,1.55,0,0,0-.63-.66,1.71,1.71,0,0,0-.83-.23A1.68,1.68,0,0,0,41.82,218Z" transform="translate(0.43 0.34)" style="fill: #fff"/>
    <path d="M47.7,216H52c.53,0,.79.3.79.87s-.28.92-.85.93H50.64v4.49c0,.59-.29.89-.85.89a.76.76,0,0,1-.84-.87v-4.51H47.7q-.84,0-.84-.9C46.86,216.31,47.14,216,47.7,216Z" transform="translate(0.43 0.34)" style="fill: #fff"/>
    <path d="M59.49,219.6q0,.9-.84.9H55.28c0,.61.42.91,1.26.91h2.12c.55,0,.82.31.83.9s-.28.91-.84.9h-2.1q-3,0-3-3.59c0-.6.29-.9.84-.9h3.38c0-.6-.42-.9-1.25-.9H54.44c-.55,0-.84-.32-.85-.91s.3-.89.85-.89h2.1C58.51,216,59.49,217.2,59.49,219.6Z" transform="translate(0.43 0.34)" style="fill: #fff"/>
  </g>
  <g>
    <path d="M26.65,273.2a.78.78,0,0,1-.41-.12.71.71,0,0,1-.31-.33.89.89,0,0,1-.12-.45,10.65,10.65,0,0,1,.81-2c.55-1.17.85-1.82.93-2a.73.73,0,0,1,.31-.34.88.88,0,0,1,.42-.11.94.94,0,0,1,.42.11.85.85,0,0,1,.31.34,1.21,1.21,0,0,1,.12.48A13.53,13.53,0,0,1,28,271.39h2v-4.51a.78.78,0,0,1,.85-.89.79.79,0,0,1,.86.89v7.21a.85.85,0,1,1-1.69,0v-.89Z" transform="translate(0.43 0.34)" style="fill: #fff"/>
    <path d="M33.5,266a1,1,0,0,1,.73.37l2.52,3.43v-3q0-.76.72-.78c.63,0,1,.27,1,.8v5.59c0,.52-.33.78-1,.78a.85.85,0,0,1-.71-.36l-2.53-3.43v3c0,.52-.25.78-.73.78-.64,0-1-.26-1-.79v-5.6Q32.54,266,33.5,266Z" transform="translate(0.43 0.34)" style="fill: #fff"/>
    <path d="M42.64,266a3.28,3.28,0,0,1,1.66.46,3.24,3.24,0,0,1,1.26,1.33,3.79,3.79,0,0,1,0,3.6,3.25,3.25,0,0,1-1.24,1.33,3.34,3.34,0,0,1-1.69.47,3.27,3.27,0,0,1-1.67-.47,3.21,3.21,0,0,1-1.25-1.33,3.8,3.8,0,0,1-.45-1.79,3.88,3.88,0,0,1,.45-1.81A3.24,3.24,0,0,1,41,266.47,3.28,3.28,0,0,1,42.64,266Zm-.82,2a1.55,1.55,0,0,0-.63.66,2,2,0,0,0-.23.91,1.87,1.87,0,0,0,.23.89,1.55,1.55,0,0,0,.62.67,1.65,1.65,0,0,0,2.31-.67,1.91,1.91,0,0,0,0-1.8,1.55,1.55,0,0,0-.63-.66,1.71,1.71,0,0,0-.83-.23A1.68,1.68,0,0,0,41.82,268Z" transform="translate(0.43 0.34)" style="fill: #fff"/>
    <path d="M47.7,266H52c.53,0,.79.3.79.87s-.28.92-.85.93H50.64v4.49c0,.59-.29.89-.85.89a.76.76,0,0,1-.84-.87v-4.51H47.7q-.84,0-.84-.9C46.86,266.31,47.14,266,47.7,266Z" transform="translate(0.43 0.34)" style="fill: #fff"/>
    <path d="M59.49,269.6q0,.9-.84.9H55.28c0,.61.42.91,1.26.91h2.12c.55,0,.82.31.83.9s-.28.91-.84.9h-2.1q-3,0-3-3.59c0-.6.29-.9.84-.9h3.38c0-.6-.42-.9-1.25-.9H54.44c-.55,0-.84-.32-.85-.91s.3-.89.85-.89h2.1C58.51,266,59.49,267.2,59.49,269.6Z" transform="translate(0.43 0.34)" style="fill: #fff"/>
  </g>
  <g>
    <path d="M32.55,319.6q0,.9-.84.9H28.33c0,.61.43.91,1.26.91h2.12c.55,0,.83.31.84.9s-.28.91-.84.9h-2.1q-3,0-3-3.59,0-.9.84-.9h3.37c0-.6-.41-.9-1.25-.9H27.5c-.56,0-.84-.32-.85-.91s.29-.89.85-.89h2.1C31.56,316,32.55,317.2,32.55,319.6Z" transform="translate(0.43 0.34)" style="fill: #fff"/>
    <path d="M34.34,316a1,1,0,0,1,.73.37l2.52,3.43v-3q0-.76.72-.78c.63,0,.95.27.95.8v5.59c0,.52-.33.78-1,.78a.85.85,0,0,1-.71-.36l-2.53-3.43v3c0,.52-.25.78-.73.78-.64,0-1-.26-1-.79v-5.6Q33.38,316,34.34,316Z" transform="translate(0.43 0.34)" style="fill: #fff"/>
    <path d="M43.48,316a3.28,3.28,0,0,1,1.66.46,3.24,3.24,0,0,1,1.26,1.33,3.79,3.79,0,0,1,0,3.6,3.25,3.25,0,0,1-1.24,1.33,3.34,3.34,0,0,1-1.69.47,3.27,3.27,0,0,1-1.67-.47,3.21,3.21,0,0,1-1.25-1.33,3.8,3.8,0,0,1-.45-1.79,3.88,3.88,0,0,1,.45-1.81,3.24,3.24,0,0,1,1.26-1.33A3.28,3.28,0,0,1,43.48,316Zm-.82,2a1.55,1.55,0,0,0-.63.66,2,2,0,0,0-.23.91,1.87,1.87,0,0,0,.23.89,1.55,1.55,0,0,0,.62.67,1.65,1.65,0,0,0,2.31-.67,1.91,1.91,0,0,0,0-1.8,1.55,1.55,0,0,0-.63-.66,1.71,1.71,0,0,0-.83-.23A1.68,1.68,0,0,0,42.66,318Z" transform="translate(0.43 0.34)" style="fill: #fff"/>
    <path d="M48.54,316H52.8c.53,0,.79.3.79.87s-.28.92-.85.93H51.48v4.49c0,.59-.29.89-.85.89a.76.76,0,0,1-.84-.87v-4.51H48.54q-.84,0-.84-.9C47.7,316.31,48,316,48.54,316Z" transform="translate(0.43 0.34)" style="fill: #fff"/>
    <path d="M54.43,322.29c0-.61.28-.91.84-.91h.44v-3.57c-.55,0-.83-.29-.82-.9a.78.78,0,0,1,.83-.89h.85c.55,0,.82.28.83.87v4.49h.42c.57,0,.85.32.85.93s-.26.87-.79.88h-2.6Q54.43,323.18,54.43,322.29Z" transform="translate(0.43 0.34)" style="fill: #fff"/>
  </g>
  <g>
    <path d="M63.21,2.18H72.1A1.5,1.5,0,0,1,73.75,3.9,1.6,1.6,0,0,1,72,5.72H69.35V14.5a1.58,1.58,0,0,1-1.77,1.75,1.54,1.54,0,0,1-1.76-1.71V5.72H63.21A1.56,1.56,0,0,1,61.45,4,1.58,1.58,0,0,1,63.21,2.18Z" transform="translate(0.43 0.34)" style="fill: #fff"/>
    <path d="M77.25,2.19A1.57,1.57,0,0,1,79,3.93V14.5a1.76,1.76,0,1,1-3.52,0V3.94A1.54,1.54,0,0,1,77.25,2.19Z" transform="translate(0.43 0.34)" style="fill: #fff"/>
    <path d="M82.52,2.19a1.77,1.77,0,0,1,1.3.45l4,4,4-4a1.71,1.71,0,0,1,1.31-.46,1.56,1.56,0,0,1,1.76,1.75V14.49a1.77,1.77,0,1,1-3.54,0V8.27l-2.21,2.27a1.76,1.76,0,0,1-1.3.44,1.73,1.73,0,0,1-1.3-.46L84.28,8.31v6.18a1.57,1.57,0,0,1-1.76,1.76,1.54,1.54,0,0,1-1.75-1.76V3.94A1.55,1.55,0,0,1,82.52,2.19Z" transform="translate(0.43 0.34)" style="fill: #fff"/>
    <path d="M98.34,2.18h8.9a1.51,1.51,0,0,1,1.65,1.71,1.6,1.6,0,0,1-1.77,1.82h-7v7h7a1.58,1.58,0,0,1,1.77,1.78,1.56,1.56,0,0,1-1.74,1.75H98.34a1.53,1.53,0,0,1-1.75-1.71V4A1.57,1.57,0,0,1,98.34,2.18ZM101,9.26a1.58,1.58,0,0,1,1.74-1.78h3.54A1.59,1.59,0,0,1,108,9.24,1.58,1.58,0,0,1,106.24,11H102.7A1.54,1.54,0,0,1,101,9.26Z" transform="translate(0.43 0.34)" style="fill: #fff"/>
    <path d="M121.18,2.18h8.89a1.51,1.51,0,0,1,1.66,1.71A1.61,1.61,0,0,1,130,5.72h-7v7h7a1.58,1.58,0,0,1,1.78,1.78A1.57,1.57,0,0,1,130,16.25h-8.79a1.54,1.54,0,0,1-1.76-1.71V4A1.58,1.58,0,0,1,121.18,2.18Zm2.61,7.08a1.57,1.57,0,0,1,1.74-1.78h3.53a1.6,1.6,0,0,1,1.79,1.76A1.59,1.59,0,0,1,129.07,11h-3.53A1.54,1.54,0,0,1,123.79,9.26Z" transform="translate(0.43 0.34)" style="fill: #fff"/>
    <path d="M135.3,2.16a1.79,1.79,0,0,1,1.32.43q.45.44,3.13,3.67c1.82-2.2,2.87-3.44,3.17-3.72a1.84,1.84,0,0,1,1.32-.43,1.8,1.8,0,0,1,1.32.45A1.67,1.67,0,0,1,146,3.89a2.32,2.32,0,0,1-.93,1.74l-3,3.53,3,3.49a2.28,2.28,0,0,1,.91,1.79,1.62,1.62,0,0,1-.44,1.34,1.85,1.85,0,0,1-1.33.42,1.75,1.75,0,0,1-1.35-.45c-.31-.31-1.33-1.53-3.08-3.64q-2.65,3.23-3.11,3.68a2.26,2.26,0,0,1-2.69,0,1.61,1.61,0,0,1-.44-1.33,2.28,2.28,0,0,1,.92-1.79l3.13-3.49-3.12-3.53a2.32,2.32,0,0,1-.94-1.75A1.72,1.72,0,0,1,134,2.6,1.86,1.86,0,0,1,135.3,2.16Z" transform="translate(0.43 0.34)" style="fill: #fff"/>
    <path d="M149.31,2.19h6.17a4.3,4.3,0,0,1,3,1.3,4.13,4.13,0,0,1,1.33,3.08,4.22,4.22,0,0,1-1.31,3.11A4.32,4.32,0,0,1,155.42,11l-1.73,0a1.56,1.56,0,0,1-1.75-1.77,1.56,1.56,0,0,1,1.77-1.77H155c.93,0,1.39-.27,1.37-.85s-.46-.87-1.38-.87h-3.87v8.77a1.77,1.77,0,0,1-3.53,0V3.93A1.56,1.56,0,0,1,149.31,2.19Z" transform="translate(0.43 0.34)" style="fill: #fff"/>
    <path d="M163.38,16.26a1.79,1.79,0,0,1-.86-.23,1.63,1.63,0,0,1-.66-.64,1.9,1.9,0,0,1-.23-.89,41.67,41.67,0,0,1,2.62-5.74q2.64-5.28,2.86-5.7a1.57,1.57,0,0,1,.65-.65,1.73,1.73,0,0,1,.88-.23,1.69,1.69,0,0,1,.87.23,1.57,1.57,0,0,1,.65.65q.24.42,2.88,5.7a42,42,0,0,1,2.64,5.74,1.8,1.8,0,0,1-.24.89,1.63,1.63,0,0,1-.66.64,1.82,1.82,0,0,1-.86.23Zm7.67-3.55-2.41-4.94-2.42,4.94Z" transform="translate(0.43 0.34)" style="fill: #fff"/>
    <path d="M179.42,2.21a2.18,2.18,0,0,1,1.53.72l5.27,6.72V3.75a1.37,1.37,0,0,1,1.49-1.54c1.32,0,2,.54,2,1.57V14.72c0,1-.68,1.51-2,1.53a1.85,1.85,0,0,1-1.47-.72L181,8.83v5.89a1.36,1.36,0,0,1-1.53,1.53c-1.32,0-2-.51-2-1.55v-11C177.42,2.73,178.09,2.22,179.42,2.21Z" transform="translate(0.43 0.34)" style="fill: #fff"/>
    <path d="M203.82,4a1.54,1.54,0,0,1-1.7,1.77h-5.35c-1.18,0-1.78.31-1.79.89s.62.84,1.8.83h1.73c3.54,0,5.31,1.5,5.33,4.46s-1.77,4.32-5.32,4.34h-5.28a1.53,1.53,0,0,1-1.75-1.72,1.53,1.53,0,0,1,1.73-1.74l5.3,0c1.19,0,1.78-.31,1.78-.91s-.6-.89-1.8-.88h-1.73q-5.28,0-5.28-4.36t5.28-4.41h5.29A1.57,1.57,0,0,1,203.82,4Z" transform="translate(0.43 0.34)" style="fill: #fff"/>
    <path d="M207.28,2.19a1.58,1.58,0,0,1,1.79,1.74V14.5a1.77,1.77,0,1,1-3.53,0V3.94A1.55,1.55,0,0,1,207.28,2.19Z" transform="translate(0.43 0.34)" style="fill: #fff"/>
    <path d="M217.81,2.19a7.24,7.24,0,0,1,3.46.91,6.67,6.67,0,0,1,2.64,2.6,7.17,7.17,0,0,1,1,3.53,7.25,7.25,0,0,1-.92,3.51,6.59,6.59,0,0,1-2.61,2.6,7.15,7.15,0,0,1-3.52.92,7.06,7.06,0,0,1-3.49-.92,6.59,6.59,0,0,1-2.61-2.6,7.15,7.15,0,0,1-.93-3.51,7.26,7.26,0,0,1,.94-3.53,6.52,6.52,0,0,1,2.63-2.6A7.24,7.24,0,0,1,217.81,2.19Zm-1.71,4a3.37,3.37,0,0,0-1.32,1.3,3.57,3.57,0,0,0-.47,1.78,3.51,3.51,0,0,0,.46,1.74,3.37,3.37,0,0,0,1.31,1.31,3.56,3.56,0,0,0,3.5,0A3.37,3.37,0,0,0,220.89,11a3.53,3.53,0,0,0,.47-1.74,3.58,3.58,0,0,0-.48-1.78,3.37,3.37,0,0,0-1.32-1.3,3.63,3.63,0,0,0-1.73-.45A3.57,3.57,0,0,0,216.1,6.14Z" transform="translate(0.43 0.34)" style="fill: #fff"/>
    <path d="M228.62,2.21a2.22,2.22,0,0,1,1.53.72l5.26,6.72V3.75a1.37,1.37,0,0,1,1.49-1.54c1.32,0,2,.54,2,1.57l0,10.94c0,1-.69,1.51-2,1.53a1.81,1.81,0,0,1-1.46-.72l-5.29-6.7v5.89a1.37,1.37,0,0,1-1.53,1.53c-1.33,0-2-.51-2-1.55v-11C226.62,2.73,227.28,2.22,228.62,2.21Z" transform="translate(0.43 0.34)" style="fill: #fff"/>
  </g>
  <g style="isolation: isolate">
    <polygon points="17.55 10.71 16.41 10.09 16.39 9.97 17.53 10.59 17.55 10.71" style="fill: gray"/>
    <g style="isolation: isolate">
      <g style="clip-path: url(#clip-path-4)">
        <g style="isolation: isolate">
          <path d="M17.1,10.25,16,9.63a.36.36,0,0,0-.13-.11l1.14.62a.36.36,0,0,1,.13.11" transform="translate(0.43 0.34)" style="fill: #858585"/>
        </g>
      </g>
    </g>
    <g style="isolation: isolate">
      <g style="clip-path: url(#clip-path-5)">
        <g style="isolation: isolate">
          <path d="M16.69,10.61,15.55,10a.93.93,0,0,0,.28-.08l1.14.62a.93.93,0,0,1-.28.08" transform="translate(0.43 0.34)" style="fill: #a8a8a8"/>
          <path d="M17,10.53l-1.14-.62.06,0L17,10.5l-.06,0" transform="translate(0.43 0.34)" style="fill: #a3a3a3"/>
          <path d="M17,10.5l-1.14-.62,0,0,1.14.62,0,0" transform="translate(0.43 0.34)" style="fill: #9e9e9e"/>
          <path d="M17.06,10.48l-1.14-.62,0,0,1.14.62,0,0" transform="translate(0.43 0.34)" style="fill: #999"/>
          <path d="M17.08,10.45l-1.14-.62h0l1.14.62h0" transform="translate(0.43 0.34)" style="fill: #949494"/>
          <path d="M17.1,10.44,16,9.82v0l1.14.62v0" transform="translate(0.43 0.34)" style="fill: #8f8f8f"/>
          <path d="M17.11,10.42,16,9.8v0l1.14.62v0" transform="translate(0.43 0.34)" style="fill: #8a8a8a"/>
          <path d="M17.12,10.39,16,9.77v0l1.14.62v0" transform="translate(0.43 0.34)" style="fill: #858585"/>
        </g>
      </g>
    </g>
    <g style="isolation: isolate">
      <g style="clip-path: url(#clip-path-6)">
        <g style="isolation: isolate">
          <path d="M9.12,10.47,8,9.85a25.08,25.08,0,0,1,4.37-1q1.2-.16,2.37-.21a4.23,4.23,0,0,1,1.07.09l1.14.62a4.23,4.23,0,0,0-1.07-.09q-1.17,0-2.37.21a25.4,25.4,0,0,0-4.38,1" transform="translate(0.43 0.34)" style="fill: #a8a8a8"/>
          <path d="M16.94,9.33,15.8,8.71a1.61,1.61,0,0,1,.33.12l1.14.62a1.61,1.61,0,0,0-.33-.12" transform="translate(0.43 0.34)" style="fill: #a3a3a3"/>
          <path d="M17.27,9.45l-1.14-.62.05,0,1.14.62-.05,0" transform="translate(0.43 0.34)" style="fill: #9e9e9e"/>
        </g>
      </g>
    </g>
    <g style="isolation: isolate">
      <g style="clip-path: url(#clip-path-7)">
        <g style="isolation: isolate">
          <path d="M7.41,13.25l-1.14-.62.24-.17,1.14.62-.24.17" transform="translate(0.43 0.34)" style="fill: #9e9e9e"/>
          <path d="M7.65,13.08l-1.14-.62a16.36,16.36,0,0,1,2.32-1.35l1.14.62a15.83,15.83,0,0,0-2.32,1.35" transform="translate(0.43 0.34)" style="fill: #a3a3a3"/>
          <path d="M10,11.73l-1.14-.62a11.83,11.83,0,0,1,3.47-1.06A10,10,0,0,1,14.55,10a4.81,4.81,0,0,0,1,0l1.14.62a4.81,4.81,0,0,1-1,0,10,10,0,0,0-2.25.07A11.83,11.83,0,0,0,10,11.73" transform="translate(0.43 0.34)" style="fill: #a8a8a8"/>
        </g>
      </g>
    </g>
    <polygon points="8.96 11.74 7.82 11.12 7.78 10.75 8.92 11.37 8.96 11.74" style="fill: gray"/>
    <g style="isolation: isolate">
      <g style="clip-path: url(#clip-path-8)">
        <g style="isolation: isolate">
          <path d="M6.07,13.84l-1.14-.62h.2a1.42,1.42,0,0,0,.41-.13l1.14.62a1.42,1.42,0,0,1-.41.13h-.2" transform="translate(0.43 0.34)" style="fill: #a8a8a8"/>
          <path d="M6.68,13.71l-1.14-.62a3.57,3.57,0,0,0,.54-.33l1.14.62a3.57,3.57,0,0,1-.54.33" transform="translate(0.43 0.34)" style="fill: #a3a3a3"/>
          <path d="M7.22,13.38l-1.14-.62.19-.13,1.14.62-.19.13" transform="translate(0.43 0.34)" style="fill: #9e9e9e"/>
        </g>
      </g>
    </g>
    <g style="isolation: isolate">
      <g style="clip-path: url(#clip-path-9)">
        <g style="isolation: isolate">
          <path d="M6,13.81l-1.14-.62h0L6,13.81H6" transform="translate(0.43 0.34)" style="fill: #9e9e9e"/>
          <path d="M6,13.81l-1.14-.62.06,0,1.14.62-.06,0" transform="translate(0.43 0.34)" style="fill: #a3a3a3"/>
        </g>
      </g>
    </g>
    <g style="isolation: isolate">
      <g style="clip-path: url(#clip-path-10)">
        <g style="isolation: isolate">
          <path d="M8.49,11,7.35,10.4A9,9,0,0,1,8,6.28l1.14.62A9,9,0,0,0,8.49,11" transform="translate(0.43 0.34)" style="fill: #858585"/>
          <path d="M9.09,6.9,8,6.28c0-.15.1-.29.16-.44l1.14.62c-.06.15-.11.29-.16.44" transform="translate(0.43 0.34)" style="fill: #8a8a8a"/>
        </g>
      </g>
    </g>
    <g style="isolation: isolate">
      <g style="clip-path: url(#clip-path-11)">
        <g style="isolation: isolate">
          <path d="M5.65,14.47l-1.14-.62a1.12,1.12,0,0,1-.5-.63l1.14.62a1.12,1.12,0,0,0,.5.63" transform="translate(0.43 0.34)" style="fill: #858585"/>
        </g>
      </g>
    </g>
    <g style="isolation: isolate">
      <g style="clip-path: url(#clip-path-12)">
        <g style="isolation: isolate">
          <path d="M9.25,6.46,8.11,5.84c.07-.19.16-.45-.4-.75l1.14.62c.56.3.47.56.4.75" transform="translate(0.43 0.34)" style="fill: #858585"/>
        </g>
      </g>
    </g>
    <g style="isolation: isolate">
      <g style="clip-path: url(#clip-path-13)">
        <g style="isolation: isolate">
          <path d="M5.15,13.84,4,13.22a8.23,8.23,0,0,1,.17-5.55l1.14.62a8.23,8.23,0,0,0-.17,5.55" transform="translate(0.43 0.34)" style="fill: #858585"/>
          <path d="M5.32,8.29,4.18,7.67a12.27,12.27,0,0,1,.7-1.54L6,6.75a12.27,12.27,0,0,0-.7,1.54" transform="translate(0.43 0.34)" style="fill: #8a8a8a"/>
          <path d="M6,6.75,4.88,6.13c.15-.28.31-.55.49-.83l.07-.12,1.14.62-.07.12c-.18.28-.34.55-.49.83" transform="translate(0.43 0.34)" style="fill: #8f8f8f"/>
          <path d="M6.58,5.8,5.44,5.18a3.2,3.2,0,0,1,.22-.27l1.14.62a2,2,0,0,0-.22.27" transform="translate(0.43 0.34)" style="fill: #949494"/>
          <path d="M6.8,5.53,5.66,4.91a2.28,2.28,0,0,1,.22-.22L7,5.31l-.22.22" transform="translate(0.43 0.34)" style="fill: #999"/>
          <path d="M7,5.31,5.88,4.69a2.11,2.11,0,0,1,.23-.19l1.14.62A2.11,2.11,0,0,0,7,5.31" transform="translate(0.43 0.34)" style="fill: #9e9e9e"/>
          <path d="M7.25,5.12,6.11,4.5a1.64,1.64,0,0,1,.29-.16L7.54,5a1.64,1.64,0,0,0-.29.16" transform="translate(0.43 0.34)" style="fill: #a3a3a3"/>
          <path d="M7.54,5,6.4,4.34a1.52,1.52,0,0,1,.5-.15,1.57,1.57,0,0,1,.68,0l1.14.62a1.57,1.57,0,0,0-.68,0,1.52,1.52,0,0,0-.5.15" transform="translate(0.43 0.34)" style="fill: #a8a8a8"/>
          <path d="M8.72,4.85,7.58,4.23a1.43,1.43,0,0,1,.27.09L9,4.94l-.27-.09" transform="translate(0.43 0.34)" style="fill: #a3a3a3"/>
        </g>
      </g>
    </g>
    <g style="isolation: isolate">
      <g style="clip-path: url(#clip-path-14)">
        <g style="isolation: isolate">
          <path d="M9,4.94,7.85,4.32l.11,0L9.1,5,9,4.94" transform="translate(0.43 0.34)" style="fill: #a3a3a3"/>
          <path d="M9.1,5,8,4.37l.11.06L9.21,5,9.1,5" transform="translate(0.43 0.34)" style="fill: #9e9e9e"/>
        </g>
      </g>
    </g>
    <path d="M17.65,9.75a.87.87,0,0,1,.12.71,1.18,1.18,0,0,1-1.11.88,5.74,5.74,0,0,1-1.11,0,9.6,9.6,0,0,0-2.14.06,12.83,12.83,0,0,0-5.68,2.45,3.54,3.54,0,0,1-1.46.72,1.07,1.07,0,0,1-.44,0,1,1,0,0,1-.68-.7c-.83-2.51-.37-5.17,1.36-7.92A2.26,2.26,0,0,1,8,4.81a1.67,1.67,0,0,1,1,.13c.55.25,1.25.7.87,1.72a9,9,0,0,0-.74,3.81,25.4,25.4,0,0,1,4.38-1q1.2-.16,2.37-.21A2.1,2.1,0,0,1,17.65,9.75Zm-1,.86c.26,0,.41-.12.44-.24l0-.12c-.11-.15-.51-.3-1.3-.28a20.57,20.57,0,0,0-2.32.2,25.41,25.41,0,0,0-4.6,1.11l-.35.12,0-.38a9.32,9.32,0,0,1,.76-4.56c.07-.21.18-.5-.57-.84A1.26,1.26,0,0,0,8,5.52a1.49,1.49,0,0,0-1,.76c-1.6,2.55-2,4.93-1.25,7.23a.48.48,0,0,0,.29.33h.2a2.82,2.82,0,0,0,1.14-.59,13.56,13.56,0,0,1,6-2.58,10,10,0,0,1,2.25-.07,4.81,4.81,0,0,0,1,0" transform="translate(0.43 0.34)" style="fill: #dfdfdf"/>
  </g>
  <circle cx="10.43" cy="10.34" r="7.5" style="fill: none;stroke: #fff;stroke-miterlimit: 10;stroke-width: 0.75px"/>
  <g style="isolation: isolate">
    <polygon points="277.56 10.71 276.42 10.09 276.39 9.97 277.53 10.59 277.56 10.71" style="fill: gray"/>
    <g style="isolation: isolate">
      <g style="clip-path: url(#clip-path-15)">
        <g style="isolation: isolate">
          <path d="M277.1,10.25,276,9.63a.29.29,0,0,0-.13-.11l1.14.62a.29.29,0,0,1,.13.11" transform="translate(0.43 0.34)" style="fill: #858585"/>
        </g>
      </g>
    </g>
    <g style="isolation: isolate">
      <g style="clip-path: url(#clip-path-16)">
        <g style="isolation: isolate">
          <path d="M276.69,10.61,275.55,10a.85.85,0,0,0,.28-.08l1.14.62a.85.85,0,0,1-.28.08" transform="translate(0.43 0.34)" style="fill: #a8a8a8"/>
          <path d="M277,10.53l-1.14-.62.06,0,1.14.62-.06,0" transform="translate(0.43 0.34)" style="fill: #a3a3a3"/>
          <path d="M277,10.5l-1.14-.62,0,0,1.14.62,0,0" transform="translate(0.43 0.34)" style="fill: #9e9e9e"/>
          <path d="M277.06,10.48l-1.14-.62,0,0,1.14.62,0,0" transform="translate(0.43 0.34)" style="fill: #999"/>
          <path d="M277.08,10.45l-1.14-.62h0l1.14.62h0" transform="translate(0.43 0.34)" style="fill: #949494"/>
          <path d="M277.1,10.44,276,9.82v0l1.14.62v0" transform="translate(0.43 0.34)" style="fill: #8f8f8f"/>
          <path d="M277.11,10.42,276,9.8v0l1.14.62v0" transform="translate(0.43 0.34)" style="fill: #8a8a8a"/>
          <path d="M277.12,10.39,276,9.77v0l1.14.62v0" transform="translate(0.43 0.34)" style="fill: #858585"/>
        </g>
      </g>
    </g>
    <g style="isolation: isolate">
      <g style="clip-path: url(#clip-path-17)">
        <g style="isolation: isolate">
          <path d="M269.13,10.47,268,9.85a25.08,25.08,0,0,1,4.37-1q1.2-.16,2.37-.21a4.18,4.18,0,0,1,1.07.09l1.14.62a4.18,4.18,0,0,0-1.07-.09q-1.17,0-2.37.21a25.08,25.08,0,0,0-4.37,1" transform="translate(0.43 0.34)" style="fill: #a8a8a8"/>
          <path d="M276.94,9.33l-1.14-.62a1.61,1.61,0,0,1,.33.12l1.14.62a1.61,1.61,0,0,0-.33-.12" transform="translate(0.43 0.34)" style="fill: #a3a3a3"/>
          <path d="M277.27,9.45l-1.14-.62.05,0,1.14.62-.05,0" transform="translate(0.43 0.34)" style="fill: #9e9e9e"/>
        </g>
      </g>
    </g>
    <g style="isolation: isolate">
      <g style="clip-path: url(#clip-path-18)">
        <g style="isolation: isolate">
          <path d="M267.41,13.25l-1.14-.62.24-.17,1.14.62-.24.17" transform="translate(0.43 0.34)" style="fill: #9e9e9e"/>
          <path d="M267.65,13.08l-1.14-.62a15.46,15.46,0,0,1,2.32-1.35l1.14.62a15.46,15.46,0,0,0-2.32,1.35" transform="translate(0.43 0.34)" style="fill: #a3a3a3"/>
          <path d="M270,11.73l-1.14-.62a11.86,11.86,0,0,1,3.46-1.06,10.08,10.08,0,0,1,2.26-.07,4.81,4.81,0,0,0,1,0l1.14.62a4.81,4.81,0,0,1-1,0,10.08,10.08,0,0,0-2.26.07A11.86,11.86,0,0,0,270,11.73" transform="translate(0.43 0.34)" style="fill: #a8a8a8"/>
        </g>
      </g>
    </g>
    <polygon points="268.96 11.74 267.82 11.12 267.78 10.75 268.92 11.37 268.96 11.74" style="fill: gray"/>
    <g style="isolation: isolate">
      <g style="clip-path: url(#clip-path-19)">
        <g style="isolation: isolate">
          <path d="M266.07,13.84l-1.14-.62h.2a1.33,1.33,0,0,0,.41-.13l1.14.62a1.33,1.33,0,0,1-.41.13h-.2" transform="translate(0.43 0.34)" style="fill: #a8a8a8"/>
          <path d="M266.68,13.71l-1.14-.62a3.51,3.51,0,0,0,.52-.31l1.14.62a4.11,4.11,0,0,1-.52.31" transform="translate(0.43 0.34)" style="fill: #a3a3a3"/>
          <path d="M267.2,13.4l-1.14-.62.21-.15,1.14.62-.21.15" transform="translate(0.43 0.34)" style="fill: #9e9e9e"/>
        </g>
      </g>
    </g>
    <g style="isolation: isolate">
      <g style="clip-path: url(#clip-path-20)">
        <g style="isolation: isolate">
          <path d="M266,13.81l-1.14-.62h0l1.14.62h0" transform="translate(0.43 0.34)" style="fill: #9e9e9e"/>
          <path d="M266,13.81l-1.14-.62.06,0,1.14.62-.06,0" transform="translate(0.43 0.34)" style="fill: #a3a3a3"/>
        </g>
      </g>
    </g>
    <g style="isolation: isolate">
      <g style="clip-path: url(#clip-path-21)">
        <g style="isolation: isolate">
          <path d="M268.49,11l-1.14-.62a9,9,0,0,1,.6-4.12l1.14.62a9,9,0,0,0-.6,4.12" transform="translate(0.43 0.34)" style="fill: #858585"/>
          <path d="M269.09,6.9,268,6.28c.05-.15.1-.29.16-.44l1.14.62c-.06.15-.11.29-.16.44" transform="translate(0.43 0.34)" style="fill: #8a8a8a"/>
        </g>
      </g>
    </g>
    <g style="isolation: isolate">
      <g style="clip-path: url(#clip-path-22)">
        <g style="isolation: isolate">
          <path d="M265.63,14.47l-1.13-.62a1.11,1.11,0,0,1-.49-.63l1.14.62a1.14,1.14,0,0,0,.48.63" transform="translate(0.43 0.34)" style="fill: #858585"/>
        </g>
      </g>
    </g>
    <g style="isolation: isolate">
      <g style="clip-path: url(#clip-path-23)">
        <g style="isolation: isolate">
          <path d="M269.25,6.46l-1.14-.62c.07-.19.16-.45-.4-.75l1.14.62c.56.3.47.56.4.75" transform="translate(0.43 0.34)" style="fill: #858585"/>
        </g>
      </g>
    </g>
    <g style="isolation: isolate">
      <g style="clip-path: url(#clip-path-24)">
        <g style="isolation: isolate">
          <path d="M269,4.94l-1.14-.62.13.06,1.14.62L269,4.94" transform="translate(0.43 0.34)" style="fill: #a3a3a3"/>
          <path d="M269.11,5,268,4.38l.11,0,1.14.62-.11,0" transform="translate(0.43 0.34)" style="fill: #9e9e9e"/>
        </g>
      </g>
    </g>
    <g style="isolation: isolate">
      <g style="clip-path: url(#clip-path-25)">
        <g style="isolation: isolate">
          <path d="M266.5,5.92l-1.14-.62a.86.86,0,0,1,.07-.1l1.14.62a.86.86,0,0,0-.07.1" transform="translate(0.43 0.34)" style="fill: #8f8f8f"/>
          <path d="M266.57,5.82l-1.14-.62a2.09,2.09,0,0,1,.22-.28l1.14.62a2.09,2.09,0,0,0-.22.28" transform="translate(0.43 0.34)" style="fill: #949494"/>
          <path d="M266.79,5.54l-1.14-.62a2.39,2.39,0,0,1,.22-.23l1.14.62a2.39,2.39,0,0,0-.22.23" transform="translate(0.43 0.34)" style="fill: #999"/>
          <path d="M267,5.31l-1.14-.62a1.81,1.81,0,0,1,.23-.18l1.14.62a1.3,1.3,0,0,0-.23.18" transform="translate(0.43 0.34)" style="fill: #9e9e9e"/>
          <path d="M267.24,5.13l-1.14-.62a3.09,3.09,0,0,1,.29-.17l1.14.62a3.09,3.09,0,0,0-.29.17" transform="translate(0.43 0.34)" style="fill: #a3a3a3"/>
          <path d="M267.53,5l-1.14-.62a1.65,1.65,0,0,1,.51-.15,1.52,1.52,0,0,1,.67,0l1.14.62a1.52,1.52,0,0,0-.67,0,1.65,1.65,0,0,0-.51.15" transform="translate(0.43 0.34)" style="fill: #a8a8a8"/>
          <path d="M268.71,4.85l-1.14-.62a1.43,1.43,0,0,1,.27.09l1.14.62a1.43,1.43,0,0,0-.27-.09" transform="translate(0.43 0.34)" style="fill: #a3a3a3"/>
        </g>
      </g>
    </g>
    <path d="M277.65,9.75a.9.9,0,0,1,.12.71,1.18,1.18,0,0,1-1.11.88,5.74,5.74,0,0,1-1.11,0,9.49,9.49,0,0,0-2.13.06,12.82,12.82,0,0,0-5.69,2.45,3.51,3.51,0,0,1-1.45.72,1.12,1.12,0,0,1-.45,0,1,1,0,0,1-.68-.7c-.83-2.51-.37-5.17,1.35-7.92A2.27,2.27,0,0,1,268,4.81a1.63,1.63,0,0,1,.94.13c.56.25,1.26.7.88,1.72a8.8,8.8,0,0,0-.73,3.81,25.08,25.08,0,0,1,4.37-1q1.2-.16,2.37-.21A2.1,2.1,0,0,1,277.65,9.75Zm-1,.86c.26,0,.41-.12.44-.24l0-.12c-.11-.15-.51-.3-1.3-.28a22.94,22.94,0,0,0-2.32.2,24.79,24.79,0,0,0-4.6,1.11l-.35.12,0-.38a9.32,9.32,0,0,1,.76-4.56c.08-.21.18-.5-.57-.84a1.26,1.26,0,0,0-.65-.1,1.45,1.45,0,0,0-1,.76c-1.61,2.55-2,4.93-1.26,7.23a.48.48,0,0,0,.29.33h.2a2.7,2.7,0,0,0,1.14-.59,13.62,13.62,0,0,1,6-2.58,10.08,10.08,0,0,1,2.26-.07,4.81,4.81,0,0,0,1,0" transform="translate(0.43 0.34)" style="fill: #dfdfdf"/>
    <g style="isolation: isolate">
      <g style="clip-path: url(#clip-path-26)">
        <g style="isolation: isolate">
          <path d="M265.15,13.84,264,13.22a8.2,8.2,0,0,1,.18-5.56l1.14.62a8.2,8.2,0,0,0-.18,5.56" transform="translate(0.43 0.34)" style="fill: #858585"/>
          <path d="M265.33,8.28l-1.14-.62a10.59,10.59,0,0,1,.7-1.55l1.14.62a10.59,10.59,0,0,0-.7,1.55" transform="translate(0.43 0.34)" style="fill: #8a8a8a"/>
          <path d="M266,6.73l-1.14-.62c.14-.27.3-.54.47-.81l1.14.62c-.17.27-.33.54-.47.81" transform="translate(0.43 0.34)" style="fill: #8f8f8f"/>
        </g>
      </g>
    </g>
  </g>
  <circle cx="270.43" cy="10.34" r="7.5" style="fill: none;stroke: #fff;stroke-miterlimit: 10;stroke-width: 0.75px"/>
  <g style="isolation: isolate">
    <polygon points="17.55 370.71 16.41 370.09 16.39 369.97 17.53 370.59 17.55 370.71" style="fill: gray"/>
    <g style="isolation: isolate">
      <g style="clip-path: url(#clip-path-27)">
        <g style="isolation: isolate">
          <path d="M17.1,370.25,16,369.63a.36.36,0,0,0-.13-.11l1.14.62a.36.36,0,0,1,.13.11" transform="translate(0.43 0.34)" style="fill: #858585"/>
        </g>
      </g>
    </g>
    <g style="isolation: isolate">
      <g style="clip-path: url(#clip-path-28)">
        <g style="isolation: isolate">
          <path d="M16.69,370.61,15.55,370a.93.93,0,0,0,.28-.08l1.14.62a.93.93,0,0,1-.28.08" transform="translate(0.43 0.34)" style="fill: #a8a8a8"/>
          <path d="M17,370.53l-1.14-.62.06,0,1.14.62-.06,0" transform="translate(0.43 0.34)" style="fill: #a3a3a3"/>
          <path d="M17,370.5l-1.14-.62,0,0,1.14.62,0,0" transform="translate(0.43 0.34)" style="fill: #9e9e9e"/>
          <path d="M17.06,370.48l-1.14-.62,0,0,1.14.62,0,0" transform="translate(0.43 0.34)" style="fill: #999"/>
          <path d="M17.08,370.45l-1.14-.62h0l1.14.62h0" transform="translate(0.43 0.34)" style="fill: #949494"/>
          <path d="M17.1,370.44,16,369.82v0l1.14.62v0" transform="translate(0.43 0.34)" style="fill: #8f8f8f"/>
          <path d="M17.11,370.42,16,369.8v0l1.14.62v0" transform="translate(0.43 0.34)" style="fill: #8a8a8a"/>
          <path d="M17.12,370.39,16,369.77v0l1.14.62v0" transform="translate(0.43 0.34)" style="fill: #858585"/>
        </g>
      </g>
    </g>
    <g style="isolation: isolate">
      <g style="clip-path: url(#clip-path-29)">
        <g style="isolation: isolate">
          <path d="M9.12,370.47,8,369.85a25.08,25.08,0,0,1,4.37-1c.79-.11,1.59-.18,2.37-.21a4.23,4.23,0,0,1,1.07.09l1.14.62a4.23,4.23,0,0,0-1.07-.09c-.78,0-1.58.1-2.37.21a25.4,25.4,0,0,0-4.38,1" transform="translate(0.43 0.34)" style="fill: #a8a8a8"/>
          <path d="M16.94,369.33l-1.14-.62a1.61,1.61,0,0,1,.33.12l1.14.62a1.61,1.61,0,0,0-.33-.12" transform="translate(0.43 0.34)" style="fill: #a3a3a3"/>
          <path d="M17.27,369.45l-1.14-.62.05,0,1.14.62-.05,0" transform="translate(0.43 0.34)" style="fill: #9e9e9e"/>
        </g>
      </g>
    </g>
    <g style="isolation: isolate">
      <g style="clip-path: url(#clip-path-30)">
        <g style="isolation: isolate">
          <path d="M7.41,373.25l-1.14-.62.24-.17,1.14.62-.24.17" transform="translate(0.43 0.34)" style="fill: #9e9e9e"/>
          <path d="M7.65,373.08l-1.14-.62a15.46,15.46,0,0,1,2.32-1.35l1.14.62a15.46,15.46,0,0,0-2.32,1.35" transform="translate(0.43 0.34)" style="fill: #a3a3a3"/>
          <path d="M10,371.73l-1.14-.62a11.86,11.86,0,0,1,3.46-1.06,10.08,10.08,0,0,1,2.26-.07,4.81,4.81,0,0,0,1,0l1.14.62a4.81,4.81,0,0,1-1,0,10.08,10.08,0,0,0-2.26.07A11.86,11.86,0,0,0,10,371.73" transform="translate(0.43 0.34)" style="fill: #a8a8a8"/>
        </g>
      </g>
    </g>
    <polygon points="8.96 371.74 7.82 371.12 7.78 370.75 8.92 371.37 8.96 371.74" style="fill: gray"/>
    <g style="isolation: isolate">
      <g style="clip-path: url(#clip-path-31)">
        <g style="isolation: isolate">
          <path d="M6.07,373.84l-1.14-.62h.2a1.42,1.42,0,0,0,.41-.13l1.14.62a1.42,1.42,0,0,1-.41.13.65.65,0,0,1-.2,0" transform="translate(0.43 0.34)" style="fill: #a8a8a8"/>
          <path d="M6.68,373.71l-1.14-.62a3.57,3.57,0,0,0,.54-.33l1.14.62a3.57,3.57,0,0,1-.54.33" transform="translate(0.43 0.34)" style="fill: #a3a3a3"/>
          <path d="M7.22,373.38l-1.14-.62.19-.13,1.14.62-.19.13" transform="translate(0.43 0.34)" style="fill: #9e9e9e"/>
        </g>
      </g>
    </g>
    <g style="isolation: isolate">
      <g style="clip-path: url(#clip-path-32)">
        <g style="isolation: isolate">
          <path d="M6,373.81l-1.14-.62h0l1.14.62H6" transform="translate(0.43 0.34)" style="fill: #9e9e9e"/>
          <path d="M6,373.81l-1.14-.62.06,0,1.14.62-.06,0" transform="translate(0.43 0.34)" style="fill: #a3a3a3"/>
        </g>
      </g>
    </g>
    <g style="isolation: isolate">
      <g style="clip-path: url(#clip-path-33)">
        <g style="isolation: isolate">
          <path d="M8.49,371l-1.14-.62a9,9,0,0,1,.6-4.12l1.14.62a9,9,0,0,0-.6,4.12" transform="translate(0.43 0.34)" style="fill: #858585"/>
          <path d="M9.09,366.9,8,366.28c0-.15.1-.29.16-.44l1.14.62c-.06.15-.11.29-.16.44" transform="translate(0.43 0.34)" style="fill: #8a8a8a"/>
        </g>
      </g>
    </g>
    <g style="isolation: isolate">
      <g style="clip-path: url(#clip-path-34)">
        <g style="isolation: isolate">
          <path d="M9.25,366.46l-1.14-.62c.07-.19.16-.45-.4-.75l1.14.62c.56.3.47.56.4.75" transform="translate(0.43 0.34)" style="fill: #858585"/>
        </g>
      </g>
    </g>
    <g style="isolation: isolate">
      <g style="clip-path: url(#clip-path-35)">
        <g style="isolation: isolate">
          <path d="M5.64,374.47l-1.14-.62a1.11,1.11,0,0,1-.49-.63,8.23,8.23,0,0,1,.17-5.55l1.14.62a8.23,8.23,0,0,0-.17,5.55,1.11,1.11,0,0,0,.49.63" transform="translate(0.43 0.34)" style="fill: #858585"/>
          <path d="M5.32,368.29l-1.14-.62a12.27,12.27,0,0,1,.7-1.54l1.14.62a12.27,12.27,0,0,0-.7,1.54" transform="translate(0.43 0.34)" style="fill: #8a8a8a"/>
          <path d="M6,366.75l-1.14-.62c.15-.28.31-.55.49-.83l.07-.12,1.14.62-.07.12c-.18.28-.34.55-.49.83" transform="translate(0.43 0.34)" style="fill: #8f8f8f"/>
          <path d="M6.58,365.8l-1.14-.62a3.2,3.2,0,0,1,.22-.27l1.14.62a2,2,0,0,0-.22.27" transform="translate(0.43 0.34)" style="fill: #949494"/>
          <path d="M6.8,365.53l-1.14-.62a2.28,2.28,0,0,1,.22-.22l1.14.62-.22.22" transform="translate(0.43 0.34)" style="fill: #999"/>
          <path d="M7,365.31l-1.14-.62a2.11,2.11,0,0,1,.23-.19l1.14.62a2.11,2.11,0,0,0-.23.19" transform="translate(0.43 0.34)" style="fill: #9e9e9e"/>
          <path d="M7.25,365.12l-1.14-.62a1.64,1.64,0,0,1,.29-.16l1.14.62a1.64,1.64,0,0,0-.29.16" transform="translate(0.43 0.34)" style="fill: #a3a3a3"/>
          <path d="M7.54,365l-1.14-.62a1.52,1.52,0,0,1,.5-.15,1.57,1.57,0,0,1,.68,0l1.14.62a1.57,1.57,0,0,0-.68,0,1.52,1.52,0,0,0-.5.15" transform="translate(0.43 0.34)" style="fill: #a8a8a8"/>
          <path d="M8.72,364.85l-1.14-.62a1.43,1.43,0,0,1,.27.09l1.14.62a1.43,1.43,0,0,0-.27-.09" transform="translate(0.43 0.34)" style="fill: #a3a3a3"/>
        </g>
      </g>
    </g>
    <g style="isolation: isolate">
      <g style="clip-path: url(#clip-path-36)">
        <g style="isolation: isolate">
          <path d="M9,364.94l-1.14-.62.11.05L9.1,365,9,364.94" transform="translate(0.43 0.34)" style="fill: #a3a3a3"/>
          <path d="M9.1,365,8,364.37l.11.06,1.14.61L9.1,365" transform="translate(0.43 0.34)" style="fill: #9e9e9e"/>
        </g>
      </g>
    </g>
    <path d="M17.65,369.75a.87.87,0,0,1,.12.71,1.18,1.18,0,0,1-1.11.88,5.74,5.74,0,0,1-1.11,0,9.6,9.6,0,0,0-2.14.06,12.83,12.83,0,0,0-5.68,2.45,3.54,3.54,0,0,1-1.46.72,1.07,1.07,0,0,1-.44,0,1,1,0,0,1-.68-.7c-.83-2.51-.37-5.17,1.36-7.92A2.26,2.26,0,0,1,8,364.81a1.67,1.67,0,0,1,1,.13c.55.25,1.25.7.87,1.72a9,9,0,0,0-.74,3.81,25.4,25.4,0,0,1,4.38-1c.79-.11,1.59-.18,2.37-.21A2.1,2.1,0,0,1,17.65,369.75Zm-1,.86c.26,0,.41-.12.44-.24l0-.12c-.11-.15-.51-.3-1.3-.28a20.57,20.57,0,0,0-2.32.2,24.79,24.79,0,0,0-4.6,1.11l-.35.12,0-.38a9.32,9.32,0,0,1,.76-4.56c.07-.21.18-.5-.57-.84a1.26,1.26,0,0,0-.65-.1,1.49,1.49,0,0,0-1,.76c-1.6,2.55-2,4.93-1.25,7.23a.48.48,0,0,0,.29.33.65.65,0,0,0,.2,0,2.82,2.82,0,0,0,1.14-.59,13.58,13.58,0,0,1,6-2.58,10.08,10.08,0,0,1,2.26-.07,4.81,4.81,0,0,0,1,0" transform="translate(0.43 0.34)" style="fill: #dfdfdf"/>
  </g>
  <circle cx="10.43" cy="370.34" r="7.5" style="fill: none;stroke: #fff;stroke-miterlimit: 10;stroke-width: 0.75px"/>
  <g style="isolation: isolate">
    <polygon points="17.55 370.71 16.41 370.09 16.39 369.97 17.53 370.59 17.55 370.71" style="fill: gray"/>
    <g style="isolation: isolate">
      <g style="clip-path: url(#clip-path-27)">
        <g style="isolation: isolate">
          <path d="M17.1,370.25,16,369.63a.36.36,0,0,0-.13-.11l1.14.62a.36.36,0,0,1,.13.11" transform="translate(0.43 0.34)" style="fill: #858585"/>
        </g>
      </g>
    </g>
    <g style="isolation: isolate">
      <g style="clip-path: url(#clip-path-28)">
        <g style="isolation: isolate">
          <path d="M16.69,370.61,15.55,370a.93.93,0,0,0,.28-.08l1.14.62a.93.93,0,0,1-.28.08" transform="translate(0.43 0.34)" style="fill: #a8a8a8"/>
          <path d="M17,370.53l-1.14-.62.06,0,1.14.62-.06,0" transform="translate(0.43 0.34)" style="fill: #a3a3a3"/>
          <path d="M17,370.5l-1.14-.62,0,0,1.14.62,0,0" transform="translate(0.43 0.34)" style="fill: #9e9e9e"/>
          <path d="M17.06,370.48l-1.14-.62,0,0,1.14.62,0,0" transform="translate(0.43 0.34)" style="fill: #999"/>
          <path d="M17.08,370.45l-1.14-.62h0l1.14.62h0" transform="translate(0.43 0.34)" style="fill: #949494"/>
          <path d="M17.1,370.44,16,369.82v0l1.14.62v0" transform="translate(0.43 0.34)" style="fill: #8f8f8f"/>
          <path d="M17.11,370.42,16,369.8v0l1.14.62v0" transform="translate(0.43 0.34)" style="fill: #8a8a8a"/>
          <path d="M17.12,370.39,16,369.77v0l1.14.62v0" transform="translate(0.43 0.34)" style="fill: #858585"/>
        </g>
      </g>
    </g>
    <g style="isolation: isolate">
      <g style="clip-path: url(#clip-path-29)">
        <g style="isolation: isolate">
          <path d="M9.12,370.47,8,369.85a25.08,25.08,0,0,1,4.37-1c.79-.11,1.59-.18,2.37-.21a4.23,4.23,0,0,1,1.07.09l1.14.62a4.23,4.23,0,0,0-1.07-.09c-.78,0-1.58.1-2.37.21a25.4,25.4,0,0,0-4.38,1" transform="translate(0.43 0.34)" style="fill: #a8a8a8"/>
          <path d="M16.94,369.33l-1.14-.62a1.61,1.61,0,0,1,.33.12l1.14.62a1.61,1.61,0,0,0-.33-.12" transform="translate(0.43 0.34)" style="fill: #a3a3a3"/>
          <path d="M17.27,369.45l-1.14-.62.05,0,1.14.62-.05,0" transform="translate(0.43 0.34)" style="fill: #9e9e9e"/>
        </g>
      </g>
    </g>
    <g style="isolation: isolate">
      <g style="clip-path: url(#clip-path-30)">
        <g style="isolation: isolate">
          <path d="M7.41,373.25l-1.14-.62.24-.17,1.14.62-.24.17" transform="translate(0.43 0.34)" style="fill: #9e9e9e"/>
          <path d="M7.65,373.08l-1.14-.62a15.46,15.46,0,0,1,2.32-1.35l1.14.62a15.46,15.46,0,0,0-2.32,1.35" transform="translate(0.43 0.34)" style="fill: #a3a3a3"/>
          <path d="M10,371.73l-1.14-.62a11.86,11.86,0,0,1,3.46-1.06,10.08,10.08,0,0,1,2.26-.07,4.81,4.81,0,0,0,1,0l1.14.62a4.81,4.81,0,0,1-1,0,10.08,10.08,0,0,0-2.26.07A11.86,11.86,0,0,0,10,371.73" transform="translate(0.43 0.34)" style="fill: #a8a8a8"/>
        </g>
      </g>
    </g>
    <polygon points="8.96 371.74 7.82 371.12 7.78 370.75 8.92 371.37 8.96 371.74" style="fill: gray"/>
    <g style="isolation: isolate">
      <g style="clip-path: url(#clip-path-31)">
        <g style="isolation: isolate">
          <path d="M6.07,373.84l-1.14-.62h.2a1.42,1.42,0,0,0,.41-.13l1.14.62a1.42,1.42,0,0,1-.41.13.65.65,0,0,1-.2,0" transform="translate(0.43 0.34)" style="fill: #a8a8a8"/>
          <path d="M6.68,373.71l-1.14-.62a3.57,3.57,0,0,0,.54-.33l1.14.62a3.57,3.57,0,0,1-.54.33" transform="translate(0.43 0.34)" style="fill: #a3a3a3"/>
          <path d="M7.22,373.38l-1.14-.62.19-.13,1.14.62-.19.13" transform="translate(0.43 0.34)" style="fill: #9e9e9e"/>
        </g>
      </g>
    </g>
    <g style="isolation: isolate">
      <g style="clip-path: url(#clip-path-32)">
        <g style="isolation: isolate">
          <path d="M6,373.81l-1.14-.62h0l1.14.62H6" transform="translate(0.43 0.34)" style="fill: #9e9e9e"/>
          <path d="M6,373.81l-1.14-.62.06,0,1.14.62-.06,0" transform="translate(0.43 0.34)" style="fill: #a3a3a3"/>
        </g>
      </g>
    </g>
    <g style="isolation: isolate">
      <g style="clip-path: url(#clip-path-33)">
        <g style="isolation: isolate">
          <path d="M8.49,371l-1.14-.62a9,9,0,0,1,.6-4.12l1.14.62a9,9,0,0,0-.6,4.12" transform="translate(0.43 0.34)" style="fill: #858585"/>
          <path d="M9.09,366.9,8,366.28c0-.15.1-.29.16-.44l1.14.62c-.06.15-.11.29-.16.44" transform="translate(0.43 0.34)" style="fill: #8a8a8a"/>
        </g>
      </g>
    </g>
    <g style="isolation: isolate">
      <g style="clip-path: url(#clip-path-34)">
        <g style="isolation: isolate">
          <path d="M9.25,366.46l-1.14-.62c.07-.19.16-.45-.4-.75l1.14.62c.56.3.47.56.4.75" transform="translate(0.43 0.34)" style="fill: #858585"/>
        </g>
      </g>
    </g>
    <g style="isolation: isolate">
      <g style="clip-path: url(#clip-path-35)">
        <g style="isolation: isolate">
          <path d="M5.64,374.47l-1.14-.62a1.11,1.11,0,0,1-.49-.63,8.23,8.23,0,0,1,.17-5.55l1.14.62a8.23,8.23,0,0,0-.17,5.55,1.11,1.11,0,0,0,.49.63" transform="translate(0.43 0.34)" style="fill: #858585"/>
          <path d="M5.32,368.29l-1.14-.62a12.27,12.27,0,0,1,.7-1.54l1.14.62a12.27,12.27,0,0,0-.7,1.54" transform="translate(0.43 0.34)" style="fill: #8a8a8a"/>
          <path d="M6,366.75l-1.14-.62c.15-.28.31-.55.49-.83l.07-.12,1.14.62-.07.12c-.18.28-.34.55-.49.83" transform="translate(0.43 0.34)" style="fill: #8f8f8f"/>
          <path d="M6.58,365.8l-1.14-.62a3.2,3.2,0,0,1,.22-.27l1.14.62a2,2,0,0,0-.22.27" transform="translate(0.43 0.34)" style="fill: #949494"/>
          <path d="M6.8,365.53l-1.14-.62a2.28,2.28,0,0,1,.22-.22l1.14.62-.22.22" transform="translate(0.43 0.34)" style="fill: #999"/>
          <path d="M7,365.31l-1.14-.62a2.11,2.11,0,0,1,.23-.19l1.14.62a2.11,2.11,0,0,0-.23.19" transform="translate(0.43 0.34)" style="fill: #9e9e9e"/>
          <path d="M7.25,365.12l-1.14-.62a1.64,1.64,0,0,1,.29-.16l1.14.62a1.64,1.64,0,0,0-.29.16" transform="translate(0.43 0.34)" style="fill: #a3a3a3"/>
          <path d="M7.54,365l-1.14-.62a1.52,1.52,0,0,1,.5-.15,1.57,1.57,0,0,1,.68,0l1.14.62a1.57,1.57,0,0,0-.68,0,1.52,1.52,0,0,0-.5.15" transform="translate(0.43 0.34)" style="fill: #a8a8a8"/>
          <path d="M8.72,364.85l-1.14-.62a1.43,1.43,0,0,1,.27.09l1.14.62a1.43,1.43,0,0,0-.27-.09" transform="translate(0.43 0.34)" style="fill: #a3a3a3"/>
        </g>
      </g>
    </g>
    <g style="isolation: isolate">
      <g style="clip-path: url(#clip-path-36)">
        <g style="isolation: isolate">
          <path d="M9,364.94l-1.14-.62.11.05L9.1,365,9,364.94" transform="translate(0.43 0.34)" style="fill: #a3a3a3"/>
          <path d="M9.1,365,8,364.37l.11.06,1.14.61L9.1,365" transform="translate(0.43 0.34)" style="fill: #9e9e9e"/>
        </g>
      </g>
    </g>
    <path d="M17.65,369.75a.87.87,0,0,1,.12.71,1.18,1.18,0,0,1-1.11.88,5.74,5.74,0,0,1-1.11,0,9.6,9.6,0,0,0-2.14.06,12.83,12.83,0,0,0-5.68,2.45,3.54,3.54,0,0,1-1.46.72,1.07,1.07,0,0,1-.44,0,1,1,0,0,1-.68-.7c-.83-2.51-.37-5.17,1.36-7.92A2.26,2.26,0,0,1,8,364.81a1.67,1.67,0,0,1,1,.13c.55.25,1.25.7.87,1.72a9,9,0,0,0-.74,3.81,25.4,25.4,0,0,1,4.38-1c.79-.11,1.59-.18,2.37-.21A2.1,2.1,0,0,1,17.65,369.75Zm-1,.86c.26,0,.41-.12.44-.24l0-.12c-.11-.15-.51-.3-1.3-.28a20.57,20.57,0,0,0-2.32.2,24.79,24.79,0,0,0-4.6,1.11l-.35.12,0-.38a9.32,9.32,0,0,1,.76-4.56c.07-.21.18-.5-.57-.84a1.26,1.26,0,0,0-.65-.1,1.49,1.49,0,0,0-1,.76c-1.6,2.55-2,4.93-1.25,7.23a.48.48,0,0,0,.29.33.65.65,0,0,0,.2,0,2.82,2.82,0,0,0,1.14-.59,13.58,13.58,0,0,1,6-2.58,10.08,10.08,0,0,1,2.26-.07,4.81,4.81,0,0,0,1,0" transform="translate(0.43 0.34)" style="fill: #dfdfdf"/>
  </g>
  <circle cx="10.43" cy="370.34" r="7.5" style="fill: none;stroke: #fff;stroke-miterlimit: 10;stroke-width: 0.75px"/>
  <g style="isolation: isolate">
    <polygon points="277.56 370.71 276.42 370.09 276.39 369.97 277.53 370.59 277.56 370.71" style="fill: gray"/>
    <g style="isolation: isolate">
      <g style="clip-path: url(#clip-path-47)">
        <g style="isolation: isolate">
          <path d="M277.1,370.25l-1.14-.62a.29.29,0,0,0-.13-.11l1.14.62a.29.29,0,0,1,.13.11" transform="translate(0.43 0.34)" style="fill: #858585"/>
        </g>
      </g>
    </g>
    <g style="isolation: isolate">
      <g style="clip-path: url(#clip-path-48)">
        <g style="isolation: isolate">
          <path d="M276.68,370.61l-1.14-.62a1,1,0,0,0,.29-.07l1.14.62a1,1,0,0,1-.29.07" transform="translate(0.43 0.34)" style="fill: #a8a8a8"/>
          <path d="M277,370.54l-1.14-.62.06,0,1.14.62-.06,0" transform="translate(0.43 0.34)" style="fill: #a3a3a3"/>
          <path d="M277,370.5l-1.14-.62,0,0,1.14.62,0,0" transform="translate(0.43 0.34)" style="fill: #9e9e9e"/>
          <path d="M277.06,370.48l-1.14-.62,0,0,1.14.62,0,0" transform="translate(0.43 0.34)" style="fill: #999"/>
          <path d="M277.08,370.46l-1.14-.62,0,0,1.14.62,0,0" transform="translate(0.43 0.34)" style="fill: #949494"/>
          <path d="M277.1,370.44l-1.14-.62v0l1.14.62v0" transform="translate(0.43 0.34)" style="fill: #8f8f8f"/>
          <path d="M277.11,370.42,276,369.8v0l1.14.62v0" transform="translate(0.43 0.34)" style="fill: #8a8a8a"/>
          <path d="M277.12,370.39l-1.14-.62v0l1.14.62v0" transform="translate(0.43 0.34)" style="fill: #858585"/>
        </g>
      </g>
    </g>
    <g style="isolation: isolate">
      <g style="clip-path: url(#clip-path-49)">
        <g style="isolation: isolate">
          <path d="M275.69,370.6l-1.14-.62a4.12,4.12,0,0,0,1,0l1.14.62a4.12,4.12,0,0,1-1,0" transform="translate(0.43 0.34)" style="fill: #a8a8a8"/>
        </g>
      </g>
    </g>
    <g style="isolation: isolate">
      <g style="clip-path: url(#clip-path-50)">
        <g style="isolation: isolate">
          <path d="M269.13,370.47l-1.14-.62a25.08,25.08,0,0,1,4.37-1q1.2-.16,2.37-.21a4.18,4.18,0,0,1,1.07.09l1.14.62a4.18,4.18,0,0,0-1.07-.09q-1.17,0-2.37.21a25.08,25.08,0,0,0-4.37,1" transform="translate(0.43 0.34)" style="fill: #a8a8a8"/>
          <path d="M276.94,369.33l-1.14-.62a1.61,1.61,0,0,1,.33.12l1.14.62a1.61,1.61,0,0,0-.33-.12" transform="translate(0.43 0.34)" style="fill: #a3a3a3"/>
          <path d="M277.27,369.45l-1.14-.62.05,0,1.14.62-.05,0" transform="translate(0.43 0.34)" style="fill: #9e9e9e"/>
        </g>
      </g>
    </g>
    <g style="isolation: isolate">
      <g style="clip-path: url(#clip-path-51)">
        <g style="isolation: isolate">
          <path d="M267.41,373.25l-1.14-.62.27-.19,1.14.62-.27.19" transform="translate(0.43 0.34)" style="fill: #9e9e9e"/>
          <path d="M267.68,373.06l-1.14-.62a17,17,0,0,1,2.29-1.34l1.14.62a17,17,0,0,0-2.29,1.34" transform="translate(0.43 0.34)" style="fill: #a3a3a3"/>
          <path d="M270,371.72l-1.14-.62a12.08,12.08,0,0,1,3.45-1.05,10.17,10.17,0,0,1,2.27-.07l1.14.62a10.17,10.17,0,0,0-2.27.07,12.08,12.08,0,0,0-3.45,1.05" transform="translate(0.43 0.34)" style="fill: #a8a8a8"/>
        </g>
      </g>
    </g>
    <polygon points="268.96 371.74 267.82 371.12 267.78 370.75 268.92 371.37 268.96 371.74" style="fill: gray"/>
    <g style="isolation: isolate">
      <g style="clip-path: url(#clip-path-52)">
        <g style="isolation: isolate">
          <path d="M266.07,373.84l-1.14-.62h.2a1.23,1.23,0,0,0,.41-.14l1.14.62a1.23,1.23,0,0,1-.41.14.65.65,0,0,1-.2,0" transform="translate(0.43 0.34)" style="fill: #a8a8a8"/>
          <path d="M266.68,373.7l-1.14-.62a3.93,3.93,0,0,0,.55-.32l1.13.62a3.4,3.4,0,0,1-.54.32" transform="translate(0.43 0.34)" style="fill: #a3a3a3"/>
          <path d="M267.22,373.38l-1.13-.62.18-.13,1.14.62-.19.13" transform="translate(0.43 0.34)" style="fill: #9e9e9e"/>
        </g>
      </g>
    </g>
    <g style="isolation: isolate">
      <g style="clip-path: url(#clip-path-53)">
        <g style="isolation: isolate">
          <path d="M266,373.81l-1.14-.62h0l1.14.62h0" transform="translate(0.43 0.34)" style="fill: #9e9e9e"/>
          <path d="M266,373.81l-1.14-.62.06,0,1.14.62-.06,0" transform="translate(0.43 0.34)" style="fill: #a3a3a3"/>
        </g>
      </g>
    </g>
    <g style="isolation: isolate">
      <g style="clip-path: url(#clip-path-54)">
        <g style="isolation: isolate">
          <path d="M268.49,371l-1.14-.62a9,9,0,0,1,.6-4.12l1.14.62a9,9,0,0,0-.6,4.12" transform="translate(0.43 0.34)" style="fill: #858585"/>
          <path d="M269.09,366.9l-1.14-.62c.05-.15.1-.29.16-.44l1.14.62c-.06.15-.11.29-.16.44" transform="translate(0.43 0.34)" style="fill: #8a8a8a"/>
        </g>
      </g>
    </g>
    <g style="isolation: isolate">
      <g style="clip-path: url(#clip-path-55)">
        <g style="isolation: isolate">
          <path d="M265.63,374.46l-1.14-.62a1,1,0,0,1-.48-.62l1.14.62a1,1,0,0,0,.48.62" transform="translate(0.43 0.34)" style="fill: #858585"/>
        </g>
      </g>
    </g>
    <g style="isolation: isolate">
      <g style="clip-path: url(#clip-path-56)">
        <g style="isolation: isolate">
          <path d="M269.25,366.46l-1.14-.62c.07-.19.16-.44-.39-.75l1.14.62c.55.31.46.56.39.75" transform="translate(0.43 0.34)" style="fill: #858585"/>
        </g>
      </g>
    </g>
    <g style="isolation: isolate">
      <g style="clip-path: url(#clip-path-57)">
        <g style="isolation: isolate">
          <path d="M269,364.94l-1.14-.62.13.06,1.14.62-.13-.06" transform="translate(0.43 0.34)" style="fill: #a3a3a3"/>
          <path d="M269.11,365l-1.14-.62.1.05,1.14.62-.1-.05" transform="translate(0.43 0.34)" style="fill: #9e9e9e"/>
        </g>
      </g>
    </g>
    <g style="isolation: isolate">
      <g style="clip-path: url(#clip-path-58)">
        <g style="isolation: isolate">
          <path d="M266.5,365.92l-1.14-.62a.86.86,0,0,1,.07-.1l1.14.62a.86.86,0,0,0-.07.1" transform="translate(0.43 0.34)" style="fill: #8f8f8f"/>
          <path d="M266.57,365.82l-1.14-.62a2.09,2.09,0,0,1,.22-.28l1.14.62a2.09,2.09,0,0,0-.22.28" transform="translate(0.43 0.34)" style="fill: #949494"/>
          <path d="M266.79,365.54l-1.14-.62a2.39,2.39,0,0,1,.22-.23l1.14.62a2.39,2.39,0,0,0-.22.23" transform="translate(0.43 0.34)" style="fill: #999"/>
          <path d="M267,365.31l-1.14-.62a1.81,1.81,0,0,1,.23-.18l1.14.62a1.3,1.3,0,0,0-.23.18" transform="translate(0.43 0.34)" style="fill: #9e9e9e"/>
          <path d="M267.24,365.13l-1.14-.62a3.09,3.09,0,0,1,.29-.17l1.14.62a3.09,3.09,0,0,0-.29.17" transform="translate(0.43 0.34)" style="fill: #a3a3a3"/>
          <path d="M267.53,365l-1.14-.62a1.65,1.65,0,0,1,.51-.15,1.52,1.52,0,0,1,.67,0l1.14.62a1.52,1.52,0,0,0-.67,0,1.65,1.65,0,0,0-.51.15" transform="translate(0.43 0.34)" style="fill: #a8a8a8"/>
          <path d="M268.71,364.85l-1.14-.62a1.43,1.43,0,0,1,.27.09l1.14.62a1.43,1.43,0,0,0-.27-.09" transform="translate(0.43 0.34)" style="fill: #a3a3a3"/>
        </g>
      </g>
    </g>
    <path d="M277.65,369.75a.9.9,0,0,1,.12.71,1.18,1.18,0,0,1-1.11.88,5.74,5.74,0,0,1-1.11,0,9.49,9.49,0,0,0-2.13.06,12.82,12.82,0,0,0-5.69,2.45,3.51,3.51,0,0,1-1.45.72,1.12,1.12,0,0,1-.45,0,1,1,0,0,1-.68-.7c-.83-2.51-.37-5.17,1.35-7.92a2.27,2.27,0,0,1,1.54-1.11,1.63,1.63,0,0,1,.94.13c.56.25,1.25.7.88,1.72a8.8,8.8,0,0,0-.73,3.81,25.08,25.08,0,0,1,4.37-1q1.2-.17,2.37-.21A2.1,2.1,0,0,1,277.65,369.75Zm-1,.86c.27,0,.42-.12.45-.24l0-.12c-.11-.15-.51-.3-1.3-.28a23.39,23.39,0,0,0-2.33.2,25.72,25.72,0,0,0-4.59,1.11l-.35.12,0-.38a9.32,9.32,0,0,1,.76-4.56c.08-.21.18-.5-.58-.84a1.21,1.21,0,0,0-.64-.1,1.45,1.45,0,0,0-1,.76c-1.61,2.55-2,4.93-1.26,7.23a.48.48,0,0,0,.29.33.65.65,0,0,0,.2,0,2.82,2.82,0,0,0,1.14-.59,13.54,13.54,0,0,1,6-2.58,10.17,10.17,0,0,1,2.27-.07,4.12,4.12,0,0,0,1,0" transform="translate(0.43 0.34)" style="fill: #dfdfdf"/>
    <g style="isolation: isolate">
      <g style="clip-path: url(#clip-path-59)">
        <g style="isolation: isolate">
          <path d="M265.15,373.84l-1.14-.62a8.2,8.2,0,0,1,.18-5.56l1.14.62a8.2,8.2,0,0,0-.18,5.56" transform="translate(0.43 0.34)" style="fill: #858585"/>
          <path d="M265.33,368.28l-1.14-.62a10.59,10.59,0,0,1,.7-1.55l1.14.62a10.59,10.59,0,0,0-.7,1.55" transform="translate(0.43 0.34)" style="fill: #8a8a8a"/>
          <path d="M266,366.73l-1.14-.62c.14-.27.3-.54.47-.81l1.14.62c-.17.27-.33.54-.47.81" transform="translate(0.43 0.34)" style="fill: #8f8f8f"/>
        </g>
      </g>
    </g>
  </g>
  <circle cx="270.43" cy="370.34" r="7.5" style="fill: none;stroke: #fff;stroke-miterlimit: 10;stroke-width: 0.75px"/>
</svg>
