<svg id="Calque_1" data-name="Calque 1" xmlns="http://www.w3.org/2000/svg" xmlns:xlink="http://www.w3.org/1999/xlink" viewBox="0 0 150.13114 379.84467"><defs><clipPath id="clip-path" transform="translate(0.06557 -0.07767)"><rect width="150" height="380" style="fill:none"/></clipPath><clipPath id="clip-path-2" transform="translate(0.06557 -0.07767)"><rect x="0.35545" y="0.49869" width="149.2891" height="379.00262" style="fill:none"/></clipPath><linearGradient id="Dégradé_sans_nom_2" x1="-14.4968" y1="-0.02047" x2="-13.49942" y2="-0.02047" gradientTransform="matrix(0, 757.36707, 757.36707, 0, 90.56557, 10938.43167)" gradientUnits="userSpaceOnUse"><stop offset="0" stop-color="#2d4b76"/><stop offset="0.00392" stop-color="#2d4b76"/><stop offset="0.06808" stop-color="#253e65"/><stop offset="0.20312" stop-color="#182846"/><stop offset="0.34471" stop-color="#0d162e"/><stop offset="0.49387" stop-color="#060a1c"/><stop offset="0.65559" stop-color="#010212"/><stop offset="0.85286" stop-color="#00000f"/><stop offset="1" stop-color="#00000f"/></linearGradient><clipPath id="clip-path-4" transform="translate(0.06557 -0.07767)"><rect x="85.01462" y="33.71667" width="55.97077" height="52.56666" style="fill:none"/></clipPath><clipPath id="clip-path-7" transform="translate(0.06557 -0.07767)"><path d="M18.82939,369.52014l1.13966.62a.40728.40728,0,0,1,.13246.10535l-1.13968-.62A.40686.40686,0,0,0,18.82939,369.52014Z" style="fill:none"/></clipPath><clipPath id="clip-path-8" transform="translate(0.06557 -0.07767)"><path d="M19.688,370.60852l-1.13966-.62c.25954-.03648.40795-.11575.43731-.23673l1.13967.62C20.09593,370.49277,19.94752,370.572,19.688,370.60852Z" style="fill:none"/></clipPath><clipPath id="clip-path-9" transform="translate(0.06557 -0.07767)"><path d="M19.18025,368.85816l1.13966.62a2.8974,2.8974,0,0,0-1.44982-.23513,22.62089,22.62089,0,0,0-2.37506.20906,26.1199,26.1199,0,0,0-4.37023,1.01555l-1.13967-.61995a26.11941,26.11941,0,0,1,4.37023-1.01556,22.61575,22.61575,0,0,1,2.37506-.20906A2.89744,2.89744,0,0,1,19.18025,368.85816Z" style="fill:none"/></clipPath><clipPath id="clip-path-10" transform="translate(0.06557 -0.07767)"><path d="M10.40584,373.2504l-1.13966-.62a13.68475,13.68475,0,0,1,6.026-2.58211,10.27434,10.27434,0,0,1,2.25952-.06905,4.51766,4.51766,0,0,0,.9966.00928l1.13966.62a4.51766,4.51766,0,0,1-.9966-.00928,10.27315,10.27315,0,0,0-2.25952.06905A13.68452,13.68452,0,0,0,10.40584,373.2504Z" style="fill:none"/></clipPath><clipPath id="clip-path-11" transform="translate(0.06557 -0.07767)"><path d="M9.06736,373.83611l-1.13966-.62a.54016.54016,0,0,0,.2002.00417,2.73745,2.73745,0,0,0,1.13828-.5899l1.13966.62a2.73758,2.73758,0,0,1-1.13828.5899A.53985.53985,0,0,1,9.06736,373.83611Z" style="fill:none"/></clipPath><clipPath id="clip-path-12" transform="translate(0.06557 -0.07767)"><path d="M8.99843,373.808l-1.13967-.62a.34462.34462,0,0,0,.06894.02809l1.13966.62A.34405.34405,0,0,1,8.99843,373.808Z" style="fill:none"/></clipPath><clipPath id="clip-path-13" transform="translate(0.06557 -0.07767)"><path d="M11.49111,371.0234l-1.13967-.62a9.33046,9.33046,0,0,1,.76125-4.55846l1.13967.62A9.33019,9.33019,0,0,0,11.49111,371.0234Z" style="fill:none"/></clipPath><clipPath id="clip-path-14" transform="translate(0.06557 -0.07767)"><path d="M10.71167,365.08741l1.13966.62c.56056.30493.46733.55846.401.75757l-1.13967-.62C11.179,365.64588,11.27222,365.39234,10.71167,365.08741Z" style="fill:none"/></clipPath><clipPath id="clip-path-15" transform="translate(0.06557 -0.07767)"><path d="M8.639,374.46629l-1.13967-.62a1.06916,1.06916,0,0,1-.48455-.62289c-.83623-2.51011-.37481-5.17672,1.35209-7.92607a2.25549,2.25549,0,0,1,1.53673-1.11219,1.78807,1.78807,0,0,1,.94767.132l1.13967.62a1.78822,1.78822,0,0,0-.94768-.132,2.25551,2.25551,0,0,0-1.53673,1.1122c-1.72689,2.74935-2.18832,5.416-1.35209,7.92607A1.06918,1.06918,0,0,0,8.639,374.46629Z" style="fill:none"/></clipPath><clipPath id="clip-path-16" transform="translate(0.06557 -0.07767)"><path d="M11.069,364.425l1.13965.62c-.07322-.03984-.14666-.07552-.21772-.10781l-1.13967-.62C10.92232,364.34952,10.99576,364.38519,11.069,364.425Z" style="fill:none"/></clipPath><clipPath id="clip-path-17" transform="translate(0.06557 -0.07767)"><path d="M143.83038,369.52014l1.13966.62a.40724.40724,0,0,1,.13247.10536l-1.13967-.62A.40707.40707,0,0,0,143.83038,369.52014Z" style="fill:none"/></clipPath><clipPath id="clip-path-18" transform="translate(0.06557 -0.07767)"><path d="M144.6831,370.6127l-1.13966-.62c.26465-.0372.41739-.11941.45123-.24205l1.13965.62C145.10049,370.4933,144.94776,370.57551,144.6831,370.6127Z" style="fill:none"/></clipPath><clipPath id="clip-path-19" transform="translate(0.06557 -0.07767)"><path d="M143.69238,370.59924l-1.13966-.62a4.28654,4.28654,0,0,0,.99072.01347l1.13966.62A4.28643,4.28643,0,0,1,143.69238,370.59924Z" style="fill:none"/></clipPath><clipPath id="clip-path-20" transform="translate(0.06557 -0.07767)"><path d="M144.18124,368.85815l1.13966.62a2.89744,2.89744,0,0,0-1.44981-.23512,22.619,22.619,0,0,0-2.37509.20907,26.11908,26.11908,0,0,0-4.37018,1.01554l-1.13967-.61995a26.11829,26.11829,0,0,1,4.37019-1.01556,22.61881,22.61881,0,0,1,2.37508-.20906A2.89736,2.89736,0,0,1,144.18124,368.85815Z" style="fill:none"/></clipPath><clipPath id="clip-path-21" transform="translate(0.06557 -0.07767)"><path d="M135.40684,373.2504l-1.13966-.62a13.59947,13.59947,0,0,1,6.01554-2.582,10.3208,10.3208,0,0,1,2.27-.06911l1.13966.62a10.32141,10.32141,0,0,0-2.27.0691A13.59949,13.59949,0,0,0,135.40684,373.2504Z" style="fill:none"/></clipPath><clipPath id="clip-path-22" transform="translate(0.06557 -0.07767)"><path d="M134.06839,373.83611l-1.13967-.62a.55767.55767,0,0,0,.20766.0047,2.67486,2.67486,0,0,0,1.1308-.59043l1.13966.62a2.675,2.675,0,0,1-1.1308.59043A.55753.55753,0,0,1,134.06839,373.83611Z" style="fill:none"/></clipPath><clipPath id="clip-path-23" transform="translate(0.06557 -0.07767)"><path d="M133.99942,373.808l-1.13967-.62a.34431.34431,0,0,0,.069.0281l1.13966.62A.34466.34466,0,0,1,133.99942,373.808Z" style="fill:none"/></clipPath><clipPath id="clip-path-24" transform="translate(0.06557 -0.07767)"><path d="M136.49213,371.0234l-1.13967-.62a9.4217,9.4217,0,0,1,.76123-4.55845l1.13967.62A9.42147,9.42147,0,0,0,136.49213,371.0234Z" style="fill:none"/></clipPath><clipPath id="clip-path-25" transform="translate(0.06557 -0.07767)"><path d="M135.7149,365.0885l1.13966.62c.55936.30427.47234.55658.3988.75647l-1.13967-.62C136.18724,365.64509,136.27426,365.39279,135.7149,365.0885Z" style="fill:none"/></clipPath><clipPath id="clip-path-26" transform="translate(0.06557 -0.07767)"><path d="M133.64,374.46629l-1.13966-.62a1.06924,1.06924,0,0,1-.48459-.62288c-.83621-2.51012-.37479-5.17673,1.35211-7.92608a2.25549,2.25549,0,0,1,1.53673-1.11219,1.78807,1.78807,0,0,1,.94767.132l1.13967.62a1.78822,1.78822,0,0,0-.94768-.132,2.25551,2.25551,0,0,0-1.53673,1.1122c-1.72689,2.74935-2.18832,5.416-1.35211,7.92607A1.06925,1.06925,0,0,0,133.64,374.46629Z" style="fill:none"/></clipPath><clipPath id="clip-path-27" transform="translate(0.06557 -0.07767)"><path d="M136.07,364.425l1.13966.62c-.07324-.03984-.14669-.07552-.21776-.10782l-1.13967-.62C135.92333,364.34952,135.99678,364.3852,136.07,364.425Z" style="fill:none"/></clipPath></defs><title>TimeDiktat</title><path d="M48.9975,92.34424a.44128.44128,0,0,1-.15381.35742.47929.47929,0,0,1-.304.123.70019.70019,0,0,1-.40466-.14356,3.18637,3.18637,0,0,1-.44494-.39551q-.12818-.13478-.315-.35449t-.43945-.53614q-.06225-.07617-.2417-.29883t-.47607-.59764a7.92217,7.92217,0,0,0-.67017-.791.8553.8553,0,0,0-.38452-.06446q-.05491,0-.17761.00879t-.31678.03222a.80481.80481,0,0,1-.13549-.5332q0-.32811.14282-.39258.01832-.00587.06043-.01465t.097-.01758q.05492-.00879.119-.01757t.13-.02051a2.17586,2.17586,0,0,0,.86792-.4336q.13549-.11132.26733-.23729t.26733-.26661a3.71829,3.71829,0,0,0,.47608-.63867,1.28,1.28,0,0,0,.2124-.67968,1.17293,1.17293,0,0,0-.08972-.47168,1.67986,1.67986,0,0,0-.238-.40723,1.82033,1.82033,0,0,0-.31676-.31347,1.78949,1.78949,0,0,0-.32227-.20215,1.333,1.333,0,0,0-.55664-.123q-.08423,0-.19959.01172t-.26184.03516q-.14282.02343-.26917.04686t-.23254.05275q-.1062.0293-.22888.06445t-.26184.082a3.2273,3.2273,0,0,1,.14648.67969,5.90036,5.90036,0,0,1,.06226.75586q0,.17577-.0055.33984t-.01282.31641q-.00732.15234-.02013.31053t-.03113.32228q-.033.32814-.08789.82617-.09522.86719-.13184,1.35938-.01831.25194-.0293.48632t-.011.457a5.17238,5.17238,0,0,0,.04394.71191,2.7624,2.7624,0,0,0,.16846.62988.62078.62078,0,0,1-.14649.21387.27547.27547,0,0,1-.18312.09082.40549.40549,0,0,1-.35889-.1582.88065.88065,0,0,1-.14282-.416c-.02014-.23686-.02871-.47586-.02563-.71485q.00052-.3142.022-.627.022-.32811.05125-.60057t.06226-.57129q.0183-.13476.03662-.33107t.04394-.4541q.05125-.51561.0824-.99022.02929-.42324.03113-.84961,0-.35742-.01465-.73828t-.04394-.79689a2.73514,2.73514,0,0,1-.45044.1875c-.05934.01291-.118-.03054-.15015-.11132a1.01357,1.01357,0,0,1-.03662-.30468.56359.56359,0,0,1,.26-.42775q.13185-.0996.26187-.18164t.25819-.14647a3.4004,3.4004,0,0,1,.78368-.26368,3.44129,3.44129,0,0,1,.813-.123,2.86557,2.86557,0,0,1,1.08032.21094,1.90043,1.90043,0,0,1,.88257.73242,2.46083,2.46083,0,0,1,.36255,1.41211,2.4,2.4,0,0,1-.26367,1.08985,3.966,3.966,0,0,1-.62073.9082,8.52857,8.52857,0,0,1-.77454.73829q.24171.26365.65919.73828.20874.23439.39187.43945t.34058.38672q.16113.17577.35522.38965t.42847.46582q.23438.252.412.43652T48.9975,92.34424Z" transform="translate(0.06557 -0.07767)" style="fill:#fefcfd"/><path d="M54.92645,88.55908a1.50825,1.50825,0,0,1-.011.167c-.00764.06646-.018.132-.03113.19629q-.02013.0996-.04394.19043a.80924.80924,0,0,1-.04944.14356q-.022.04689-.06409.126t-.09339.17286q-.05124.09373-.11169.19628t-.12634.19629q-.22705.334-.44495.64746a4.53375,4.53375,0,0,1-.4486.55372,2.16026,2.16026,0,0,1-.48157.38378,1.03223,1.03223,0,0,1-.54383.1377.54362.54362,0,0,1-.27282-.0791.96063.96063,0,0,1-.25818-.22559,1.44019,1.44019,0,0,1-.20875-.35156,1.82194,1.82194,0,0,1-.12452-.45118q-.1062.17579-.22338.36621t-.24353.38379q-.12636.19335-.26188.375a3.87473,3.87473,0,0,1-.27832.334q-.08057.082-.19226.17578a2.312,2.312,0,0,1-.23437.17286,1.48348,1.48348,0,0,1-.24536.1289.59747.59747,0,0,1-.22156.04981A.31291.31291,0,0,1,49.45339,92.4a1.33529,1.33529,0,0,1-.17944-.36621,2.6738,2.6738,0,0,1-.1062-.46289,3.173,3.173,0,0,1-.0348-.43945,4.65842,4.65842,0,0,1,.06958-.791,7.17253,7.17253,0,0,1,.18125-.78808q.1095-.37737.249-.7295.13732-.34567.26916-.61523a4.616,4.616,0,0,1,.3296-.55957,4.22572,4.22572,0,0,1,.3955-.498,2.4464,2.4464,0,0,1,.40283-.35449.65215.65215,0,0,1,.35157-.13477h.163a.99332.99332,0,0,1,.17029.01464.82138.82138,0,0,1,.16479.04689.44393.44393,0,0,1,.14649.09668.52545.52545,0,0,1,.07687.13475,2.12143,2.12143,0,0,1,.0824.22266c.025.0795.04639.16174.06408.24609a1.00829,1.00829,0,0,1,.02563.19336,3.22781,3.22781,0,0,1-.05493.51564q-.05859.4043-.108.73535a4.61741,4.61741,0,0,0-.04944.68262,2.13794,2.13794,0,0,0,.04029.40721,1.76214,1.76214,0,0,0,.11536.37793.91.91,0,0,0,.18312.27832.33525.33525,0,0,0,.24353.1084.85216.85216,0,0,0,.45776-.1494,2.44369,2.44369,0,0,0,.47424-.41016,5.66055,5.66055,0,0,0,.47791-.60351q.238-.34278.46875-.7295.0183-.03514.06408-.12011t.09522-.16993q.04944-.085.097-.15234a.14592.14592,0,0,1,.06958-.06738Q54.92646,88.31884,54.92645,88.55908Zm-3.25927-.48633q0-.09962-.00733-.24609a.7059.7059,0,0,0-.0476-.24023c-.0203-.05662-.05809-.09133-.09888-.09082q-.05859.00292-.11719.00293a.51235.51235,0,0,0-.24719.06445,1.00859,1.00859,0,0,0-.23254.17871,1.98834,1.98834,0,0,0-.2179.26368q-.10437.14942-.20325.31347a3.21477,3.21477,0,0,0-.17761.334q-.09339.19921-.18312.43653t-.17395.498q-.08161.25152-.14649.51564c-.0396.16044-.07264.32486-.09888.49218a2.84605,2.84605,0,0,0-.03662.43067c.00073.052.00379.10393.00916.15527a1.53415,1.53415,0,0,0,.02929.1875.60257.60257,0,0,0,.05493.15528.10085.10085,0,0,0,.08607.06446.82077.82077,0,0,0,.42114-.16993,2.42382,2.42382,0,0,0,.62437-.6416,4.27533,4.27533,0,0,0,.47791-.94043A5.35946,5.35946,0,0,0,51.66718,88.07275Z" transform="translate(0.06557 -0.07767)" style="fill:#fefcfd"/><path d="M54.5163,90.89111a8.68693,8.68693,0,0,1,.05312-.96679q.05313-.47461.11719-.90528t.11719-.79394a4.44908,4.44908,0,0,0,.05312-.63281q0-.0879-.033-.1084a.16415.16415,0,0,0-.08789-.02051.31154.31154,0,0,0-.097.01758q-.05311.01758-.10986.03515t-.10987.03516a.30328.30328,0,0,1-.09338.01757q-.12452,0-.21973-.00293a.31747.31747,0,0,1-.16113-.044.24942.24942,0,0,1-.09887-.14062.99123.99123,0,0,1-.033-.293.25533.25533,0,0,1,.0348-.1377.29355.29355,0,0,1,.08789-.09082.35224.35224,0,0,1,.11718-.0498.551.551,0,0,1,.12269-.01465.919.919,0,0,0,.13367-.01465q.08971-.01466.19043-.03515t.19225-.03809q.09156-.01757.1355-.02344a.17183.17183,0,0,0,.11353-.09668,1.03611,1.03611,0,0,0,.09522-.21386,2.7562,2.7562,0,0,0,.1062-.46875l.04577-.3955q.02748-.23731.06043-.48047t.07141-.46289a2.89485,2.89485,0,0,1,.07875-.34864.665.665,0,0,1,.10255-.21386.17939.17939,0,0,1,.14648-.07325q.26,0,.26.45118a3.19073,3.19073,0,0,1-.07688.63867q-.022.11718-.05125.28125t-.05493.3369q-.02562.17288-.04394.32521a2.15512,2.15512,0,0,0-.01832.24609c-.00808.10074.03642.19289.09938.20581a.07249.07249,0,0,0,.03246-.00073q.15747,0,.27466-.00586a2.2372,2.2372,0,0,0,.23071-.02344,2.45576,2.45576,0,0,0,.2472-.05272q.13366-.03516.32775-.09961.1575-.05274.23987-.085t.14466-.06153l.13-.06153q.06774-.0322.1886-.085,0,.01171.0238.0381t.05125.06152q.02746.03514.04944.06738a.1021.1021,0,0,1,.022.04982.57917.57917,0,0,1-.02563.17871.70065.70065,0,0,1-.06408.14354.63646.63646,0,0,1-.08606.11426q-.04761.0498-.09522.09082a1.9788,1.9788,0,0,1-.51819.25781q-.2838.09375-.55847.16407-.18312.04689-.32959.082a2.105,2.105,0,0,0-.25452.07617.87346.87346,0,0,0-.18125.09082.28141.28141,0,0,0-.1062.13184q-.01831.08789-.05312.30468t-.07688.4834q-.04211.26661-.0824.54785t-.06592.50391q-.01464.10547-.03112.2959t-.033.3955q-.01647.20508-.02563.38672t-.00915.26953a1.81327,1.81327,0,0,0,.12085.73828.39267.39267,0,0,0,.38818.22265,1.86842,1.86842,0,0,0,.35888-.06738,1.30718,1.30718,0,0,0,.34607-.167,2.791,2.791,0,0,0,.3827-.31348q.20508-.19629.47241-.501.08057-.09375.15562-.19628t.141-.18457a1.40559,1.40559,0,0,1,.1245-.13771.16814.16814,0,0,1,.10987-.05565q.06592,0,.0824.03807a.39378.39378,0,0,1,.01648.13771.64786.64786,0,0,1-.03479.1875,1.91755,1.91755,0,0,1-.09522.24022,2.53192,2.53192,0,0,1-.14648.26661,2.69971,2.69971,0,0,1-.18494.26075q-.21606.27537-.44861.52147a4.05883,4.05883,0,0,1-.47241.43066,2.46167,2.46167,0,0,1-.4779.293,1.1258,1.1258,0,0,1-.46875.1084.74665.74665,0,0,1-.45045-.13476,1.00467,1.00467,0,0,1-.304-.36036,1.869,1.869,0,0,1-.17212-.51269A3.17427,3.17427,0,0,1,54.5163,90.89111Z" transform="translate(0.06557 -0.07767)" style="fill:#fefcfd"/><path d="M61.163,89.6372a1.20973,1.20973,0,0,1-.09522.44532,3.95674,3.95674,0,0,1-.271.53906,4.81758,4.81758,0,0,1-.44312.62988,3.92973,3.92973,0,0,1-.498.50391,2.40193,2.40193,0,0,1-.52.33692,1.20237,1.20237,0,0,1-.509.123.96647.96647,0,0,1-.8899-.59179,3.81092,3.81092,0,0,1-.31494-1.73438,6.99167,6.99167,0,0,1,.04029-.74121,7.27191,7.27191,0,0,1,.119-.74707,6.10556,6.10556,0,0,1,.19775-.71485,4.57507,4.57507,0,0,1,.27649-.64453q.09887-.18163.21972-.36915a2.11739,2.11739,0,0,1,.26734-.3369,1.33353,1.33353,0,0,1,.32043-.24316.78556.78556,0,0,1,.379-.09375.41863.41863,0,0,1,.26367.09082.77518.77518,0,0,1,.19775.23144,1.19043,1.19043,0,0,1,.12268.31641,1.4789,1.4789,0,0,1,.04212.3457,2.29583,2.29583,0,0,1-.12085.72363,3.78265,3.78265,0,0,1-.34057.73828,5.79439,5.79439,0,0,1-.52735.74414,9.58841,9.58841,0,0,1-.68482.74122q-.05125.04689-.10253.10253a.19389.19389,0,0,0-.05125.13771,2.46521,2.46521,0,0,0,.02929.36914.95814.95814,0,0,0,.31312.62109.50648.50648,0,0,0,.33142.10547,1.1683,1.1683,0,0,0,.52188-.13183,2.253,2.253,0,0,0,.52-.36621,4.00368,4.00368,0,0,0,.49437-.55664,6.28837,6.28837,0,0,0,.44861-.69727q.1172-.20508.18677-.20508c.028.0013.052.03252.05859.07617A1.21089,1.21089,0,0,1,61.163,89.6372Zm-1.69922-2.502a.302.302,0,0,0-.022-.11718.31244.31244,0,0,0-.05312-.0879.27608.27608,0,0,0-.06592-.05567.12445.12445,0,0,0-.06042-.0205.46933.46933,0,0,0-.32959.18457,1.93172,1.93172,0,0,0-.31494.5127,4.59219,4.59219,0,0,0-.25635.7793,6.10687,6.10687,0,0,0-.15015.9785q.05126-.05273.1355-.15234t.18125-.21973q.09706-.1201.1941-.24315t.174-.22853q.16845-.2285.27832-.40722a2.56817,2.56817,0,0,0,.17395-.32813,1.33949,1.33949,0,0,0,.08972-.293,1.715,1.715,0,0,0,.02568-.30169Z" transform="translate(0.06557 -0.07767)" style="fill:#fefcfd"/><g id="Panel_14_HP" data-name="Panel 14 HP"><g style="clip-path:url(#clip-path)"><g style="clip-path:url(#clip-path-2)"><rect x="0.42102" y="0.42102" width="149.28909" height="379.00262" style="fill:url(#Dégradé_sans_nom_2)"/></g><g style="clip-path:url(#clip-path)"><rect x="0.42102" y="0.42102" width="149.2891" height="379.00262" style="fill:none;stroke:#000;stroke-miterlimit:10;stroke-width:0.8420419190424174px"/></g></g></g><path d="M139.67414,92.76467" transform="translate(0.06557 -0.07767)" style="fill:none;stroke:#fefefe;stroke-miterlimit:10;stroke-width:3px"/><path d="M85.32586,92.76467" transform="translate(0.06557 -0.07767)" style="fill:none;stroke:#fefefe;stroke-miterlimit:10;stroke-width:3px"/><path d="M140.45054,93.5" transform="translate(0.06557 -0.07767)" style="fill:none;stroke:#000;stroke-miterlimit:10;stroke-width:2px"/><path d="M84.54946,93.5" transform="translate(0.06557 -0.07767)" style="fill:none;stroke:#000;stroke-miterlimit:10;stroke-width:2px"/><path d="M90,195.47831" transform="translate(0.06557 -0.07767)" style="fill:none;stroke:#fefefe;stroke-miterlimit:10"/><path d="M139.67414,104.23529" transform="translate(0.06557 -0.07767)" style="fill:none;stroke:#fefefe;stroke-miterlimit:10;stroke-width:3px"/><path d="M82.32586,104.23529" transform="translate(0.06557 -0.07767)" style="fill:none;stroke:#fefefe;stroke-miterlimit:10;stroke-width:3px"/><path d="M140.45054,103.5" transform="translate(0.06557 -0.07767)" style="fill:none;stroke:#000;stroke-miterlimit:10;stroke-width:2px"/><path d="M81.54946,103.5" transform="translate(0.06557 -0.07767)" style="fill:none;stroke:#000;stroke-miterlimit:10;stroke-width:2px"/><path d="M90,351.30328" transform="translate(0.06557 -0.07767)" style="fill:none;stroke:#fefefe;stroke-miterlimit:10"/><path d="M90,195.43207" transform="translate(0.06557 -0.07767)" style="fill:none;stroke:#fefefe;stroke-miterlimit:10;stroke-width:3px"/><path d="M89,194.53012" transform="translate(0.06557 -0.07767)" style="fill:none;stroke:#000;stroke-miterlimit:10;stroke-width:2px"/><path d="M89,351.4699" transform="translate(0.06557 -0.07767)" style="fill:none;stroke:#000;stroke-miterlimit:10;stroke-width:2px"/><path d="M75,195.47831" transform="translate(0.06557 -0.07767)" style="fill:none;stroke:#fefefe;stroke-miterlimit:10"/><path d="M75,351.30328" transform="translate(0.06557 -0.07767)" style="fill:none;stroke:#fefefe;stroke-miterlimit:10"/><path d="M75,195.43207" transform="translate(0.06557 -0.07767)" style="fill:none;stroke:#fefefe;stroke-miterlimit:10;stroke-width:3px"/><path d="M90,350.56794" transform="translate(0.06557 -0.07767)" style="fill:none;stroke:#fefefe;stroke-miterlimit:10;stroke-width:3px"/><path d="M75,350.56794" transform="translate(0.06557 -0.07767)" style="fill:none;stroke:#fefefe;stroke-miterlimit:10;stroke-width:3px"/><path d="M76,194.53012" transform="translate(0.06557 -0.07767)" style="fill:none;stroke:#000;stroke-miterlimit:10;stroke-width:2px"/><path d="M76,351.4699" transform="translate(0.06557 -0.07767)" style="fill:none;stroke:#000;stroke-miterlimit:10;stroke-width:2px"/><path d="M17.43855,157.764" transform="translate(0.06557 -0.07767)" style="fill:none;stroke:#fefefe;stroke-miterlimit:10"/><path d="M53.83745,133" transform="translate(0.06557 -0.07767)" style="fill:none;stroke:#fefefe;stroke-miterlimit:10"/><path d="M50.83745,105" transform="translate(0.06557 -0.07767)" style="fill:none;stroke:#fefefe;stroke-miterlimit:10"/><path d="M11.78581,107.764" transform="translate(0.06557 -0.07767)" style="fill:none;stroke:#fefefe;stroke-miterlimit:10"/><path d="M17.1201,158.264" transform="translate(0.06557 -0.07767)" style="fill:none;stroke:#000;stroke-miterlimit:10"/><path d="M54.1559,133.5" transform="translate(0.06557 -0.07767)" style="fill:none;stroke:#000;stroke-miterlimit:10"/><path d="M51.1559,104.5" transform="translate(0.06557 -0.07767)" style="fill:none;stroke:#000;stroke-miterlimit:10"/><path d="M11.45724,107.264" transform="translate(0.06557 -0.07767)" style="fill:none;stroke:#000;stroke-miterlimit:10"/><path d="M51.138,125" transform="translate(0.06557 -0.07767)" style="fill:none;stroke:#000;stroke-miterlimit:10"/><path d="M12.138,127.764" transform="translate(0.06557 -0.07767)" style="fill:none;stroke:#000;stroke-miterlimit:10"/><path d="M98.36133,85.6626h3.42773a2.51833,2.51833,0,0,1,2.42676,2.43164,3.605,3.605,0,0,1-.36914,1.70654,1.2377,1.2377,0,0,1-1.11035.72022l1.20605,1.2207a1.02564,1.02564,0,0,1,.28809.75684.86648.86648,0,0,1-.97656.97167,1.33549,1.33549,0,0,1-.98145-.47851l-1.95312-2.42188a1.53046,1.53046,0,0,1-.498-1.00586.86668.86668,0,0,1,.98633-.98144l.69336-.00488q.77051.00951.76172-.47364,0-.48339-.76661-.48339H99.34277v4.873a.86307.86307,0,0,1-.98144.97656.85338.85338,0,0,1-.97656-.96679v-5.874A.86626.86626,0,0,1,98.36133,85.6626Z" transform="translate(0.06557 -0.07767)" style="fill:#fff"/><path d="M106.17871,93.4751a1.00791,1.00791,0,0,1-.48144-.12451.8986.8986,0,0,1-.36329-.35889.99182.99182,0,0,1-.13183-.49316,23.59068,23.59068,0,0,1,1.46-3.18848q1.459-2.93481,1.58691-3.16651a.894.894,0,0,1,.36133-.36132.99325.99325,0,0,1,.48828-.1294.97973.97973,0,0,1,.48535.1294.91209.91209,0,0,1,.36133.36132q.13038.23218,1.59668,3.16651a23.57739,23.57739,0,0,1,1.46778,3.18848.99183.99183,0,0,1-.13184.49316.89378.89378,0,0,1-.36621.35889,1.01108,1.01108,0,0,1-.47852.12451Zm4.25781-1.96778-1.33789-2.749-1.34277,2.749Z" transform="translate(0.06557 -0.07767)" style="fill:#fff"/><path d="M114.958,85.65283l4.9414.00977a.83568.83568,0,0,1,.918.94726.89077.89077,0,0,1-.98633,1.01075h-1.46l.00489,4.87793a.8741.8741,0,0,1-.98145.97167.85039.85039,0,0,1-.97656-.94726l.00488-4.90234H114.958a.8652.8652,0,0,1-.97656-.98145A.88052.88052,0,0,1,114.958,85.65283Z" transform="translate(0.06557 -0.07767)" style="fill:#fff"/><path d="M122.76563,85.65283l4.9414.00977a.83569.83569,0,0,1,.918.94726.89077.89077,0,0,1-.98633,1.01075h-3.8916v3.8916h3.88184a.8746.8746,0,0,1,.98632.98633.86515.86515,0,0,1-.96679.97167h-4.88281a.85273.85273,0,0,1-.97657-.94726V86.63916A.88053.88053,0,0,1,122.76563,85.65283Zm1.45019,3.93555a.87839.87839,0,0,1,.9668-.99121h1.96289a.97906.97906,0,1,1,.00488,1.958H125.1875A.85643.85643,0,0,1,124.21582,89.58838Z" transform="translate(0.06557 -0.07767)" style="fill:#fff"/><path d="M9.11279,4.17529l8.89453.01758A1.50338,1.50338,0,0,1,19.65967,5.898a1.60314,1.60314,0,0,1-1.77539,1.81934H15.25635l.00879,8.78027a1.5729,1.5729,0,0,1-1.7666,1.749,1.53083,1.53083,0,0,1-1.75782-1.70508l.00879-8.82421H9.11279A1.5576,1.5576,0,0,1,7.355,5.95068,1.58556,1.58556,0,0,1,9.11279,4.17529Z" transform="translate(0.06557 -0.07767)" style="fill:#fff"/><path d="M23.15771,4.19287a1.582,1.582,0,0,1,1.78418,1.74024V16.49756a1.59337,1.59337,0,0,1-1.7666,1.78418,1.58057,1.58057,0,0,1-1.75781-1.77539V5.94189A1.542,1.542,0,0,1,23.15771,4.19287Z" transform="translate(0.06557 -0.07767)" style="fill:#fff"/><path d="M28.42236,4.19287a1.81607,1.81607,0,0,1,1.30957.44824q.42188.43066,3.98145,3.97266Q37.229,5.09814,37.66846,4.64551A1.746,1.746,0,0,1,38.978,4.19287a1.55928,1.55928,0,0,1,1.75781,1.749l.00879,10.54688a1.58346,1.58346,0,0,1-1.77539,1.77539,1.5845,1.5845,0,0,1-1.7666-1.77539V10.2749Q35.436,12.09424,35.001,12.53809a2.10343,2.10343,0,0,1-2.60157-.01319q-.45263-.457-2.21045-2.21484v6.17871a1.568,1.568,0,0,1-1.75781,1.75781,1.5445,1.5445,0,0,1-1.75781-1.75781V5.94189A1.54593,1.54593,0,0,1,28.42236,4.19287Z" transform="translate(0.06557 -0.07767)" style="fill:#fff"/><path d="M44.25146,4.17529l8.89454.01758A1.50337,1.50337,0,0,1,54.79834,5.898,1.60314,1.60314,0,0,1,53.023,7.71729H46.01807v7.00488h6.9873a1.57392,1.57392,0,0,1,1.77539,1.77539,1.55632,1.55632,0,0,1-1.74023,1.749H44.25146a1.53551,1.53551,0,0,1-1.75781-1.70508V5.95068A1.58556,1.58556,0,0,1,44.25146,4.17529Zm2.61036,7.084A1.582,1.582,0,0,1,48.60205,9.4751h3.5332a1.59336,1.59336,0,0,1,1.78418,1.7666A1.58056,1.58056,0,0,1,52.144,12.99951h-3.5332A1.542,1.542,0,0,1,46.86182,11.25928Z" transform="translate(0.06557 -0.07767)" style="fill:#fff"/><path d="M67.08545,4.19287h5.27344q7.04.00879,7.04,7.03125-.00879,7.00488-6.85547,7.02246h-5.458a1.54448,1.54448,0,0,1-1.75781-1.75781V5.95068A1.56313,1.56313,0,0,1,67.08545,4.19287Zm1.7666,3.52442v7.00488h3.52441q3.49806.02637,3.48047-3.52442.01758-3.46288-3.48925-3.48046Z" transform="translate(0.06557 -0.07767)" style="fill:#fff"/><path d="M82.90576,4.19287a1.58255,1.58255,0,0,1,1.78467,1.74024V16.49756a1.76254,1.76254,0,1,1-3.5249.00879V5.94189A1.542,1.542,0,0,1,82.90576,4.19287Z" transform="translate(0.06557 -0.07767)" style="fill:#fff"/><path d="M89.94629,5.94189,89.9375,16.48877a1.57186,1.57186,0,0,1-1.7666,1.75781,1.54591,1.54591,0,0,1-1.749-1.749V5.95068a1.76223,1.76223,0,1,1,3.52441-.00879ZM98.292,4.60156a1.69584,1.69584,0,0,1,.43457,1.33155,2.33628,2.33628,0,0,1-.93164,1.749l-3.21679,3.52441,3.22558,3.498a2.24934,2.24934,0,0,1,.91406,1.78418,1.61283,1.61283,0,0,1-.43554,1.33154,1.82455,1.82455,0,0,1-1.33106.42627,1.79811,1.79811,0,0,1-1.3584-.45263q-.45262-.46143-2.16992-2.53125-1.71972-2.06984-2.16211-2.59278a2.2649,2.2649,0,0,1-.4707-1.4458,2.22308,2.22308,0,0,1,.46094-1.415q.45262-.5625,2.20215-2.67627,1.749-2.11377,2.19238-2.54443a2.2209,2.2209,0,0,1,2.64648.01318Z" transform="translate(0.06557 -0.07767)" style="fill:#fff"/><path d="M102.24121,4.17529l8.89453.01758A1.50338,1.50338,0,0,1,112.78809,5.898a1.60314,1.60314,0,0,1-1.77539,1.81934h-2.62793l.00878,8.78027a1.57289,1.57289,0,0,1-1.7666,1.749,1.53083,1.53083,0,0,1-1.75781-1.70508l.00879-8.82421h-2.63672a1.5576,1.5576,0,0,1-1.75781-1.76661A1.58556,1.58556,0,0,1,102.24121,4.17529Z" transform="translate(0.06557 -0.07767)" style="fill:#fff"/><path d="M116.30469,18.25537a1.80927,1.80927,0,0,1-.86621-.22412,1.61467,1.61467,0,0,1-.6543-.646,1.78448,1.78448,0,0,1-.2373-.88769,42.55375,42.55375,0,0,1,2.62792-5.73926q2.62794-5.28222,2.85645-5.69971a1.6163,1.6163,0,0,1,.65039-.65039,1.79438,1.79438,0,0,1,.87891-.23291,1.7682,1.7682,0,0,1,.874.23291,1.65323,1.65323,0,0,1,.65039.65039q.23291.41748,2.875,5.69971a42.55147,42.55147,0,0,1,2.64063,5.73926,1.78449,1.78449,0,0,1-.23731.88769,1.60874,1.60874,0,0,1-.65918.646,1.81635,1.81635,0,0,1-.86133.22412Zm7.66406-3.542-2.4082-4.94824-2.417,4.94824Z" transform="translate(0.06557 -0.07767)" style="fill:#fff"/><path d="M132.10645,4.17529l8.89453.01758A1.50337,1.50337,0,0,1,142.65332,5.898a1.60314,1.60314,0,0,1-1.77539,1.81934H138.25l.00879,8.78027a1.5729,1.5729,0,0,1-1.7666,1.749,1.53083,1.53083,0,0,1-1.75781-1.70508l.00878-8.82421h-2.63671a1.5576,1.5576,0,0,1-1.75782-1.76661A1.58556,1.58556,0,0,1,132.10645,4.17529Z" transform="translate(0.06557 -0.07767)" style="fill:#fff"/><path d="M34.84473,85.66309h3.42773a2.35973,2.35973,0,0,1,1.687.72265,2.28516,2.28516,0,0,1,.73975,1.709,2.336,2.336,0,0,1-.73,1.72851,2.38532,2.38532,0,0,1-1.731.71778l-.96191.00976A.98392.98392,0,0,1,37.291,88.583l.69336-.00488q.77124.00951.76171-.47364,0-.48339-.7666-.4834H35.82617v4.87305a.86269.86269,0,0,1-.98144.97656.85358.85358,0,0,1-.97657-.96679v-5.874A.86667.86667,0,0,1,34.84473,85.66309Z" transform="translate(0.06557 -0.07767)" style="fill:#fff"/><path d="M42.67676,85.65332a.8533.8533,0,0,1,.98144.94238l-.00488,2.97364q.00952,1.95336,1.48438,1.96289,1.46484-.01466,1.46-1.96778V86.62988a.97905.97905,0,1,1,1.958.00489v2.93457q-.00512,3.90161-3.418,3.90136-3.43287.02418-3.4375-3.90136V86.62988A.871.871,0,0,1,42.67676,85.65332Z" transform="translate(0.06557 -0.07767)" style="fill:#fff"/><path d="M56.34375,86.63965a.8533.8533,0,0,1-.94238.98144l-2.97364-.00488q-.98656.00952-.99609.49805.01465.46362,1.001.459h.96191q2.94433.00952,2.959,2.47559,0,2.39721-2.95411,2.41211H50.46484a.95952.95952,0,1,1-.00976-1.91895l2.94433-.01465q.98658-.00512.98633-.50293,0-.498-.99609-.49316h-.96192q-2.93481-.00513-2.93457-2.417-.01977-2.44629,2.93457-2.45117h2.93946A.871.871,0,0,1,56.34375,86.63965Z" transform="translate(0.06557 -0.07767)" style="fill:#fff"/><path d="M59.25879,86.63477l-.00488,5.85937a.87332.87332,0,0,1-.98145.97656.8589.8589,0,0,1-.97168-.97168V86.63965a.979.979,0,1,1,1.958-.00488Zm4.87793-.00489-.00488,5.86426a.86021.86021,0,0,1-.98145.97656.85146.85146,0,0,1-.97168-.96679V90.53613l-1.43555.00489a.975.975,0,1,1,0-1.94825l1.43555-.01464V86.62988a.979.979,0,1,1,1.958,0Z" transform="translate(0.06557 -0.07767)" style="fill:#fff"/><path d="M16.94824,115.6626H20.376a2.51833,2.51833,0,0,1,2.42675,2.43164,3.61085,3.61085,0,0,1-.36865,1.70654,1.23839,1.23839,0,0,1-1.11084.72022l1.20606,1.2207a1.02374,1.02374,0,0,1,.28808.75684.86628.86628,0,0,1-.97656.97167,1.33546,1.33546,0,0,1-.98144-.47851l-1.95313-2.42188a1.53507,1.53507,0,0,1-.498-1.00586.86688.86688,0,0,1,.98633-.98144l.69336-.00488q.77124.00951.76172-.47364,0-.48339-.7666-.48339H17.92969v4.873a.86269.86269,0,0,1-.98145.97656.85357.85357,0,0,1-.97656-.96679v-5.874A.86667.86667,0,0,1,16.94824,115.6626Z" transform="translate(0.06557 -0.07767)" style="fill:#fff"/><path d="M24.76074,115.65283l4.94141.00977a.83527.83527,0,0,1,.918.94726.89057.89057,0,0,1-.98633,1.01075h-3.8916v3.8916H29.624a.8744.8744,0,0,1,.98633.98633.86475.86475,0,0,1-.9668.97167H24.76074a.85312.85312,0,0,1-.97656-.94726v-5.88379A.88094.88094,0,0,1,24.76074,115.65283Zm1.4502,3.93555a.8788.8788,0,0,1,.96679-.99121h1.9629a.97906.97906,0,1,1,.00488,1.958H27.18262A.85663.85663,0,0,1,26.21094,119.58838Z" transform="translate(0.06557 -0.07767)" style="fill:#fff"/><path d="M38.44238,116.63916a.85331.85331,0,0,1-.94238.98145l-2.97363-.00489q-.98658.00952-.9961.49805.01465.46362,1.001.459h.96191q2.94433.00952,2.959,2.47559,0,2.39721-2.9541,2.41211H32.56348a.95952.95952,0,1,1-.00977-1.91895l2.94434-.01464q.98657-.00513.98633-.50293,0-.49806-.9961-.49317h-.96191q-2.93482-.00513-2.93457-2.417-.01978-2.44629,2.93457-2.45117h2.93945A.871.871,0,0,1,38.44238,116.63916Z" transform="translate(0.06557 -0.07767)" style="fill:#fff"/><path d="M40.37109,115.65283l4.94141.00977a.83527.83527,0,0,1,.918.94726.89057.89057,0,0,1-.98633,1.01075h-3.8916v3.8916h3.88184a.8744.8744,0,0,1,.98632.98633.86474.86474,0,0,1-.96679.97167H40.37109a.85312.85312,0,0,1-.97656-.94726v-5.88379A.88094.88094,0,0,1,40.37109,115.65283Zm1.4502,3.93555a.8788.8788,0,0,1,.9668-.99121H44.751a.97906.97906,0,1,1,.00488,1.958H42.793A.85663.85663,0,0,1,41.82129,119.58838Z" transform="translate(0.06557 -0.07767)" style="fill:#fff"/><path d="M48.17871,115.65283l4.94141.00977a.83527.83527,0,0,1,.918.94726.89057.89057,0,0,1-.98633,1.01075h-1.46l.00488,4.87793a.87369.87369,0,0,1-.98145.97167.85059.85059,0,0,1-.97656-.94726l.00488-4.90234H48.17871a.8654.8654,0,0,1-.97656-.98145A.88094.88094,0,0,1,48.17871,115.65283Z" transform="translate(0.06557 -0.07767)" style="fill:#fff"/><path d="M102.74805,170.66309h3.42773a2.51739,2.51739,0,0,1,2.42676,2.43164,3.6149,3.6149,0,0,1-.36816,1.70605,1.24041,1.24041,0,0,1-1.11133.7207l1.206,1.22071a1.021,1.021,0,0,1,.28809.75683.86649.86649,0,0,1-.97656.97168,1.33725,1.33725,0,0,1-.98145-.47851l-1.95313-2.42188a1.54061,1.54061,0,0,1-.498-1.00586.86668.86668,0,0,1,.98633-.98144l.69336-.00488q.772.00878.76171-.47364,0-.48339-.7666-.4834h-2.15332v4.873a.979.979,0,0,1-1.958.00977v-5.874A.86668.86668,0,0,1,102.74805,170.66309Z" transform="translate(0.06557 -0.07767)" style="fill:#fff"/><path d="M110.58008,170.65332a.85272.85272,0,0,1,.98144.94238l-.00488,2.97364q.01026,1.95263,1.48438,1.96289,1.46484-.01466,1.46-1.96778v-2.93457a.97905.97905,0,1,1,1.958.00489v2.93457q-.00439,3.90087-3.418,3.90136-3.43213.02345-3.4375-3.90136v-2.93946A.87122.87122,0,0,1,110.58008,170.65332Z" transform="translate(0.06557 -0.07767)" style="fill:#fff"/><path d="M118.50488,170.67285a1.192,1.192,0,0,1,.84961.40039l2.92481,3.73047v-3.27637a.764.764,0,0,1,.83008-.85449q1.09863.01465,1.10839.874l.00977,6.07421q-.00879.83935-1.11816.84961a1.00693,1.00693,0,0,1-.81543-.40039l-2.93946-3.7207v3.27148a.75648.75648,0,0,1-.84961.84961q-1.103.0044-1.1084-.85937v-6.08887Q117.39209,170.67724,118.50488,170.67285Z" transform="translate(0.06557 -0.07767)" style="fill:#fff"/><path d="M114.59082,204.48438a.86521.86521,0,0,1,.97656-.98145h.50293l-.00488-3.88672a.83991.83991,0,0,1-.957-.97168.87766.87766,0,0,1,.9668-.97168h.98144a.84807.84807,0,0,1,.9668.95215l-.00489,4.87793h.49317a.89077.89077,0,0,1,.98633,1.01074.8359.8359,0,0,1-.918.94727l-3.0127.00976A.88072.88072,0,0,1,114.59082,204.48438Z" transform="translate(0.06557 -0.07767)" style="fill:#fff"/><path d="M123.38477,197.66309h2.456a.86423.86423,0,0,1,.97168.97168.85491.85491,0,0,1-.96191.97656h-2.46582a.44079.44079,0,0,0-.49317.49316l.00488.48828,2.44141-.00488a2.39067,2.39067,0,0,1,1.7207.74414,2.30671,2.30671,0,0,1,.72559,1.7041,2.39084,2.39084,0,0,1-.73047,1.70215,2.28042,2.28042,0,0,1-1.706.72266l-1.96289.00488a2.50295,2.50295,0,0,1-2.44141-2.44629V200.0752a2.50852,2.50852,0,0,1,2.44141-2.41211Zm-.4834,4.87793v.48339q.0044.49806.4834.49805h1.97265a.44161.44161,0,0,0,.49317-.49316.43312.43312,0,0,0-.50293-.48828Z" transform="translate(0.06557 -0.07767)" style="fill:#fff"/><path d="M129.7373,197.65332l4.94141.00977a.83548.83548,0,0,1,.918.94726.89077.89077,0,0,1-.98633,1.01074h-1.46l.00488,4.87793a.87451.87451,0,0,1-.98144.97168.85058.85058,0,0,1-.97656-.94726l.00488-4.90235H129.7373a.8652.8652,0,0,1-.97656-.98144A.88032.88032,0,0,1,129.7373,197.65332Z" transform="translate(0.06557 -0.07767)" style="fill:#fff"/><path d="M138.53125,198.63477l-.00488,5.85937a.87393.87393,0,0,1-.98145.97656.85871.85871,0,0,1-.97168-.97168v-5.85937a.979.979,0,1,1,1.958-.00488Zm4.87793-.00489-.00488,5.86426a.86059.86059,0,0,1-.98145.97656.85146.85146,0,0,1-.97168-.96679v-1.96778l-1.43554.00489a.975.975,0,1,1,0-1.94825l1.43554-.01464v-1.94825a.979.979,0,1,1,1.958,0Z" transform="translate(0.06557 -0.07767)" style="fill:#fff"/><path d="M120.20117,232.66309h1.96289a2.36035,2.36035,0,0,1,1.71094.73242,2.30173,2.30173,0,0,1,.73047,1.71094,1.93073,1.93073,0,0,1-.50781,1.44824,1.94868,1.94868,0,0,1,.50976,1.47168,2.37387,2.37387,0,0,1-.74219,1.7041,2.26548,2.26548,0,0,1-1.64257.74023h-2.01661a2.29806,2.29806,0,0,1-1.70214-.73047,2.35856,2.35856,0,0,1-.73438-1.71093,1.96731,1.96731,0,0,1,.49317-1.46,2.00562,2.00562,0,0,1-.49317-1.47461,2.286,2.286,0,0,1,.73438-1.67969A2.46075,2.46075,0,0,1,120.20117,232.66309Zm1.95313,5.84961a.48831.48831,0,0,0,.00976-.97657h-1.96289a.43336.43336,0,0,0-.49316.48828q.01464.50684.49316.49805Zm.00976-2.91993c.3252,0,.4834-.17968.47364-.53711q.01464-.43066-.47364-.43457h-1.96289a.48585.48585,0,1,0,0,.97168Z" transform="translate(0.06557 -0.07767)" style="fill:#fff"/><path d="M126.55859,232.65332l4.94141.00977a.83548.83548,0,0,1,.918.94726.89077.89077,0,0,1-.98633,1.01074h-1.46l.00488,4.87793a.87451.87451,0,0,1-.98144.97168.85059.85059,0,0,1-.97657-.94726l.00489-4.90235h-1.46485a.8652.8652,0,0,1-.97656-.98144A.88032.88032,0,0,1,126.55859,232.65332Z" transform="translate(0.06557 -0.07767)" style="fill:#fff"/><path d="M135.35254,233.63477l-.00488,5.85937a.87393.87393,0,0,1-.98145.97656.85871.85871,0,0,1-.97168-.97168v-5.85937a.979.979,0,1,1,1.958-.00488Zm4.87793-.00489-.00488,5.86426a.86059.86059,0,0,1-.98145.97656.85146.85146,0,0,1-.97168-.96679v-1.96778l-1.43555.00489a.975.975,0,1,1,0-1.94825l1.43555-.01464v-1.94825a.979.979,0,1,1,1.958,0Z" transform="translate(0.06557 -0.07767)" style="fill:#fff"/><path d="M118.751,276.47559a1.00853,1.00853,0,0,1-.48145-.125.89731.89731,0,0,1-.36328-.3584.99319.99319,0,0,1-.13184-.49317,11.33184,11.33184,0,0,1,.94239-2.15332q.94189-1.8999,1.06933-2.13183a.89993.89993,0,0,1,.36133-.36133.99793.99793,0,0,1,.48828-.12891.98433.98433,0,0,1,.48535.12891.91838.91838,0,0,1,.36133.36133,1.14245,1.14245,0,0,1,.1416.52051,14.58739,14.58739,0,0,1-1.29589,2.77343h2.31445l-.00488-4.90234a.86394.86394,0,0,1,.98144-.96192.87391.87391,0,0,1,.99121.96192l-.00976,7.83691a.97906.97906,0,1,1-1.958.00489v-.97168Z" transform="translate(0.06557 -0.07767)" style="fill:#fff"/><path d="M126.55859,268.65332l4.94141.00977a.83548.83548,0,0,1,.918.94726.89077.89077,0,0,1-.98633,1.01074h-1.46l.00488,4.87793a.87451.87451,0,0,1-.98144.97168.85059.85059,0,0,1-.97657-.94726l.00489-4.90235h-1.46485a.8652.8652,0,0,1-.97656-.98144A.88032.88032,0,0,1,126.55859,268.65332Z" transform="translate(0.06557 -0.07767)" style="fill:#fff"/><path d="M135.35254,269.63477l-.00488,5.85937a.87393.87393,0,0,1-.98145.97656.85871.85871,0,0,1-.97168-.97168v-5.85937a.979.979,0,1,1,1.958-.00488Zm4.87793-.00489-.00488,5.86426a.86059.86059,0,0,1-.98145.97656.85146.85146,0,0,1-.97168-.96679v-1.96778l-1.43555.00489a.975.975,0,1,1,0-1.94825l1.43555-.01464v-1.94825a.979.979,0,1,1,1.958,0Z" transform="translate(0.06557 -0.07767)" style="fill:#fff"/><path d="M115.34375,304.63477l-.00586,5.85937a.87282.87282,0,0,1-.98047.97656.85978.85978,0,0,1-.97265-.97168v-5.85937a.9795.9795,0,1,1,1.959-.00488Zm4.87695-.00489-.0039,5.86426a.86127.86127,0,0,1-.98242.97656.85116.85116,0,0,1-.97071-.96679v-1.96778l-1.43554.00489a.975.975,0,1,1,0-1.94825l1.43554-.01464v-1.94825a.97855.97855,0,1,1,1.957,0Z" transform="translate(0.06557 -0.07767)" style="fill:#fff"/><path d="M122.17969,311.47559a1.00856,1.00856,0,0,1-.48145-.125.89384.89384,0,0,1-.36426-.3584.99207.99207,0,0,1-.13085-.49317,23.585,23.585,0,0,1,1.459-3.18847q1.46045-2.93554,1.58789-3.167a.89991.89991,0,0,1,.36133-.36132.99793.99793,0,0,1,.48828-.12891.98709.98709,0,0,1,.48535.12891.9248.9248,0,0,1,.36133.36132q.13036.23292,1.59668,3.167a23.42543,23.42543,0,0,1,1.4668,3.18847.99208.99208,0,0,1-.13086.49317.895.895,0,0,1-.36719.3584,1.00885,1.00885,0,0,1-.47852.125Zm4.25781-1.96778-1.33789-2.749-1.34375,2.749Z" transform="translate(0.06557 -0.07767)" style="fill:#fff"/><path d="M130.959,303.65332a.87893.87893,0,0,1,.99024.957l-.00977,4.90235h3.88282a.8744.8744,0,0,1,.98632.98632.86556.86556,0,0,1-.96679.97168H130.959a.85293.85293,0,0,1-.97656-.94726v-5.88379A.88032.88032,0,0,1,130.959,303.65332Z" transform="translate(0.06557 -0.07767)" style="fill:#fff"/><path d="M138.76563,303.65332l4.9414.00977a.83465.83465,0,0,1,.918.94726.89036.89036,0,0,1-.98633,1.01074h-3.89062v.9668h3.90625a.97658.97658,0,0,1,0,1.95313l-3.90625.00488V310.499a.87237.87237,0,0,1-.98242.97168.85372.85372,0,0,1-.97657-.94726v-5.88379A.88115.88115,0,0,1,138.76563,303.65332Z" transform="translate(0.06557 -0.07767)" style="fill:#fff"/><path d="M40.81152,262.66309h1.96289a2.36062,2.36062,0,0,1,1.71143.73242,2.29942,2.29942,0,0,1,.73,1.71094,2.34811,2.34811,0,0,0,.00244,2.91992,2.37582,2.37582,0,0,1-.74219,1.7041,2.26733,2.26733,0,0,1-1.64306.74023h-2.0166a2.29626,2.29626,0,0,1-1.70166-.73047,2.35716,2.35716,0,0,1-.73487-1.71093,1.96931,1.96931,0,0,1,.49317-1.46,2.00972,2.00972,0,0,1-.49317-1.47461,2.28467,2.28467,0,0,1,.73487-1.67969A2.45963,2.45963,0,0,1,40.81152,262.66309Zm1.95313,5.84961a.48831.48831,0,0,0,.00976-.97657H40.81152a.43356.43356,0,0,0-.49316.48828q.01466.50684.49316.49805Zm.00976-2.91993c.32569,0,.4834-.17968.47364-.53711q.01464-.43066-.47364-.43457H40.81152a.48585.48585,0,1,0,0,.97168Z" transform="translate(0.06557 -0.07767)" style="fill:#fff"/><path d="M39.35645,274.66309h3.418a2.36062,2.36062,0,0,1,1.71143.73242,2.29942,2.29942,0,0,1,.73,1.71094,2.34811,2.34811,0,0,0,.00244,2.91992,2.37582,2.37582,0,0,1-.74219,1.7041,2.26733,2.26733,0,0,1-1.64306.74023H39.34668a.85414.85414,0,0,1-.9668-.97656v-5.85449A.86821.86821,0,0,1,39.35645,274.66309Zm.98144,1.958v3.89161h2.42676a.48831.48831,0,0,0,.00976-.97657l-.48339-.00488q-.98658,0-.98145-1.03027,0-.92286.97656-.91309l.48828.00488c.32569,0,.4834-.17968.47364-.53711q.01464-.43066-.47364-.43457Z" transform="translate(0.06557 -0.07767)" style="fill:#fff"/><path d="M47.17383,282.47559a1.00527,1.00527,0,0,1-.481-.125.89556.89556,0,0,1-.36377-.3584.99318.99318,0,0,1-.13183-.49317,23.60217,23.60217,0,0,1,1.46-3.18847q1.45971-2.93554,1.58691-3.167a.903.903,0,0,1,.36133-.36132.99931.99931,0,0,1,.48828-.12891.98619.98619,0,0,1,.48584.12891.9248.9248,0,0,1,.36133.36132q.12963.23292,1.59668,3.167a23.54308,23.54308,0,0,1,1.46728,3.18847.99318.99318,0,0,1-.13183.49317.89259.89259,0,0,1-.36621.3584,1.01029,1.01029,0,0,1-.47852.125Zm4.25781-1.96778-1.33789-2.749-1.34277,2.749Z" transform="translate(0.06557 -0.07767)" style="fill:#fff"/><path d="M55.958,274.66309h3.42773a2.51739,2.51739,0,0,1,2.42676,2.43164,3.60893,3.60893,0,0,1-.36865,1.706,1.2397,1.2397,0,0,1-1.11084.7207l1.206,1.22071a1.02292,1.02292,0,0,1,.28809.75683.86669.86669,0,0,1-.97656.97168,1.33725,1.33725,0,0,1-.98145-.47851L57.916,279.57031a1.536,1.536,0,0,1-.49805-1.00586.86649.86649,0,0,1,.98633-.98144l.69336-.00488q.77124.00878.76172-.47364,0-.48339-.76661-.4834H56.93945v4.87305a.86288.86288,0,0,1-.98144.97656.854.854,0,0,1-.97656-.96679v-5.874A.86626.86626,0,0,1,55.958,274.66309Z" transform="translate(0.06557 -0.07767)" style="fill:#fff"/><path d="M69.64453,275.63965a.85369.85369,0,0,1-.94238.98144l-2.97363-.00488q-.98658.00879-.9961.498.01465.46288,1.001.459h.96191q2.94433.00879,2.959,2.47559,0,2.39647-2.9541,2.41211H63.76563a.95952.95952,0,1,1-.00977-1.91895l2.94434-.01465q.98657-.00585.98632-.50293,0-.498-.99609-.49316h-.96191q-2.93483-.00587-2.93457-2.417-.01979-2.44629,2.93457-2.45117H68.668A.87062.87062,0,0,1,69.64453,275.63965Z" transform="translate(0.06557 -0.07767)" style="fill:#fff"/><path d="M38.37988,304.48438a.8654.8654,0,0,1,.97657-.98145h.50293l-.00489-3.88672a.84009.84009,0,0,1-.957-.97168.8781.8781,0,0,1,.9668-.97168h.98144a.84768.84768,0,0,1,.9668.95215l-.00488,4.87793h.49316a.89057.89057,0,0,1,.98633,1.01074.83548.83548,0,0,1-.918.94727l-3.01269.00976A.88114.88114,0,0,1,38.37988,304.48438Z" transform="translate(0.06557 -0.07767)" style="fill:#fff"/><path d="M47.17383,297.66309h2.456a.864.864,0,0,1,.97168.97168.85452.85452,0,0,1-.96191.97656H47.17383a.441.441,0,0,0-.49317.49316l.00489.48828,2.4414-.00488a2.39175,2.39175,0,0,1,1.72119.74414,2.30621,2.30621,0,0,1,.7251,1.7041,2.39032,2.39032,0,0,1-.73,1.70215,2.28148,2.28148,0,0,1-1.70654.72266l-1.96289.00488a2.503,2.503,0,0,1-2.44141-2.44629V300.0752a2.50948,2.50948,0,0,1,2.44141-2.41211Zm-.4834,4.87793v.48339q.00513.49806.4834.49805h1.97265a.4414.4414,0,0,0,.49317-.49316q.00513-.49365-.50293-.48828Z" transform="translate(0.06557 -0.07767)" style="fill:#fff"/><path d="M39.35645,309.66309h3.418a2.36062,2.36062,0,0,1,1.71143.73242,2.29942,2.29942,0,0,1,.73,1.71094,2.34811,2.34811,0,0,0,.00244,2.91992,2.37582,2.37582,0,0,1-.74219,1.7041,2.26733,2.26733,0,0,1-1.64306.74023H39.34668a.85414.85414,0,0,1-.9668-.97656v-5.85449A.86821.86821,0,0,1,39.35645,309.66309Zm.98144,1.958v3.89161h2.42676a.48831.48831,0,0,0,.00976-.97657l-.48339-.00488q-.98658,0-.98145-1.03027,0-.92286.97656-.91309l.48828.00488c.32569,0,.4834-.17968.47364-.53711q.01464-.43066-.47364-.43457Z" transform="translate(0.06557 -0.07767)" style="fill:#fff"/><path d="M47.17383,317.47559a1.00527,1.00527,0,0,1-.481-.125.89556.89556,0,0,1-.36377-.3584.99318.99318,0,0,1-.13183-.49317,23.60217,23.60217,0,0,1,1.46-3.18847q1.45971-2.93554,1.58691-3.167a.903.903,0,0,1,.36133-.36132.99931.99931,0,0,1,.48828-.12891.98619.98619,0,0,1,.48584.12891.9248.9248,0,0,1,.36133.36132q.12963.23292,1.59668,3.167a23.54308,23.54308,0,0,1,1.46728,3.18847.99318.99318,0,0,1-.13183.49317.89259.89259,0,0,1-.36621.3584,1.01029,1.01029,0,0,1-.47852.125Zm4.25781-1.96778-1.33789-2.749-1.34277,2.749Z" transform="translate(0.06557 -0.07767)" style="fill:#fff"/><path d="M55.958,309.66309h3.42773a2.51739,2.51739,0,0,1,2.42676,2.43164,3.60893,3.60893,0,0,1-.36865,1.706,1.2397,1.2397,0,0,1-1.11084.7207l1.206,1.22071a1.02292,1.02292,0,0,1,.28809.75683.86669.86669,0,0,1-.97656.97168,1.33725,1.33725,0,0,1-.98145-.47851L57.916,314.57031a1.536,1.536,0,0,1-.49805-1.00586.86649.86649,0,0,1,.98633-.98144l.69336-.00488q.77124.00878.76172-.47364,0-.48339-.76661-.4834H56.93945v4.87305a.86288.86288,0,0,1-.98144.97656.854.854,0,0,1-.97656-.96679v-5.874A.86626.86626,0,0,1,55.958,309.66309Z" transform="translate(0.06557 -0.07767)" style="fill:#fff"/><path d="M69.64453,310.63965a.85369.85369,0,0,1-.94238.98144l-2.97363-.00488q-.98658.00879-.9961.498.01465.46288,1.001.459h.96191q2.94433.00879,2.959,2.47559,0,2.39647-2.9541,2.41211H63.76563a.95952.95952,0,1,1-.00977-1.91895l2.94434-.01465q.98657-.00585.98632-.50293,0-.498-.99609-.49316h-.96191q-2.93483-.00587-2.93457-2.417-.01979-2.44629,2.93457-2.45117H68.668A.87062.87062,0,0,1,69.64453,310.63965Z" transform="translate(0.06557 -0.07767)" style="fill:#fff"/><path d="M39.35645,332.66309h3.418a2.36062,2.36062,0,0,1,1.71143.73242,2.29942,2.29942,0,0,1,.73,1.71094,2.34811,2.34811,0,0,0,.00244,2.91992,2.37582,2.37582,0,0,1-.74219,1.7041,2.26733,2.26733,0,0,1-1.64306.74023H39.34668a.96925.96925,0,1,1,.00977-1.93847l3.4082-.01953a.48831.48831,0,0,0,.00976-.97657l-1.47949-.00488q-.98656,0-.98144-1.03027,0-.92286.97656-.91309l1.48437.00488c.32569,0,.4834-.17968.47364-.53711q.01464-.43066-.47364-.43457h-3.418a.979.979,0,0,1,0-1.958Z" transform="translate(0.06557 -0.07767)" style="fill:#fff"/><path d="M53.03809,336.56934a.85623.85623,0,0,1-.97657.97168l-3.91113-.00489q.00952.98145,1.46.98633l2.45606-.00976a.87349.87349,0,0,1,.97168.98144.86329.86329,0,0,1-.97657.97656H49.625q-3.42774-.00585-3.43262-3.90625a.868.868,0,0,1,.97657-.97656l3.91113.00488q0-.977-1.44531-.97168H47.17871a.89706.89706,0,0,1-.98633-.98632.87549.87549,0,0,1,.98633-.97168h2.43652Q53.03345,332.65723,53.03809,336.56934Z" transform="translate(0.06557 -0.07767)" style="fill:#fff"/><path d="M39.35645,344.66309h3.418a2.36062,2.36062,0,0,1,1.71143.73242,2.29942,2.29942,0,0,1,.73,1.71094,2.34811,2.34811,0,0,0,.00244,2.91992,2.37582,2.37582,0,0,1-.74219,1.7041,2.26733,2.26733,0,0,1-1.64306.74023H39.34668a.85414.85414,0,0,1-.9668-.97656v-5.85449A.86821.86821,0,0,1,39.35645,344.66309Zm.98144,1.958v3.89161h2.42676a.48831.48831,0,0,0,.00976-.97657l-.48339-.00488q-.98658,0-.98145-1.03027,0-.92286.97656-.91309l.48828.00488c.32569,0,.4834-.17968.47364-.53711q.01464-.43066-.47364-.43457Z" transform="translate(0.06557 -0.07767)" style="fill:#fff"/><path d="M47.17383,352.47559a1.00527,1.00527,0,0,1-.481-.125.89556.89556,0,0,1-.36377-.3584.99318.99318,0,0,1-.13183-.49317,23.60217,23.60217,0,0,1,1.46-3.18847q1.45971-2.93554,1.58691-3.167a.903.903,0,0,1,.36133-.36132.99931.99931,0,0,1,.48828-.12891.98619.98619,0,0,1,.48584.12891.9248.9248,0,0,1,.36133.36132q.12963.23292,1.59668,3.167a23.54308,23.54308,0,0,1,1.46728,3.18847.99318.99318,0,0,1-.13183.49317.89259.89259,0,0,1-.36621.3584,1.01029,1.01029,0,0,1-.47852.125Zm4.25781-1.96778-1.33789-2.749-1.34277,2.749Z" transform="translate(0.06557 -0.07767)" style="fill:#fff"/><path d="M55.958,344.66309h3.42773a2.51739,2.51739,0,0,1,2.42676,2.43164,3.60893,3.60893,0,0,1-.36865,1.706,1.2397,1.2397,0,0,1-1.11084.7207l1.206,1.22071a1.02292,1.02292,0,0,1,.28809.75683.86669.86669,0,0,1-.97656.97168,1.33725,1.33725,0,0,1-.98145-.47851L57.916,349.57031a1.536,1.536,0,0,1-.49805-1.00586.86649.86649,0,0,1,.98633-.98144l.69336-.00488q.77124.00878.76172-.47364,0-.48339-.76661-.4834H56.93945v4.87305a.86288.86288,0,0,1-.98144.97656.854.854,0,0,1-.97656-.96679v-5.874A.86626.86626,0,0,1,55.958,344.66309Z" transform="translate(0.06557 -0.07767)" style="fill:#fff"/><path d="M69.64453,345.63965a.85369.85369,0,0,1-.94238.98144l-2.97363-.00488q-.98658.00879-.9961.498.01465.46288,1.001.459h.96191q2.94433.00879,2.959,2.47559,0,2.39647-2.9541,2.41211H63.76563a.95952.95952,0,1,1-.00977-1.91895l2.94434-.01465q.98657-.00585.98632-.50293,0-.498-.99609-.49316h-.96191q-2.93483-.00587-2.93457-2.417-.01979-2.44629,2.93457-2.45117H68.668A.87062.87062,0,0,1,69.64453,345.63965Z" transform="translate(0.06557 -0.07767)" style="fill:#fff"/><path d="M117.28125,339.48438a.86521.86521,0,0,1,.97656-.98145h.50293l-.00488-3.88672a.83991.83991,0,0,1-.957-.97168.87766.87766,0,0,1,.9668-.97168h.98144a.84807.84807,0,0,1,.9668.95215l-.00489,4.87793h.49317a.89077.89077,0,0,1,.98633,1.01074.8359.8359,0,0,1-.918.94727l-3.0127.00976A.88072.88072,0,0,1,117.28125,339.48438Z" transform="translate(0.06557 -0.07767)" style="fill:#fff"/><path d="M118.25781,344.66309h3.418a2.36037,2.36037,0,0,1,1.71094.73242,2.30173,2.30173,0,0,1,.73047,1.71094,2.349,2.349,0,0,0,.002,2.91992,2.37387,2.37387,0,0,1-.74219,1.7041,2.2655,2.2655,0,0,1-1.64257.74023h-3.48633a.85414.85414,0,0,1-.9668-.97656v-5.85449A.868.868,0,0,1,118.25781,344.66309Zm.98145,1.958v3.89161H121.666a.48831.48831,0,0,0,.00976-.97657l-.4834-.00488q-.9873,0-.98144-1.03027,0-.92286.97656-.91309l.48828.00488c.3252,0,.4834-.17968.47363-.53711q.01466-.43066-.47363-.43457Z" transform="translate(0.06557 -0.07767)" style="fill:#fff"/><path d="M126.0752,352.47559a1.00853,1.00853,0,0,1-.48145-.125.89731.89731,0,0,1-.36328-.3584.99319.99319,0,0,1-.13184-.49317,23.52861,23.52861,0,0,1,1.46-3.18847q1.459-2.93554,1.58692-3.167a.89991.89991,0,0,1,.36133-.36132.99793.99793,0,0,1,.48828-.12891.98439.98439,0,0,1,.48535.12891.91849.91849,0,0,1,.36133.36132q.13036.23292,1.59668,3.167a23.5158,23.5158,0,0,1,1.46777,3.18847.99319.99319,0,0,1-.13184.49317.89259.89259,0,0,1-.36621.3584,1.01171,1.01171,0,0,1-.47851.125Zm4.25781-1.96778-1.33789-2.749-1.34278,2.749Z" transform="translate(0.06557 -0.07767)" style="fill:#fff"/><path d="M134.85938,344.66309h3.42773a2.51739,2.51739,0,0,1,2.42676,2.43164,3.603,3.603,0,0,1-.36914,1.706,1.239,1.239,0,0,1-1.11035.7207l1.20605,1.22071a1.02484,1.02484,0,0,1,.28809.75683.86689.86689,0,0,1-.97657.97168,1.33723,1.33723,0,0,1-.98144-.47851l-1.95313-2.42188a1.5315,1.5315,0,0,1-.498-1.00586.8663.8663,0,0,1,.98632-.98144l.69336-.00488q.77052.00878.76172-.47364,0-.48339-.7666-.4834h-2.15332v4.87305a.86327.86327,0,0,1-.98144.97656.85377.85377,0,0,1-.97657-.96679v-5.874A.86587.86587,0,0,1,134.85938,344.66309Z" transform="translate(0.06557 -0.07767)" style="fill:#fff"/><path d="M45.22559,195.56934a.85623.85623,0,0,1-.97657.97168l-3.91113-.00489q.00952.98145,1.46.98633l2.45606-.00976a.87349.87349,0,0,1,.97168.98144.86329.86329,0,0,1-.97657.97656H41.8125q-3.42774-.00585-3.43262-3.90625a.868.868,0,0,1,.97657-.97656l3.91113.00488q0-.977-1.44531-.97168H39.36621a.89706.89706,0,0,1-.98633-.98632.87549.87549,0,0,1,.98633-.97168h2.43652Q45.22095,191.65723,45.22559,195.56934Z" transform="translate(0.06557 -0.07767)" style="fill:#fff"/><path d="M39.35645,203.66309h3.418a2.36062,2.36062,0,0,1,1.71143.73242,2.29942,2.29942,0,0,1,.73,1.71094,1.92881,1.92881,0,0,1-.50781,1.44824,1.947,1.947,0,0,1,.51025,1.47168,2.37582,2.37582,0,0,1-.74219,1.7041,2.26733,2.26733,0,0,1-1.64306.74023H39.34668a.85414.85414,0,0,1-.9668-.97656v-5.85449A.86821.86821,0,0,1,39.35645,203.66309Zm.98144,1.958v3.89161h2.42676a.48831.48831,0,0,0,.00976-.97657l-.48339-.00488q-.98658,0-.98145-1.03027,0-.92286.97656-.91309l.48828.00488c.32569,0,.4834-.17968.47364-.53711q.01464-.43066-.47364-.43457Z" transform="translate(0.06557 -0.07767)" style="fill:#fff"/><path d="M47.17383,211.47559a1.00527,1.00527,0,0,1-.481-.125.89556.89556,0,0,1-.36377-.3584.99318.99318,0,0,1-.13183-.49317,23.60217,23.60217,0,0,1,1.46-3.18847q1.45971-2.93555,1.58691-3.167a.903.903,0,0,1,.36133-.36132.99931.99931,0,0,1,.48828-.12891.98619.98619,0,0,1,.48584.12891.9248.9248,0,0,1,.36133.36132q.12963.23292,1.59668,3.167a23.54308,23.54308,0,0,1,1.46728,3.18847.99318.99318,0,0,1-.13183.49317.89259.89259,0,0,1-.36621.3584,1.01029,1.01029,0,0,1-.47852.125Zm4.25781-1.96778-1.33789-2.749-1.34277,2.749Z" transform="translate(0.06557 -0.07767)" style="fill:#fff"/><path d="M55.958,203.66309h3.42773a2.51739,2.51739,0,0,1,2.42676,2.43164,3.60893,3.60893,0,0,1-.36865,1.70605,1.2397,1.2397,0,0,1-1.11084.7207l1.206,1.22071a1.02292,1.02292,0,0,1,.28809.75683.86669.86669,0,0,1-.97656.97168,1.33725,1.33725,0,0,1-.98145-.47851L57.916,208.57031a1.536,1.536,0,0,1-.49805-1.00586.86649.86649,0,0,1,.98633-.98144l.69336-.00488q.77124.00878.76172-.47364,0-.48339-.76661-.4834H56.93945v4.873a.86288.86288,0,0,1-.98144.97656.854.854,0,0,1-.97656-.96679v-5.874A.86626.86626,0,0,1,55.958,203.66309Z" transform="translate(0.06557 -0.07767)" style="fill:#fff"/><path d="M69.64453,204.63965a.85369.85369,0,0,1-.94238.98144l-2.97363-.00488q-.98658.00879-.9961.49805.01465.46289,1.001.459h.96191q2.94433.00879,2.959,2.47559,0,2.39647-2.9541,2.41211H63.76563a.95952.95952,0,1,1-.00977-1.91895l2.94434-.01465q.98657-.00585.98632-.50293,0-.498-.99609-.49316h-.96191q-2.93483-.00586-2.93457-2.417-.01979-2.44629,2.93457-2.45117H68.668A.87062.87062,0,0,1,69.64453,204.63965Z" transform="translate(0.06557 -0.07767)" style="fill:#fff"/><path d="M39.36133,234.47559a1.00527,1.00527,0,0,1-.481-.125.89556.89556,0,0,1-.36377-.3584.99318.99318,0,0,1-.13183-.49317,11.36913,11.36913,0,0,1,.94238-2.15332q.94263-1.8999,1.06933-2.13183a.903.903,0,0,1,.36133-.36133.99931.99931,0,0,1,.48828-.12891.98614.98614,0,0,1,.48584.12891.92469.92469,0,0,1,.36133.36133,1.15477,1.15477,0,0,1,.1416.52051,14.60985,14.60985,0,0,1-1.29638,2.77343h2.31445l-.00488-4.90234a.864.864,0,0,1,.98144-.96192.87371.87371,0,0,1,.99121.96192l-.00976,7.83691a.97906.97906,0,1,1-1.958.00489v-.97168Z" transform="translate(0.06557 -0.07767)" style="fill:#fff"/><path d="M39.35645,238.66309h3.418a2.36062,2.36062,0,0,1,1.71143.73242,2.29942,2.29942,0,0,1,.73,1.71094,1.92881,1.92881,0,0,1-.50781,1.44824,1.947,1.947,0,0,1,.51025,1.47168,2.37582,2.37582,0,0,1-.74219,1.7041,2.26733,2.26733,0,0,1-1.64306.74023H39.34668a.85414.85414,0,0,1-.9668-.97656v-5.85449A.86821.86821,0,0,1,39.35645,238.66309Zm.98144,1.958v3.89161h2.42676a.48831.48831,0,0,0,.00976-.97657l-.48339-.00488q-.98658,0-.98145-1.03027,0-.92286.97656-.91309l.48828.00488c.32569,0,.4834-.17968.47364-.53711q.01464-.43066-.47364-.43457Z" transform="translate(0.06557 -0.07767)" style="fill:#fff"/><path d="M47.17383,246.47559a1.00527,1.00527,0,0,1-.481-.125.89556.89556,0,0,1-.36377-.3584.99318.99318,0,0,1-.13183-.49317,23.60217,23.60217,0,0,1,1.46-3.18847q1.45971-2.93555,1.58691-3.167a.903.903,0,0,1,.36133-.36132.99931.99931,0,0,1,.48828-.12891.98619.98619,0,0,1,.48584.12891.9248.9248,0,0,1,.36133.36132q.12963.23292,1.59668,3.167a23.54308,23.54308,0,0,1,1.46728,3.18847.99318.99318,0,0,1-.13183.49317.89259.89259,0,0,1-.36621.3584,1.01029,1.01029,0,0,1-.47852.125Zm4.25781-1.96778-1.33789-2.749-1.34277,2.749Z" transform="translate(0.06557 -0.07767)" style="fill:#fff"/><path d="M55.958,238.66309h3.42773a2.51739,2.51739,0,0,1,2.42676,2.43164,3.60893,3.60893,0,0,1-.36865,1.70605,1.2397,1.2397,0,0,1-1.11084.7207l1.206,1.22071a1.02292,1.02292,0,0,1,.28809.75683.86669.86669,0,0,1-.97656.97168,1.33725,1.33725,0,0,1-.98145-.47851L57.916,243.57031a1.536,1.536,0,0,1-.49805-1.00586.86649.86649,0,0,1,.98633-.98144l.69336-.00488q.77124.00878.76172-.47364,0-.48339-.76661-.4834H56.93945v4.873a.86288.86288,0,0,1-.98144.97656.854.854,0,0,1-.97656-.96679v-5.874A.86626.86626,0,0,1,55.958,238.66309Z" transform="translate(0.06557 -0.07767)" style="fill:#fff"/><path d="M69.64453,239.63965a.85369.85369,0,0,1-.94238.98144l-2.97363-.00488q-.98658.00879-.9961.49805.01465.46289,1.001.459h.96191q2.94433.00879,2.959,2.47559,0,2.39647-2.9541,2.41211H63.76563a.95952.95952,0,1,1-.00977-1.91895l2.94434-.01465q.98657-.00585.98632-.50293,0-.498-.99609-.49316h-.96191q-2.93483-.00586-2.93457-2.417-.01979-2.44629,2.93457-2.45117H68.668A.87062.87062,0,0,1,69.64453,239.63965Z" transform="translate(0.06557 -0.07767)" style="fill:#fff"/><path d="M42.18262,145.66309a3.99418,3.99418,0,0,1,1.92138.50537,3.63779,3.63779,0,0,1,1.46485,1.44531A3.91215,3.91215,0,0,1,45.5835,151.52a3.62711,3.62711,0,0,1-1.44776,1.44531,3.94163,3.94163,0,0,1-3.89648,0A3.62711,3.62711,0,0,1,38.7915,151.52a3.93595,3.93595,0,0,1,.00733-3.90625,3.59012,3.59012,0,0,1,1.45752-1.44531A4.00406,4.00406,0,0,1,42.18262,145.66309Zm-.95459,2.19482a1.80232,1.80232,0,0,0-.73.72266,1.9606,1.9606,0,0,0-.00489,1.95556,1.83054,1.83054,0,0,0,.7251.72266,1.96275,1.96275,0,0,0,1.94824,0,1.83042,1.83042,0,0,0,.7251-.72266,1.96056,1.96056,0,0,0-.00488-1.95556,1.79933,1.79933,0,0,0-.73242-.72266,1.97021,1.97021,0,0,0-1.92627,0Z" transform="translate(0.06557 -0.07767)" style="fill:#fff"/><path d="M48.07129,145.65332a.8533.8533,0,0,1,.98144.94238l-.00488,2.97364q.00953,1.95336,1.48438,1.96289,1.46484-.01466,1.46-1.96778v-2.93457a.97906.97906,0,1,1,1.958.00489v2.93457q-.00513,3.9016-3.418,3.90136-3.43287.02418-3.4375-3.90136v-2.93946A.871.871,0,0,1,48.07129,145.65332Z" transform="translate(0.06557 -0.07767)" style="fill:#fff"/><path d="M55.86426,145.65332l4.9414.00977a.83527.83527,0,0,1,.918.94726.89056.89056,0,0,1-.98633,1.01074h-1.46l.00489,4.87793a.8737.8737,0,0,1-.98145.97168.85058.85058,0,0,1-.97656-.94726l.00488-4.90235H55.86426a.86539.86539,0,0,1-.97656-.98144A.88093.88093,0,0,1,55.86426,145.65332Z" transform="translate(0.06557 -0.07767)" style="fill:#fff"/><path d="M134,25.25" transform="translate(0.06557 -0.07767)" style="fill:none;stroke:#000;stroke-miterlimit:10"/><path d="M92,25.25" transform="translate(0.06557 -0.07767)" style="fill:none;stroke:#000;stroke-miterlimit:10"/><g id="Illustration_6" data-name="Illustration 6"><g style="clip-path:url(#clip-path-4)"><g style="clip-path:url(#clip-path-4)"><path d="M93.10664,69.52784a2.69829,2.69829,0,1,1-2.69739-2.62833,2.66364,2.66364,0,0,1,2.69739,2.62833" transform="translate(0.06557 -0.07767)" style="fill:#fff"/><ellipse cx="90.47483" cy="69.45017" rx="2.69739" ry="2.62833" style="fill:none;stroke:#000;stroke-miterlimit:10;stroke-width:0.33282949283260627px"/></g><path d="M91.10889,69.48535v.29444h-1.398v-.29444Z" transform="translate(0.06557 -0.07767)" style="fill:#fff"/><g style="clip-path:url(#clip-path-4)"><rect x="89.77627" y="69.40641" width="1.39725" height="0.29503" style="fill:none;stroke:#000;stroke-width:0.33282949283260627px"/><path d="M138.28786,69.52784a2.69829,2.69829,0,1,1-2.69738-2.62833,2.66364,2.66364,0,0,1,2.69738,2.62833" transform="translate(0.06557 -0.07767)" style="fill:#fff"/><ellipse cx="135.65605" cy="69.45017" rx="2.69739" ry="2.62833" style="fill:none;stroke:#000;stroke-miterlimit:10;stroke-width:0.33282949283260627px"/><polygon points="135.475 68.368 135.475 69.434 134.197 69.434 134.197 69.706 135.475 69.706 135.475 70.78 135.838 70.78 135.838 69.706 137.116 69.706 137.116 69.434 135.838 69.434 135.838 68.368 135.475 68.368" style="fill:none;stroke:#000;stroke-width:0.33282949283260627px"/><path d="M112.99987,56.05763h0a.66784.66784,0,0,1-.67435-.65708V38.31638a.67457.67457,0,0,1,1.34869,0V55.40055a.66784.66784,0,0,1-.67434.65708" transform="translate(0.06557 -0.07767)" style="fill:#fff;fill-rule:evenodd"/><path d="M112.99987,56.05763h0a.66784.66784,0,0,1-.67435-.65708V38.31638a.67457.67457,0,0,1,1.34869,0V55.40055A.66784.66784,0,0,1,112.99987,56.05763Z" transform="translate(0.06557 -0.07767)" style="fill:none;stroke:#000;stroke-miterlimit:10;stroke-width:0.6656589856652125px"/></g></g></g><path d="M121.06145,113.25" transform="translate(0.06557 -0.07767)" style="fill:none;stroke:#fefefe;stroke-miterlimit:10"/><path d="M14.30055,35.25" transform="translate(0.06557 -0.07767)" style="fill:none;stroke:#fefefe;stroke-miterlimit:10"/><path d="M121.3799,113.75" transform="translate(0.06557 -0.07767)" style="fill:none;stroke:#000;stroke-miterlimit:10"/><path d="M117.18262,109.66309l1.958.00488a.97414.97414,0,1,1-.00489,1.94824l-1.94824.00488a1.95069,1.95069,0,0,0,.00488,3.90137h1.94336a.97414.97414,0,0,1,.00977,1.94824h-1.95313q-3.90673,0-3.91113-3.90625Q113.28125,109.65845,117.18262,109.66309Z" transform="translate(0.06557 -0.07767)" style="fill:#fff"/><path d="M127.9248,109.65332a.9976.9976,0,0,1,.47852.127.90881.90881,0,0,1,.36621.36133.98213.98213,0,0,1,.13184.48828,23.611,23.611,0,0,1-1.46778,3.19092q-1.46631,2.937-1.59668,3.1665a.91862.91862,0,0,1-.36132.35889.97979.97979,0,0,1-.48536.1294.99325.99325,0,0,1-.48828-.1294.9.9,0,0,1-.36132-.35889q-.12745-.22925-1.58692-3.1665a23.62441,23.62441,0,0,1-1.46-3.19092.98213.98213,0,0,1,.13184-.48828.91384.91384,0,0,1,.36328-.36133.97084.97084,0,0,1,.96,0,.90881.90881,0,0,1,.36621.36133q.13183.23438,2.07519,4.2334,1.957-3.999,2.08985-4.2334a.91384.91384,0,0,1,.36328-.36133A.99444.99444,0,0,1,127.9248,109.65332Z" transform="translate(0.06557 -0.07767)" style="fill:#fff"/><path d="M117.18262,121.66309a3.99241,3.99241,0,0,1,1.9209.50537,3.63178,3.63178,0,0,1,1.46484,1.44531A3.909,3.909,0,0,1,120.583,127.52a3.62584,3.62584,0,0,1-1.44727,1.44531,3.94163,3.94163,0,0,1-3.89648,0A3.62823,3.62823,0,0,1,113.791,127.52a3.93754,3.93754,0,0,1,.00781-3.90625,3.58894,3.58894,0,0,1,1.457-1.44531A4.00591,4.00591,0,0,1,117.18262,121.66309Zm-.95508,2.19482a1.80413,1.80413,0,0,0-.72949.72266,1.98685,1.98685,0,0,0-.26367.98388,1.96318,1.96318,0,0,0,.25878.97168,1.82932,1.82932,0,0,0,.72461.72266,1.96277,1.96277,0,0,0,1.94825,0,1.83168,1.83168,0,0,0,.72558-.72266,1.96056,1.96056,0,0,0-.00488-1.95556,1.79933,1.79933,0,0,0-.73242-.72266,1.97115,1.97115,0,0,0-1.92676,0Z" transform="translate(0.06557 -0.07767)" style="fill:#fff"/><path d="M123.07129,121.65332a.8537.8537,0,0,1,.98144.94238l-.00488,2.97364q.00879,1.95336,1.48438,1.96289,1.46484-.01466,1.46-1.96778v-2.93457a.97906.97906,0,1,1,1.958.00489v2.93457q-.00586,3.90161-3.418,3.90136-3.4336.02418-3.4375-3.90136v-2.93946A.87062.87062,0,0,1,123.07129,121.65332Z" transform="translate(0.06557 -0.07767)" style="fill:#fff"/><path d="M130.86426,121.65332l4.9414.00977a.83568.83568,0,0,1,.918.94726.89077.89077,0,0,1-.98633,1.01074h-1.46l.00489,4.87793a.87411.87411,0,0,1-.98145.97168.85039.85039,0,0,1-.97656-.94726l.00488-4.90235h-1.46484a.86519.86519,0,0,1-.97656-.98144A.88051.88051,0,0,1,130.86426,121.65332Z" transform="translate(0.06557 -0.07767)" style="fill:#fff"/><path d="M13.9821,35.75" transform="translate(0.06557 -0.07767)" style="fill:none;stroke:#000;stroke-miterlimit:10"/><g style="isolation:isolate"><polygon points="20.191 370.294 19.051 369.674 19.027 369.548 20.167 370.168 20.191 370.294" style="fill:gray"/><g style="isolation:isolate"><g style="clip-path:url(#clip-path-7)"><g style="isolation:isolate"><path d="M20.10151,370.24547l-1.13967-.62a.40714.40714,0,0,0-.13245-.10537l1.13966.62a.40742.40742,0,0,1,.13246.10536" transform="translate(0.06557 -0.07767)" style="fill:#858585"/></g></g></g><g style="isolation:isolate"><g style="clip-path:url(#clip-path-8)"><g style="isolation:isolate"><path d="M19.688,370.60852l-1.13966-.62a.99738.99738,0,0,0,.28134-.07476l1.13966.62a.99736.99736,0,0,1-.28134.07477" transform="translate(0.06557 -0.07767)" style="fill:#a8a8a8"/><path d="M19.96932,370.53375l-1.13966-.62a.42732.42732,0,0,0,.06062-.03445l1.13966.62a.42634.42634,0,0,1-.06062.03444" transform="translate(0.06557 -0.07767)" style="fill:#a3a3a3"/><path d="M20.02994,370.49931l-1.13966-.62a.3075.3075,0,0,0,.03069-.02408l1.13966.62a.30781.30781,0,0,1-.03069.02408" transform="translate(0.06557 -0.07767)" style="fill:#9e9e9e"/><path d="M20.06063,370.47523l-1.13966-.62.02047-.02057,1.13966.62-.02047.02058" transform="translate(0.06557 -0.07767)" style="fill:#999"/><path d="M20.0811,370.45465l-1.13966-.62.01507-.01908,1.13966.62-.01507.01907" transform="translate(0.06557 -0.07767)" style="fill:#949494"/><path d="M20.09617,370.43558l-1.13966-.62.01236-.02,1.13966.62-.01236.02" transform="translate(0.06557 -0.07767)" style="fill:#8f8f8f"/><path d="M20.10853,370.41555l-1.13966-.62.01074-.02392,1.13967.62-.01075.02392" transform="translate(0.06557 -0.07767)" style="fill:#8a8a8a"/><path d="M20.11928,370.39163l-1.13967-.62.006-.01984,1.13967.62-.006.01985" transform="translate(0.06557 -0.07767)" style="fill:#858585"/></g></g></g><g style="isolation:isolate"><g style="clip-path:url(#clip-path-9)"><g style="isolation:isolate"><path d="M12.1248,370.46761l-1.13967-.62a26.12035,26.12035,0,0,1,4.37023-1.01555,22.61575,22.61575,0,0,1,2.37506-.20906,3.80222,3.80222,0,0,1,1.06906.08982l1.13967.62a3.80263,3.80263,0,0,0-1.06906-.08983,22.62089,22.62089,0,0,0-2.37506.20906,26.1199,26.1199,0,0,0-4.37023,1.01555" transform="translate(0.06557 -0.07767)" style="fill:#a8a8a8"/><path d="M19.93915,369.33283l-1.13967-.62a1.74093,1.74093,0,0,1,.33141.11978l1.13966.62a1.74083,1.74083,0,0,0-.3314-.11978" transform="translate(0.06557 -0.07767)" style="fill:#a3a3a3"/><path d="M20.27055,369.45261l-1.13966-.62q.02524.01241.04936.02552l1.13966.62q-.0241-.01311-.04936-.02551" transform="translate(0.06557 -0.07767)" style="fill:#9e9e9e"/></g></g></g><g style="isolation:isolate"><g style="clip-path:url(#clip-path-10)"><g style="isolation:isolate"><path d="M10.40584,373.2504l-1.13966-.62q.12276-.08782.24556-.17279l1.13966.62q-.12279.085-.24556.1728" transform="translate(0.06557 -0.07767)" style="fill:#9e9e9e"/><path d="M10.6514,373.0776l-1.13966-.62a16.29758,16.29758,0,0,1,2.31772-1.34807l1.13966.62a16.29844,16.29844,0,0,0-2.31772,1.34806" transform="translate(0.06557 -0.07767)" style="fill:#a3a3a3"/><path d="M12.96912,371.72954l-1.13966-.62a12.04022,12.04022,0,0,1,3.46274-1.06125,10.27434,10.27434,0,0,1,2.25952-.06905,4.51766,4.51766,0,0,0,.9966.00928l1.13966.62a4.51766,4.51766,0,0,1-.9966-.00928,10.27315,10.27315,0,0,0-2.25952.06905,12.04022,12.04022,0,0,0-3.46274,1.06125" transform="translate(0.06557 -0.07767)" style="fill:#a8a8a8"/></g></g></g><polygon points="11.596 371.321 10.456 370.701 10.417 370.326 11.557 370.946 11.596 371.321" style="fill:gray"/><g style="isolation:isolate"><g style="clip-path:url(#clip-path-11)"><g style="isolation:isolate"><path d="M9.06736,373.83611l-1.13966-.62a.5399.5399,0,0,0,.2002.00418,1.45073,1.45073,0,0,0,.40871-.13425l1.13967.62a1.45077,1.45077,0,0,1-.40872.13425.53985.53985,0,0,1-.2002-.00419" transform="translate(0.06557 -0.07767)" style="fill:#a8a8a8"/><path d="M9.67628,373.70605l-1.13967-.62a3.88871,3.88871,0,0,0,.54488-.3229l1.13966.62a3.88968,3.88968,0,0,1-.54487.3229" transform="translate(0.06557 -0.07767)" style="fill:#a3a3a3"/><path d="M10.22115,373.38315l-1.13966-.62q.08835-.06114.18469-.13275l1.13966.62q-.09639.07173-.18469.13275" transform="translate(0.06557 -0.07767)" style="fill:#9e9e9e"/></g></g></g><g style="isolation:isolate"><g style="clip-path:url(#clip-path-12)"><g style="isolation:isolate"><path d="M8.99843,373.808l-1.13967-.62.012.00622,1.13967.62-.012-.00622" transform="translate(0.06557 -0.07767)" style="fill:#9e9e9e"/><path d="M9.01045,373.81424l-1.13967-.62a.3491.3491,0,0,0,.05692.02188l1.13966.62a.34983.34983,0,0,1-.05691-.02187" transform="translate(0.06557 -0.07767)" style="fill:#a3a3a3"/></g></g></g><g style="isolation:isolate"><g style="clip-path:url(#clip-path-13)"><g style="isolation:isolate"><path d="M11.49111,371.0234l-1.13967-.62a9.05067,9.05067,0,0,1,.59407-4.12792l1.13966.62a9.05075,9.05075,0,0,0-.59406,4.12791" transform="translate(0.06557 -0.07767)" style="fill:#858585"/><path d="M12.08517,366.89549l-1.13966-.62q.07878-.21426.16718-.43054l1.13967.62q-.0884.21627-.16719.43054" transform="translate(0.06557 -0.07767)" style="fill:#8a8a8a"/></g></g></g><g style="isolation:isolate"><g style="clip-path:url(#clip-path-14)"><g style="isolation:isolate"><path d="M12.25236,366.465l-1.13967-.62c.06631-.1991.15953-.45264-.401-.75757l1.13966.62c.56056.30493.46733.55846.401.75757" transform="translate(0.06557 -0.07767)" style="fill:#858585"/></g></g></g><g style="isolation:isolate"><g style="clip-path:url(#clip-path-15)"><g style="isolation:isolate"><path d="M8.639,374.46629l-1.13966-.62a1.06914,1.06914,0,0,1-.48456-.62289,8.21146,8.21146,0,0,1,.17014-5.55786l1.13966.62a8.21154,8.21154,0,0,0-.17014,5.55787,1.06918,1.06918,0,0,0,.48456.62288" transform="translate(0.06557 -0.07767)" style="fill:#858585"/><path d="M8.32456,368.28554l-1.13966-.62a11.92139,11.92139,0,0,1,.6956-1.5343l1.13966.62a11.92264,11.92264,0,0,0-.6956,1.53429" transform="translate(0.06557 -0.07767)" style="fill:#8a8a8a"/><path d="M9.02016,366.75125l-1.13966-.62q.22362-.4156.48635-.83391.038-.059.07729-.115l1.13966.62q-.03928.056-.07729.115-.26271.41827-.48635.83391" transform="translate(0.06557 -0.07767)" style="fill:#8f8f8f"/><path d="M9.5838,365.80231l-1.13966-.62a3.12939,3.12939,0,0,1,.2158-.27467l1.13967.62a3.131,3.131,0,0,0-.21581.27467" transform="translate(0.06557 -0.07767)" style="fill:#949494"/><path d="M9.79961,365.52764l-1.13967-.62a2.67913,2.67913,0,0,1,.21557-.21827l1.13967.62a2.67913,2.67913,0,0,0-.21557.21827" transform="translate(0.06557 -0.07767)" style="fill:#999"/><path d="M10.01518,365.30937l-1.13967-.62a2.32257,2.32257,0,0,1,.23259-.18445l1.13967.62a2.3243,2.3243,0,0,0-.23259.18445" transform="translate(0.06557 -0.07767)" style="fill:#9e9e9e"/><path d="M10.24777,365.12492l-1.13967-.62a2.02474,2.02474,0,0,1,.28768-.16653l1.13966.62a2.02306,2.02306,0,0,0-.28767.16652" transform="translate(0.06557 -0.07767)" style="fill:#a3a3a3"/><path d="M10.53544,364.9584l-1.13966-.62a1.76288,1.76288,0,0,1,.5078-.15325,1.73129,1.73129,0,0,1,.67961.04128l1.13966.62a1.73111,1.73111,0,0,0-.67961-.04129,1.763,1.763,0,0,0-.5078.15326" transform="translate(0.06557 -0.07767)" style="fill:#a8a8a8"/><path d="M11.72285,364.84643l-1.13966-.62a1.98631,1.98631,0,0,1,.26806.09077l1.13967.62a1.98824,1.98824,0,0,0-.26807-.09076" transform="translate(0.06557 -0.07767)" style="fill:#a3a3a3"/></g></g></g><g style="isolation:isolate"><g style="clip-path:url(#clip-path-16)"><g style="isolation:isolate"><path d="M11.99092,364.93719l-1.13967-.62c.03449.01567.06954.03214.10486.04949l1.13966.62c-.03531-.01736-.07036-.03383-.10485-.0495" transform="translate(0.06557 -0.07767)" style="fill:#a3a3a3"/><path d="M12.09577,364.98669l-1.13966-.62c.03745.01841.07519.03781.11288.05831l1.13966.62c-.03769-.0205-.07543-.0399-.11288-.0583" transform="translate(0.06557 -0.07767)" style="fill:#9e9e9e"/></g></g></g><path d="M20.647,369.75391a.86094.86094,0,0,1,.12681.70825,1.18805,1.18805,0,0,1-1.11534.87549,4.95142,4.95142,0,0,1-1.11256-.00917,9.6503,9.6503,0,0,0-2.13116.06436,12.866,12.866,0,0,0-5.68963,2.44367,3.40459,3.40459,0,0,1-1.45087.72253,1.16331,1.16331,0,0,1-.44043-.0159.98984.98984,0,0,1-.67939-.69973c-.83623-2.51011-.3748-5.17672,1.35209-7.92607a2.25551,2.25551,0,0,1,1.53673-1.1122,1.78822,1.78822,0,0,1,.94768.132c.55211.25087,1.248.70626.8697,1.72751a8.95189,8.95189,0,0,0-.73582,3.80291,26.1199,26.1199,0,0,1,4.37023-1.01555,22.62089,22.62089,0,0,1,2.37506-.20906C19.77509,369.21089,20.37539,369.38583,20.647,369.75391Zm-.959.85461c.25954-.03648.40795-.11575.43732-.23674l-.02379-.12631c-.11184-.14851-.512-.29972-1.29684-.27585a21.82671,21.82671,0,0,0-2.32531.20286,25.26843,25.26843,0,0,0-4.59632,1.107l-.35259.1187-.03934-.37479a9.33019,9.33019,0,0,1,.76125-4.55845c.07247-.21764.17711-.50029-.575-.844a1.227,1.227,0,0,0-.64849-.09907,1.46763,1.46763,0,0,0-.99441.75348c-1.60644,2.55952-2.01928,4.93406-1.25476,7.23819.08765.23834.20766.29927.2877.32259a.53985.53985,0,0,0,.2002.00419,2.73758,2.73758,0,0,0,1.13828-.5899,13.68452,13.68452,0,0,1,6.026-2.58211,10.27315,10.27315,0,0,1,2.25952-.06905,4.51766,4.51766,0,0,0,.9966.00928" transform="translate(0.06557 -0.07767)" style="fill:#dfdfdf"/></g><circle cx="13.06557" cy="369.92233" r="7.5" style="fill:none;stroke:#fff;stroke-miterlimit:10;stroke-width:0.75px"/><g style="isolation:isolate"><polygon points="145.2 370.293 144.06 369.673 144.028 369.548 145.168 370.168 145.2 370.293" style="fill:gray"/><g style="isolation:isolate"><g style="clip-path:url(#clip-path-17)"><g style="isolation:isolate"><path d="M145.10251,370.24547l-1.13967-.62a.40719.40719,0,0,0-.13246-.10537l1.13966.62a.40738.40738,0,0,1,.13247.10537" transform="translate(0.06557 -0.07767)" style="fill:#858585"/></g></g></g><g style="isolation:isolate"><g style="clip-path:url(#clip-path-18)"><g style="isolation:isolate"><path d="M144.6831,370.6127l-1.13966-.62a1.02,1.02,0,0,0,.28829-.077l1.13966.62a1.01961,1.01961,0,0,1-.28829.077" transform="translate(0.06557 -0.07767)" style="fill:#a8a8a8"/><path d="M144.97139,370.53573l-1.13966-.62a.4492.4492,0,0,0,.06381-.03629l1.13966.62a.44821.44821,0,0,1-.06381.03628" transform="translate(0.06557 -0.07767)" style="fill:#a3a3a3"/><path d="M145.0352,370.49945l-1.13966-.62a.32388.32388,0,0,0,.03235-.02541l1.13966.62a.32388.32388,0,0,1-.03235.02541" transform="translate(0.06557 -0.07767)" style="fill:#9e9e9e"/><path d="M145.06755,370.474l-1.13966-.62.02151-.02162,1.13967.62-.02152.02162" transform="translate(0.06557 -0.07767)" style="fill:#999"/><path d="M145.08907,370.45242l-1.13967-.62.016-.02024,1.13966.62-.016.02025" transform="translate(0.06557 -0.07767)" style="fill:#949494"/><path d="M145.10507,370.43217l-1.13966-.62.013-.02113,1.13967.62-.013.02112" transform="translate(0.06557 -0.07767)" style="fill:#8f8f8f"/><path d="M145.11812,370.41105l-1.13967-.62.01144-.02546,1.13966.62-.01143.02546" transform="translate(0.06557 -0.07767)" style="fill:#8a8a8a"/><path d="M145.12955,370.38559l-1.13966-.62.00478-.01493,1.13966.62-.00478.01494" transform="translate(0.06557 -0.07767)" style="fill:#858585"/></g></g></g><g style="isolation:isolate"><g style="clip-path:url(#clip-path-19)"><g style="isolation:isolate"><path d="M143.69238,370.59924l-1.13966-.62a4.28654,4.28654,0,0,0,.99072.01347l1.13966.62a4.28643,4.28643,0,0,1-.99072-.01346" transform="translate(0.06557 -0.07767)" style="fill:#a8a8a8"/></g></g></g><g style="isolation:isolate"><g style="clip-path:url(#clip-path-20)"><g style="isolation:isolate"><path d="M137.12582,370.46761l-1.13967-.62a26.12017,26.12017,0,0,1,4.37019-1.01554,22.61881,22.61881,0,0,1,2.37508-.20906,3.80229,3.80229,0,0,1,1.06907.08982l1.13966.62a3.80185,3.80185,0,0,0-1.06906-.08983,22.619,22.619,0,0,0-2.37509.20907,26.11908,26.11908,0,0,0-4.37018,1.01554" transform="translate(0.06557 -0.07767)" style="fill:#a8a8a8"/><path d="M144.94015,369.33283l-1.13966-.62a1.74072,1.74072,0,0,1,.33139.11978l1.13966.62a1.74073,1.74073,0,0,0-.33139-.11977" transform="translate(0.06557 -0.07767)" style="fill:#a3a3a3"/><path d="M145.27154,369.4526l-1.13966-.62q.02526.01239.04936.02551l1.13967.62q-.0241-.01312-.04937-.02552" transform="translate(0.06557 -0.07767)" style="fill:#9e9e9e"/></g></g></g><g style="isolation:isolate"><g style="clip-path:url(#clip-path-21)"><g style="isolation:isolate"><path d="M135.40684,373.2504l-1.13966-.62q.137-.09843.274-.19324l1.13966.62q-.137.09482-.274.19325" transform="translate(0.06557 -0.07767)" style="fill:#9e9e9e"/><path d="M135.68085,373.05715l-1.13966-.62a16.10751,16.10751,0,0,1,2.291-1.33224l1.13967.62a16.1075,16.1075,0,0,0-2.291,1.33223" transform="translate(0.06557 -0.07767)" style="fill:#a3a3a3"/><path d="M137.97182,371.72492l-1.13967-.62a11.99559,11.99559,0,0,1,3.45057-1.05657,10.3208,10.3208,0,0,1,2.27-.06911l1.13966.62a10.32141,10.32141,0,0,0-2.27.0691,11.99515,11.99515,0,0,0-3.45056,1.05658" transform="translate(0.06557 -0.07767)" style="fill:#a8a8a8"/></g></g></g><polygon points="136.597 371.321 135.457 370.701 135.418 370.326 136.558 370.946 136.597 371.321" style="fill:gray"/><g style="isolation:isolate"><g style="clip-path:url(#clip-path-22)"><g style="isolation:isolate"><path d="M134.06839,373.83611l-1.13967-.62a.55741.55741,0,0,0,.20766.00471,1.428,1.428,0,0,0,.40335-.132l1.13967.62a1.42823,1.42823,0,0,1-.40336.132.55753.55753,0,0,1-.20765-.00472" transform="translate(0.06557 -0.07767)" style="fill:#a8a8a8"/><path d="M134.6794,373.70883l-1.13967-.62a3.6876,3.6876,0,0,0,.51745-.30633l1.13966.62a3.688,3.688,0,0,1-.51744.30632" transform="translate(0.06557 -0.07767)" style="fill:#a3a3a3"/><path d="M135.19684,373.40251l-1.13966-.62q.0998-.06906.21-.15211l1.13966.62q-.11028.08325-.21.15211" transform="translate(0.06557 -0.07767)" style="fill:#9e9e9e"/></g></g></g><g style="isolation:isolate"><g style="clip-path:url(#clip-path-23)"><g style="isolation:isolate"><path d="M133.99942,373.808l-1.13967-.62.012.00622,1.13967.62-.012-.00623" transform="translate(0.06557 -0.07767)" style="fill:#9e9e9e"/><path d="M134.01144,373.81423l-1.13967-.62a.35037.35037,0,0,0,.057.02189l1.13967.62a.349.349,0,0,1-.057-.02188" transform="translate(0.06557 -0.07767)" style="fill:#a3a3a3"/></g></g></g><g style="isolation:isolate"><g style="clip-path:url(#clip-path-24)"><g style="isolation:isolate"><path d="M136.49213,371.0234l-1.13967-.62a9.168,9.168,0,0,1,.59692-4.13528l1.13966.62a9.1679,9.1679,0,0,0-.59691,4.13529" transform="translate(0.06557 -0.07767)" style="fill:#858585"/><path d="M137.089,366.88811l-1.13966-.62q.07743-.2106.16431-.42317l1.13967.62q-.08688.21255-.16432.42316" transform="translate(0.06557 -0.07767)" style="fill:#8a8a8a"/></g></g></g><g style="isolation:isolate"><g style="clip-path:url(#clip-path-25)"><g style="isolation:isolate"><polyline points="137.319 366.387 136.179 365.767 136.179 365.767 137.319 366.387 137.319 366.387" style="fill:#8a8a8a"/><path d="M137.25351,366.46452l-1.13966-.62c.07351-.19983.16-.452-.399-.75606l1.13966.62c.559.30407.47247.55623.399.75605" transform="translate(0.06557 -0.07767)" style="fill:#858585"/></g></g></g><g style="isolation:isolate"><g style="clip-path:url(#clip-path-26)"><g style="isolation:isolate"><path d="M133.64,374.46629l-1.13966-.62a1.06924,1.06924,0,0,1-.48459-.62288,8.21161,8.21161,0,0,1,.17016-5.55787l1.13966.62a8.21158,8.21158,0,0,0-.17016,5.55786,1.06925,1.06925,0,0,0,.48459.62288" transform="translate(0.06557 -0.07767)" style="fill:#858585"/><path d="M133.32556,368.28555l-1.13966-.62a11.92139,11.92139,0,0,1,.6956-1.5343l1.13966.62a11.92275,11.92275,0,0,0-.6956,1.5343" transform="translate(0.06557 -0.07767)" style="fill:#8a8a8a"/><path d="M134.02116,366.75125l-1.13966-.62q.22362-.41559.48635-.83391.038-.059.07729-.115l1.13966.62q-.03929.056-.07729.115-.26271.41827-.48635.83391" transform="translate(0.06557 -0.07767)" style="fill:#8f8f8f"/><path d="M134.5848,365.80231l-1.13966-.62a3.12939,3.12939,0,0,1,.2158-.27467l1.13967.62a3.131,3.131,0,0,0-.21581.27467" transform="translate(0.06557 -0.07767)" style="fill:#949494"/><path d="M134.80061,365.52764l-1.13967-.62a2.67913,2.67913,0,0,1,.21557-.21827l1.13967.62a2.67913,2.67913,0,0,0-.21557.21827" transform="translate(0.06557 -0.07767)" style="fill:#999"/><path d="M135.01618,365.30937l-1.13967-.62a2.32257,2.32257,0,0,1,.23259-.18445l1.13967.62a2.3243,2.3243,0,0,0-.23259.18445" transform="translate(0.06557 -0.07767)" style="fill:#9e9e9e"/><path d="M135.24877,365.12492l-1.13967-.62a2.02474,2.02474,0,0,1,.28768-.16653l1.13966.62a2.02306,2.02306,0,0,0-.28767.16652" transform="translate(0.06557 -0.07767)" style="fill:#a3a3a3"/><path d="M135.53644,364.9584l-1.13966-.62a1.76288,1.76288,0,0,1,.5078-.15325,1.73129,1.73129,0,0,1,.67961.04128l1.13966.62a1.73111,1.73111,0,0,0-.67961-.04129,1.763,1.763,0,0,0-.5078.15326" transform="translate(0.06557 -0.07767)" style="fill:#a8a8a8"/><path d="M136.72385,364.84643l-1.13966-.62a1.98631,1.98631,0,0,1,.26806.09077l1.13967.62a1.98824,1.98824,0,0,0-.26807-.09076" transform="translate(0.06557 -0.07767)" style="fill:#a3a3a3"/></g></g></g><g style="isolation:isolate"><g style="clip-path:url(#clip-path-27)"><g style="isolation:isolate"><path d="M136.99192,364.93719l-1.13967-.62c.03451.01568.06958.03215.10491.04952l1.13966.62c-.03533-.01736-.0704-.03384-.1049-.04952" transform="translate(0.06557 -0.07767)" style="fill:#a3a3a3"/><path d="M137.09682,364.98671l-1.13966-.62c.03744.0184.07518.03779.11286.05829l1.13966.62c-.03768-.0205-.07542-.0399-.11286-.0583" transform="translate(0.06557 -0.07767)" style="fill:#9e9e9e"/></g></g></g><path d="M145.648,369.75391a.861.861,0,0,1,.12684.70824,1.18811,1.18811,0,0,1-1.11537.8755,4.95166,4.95166,0,0,1-1.11258-.00916,9.60442,9.60442,0,0,0-2.12767.06387,12.88149,12.88149,0,0,0-5.69312,2.44415,3.40454,3.40454,0,0,1-1.45085.72253,1.16332,1.16332,0,0,1-.44043-.0159.98993.98993,0,0,1-.67941-.69973c-.83621-2.51011-.37478-5.17672,1.35211-7.92607a2.25551,2.25551,0,0,1,1.53673-1.1122,1.78822,1.78822,0,0,1,.94768.132c.55213.25086,1.248.70626.86972,1.72751a8.95155,8.95155,0,0,0-.73582,3.80291,26.11908,26.11908,0,0,1,4.37018-1.01554,22.619,22.619,0,0,1,2.37509-.20907C144.77611,369.21089,145.37639,369.38583,145.648,369.75391Zm-.96489.85879c.26466-.03719.41739-.1194.45123-.24205l-.03182-.12518c-.11184-.14851-.512-.29972-1.29684-.27585a21.936,21.936,0,0,0-2.32889.20336,25.23252,25.23252,0,0,0-4.59274,1.10651l-.35257.1187-.03934-.37479a9.42147,9.42147,0,0,1,.76123-4.55845c.08048-.21876.17711-.50029-.575-.844a1.227,1.227,0,0,0-.64852-.09907,1.46773,1.46773,0,0,0-.99443.75348c-1.60642,2.55952-2.01926,4.93406-1.25474,7.23819.08765.23834.20766.29927.28773.32259a.55753.55753,0,0,0,.20765.00472,2.675,2.675,0,0,0,1.1308-.59043,13.59949,13.59949,0,0,1,6.01554-2.58206,10.32141,10.32141,0,0,1,2.27-.0691,4.28643,4.28643,0,0,0,.99072.01346" transform="translate(0.06557 -0.07767)" style="fill:#dfdfdf"/></g><circle cx="138.06671" cy="369.92233" r="7.5" style="fill:none;stroke:#fff;stroke-miterlimit:10;stroke-width:0.75px"/><rect x="80.8298" y="27.66641" width="64.47154" height="111.40733" rx="11.91199" style="fill:none;stroke:#fff;stroke-miterlimit:10;stroke-width:0.25px"/><rect x="80.56557" y="27.20982" width="65" height="112.32051" rx="11.91199" style="fill:none;stroke:#000;stroke-miterlimit:10;stroke-width:0.25px"/><rect x="2.8298" y="71.23543" width="64.47154" height="98.13272" rx="11.91199" style="fill:none;stroke:#fff;stroke-miterlimit:10;stroke-width:0.25px"/><rect x="2.56557" y="70.83324" width="65" height="98.93709" rx="11.91199" style="fill:none;stroke:#000;stroke-miterlimit:10;stroke-width:0.25px"/></svg>