<svg id="Layer_1" data-name="Layer 1" xmlns="http://www.w3.org/2000/svg" xmlns:xlink="http://www.w3.org/1999/xlink" width="240.55" height="380.68" viewBox="0 0 240.55 380.68">
  <defs>
    <clipPath id="clip-path" transform="translate(0.28 0.34)">
      <rect width="240" height="380" style="fill: none"/>
    </clipPath>
    <clipPath id="clip-path-2" transform="translate(0.28 0.34)">
      <rect x="0.57" y="0.5" width="238.87" height="379" style="fill: none"/>
    </clipPath>
    <linearGradient id="Dégradé_sans_nom" data-name="Dégradé sans nom" x1="-163.5" y1="380.08" x2="-162.5" y2="380.08" gradientTransform="translate(287978.44 123787.56) rotate(90) scale(757.37)" gradientUnits="userSpaceOnUse">
      <stop offset="0" stop-color="#2f4c77"/>
      <stop offset="0" stop-color="#2f4c77"/>
      <stop offset="0.08" stop-color="#243d5f"/>
      <stop offset="0.22" stop-color="#192941"/>
      <stop offset="0.35" stop-color="#11192a"/>
      <stop offset="0.5" stop-color="#0f121a"/>
      <stop offset="0.66" stop-color="#0b0c10"/>
      <stop offset="0.85" stop-color="#090a0d"/>
      <stop offset="1" stop-color="#090a0d"/>
    </linearGradient>
    <clipPath id="clip-path-4" transform="translate(0.28 0.34)">
      <path d="M15.83,369.52l1.14.62a.36.36,0,0,1,.13.11L16,369.63A.36.36,0,0,0,15.83,369.52Z" style="fill: none"/>
    </clipPath>
    <clipPath id="clip-path-5" transform="translate(0.28 0.34)">
      <path d="M16.69,370.61,15.55,370c.26,0,.41-.12.44-.24l1.14.62C17.1,370.49,17,370.57,16.69,370.61Z" style="fill: none"/>
    </clipPath>
    <clipPath id="clip-path-6" transform="translate(0.28 0.34)">
      <path d="M16.18,368.86l1.14.62a2.9,2.9,0,0,0-1.45-.24c-.78,0-1.58.1-2.37.21a25.4,25.4,0,0,0-4.38,1L8,369.85a25.08,25.08,0,0,1,4.37-1c.79-.11,1.59-.18,2.37-.21A2.9,2.9,0,0,1,16.18,368.86Z" style="fill: none"/>
    </clipPath>
    <clipPath id="clip-path-7" transform="translate(0.28 0.34)">
      <path d="M7.41,373.25l-1.14-.62a13.58,13.58,0,0,1,6-2.58,10.08,10.08,0,0,1,2.26-.07,4.81,4.81,0,0,0,1,0l1.14.62a4.81,4.81,0,0,1-1,0,10.08,10.08,0,0,0-2.26.07A13.58,13.58,0,0,0,7.41,373.25Z" style="fill: none"/>
    </clipPath>
    <clipPath id="clip-path-8" transform="translate(0.28 0.34)">
      <path d="M6.07,373.84l-1.14-.62h.19a2.78,2.78,0,0,0,1.15-.59l1.14.62a2.78,2.78,0,0,1-1.15.59A.59.59,0,0,1,6.07,373.84Z" style="fill: none"/>
    </clipPath>
    <clipPath id="clip-path-9" transform="translate(0.28 0.34)">
      <path d="M6,373.81l-1.14-.62.07,0,1.14.62Z" style="fill: none"/>
    </clipPath>
    <clipPath id="clip-path-10" transform="translate(0.28 0.34)">
      <path d="M8.49,371l-1.14-.62a9.32,9.32,0,0,1,.76-4.56l1.14.62A9.32,9.32,0,0,0,8.49,371Z" style="fill: none"/>
    </clipPath>
    <clipPath id="clip-path-11" transform="translate(0.28 0.34)">
      <path d="M7.71,365.09l1.14.62c.56.3.47.56.4.75l-1.14-.62C8.18,365.65,8.27,365.39,7.71,365.09Z" style="fill: none"/>
    </clipPath>
    <clipPath id="clip-path-12" transform="translate(0.28 0.34)">
      <path d="M5.64,374.47l-1.14-.62a1.11,1.11,0,0,1-.49-.63c-.83-2.51-.37-5.17,1.36-7.92a2.26,2.26,0,0,1,1.53-1.11,1.67,1.67,0,0,1,.95.13l1.14.62a1.67,1.67,0,0,0-1-.13,2.26,2.26,0,0,0-1.53,1.11c-1.73,2.75-2.19,5.41-1.36,7.92A1.11,1.11,0,0,0,5.64,374.47Z" style="fill: none"/>
    </clipPath>
    <clipPath id="clip-path-13" transform="translate(0.28 0.34)">
      <path d="M8.07,364.43l1.14.61-.22-.1-1.14-.62Z" style="fill: none"/>
    </clipPath>
    <clipPath id="clip-path-14" transform="translate(0.28 0.34)">
      <path d="M235.83,369.52l1.14.62a.36.36,0,0,1,.13.11l-1.14-.62A.36.36,0,0,0,235.83,369.52Z" style="fill: none"/>
    </clipPath>
    <clipPath id="clip-path-15" transform="translate(0.28 0.34)">
      <path d="M236.69,370.61l-1.14-.62c.26,0,.41-.12.44-.24l1.14.62C237.1,370.49,237,370.58,236.69,370.61Z" style="fill: none"/>
    </clipPath>
    <clipPath id="clip-path-16" transform="translate(0.28 0.34)">
      <path d="M235.69,370.6l-1.14-.62a4.2,4.2,0,0,0,1,0l1.14.62A4.2,4.2,0,0,1,235.69,370.6Z" style="fill: none"/>
    </clipPath>
    <clipPath id="clip-path-17" transform="translate(0.28 0.34)">
      <path d="M236.18,368.86l1.14.62a2.9,2.9,0,0,0-1.45-.24q-1.17,0-2.37.21a25.61,25.61,0,0,0-4.38,1l-1.14-.62a25.61,25.61,0,0,1,4.38-1q1.2-.16,2.37-.21A2.9,2.9,0,0,1,236.18,368.86Z" style="fill: none"/>
    </clipPath>
    <clipPath id="clip-path-18" transform="translate(0.28 0.34)">
      <path d="M227.4,373.25l-1.14-.62a13.62,13.62,0,0,1,6-2.58,10.17,10.17,0,0,1,2.27-.07l1.14.62a10.17,10.17,0,0,0-2.27.07A13.62,13.62,0,0,0,227.4,373.25Z" style="fill: none"/>
    </clipPath>
    <clipPath id="clip-path-19" transform="translate(0.28 0.34)">
      <path d="M226.06,373.84l-1.14-.62h.21a2.74,2.74,0,0,0,1.13-.59l1.14.62a2.74,2.74,0,0,1-1.13.59A.72.72,0,0,1,226.06,373.84Z" style="fill: none"/>
    </clipPath>
    <clipPath id="clip-path-20" transform="translate(0.28 0.34)">
      <path d="M226,373.81l-1.14-.62.06,0,1.14.62Z" style="fill: none"/>
    </clipPath>
    <clipPath id="clip-path-21" transform="translate(0.28 0.34)">
      <path d="M228.49,371l-1.14-.62a9.38,9.38,0,0,1,.76-4.55l1.14.62A9.38,9.38,0,0,0,228.49,371Z" style="fill: none"/>
    </clipPath>
    <clipPath id="clip-path-22" transform="translate(0.28 0.34)">
      <path d="M225.63,374.46l-1.14-.62a1.07,1.07,0,0,1-.48-.62l1.14.62A1.07,1.07,0,0,0,225.63,374.46Z" style="fill: none"/>
    </clipPath>
    <clipPath id="clip-path-23" transform="translate(0.28 0.34)">
      <path d="M227.72,365.09l1.14.62c.56.31.46.56.39.76l-1.14-.62C228.18,365.65,228.28,365.4,227.72,365.09Z" style="fill: none"/>
    </clipPath>
    <clipPath id="clip-path-24" transform="translate(0.28 0.34)">
      <path d="M228.08,364.43l1.14.62-.23-.11-1.14-.62Z" style="fill: none"/>
    </clipPath>
    <clipPath id="clip-path-25" transform="translate(0.28 0.34)">
      <path d="M226.5,365.92l-1.14-.62a2.29,2.29,0,0,1,1.54-1.11,1.76,1.76,0,0,1,.95.13l1.14.62a1.76,1.76,0,0,0-1-.13A2.29,2.29,0,0,0,226.5,365.92Z" style="fill: none"/>
    </clipPath>
    <clipPath id="clip-path-26" transform="translate(0.28 0.34)">
      <path d="M225.15,373.84l-1.14-.62c-.83-2.51-.37-5.17,1.35-7.92l1.14.62C224.78,368.67,224.32,371.33,225.15,373.84Z" style="fill: none"/>
    </clipPath>
    <clipPath id="clip-path-27" transform="translate(0.28 0.34)">
      <path d="M15.83,9.52l1.14.62a.36.36,0,0,1,.13.11L16,9.63A.36.36,0,0,0,15.83,9.52Z" style="fill: none"/>
    </clipPath>
    <clipPath id="clip-path-28" transform="translate(0.28 0.34)">
      <path d="M16.69,10.61,15.55,10c.26,0,.41-.12.44-.24l1.14.62C17.1,10.49,17,10.57,16.69,10.61Z" style="fill: none"/>
    </clipPath>
    <clipPath id="clip-path-29" transform="translate(0.28 0.34)">
      <path d="M16.18,8.86l1.14.62a2.9,2.9,0,0,0-1.45-.24c-.78,0-1.58.1-2.37.21a25.4,25.4,0,0,0-4.38,1L8,9.85a25.08,25.08,0,0,1,4.37-1c.79-.11,1.59-.18,2.37-.21A2.9,2.9,0,0,1,16.18,8.86Z" style="fill: none"/>
    </clipPath>
    <clipPath id="clip-path-30" transform="translate(0.28 0.34)">
      <path d="M7.41,13.25l-1.14-.62a13.56,13.56,0,0,1,6-2.58A10,10,0,0,1,14.55,10a4.81,4.81,0,0,0,1,0l1.14.62a4.81,4.81,0,0,1-1,0,10,10,0,0,0-2.25.07A13.56,13.56,0,0,0,7.41,13.25Z" style="fill: none"/>
    </clipPath>
    <clipPath id="clip-path-31" transform="translate(0.28 0.34)">
      <path d="M6.07,13.84l-1.14-.62h.2a2.82,2.82,0,0,0,1.14-.59l1.14.62a2.82,2.82,0,0,1-1.14.59Z" style="fill: none"/>
    </clipPath>
    <clipPath id="clip-path-32" transform="translate(0.28 0.34)">
      <path d="M6,13.81l-1.14-.62.07,0,1.14.62Z" style="fill: none"/>
    </clipPath>
    <clipPath id="clip-path-33" transform="translate(0.28 0.34)">
      <path d="M8.49,11,7.35,10.4a9.32,9.32,0,0,1,.76-4.56l1.14.62A9.32,9.32,0,0,0,8.49,11Z" style="fill: none"/>
    </clipPath>
    <clipPath id="clip-path-34" transform="translate(0.28 0.34)">
      <path d="M5.65,14.47l-1.14-.62a1.12,1.12,0,0,1-.5-.63l1.14.62A1.12,1.12,0,0,0,5.65,14.47Z" style="fill: none"/>
    </clipPath>
    <clipPath id="clip-path-35" transform="translate(0.28 0.34)">
      <path d="M7.71,5.09l1.14.62c.56.3.47.56.4.75L8.11,5.84C8.18,5.65,8.27,5.39,7.71,5.09Z" style="fill: none"/>
    </clipPath>
    <clipPath id="clip-path-36" transform="translate(0.28 0.34)">
      <path d="M5.15,13.84,4,13.22c-.83-2.51-.37-5.17,1.36-7.92A2.26,2.26,0,0,1,6.9,4.19a1.67,1.67,0,0,1,.95.13L9,4.94a1.67,1.67,0,0,0-1-.13A2.26,2.26,0,0,0,6.51,5.92C4.78,8.67,4.32,11.33,5.15,13.84Z" style="fill: none"/>
    </clipPath>
    <clipPath id="clip-path-37" transform="translate(0.28 0.34)">
      <path d="M8.07,4.43,9.21,5,9,4.94,7.85,4.32Z" style="fill: none"/>
    </clipPath>
    <clipPath id="clip-path-38" transform="translate(0.28 0.34)">
      <path d="M235.83,9.52l1.14.62a.36.36,0,0,1,.13.11L236,9.63A.36.36,0,0,0,235.83,9.52Z" style="fill: none"/>
    </clipPath>
    <clipPath id="clip-path-39" transform="translate(0.28 0.34)">
      <path d="M236.69,10.61,235.55,10c.26,0,.41-.12.44-.24l1.14.62C237.1,10.49,237,10.57,236.69,10.61Z" style="fill: none"/>
    </clipPath>
    <clipPath id="clip-path-40" transform="translate(0.28 0.34)">
      <path d="M236.18,8.86l1.14.62a2.9,2.9,0,0,0-1.45-.24q-1.17,0-2.37.21a25.61,25.61,0,0,0-4.38,1L228,9.85a25.61,25.61,0,0,1,4.38-1q1.2-.16,2.37-.21A2.9,2.9,0,0,1,236.18,8.86Z" style="fill: none"/>
    </clipPath>
    <clipPath id="clip-path-41" transform="translate(0.28 0.34)">
      <path d="M227.4,13.25l-1.14-.62a13.66,13.66,0,0,1,6-2.58,10.08,10.08,0,0,1,2.26-.07,4.81,4.81,0,0,0,1,0l1.14.62a4.81,4.81,0,0,1-1,0,10.08,10.08,0,0,0-2.26.07A13.66,13.66,0,0,0,227.4,13.25Z" style="fill: none"/>
    </clipPath>
    <clipPath id="clip-path-42" transform="translate(0.28 0.34)">
      <path d="M226.06,13.84l-1.14-.62h.21a2.57,2.57,0,0,0,1.13-.59l1.14.62a2.57,2.57,0,0,1-1.13.59Z" style="fill: none"/>
    </clipPath>
    <clipPath id="clip-path-43" transform="translate(0.28 0.34)">
      <path d="M226,13.81l-1.14-.62.06,0,1.14.62Z" style="fill: none"/>
    </clipPath>
    <clipPath id="clip-path-44" transform="translate(0.28 0.34)">
      <path d="M228.49,11l-1.14-.62a9.38,9.38,0,0,1,.76-4.55l1.14.62A9.38,9.38,0,0,0,228.49,11Z" style="fill: none"/>
    </clipPath>
    <clipPath id="clip-path-45" transform="translate(0.28 0.34)">
      <path d="M225.64,14.47l-1.14-.62a1.07,1.07,0,0,1-.49-.63l1.14.62A1.07,1.07,0,0,0,225.64,14.47Z" style="fill: none"/>
    </clipPath>
    <clipPath id="clip-path-46" transform="translate(0.28 0.34)">
      <path d="M227.72,5.09l1.14.62c.56.31.46.56.39.76l-1.14-.62C228.18,5.65,228.28,5.4,227.72,5.09Z" style="fill: none"/>
    </clipPath>
    <clipPath id="clip-path-47" transform="translate(0.28 0.34)">
      <path d="M228.08,4.43l1.14.62L229,4.94l-1.14-.62Z" style="fill: none"/>
    </clipPath>
    <clipPath id="clip-path-48" transform="translate(0.28 0.34)">
      <path d="M226.5,5.92l-1.14-.62a2.29,2.29,0,0,1,1.54-1.11,1.76,1.76,0,0,1,.95.13l1.14.62a1.76,1.76,0,0,0-1-.13A2.29,2.29,0,0,0,226.5,5.92Z" style="fill: none"/>
    </clipPath>
    <clipPath id="clip-path-49" transform="translate(0.28 0.34)">
      <path d="M225.15,13.84,224,13.22c-.83-2.51-.37-5.17,1.35-7.92l1.14.62C224.78,8.67,224.32,11.33,225.15,13.84Z" style="fill: none"/>
    </clipPath>
  </defs>
  <g id="Panel_8_HP" data-name="Panel 8 HP">
    <g style="clip-path: url(#clip-path)">
      <g>
        <g style="clip-path: url(#clip-path-2)">
          <rect x="0.84" y="0.84" width="238.87" height="379" style="fill: url(#Dégradé_sans_nom)"/>
        </g>
        <g style="clip-path: url(#clip-path)">
          <rect x="0.84" y="0.84" width="238.87" height="379" style="fill: none;stroke: #010101;stroke-miterlimit: 10;stroke-width: 1.68410003185272px"/>
        </g>
      </g>
    </g>
  </g>
  <g>
    <path d="M41.8,75.65h4.94a.83.83,0,0,1,.91,1,.89.89,0,0,1-1,1H45.21V82.5a.87.87,0,0,1-1,1,.85.85,0,0,1-1-1v-4.9H41.8a.86.86,0,0,1-1-1A.88.88,0,0,1,41.8,75.65Z" transform="translate(0.28 0.34)" style="fill: #fff"/>
    <path d="M49.61,75.66H53a2.34,2.34,0,0,1,1.69.74,2.31,2.31,0,0,1,.73,1.69,3.55,3.55,0,0,1-.37,1.71,1.24,1.24,0,0,1-1.11.72l1.21,1.22a1,1,0,0,1,.29.76.87.87,0,0,1-1,1,1.33,1.33,0,0,1-1-.48l-2-2.42a1.51,1.51,0,0,1-.5-1,.87.87,0,0,1,1-1h.7c.51,0,.77-.15.76-.48s-.26-.48-.77-.48H50.59v4.87a1,1,0,0,1-2,0V76.63A.87.87,0,0,1,49.61,75.66Z" transform="translate(0.28 0.34)" style="fill: #fff"/>
    <path d="M57.42,75.66a.88.88,0,0,1,1,1V82.5a.89.89,0,0,1-1,1,.88.88,0,0,1-1-1V76.63A.86.86,0,0,1,57.42,75.66Z" transform="translate(0.28 0.34)" style="fill: #fff"/>
    <path d="M63.27,75.66h2a.86.86,0,0,1,1,1,.84.84,0,0,1-1,1h-2a2,2,0,0,0-1,.25,1.81,1.81,0,0,0-.73.72,2,2,0,0,0,0,2,1.85,1.85,0,0,0,.72.72,2,2,0,0,0,1,.26,2.42,2.42,0,0,0,1-.24,1.58,1.58,0,0,0,.76-.75h-.82a.86.86,0,0,1-1-1,.88.88,0,0,1,1-1h2a.88.88,0,0,1,1,1,4,4,0,0,1-.51,2A3.65,3.65,0,0,1,65.22,83a3.92,3.92,0,0,1-3.9,0,3.65,3.65,0,0,1-1.45-1.44,4,4,0,0,1,0-3.91,3.61,3.61,0,0,1,1.46-1.44A4,4,0,0,1,63.27,75.66Z" transform="translate(0.28 0.34)" style="fill: #fff"/>
  </g>
  <g>
    <path d="M36.94,136.64c0,.65-.31,1-.94,1H33c-.66,0-1,.17-1,.49s.35.47,1,.46h1c2,0,2.94.83,3,2.48s-1,2.4-3,2.41H31.07a1,1,0,1,1,0-1.92H34c.66,0,1-.17,1-.51s-.34-.49-1-.49H33c-2,0-2.94-.81-2.94-2.42s1-2.44,2.94-2.45H36A.87.87,0,0,1,36.94,136.64Z" transform="translate(0.28 0.34)" style="fill: #fff"/>
    <path d="M38.87,135.66a.88.88,0,0,1,1,1v5.87a1,1,0,1,1-2,0v-5.87A.86.86,0,0,1,38.87,135.66Z" transform="translate(0.28 0.34)" style="fill: #fff"/>
    <path d="M44.72,135.66h2a.87.87,0,0,1,1,1,.85.85,0,0,1-1,1h-2a2,2,0,0,0-1,.25,1.81,1.81,0,0,0-.73.72,2,2,0,0,0,0,2,1.85,1.85,0,0,0,.72.72,2,2,0,0,0,1,.26,2.45,2.45,0,0,0,1-.24,1.6,1.6,0,0,0,.75-.75h-.82a.87.87,0,0,1-1-1,.88.88,0,0,1,1-1h2a.88.88,0,0,1,1,1,4,4,0,0,1-.51,2A3.59,3.59,0,0,1,46.67,143a3.92,3.92,0,0,1-3.9,0,3.57,3.57,0,0,1-1.44-1.44,3.9,3.9,0,0,1-.52-2,4.08,4.08,0,0,1,.52-2,3.61,3.61,0,0,1,1.46-1.44A4,4,0,0,1,44.72,135.66Z" transform="translate(0.28 0.34)" style="fill: #fff"/>
    <path d="M50.58,141.52a1,1,0,0,1,.48.13.89.89,0,0,1,.36.36,1,1,0,0,1,.13.49,1,1,0,0,1-.13.48.93.93,0,0,1-.35.36,1.09,1.09,0,0,1-.49.13,1,1,0,0,1-.48-.13.89.89,0,0,1-.36-.36,1,1,0,0,1-.13-.48,1,1,0,0,1,.13-.49.89.89,0,0,1,.36-.36A1,1,0,0,1,50.58,141.52Z" transform="translate(0.28 0.34)" style="fill: #fff"/>
    <path d="M58.38,135.66a.88.88,0,0,1,1,1v5.87a1,1,0,1,1-2,0v-5.87A.86.86,0,0,1,58.38,135.66Z" transform="translate(0.28 0.34)" style="fill: #fff"/>
    <path d="M61.44,135.67a1.24,1.24,0,0,1,.85.4l2.92,3.73v-3.27a.77.77,0,0,1,.83-.86c.73,0,1.1.3,1.11.88v6.07c0,.56-.38.84-1.12.85a1,1,0,0,1-.81-.4l-2.94-3.72v3.27a.76.76,0,0,1-.85.85c-.74,0-1.11-.28-1.11-.86v-6.09C60.32,136,60.69,135.68,61.44,135.67Z" transform="translate(0.28 0.34)" style="fill: #fff"/>
    <path d="M73,142.48a.86.86,0,0,1,1-1h.5v-3.88c-.64,0-1-.32-.95-1a.87.87,0,0,1,1-1h1a.85.85,0,0,1,1,1v4.88h.49a.89.89,0,0,1,1,1,.84.84,0,0,1-.92,1H74A.88.88,0,0,1,73,142.48Z" transform="translate(0.28 0.34)" style="fill: #fff"/>
  </g>
  <g>
    <path d="M36,196.64c0,.65-.31,1-.94,1h-3c-.65,0-1,.17-1,.49s.34.47,1,.46h1c2,0,2.95.83,3,2.48s-1,2.4-2.95,2.41H30.09a1,1,0,1,1,0-1.92h3c.65,0,1-.17,1-.51s-.33-.49-1-.49h-1c-1.95,0-2.93-.81-2.93-2.42s1-2.44,2.93-2.45H35A.88.88,0,0,1,36,196.64Z" transform="translate(0.28 0.34)" style="fill: #fff"/>
    <path d="M37.89,195.66a.89.89,0,0,1,1,1v5.87a.89.89,0,0,1-1,1,.87.87,0,0,1-1-1v-5.87A.86.86,0,0,1,37.89,195.66Z" transform="translate(0.28 0.34)" style="fill: #fff"/>
    <path d="M43.74,195.66h2a.86.86,0,0,1,1,1,.84.84,0,0,1-1,1h-2a2,2,0,0,0-1,.25,1.81,1.81,0,0,0-.73.72,1.92,1.92,0,0,0-.26,1,2,2,0,0,0,.25,1,1.94,1.94,0,0,0,.73.72,2,2,0,0,0,1,.26,2.45,2.45,0,0,0,1-.24,1.58,1.58,0,0,0,.76-.75h-.82a.86.86,0,0,1-1-1,.88.88,0,0,1,1-1h2a.88.88,0,0,1,1,1,3.9,3.9,0,0,1-.52,2A3.57,3.57,0,0,1,45.7,203a3.94,3.94,0,0,1-2,.52A3.9,3.9,0,0,1,41.8,203a3.65,3.65,0,0,1-1.45-1.44,4,4,0,0,1,0-3.91,3.55,3.55,0,0,1,1.46-1.44A3.94,3.94,0,0,1,43.74,195.66Z" transform="translate(0.28 0.34)" style="fill: #fff"/>
    <path d="M49.61,201.52a.9.9,0,0,1,.47.13.86.86,0,0,1,.37.36,1,1,0,0,1,.13.49.91.91,0,0,1-.13.48,1,1,0,0,1-.36.36,1,1,0,0,1-.48.13,1.09,1.09,0,0,1-.49-.13,1,1,0,0,1-.36-.36,1,1,0,0,1-.12-.48,1,1,0,0,1,.13-.49.78.78,0,0,1,.36-.36A.91.91,0,0,1,49.61,201.52Z" transform="translate(0.28 0.34)" style="fill: #fff"/>
    <path d="M57.41,195.66a.88.88,0,0,1,1,1v5.87a.89.89,0,0,1-1,1,.88.88,0,0,1-1-1v-5.87A.86.86,0,0,1,57.41,195.66Z" transform="translate(0.28 0.34)" style="fill: #fff"/>
    <path d="M60.46,195.67a1.2,1.2,0,0,1,.85.4l2.93,3.73v-3.27a.77.77,0,0,1,.83-.86c.73,0,1.1.3,1.11.88v6.07c0,.56-.38.84-1.12.85a1,1,0,0,1-.82-.4l-2.94-3.72v3.27a.75.75,0,0,1-.85.85c-.73,0-1.1-.28-1.11-.86v-6.09C59.35,196,59.72,195.68,60.46,195.67Z" transform="translate(0.28 0.34)" style="fill: #fff"/>
    <path d="M78.89,199.57a.86.86,0,0,1-1,1H74c0,.65.5,1,1.46,1h2.46a.87.87,0,0,1,1,1,.86.86,0,0,1-1,1H75.48c-2.29,0-3.43-1.3-3.44-3.91a.87.87,0,0,1,1-1h3.91c0-.65-.48-1-1.44-1H73a.9.9,0,0,1-1-1,.88.88,0,0,1,1-1h2.44Q78.89,195.66,78.89,199.57Z" transform="translate(0.28 0.34)" style="fill: #fff"/>
  </g>
  <g>
    <path d="M110.81,255.66a1,1,0,0,1,.73.25l2.21,2.21c1.31-1.3,2-2,2.2-2.21a1,1,0,0,1,.73-.25.86.86,0,0,1,1,1v5.86a1,1,0,1,1-2,0V259l-1.22,1.26a1,1,0,0,1-.73.25,1,1,0,0,1-.72-.26l-1.22-1.23v3.43a.88.88,0,0,1-1,1,.86.86,0,0,1-1-1v-5.86A.86.86,0,0,1,110.81,255.66Z" transform="translate(0.28 0.34)" style="fill: #fff"/>
    <path d="M122.53,255.66a3.94,3.94,0,0,1,1.92.51,3.58,3.58,0,0,1,1.47,1.44,4,4,0,0,1,.53,2,3.9,3.9,0,0,1-.52,1.95,3.57,3.57,0,0,1-1.44,1.44,4,4,0,0,1-2,.52,3.9,3.9,0,0,1-1.94-.52,3.59,3.59,0,0,1-1.45-1.44,4,4,0,0,1,0-3.91,3.55,3.55,0,0,1,1.46-1.44A3.94,3.94,0,0,1,122.53,255.66Zm-1,2.2a1.81,1.81,0,0,0-.73.72,1.93,1.93,0,0,0-.27,1,2,2,0,0,0,.26,1,1.94,1.94,0,0,0,.73.72,2,2,0,0,0,1,.26,2,2,0,0,0,1-.26,1.85,1.85,0,0,0,.72-.72,2,2,0,0,0,0-2,1.83,1.83,0,0,0-.74-.72,2,2,0,0,0-1.92,0Z" transform="translate(0.28 0.34)" style="fill: #fff"/>
    <path d="M128.4,255.66h2.93q3.91,0,3.91,3.91t-3.81,3.9h-3a.86.86,0,0,1-1-1v-5.85A.88.88,0,0,1,128.4,255.66Zm1,2v3.89h2a1.95,1.95,0,0,0,0-3.89Z" transform="translate(0.28 0.34)" style="fill: #fff"/>
    <path d="M137.19,261.52a1,1,0,0,1,.48.13.89.89,0,0,1,.36.36,1,1,0,0,1,.13.49.91.91,0,0,1-.13.48.89.89,0,0,1-.36.36,1,1,0,0,1-1,0,.89.89,0,0,1-.36-.36.91.91,0,0,1-.13-.48,1,1,0,0,1,.13-.49.78.78,0,0,1,.36-.36A.91.91,0,0,1,137.19,261.52Z" transform="translate(0.28 0.34)" style="fill: #fff"/>
  </g>
  <g>
    <path d="M177.9,255.66h2.93q3.91,0,3.91,3.91t-3.81,3.9h-3a.86.86,0,0,1-1-1v-5.85A.88.88,0,0,1,177.9,255.66Zm1,2v3.89h2a1.95,1.95,0,0,0,0-3.89Z" transform="translate(0.28 0.34)" style="fill: #fff"/>
    <path d="M186.69,255.65h4.94a.84.84,0,0,1,.92,1,.89.89,0,0,1-1,1h-3.9v3.89h3.89a.88.88,0,0,1,1,1,.86.86,0,0,1-1,1h-4.89a.85.85,0,0,1-1-1v-5.88A.88.88,0,0,1,186.69,255.65Zm1.45,3.94a.88.88,0,0,1,1-1h2a1,1,0,1,1,0,2h-2A.86.86,0,0,1,188.14,259.59Z" transform="translate(0.28 0.34)" style="fill: #fff"/>
    <path d="M200.37,256.64c0,.65-.31,1-.94,1h-3c-.66,0-1,.17-1,.49s.35.47,1,.46h1c2,0,3,.83,3,2.48s-1,2.4-2.95,2.41H194.5a1,1,0,1,1,0-1.92h2.94c.66,0,1-.17,1-.51s-.34-.49-1-.49h-1c-2,0-2.94-.81-2.94-2.42s1-2.44,2.94-2.45h2.94A.87.87,0,0,1,200.37,256.64Z" transform="translate(0.28 0.34)" style="fill: #fff"/>
    <path d="M202.3,255.65h4.94a.84.84,0,0,1,.92,1,.89.89,0,0,1-1,1h-1.46v4.88a.87.87,0,0,1-1,1,.86.86,0,0,1-1-1v-4.9H202.3a.86.86,0,0,1-1-1A.89.89,0,0,1,202.3,255.65Z" transform="translate(0.28 0.34)" style="fill: #fff"/>
    <path d="M210.11,261.52a.9.9,0,0,1,.47.13.86.86,0,0,1,.37.36,1.05,1.05,0,0,1,.13.49,1,1,0,0,1-.13.48,1,1,0,0,1-.36.36,1,1,0,0,1-.48.13,1.05,1.05,0,0,1-.49-.13,1,1,0,0,1-.36-.36,1,1,0,0,1-.13-.48,1.05,1.05,0,0,1,.13-.49.89.89,0,0,1,.36-.36A1,1,0,0,1,210.11,261.52Z" transform="translate(0.28 0.34)" style="fill: #fff"/>
  </g>
  <g>
    <path d="M45.7,255.66a1,1,0,0,1,.73.25l2.21,2.21,2.2-2.21a1,1,0,0,1,.72-.25.87.87,0,0,1,1,1v5.86a1,1,0,1,1-2,0V259l-1.23,1.26a1.14,1.14,0,0,1-1.44,0l-1.23-1.23v3.43a.87.87,0,0,1-1,1,.85.85,0,0,1-1-1v-5.86A.86.86,0,0,1,45.7,255.66Z" transform="translate(0.28 0.34)" style="fill: #fff"/>
    <path d="M54.49,255.66a.88.88,0,0,1,1,1v5.87a1,1,0,1,1-2,0v-5.87A.86.86,0,0,1,54.49,255.66Z" transform="translate(0.28 0.34)" style="fill: #fff"/>
    <path d="M57.45,255.64a1,1,0,0,1,.74.24c.16.16.74.84,1.73,2,1-1.22,1.6-1.91,1.76-2.06a1,1,0,0,1,.74-.24,1,1,0,0,1,.73.25.94.94,0,0,1,.24.74,1.29,1.29,0,0,1-.51,1l-1.66,2,1.66,1.93a1.27,1.27,0,0,1,.51,1,.88.88,0,0,1-.24.74,1.08,1.08,0,0,1-.74.24,1,1,0,0,1-.76-.26c-.16-.17-.73-.84-1.7-2-1,1.2-1.57,1.88-1.73,2.05a1,1,0,0,1-.76.25,1,1,0,0,1-.74-.24.87.87,0,0,1-.24-.74,1.24,1.24,0,0,1,.51-1l1.74-1.94-1.74-2a1.3,1.3,0,0,1-.51-1,.94.94,0,0,1,.24-.74A1,1,0,0,1,57.45,255.64Z" transform="translate(0.28 0.34)" style="fill: #fff"/>
  </g>
  <g>
    <path d="M28.61,315.66a1,1,0,0,1,.73.25l2.21,2.21,2.2-2.21a1,1,0,0,1,.72-.25.87.87,0,0,1,1,1v5.86a1,1,0,1,1-2,0V319l-1.23,1.26a1.14,1.14,0,0,1-1.44,0l-1.23-1.23v3.43a.87.87,0,0,1-1,1,.85.85,0,0,1-1-1v-5.86A.86.86,0,0,1,28.61,315.66Z" transform="translate(0.28 0.34)" style="fill: #fff"/>
    <path d="M37.4,315.66a.88.88,0,0,1,1,1v5.87a1,1,0,1,1-2,0v-5.87A.86.86,0,0,1,37.4,315.66Z" transform="translate(0.28 0.34)" style="fill: #fff"/>
    <path d="M40.36,315.64a1,1,0,0,1,.74.24c.16.16.74.84,1.73,2,1-1.22,1.6-1.91,1.76-2.06a1,1,0,0,1,.74-.24,1,1,0,0,1,.73.25.94.94,0,0,1,.24.74,1.29,1.29,0,0,1-.51,1l-1.66,2,1.66,1.93a1.27,1.27,0,0,1,.51,1,.88.88,0,0,1-.24.74,1.08,1.08,0,0,1-.74.24,1,1,0,0,1-.76-.26c-.16-.17-.73-.84-1.7-2-1,1.2-1.57,1.88-1.73,2.05a1,1,0,0,1-.76.25,1,1,0,0,1-.74-.24.9.9,0,0,1-.24-.74,1.24,1.24,0,0,1,.51-1l1.74-1.94-1.74-2a1.3,1.3,0,0,1-.51-1,.94.94,0,0,1,.24-.74A1,1,0,0,1,40.36,315.64Z" transform="translate(0.28 0.34)" style="fill: #fff"/>
    <path d="M53,315.66a1,1,0,0,1,.73.25L56,318.12l2.2-2.21a1,1,0,0,1,.72-.25.87.87,0,0,1,1,1v5.86a1,1,0,1,1-2,0V319l-1.23,1.26a1.14,1.14,0,0,1-1.44,0L54,319.06v3.43a.87.87,0,0,1-1,1,.85.85,0,0,1-1-1v-5.86A.86.86,0,0,1,53,315.66Z" transform="translate(0.28 0.34)" style="fill: #fff"/>
    <path d="M64.74,315.66a3.94,3.94,0,0,1,1.92.51,3.61,3.61,0,0,1,1.46,1.44,3.88,3.88,0,0,1,.53,2,4,4,0,0,1-.51,1.95A3.65,3.65,0,0,1,66.69,323a3.92,3.92,0,0,1-3.9,0,3.57,3.57,0,0,1-1.44-1.44,3.9,3.9,0,0,1-.52-1.95,4.08,4.08,0,0,1,.52-2,3.61,3.61,0,0,1,1.46-1.44A4,4,0,0,1,64.74,315.66Zm-1,2.2a1.87,1.87,0,0,0-.73.72,2,2,0,0,0,0,2,1.85,1.85,0,0,0,.72.72,2,2,0,0,0,1,.26,2,2,0,0,0,1-.26,1.94,1.94,0,0,0,.73-.72,2,2,0,0,0,.26-1,1.93,1.93,0,0,0-.27-1,1.81,1.81,0,0,0-.73-.72,2,2,0,0,0-1-.25A2,2,0,0,0,63.78,317.86Z" transform="translate(0.28 0.34)" style="fill: #fff"/>
    <path d="M70.61,315.66h2.93c2.6,0,3.91,1.31,3.91,3.91s-1.28,3.89-3.81,3.9h-3a.86.86,0,0,1-1-1v-5.85A.88.88,0,0,1,70.61,315.66Zm1,2v3.89h2a1.95,1.95,0,0,0,0-3.89Z" transform="translate(0.28 0.34)" style="fill: #fff"/>
    <path d="M79.4,321.52a.9.9,0,0,1,.47.13.86.86,0,0,1,.37.36,1.05,1.05,0,0,1,.13.49,1,1,0,0,1-.13.48,1,1,0,0,1-.36.36,1,1,0,0,1-1,0,1,1,0,0,1-.36-.36,1,1,0,0,1-.13-.48,1.05,1.05,0,0,1,.13-.49.89.89,0,0,1,.36-.36A1,1,0,0,1,79.4,321.52Z" transform="translate(0.28 0.34)" style="fill: #fff"/>
  </g>
  <g>
    <path d="M107.9,323.48a1,1,0,0,1-.48-.13.86.86,0,0,1-.37-.36,1.05,1.05,0,0,1-.13-.49,24.32,24.32,0,0,1,1.46-3.19c1-2,1.5-3,1.59-3.17a.89.89,0,0,1,.36-.36,1.09,1.09,0,0,1,.49-.13,1,1,0,0,1,.48.13,1,1,0,0,1,.37.36l1.59,3.17a23.71,23.71,0,0,1,1.47,3.19,1,1,0,0,1-.13.49.86.86,0,0,1-.37.36,1,1,0,0,1-.48.13Zm4.26-2-1.34-2.75-1.34,2.75Z" transform="translate(0.28 0.34)" style="fill: #fff"/>
    <path d="M116.7,315.65a.86.86,0,0,1,1,1v3c0,1.3.51,2,1.49,2s1.46-.66,1.46-2v-2.93a.88.88,0,0,1,1-1,.89.89,0,0,1,1,1v2.94q0,3.9-3.42,3.9t-3.44-3.9v-2.94A.88.88,0,0,1,116.7,315.65Z" transform="translate(0.28 0.34)" style="fill: #fff"/>
    <path d="M124.49,315.66h2.93q3.92,0,3.91,3.91t-3.81,3.9h-3a.86.86,0,0,1-1-1v-5.85A.88.88,0,0,1,124.49,315.66Zm1,2v3.89h2a1.95,1.95,0,0,0,0-3.89Z" transform="translate(0.28 0.34)" style="fill: #fff"/>
    <path d="M133.28,315.66a.88.88,0,0,1,1,1v5.87a1,1,0,1,1-2,0v-5.87A.86.86,0,0,1,133.28,315.66Z" transform="translate(0.28 0.34)" style="fill: #fff"/>
    <path d="M139.13,315.66a3.94,3.94,0,0,1,1.92.51,3.7,3.7,0,0,1,1.47,1.44,3.9,3.9,0,0,1,0,3.91,3.59,3.59,0,0,1-1.45,1.44,3.9,3.9,0,0,1-3.89,0,3.53,3.53,0,0,1-1.45-1.44,3.9,3.9,0,0,1,0-3.91,3.53,3.53,0,0,1,1.45-1.44A4,4,0,0,1,139.13,315.66Zm-1,2.2a1.78,1.78,0,0,0-.72.72,1.93,1.93,0,0,0-.27,1,2,2,0,0,0,.26,1,1.81,1.81,0,0,0,.73.72,1.94,1.94,0,0,0,1.94,0,1.87,1.87,0,0,0,.73-.72,2,2,0,0,0,.26-1,1.93,1.93,0,0,0-.27-1,1.81,1.81,0,0,0-.73-.72,2,2,0,0,0-1-.25A2,2,0,0,0,138.17,317.86Z" transform="translate(0.28 0.34)" style="fill: #fff"/>
  </g>
  <g>
    <path d="M190.82,315.66h2a1,1,0,1,1,0,1.95h-2a2,2,0,0,0,0,3.9h1.94a.88.88,0,0,1,1,1,.86.86,0,0,1-1,1h-1.95q-3.92,0-3.91-3.91T190.82,315.66Z" transform="translate(0.28 0.34)" style="fill: #fff"/>
    <path d="M201.56,315.65a1.08,1.08,0,0,1,.48.13.92.92,0,0,1,.37.36,1.09,1.09,0,0,1,.13.49,23.71,23.71,0,0,1-1.47,3.19c-1,2-1.51,3-1.6,3.17a.89.89,0,0,1-.36.36,1,1,0,0,1-.48.13,1.05,1.05,0,0,1-.49-.13.89.89,0,0,1-.36-.36c-.09-.16-.62-1.21-1.59-3.17a24.32,24.32,0,0,1-1.46-3.19,1,1,0,0,1,.13-.49.92.92,0,0,1,.37-.36,1,1,0,0,1,.48-.13,1.08,1.08,0,0,1,.48.13,1,1,0,0,1,.36.36q.13.24,2.08,4.24,2-4,2.09-4.24a.89.89,0,0,1,.36-.36A1.08,1.08,0,0,1,201.56,315.65Z" transform="translate(0.28 0.34)" style="fill: #fff"/>
  </g>
  <g>
    <path d="M112.47,75.66h3.43a2.53,2.53,0,0,1,2.43,2.43A3.67,3.67,0,0,1,118,79.8a1.26,1.26,0,0,1-1.11.72l1.2,1.22a1,1,0,0,1,.29.76.87.87,0,0,1-1,1,1.34,1.34,0,0,1-1-.48l-1.95-2.42a1.56,1.56,0,0,1-.5-1,.87.87,0,0,1,1-1h.69c.52,0,.77-.15.76-.48s-.25-.48-.76-.48h-2.16v4.87a.86.86,0,0,1-1,1,.85.85,0,0,1-1-1V76.63A.86.86,0,0,1,112.47,75.66Z" transform="translate(0.28 0.34)" style="fill: #fff"/>
    <path d="M120.28,75.66a.88.88,0,0,1,1,1V82.5a1,1,0,1,1-2,0V76.63A.86.86,0,0,1,120.28,75.66Z" transform="translate(0.28 0.34)" style="fill: #fff"/>
    <path d="M129.08,76.64a.85.85,0,0,1-.94,1h-3c-.66,0-1,.17-1,.49s.34.47,1,.46h1c2,0,3,.83,3,2.48s-1,2.4-3,2.41H123.2a1,1,0,1,1,0-1.92h2.94c.66,0,1-.17,1-.51s-.33-.49-1-.49h-1c-2,0-2.93-.81-2.93-2.42s1-2.44,2.93-2.45h2.94A.88.88,0,0,1,129.08,76.64Z" transform="translate(0.28 0.34)" style="fill: #fff"/>
    <path d="M131,75.65H136a.84.84,0,0,1,.92,1,.89.89,0,0,1-1,1H132v3.89h3.88a1,1,0,0,1,0,2H131a.86.86,0,0,1-1-1V76.64A.88.88,0,0,1,131,75.65Zm1.45,3.94a.87.87,0,0,1,1-1h2a1,1,0,1,1,0,2h-2A.85.85,0,0,1,132.46,79.59Z" transform="translate(0.28 0.34)" style="fill: #fff"/>
  </g>
  <g>
    <path d="M112.47,135.66h3.43a2.53,2.53,0,0,1,2.43,2.43,3.67,3.67,0,0,1-.37,1.71,1.26,1.26,0,0,1-1.11.72l1.2,1.22a1,1,0,0,1,.29.76.87.87,0,0,1-1,1,1.34,1.34,0,0,1-1-.48l-1.95-2.42a1.56,1.56,0,0,1-.5-1,.87.87,0,0,1,1-1h.69c.52,0,.77-.15.76-.48s-.25-.48-.76-.48h-2.16v4.87a.86.86,0,0,1-1,1,.85.85,0,0,1-1-1v-5.87A.86.86,0,0,1,112.47,135.66Z" transform="translate(0.28 0.34)" style="fill: #fff"/>
    <path d="M120.28,135.66a.88.88,0,0,1,1,1v5.87a1,1,0,1,1-2,0v-5.87A.86.86,0,0,1,120.28,135.66Z" transform="translate(0.28 0.34)" style="fill: #fff"/>
    <path d="M129.08,136.64a.85.85,0,0,1-.94,1h-3c-.66,0-1,.17-1,.49s.34.47,1,.46h1c2,0,3,.83,3,2.48s-1,2.4-3,2.41H123.2a1,1,0,1,1,0-1.92h2.94c.66,0,1-.17,1-.51s-.33-.49-1-.49h-1c-2,0-2.93-.81-2.93-2.42s1-2.44,2.93-2.45h2.94A.88.88,0,0,1,129.08,136.64Z" transform="translate(0.28 0.34)" style="fill: #fff"/>
    <path d="M131,135.65H136a.84.84,0,0,1,.92,1,.89.89,0,0,1-1,1H132v3.89h3.88a1,1,0,0,1,0,2H131a.86.86,0,0,1-1-.95v-5.88A.88.88,0,0,1,131,135.65Zm1.45,3.94a.87.87,0,0,1,1-1h2a1,1,0,1,1,0,2h-2A.85.85,0,0,1,132.46,139.59Z" transform="translate(0.28 0.34)" style="fill: #fff"/>
  </g>
  <g>
    <path d="M179.36,75.65h4.94a.84.84,0,0,1,.92,1,.89.89,0,0,1-1,1h-3.89v1h3.91a1,1,0,0,1,0,2h-3.91v2a.87.87,0,0,1-1,1,.86.86,0,0,1-1-1V76.64A.89.89,0,0,1,179.36,75.65Z" transform="translate(0.28 0.34)" style="fill: #fff"/>
    <path d="M187.17,83.48a1.08,1.08,0,0,1-.48-.13.89.89,0,0,1-.36-.36,1,1,0,0,1-.13-.49,22.79,22.79,0,0,1,1.46-3.19c1-2,1.5-3,1.58-3.17a1,1,0,0,1,.37-.36,1,1,0,0,1,.48-.13,1.09,1.09,0,0,1,.49.13,1,1,0,0,1,.36.36c.09.16.62,1.21,1.6,3.17A22.79,22.79,0,0,1,194,82.5a1,1,0,0,1-.13.49.83.83,0,0,1-.36.36,1.08,1.08,0,0,1-.48.13Zm4.26-2-1.34-2.75-1.34,2.75Z" transform="translate(0.28 0.34)" style="fill: #fff"/>
    <path d="M196,75.65q1,0,1,1v4.9h3.89a.88.88,0,0,1,1,1,.86.86,0,0,1-1,1H196a.85.85,0,0,1-1-1V76.64A.88.88,0,0,1,196,75.65Z" transform="translate(0.28 0.34)" style="fill: #fff"/>
    <path d="M203.76,75.65q1,0,1,1v4.9h3.88a.88.88,0,0,1,1,1,.86.86,0,0,1-1,1h-4.88a.86.86,0,0,1-1-1V76.64A.89.89,0,0,1,203.76,75.65Z" transform="translate(0.28 0.34)" style="fill: #fff"/>
  </g>
  <g>
    <path d="M179.36,135.65h4.94a.84.84,0,0,1,.92,1,.89.89,0,0,1-1,1h-3.89v1h3.91a1,1,0,0,1,0,1.95h-3.91v1.95a.87.87,0,0,1-1,1,.86.86,0,0,1-1-.95v-5.88A.89.89,0,0,1,179.36,135.65Z" transform="translate(0.28 0.34)" style="fill: #fff"/>
    <path d="M187.17,143.48a1.08,1.08,0,0,1-.48-.13.89.89,0,0,1-.36-.36,1,1,0,0,1-.13-.49,22.79,22.79,0,0,1,1.46-3.19c1-2,1.5-3,1.58-3.17a1,1,0,0,1,.37-.36,1,1,0,0,1,.48-.13,1.09,1.09,0,0,1,.49.13,1,1,0,0,1,.36.36c.09.16.62,1.21,1.6,3.17A22.79,22.79,0,0,1,194,142.5a1,1,0,0,1-.13.49.83.83,0,0,1-.36.36,1.08,1.08,0,0,1-.48.13Zm4.26-2-1.34-2.75-1.34,2.75Z" transform="translate(0.28 0.34)" style="fill: #fff"/>
    <path d="M196,135.65q1,0,1,1v4.9h3.89a.88.88,0,0,1,1,1,.86.86,0,0,1-1,1H196a.85.85,0,0,1-1-.95v-5.88A.88.88,0,0,1,196,135.65Z" transform="translate(0.28 0.34)" style="fill: #fff"/>
    <path d="M203.76,135.65q1,0,1,1v4.9h3.88a.88.88,0,0,1,1,1,.86.86,0,0,1-1,1h-4.88a.86.86,0,0,1-1-.95v-5.88A.89.89,0,0,1,203.76,135.65Z" transform="translate(0.28 0.34)" style="fill: #fff"/>
  </g>
  <g>
    <path d="M114.24,195.66a.88.88,0,0,1,1,1v5.87a1,1,0,1,1-2,0v-5.87A.86.86,0,0,1,114.24,195.66Z" transform="translate(0.28 0.34)" style="fill: #fff"/>
    <path d="M117.3,195.67a1.22,1.22,0,0,1,.85.4l2.92,3.73v-3.27a.77.77,0,0,1,.83-.86c.73,0,1.1.3,1.11.88v6.07c0,.56-.38.84-1.12.85a1,1,0,0,1-.81-.4l-2.94-3.72v3.27a.76.76,0,0,1-.85.85c-.74,0-1.11-.28-1.11-.86v-6.09C116.19,196,116.56,195.68,117.3,195.67Z" transform="translate(0.28 0.34)" style="fill: #fff"/>
    <path d="M130.84,195.65a1.08,1.08,0,0,1,.48.13,1,1,0,0,1,.36.36,1,1,0,0,1,.13.49,22.79,22.79,0,0,1-1.46,3.19c-1,2-1.51,3-1.6,3.17a1,1,0,0,1-.36.36,1.09,1.09,0,0,1-.49.13,1,1,0,0,1-.48-.13,1,1,0,0,1-.37-.36c-.08-.16-.61-1.21-1.58-3.17a22.79,22.79,0,0,1-1.46-3.19,1,1,0,0,1,.13-.49,1,1,0,0,1,.36-.36,1.08,1.08,0,0,1,.48-.13,1,1,0,0,1,.48.13.92.92,0,0,1,.37.36q.14.24,2.07,4.24,2-4,2.09-4.24a.92.92,0,0,1,.37-.36A1,1,0,0,1,130.84,195.65Z" transform="translate(0.28 0.34)" style="fill: #fff"/>
    <path d="M133.76,201.52a.9.9,0,0,1,.47.13.86.86,0,0,1,.37.36,1,1,0,0,1,.13.49.91.91,0,0,1-.13.48,1,1,0,0,1-.36.36,1,1,0,0,1-.48.13,1.09,1.09,0,0,1-.49-.13,1,1,0,0,1-.36-.36,1,1,0,0,1-.12-.48,1,1,0,0,1,.13-.49.78.78,0,0,1,.36-.36A.91.91,0,0,1,133.76,201.52Z" transform="translate(0.28 0.34)" style="fill: #fff"/>
  </g>
  <g>
    <path d="M178.87,196.64h1.95a1,1,0,1,1,0,1.94h-1.95a1.72,1.72,0,0,0-2,2,1.73,1.73,0,0,0,2,1.95h1.94a1,1,0,0,1,0,1.95h-2c-2.61,0-3.91-1.3-3.92-3.91S176.26,196.64,178.87,196.64Z" transform="translate(0.28 0.34)" style="fill: #fff"/>
    <path d="M183.76,196.62a1,1,0,0,1,.74.24c.16.16.74.84,1.73,2,1-1.22,1.6-1.91,1.76-2.07a1.07,1.07,0,0,1,.74-.23,1,1,0,0,1,.73.24,1,1,0,0,1,.25.74,1.3,1.3,0,0,1-.52,1l-2,2.33v2.6a.89.89,0,0,1-1,1c-.64,0-1-.32-1-1v-2.58l-1.93-2.29a1.3,1.3,0,0,1-.51-1,.94.94,0,0,1,.24-.74A1,1,0,0,1,183.76,196.62Z" transform="translate(0.28 0.34)" style="fill: #fff"/>
    <path d="M194.49,196.64h2a1,1,0,1,1,0,1.94H194.5a2,2,0,0,0,0,3.9h1.94a.87.87,0,0,1,1,1,.86.86,0,0,1-1,1H194.5c-2.6,0-3.91-1.3-3.91-3.91S191.89,196.64,194.49,196.64Z" transform="translate(0.28 0.34)" style="fill: #fff"/>
    <path d="M199.37,196.63q1,0,1,1v4.9h3.89a.87.87,0,0,1,1,1,.86.86,0,0,1-1,1h-4.89a.85.85,0,0,1-1-.95v-5.88A.88.88,0,0,1,199.37,196.63Z" transform="translate(0.28 0.34)" style="fill: #fff"/>
    <path d="M207.18,196.63h4.94a.84.84,0,0,1,.92,1,.89.89,0,0,1-1,1h-3.89v3.89H212a.88.88,0,0,1,1,1,.86.86,0,0,1-1,1h-4.88a.86.86,0,0,1-1-.95v-5.88A.88.88,0,0,1,207.18,196.63Zm1.45,3.94a.88.88,0,0,1,1-1h2a.88.88,0,0,1,1,1,.87.87,0,0,1-1,1h-2A.85.85,0,0,1,208.63,200.57Z" transform="translate(0.28 0.34)" style="fill: #fff"/>
  </g>
  <g>
    <path d="M196.47,219.45c0-.23,0-.58,0-.88v-4.09h.61v2.12h0a1.28,1.28,0,0,1,1.15-.62,1.52,1.52,0,0,1,1.43,1.73,1.62,1.62,0,0,1-1.52,1.82,1.2,1.2,0,0,1-1.13-.64h0l0,.56Zm.64-1.36a.78.78,0,0,0,0,.22.94.94,0,0,0,.92.73c.64,0,1-.53,1-1.31s-.34-1.26-1-1.26a1,1,0,0,0-.94.76,1.56,1.56,0,0,0,0,.25Z" transform="translate(0.28 0.34)" style="fill: #fff;stroke: #fff;stroke-miterlimit: 10;stroke-width: 0.25px"/>
    <path d="M203.54,217.72a1.66,1.66,0,0,1-1.69,1.81,1.62,1.62,0,0,1-1.62-1.75,1.66,1.66,0,0,1,1.68-1.8A1.61,1.61,0,0,1,203.54,217.72Zm-2.69,0c0,.74.43,1.3,1,1.3s1-.55,1-1.31c0-.58-.29-1.31-1-1.31S200.85,217.12,200.85,217.76Z" transform="translate(0.28 0.34)" style="fill: #fff;stroke: #fff;stroke-miterlimit: 10;stroke-width: 0.25px"/>
    <path d="M205.05,215.08v1h.88v.47h-.88v1.83c0,.42.12.65.46.65a1.49,1.49,0,0,0,.36,0l0,.46a1.49,1.49,0,0,1-.55.09.82.82,0,0,1-.66-.26,1.22,1.22,0,0,1-.24-.88v-1.85h-.53v-.47h.53v-.81Z" transform="translate(0.28 0.34)" style="fill: #fff;stroke: #fff;stroke-miterlimit: 10;stroke-width: 0.25px"/>
    <path d="M206.62,214.48h.62v2.11h0a1.14,1.14,0,0,1,.44-.43,1.22,1.22,0,0,1,.63-.18c.45,0,1.18.28,1.18,1.45v2h-.62V217.5c0-.54-.2-1-.78-1a.87.87,0,0,0-.82.62.64.64,0,0,0,0,.29v2h-.62Z" transform="translate(0.28 0.34)" style="fill: #fff;stroke: #fff;stroke-miterlimit: 10;stroke-width: 0.25px"/>
  </g>
  <g>
    <path d="M196.5,237.12c0-.4,0-.75,0-1.06H197l0,.66h0A1,1,0,0,1,198,236l.18,0v.58l-.21,0a.88.88,0,0,0-.83.79,2.64,2.64,0,0,0,0,.29v1.81h-.61Z" transform="translate(0.28 0.34)" style="fill: #fff;stroke: #fff;stroke-miterlimit: 10;stroke-width: 0.25px"/>
    <path d="M199.5,235.11a.39.39,0,0,1-.77,0,.38.38,0,0,1,.39-.39A.37.37,0,0,1,199.5,235.11Zm-.69,4.34v-3.39h.62v3.39Z" transform="translate(0.28 0.34)" style="fill: #fff;stroke: #fff;stroke-miterlimit: 10;stroke-width: 0.25px"/>
    <path d="M200.36,238.82a1.58,1.58,0,0,0,.81.24c.45,0,.66-.22.66-.5s-.18-.46-.63-.62c-.61-.22-.9-.56-.9-1a1.05,1.05,0,0,1,1.17-1,1.68,1.68,0,0,1,.83.21l-.15.45a1.35,1.35,0,0,0-.69-.2c-.37,0-.57.21-.57.47s.2.4.65.57.88.52.88,1-.46,1-1.26,1a1.9,1.9,0,0,1-.95-.23Z" transform="translate(0.28 0.34)" style="fill: #fff;stroke: #fff;stroke-miterlimit: 10;stroke-width: 0.25px"/>
    <path d="M203.55,237.87a1.09,1.09,0,0,0,1.16,1.17,2.39,2.39,0,0,0,.94-.17l.1.44a2.64,2.64,0,0,1-1.12.21,1.57,1.57,0,0,1-1.66-1.71,1.65,1.65,0,0,1,1.58-1.83,1.44,1.44,0,0,1,1.4,1.6,2.07,2.07,0,0,1,0,.29Zm1.81-.45a.88.88,0,0,0-.86-1,1,1,0,0,0-.94,1Z" transform="translate(0.28 0.34)" style="fill: #fff;stroke: #fff;stroke-miterlimit: 10;stroke-width: 0.25px"/>
  </g>
  <g>
    <path d="M196.56,229.45v-2.92h-.47v-.47h.47v-.16a1.65,1.65,0,0,1,.39-1.19,1.19,1.19,0,0,1,.83-.31,1.41,1.41,0,0,1,.52.1l-.08.47a1,1,0,0,0-.39-.07c-.53,0-.66.46-.66,1v.18H198v.47h-.82v2.92Z" transform="translate(0.28 0.34)" style="fill: #fff;stroke: #fff;stroke-miterlimit: 10;stroke-width: 0.25px"/>
    <path d="M200.41,229.45l0-.43h0a1.25,1.25,0,0,1-1,.51,1,1,0,0,1-1-1c0-.82.73-1.27,2-1.26v-.07a.7.7,0,0,0-.77-.78,1.59,1.59,0,0,0-.88.25l-.14-.41a2.1,2.1,0,0,1,1.11-.3c1,0,1.29.71,1.29,1.39v1.27a5,5,0,0,0,.05.81Zm-.09-1.73c-.67,0-1.43.1-1.43.76a.54.54,0,0,0,.58.59.85.85,0,0,0,.82-.57.63.63,0,0,0,0-.19Z" transform="translate(0.28 0.34)" style="fill: #fff;stroke: #fff;stroke-miterlimit: 10;stroke-width: 0.25px"/>
    <path d="M201.9,224.48h.62v5h-.62Z" transform="translate(0.28 0.34)" style="fill: #fff;stroke: #fff;stroke-miterlimit: 10;stroke-width: 0.25px"/>
    <path d="M203.55,224.48h.62v5h-.62Z" transform="translate(0.28 0.34)" style="fill: #fff;stroke: #fff;stroke-miterlimit: 10;stroke-width: 0.25px"/>
  </g>
  <g>
    <path d="M46.21,2.18H55.1A1.5,1.5,0,0,1,56.75,3.9,1.6,1.6,0,0,1,55,5.72H52.35V14.5a1.58,1.58,0,0,1-1.77,1.75,1.54,1.54,0,0,1-1.76-1.71V5.72H46.21A1.56,1.56,0,0,1,44.45,4,1.58,1.58,0,0,1,46.21,2.18Z" transform="translate(0.28 0.34)" style="fill: #fff"/>
    <path d="M65.52,2.19A7.24,7.24,0,0,1,69,3.1a6.67,6.67,0,0,1,2.64,2.6,7.17,7.17,0,0,1,.95,3.53,7.25,7.25,0,0,1-.92,3.51A6.59,6.59,0,0,1,69,15.34a7.14,7.14,0,0,1-7,0,6.59,6.59,0,0,1-2.61-2.6,7.15,7.15,0,0,1-.93-3.51,7.26,7.26,0,0,1,.94-3.53,6.52,6.52,0,0,1,2.63-2.6A7.24,7.24,0,0,1,65.52,2.19Zm-1.71,4a3.37,3.37,0,0,0-1.32,1.3A3.67,3.67,0,0,0,62,9.22,3.51,3.51,0,0,0,62.48,11a3.37,3.37,0,0,0,1.31,1.31,3.56,3.56,0,0,0,3.5,0A3.37,3.37,0,0,0,68.6,11a3.53,3.53,0,0,0,.47-1.74,3.58,3.58,0,0,0-.48-1.78,3.3,3.3,0,0,0-1.32-1.3,3.55,3.55,0,0,0-3.46,0Z" transform="translate(0.28 0.34)" style="fill: #fff"/>
    <path d="M76.1,2.19h6.17a4.22,4.22,0,0,1,3,1.33,4.23,4.23,0,0,1,1.32,3.05A6.51,6.51,0,0,1,86,9.64a2.22,2.22,0,0,1-2,1.3l2.17,2.2a1.82,1.82,0,0,1,.52,1.36,1.56,1.56,0,0,1-1.76,1.75,2.43,2.43,0,0,1-1.76-.86L79.62,11a2.74,2.74,0,0,1-.89-1.81A1.56,1.56,0,0,1,80.5,7.45h1.25c.92,0,1.38-.27,1.37-.85s-.46-.87-1.38-.87H77.86v8.77a1.76,1.76,0,0,1-3.52,0V3.93A1.56,1.56,0,0,1,76.1,2.19Z" transform="translate(0.28 0.34)" style="fill: #fff"/>
    <path d="M90.4,2.21a2.18,2.18,0,0,1,1.53.72l5.26,6.72V3.75a1.38,1.38,0,0,1,1.5-1.54c1.31,0,2,.54,2,1.57l0,10.94c0,1-.68,1.51-2,1.53a1.82,1.82,0,0,1-1.47-.72l-5.29-6.7v5.89a1.37,1.37,0,0,1-1.53,1.53c-1.33,0-2-.51-2-1.55v-11C88.4,2.73,89.06,2.22,90.4,2.21Z" transform="translate(0.28 0.34)" style="fill: #fff"/>
    <path d="M113,16.26a1.76,1.76,0,0,1-.86-.23,1.63,1.63,0,0,1-.66-.64,1.8,1.8,0,0,1-.24-.89,42.59,42.59,0,0,1,2.63-5.74c1.75-3.52,2.71-5.42,2.86-5.7a1.57,1.57,0,0,1,.65-.65,1.78,1.78,0,0,1,1.75,0,1.57,1.57,0,0,1,.65.65q.24.42,2.88,5.7a42,42,0,0,1,2.64,5.74,1.8,1.8,0,0,1-.24.89,1.63,1.63,0,0,1-.66.64,1.82,1.82,0,0,1-.86.23Zm7.67-3.55-2.41-4.94-2.42,4.94Z" transform="translate(0.28 0.34)" style="fill: #fff"/>
    <path d="M128.82,2.19H135a4.2,4.2,0,0,1,3,1.33,4.15,4.15,0,0,1,1.32,3.05,6.51,6.51,0,0,1-.66,3.07,2.24,2.24,0,0,1-2,1.3l2.17,2.2a1.86,1.86,0,0,1,.52,1.36,1.57,1.57,0,0,1-1.76,1.75,2.44,2.44,0,0,1-1.77-.86L132.35,11a2.8,2.8,0,0,1-.9-1.81,1.56,1.56,0,0,1,1.78-1.77h1.24c.93,0,1.39-.27,1.38-.85s-.46-.87-1.38-.87h-3.88v8.77a1.55,1.55,0,0,1-1.77,1.76,1.54,1.54,0,0,1-1.75-1.74V3.93A1.55,1.55,0,0,1,128.82,2.19Z" transform="translate(0.28 0.34)" style="fill: #fff"/>
    <path d="M142.88,2.18h8.9a1.5,1.5,0,0,1,1.65,1.71,1.6,1.6,0,0,1-1.77,1.82H149V14.5a1.58,1.58,0,0,1-1.77,1.75,1.54,1.54,0,0,1-1.76-1.71V5.72h-2.64A1.55,1.55,0,0,1,141.13,4,1.57,1.57,0,0,1,142.88,2.18Z" transform="translate(0.28 0.34)" style="fill: #fff"/>
    <path d="M156.94,2.18h8.89a1.51,1.51,0,0,1,1.66,1.71,1.61,1.61,0,0,1-1.78,1.82h-7v7h7a1.58,1.58,0,0,1,1.78,1.78,1.57,1.57,0,0,1-1.74,1.75h-8.79a1.54,1.54,0,0,1-1.76-1.71V4A1.58,1.58,0,0,1,156.94,2.18Zm2.61,7.08a1.57,1.57,0,0,1,1.74-1.78h3.53a1.59,1.59,0,0,1,1.79,1.76A1.59,1.59,0,0,1,164.83,11H161.3A1.54,1.54,0,0,1,159.55,9.26Z" transform="translate(0.28 0.34)" style="fill: #fff"/>
    <path d="M171,2.19h6.17a4.2,4.2,0,0,1,3.05,1.33,4.19,4.19,0,0,1,1.32,3.05,6.51,6.51,0,0,1-.66,3.07,2.24,2.24,0,0,1-2,1.3l2.17,2.2a1.86,1.86,0,0,1,.52,1.36,1.57,1.57,0,0,1-1.76,1.75,2.44,2.44,0,0,1-1.77-.86L174.53,11a2.71,2.71,0,0,1-.9-1.81,1.56,1.56,0,0,1,1.77-1.77h1.25c.93,0,1.39-.27,1.37-.85s-.46-.87-1.38-.87h-3.87v8.77A1.56,1.56,0,0,1,171,16.25a1.54,1.54,0,0,1-1.76-1.74V3.93A1.56,1.56,0,0,1,171,2.19Z" transform="translate(0.28 0.34)" style="fill: #fff"/>
    <path d="M185.09,2.16a1.79,1.79,0,0,1,1.32.43q.45.44,3.13,3.67,2.72-3.3,3.17-3.72a2.2,2.2,0,0,1,2.64,0,1.7,1.7,0,0,1,.44,1.33,2.32,2.32,0,0,1-.93,1.74l-3.6,4.2V14.5a1.58,1.58,0,0,1-1.76,1.75c-1.16,0-1.74-.57-1.74-1.81l0-4.63-3.47-4.13a2.33,2.33,0,0,1-.93-1.75,1.72,1.72,0,0,1,.44-1.33A1.86,1.86,0,0,1,185.09,2.16Z" transform="translate(0.28 0.34)" style="fill: #fff"/>
  </g>
  <g style="isolation: isolate">
    <polygon points="17.4 370.71 16.26 370.09 16.24 369.97 17.38 370.59 17.4 370.71" style="fill: gray"/>
    <g style="isolation: isolate">
      <g style="clip-path: url(#clip-path-4)">
        <g style="isolation: isolate">
          <path d="M17.1,370.25,16,369.63a.36.36,0,0,0-.13-.11l1.14.62a.36.36,0,0,1,.13.11" transform="translate(0.28 0.34)" style="fill: #858585"/>
        </g>
      </g>
    </g>
    <g style="isolation: isolate">
      <g style="clip-path: url(#clip-path-5)">
        <g style="isolation: isolate">
          <path d="M16.69,370.61,15.55,370a.93.93,0,0,0,.28-.08l1.14.62a.93.93,0,0,1-.28.08" transform="translate(0.28 0.34)" style="fill: #a8a8a8"/>
          <path d="M17,370.53l-1.14-.62.06,0,1.14.62-.06,0" transform="translate(0.28 0.34)" style="fill: #a3a3a3"/>
          <path d="M17,370.5l-1.14-.62,0,0,1.14.62,0,0" transform="translate(0.28 0.34)" style="fill: #9e9e9e"/>
          <path d="M17.06,370.48l-1.14-.62,0,0,1.14.62,0,0" transform="translate(0.28 0.34)" style="fill: #999"/>
          <path d="M17.08,370.45l-1.14-.62h0l1.14.62h0" transform="translate(0.28 0.34)" style="fill: #949494"/>
          <path d="M17.1,370.44,16,369.82v0l1.14.62v0" transform="translate(0.28 0.34)" style="fill: #8f8f8f"/>
          <path d="M17.11,370.42,16,369.8v0l1.14.62v0" transform="translate(0.28 0.34)" style="fill: #8a8a8a"/>
          <path d="M17.12,370.39,16,369.77v0l1.14.62v0" transform="translate(0.28 0.34)" style="fill: #858585"/>
        </g>
      </g>
    </g>
    <g style="isolation: isolate">
      <g style="clip-path: url(#clip-path-6)">
        <g style="isolation: isolate">
          <path d="M9.12,370.47,8,369.85a25.08,25.08,0,0,1,4.37-1c.79-.11,1.59-.18,2.37-.21a4.23,4.23,0,0,1,1.07.09l1.14.62a4.23,4.23,0,0,0-1.07-.09c-.78,0-1.58.1-2.37.21a25.4,25.4,0,0,0-4.38,1" transform="translate(0.28 0.34)" style="fill: #a8a8a8"/>
          <path d="M16.94,369.33l-1.14-.62a1.61,1.61,0,0,1,.33.12l1.14.62a1.61,1.61,0,0,0-.33-.12" transform="translate(0.28 0.34)" style="fill: #a3a3a3"/>
          <path d="M17.27,369.45l-1.14-.62.05,0,1.14.62-.05,0" transform="translate(0.28 0.34)" style="fill: #9e9e9e"/>
        </g>
      </g>
    </g>
    <g style="isolation: isolate">
      <g style="clip-path: url(#clip-path-7)">
        <g style="isolation: isolate">
          <path d="M7.41,373.25l-1.14-.62.24-.17,1.14.62-.24.17" transform="translate(0.28 0.34)" style="fill: #9e9e9e"/>
          <path d="M7.65,373.08l-1.14-.62a15.46,15.46,0,0,1,2.32-1.35l1.14.62a15.46,15.46,0,0,0-2.32,1.35" transform="translate(0.28 0.34)" style="fill: #a3a3a3"/>
          <path d="M10,371.73l-1.14-.62a11.86,11.86,0,0,1,3.46-1.06,10.08,10.08,0,0,1,2.26-.07,4.81,4.81,0,0,0,1,0l1.14.62a4.81,4.81,0,0,1-1,0,10.08,10.08,0,0,0-2.26.07A11.86,11.86,0,0,0,10,371.73" transform="translate(0.28 0.34)" style="fill: #a8a8a8"/>
        </g>
      </g>
    </g>
    <polygon points="8.81 371.74 7.67 371.12 7.63 370.75 8.77 371.37 8.81 371.74" style="fill: gray"/>
    <g style="isolation: isolate">
      <g style="clip-path: url(#clip-path-8)">
        <g style="isolation: isolate">
          <path d="M6.07,373.84l-1.14-.62h.19a1.2,1.2,0,0,0,.42-.14l1.14.62a1.2,1.2,0,0,1-.42.14.59.59,0,0,1-.19,0" transform="translate(0.28 0.34)" style="fill: #a8a8a8"/>
          <path d="M6.68,373.7l-1.14-.62a3.4,3.4,0,0,0,.54-.32l1.14.62a3.4,3.4,0,0,1-.54.32" transform="translate(0.28 0.34)" style="fill: #a3a3a3"/>
          <path d="M7.22,373.38l-1.14-.62.19-.13,1.14.62-.19.13" transform="translate(0.28 0.34)" style="fill: #9e9e9e"/>
        </g>
      </g>
    </g>
    <g style="isolation: isolate">
      <g style="clip-path: url(#clip-path-9)">
        <g style="isolation: isolate">
          <path d="M6,373.81l-1.14-.62h0l1.14.62H6" transform="translate(0.28 0.34)" style="fill: #9e9e9e"/>
          <path d="M6,373.81l-1.14-.62.06,0,1.14.62-.06,0" transform="translate(0.28 0.34)" style="fill: #a3a3a3"/>
        </g>
      </g>
    </g>
    <g style="isolation: isolate">
      <g style="clip-path: url(#clip-path-10)">
        <g style="isolation: isolate">
          <path d="M8.49,371l-1.14-.62a9,9,0,0,1,.6-4.12l1.14.62a9,9,0,0,0-.6,4.12" transform="translate(0.28 0.34)" style="fill: #858585"/>
          <path d="M9.09,366.9,8,366.28c0-.15.1-.29.16-.44l1.14.62c-.06.15-.11.29-.16.44" transform="translate(0.28 0.34)" style="fill: #8a8a8a"/>
        </g>
      </g>
    </g>
    <g style="isolation: isolate">
      <g style="clip-path: url(#clip-path-11)">
        <g style="isolation: isolate">
          <path d="M9.25,366.46l-1.14-.62c.07-.19.16-.45-.4-.75l1.14.62c.56.3.47.56.4.75" transform="translate(0.28 0.34)" style="fill: #858585"/>
        </g>
      </g>
    </g>
    <g style="isolation: isolate">
      <g style="clip-path: url(#clip-path-12)">
        <g style="isolation: isolate">
          <path d="M5.64,374.47l-1.14-.62a1.11,1.11,0,0,1-.49-.63,8.23,8.23,0,0,1,.17-5.55l1.14.62a8.23,8.23,0,0,0-.17,5.55,1.11,1.11,0,0,0,.49.63" transform="translate(0.28 0.34)" style="fill: #858585"/>
          <path d="M5.32,368.29l-1.14-.62a12.27,12.27,0,0,1,.7-1.54l1.14.62a12.27,12.27,0,0,0-.7,1.54" transform="translate(0.28 0.34)" style="fill: #8a8a8a"/>
          <path d="M6,366.75l-1.14-.62c.15-.28.31-.55.49-.83l.07-.12,1.14.62-.07.12c-.18.28-.34.55-.49.83" transform="translate(0.28 0.34)" style="fill: #8f8f8f"/>
          <path d="M6.58,365.8l-1.14-.62a3.2,3.2,0,0,1,.22-.27l1.14.62a2,2,0,0,0-.22.27" transform="translate(0.28 0.34)" style="fill: #949494"/>
          <path d="M6.8,365.53l-1.14-.62a2.28,2.28,0,0,1,.22-.22l1.14.62-.22.22" transform="translate(0.28 0.34)" style="fill: #999"/>
          <path d="M7,365.31l-1.14-.62a2.11,2.11,0,0,1,.23-.19l1.14.62a2.11,2.11,0,0,0-.23.19" transform="translate(0.28 0.34)" style="fill: #9e9e9e"/>
          <path d="M7.25,365.12l-1.14-.62a1.64,1.64,0,0,1,.29-.16l1.14.62a1.64,1.64,0,0,0-.29.16" transform="translate(0.28 0.34)" style="fill: #a3a3a3"/>
          <path d="M7.54,365l-1.14-.62a1.52,1.52,0,0,1,.5-.15,1.57,1.57,0,0,1,.68,0l1.14.62a1.57,1.57,0,0,0-.68,0,1.52,1.52,0,0,0-.5.15" transform="translate(0.28 0.34)" style="fill: #a8a8a8"/>
          <path d="M8.72,364.85l-1.14-.62a1.43,1.43,0,0,1,.27.09l1.14.62a1.43,1.43,0,0,0-.27-.09" transform="translate(0.28 0.34)" style="fill: #a3a3a3"/>
        </g>
      </g>
    </g>
    <g style="isolation: isolate">
      <g style="clip-path: url(#clip-path-13)">
        <g style="isolation: isolate">
          <path d="M9,364.94l-1.14-.62.11.05L9.1,365,9,364.94" transform="translate(0.28 0.34)" style="fill: #a3a3a3"/>
          <path d="M9.1,365,8,364.37l.11.06,1.14.61L9.1,365" transform="translate(0.28 0.34)" style="fill: #9e9e9e"/>
        </g>
      </g>
    </g>
    <path d="M17.65,369.75a.87.87,0,0,1,.12.71,1.18,1.18,0,0,1-1.11.88,5.74,5.74,0,0,1-1.11,0,9.6,9.6,0,0,0-2.14.06,12.83,12.83,0,0,0-5.68,2.45,3.54,3.54,0,0,1-1.46.72,1.07,1.07,0,0,1-.44,0,1,1,0,0,1-.68-.7c-.83-2.51-.37-5.17,1.36-7.92A2.26,2.26,0,0,1,8,364.81a1.67,1.67,0,0,1,1,.13c.55.25,1.25.7.87,1.72a9,9,0,0,0-.74,3.81,25.4,25.4,0,0,1,4.38-1c.79-.11,1.59-.18,2.37-.21A2.1,2.1,0,0,1,17.65,369.75Zm-1,.86c.26,0,.41-.12.44-.24l0-.12c-.11-.15-.51-.3-1.3-.28a20.57,20.57,0,0,0-2.32.2,24.79,24.79,0,0,0-4.6,1.11l-.35.12,0-.38a9.32,9.32,0,0,1,.76-4.56c.07-.21.18-.5-.57-.84a1.26,1.26,0,0,0-.65-.1,1.49,1.49,0,0,0-1,.76c-1.6,2.55-2,4.93-1.25,7.23a.48.48,0,0,0,.29.33.59.59,0,0,0,.19,0,2.78,2.78,0,0,0,1.15-.59,13.58,13.58,0,0,1,6-2.58,10.08,10.08,0,0,1,2.26-.07,4.81,4.81,0,0,0,1,0" transform="translate(0.28 0.34)" style="fill: #dfdfdf"/>
  </g>
  <circle cx="10.28" cy="370.34" r="7.5" style="fill: none;stroke: #fff;stroke-miterlimit: 10;stroke-width: 0.75px"/>
  <g style="isolation: isolate">
    <polygon points="237.41 370.71 236.27 370.09 236.23 369.97 237.37 370.59 237.41 370.71" style="fill: gray"/>
    <g style="isolation: isolate">
      <g style="clip-path: url(#clip-path-14)">
        <g style="isolation: isolate">
          <path d="M237.1,370.25l-1.14-.62a.36.36,0,0,0-.13-.11l1.14.62a.36.36,0,0,1,.13.11" transform="translate(0.28 0.34)" style="fill: #858585"/>
        </g>
      </g>
    </g>
    <g style="isolation: isolate">
      <g style="clip-path: url(#clip-path-15)">
        <g style="isolation: isolate">
          <path d="M236.69,370.61l-1.14-.62a1,1,0,0,0,.28-.07l1.14.62a1,1,0,0,1-.28.07" transform="translate(0.28 0.34)" style="fill: #a8a8a8"/>
          <path d="M237,370.54l-1.14-.62.06,0,1.14.62-.06,0" transform="translate(0.28 0.34)" style="fill: #a3a3a3"/>
          <path d="M237,370.5l-1.14-.62,0,0,1.14.62,0,0" transform="translate(0.28 0.34)" style="fill: #9e9e9e"/>
          <path d="M237.06,370.48l-1.14-.62,0,0,1.14.62,0,0" transform="translate(0.28 0.34)" style="fill: #999"/>
          <path d="M237.09,370.46l-1.14-.62v0l1.14.62v0" transform="translate(0.28 0.34)" style="fill: #949494"/>
          <path d="M237.1,370.44l-1.14-.62v0l1.14.62v0" transform="translate(0.28 0.34)" style="fill: #8f8f8f"/>
          <path d="M237.11,370.42,236,369.8v0l1.14.62v0" transform="translate(0.28 0.34)" style="fill: #8a8a8a"/>
          <path d="M237.12,370.39l-1.14-.62v0l1.14.62v0" transform="translate(0.28 0.34)" style="fill: #858585"/>
        </g>
      </g>
    </g>
    <g style="isolation: isolate">
      <g style="clip-path: url(#clip-path-16)">
        <g style="isolation: isolate">
          <path d="M235.69,370.6l-1.14-.62a4.2,4.2,0,0,0,1,0l1.14.62a4.2,4.2,0,0,1-1,0" transform="translate(0.28 0.34)" style="fill: #a8a8a8"/>
        </g>
      </g>
    </g>
    <g style="isolation: isolate">
      <g style="clip-path: url(#clip-path-17)">
        <g style="isolation: isolate">
          <path d="M229.12,370.47l-1.14-.62a25.61,25.61,0,0,1,4.38-1q1.2-.16,2.37-.21a4.18,4.18,0,0,1,1.07.09l1.14.62a4.18,4.18,0,0,0-1.07-.09q-1.17,0-2.37.21a25.61,25.61,0,0,0-4.38,1" transform="translate(0.28 0.34)" style="fill: #a8a8a8"/>
          <path d="M236.94,369.33l-1.14-.62a1.61,1.61,0,0,1,.33.12l1.14.62a1.61,1.61,0,0,0-.33-.12" transform="translate(0.28 0.34)" style="fill: #a3a3a3"/>
          <path d="M237.27,369.45l-1.14-.62.05,0,1.14.62,0,0" transform="translate(0.28 0.34)" style="fill: #9e9e9e"/>
        </g>
      </g>
    </g>
    <g style="isolation: isolate">
      <g style="clip-path: url(#clip-path-18)">
        <g style="isolation: isolate">
          <path d="M227.4,373.25l-1.14-.62.28-.19,1.14.62-.28.19" transform="translate(0.28 0.34)" style="fill: #9e9e9e"/>
          <path d="M227.68,373.06l-1.14-.62a15.4,15.4,0,0,1,2.29-1.33l1.14.62a15.4,15.4,0,0,0-2.29,1.33" transform="translate(0.28 0.34)" style="fill: #a3a3a3"/>
          <path d="M230,371.73l-1.14-.62a11.71,11.71,0,0,1,3.45-1.06,10.17,10.17,0,0,1,2.27-.07l1.14.62a10.17,10.17,0,0,0-2.27.07,11.71,11.71,0,0,0-3.45,1.06" transform="translate(0.28 0.34)" style="fill: #a8a8a8"/>
        </g>
      </g>
    </g>
    <polygon points="228.81 371.74 227.67 371.12 227.62 370.75 228.76 371.37 228.81 371.74" style="fill: gray"/>
    <g style="isolation: isolate">
      <g style="clip-path: url(#clip-path-19)">
        <g style="isolation: isolate">
          <path d="M226.06,373.84l-1.14-.62h.21a1.42,1.42,0,0,0,.41-.13l1.14.62a1.42,1.42,0,0,1-.41.13.72.72,0,0,1-.21,0" transform="translate(0.28 0.34)" style="fill: #a8a8a8"/>
          <path d="M226.68,373.71l-1.14-.62a3.9,3.9,0,0,0,.53-.32l1.14.62a3.9,3.9,0,0,1-.53.32" transform="translate(0.28 0.34)" style="fill: #a3a3a3"/>
          <path d="M227.21,373.39l-1.14-.62.19-.14,1.14.62-.19.14" transform="translate(0.28 0.34)" style="fill: #9e9e9e"/>
        </g>
      </g>
    </g>
    <g style="isolation: isolate">
      <g style="clip-path: url(#clip-path-20)">
        <g style="isolation: isolate">
          <path d="M226,373.81l-1.14-.62h0l1.14.62h0" transform="translate(0.28 0.34)" style="fill: #9e9e9e"/>
          <path d="M226,373.82l-1.14-.62,0,0,1.14.62-.05,0" transform="translate(0.28 0.34)" style="fill: #a3a3a3"/>
        </g>
      </g>
    </g>
    <g style="isolation: isolate">
      <g style="clip-path: url(#clip-path-21)">
        <g style="isolation: isolate">
          <path d="M228.49,371l-1.14-.62a9.05,9.05,0,0,1,.6-4.13l1.14.62a9.05,9.05,0,0,0-.6,4.13" transform="translate(0.28 0.34)" style="fill: #858585"/>
          <path d="M229.09,366.89l-1.14-.62c.05-.14.1-.28.16-.42l1.14.62c-.06.14-.11.28-.16.42" transform="translate(0.28 0.34)" style="fill: #8a8a8a"/>
        </g>
      </g>
    </g>
    <g style="isolation: isolate">
      <g style="clip-path: url(#clip-path-22)">
        <g style="isolation: isolate">
          <path d="M225.63,374.46l-1.14-.62a1.07,1.07,0,0,1-.48-.62l1.14.62a1.07,1.07,0,0,0,.48.62" transform="translate(0.28 0.34)" style="fill: #858585"/>
        </g>
      </g>
    </g>
    <g style="isolation: isolate">
      <g style="clip-path: url(#clip-path-23)">
        <g style="isolation: isolate">
          <polyline points="229.53 366.81 228.38 366.19 228.38 366.19 229.53 366.81 229.53 366.81" style="fill: #8a8a8a"/>
          <path d="M229.25,366.47l-1.14-.62c.07-.2.17-.45-.39-.76l1.14.62c.56.31.46.56.39.76" transform="translate(0.28 0.34)" style="fill: #858585"/>
        </g>
      </g>
    </g>
    <g style="isolation: isolate">
      <g style="clip-path: url(#clip-path-24)">
        <g style="isolation: isolate">
          <path d="M229,364.94l-1.14-.62.12.06,1.14.62-.12-.06" transform="translate(0.28 0.34)" style="fill: #a3a3a3"/>
          <path d="M229.11,365l-1.14-.62.11.05,1.14.62-.11-.05" transform="translate(0.28 0.34)" style="fill: #9e9e9e"/>
        </g>
      </g>
    </g>
    <g style="isolation: isolate">
      <g style="clip-path: url(#clip-path-25)">
        <g style="isolation: isolate">
          <path d="M226.5,365.92l-1.14-.62.07-.1,1.14.62-.07.1" transform="translate(0.28 0.34)" style="fill: #8f8f8f"/>
          <path d="M226.57,365.82l-1.14-.62c.07-.11.15-.2.22-.29l1.14.62c-.07.09-.15.18-.22.29" transform="translate(0.28 0.34)" style="fill: #949494"/>
          <path d="M226.79,365.53l-1.14-.62.22-.22,1.14.62-.22.22" transform="translate(0.28 0.34)" style="fill: #999"/>
          <path d="M227,365.31l-1.14-.62.24-.18,1.14.62-.24.18" transform="translate(0.28 0.34)" style="fill: #9e9e9e"/>
          <path d="M227.25,365.13l-1.14-.62a1.22,1.22,0,0,1,.29-.17l1.14.62a1.22,1.22,0,0,0-.29.17" transform="translate(0.28 0.34)" style="fill: #a3a3a3"/>
          <path d="M227.54,365l-1.14-.62a1.52,1.52,0,0,1,.5-.15,1.58,1.58,0,0,1,.68,0l1.14.62a1.58,1.58,0,0,0-.68,0,1.52,1.52,0,0,0-.5.15" transform="translate(0.28 0.34)" style="fill: #a8a8a8"/>
          <path d="M228.72,364.85l-1.14-.62a1.43,1.43,0,0,1,.27.09l1.14.62a1.43,1.43,0,0,0-.27-.09" transform="translate(0.28 0.34)" style="fill: #a3a3a3"/>
        </g>
      </g>
    </g>
    <path d="M237.64,369.76a.77.77,0,0,1,.13.7,1.18,1.18,0,0,1-1.11.88,5,5,0,0,1-1.11,0,9.49,9.49,0,0,0-2.13.06,12.9,12.9,0,0,0-5.7,2.45,3.51,3.51,0,0,1-1.45.72,1,1,0,0,1-.43,0,1,1,0,0,1-.69-.7c-.83-2.51-.37-5.17,1.35-7.92a2.29,2.29,0,0,1,1.54-1.11,1.76,1.76,0,0,1,1,.13c.56.25,1.25.7.88,1.72a9,9,0,0,0-.75,3.81,25.61,25.61,0,0,1,4.38-1q1.2-.17,2.37-.21C236.78,369.21,237.38,369.39,237.64,369.76Zm-.95.85c.26,0,.41-.12.44-.24l0-.12c-.11-.15-.51-.3-1.3-.28a23.19,23.19,0,0,0-2.32.2,26.49,26.49,0,0,0-4.6,1.11l-.34.12,0-.38a9.38,9.38,0,0,1,.76-4.55c.08-.22.18-.51-.58-.85a1.21,1.21,0,0,0-.64-.1,1.45,1.45,0,0,0-1,.76c-1.61,2.55-2,4.93-1.26,7.23a.45.45,0,0,0,.28.33.72.72,0,0,0,.21,0,2.74,2.74,0,0,0,1.13-.59,13.62,13.62,0,0,1,6-2.58,10.17,10.17,0,0,1,2.27-.07,4.2,4.2,0,0,0,1,0" transform="translate(0.28 0.34)" style="fill: #dfdfdf"/>
    <g style="isolation: isolate">
      <g style="clip-path: url(#clip-path-26)">
        <g style="isolation: isolate">
          <path d="M225.15,373.84l-1.14-.62a8.21,8.21,0,0,1,.18-5.56l1.14.62a8.21,8.21,0,0,0-.18,5.56" transform="translate(0.28 0.34)" style="fill: #858585"/>
          <path d="M225.33,368.28l-1.14-.62a10.31,10.31,0,0,1,.69-1.53l1.14.62a10.31,10.31,0,0,0-.69,1.53" transform="translate(0.28 0.34)" style="fill: #8a8a8a"/>
          <path d="M226,366.75l-1.14-.62c.15-.28.31-.55.48-.83l1.14.62c-.17.28-.33.55-.48.83" transform="translate(0.28 0.34)" style="fill: #8f8f8f"/>
        </g>
      </g>
    </g>
  </g>
  <circle cx="230.28" cy="370.34" r="7.5" style="fill: none;stroke: #fff;stroke-miterlimit: 10;stroke-width: 0.75px"/>
  <g style="isolation: isolate">
    <polygon points="17.4 10.71 16.26 10.09 16.24 9.97 17.38 10.59 17.4 10.71" style="fill: gray"/>
    <g style="isolation: isolate">
      <g style="clip-path: url(#clip-path-27)">
        <g style="isolation: isolate">
          <path d="M17.1,10.25,16,9.63a.36.36,0,0,0-.13-.11l1.14.62a.36.36,0,0,1,.13.11" transform="translate(0.28 0.34)" style="fill: #858585"/>
        </g>
      </g>
    </g>
    <g style="isolation: isolate">
      <g style="clip-path: url(#clip-path-28)">
        <g style="isolation: isolate">
          <path d="M16.69,10.61,15.55,10a.93.93,0,0,0,.28-.08l1.14.62a.93.93,0,0,1-.28.08" transform="translate(0.28 0.34)" style="fill: #a8a8a8"/>
          <path d="M17,10.53l-1.14-.62.06,0L17,10.5l-.06,0" transform="translate(0.28 0.34)" style="fill: #a3a3a3"/>
          <path d="M17,10.5l-1.14-.62,0,0,1.14.62,0,0" transform="translate(0.28 0.34)" style="fill: #9e9e9e"/>
          <path d="M17.06,10.48l-1.14-.62,0,0,1.14.62,0,0" transform="translate(0.28 0.34)" style="fill: #999"/>
          <path d="M17.08,10.45l-1.14-.62h0l1.14.62h0" transform="translate(0.28 0.34)" style="fill: #949494"/>
          <path d="M17.1,10.44,16,9.82v0l1.14.62v0" transform="translate(0.28 0.34)" style="fill: #8f8f8f"/>
          <path d="M17.11,10.42,16,9.8v0l1.14.62v0" transform="translate(0.28 0.34)" style="fill: #8a8a8a"/>
          <path d="M17.12,10.39,16,9.77v0l1.14.62v0" transform="translate(0.28 0.34)" style="fill: #858585"/>
        </g>
      </g>
    </g>
    <g style="isolation: isolate">
      <g style="clip-path: url(#clip-path-29)">
        <g style="isolation: isolate">
          <path d="M9.12,10.47,8,9.85a25.08,25.08,0,0,1,4.37-1c.79-.11,1.59-.18,2.37-.21a4.23,4.23,0,0,1,1.07.09l1.14.62a4.23,4.23,0,0,0-1.07-.09c-.78,0-1.58.1-2.37.21a25.4,25.4,0,0,0-4.38,1" transform="translate(0.28 0.34)" style="fill: #a8a8a8"/>
          <path d="M16.94,9.33,15.8,8.71a1.61,1.61,0,0,1,.33.12l1.14.62a1.61,1.61,0,0,0-.33-.12" transform="translate(0.28 0.34)" style="fill: #a3a3a3"/>
          <path d="M17.27,9.45l-1.14-.62.05,0,1.14.62-.05,0" transform="translate(0.28 0.34)" style="fill: #9e9e9e"/>
        </g>
      </g>
    </g>
    <g style="isolation: isolate">
      <g style="clip-path: url(#clip-path-30)">
        <g style="isolation: isolate">
          <path d="M7.41,13.25l-1.14-.62.24-.17,1.14.62-.24.17" transform="translate(0.28 0.34)" style="fill: #9e9e9e"/>
          <path d="M7.65,13.08l-1.14-.62a16.36,16.36,0,0,1,2.32-1.35l1.14.62a15.83,15.83,0,0,0-2.32,1.35" transform="translate(0.28 0.34)" style="fill: #a3a3a3"/>
          <path d="M10,11.73l-1.14-.62a11.83,11.83,0,0,1,3.47-1.06A10,10,0,0,1,14.55,10a4.81,4.81,0,0,0,1,0l1.14.62a4.81,4.81,0,0,1-1,0,10,10,0,0,0-2.25.07A11.83,11.83,0,0,0,10,11.73" transform="translate(0.28 0.34)" style="fill: #a8a8a8"/>
        </g>
      </g>
    </g>
    <polygon points="8.81 11.74 7.67 11.12 7.63 10.75 8.77 11.37 8.81 11.74" style="fill: gray"/>
    <g style="isolation: isolate">
      <g style="clip-path: url(#clip-path-31)">
        <g style="isolation: isolate">
          <path d="M6.07,13.84l-1.14-.62h.2a1.42,1.42,0,0,0,.41-.13l1.14.62a1.42,1.42,0,0,1-.41.13h-.2" transform="translate(0.28 0.34)" style="fill: #a8a8a8"/>
          <path d="M6.68,13.71l-1.14-.62a3.57,3.57,0,0,0,.54-.33l1.14.62a3.57,3.57,0,0,1-.54.33" transform="translate(0.28 0.34)" style="fill: #a3a3a3"/>
          <path d="M7.22,13.38l-1.14-.62.19-.13,1.14.62-.19.13" transform="translate(0.28 0.34)" style="fill: #9e9e9e"/>
        </g>
      </g>
    </g>
    <g style="isolation: isolate">
      <g style="clip-path: url(#clip-path-32)">
        <g style="isolation: isolate">
          <path d="M6,13.81l-1.14-.62h0L6,13.81H6" transform="translate(0.28 0.34)" style="fill: #9e9e9e"/>
          <path d="M6,13.81l-1.14-.62.06,0,1.14.62-.06,0" transform="translate(0.28 0.34)" style="fill: #a3a3a3"/>
        </g>
      </g>
    </g>
    <g style="isolation: isolate">
      <g style="clip-path: url(#clip-path-33)">
        <g style="isolation: isolate">
          <path d="M8.49,11,7.35,10.4A9,9,0,0,1,8,6.28l1.14.62A9,9,0,0,0,8.49,11" transform="translate(0.28 0.34)" style="fill: #858585"/>
          <path d="M9.09,6.9,8,6.28c0-.15.1-.29.16-.44l1.14.62c-.06.15-.11.29-.16.44" transform="translate(0.28 0.34)" style="fill: #8a8a8a"/>
        </g>
      </g>
    </g>
    <g style="isolation: isolate">
      <g style="clip-path: url(#clip-path-34)">
        <g style="isolation: isolate">
          <path d="M5.65,14.47l-1.14-.62a1.12,1.12,0,0,1-.5-.63l1.14.62a1.12,1.12,0,0,0,.5.63" transform="translate(0.28 0.34)" style="fill: #858585"/>
        </g>
      </g>
    </g>
    <g style="isolation: isolate">
      <g style="clip-path: url(#clip-path-35)">
        <g style="isolation: isolate">
          <path d="M9.25,6.46,8.11,5.84c.07-.19.16-.45-.4-.75l1.14.62c.56.3.47.56.4.75" transform="translate(0.28 0.34)" style="fill: #858585"/>
        </g>
      </g>
    </g>
    <g style="isolation: isolate">
      <g style="clip-path: url(#clip-path-36)">
        <g style="isolation: isolate">
          <path d="M5.15,13.84,4,13.22a8.23,8.23,0,0,1,.17-5.55l1.14.62a8.23,8.23,0,0,0-.17,5.55" transform="translate(0.28 0.34)" style="fill: #858585"/>
          <path d="M5.32,8.29,4.18,7.67a12.27,12.27,0,0,1,.7-1.54L6,6.75a12.27,12.27,0,0,0-.7,1.54" transform="translate(0.28 0.34)" style="fill: #8a8a8a"/>
          <path d="M6,6.75,4.88,6.13c.15-.28.31-.55.49-.83l.07-.12,1.14.62-.07.12c-.18.28-.34.55-.49.83" transform="translate(0.28 0.34)" style="fill: #8f8f8f"/>
          <path d="M6.58,5.8,5.44,5.18a3.2,3.2,0,0,1,.22-.27l1.14.62a2,2,0,0,0-.22.27" transform="translate(0.28 0.34)" style="fill: #949494"/>
          <path d="M6.8,5.53,5.66,4.91a2.28,2.28,0,0,1,.22-.22L7,5.31l-.22.22" transform="translate(0.28 0.34)" style="fill: #999"/>
          <path d="M7,5.31,5.88,4.69a2.11,2.11,0,0,1,.23-.19l1.14.62A2.11,2.11,0,0,0,7,5.31" transform="translate(0.28 0.34)" style="fill: #9e9e9e"/>
          <path d="M7.25,5.12,6.11,4.5a1.64,1.64,0,0,1,.29-.16L7.54,5a1.64,1.64,0,0,0-.29.16" transform="translate(0.28 0.34)" style="fill: #a3a3a3"/>
          <path d="M7.54,5,6.4,4.34a1.52,1.52,0,0,1,.5-.15,1.57,1.57,0,0,1,.68,0l1.14.62a1.57,1.57,0,0,0-.68,0,1.52,1.52,0,0,0-.5.15" transform="translate(0.28 0.34)" style="fill: #a8a8a8"/>
          <path d="M8.72,4.85,7.58,4.23a1.43,1.43,0,0,1,.27.09L9,4.94l-.27-.09" transform="translate(0.28 0.34)" style="fill: #a3a3a3"/>
        </g>
      </g>
    </g>
    <g style="isolation: isolate">
      <g style="clip-path: url(#clip-path-37)">
        <g style="isolation: isolate">
          <path d="M9,4.94,7.85,4.32l.11,0L9.1,5,9,4.94" transform="translate(0.28 0.34)" style="fill: #a3a3a3"/>
          <path d="M9.1,5,8,4.37l.11.06L9.21,5,9.1,5" transform="translate(0.28 0.34)" style="fill: #9e9e9e"/>
        </g>
      </g>
    </g>
    <path d="M17.65,9.75a.87.87,0,0,1,.12.71,1.18,1.18,0,0,1-1.11.88,5.74,5.74,0,0,1-1.11,0,9.49,9.49,0,0,0-2.13.06,12.86,12.86,0,0,0-5.69,2.45,3.54,3.54,0,0,1-1.46.72,1.07,1.07,0,0,1-.44,0,1,1,0,0,1-.68-.7c-.83-2.51-.37-5.17,1.36-7.92A2.26,2.26,0,0,1,8,4.81a1.67,1.67,0,0,1,1,.13c.55.25,1.25.7.87,1.72a9,9,0,0,0-.74,3.81,25.4,25.4,0,0,1,4.38-1c.79-.11,1.59-.18,2.37-.21A2.1,2.1,0,0,1,17.65,9.75Zm-1,.86c.26,0,.41-.12.44-.24l0-.12c-.11-.15-.51-.3-1.3-.28a20.57,20.57,0,0,0-2.32.2,25.41,25.41,0,0,0-4.6,1.11l-.35.12,0-.38a9.32,9.32,0,0,1,.76-4.56c.07-.21.18-.5-.57-.84A1.26,1.26,0,0,0,8,5.52a1.49,1.49,0,0,0-1,.76c-1.6,2.55-2,4.93-1.25,7.23a.48.48,0,0,0,.29.33h.2a2.82,2.82,0,0,0,1.14-.59,13.56,13.56,0,0,1,6-2.58,10,10,0,0,1,2.25-.07,4.81,4.81,0,0,0,1,0" transform="translate(0.28 0.34)" style="fill: #dfdfdf"/>
  </g>
  <circle cx="10.28" cy="10.34" r="7.5" style="fill: none;stroke: #fff;stroke-miterlimit: 10;stroke-width: 0.75px"/>
  <g style="isolation: isolate">
    <polygon points="237.41 10.71 236.27 10.09 236.23 9.97 237.37 10.59 237.41 10.71" style="fill: gray"/>
    <g style="isolation: isolate">
      <g style="clip-path: url(#clip-path-38)">
        <g style="isolation: isolate">
          <path d="M237.1,10.25,236,9.63a.36.36,0,0,0-.13-.11l1.14.62a.36.36,0,0,1,.13.11" transform="translate(0.28 0.34)" style="fill: #858585"/>
        </g>
      </g>
    </g>
    <g style="isolation: isolate">
      <g style="clip-path: url(#clip-path-39)">
        <g style="isolation: isolate">
          <path d="M236.69,10.61,235.55,10a.85.85,0,0,0,.28-.08l1.14.62a.85.85,0,0,1-.28.08" transform="translate(0.28 0.34)" style="fill: #a8a8a8"/>
          <path d="M237,10.53l-1.14-.62.07,0,1.14.62-.07,0" transform="translate(0.28 0.34)" style="fill: #a3a3a3"/>
          <path d="M237,10.5l-1.14-.62,0,0,1.14.62,0,0" transform="translate(0.28 0.34)" style="fill: #9e9e9e"/>
          <path d="M237.07,10.48l-1.14-.62,0,0,1.14.62,0,0" transform="translate(0.28 0.34)" style="fill: #999"/>
          <path d="M237.09,10.45,236,9.83h0l1.14.62h0" transform="translate(0.28 0.34)" style="fill: #949494"/>
          <path d="M237.1,10.44,236,9.82v0l1.14.62v0" transform="translate(0.28 0.34)" style="fill: #8f8f8f"/>
          <path d="M237.11,10.42,236,9.8v0l1.14.62v0" transform="translate(0.28 0.34)" style="fill: #8a8a8a"/>
          <path d="M237.12,10.39,236,9.77v0l1.14.62v0" transform="translate(0.28 0.34)" style="fill: #858585"/>
        </g>
      </g>
    </g>
    <g style="isolation: isolate">
      <g style="clip-path: url(#clip-path-40)">
        <g style="isolation: isolate">
          <path d="M229.12,10.47,228,9.85a25.61,25.61,0,0,1,4.38-1q1.2-.16,2.37-.21a4.18,4.18,0,0,1,1.07.09l1.14.62a4.18,4.18,0,0,0-1.07-.09q-1.17,0-2.37.21a25.61,25.61,0,0,0-4.38,1" transform="translate(0.28 0.34)" style="fill: #a8a8a8"/>
          <path d="M236.94,9.33l-1.14-.62a1.61,1.61,0,0,1,.33.12l1.14.62a1.61,1.61,0,0,0-.33-.12" transform="translate(0.28 0.34)" style="fill: #a3a3a3"/>
          <path d="M237.27,9.45l-1.14-.62.05,0,1.14.62,0,0" transform="translate(0.28 0.34)" style="fill: #9e9e9e"/>
        </g>
      </g>
    </g>
    <g style="isolation: isolate">
      <g style="clip-path: url(#clip-path-41)">
        <g style="isolation: isolate">
          <path d="M227.4,13.25l-1.14-.62.25-.17,1.14.62-.25.17" transform="translate(0.28 0.34)" style="fill: #9e9e9e"/>
          <path d="M227.65,13.08l-1.14-.62a17.29,17.29,0,0,1,2.31-1.35l1.14.62a17.29,17.29,0,0,0-2.31,1.35" transform="translate(0.28 0.34)" style="fill: #a3a3a3"/>
          <path d="M230,11.73l-1.14-.62a12.23,12.23,0,0,1,3.47-1.06,10.08,10.08,0,0,1,2.26-.07,4.81,4.81,0,0,0,1,0l1.14.62a4.81,4.81,0,0,1-1,0,10.08,10.08,0,0,0-2.26.07A12.23,12.23,0,0,0,230,11.73" transform="translate(0.28 0.34)" style="fill: #a8a8a8"/>
        </g>
      </g>
    </g>
    <polygon points="228.81 11.74 227.67 11.12 227.62 10.75 228.76 11.37 228.81 11.74" style="fill: gray"/>
    <g style="isolation: isolate">
      <g style="clip-path: url(#clip-path-42)">
        <g style="isolation: isolate">
          <path d="M226.06,13.84l-1.14-.62h.21a1.33,1.33,0,0,0,.41-.13l1.14.62a1.33,1.33,0,0,1-.41.13h-.21" transform="translate(0.28 0.34)" style="fill: #a8a8a8"/>
          <path d="M226.68,13.71l-1.14-.62a4.1,4.1,0,0,0,.51-.31l1.14.62a4.1,4.1,0,0,1-.51.31" transform="translate(0.28 0.34)" style="fill: #a3a3a3"/>
          <path d="M227.19,13.4l-1.14-.62.21-.15,1.14.62a1.37,1.37,0,0,1-.21.15" transform="translate(0.28 0.34)" style="fill: #9e9e9e"/>
        </g>
      </g>
    </g>
    <g style="isolation: isolate">
      <g style="clip-path: url(#clip-path-43)">
        <g style="isolation: isolate">
          <path d="M226,13.81l-1.14-.62h0l1.14.62h0" transform="translate(0.28 0.34)" style="fill: #9e9e9e"/>
          <path d="M226,13.82l-1.14-.62,0,0,1.14.62-.05,0" transform="translate(0.28 0.34)" style="fill: #a3a3a3"/>
        </g>
      </g>
    </g>
    <g style="isolation: isolate">
      <g style="clip-path: url(#clip-path-44)">
        <g style="isolation: isolate">
          <path d="M228.49,11l-1.14-.62a9.05,9.05,0,0,1,.6-4.13l1.14.62a9.05,9.05,0,0,0-.6,4.13" transform="translate(0.28 0.34)" style="fill: #858585"/>
          <path d="M229.09,6.89,228,6.27c.05-.14.1-.28.16-.42l1.14.62c-.06.14-.11.28-.16.42" transform="translate(0.28 0.34)" style="fill: #8a8a8a"/>
        </g>
      </g>
    </g>
    <g style="isolation: isolate">
      <g style="clip-path: url(#clip-path-45)">
        <g style="isolation: isolate">
          <path d="M225.64,14.47l-1.14-.62a1.07,1.07,0,0,1-.49-.63l1.14.62a1.07,1.07,0,0,0,.49.63" transform="translate(0.28 0.34)" style="fill: #858585"/>
        </g>
      </g>
    </g>
    <g style="isolation: isolate">
      <g style="clip-path: url(#clip-path-46)">
        <g style="isolation: isolate">
          <polyline points="229.53 6.81 228.38 6.19 228.38 6.19 229.53 6.81 229.53 6.81" style="fill: #8a8a8a"/>
          <path d="M229.25,6.47l-1.14-.62c.07-.2.17-.45-.39-.76l1.14.62c.56.31.46.56.39.76" transform="translate(0.28 0.34)" style="fill: #858585"/>
        </g>
      </g>
    </g>
    <g style="isolation: isolate">
      <g style="clip-path: url(#clip-path-47)">
        <g style="isolation: isolate">
          <path d="M229,4.94l-1.14-.62.12.06,1.14.62L229,4.94" transform="translate(0.28 0.34)" style="fill: #a3a3a3"/>
          <path d="M229.11,5,228,4.38l.11,0,1.14.62-.11,0" transform="translate(0.28 0.34)" style="fill: #9e9e9e"/>
        </g>
      </g>
    </g>
    <g style="isolation: isolate">
      <g style="clip-path: url(#clip-path-48)">
        <g style="isolation: isolate">
          <path d="M226.5,5.92l-1.14-.62.07-.1,1.14.62-.07.1" transform="translate(0.28 0.34)" style="fill: #8f8f8f"/>
          <path d="M226.57,5.82l-1.14-.62c.07-.11.15-.2.22-.29l1.14.62c-.07.09-.15.18-.22.29" transform="translate(0.28 0.34)" style="fill: #949494"/>
          <path d="M226.79,5.53l-1.14-.62.22-.22,1.14.62-.22.22" transform="translate(0.28 0.34)" style="fill: #999"/>
          <path d="M227,5.31l-1.14-.62a1.88,1.88,0,0,1,.24-.18l1.14.62a1.88,1.88,0,0,0-.24.18" transform="translate(0.28 0.34)" style="fill: #9e9e9e"/>
          <path d="M227.25,5.13l-1.14-.62a1.22,1.22,0,0,1,.29-.17l1.14.62a1.22,1.22,0,0,0-.29.17" transform="translate(0.28 0.34)" style="fill: #a3a3a3"/>
          <path d="M227.54,5l-1.14-.62a1.52,1.52,0,0,1,.5-.15,1.58,1.58,0,0,1,.68,0l1.14.62a1.58,1.58,0,0,0-.68,0,1.52,1.52,0,0,0-.5.15" transform="translate(0.28 0.34)" style="fill: #a8a8a8"/>
          <path d="M228.72,4.85l-1.14-.62.27.09,1.14.62-.27-.09" transform="translate(0.28 0.34)" style="fill: #a3a3a3"/>
        </g>
      </g>
    </g>
    <path d="M237.64,9.76a.77.77,0,0,1,.13.7,1.18,1.18,0,0,1-1.11.88,5,5,0,0,1-1.11,0,9.49,9.49,0,0,0-2.13.06,12.9,12.9,0,0,0-5.7,2.45,3.51,3.51,0,0,1-1.45.72,1.07,1.07,0,0,1-.44,0,1,1,0,0,1-.68-.7c-.83-2.51-.37-5.17,1.35-7.92A2.29,2.29,0,0,1,228,4.81a1.76,1.76,0,0,1,1,.13c.56.25,1.25.7.87,1.73a9.06,9.06,0,0,0-.74,3.8,25.61,25.61,0,0,1,4.38-1q1.2-.16,2.37-.21C236.78,9.21,237.38,9.39,237.64,9.76Zm-.95.85c.26,0,.41-.12.44-.24l0-.12c-.11-.15-.51-.3-1.3-.28a23.19,23.19,0,0,0-2.32.2,26.49,26.49,0,0,0-4.6,1.11l-.34.12,0-.38a9.38,9.38,0,0,1,.76-4.55c.08-.22.18-.51-.58-.85a1.21,1.21,0,0,0-.64-.1,1.45,1.45,0,0,0-1,.76c-1.61,2.55-2,4.93-1.26,7.23a.45.45,0,0,0,.28.33h.21a2.57,2.57,0,0,0,1.13-.59,13.66,13.66,0,0,1,6-2.58,10.08,10.08,0,0,1,2.26-.07,4.81,4.81,0,0,0,1,0" transform="translate(0.28 0.34)" style="fill: #dfdfdf"/>
    <g style="isolation: isolate">
      <g style="clip-path: url(#clip-path-49)">
        <g style="isolation: isolate">
          <path d="M225.15,13.84,224,13.22a8.21,8.21,0,0,1,.18-5.56l1.14.62a8.21,8.21,0,0,0-.18,5.56" transform="translate(0.28 0.34)" style="fill: #858585"/>
          <path d="M225.33,8.28l-1.14-.62a10.31,10.31,0,0,1,.69-1.53l1.14.62a10.31,10.31,0,0,0-.69,1.53" transform="translate(0.28 0.34)" style="fill: #8a8a8a"/>
          <path d="M226,6.75l-1.14-.62c.15-.28.31-.55.48-.83l1.14.62c-.17.28-.33.55-.48.83" transform="translate(0.28 0.34)" style="fill: #8f8f8f"/>
        </g>
      </g>
    </g>
  </g>
  <circle cx="230.28" cy="10.34" r="7.5" style="fill: none;stroke: #fff;stroke-miterlimit: 10;stroke-width: 0.75px"/>
</svg>
